<?xml version="1.0" encoding="iso-8859-1"?>
<!-- Generator: Adobe Illustrator 18.0.0, SVG Export Plug-In . SVG Version: 6.00 Build 0)  -->
<!DOCTYPE svg PUBLIC "-//W3C//DTD SVG 1.1//EN" "http://www.w3.org/Graphics/SVG/1.1/DTD/svg11.dtd">
<svg version="1.1" xmlns="http://www.w3.org/2000/svg" xmlns:xlink="http://www.w3.org/1999/xlink" x="0px" y="0px"
	 viewBox="0 0 603.899 508.334" style="enable-background:new 0 0 603.899 508.334;" xml:space="preserve">
<g id="analisis_x5F_page36">
	<g>
		<g>
			<g style="opacity:0.4;">
				<g>
					<polyline style="fill:none;stroke:#7D96BC;stroke-miterlimit:10;" points="277.428,29.018 349.84,97.449 304.435,227.307 
						531.08,161.379 					"/>
					<polyline style="fill:none;stroke:#F98787;stroke-width:2;stroke-miterlimit:10;" points="420.587,6.329 189.063,105.328 
						432.636,258.805 423.218,136.45 536.994,142.714 					"/>
					<polyline style="fill:none;stroke:#7D96BC;stroke-miterlimit:10;" points="418.766,6.438 546.964,158.999 568.947,317.69 
						333.862,383.395 432.636,248.201 					"/>
					<polyline style="fill:none;stroke:#7D96BC;stroke-miterlimit:10;" points="63.947,290.684 10.023,172.936 168.716,114.872 
						75.027,22.579 					"/>
					<polyline style="fill:none;stroke:#7D96BC;stroke-miterlimit:10;" points="157.41,40.582 173.37,121.217 261.738,130.658 
						183.771,300.018 60.678,308.306 205.623,464.803 315.085,284.245 450.973,432.393 					"/>
					<polyline style="fill:none;stroke:#F98787;stroke-width:2;stroke-miterlimit:10;" points="277.428,29.018 109.973,160.146 
						23.513,383.395 321.524,501.896 356.278,445.938 435.199,438.918 					"/>
					<polyline style="fill:none;stroke:#F98787;stroke-width:2;stroke-miterlimit:10;" points="507.658,16.141 568.947,66.836 
						531.08,233.246 316.006,285.744 171.105,117.222 					"/>
					<circle style="fill:#F98787;" cx="315.086" cy="284.245" r="6.438"/>
					<circle style="fill:#7D96BC;" cx="185.591" cy="298.637" r="6.438"/>
					<circle style="fill:#7D96BC;" cx="363.588" cy="340.234" r="6.438"/>
					<circle style="fill:#7D96BC;" cx="333.863" cy="383.395" r="6.439"/>
					<circle style="fill:#7D96BC;" cx="568.948" cy="317.659" r="6.439"/>
					<circle style="fill:#7D96BC;" cx="262.264" cy="130.239" r="6.439"/>
					<circle style="fill:#7D96BC;" cx="277.428" cy="29.018" r="6.438"/>
					<circle style="fill:#7D96BC;" cx="75.028" cy="22.579" r="6.438"/>
					<circle style="fill:#7D96BC;" cx="157.41" cy="40.582" r="6.438"/>
					<circle style="fill:#7D96BC;" cx="418.766" cy="6.438" r="6.438"/>
					<circle style="fill:#7D96BC;" cx="303.129" cy="227.307" r="6.438"/>
					<circle style="fill:#F98787;" cx="357.149" cy="210.746" r="6.438"/>
					<circle style="fill:#F98787;" cx="318.06" cy="186.928" r="6.438"/>
					<circle style="fill:#F98787;" cx="356.278" cy="444.941" r="6.438"/>
					<circle style="fill:#F98787;" cx="110.794" cy="160.146" r="6.439"/>
					<circle style="fill:#F98787;" cx="568.948" cy="66.836" r="6.439"/>
					<circle style="fill:#F98787;" cx="507.658" cy="16.141" r="6.438"/>
					<circle style="fill:#F98787;" cx="423.216" cy="136.677" r="6.439"/>
					<circle style="fill:#F98787;" cx="304.33" cy="53.602" r="6.438"/>
					<circle style="fill:#FFFFFF;stroke:#F98787;stroke-width:2;stroke-miterlimit:10;" cx="531.081" cy="232.801" r="9.023"/>
					<circle style="fill:#FFFFFF;stroke:#7D96BC;stroke-width:2;stroke-miterlimit:10;" cx="10.023" cy="172.936" r="9.023"/>
					<path style="fill:#FFFFFF;stroke:#7D96BC;stroke-width:2;stroke-miterlimit:10;" d="M357.064,97.45
						c0,4.982-4.038,9.022-9.02,9.022c-4.984,0-9.026-4.04-9.026-9.022c0-4.983,4.042-9.024,9.026-9.024
						C353.026,88.426,357.064,92.467,357.064,97.45z"/>
					<circle style="fill:#FFFFFF;stroke:#7D96BC;stroke-width:2;stroke-miterlimit:10;" cx="391.253" cy="368.926" r="9.023"/>
					<circle style="fill:#FFFFFF;stroke:#F98787;stroke-width:2;stroke-miterlimit:10;" cx="23.513" cy="383.395" r="9.023"/>
				</g>
				<circle style="fill:#F98787;" cx="321.524" cy="501.896" r="6.439"/>
			</g>
			<g>
				<g>
					<polyline style="fill:none;stroke:#464646;stroke-miterlimit:10;stroke-dasharray:4;" points="145.858,92.581 121.441,66.836 
						4.197,66.836 					"/>
					<g>
						<path style="fill:#FFFFFF;" d="M217.153,117.224c0,26.047-21.119,47.164-47.164,47.164c-26.05,0-47.168-21.117-47.168-47.164
							c0-26.05,21.118-47.168,47.168-47.168C196.034,70.056,217.153,91.174,217.153,117.224z"/>
						<path style="fill:#7D96BC;" d="M169.988,165.768c-26.769,0-48.547-21.778-48.547-48.544c0-26.77,21.778-48.548,48.547-48.548
							c26.768,0,48.545,21.778,48.545,48.548C218.533,143.991,196.756,165.768,169.988,165.768z M169.988,71.435
							c-25.248,0-45.788,20.54-45.788,45.789c0,25.245,20.54,45.784,45.788,45.784c25.246,0,45.786-20.539,45.786-45.784
							C215.774,91.976,195.234,71.435,169.988,71.435z"/>
					</g>
				</g>
				<g>
					<polyline style="fill:none;stroke:#464646;stroke-miterlimit:10;stroke-dasharray:4;" points="73.265,285.744 128.114,247.628 
						241.556,246.731 					"/>
					<g>
						<circle style="fill:#FFFFFF;" cx="57.189" cy="294.795" r="47.166"/>
						<path style="fill:#F98787;" d="M57.191,343.338c-26.77,0-48.547-21.775-48.547-48.543c0-26.77,21.778-48.548,48.547-48.548
							c26.767,0,48.544,21.778,48.544,48.548C105.735,321.562,83.957,343.338,57.191,343.338z M57.191,249.007
							c-25.248,0-45.788,20.54-45.788,45.788c0,25.246,20.541,45.785,45.788,45.785c25.246,0,45.785-20.539,45.785-45.785
							C102.976,269.547,82.436,249.007,57.191,249.007z"/>
					</g>
				</g>
				<g>
					<polyline style="fill:none;stroke:#464646;stroke-miterlimit:10;stroke-dasharray:4;" points="435.128,232.917 
						393.268,172.936 277.428,172.936 					"/>
					<g>
						<path style="fill:#FFFFFF;" d="M476.978,251.475c0,26.047-21.117,47.162-47.164,47.162c-26.05,0-47.168-21.115-47.168-47.162
							c0-26.05,21.118-47.168,47.168-47.168C455.861,204.307,476.978,225.425,476.978,251.475z"/>
						<path style="fill:#F98787;" d="M429.814,300.018c-26.77,0-48.547-21.778-48.547-48.544c0-26.77,21.777-48.548,48.547-48.548
							c26.768,0,48.544,21.778,48.544,48.548C478.358,278.24,456.582,300.018,429.814,300.018z M429.814,205.686
							c-25.248,0-45.789,20.54-45.789,45.788c0,25.246,20.541,45.783,45.789,45.783c25.246,0,45.784-20.537,45.784-45.783
							C475.599,226.226,455.06,205.686,429.814,205.686z"/>
					</g>
				</g>
				<g>
					<g>
						<g>
							<line style="fill:none;stroke:#464646;stroke-miterlimit:10;" x1="176.66" y1="422.788" x2="176.66" y2="420.788"/>
							
								<line style="fill:none;stroke:#464646;stroke-miterlimit:10;stroke-dasharray:3.9257,3.9257;" x1="176.66" y1="416.862" x2="176.66" y2="363.865"/>
							<polyline style="fill:none;stroke:#464646;stroke-miterlimit:10;" points="176.66,361.902 176.66,359.902 178.66,359.902 
															"/>
							
								<line style="fill:none;stroke:#464646;stroke-miterlimit:10;stroke-dasharray:3.9543,3.9543;" x1="182.614" y1="359.902" x2="299.267" y2="359.902"/>
							<line style="fill:none;stroke:#464646;stroke-miterlimit:10;" x1="301.244" y1="359.902" x2="303.244" y2="359.902"/>
						</g>
					</g>
					<g>
						<path style="fill:#FFFFFF;" d="M223.825,444.953c0,26.046-21.117,47.163-47.164,47.163c-26.051,0-47.168-21.117-47.168-47.163
							c0-26.051,21.118-47.169,47.168-47.169C202.708,397.784,223.825,418.902,223.825,444.953z"/>
						<polygon style="fill:#E2E2E2;" points="164.617,421.091 173.185,429.659 164.002,429.659 						"/>
						<path style="fill:#7D96BC;" d="M176.662,493.496c-26.769,0-48.548-21.776-48.548-48.543c0-26.771,21.779-48.549,48.548-48.549
							c26.767,0,48.544,21.778,48.544,48.549C225.206,471.72,203.429,493.496,176.662,493.496z M176.662,399.163
							c-25.248,0-45.789,20.54-45.789,45.79c0,25.245,20.54,45.783,45.789,45.783c25.245,0,45.784-20.538,45.784-45.783
							C222.446,419.703,201.907,399.163,176.662,399.163z"/>
					</g>
				</g>
				<g>
					<g>
						<g>
							<line style="fill:none;stroke:#464646;stroke-miterlimit:10;" x1="547.731" y1="117.586" x2="547.731" y2="115.586"/>
							
								<line style="fill:none;stroke:#464646;stroke-miterlimit:10;stroke-dasharray:4.1827,4.1827;" x1="547.731" y1="111.403" x2="547.731" y2="71.667"/>
							<polyline style="fill:none;stroke:#464646;stroke-miterlimit:10;" points="547.731,69.576 547.731,67.576 545.731,67.576 
															"/>
							
								<line style="fill:none;stroke:#464646;stroke-miterlimit:10;stroke-dasharray:4.1027,4.1027;" x1="541.629" y1="67.576" x2="420.599" y2="67.576"/>
							<line style="fill:none;stroke:#464646;stroke-miterlimit:10;" x1="418.548" y1="67.576" x2="416.548" y2="67.576"/>
						</g>
					</g>
					<g>
						<path style="fill:#FFFFFF;" d="M594.131,153.041c0,26.047-21.119,47.165-47.165,47.165c-26.05,0-47.167-21.118-47.167-47.165
							c0-26.05,21.117-47.167,47.167-47.167C573.012,105.874,594.131,126.992,594.131,153.041z"/>
						<path style="fill:#FFFFFF;" d="M594.131,153.041c0,26.047-21.119,47.165-47.165,47.165c-26.05,0-47.167-21.118-47.167-47.165
							c0-26.05,21.117-47.167,47.167-47.167C573.012,105.874,594.131,126.992,594.131,153.041z"/>
						<path style="fill:#7D96BC;" d="M546.966,201.586c-26.769,0-48.548-21.776-48.548-48.544c0-26.769,21.778-48.547,48.548-48.547
							c26.769,0,48.544,21.778,48.544,48.547C595.51,179.809,573.734,201.586,546.966,201.586z M546.966,107.253
							c-25.247,0-45.788,20.54-45.788,45.788c0,25.246,20.541,45.785,45.788,45.785c25.246,0,45.784-20.538,45.784-45.785
							C592.75,127.794,572.212,107.253,546.966,107.253z"/>
					</g>
				</g>
				<g>
					<polyline style="fill:none;stroke:#464646;stroke-miterlimit:10;stroke-dasharray:4;" points="441.096,413.203 
						488.007,363.009 603.899,363.009 					"/>
					<g>
						<path style="fill:#FFFFFF;" d="M485.585,430.562c0,26.047-21.118,47.164-47.165,47.164c-26.05,0-47.166-21.117-47.166-47.164
							c0-26.051,21.116-47.168,47.166-47.168C464.467,383.395,485.585,404.512,485.585,430.562z"/>
						<path style="fill:#F98787;" d="M438.42,479.106c-26.768,0-48.546-21.776-48.546-48.544c0-26.769,21.777-48.549,48.546-48.549
							c26.767,0,48.545,21.78,48.545,48.549C486.965,457.33,465.186,479.106,438.42,479.106z M438.42,384.773
							c-25.248,0-45.787,20.542-45.787,45.789c0,25.245,20.539,45.785,45.787,45.785c25.246,0,45.787-20.54,45.787-45.785
							C484.207,405.315,463.666,384.773,438.42,384.773z"/>
					</g>
				</g>
			</g>
		</g>
	</g>
</g>
<g id="Layer_1">
</g>
</svg>
