<?xml version="1.0" encoding="iso-8859-1"?>
<!-- Generator: Adobe Illustrator 18.0.0, SVG Export Plug-In . SVG Version: 6.00 Build 0)  -->
<!DOCTYPE svg PUBLIC "-//W3C//DTD SVG 1.1//EN" "http://www.w3.org/Graphics/SVG/1.1/DTD/svg11.dtd">
<svg version="1.1" xmlns="http://www.w3.org/2000/svg" xmlns:xlink="http://www.w3.org/1999/xlink" x="0px" y="0px"
	 viewBox="0 0 357.587 139.033" style="enable-background:new 0 0 357.587 139.033;" xml:space="preserve">
<g id="arrow2_x5F_page36">
	<path style="fill:#2EB1E8;" d="M129.962,96.007c0-0.001,0.001-0.003,0.002-0.005C129.963,96.004,129.962,96.006,129.962,96.007
		L129.962,96.007 M130.102,95.916c0.006-0.001,0.012-0.003,0.018-0.004C130.114,95.913,130.108,95.915,130.102,95.916
		 M129.96,96.013c-0.04,0.168,0.502,0.541,2.594,1.449C130.462,96.553,129.919,96.18,129.96,96.013 M132.591,97.477
		c0.023,0.01,0.046,0.021,0.069,0.03C132.637,97.497,132.614,97.487,132.591,97.477 M357.516,129.238
		c0.524-1.57-1.801-2.932-9.192-3.573c-1.613,0.137-4.029,0.368-6.05,0.446c-2.02,0.109-3.635,0.196-3.635,0.196
		c-0.751-0.464-0.854-0.987-0.674-1.527c0.137-0.41,0.439-0.832,0.745-1.246c-2.599,0.066-5.194,0.193-7.793,0.214l-7.796,0.01
		l-3.896-0.001l-3.895-0.112l-7.786-0.217c-10.371-0.546-20.731-1.225-31.021-2.533c-25.819-2.725-50.947-8.283-74.534-16.139
		c24.218,7.674,49.205,13.201,74.534,16.139c10.325,1.203,20.768,1.757,31.249,2.145c2.622,0.034,5.247,0.069,7.873,0.104
		l3.941,0.052l3.943-0.069l7.896-0.132l7.896-0.358c0.084-0.144,0.152-0.285,0.198-0.422c0.307-0.92-0.401-1.681-4.403-2.028
		c-0.803-0.126-1.853-0.195-3.098-0.22c-1.247-0.049-2.69-0.088-4.282-0.084c-1.592,0.001-3.331,0.03-5.171,0.077
		c-0.919,0.027-1.864,0.056-2.827,0.084c-0.963,0.006-1.946,0.013-2.94,0.019c-1.99,0.016-4.03,0.033-6.069,0.048
		c-2.04,0.028-4.081,0.037-6.071-0.042c-3.978-0.132-7.763-0.211-10.935-0.534c-17.426-1.904-35.528-4.463-53.427-8.128
		c-4.488-0.838-8.922-1.957-13.365-2.946c-4.435-1.03-8.815-2.247-13.188-3.364c-4.335-1.275-8.662-2.477-12.904-3.835
		c-2.114-0.697-4.221-1.389-6.317-2.08c-1.045-0.35-2.088-0.7-3.129-1.049c-1.031-0.377-2.059-0.753-3.085-1.129
		c-2.978-1.102-5.982-2.115-8.952-3.233l-8.918-3.315c-5.911-2.304-11.844-4.542-17.711-6.964
		c-11.755-4.778-23.406-9.855-34.868-15.372c-15.799-7.502-31.584-16.835-46.217-26.406c-9.022-5.915-17.595-11.929-25.602-17.593
		c-2.884,0.336-5.83,0.616-8.791,0.881l-5.204,0.461c-0.496,0.032-0.99,0.064-1.481,0.097c-0.093,0.007-0.186,0.016-0.277,0.026
		c0.876,0.844,1.795,1.704,2.756,2.578c-0.273,0.358-0.819,1.073-1.092,1.431c-0.271-0.225-0.538-0.443-0.799-0.657l0.001,0.001
		l0.681,1.482c1.651,3.605,3.247,7.271,4.8,10.957c3.148,2.618,6.286,5.257,9.408,7.934c1.365,0.935,3.387,2.378,5.451,3.757
		c2.069,1.372,4.136,2.745,5.513,3.658c32.446,21.308,66.304,38.326,101.384,51.423c17.536,6.562,35.384,12.155,53.582,16.655
		c18.19,4.523,36.703,8.043,55.56,10.478c-12.141-1.619-23.987-3.79-35.664-6.218c-11.659-2.526-23.113-5.455-34.477-8.689
		c-11.329-3.349-22.562-6.996-33.758-11.043c-11.17-4.111-22.316-8.565-33.504-13.429l0,0l0,0l0,0
		c0.265-0.067,0.751-0.064,0.81-0.238c0.041-0.123-0.134-0.336-0.76-0.728c11.531,4.534,22.865,8.915,34.18,13.076
		c11.334,4.11,22.669,7.931,34.12,11.435c11.469,3.44,23.085,6.442,34.922,8.959c11.856,2.423,23.948,4.256,36.315,5.364
		c-0.049,0.444-0.148,1.325-0.199,1.776c17.42,2.138,35.129,3.331,53.121,3.48c3.737-0.092,7.207-0.359,10.398-0.812
		c3.189-0.516,6.103-1.153,8.741-1.827c-13.249,0.112-26.766-0.39-40.404-1.283c-13.637-0.915-27.41-2.315-41.132-4.427
		c-27.445-4.148-54.783-10.621-80.519-19.579c10.901,3.638,22.793,6.886,34.753,9.814c2.999,0.7,5.975,1.498,8.975,2.137
		c2.993,0.668,5.975,1.332,8.932,1.992c2.959,0.65,5.912,1.209,8.814,1.833c1.452,0.309,2.894,0.617,4.327,0.92
		c1.437,0.277,2.863,0.552,4.278,0.824c16.18,3.037,31.78,4.716,47.006,5.626c3.81,0.173,7.593,0.416,11.362,0.543
		c3.771,0.097,7.522,0.194,11.263,0.291c3.742,0.016,7.472,0.031,11.199,0.047c3.727,0.023,7.446-0.113,11.174-0.122
		c1.611-0.009,3.242,0.036,4.866-0.032c2.069-0.693,3.911-1.369,5.548-1.968C355.008,131.786,357.111,130.45,357.516,129.238"/>
	<path style="fill:#2EB1E8;" d="M83.031,12.795c-1.396,0.147-4.194,0.441-5.59,0.588c-0.047-0.451-0.143-1.355-0.19-1.806
		c-0.003-0.03,0-0.059,0.009-0.086c0.129-0.385,1.433-0.523,2.739-0.66c-0.02-0.19,0.022-0.386,0.087-0.581
		c0.043-0.13,0.097-0.258,0.15-0.384C80.288,9.74,80.34,9.618,80.379,9.5c0.142-0.423,0.118-0.772-0.618-0.926l-4.194,0.441
		c4.849-0.91,7.414-2.976,7.885-4.386c0.068-0.202,0.092-0.39,0.074-0.56c-1.352,0.599-1.494-0.756-2.843-0.157
		c2.467-1.094,4.917-2.356,5.18-3.143c0.169-0.506-0.562-0.816-2.765-0.763C71.775,0.881,60.392,1.933,48.982,3.107
		C43.28,3.722,37.567,4.338,31.85,4.954C21.241,6.132,10.623,7.311,0,8.49l7.44,18.719l3.61,9.047l1.911,4.657
		c2.561,6.205,5.121,12.403,7.676,18.592c5.112,12.376,10.207,24.709,15.262,36.948c1.441,2.456,1.778,0.814,2.624,0.485
		c-2.034-5.236-4.493-10.313-5.173-14.571c-0.063-0.162-0.077-0.275-0.051-0.35c0.086-0.257,0.624-0.08,1.19,0.011
		c0.567,0.09,1.163,0.093,1.365-0.511c0.014-0.043,0.026-0.088,0.037-0.137c-0.509-1.31-1.527-3.93-2.036-5.242
		c0.76-1.801,3.047,0.326,3.808-1.479c0.013-0.032,0.025-0.064,0.036-0.096c0.627-1.875-2.151-6.645-1.819-8.256
		c-0.112-0.697-0.125-1.11-0.064-1.294c0.315-0.942,2.601,4.066,3.877,7.352c0.016-0.077,0.033-0.14,0.05-0.192
		c0.353-1.056,1.008,2.797,1.815,2.484c1.008-0.391,2.016-0.783,2.505-2.246c0.332-0.994,0.425-2.483,0.115-4.801
		c-0.01-0.178,0.007-0.323,0.046-0.441c0.285-0.853,1.75-0.257,2.493-0.545c-3.052-7.861-6.233-16.048-9.624-24.153
		c-0.152-0.363-0.304-0.726-0.457-1.088C29.6,35.53,22.514,29.796,15.447,24.034c0.8,0.071,1.139-0.358,1.335-0.943
		c0.089-0.265,0.148-0.562,0.207-0.86c0.059-0.299,0.118-0.596,0.207-0.862c0.111-0.331,0.267-0.612,0.528-0.781
		c1.115-0.726,4.008,0.621,13.432,8.352l-0.171-0.368l-0.132-0.267L30.77,28.25c-0.111-0.079-0.235-0.176-0.375-0.295
		c-0.28-0.239-0.62-0.567-1.04-1.022c-0.262-0.298-0.501-0.629-0.717-0.973c0.367-0.19,0.994-0.305,1.651-0.371
		c-7.936-7.646-12.358-13.951-12.83-16.745c-0.063-0.387-0.054-0.708,0.031-0.962c0.264-0.791,1.257-0.929,3.024-0.336
		c1.169,0.395,2.676,1.118,4.539,2.204c0.932,0.544,1.953,1.178,3.065,1.908c1.127,0.711,2.351,1.511,3.669,2.412
		c4.513,3.144,9.274,6.531,14.255,10.054c3.867-0.451,7.621-1.004,11.148-1.763c4.146-0.893,11.322,0.179,13.879-2.372l-4.19,0.441
		c4.048-1.797,8.384-0.882,12.529-1.775c-0.042-0.397-0.075-0.707,0.017-0.98c0.116-0.348,0.435-0.638,1.193-0.974
		c-2.796,0.294-6.94,1.187-9.785,1.03l-0.142-1.353c2.75-0.748,7.037-0.286,9.785-1.03c-0.047-0.453-0.142-1.356-0.19-1.808
		c-0.003-0.03,0-0.059,0.009-0.086C80.421,13.07,81.727,12.932,83.031,12.795"/>
	<path style="fill:#2EB1E8;" d="M36.637,41.382c-1.553-3.686-3.149-7.352-4.8-10.957l-0.681-1.482l-0.001-0.001
		c-9.424-7.731-12.317-9.078-13.432-8.352c-0.26,0.169-0.417,0.451-0.528,0.781c-0.089,0.266-0.148,0.563-0.207,0.862
		c-0.059,0.297-0.118,0.595-0.207,0.86c-0.196,0.585-0.534,1.014-1.335,0.943C22.514,29.796,29.6,35.53,36.637,41.382
		 M46.041,24.124c-4.98-3.523-9.741-6.91-14.255-10.054c-1.318-0.901-2.542-1.7-3.669-2.412c-1.112-0.73-2.133-1.364-3.065-1.908
		c-1.863-1.086-3.371-1.809-4.539-2.204c-1.767-0.593-2.76-0.455-3.024,0.336c-0.085,0.254-0.094,0.575-0.031,0.962
		c0.472,2.795,4.894,9.099,12.83,16.745c0.092-0.01,0.184-0.019,0.277-0.026c0.491-0.033,0.986-0.065,1.481-0.097l5.204-0.461
		C40.211,24.74,43.158,24.461,46.041,24.124"/>
</g>
<g id="Layer_1">
</g>
</svg>
