<?xml version="1.0" encoding="iso-8859-1"?>
<!-- Generator: Adobe Illustrator 18.0.0, SVG Export Plug-In . SVG Version: 6.00 Build 0)  -->
<!DOCTYPE svg PUBLIC "-//W3C//DTD SVG 1.1//EN" "http://www.w3.org/Graphics/SVG/1.1/DTD/svg11.dtd">
<svg version="1.1" xmlns="http://www.w3.org/2000/svg" xmlns:xlink="http://www.w3.org/1999/xlink" x="0px" y="0px"
	 viewBox="0 0 82.571 54.763" style="enable-background:new 0 0 82.571 54.763;" xml:space="preserve">
<g id="arrows">
	<path style="fill:none;" d="M41.421,29.024c-2.853,0-5.707-0.032-8.56,0.009c-2.701,0.039-4.145,1.466-4.165,4.186
		c-0.039,5.57-0.035,11.141-0.002,16.712c0.016,2.73,1.43,4.239,4.099,4.265c5.638,0.057,11.277,0.052,16.915,0.003
		c2.697-0.024,4.147-1.502,4.166-4.202c0.04-5.57,0.037-11.141,0.002-16.712c-0.018-2.827-1.462-4.226-4.303-4.256
		C46.856,29.001,44.138,29.024,41.421,29.024z"/>
	<path style="fill:none;" d="M53.928,13.153c0-2.785,0.023-5.57-0.006-8.355c-0.029-2.744-1.403-4.235-4.085-4.26
		C44.199,0.485,38.561,0.49,32.923,0.537c-2.615,0.022-4.126,1.441-4.157,4.001c-0.069,5.705-0.065,11.411-0.003,17.116
		c0.028,2.588,1.52,4.028,4.101,4.047c5.637,0.042,11.275,0.041,16.913,0.002c2.708-0.019,4.109-1.469,4.142-4.195
		C53.954,18.723,53.928,15.938,53.928,13.153z"/>
	<path style="fill:none;stroke:#FFFFFF;stroke-miterlimit:10;" d="M0.5,31.45c1.217-1.866,2.901-2.526,5.148-2.468
		c5.151,0.131,10.308,0.03,15.462,0.046c3.105,0.01,4.529,1.362,4.551,4.42c0.039,5.426,0.035,10.852,0.002,16.277
		c-0.019,3.081-1.423,4.467-4.508,4.484c-5.087,0.027-10.176-0.083-15.259,0.049c-2.287,0.06-4.087-0.513-5.397-2.416
		C0.5,45.045,0.5,38.248,0.5,31.45z M13.988,39.021c-1.41,0.948-2.504,1.683-3.834,2.578c1.346,0.9,2.48,1.659,3.834,2.564
		C13.988,42.355,13.988,40.886,13.988,39.021z"/>
	<path style="fill:none;stroke:#FFFFFF;stroke-miterlimit:10;" d="M82.071,51.843c-1.314,1.893-3.109,2.478-5.398,2.416
		c-5.017-0.135-10.04-0.03-15.06-0.047c-3.358-0.011-4.698-1.341-4.71-4.691c-0.02-5.292-0.022-10.583,0.001-15.875
		c0.014-3.325,1.359-4.615,4.756-4.621c5.088-0.009,10.179,0.09,15.263-0.045c2.251-0.06,3.93,0.606,5.148,2.469
		C82.071,38.248,82.071,45.045,82.071,51.843z M72.485,41.59c-1.375-0.91-2.506-1.659-3.806-2.52c0,1.81,0,3.304,0,5.109
		C70.028,43.261,71.152,42.497,72.485,41.59z"/>
	<path id="ArrowDow" class="arrowDown" style="fill:none;stroke:#2EB1E8;stroke-miterlimit:10;" d="M41.421,29.024c2.717,0,5.435-0.023,8.152,0.006
		c2.841,0.03,4.285,1.429,4.303,4.256c0.036,5.57,0.038,11.141-0.002,16.712c-0.019,2.7-1.469,4.178-4.166,4.202
		c-5.638,0.05-11.277,0.054-16.915-0.003c-2.669-0.027-4.083-1.536-4.099-4.265c-0.032-5.57-0.037-11.141,0.002-16.712
		c0.019-2.72,1.463-4.148,4.165-4.186C35.714,28.993,38.568,29.024,41.421,29.024z M43.852,40.552c-1.718,0-3.228,0-5.019,0
		c0.893,1.289,1.672,2.414,2.544,3.672C42.249,42.93,42.967,41.865,43.852,40.552z"/>
	<path id="ArrowUp" class="arrowUp" style="fill:none;stroke:#2EB1E8;stroke-miterlimit:10;" d="M53.928,13.153c0,2.785,0.026,5.57-0.008,8.355
		c-0.033,2.726-1.434,4.176-4.142,4.195c-5.637,0.039-11.276,0.041-16.913-0.002c-2.581-0.019-4.073-1.459-4.101-4.047
		c-0.062-5.705-0.065-11.412,0.003-17.116c0.031-2.56,1.541-3.979,4.157-4.001c5.637-0.046,11.276-0.052,16.913,0.001
		c2.682,0.025,4.056,1.517,4.085,4.26C53.951,7.583,53.928,10.368,53.928,13.153z M38.774,14.105c1.756,0,3.281,0,5.116,0
		c-0.876-1.302-1.634-2.428-2.555-3.795C40.423,11.66,39.678,12.765,38.774,14.105z"/>
	<path style="fill:#FFFFFF;" d="M13.988,39.021c0,1.865,0,3.335,0,5.142c-1.354-0.905-2.488-1.664-3.834-2.564
		C11.484,40.704,12.578,39.969,13.988,39.021z"/>
	<path style="fill:#FFFFFF;" d="M72.485,41.59c-1.333,0.907-2.456,1.671-3.806,2.589c0-1.804,0-3.299,0-5.109
		C69.979,39.931,71.11,40.68,72.485,41.59z"/>
	<path style="fill:#FFFFFF;" d="M43.852,40.552c-0.884,1.312-1.602,2.378-2.474,3.672c-0.872-1.258-1.651-2.383-2.544-3.672
		C40.624,40.552,42.134,40.552,43.852,40.552z"/>
	<path style="fill:#FFFFFF;" d="M38.774,14.105c0.904-1.34,1.649-2.445,2.561-3.795c0.92,1.367,1.679,2.494,2.555,3.795
		C42.055,14.105,40.53,14.105,38.774,14.105z"/>
</g>
<g id="Layer_1">
</g>
</svg>
