<?xml version="1.0" encoding="iso-8859-1"?>
<!-- Generator: Adobe Illustrator 18.0.0, SVG Export Plug-In . SVG Version: 6.00 Build 0)  -->
<!DOCTYPE svg PUBLIC "-//W3C//DTD SVG 1.1//EN" "http://www.w3.org/Graphics/SVG/1.1/DTD/svg11.dtd">
<svg version="1.1" xmlns="http://www.w3.org/2000/svg" xmlns:xlink="http://www.w3.org/1999/xlink" x="0px" y="0px"
	 viewBox="0 0 63.378 61.451" style="enable-background:new 0 0 63.378 61.451;" xml:space="preserve">
<g id="cerebro_x5F_page36">
	<g>
		<path style="fill:#44AFCC;" d="M51.44,20.581l-0.757,0.914l1.688,3.665l1.107,2.403c0.019-0.004,0.037-0.008,0.057-0.012
			l-1.256-6.722c-0.066,0.006-0.135,0.01-0.204,0.004C51.835,20.814,51.616,20.722,51.44,20.581z"/>
		<path style="fill:#44AFCC;" d="M32.516,0.452c-0.127-0.055-0.25-0.103-0.372-0.146L30.779,2.26l-0.883,1.265L32.516,0.452z"/>
		<path style="fill:#44AFCC;" d="M26.025,39.895l0.89-1.251c-0.147-0.133-0.264-0.3-0.329-0.491l-3.945,0.876l-0.617,0.138
			l1.766,0.575l1.905,0.619L26.025,39.895z"/>
		<path style="fill:#44AFCC;" d="M47.965,6.475l0.918-0.029l1.501-0.048c-0.041-0.238-0.108-0.477-0.198-0.714l-2.227,0.765
			C47.96,6.458,47.964,6.466,47.965,6.475z"/>
		<path style="fill:#44AFCC;" d="M8.74,8.61l5.589-2.525l-1.987,0.431C11.012,6.94,9.777,7.659,8.74,8.61z"/>
		<path style="fill:#44AFCC;" d="M51.287,7.286c0.183-0.376,0.58-0.622,1.021-0.586c0.05,0.004,0.098,0.016,0.146,0.027l0.034-0.064
			c-0.069-0.023-0.139-0.045-0.209-0.064l-4.044,0.13l2.312,0.423L51.287,7.286z"/>
		<path style="fill:#44AFCC;" d="M25.62,2.075l3.037-1.829c-0.633,0.191-1.229,0.491-1.756,0.885
			c-0.028,0.021-0.064,0.03-0.101,0.024c-0.621-0.107-1.258-0.151-1.889-0.132L24.854,1.57C25.177,1.629,25.447,1.815,25.62,2.075z"
			/>
		<path style="fill:#44AFCC;" d="M3.988,23.696c0.009-0.11,0.037-0.213,0.074-0.312L1.12,22.02
			c-0.421,0.799-0.728,1.649-0.913,2.533l2.845-0.519l0.94-0.172C3.988,23.808,3.983,23.753,3.988,23.696z"/>
		<path style="fill:#44AFCC;" d="M16.522,34.817c0.048,0.234,0.104,0.466,0.167,0.691l2.766-1.185l1.198-0.514L16.522,34.817z"/>
		<path style="fill:#44AFCC;" d="M28.267,6.648c-0.015-0.001-0.028-0.006-0.042-0.007l-0.582,3.826
			c0.149,0.051,0.284,0.131,0.399,0.233l1.716-1.917l0.424-0.473c-0.207-0.231-0.324-0.543-0.297-0.876
			c0.013-0.158,0.058-0.306,0.125-0.439l-0.692-0.459l-0.316-0.208C28.83,6.542,28.56,6.672,28.267,6.648z"/>
		<path style="fill:#44AFCC;" d="M25.863,6.537l1.202,3.885c0.096-0.017,0.193-0.026,0.295-0.018c0.009,0,0.018,0.004,0.026,0.005
			l0.585-3.842c-0.309-0.147-0.512-0.472-0.482-0.832c0.012-0.141,0.06-0.269,0.131-0.381L25.383,3.63
			c-0.105,0.086-0.227,0.155-0.358,0.2L25.863,6.537z"/>
		<g>
			<path style="fill:#44AFCC;" d="M53.819,33.707l-0.018-1.753l-0.021-2.089c-0.034,0-0.067,0.005-0.103,0.002
				c-0.062-0.005-0.121-0.019-0.18-0.033l-2.37,4.513l-1.239,2.358l2.988-1.457c-0.051-0.149-0.074-0.31-0.061-0.476
				C52.861,34.216,53.289,33.784,53.819,33.707z"/>
			<path style="fill:#44AFCC;" d="M48.925,18.168l1.629,3.074l0.702-0.848c-0.18-0.226-0.28-0.516-0.255-0.825
				c0.024-0.306,0.167-0.572,0.376-0.766l-5.234-5.945c-0.008,0.005-0.015,0.011-0.022,0.016L48.925,18.168z"/>
			<path style="fill:#44AFCC;" d="M39.461,37.477l-0.706,5.894c0.21,0.076,0.421,0.14,0.628,0.191
				c0.043,0.01,0.078,0.042,0.093,0.085c0.052,0.155,0.113,0.314,0.185,0.479l0.732-2.825l1.246-4.804l-1.136,0.016
				C40.411,37.035,39.981,37.428,39.461,37.477z"/>
			<path style="fill:#44AFCC;" d="M61.978,34.126c-0.069-0.236-0.151-0.467-0.244-0.69l-0.146,1.307l0.206-0.325L61.978,34.126z"/>
			<path style="fill:#44AFCC;" d="M40.635,11.433l3.466,0.207l0.257,0.015c0.068-0.352,0.286-0.644,0.586-0.809l-0.327-0.938
				l-0.881-2.531c-0.114,0.026-0.231,0.041-0.354,0.031c-0.186-0.016-0.356-0.077-0.506-0.167l-1.849,2.422l-0.752,0.985
				C40.485,10.852,40.618,11.128,40.635,11.433z"/>
			<path style="fill:#44AFCC;" d="M42.722,37.847l5.849,11.316c0.058-0.601,0.134-1.176,0.226-1.716
				c0.008-0.041,0.033-0.076,0.069-0.094c0.037-0.02,0.081-0.021,0.117,0c0.192,0.095,0.395,0.183,0.617,0.265l0.082-0.172
				l-4.551-6.275L42.722,37.847z"/>
			<path style="fill:#44AFCC;" d="M46.074,36.812l0.311,0.845l3.301,8.99l-0.226-9.553l-2.836-0.864
				C46.514,36.484,46.318,36.689,46.074,36.812z"/>
			<path style="fill:#44AFCC;" d="M38.235,36.671l-4.739,0.555l-4.631,0.542c0,0.033,0.004,0.065,0.002,0.1
				c-0.027,0.335-0.195,0.624-0.438,0.819l2.291,3.618c1.505-0.627,2.858-1.613,3.918-2.856c0.026-0.032,0.067-0.049,0.109-0.045
				c0.005,0,0.009,0,0.013,0.001c0.046,0.009,0.084,0.04,0.1,0.084c0.624,1.722,1.946,3.094,3.643,3.785l0.383-3.188l0.313-2.615
				C38.74,37.409,38.372,37.09,38.235,36.671z"/>
			<path style="fill:#44AFCC;" d="M53.083,29.641l-1.221,1.02l-5.337,4.461c0.141,0.212,0.218,0.467,0.196,0.739
				c-0.004,0.041-0.015,0.079-0.022,0.119l0.727,0.222l2.097,0.64l0.817-1.557l2.909-5.539C53.19,29.715,53.136,29.68,53.083,29.641
				z"/>
			<path style="fill:#44AFCC;" d="M22.802,32.507l1.751-1.663c-0.208-0.233-0.326-0.544-0.299-0.878
				c0.011-0.131,0.047-0.253,0.097-0.367l-6.895-5.684c-0.036,0.034-0.074,0.065-0.114,0.094l4.389,8.247
				c0.125-0.033,0.257-0.051,0.394-0.04C22.387,32.237,22.619,32.346,22.802,32.507z"/>
			<path style="fill:#44AFCC;" d="M21.817,35.173l0.066-0.626c-0.386-0.049-0.709-0.279-0.884-0.602l-4.235,1.816
				c0.31,1.008,0.768,1.956,1.361,2.822l3.088,0.387l0.2,0.025L21.817,35.173z"/>
			<path style="fill:#44AFCC;" d="M61.975,37.781l-0.597-2.07l-2.081,5.657C60.59,40.53,61.532,39.27,61.975,37.781z"/>
			<path style="fill:#44AFCC;" d="M49.962,47.312l3.268,0.272l0.817,0.068c0.605-0.217,1.174-0.522,1.692-0.912l-4.636-7.161
				l-1.374-2.123L49.962,47.312z"/>
			<path style="fill:#44AFCC;" d="M20.858,33.291c0.034-0.415,0.282-0.761,0.626-0.941l-0.804-1.511l-3.566-6.7
				c-0.171,0.074-0.358,0.113-0.557,0.097c-0.059-0.004-0.113-0.018-0.168-0.03l-5.524,11.722l3.557-0.866
				c0.62-0.342,1.203-0.755,1.735-1.225c0.036-0.032,0.088-0.041,0.133-0.023c0.046,0.017,0.077,0.059,0.083,0.106
				c0.023,0.197,0.056,0.408,0.099,0.642l1.209-0.294l3.182-0.776C20.856,33.424,20.853,33.359,20.858,33.291z"/>
			<polygon style="fill:#44AFCC;" points="61.915,23.394 60.887,24.106 56.093,27.427 60.53,24.978 62.446,23.919 			"/>
			<path style="fill:#44AFCC;" d="M53.235,27.656l-2.779-6.03l-7.776,1.749c-0.017,0.153-0.06,0.296-0.129,0.425l4.854,2.072
				l5.329,2.275C52.847,27.936,53.023,27.765,53.235,27.656z"/>
			<path style="fill:#44AFCC;" d="M27.601,38.944c-0.173-0.015-0.331-0.067-0.474-0.146l-0.52,0.731l-0.693,0.976l2.301,2.492
				c0.775-0.113,1.534-0.312,2.258-0.592l-2.266-3.58C28.024,38.915,27.818,38.961,27.601,38.944z"/>
			<path style="fill:#44AFCC;" d="M25.122,41.832l-0.613,1.042c1.108,0.239,2.257,0.297,3.391,0.166l-2.131-2.307L25.122,41.832z"/>
			<path style="fill:#44AFCC;" d="M22.854,41.115l0.936,1.575c0.149,0.044,0.3,0.085,0.452,0.122l1.309-2.224l-1.271-0.413
				l-2.462-0.802L22.854,41.115z"/>
			<path style="fill:#44AFCC;" d="M15.519,23.352l-9.189,0.493c-0.001,0.014,0.002,0.027,0.001,0.041
				c-0.031,0.378-0.24,0.696-0.537,0.888l4.164,9.488l0.678,1.542l5.506-11.685C15.831,23.968,15.604,23.687,15.519,23.352z"/>
			<path style="fill:#44AFCC;" d="M43.981,7.293l1.067,3.066l0.137,0.391c0.132-0.038,0.271-0.057,0.415-0.045
				c0.014,0.001,0.025,0.006,0.038,0.007l0.976-3.218c-0.337-0.143-0.57-0.464-0.594-0.838l-1.404-0.158
				C44.536,6.854,44.297,7.141,43.981,7.293z"/>
			<path style="fill:#44AFCC;" d="M25.329,31.232c-0.218-0.017-0.413-0.097-0.579-0.215l-1.774,1.685
				c0.158,0.219,0.246,0.489,0.223,0.779c-0.012,0.149-0.055,0.29-0.116,0.417l3.789,3.046c0.102-0.102,0.222-0.183,0.354-0.241
				l-1.324-4.256l-0.379-1.219C25.459,31.234,25.395,31.238,25.329,31.232z"/>
			<path style="fill:#44AFCC;" d="M28.436,11.669c-0.012,0.151-0.055,0.292-0.118,0.421l0.458,0.25l5.387,2.937l-2.484-5.924
				l-0.294-0.7c-0.135,0.04-0.277,0.059-0.425,0.046c-0.219-0.017-0.416-0.098-0.583-0.217l-1.987,2.221l-0.172,0.192
				C28.372,11.113,28.459,11.382,28.436,11.669z"/>
			<path style="fill:#44AFCC;" d="M31.625,8.554l2.855,6.806l3.049-2.466l0.952-0.77c-0.134-0.209-0.207-0.459-0.186-0.725
				c0.008-0.1,0.032-0.192,0.062-0.283l-4.03-1.899l-2.279-1.074C31.943,8.314,31.8,8.457,31.625,8.554z"/>
			<path style="fill:#44AFCC;" d="M53.271,20.062c-0.123,0.34-0.395,0.605-0.733,0.717l1.26,6.747
				c0.024,0.001,0.047-0.003,0.071-0.001c0.37,0.03,0.682,0.232,0.875,0.52l3.791-2.626l3.116-2.16L53.271,20.062z"/>
			<path style="fill:#44AFCC;" d="M48.446,51.138l-2.569,8.552l-0.529,1.761l3.857-0.495C48.849,58.821,48.328,54.96,48.446,51.138z
				"/>
			<path style="fill:#44AFCC;" d="M45.063,34.704L41.681,24.41c-0.003,0-0.006,0.002-0.01,0.002l0.265,11.801l2.447-0.393
				c-0.003-0.049-0.007-0.098-0.003-0.148C44.415,35.234,44.69,34.876,45.063,34.704z"/>
			<path style="fill:#44AFCC;" d="M24.481,29.368c0.169-0.229,0.417-0.39,0.701-0.45l-0.339-10.455l-0.082-2.541
				c-0.037,0-0.073,0.005-0.11,0.002c-0.171-0.014-0.329-0.066-0.47-0.144l-6.546,6.651c0.136,0.21,0.21,0.461,0.188,0.729
				c-0.017,0.207-0.091,0.395-0.199,0.556l1.811,1.493L24.481,29.368z"/>
			<path style="fill:#44AFCC;" d="M55.139,35.063c-0.075,0.444-0.395,0.796-0.809,0.924l0.898,4.282l1.226,5.85
				c1.108-1.118,1.768-2.583,1.866-4.151c0.003-0.048,0.032-0.091,0.076-0.11l0.041-0.018c0.059-0.027,0.118-0.055,0.177-0.083
				c0.11-0.054,0.22-0.111,0.326-0.173l0.433-1.177l1.838-4.994L55.139,35.063z"/>
			<path style="fill:#44AFCC;" d="M62.021,30.848c0.93-0.703,1.433-1.863,1.296-3.03c-0.042-0.364-0.146-0.72-0.311-1.057
				c-0.018-0.037-0.018-0.08,0.002-0.117c0.303-0.588,0.423-1.246,0.347-1.905c-0.034-0.281-0.104-0.561-0.213-0.831l-0.276,0.104
				l-0.083,0.032L62.021,30.848z"/>
			<path style="fill:#44AFCC;" d="M52.991,35.482l-1.2,0.585l-2.014,0.982l1.183,1.827l4.986,7.702
				c0.098-0.08,0.192-0.162,0.284-0.247l-2.158-10.299c-0.06,0.004-0.119,0.008-0.18,0.003
				C53.507,36.004,53.182,35.788,52.991,35.482z"/>
			<path style="fill:#44AFCC;" d="M38.182,36.215c0.006-0.074,0.021-0.146,0.039-0.215l-11.22-4.884l-0.684-0.297
				c-0.142,0.166-0.326,0.292-0.537,0.359l1.695,5.445c0.102-0.02,0.206-0.031,0.316-0.022c0.521,0.042,0.931,0.423,1.044,0.906
				l8.153-0.954l1.197-0.141C38.18,36.349,38.176,36.283,38.182,36.215z"/>
			<path style="fill:#44AFCC;" d="M25.52,28.891c0.194,0.016,0.371,0.083,0.525,0.18l5.988-8.386
				c-0.263-0.237-0.42-0.586-0.389-0.965c0.012-0.146,0.053-0.28,0.111-0.405l-4.225-2.607l-1.91-1.179
				c-0.157,0.177-0.365,0.302-0.6,0.36l0.152,4.696l0.271,8.307C25.469,28.893,25.494,28.889,25.52,28.891z"/>
			<path style="fill:#44AFCC;" d="M40.344,23.155c0-0.003,0.002-0.005,0.002-0.008l-3.66-1.55l-2.85-1.207
				c-0.218,0.386-0.645,0.634-1.115,0.596c-0.174-0.014-0.333-0.067-0.476-0.148l-0.779,1.091l-5.216,7.304
				c0.113,0.114,0.204,0.249,0.264,0.4l9.284-3.881l4.681-1.957C40.377,23.605,40.325,23.385,40.344,23.155z"/>
			<path style="fill:#44AFCC;" d="M46.914,7.573c-0.017-0.001-0.031-0.006-0.048-0.009l-0.972,3.209
				c0.188,0.066,0.354,0.177,0.482,0.321l2.812-1.789l2.031-1.292c-0.031-0.113-0.047-0.232-0.037-0.356
				c0.003-0.041,0.014-0.08,0.021-0.12l-3.296-0.603C47.761,7.335,47.362,7.609,46.914,7.573z"/>
			<path style="fill:#44AFCC;" d="M62.102,37.278c0.195-0.927,0.186-1.884-0.033-2.808l-0.533,0.843L62.102,37.278z"/>
			<path style="fill:#44AFCC;" d="M54.9,28.384c0.036,0.129,0.054,0.266,0.043,0.407c-0.017,0.207-0.091,0.395-0.199,0.556
				l4.438,3.853l2.109,1.832l0.088-0.785l0.142-1.263c-0.247-0.479-0.548-0.922-0.897-1.318c-0.03-0.034-0.04-0.083-0.025-0.128
				c0.015-0.044,0.052-0.076,0.098-0.086c0.367-0.075,0.718-0.214,1.042-0.41l0.379-3.389l0.389-3.466L54.9,28.384z"/>
			<path style="fill:#44AFCC;" d="M44.645,6.238l1.396,0.157c0.079-0.372,0.364-0.658,0.724-0.746l-0.3-2.564
				c-0.57-0.727-1.376-1.222-2.272-1.394c-0.016-0.003-0.031-0.009-0.045-0.018c-0.058-0.036-0.117-0.071-0.177-0.104l-0.273,3.521
				C44.245,5.196,44.645,5.676,44.645,6.238z"/>
			<path style="fill:#44AFCC;" d="M45.828,36.901c-0.119,0.029-0.244,0.046-0.373,0.035c-0.504-0.041-0.904-0.397-1.032-0.857
				l-2.384,0.383l7.348,10.131l-0.599-1.631L45.828,36.901z"/>
			<path style="fill:#44AFCC;" d="M43.436,5.07l0.131-1.678l0.151-1.949c-0.64-0.298-1.345-0.414-2.045-0.331
				c-0.001,0-0.06,0.01-0.063,0.011c-0.03,0.005-0.062-0.003-0.087-0.02c-0.736-0.471-1.626-0.677-2.497-0.575
				c-0.204,0.024-0.413,0.067-0.618,0.128l1.504,1.6l2.864,3.047C42.963,5.162,43.19,5.079,43.436,5.07z"/>
			<path style="fill:#44AFCC;" d="M47.073,5.621c0.367,0.03,0.668,0.263,0.81,0.577l0.932-0.32l1.268-0.436
				c-0.604-1.306-1.887-2.162-3.337-2.202l0.278,2.381C47.04,5.623,47.057,5.62,47.073,5.621z"/>
			<path style="fill:#44AFCC;" d="M32.196,7.279l2.635-0.274l7.477-0.776c0-0.028-0.004-0.056-0.002-0.085
				c0.021-0.255,0.124-0.483,0.278-0.664l-4.489-4.774c-1.035-0.569-2.215-0.8-3.393-0.663c-0.138,0.016-0.281,0.039-0.426,0.066
				l-2.432,5.855l-0.224,0.539C31.914,6.666,32.123,6.948,32.196,7.279z"/>
			<path style="fill:#44AFCC;" d="M29.181,5.871c-0.007,0.08-0.027,0.155-0.054,0.227l1.027,0.68c0.236-0.282,0.6-0.451,0.994-0.419
				c0.08,0.007,0.158,0.022,0.232,0.043l2.027-4.883l0.557-1.34c-0.371,0.094-0.73,0.225-1.072,0.39
				c-0.036,0.017-0.078,0.017-0.114,0c-0.005-0.002-0.009-0.004-0.013-0.006l-3.902,4.576C29.076,5.31,29.204,5.579,29.181,5.871z"
				/>
			<path style="fill:#44AFCC;" d="M63.01,23.608c-0.069-0.133-0.147-0.261-0.237-0.386l0.002,0.071l0.013,0.438L63.01,23.608z"/>
			<path style="fill:#44AFCC;" d="M53.342,19.757c-0.001,0.017-0.007,0.032-0.009,0.048l0.151,0.058l8.342,3.182l0.013-0.08
				l0.096-0.598c-0.019-0.031-0.032-0.065-0.026-0.09c0.07-0.348,0.085-0.7,0.044-1.045c-0.071-0.61-0.312-1.187-0.695-1.669
				l-7.801,0.058l-0.117,0.001C53.341,19.667,53.346,19.711,53.342,19.757z"/>
			<path style="fill:#44AFCC;" d="M25.815,2.815c-0.019,0.238-0.109,0.453-0.247,0.629l2.221,1.711
				c0.165-0.139,0.383-0.216,0.614-0.197c0.054,0.004,0.104,0.015,0.154,0.028l3.325-4.761c-0.724-0.211-1.488-0.274-2.24-0.186
				c-0.047,0.005-0.092,0.013-0.137,0.02l-0.039,0.006L25.74,2.308C25.8,2.465,25.83,2.636,25.815,2.815z"/>
			<path style="fill:#44AFCC;" d="M62.513,23.231l-0.009-0.343c-0.106-0.115-0.22-0.222-0.338-0.32l-0.098,0.61l0.454,0.45
				L62.513,23.231z"/>
			<path style="fill:#44AFCC;" d="M53.039,8.393l2.833,3.231l4.307,4.909c-0.401-1.098-1.188-2.027-2.223-2.603
				c-0.04-0.022-0.065-0.065-0.067-0.111c-0.003-0.146-0.013-0.295-0.03-0.442c-0.198-1.698-1.243-3.146-2.796-3.87
				c-0.037-0.018-0.063-0.05-0.072-0.089c-0.047-0.205-0.113-0.41-0.196-0.61l-0.023-0.01l-1.589-0.654
				C53.145,8.232,53.099,8.318,53.039,8.393z"/>
			<path style="fill:#44AFCC;" d="M52.281,8.778l0.01,7.453l0.003,2.266c0.494,0.052,0.885,0.406,1.008,0.863l7.727-0.058
				c-0.162-0.167-0.338-0.316-0.526-0.442c-0.04-0.027-0.062-0.074-0.058-0.123c0.04-0.366,0.039-0.737-0.003-1.101
				c-0.02-0.163-0.049-0.33-0.089-0.511l-0.568-0.649l-6.936-7.907C52.688,8.692,52.492,8.767,52.281,8.778z"/>
			<path style="fill:#44AFCC;" d="M0.295,28.533l-0.117-0.147c0.177,0.922,0.482,1.806,0.912,2.635l0.404,0.265l2.1,1.376
				L0.295,28.533z"/>
			<path style="fill:#44AFCC;" d="M23.576,14.658c0.019-0.227,0.104-0.434,0.232-0.604l-7.597-7.482
				c-0.14,0.121-0.309,0.204-0.492,0.249l0.598,8.474l0.466,6.606c0.268,0.029,0.505,0.15,0.687,0.328l6.499-6.603
				C23.703,15.388,23.545,15.038,23.576,14.658z"/>
			<path style="fill:#44AFCC;" d="M54.041,29.834l0.039,3.863c0.001,0,0.002,0,0.002,0c0.592,0.048,1.041,0.529,1.072,1.105
				l5.864,0.338l-4.572-3.97l-1.871-1.624C54.427,29.687,54.244,29.786,54.041,29.834z"/>
			<path style="fill:#44AFCC;" d="M4.035,24.121l-3.882,0.708c-0.169,0.941-0.198,1.898-0.088,2.846
				c0.005,0.046,0.013,0.092,0.019,0.137l0.008,0.049l4.019,5.03l0.426-4.01l0.419-3.939C4.51,24.863,4.158,24.54,4.035,24.121z"/>
			<path style="fill:#44AFCC;" d="M41.941,46.924c0.016,0.012,0.03,0.026,0.04,0.045c0.69,1.243,1.285,2.642,1.768,4.159
				l4.776-1.451l0.002-0.027l-6.679-12.922l-2.015,7.77C40.323,45.472,41.051,46.309,41.941,46.924z"/>
			<path style="fill:#44AFCC;" d="M5.254,22.62c0.145,0.012,0.278,0.053,0.402,0.111l9.151-16.067
				c-0.14-0.091-0.259-0.21-0.349-0.35l-2.912,1.315L8.209,9.137c-1.094,1.173-1.889,2.603-2.297,4.137
				c-0.008,0.03-0.025,0.056-0.05,0.073c-2.454,1.745-3.984,4.575-4.093,7.571c0,0.025-0.008,0.05-0.023,0.069
				c-0.174,0.251-0.342,0.521-0.5,0.804l2.797,1.297l0.138,0.064C4.408,22.803,4.811,22.584,5.254,22.62z"/>
			<path style="fill:#44AFCC;" d="M4.268,33.39l-0.063,0.129l-0.376,0.758c1.367,1.044,2.983,1.703,4.684,1.916l0.189-0.019
				l1.429-0.139l-2.024-0.913L4.268,33.39z"/>
			<path style="fill:#44AFCC;" d="M24.841,13.582c0.253,0.021,0.479,0.122,0.659,0.274l1.043-1.357
				c-0.301-0.235-0.481-0.611-0.448-1.019c0.007-0.082,0.021-0.162,0.044-0.238l-9.708-4.93c-0.015,0.023-0.028,0.045-0.044,0.066
				l7.598,7.483C24.214,13.664,24.518,13.556,24.841,13.582z"/>
			<path style="fill:#44AFCC;" d="M19.66,40.354c1.079,0.992,2.369,1.754,3.756,2.219l-1.358-2.286l-0.575-0.967L19.66,40.354z"/>
			<path style="fill:#44AFCC;" d="M1.364,31.511c0.588,0.988,1.358,1.878,2.254,2.602l0.125-0.252l0.296-0.596L1.364,31.511z"/>
			<path style="fill:#44AFCC;" d="M27.17,12.745c-0.144-0.012-0.278-0.053-0.402-0.111l-1.087,1.415
				c0.167,0.222,0.261,0.5,0.236,0.798l7.923,0.551L33,14.941l-4.822-2.629C27.941,12.604,27.571,12.777,27.17,12.745z"/>
			<path style="fill:#44AFCC;" d="M26.529,37.898c-0.008-0.072-0.011-0.146-0.004-0.221c0.016-0.196,0.084-0.374,0.183-0.53
				l-3.765-3.025c-0.193,0.24-0.479,0.399-0.798,0.431l-0.468,4.424l1.796-0.398L26.529,37.898z"/>
			<path style="fill:#44AFCC;" d="M15.539,4.513c0.232,0.019,0.442,0.107,0.615,0.238l1.285-1.484
				c-0.86,0.239-1.678,0.597-2.436,1.068L15.11,4.56C15.246,4.52,15.391,4.5,15.539,4.513z"/>
			<path style="fill:#44AFCC;" d="M19.959,4.164l3.562-1.117c-0.039-0.134-0.059-0.275-0.046-0.422
				c0.048-0.596,0.536-1.047,1.118-1.073l0.055-0.517c-0.177,0.011-0.358,0.026-0.539,0.048c-1.657,0.193-3.236,0.825-4.567,1.827
				c-0.02,0.016-0.045,0.025-0.07,0.026c-0.199,0.011-0.396,0.025-0.596,0.049c-0.322,0.038-0.656,0.096-0.994,0.172l-1.537,1.774
				c0.077,0.092,0.137,0.197,0.183,0.31L19.959,4.164z"/>
			<path style="fill:#44AFCC;" d="M18.333,38.874c0.341,0.462,0.719,0.896,1.128,1.293l1.661-0.942l-1.001-0.126L18.333,38.874z"/>
			<path style="fill:#44AFCC;" d="M6.609,27.282l-1.049-2.391c-0.109,0.04-0.225,0.062-0.344,0.067l-0.153,1.442l-0.716,6.738
				l2.078,0.938l3.948,1.781L6.609,27.282z"/>
			<path style="fill:#44AFCC;" d="M41.659,35.536l-0.237-10.59l-1.642,10.277c0.422,0.166,0.717,0.563,0.741,1.029l0.499-0.007
				l0.655-0.009L41.659,35.536z"/>
			<path style="fill:#44AFCC;" d="M39.792,12.619l0.308,1.8l1.311,7.664c0.065-0.006,0.132-0.01,0.199-0.004
				c0.082,0.007,0.16,0.022,0.235,0.044l2.783-8.292l0.312-0.928c-0.354-0.195-0.588-0.567-0.603-0.986l-3.719-0.223
				C40.54,12.143,40.214,12.496,39.792,12.619z"/>
			<path style="fill:#44AFCC;" d="M32.162,7.906l6.31,2.974c0.225-0.363,0.636-0.594,1.09-0.557
				c0.187,0.015,0.356,0.076,0.506,0.167l2.601-3.408c-0.166-0.159-0.282-0.364-0.333-0.594l-10.112,1.05
				c0,0.029,0.005,0.057,0.002,0.085C32.217,7.723,32.193,7.816,32.162,7.906z"/>
			<path style="fill:#44AFCC;" d="M6.311,23.584l6.98-0.374l2.193-0.118c-0.001-0.041-0.006-0.081-0.003-0.122
				c0.046-0.568,0.492-1.009,1.038-1.071L15.459,6.852c-0.036,0-0.072,0.005-0.109,0.002c-0.109-0.009-0.211-0.037-0.309-0.073
				L5.88,22.865C6.104,23.041,6.259,23.296,6.311,23.584z"/>
			<path style="fill:#44AFCC;" d="M34.474,15.818l-1.122,2.953c0.409,0.211,0.674,0.652,0.635,1.139
				c-0.007,0.083-0.023,0.164-0.045,0.24l6.459,2.736c0.034-0.102,0.082-0.196,0.141-0.283l-0.128-0.143L34.474,15.818z"/>
			<path style="fill:#44AFCC;" d="M40.71,22.401c0.126-0.12,0.275-0.214,0.443-0.269l-1.62-9.471
				c-0.053,0.003-0.106,0.008-0.161,0.003c-0.286-0.023-0.536-0.151-0.726-0.339l-4.029,3.261l5.971,6.678L40.71,22.401z"/>
			<path style="fill:#44AFCC;" d="M16.547,6.077l9.696,4.924c0.129-0.228,0.331-0.405,0.572-0.506L26.04,7.99L24.77,3.887
				c-0.072,0.008-0.145,0.011-0.22,0.004c-0.405-0.033-0.746-0.269-0.931-0.601L16.6,5.491c0.016,0.094,0.023,0.189,0.016,0.288
				C16.606,5.884,16.58,5.982,16.547,6.077z"/>
			<path style="fill:#44AFCC;" d="M51.319,8.259l-4.788,3.046c0.109,0.196,0.164,0.426,0.145,0.667
				c-0.022,0.282-0.148,0.53-0.332,0.719l3.383,3.842l1.86,2.113c0.135-0.078,0.286-0.13,0.446-0.149l-0.013-9.738
				C51.719,8.699,51.466,8.514,51.319,8.259z"/>
			<path style="fill:#44AFCC;" d="M48.502,50.047c0-0.027,0.002-0.058,0.004-0.092l-2.298,0.698l-2.381,0.725
				c0.863,2.813,1.341,6.005,1.421,9.498L48.502,50.047z"/>
			<path style="fill:#44AFCC;" d="M31.892,19.092c0.235-0.299,0.611-0.48,1.018-0.447c0.068,0.005,0.133,0.02,0.196,0.036
				l1.138-2.992l-8.38-0.583c-0.023,0.074-0.054,0.144-0.09,0.21L31.892,19.092z"/>
			<path style="fill:#44AFCC;" d="M45.181,13.005l-1.157,3.45l-1.938,5.772c0.322,0.181,0.549,0.505,0.595,0.881l7.654-1.723
				l-1.914-3.612l-2.536-4.786c-0.148,0.051-0.309,0.074-0.475,0.06C45.331,13.041,45.255,13.026,45.181,13.005z"/>
			<path style="fill:#44AFCC;" d="M30.097,28.419l-3.514,1.469c0.013,0.087,0.019,0.177,0.012,0.269
				c-0.013,0.159-0.058,0.309-0.128,0.443l11.78,5.127l0.07,0.03c0.214-0.398,0.65-0.656,1.13-0.617
				c0.027,0.002,0.052,0.011,0.078,0.015l1.721-10.767C41,24.33,40.785,24.2,40.628,24.017L30.097,28.419z"/>
			<path style="fill:#44AFCC;" d="M52.603,28.601c0.006-0.072,0.019-0.142,0.038-0.209l-10.243-4.374
				c-0.126,0.143-0.284,0.255-0.464,0.323l2.345,7.137l1.033,3.145c0.108-0.023,0.219-0.036,0.334-0.026
				c0.279,0.022,0.524,0.146,0.712,0.325l3.96-3.31l2.569-2.147C52.688,29.234,52.576,28.928,52.603,28.601z"/>
		</g>
	</g>
</g>
<g id="Layer_1">
</g>
</svg>
