<?xml version="1.0" encoding="iso-8859-1"?>
<!-- Generator: Adobe Illustrator 18.0.0, SVG Export Plug-In . SVG Version: 6.00 Build 0)  -->
<!DOCTYPE svg PUBLIC "-//W3C//DTD SVG 1.1//EN" "http://www.w3.org/Graphics/SVG/1.1/DTD/svg11.dtd">
<svg version="1.1" xmlns="http://www.w3.org/2000/svg" xmlns:xlink="http://www.w3.org/1999/xlink" x="0px" y="0px"
	 viewBox="0 0 112.071 112.071" style="enable-background:new 0 0 112.071 112.071;" xml:space="preserve">
<g id="clock_x5F_page36">
	<path style="fill:#2EB1E8;" d="M56.035,0C25.085,0,0,25.085,0,56.036c0,30.95,25.085,56.036,56.035,56.036
		s56.036-25.086,56.036-56.036C112.071,25.085,86.985,0,56.035,0z M60.265,103.415v-3.767c0-2.338-1.892-4.229-4.229-4.229
		c-2.338,0-4.229,1.892-4.229,4.229v3.767c-22.908-2.029-41.194-20.356-43.16-43.282h3.645c2.337,0,4.229-1.892,4.229-4.229
		c0-2.338-1.892-4.229-4.229-4.229H8.666c2.084-22.803,20.32-40.997,43.141-43.018v3.503c0,2.338,1.891,4.229,4.229,4.229
		c2.338,0,4.229-1.891,4.229-4.229V8.656c22.82,2.021,41.057,20.215,43.14,43.018H99.78c-2.338,0-4.229,1.891-4.229,4.229
		c0,2.338,1.892,4.229,4.229,4.229h3.645C101.459,83.059,83.173,101.386,60.265,103.415z"/>
	<path id="Minutes_1_" class="clock_minutes" style="fill:#2EB1E8;" d="M59.096,52.719c0,1.787-1.377,3.249-3.06,3.249c-1.683,0-3.06-1.462-3.06-3.249
		V21.717c0-1.787,1.377-3.249,3.06-3.249c1.683,0,3.06,1.462,3.06,3.249V52.719z"/>
	<path id="Hours" class="clock_hours" style="fill:#2EB1E8;" d="M59.096,52.368c0,1.98-1.377,3.6-3.06,3.6c-1.683,0-3.06-1.62-3.06-3.6v-21.04
		c0-1.98,1.377-3.6,3.06-3.6c1.683,0,3.06,1.62,3.06,3.6V52.368z"/>
</g>
<g id="Layer_1">
</g>
</svg>
