<?xml version="1.0" encoding="utf-8"?>
<!-- Generator: Adobe Illustrator 18.0.0, SVG Export Plug-In . SVG Version: 6.00 Build 0)  -->
<!DOCTYPE svg PUBLIC "-//W3C//DTD SVG 1.1//EN" "http://www.w3.org/Graphics/SVG/1.1/DTD/svg11.dtd">
<svg version="1.1" id="Layer_1" xmlns="http://www.w3.org/2000/svg" xmlns:xlink="http://www.w3.org/1999/xlink" x="0px" y="0px"
	 viewBox="0 0 463.4 470.5" enable-background="new 0 0 463.4 470.5" xml:space="preserve">
<path fill="#FFFFFF" d="M302.1,146.5l0.6,0.6l23-23h70.2v-1.6h-71.1v0.3l0,0l-22.4,22.4C286.2,132,266.6,124,245.8,122v1.2
	C267,125.3,286.4,133.7,302.1,146.5L302.1,146.5z"/>
<path fill="#FFFFFF" d="M168.5,309.7l-0.6-0.6l-23,23H74.8v1.6h71.1v-0.3l0,0l22.4-22.4c16.2,13.2,35.8,21.2,56.6,23.2V333
	C203.6,330.9,184.2,322.5,168.5,309.7L168.5,309.7z"/>
<path fill="#ED7774" d="M373.1,218.5v-1.6h-31.7c-2.2-20.8-10.3-40.3-23.6-56.4l-0.9,0.9c12.8,15.7,21.3,35.1,23.4,56.3l0,0v0.8
	H373.1L373.1,218.5z"/>
<path fill="#32B196" d="M224.1,122.1c-20.8,2.2-40.3,10.3-56.4,23.6l0.9,0.9c15.7-12.8,35.1-21.3,56.3-23.4l0,0h0.8V90.4h-1.6V122.1
	L224.1,122.1z"/>
<path fill="#98AAA9" d="M152.4,161.1c-13.2,16.2-21.2,35.8-23.2,56.6h1.2c2.1-21.2,10.5-40.7,23.4-56.3l0,0l0.6-0.6l-23.2-23.2
	l-0.3,0.3v-0.5H59.7v1.6h70.5L152.4,161.1z"/>
<path fill="#ED7774" d="M97.6,237.8v1.6h31.7c2.2,20.8,10.3,40.3,23.6,56.4l0.9-0.9c-12.8-15.7-21.3-35.1-23.4-56.3l0,0v-0.8
	L97.6,237.8L97.6,237.8z"/>
<path fill="#98AAA9" d="M340.5,317.3l-22.2-22.2c13.2-16.2,21.2-35.8,23.2-56.6h-1.2c-2.1,21.2-10.5,40.7-23.4,56.3l0,0l-0.6,0.6
	l23.2,23.2l0,0v0.3h71.1v-1.6L340.5,317.3L340.5,317.3z"/>
<path fill="#32B196" d="M245.9,333.7c20.8-2.2,40.3-10.3,56.4-23.6l-0.9-0.9c-15.7,12.8-35.1,21.3-56.3,23.4l0,0h-0.8v32.8h1.6
	V333.7L245.9,333.7z"/>
<path fill="#98AAA9" d="M165.2,169.8l-10.9-9.1c-22.9,22.1-23.9,56.9-23.9,56.9l14.3,1.4C146.5,200.4,153.9,183.4,165.2,169.8z"/>
<path fill="#ED7774" d="M144.8,237.1l-14.4,1.5c2.2,34.7,23.4,56.3,23.4,56.3l11.3-9.3C153.9,272.2,146.6,255.4,144.8,237.1z"/>
<path fill="#FFFFFF" d="M177.3,297.8l-9.3,11.3c28.8,24.5,56.9,23.9,56.9,23.9l1.4-14.8C207.8,316.5,190.9,309.1,177.3,297.8z"/>
<path fill="#32B196" d="M243,318.3l1.2,14.2c0,0,35.8-1.5,57.1-23.4l-8.9-10.9C278.8,309.5,261.7,316.7,243,318.3z"/>
<path fill="#98AAA9" d="M325.5,237.1c-1.9,18.5-9.3,35.4-20.6,48.9l11.4,9.5c0,0,23.2-24.2,23.9-56.9L325.5,237.1z"/>
<path fill="#ED7774" d="M325.6,219.8l14.6-1.3c0,0-0.2-31.8-23.4-57.1l-11.3,9.2C316.8,184.2,324,201.2,325.6,219.8z"/>
<path fill="#FFFFFF" d="M293.5,158.2l9.3-11.1c0,0-18.8-20.7-56.9-23.9l-1.4,14.2C262.9,139.3,279.9,146.8,293.5,158.2z"/>
<path fill="#32B196" d="M227,137.4l-1.3-14.2c0,0-31.7,0-57.1,23.4l9,11C191.3,146.3,208.3,139,227,137.4z"/>
<g>
	<path fill="#FFFFFF" d="M193.9,237.8c-1.2,0.6-3.5,1.2-6.5,1.2c-7,0-12.2-4.4-12.2-12.5c0-7.7,5.2-12.9,12.9-12.9
		c3.1,0,5,0.7,5.9,1.1l-0.8,2.6c-1.2-0.6-2.9-1-5-1c-5.8,0-9.6,3.7-9.6,10.2c0,6,3.5,9.9,9.5,9.9c1.9,0,3.9-0.4,5.2-1L193.9,237.8z"
		/>
	<path fill="#FFFFFF" d="M197.9,213.9h3.2v22h10.5v2.7h-13.7V213.9L197.9,213.9z"/>
	<path fill="#FFFFFF" d="M218.4,213.9v24.7h-3.2v-24.7H218.4L218.4,213.9z"/>
	<path fill="#FFFFFF" d="M236.7,227h-9.6v8.9h10.7v2.7h-13.9v-24.7h13.3v2.7h-10.1v7.8h9.6L236.7,227L236.7,227z"/>
	<path fill="#FFFFFF" d="M241.9,238.6v-24.7h3.5l7.9,12.5c1.8,2.9,3.3,5.5,4.4,8h0.1c-0.3-3.3-0.4-6.3-0.4-10.1V214h3v24.6h-3.2
		l-7.8-12.5c-1.7-2.7-3.4-5.6-4.6-8.2h-0.1c0.2,3.1,0.3,6.1,0.3,10.2v10.5H241.9L241.9,238.6z"/>
	<path fill="#FFFFFF" d="M270.7,216.6h-7.5v-2.7h18.3v2.7H274v22h-3.2v-22H270.7z"/>
	<path fill="#FFFFFF" d="M296.9,227h-9.6v8.9H298v2.7h-13.9v-24.7h13.3v2.7h-10.1v7.8h9.6V227L296.9,227z"/>
</g>
<g id="Aplicativo" class="item-icon item-1">
	<path fill="#32B196" d="M214.1,63.2v19.7h19.7V63.2H214.1z M223.1,81.3h-7.4V68.1h7.4V81.3z M232.1,81.3h-7.4v-5.7h7.4V81.3
		L232.1,81.3z M232.1,73.9h-7.4v-5.7h7.4V73.9L232.1,73.9z"/>
	<g>
		<path fill="#32B196" d="M244.6,74.5l-1,3.1h-1.3l3.4-9.9h1.5l3.4,9.9h-1.4l-1.1-3.1H244.6z M247.9,73.5l-1-2.8
			c-0.2-0.6-0.4-1.2-0.5-1.8l0,0c-0.1,0.6-0.3,1.2-0.5,1.8l-1,2.9L247.9,73.5L247.9,73.5z"/>
		<path fill="#32B196" d="M252,67.9c0.6-0.1,1.4-0.2,2.4-0.2c1.3,0,2.2,0.3,2.8,0.8c0.5,0.5,0.9,1.2,0.9,2.1c0,0.9-0.3,1.6-0.8,2.1
			c-0.7,0.7-1.8,1.1-3,1.1c-0.4,0-0.7,0-1-0.1v3.9H252L252,67.9L252,67.9z M253.3,72.7c0.3,0.1,0.6,0.1,1.1,0.1
			c1.5,0,2.5-0.7,2.5-2.1c0-1.3-0.9-1.9-2.3-1.9c-0.6,0-1,0-1.2,0.1L253.3,72.7L253.3,72.7z"/>
		<path fill="#32B196" d="M259.8,67.8h1.3v8.8h4.2v1h-5.5V67.8z"/>
		<path fill="#32B196" d="M268,67.8v9.8h-1.3v-9.9L268,67.8L268,67.8z"/>
		<path fill="#32B196" d="M277.1,77.3c-0.5,0.2-1.4,0.5-2.6,0.5c-2.8,0-4.9-1.8-4.9-5c0-3.1,2.1-5.2,5.2-5.2c1.2,0,2,0.3,2.3,0.4
			l-0.3,1c-0.5-0.2-1.2-0.4-2-0.4c-2.3,0-3.8,1.5-3.8,4.1c0,2.4,1.4,4,3.8,4c0.8,0,1.6-0.2,2.1-0.4L277.1,77.3z"/>
		<path fill="#32B196" d="M280.3,74.5l-1,3.1H278l3.4-9.9h1.5l3.4,9.9h-1.4l-1.1-3.1H280.3z M283.5,73.5l-1-2.8
			c-0.2-0.6-0.4-1.2-0.5-1.8l0,0c-0.1,0.6-0.3,1.2-0.5,1.8l-1,2.9L283.5,73.5L283.5,73.5z"/>
		<path fill="#32B196" d="M288.4,68.9h-3v-1.1h7.3v1.1h-3v8.7h-1.3V68.9z"/>
		<path fill="#32B196" d="M295.1,67.8v9.8h-1.3v-9.9L295.1,67.8L295.1,67.8z"/>
		<path fill="#32B196" d="M299.5,77.6l-3.2-9.9h1.4l1.5,4.9c0.4,1.3,0.8,2.5,1.1,3.7l0,0c0.3-1.1,0.7-2.4,1.1-3.7l1.7-4.9h1.4
			l-3.5,9.9H299.5z"/>
		<path fill="#32B196" d="M313.9,72.6c0,3.4-2.1,5.2-4.6,5.2c-2.6,0-4.4-2-4.4-5c0-3.1,1.9-5.2,4.6-5.2
			C312.2,67.6,313.9,69.7,313.9,72.6z M306.2,72.8c0,2.1,1.1,4,3.1,4s3.2-1.9,3.2-4.1c0-2-1-4-3.1-4S306.2,70.6,306.2,72.8z"/>
	</g>
</g>
<g id="Internet" class="item-icon item-2">
	<path fill="#FFFFFF" d="M404.6,109.7v22.5H430v-22.5H404.6z M427,129.2h-19.5v-16.5H427V129.2z M420.3,133.7l2.4,3h-10.8l2.4-3
		H420.3L420.3,133.7z M433,136.7h7.5v-19.5H433V136.7z M437.7,131.4c0,0.5-0.4,0.9-0.9,0.9s-0.9-0.4-0.9-0.9c0-0.5,0.4-0.9,0.9-0.9
		C437.3,130.6,437.7,131,437.7,131.4z M437.5,120.2v7.5H436v-7.5H437.5z"/>
	<g>
		<path fill="#FFFFFF" d="M390,149v9.9h-1.2V149H390z"/>
		<path fill="#FFFFFF" d="M392.3,158.9V149h1.4l3.2,5c0.7,1.2,1.3,2.2,1.8,3.2l0,0c-0.1-1.3-0.1-2.5-0.1-4.1V149h1.2v9.9h-1.3
			l-3.1-5c-0.7-1.1-1.3-2.2-1.8-3.3l0,0c0.1,1.2,0.1,2.4,0.1,4.1v4.2L392.3,158.9L392.3,158.9z"/>
		<path fill="#FFFFFF" d="M403.8,150.1h-3V149h7.3v1.1h-3v8.8h-1.3V150.1z"/>
		<path fill="#FFFFFF" d="M414.3,154.3h-3.8v3.6h4.3v1.1h-5.5v-9.9h5.3v1.1h-4.1v3.1h3.8L414.3,154.3L414.3,154.3z"/>
		<path fill="#FFFFFF" d="M416.4,149.2c0.6-0.1,1.6-0.2,2.4-0.2c1.4,0,2.2,0.2,2.9,0.8c0.5,0.4,0.8,1.1,0.8,1.9
			c0,1.3-0.8,2.2-1.9,2.5l0,0c0.8,0.3,1.2,1,1.4,2c0.3,1.4,0.6,2.3,0.8,2.7h-1.3c-0.2-0.3-0.4-1.1-0.7-2.4c-0.3-1.4-0.8-1.9-2-1.9
			h-1.2v4.3h-1.3L416.4,149.2L416.4,149.2z M417.6,153.7h1.3c1.4,0,2.2-0.7,2.2-1.9c0-1.3-0.9-1.8-2.3-1.8c-0.6,0-1.1,0.1-1.3,0.1
			L417.6,153.7L417.6,153.7z"/>
		<path fill="#FFFFFF" d="M424.2,158.9V149h1.4l3.2,5c0.7,1.2,1.3,2.2,1.8,3.2l0,0c-0.1-1.3-0.1-2.5-0.1-4.1V149h1.2v9.9h-1.3
			l-3.1-5c-0.7-1.1-1.3-2.2-1.8-3.3l0,0c0.1,1.2,0.1,2.4,0.1,4.1v4.2L424.2,158.9L424.2,158.9z"/>
		<path fill="#FFFFFF" d="M439,154.3h-3.8v3.6h4.3v1.1h-5.7v-9.9h5.3v1.1H435v3.1h3.8L439,154.3L439,154.3z"/>
		<path fill="#FFFFFF" d="M443.2,150.1h-3V149h7.3v1.1h-3v8.8h-1.3V150.1z"/>
	</g>
</g>
<g id="Email" class="item-icon item-3">
	<path fill="#ED7774" d="M381.9,205v25.3h33.7V205H381.9L381.9,205z M391.2,216.2l-6.5,8v-13.3L391.2,216.2z M385.4,207.8h26.7
		l-13.3,10.9L385.4,207.8z M393.4,217.9l5.4,4.4l5.4-4.4l7.9,9.6h-26.4L393.4,217.9z M406.3,216.2l6.5-5.3V224L406.3,216.2z"/>
	<g>
		<path fill="#ED7774" d="M385.9,246.3h-3.8v3.6h4.3v1.1h-5.6v-9.9h5.3v1.1H382v3.1h3.8L385.9,246.3L385.9,246.3z"/>
		<path fill="#ED7774" d="M396.3,246.6c-0.1-1.4-0.2-3-0.1-4.3l0,0c-0.3,1.2-0.7,2.4-1.2,3.7l-1.7,4.8h-1l-1.6-4.7
			c-0.5-1.4-0.9-2.7-1.1-3.8l0,0c0,1.2-0.1,2.9-0.2,4.4l-0.3,4.2h-1.2l0.7-9.9h1.6l1.7,4.8c0.4,1.2,0.7,2.3,1,3.3l0,0
			c0.2-1,0.6-2.1,1-3.3l1.8-4.8h1.6l0.6,9.9h-1.2L396.3,246.6z"/>
		<path fill="#ED7774" d="M401.2,247.8l-1,3.1h-1.4l3.4-9.9h1.5l3.4,9.9h-1.4l-1.1-3.1H401.2z M404.4,246.8l-1-2.8
			c-0.2-0.6-0.4-1.2-0.5-1.8l0,0c-0.1,0.6-0.3,1.2-0.5,1.8l-1,2.9L404.4,246.8L404.4,246.8z"/>
		<path fill="#ED7774" d="M409.8,241v9.9h-1.3V241H409.8z"/>
		<path fill="#ED7774" d="M412,241h1.3v8.8h4.2v1.1H412V241z"/>
	</g>
</g>
<g id="Celular" class="item-icon item-4">
	<path fill="#98AAA9" d="M435.1,303.2c0.4,0,0.7,0.3,0.7,0.7v27.4c0,0.4-0.3,0.7-0.7,0.7h-15.8c-0.4,0-0.7-0.3-0.7-0.7v-27.4
		c0-0.4,0.3-0.7,0.7-0.7H435.1z M438.7,303.2c0-1.6-1.3-2.9-2.9-2.9h-17.3c-1.6,0-2.9,1.3-2.9,2.9V332c0,1.6,1.3,2.9,2.9,2.9h17.3
		c1.6,0,2.9-1.3,2.9-2.9V303.2z M425,304.7h4.3c0.4,0,0.7,0.3,0.7,0.7s-0.3,0.7-0.7,0.7H425c-0.4,0-0.7-0.3-0.7-0.7
		C424.3,305,424.6,304.7,425,304.7z M427.2,330.6c-0.8,0-1.4-0.6-1.4-1.4c0-0.8,0.6-1.4,1.4-1.4c0.8,0,1.4,0.6,1.4,1.4
		C428.6,330,427.9,330.6,427.2,330.6z M434.4,326.3H420v-18.7h14.4V326.3L434.4,326.3z"/>
	<g>
		<path fill="#98AAA9" d="M407.8,352.4c-0.5,0.2-1.4,0.5-2.6,0.5c-2.8,0-4.9-1.8-4.9-5c0-3.1,2.1-5.2,5.2-5.2c1.2,0,2,0.3,2.3,0.4
			l-0.3,1c-0.5-0.2-1.2-0.4-2-0.4c-2.3,0-3.8,1.5-3.8,4.1c0,2.4,1.4,4,3.8,4c0.8,0,1.6-0.2,2.1-0.4L407.8,352.4z"/>
		<path fill="#98AAA9" d="M414.5,348.1h-3.8v3.6h4.3v1.1h-5.5v-9.9h5.3v1.1h-4.1v3.1h3.8L414.5,348.1L414.5,348.1z"/>
		<path fill="#98AAA9" d="M416.6,342.9h1.3v8.8h4.2v1.1h-5.5V342.9z"/>
		<path fill="#98AAA9" d="M424.2,342.9v5.8c0,2.2,1,3.1,2.3,3.1c1.5,0,2.4-1,2.4-3.1v-5.8h1.3v5.7c0,3-1.6,4.3-3.7,4.3
			c-2,0-3.5-1.2-3.5-4.2v-5.8H424.2L424.2,342.9z"/>
		<path fill="#98AAA9" d="M432.4,342.9h1.3v8.8h4.2v1.1h-5.5V342.9L432.4,342.9z"/>
		<path fill="#98AAA9" d="M440.9,349.6l-1,3.1h-1.3l3.4-9.9h1.5l3.4,9.9h-1.4l-1.1-3.1H440.9z M444.2,348.6l-1-2.8
			c-0.2-0.6-0.4-1.2-0.5-1.8l0,0c-0.1,0.6-0.3,1.2-0.5,1.8l-1,2.9L444.2,348.6L444.2,348.6z"/>
		<path fill="#98AAA9" d="M448.3,343c0.6-0.1,1.6-0.2,2.4-0.2c1.4,0,2.2,0.2,2.9,0.8c0.5,0.4,0.8,1.1,0.8,1.9c0,1.3-0.8,2.2-1.9,2.5
			l0,0c0.8,0.3,1.2,1,1.4,2c0.3,1.4,0.6,2.3,0.8,2.7h-1.3c-0.2-0.3-0.4-1.1-0.7-2.4c-0.3-1.4-0.8-1.9-2-1.9h-1.2v4.3h-1.3V343H448.3
			z M449.5,347.5h1.3c1.4,0,2.2-0.7,2.2-1.9c0-1.3-0.9-1.8-2.3-1.8c-0.6,0-1.1,0.1-1.3,0.1L449.5,347.5L449.5,347.5z"/>
	</g>
</g>
<g id="Automatico" class="item-icon item-5">
	<path fill="#FFFFFF" d="M57.2,350.6c-11.5,5.2-29.2-29.3-18-35.2l3.3-1.6l5.4,10.6l-3.2,1.6c-3.4,1.8,3.7,15.7,7.2,14
		c0.1-0.1,3.2-1.6,3.2-1.6l5.5,10.6C60.4,349,57.4,350.6,57.2,350.6z M54.8,329.8l4.5,1.4c0.3-1.2,0.2-2.5-0.4-3.6
		c-0.6-1.1-1.7-1.9-2.8-2.3L54.8,329.8z M57.6,320.4c2.4,0.7,4.5,2.4,5.8,4.7c1.3,2.4,1.5,5.1,0.8,7.5l-2.8-0.8
		c0.5-1.7,0.4-3.6-0.5-5.3c-0.9-1.7-2.4-2.8-4.1-3.3C56.8,323.2,57.6,320.4,57.6,320.4z M59.1,315.4c3.7,1.1,6.9,3.6,8.9,7.2
		s2.3,7.7,1.2,11.4l-2.9-0.9c0.9-2.9,0.6-6.2-0.9-9.1c-1.6-2.9-4.2-4.9-7.1-5.8C58.2,318.3,59.1,315.4,59.1,315.4z"/>
	<g>
		<path fill="#FFFFFF" d="M10,366.9L9,370H7.7l3.4-9.9h1.5L16,370h-1.4l-1.1-3.1H10z M13.3,365.9l-1-2.8c-0.2-0.6-0.4-1.2-0.5-1.8
			l0,0c-0.1,0.6-0.3,1.2-0.5,1.8l-1,2.9L13.3,365.9L13.3,365.9z"/>
		<path fill="#FFFFFF" d="M18.2,361.2h-3v-1.1h7.3v1.1h-3v8.8h-1.3C18.2,370,18.2,361.2,18.2,361.2z"/>
		<path fill="#FFFFFF" d="M28.7,365.4h-3.9v3.6h4.3v1.1h-5.5v-9.9h5.3v1.1h-4.1v3.1h3.8v1H28.7z"/>
		<path fill="#FFFFFF" d="M30.7,370v-9.9h1.4l3.2,5c0.7,1.2,1.3,2.2,1.8,3.2l0,0c-0.1-1.3-0.1-2.5-0.1-4.1v-4.1h1.2v9.9h-1.3l-3.1-5
			c-0.7-1.1-1.3-2.2-1.8-3.3l0,0c0.1,1.2,0.1,2.4,0.1,4.1v4.2L30.7,370L30.7,370z"/>
		<path fill="#FFFFFF" d="M40.4,360.3c0.8-0.1,1.7-0.2,2.7-0.2c1.8,0,3.1,0.4,4,1.2s1.4,1.9,1.4,3.5c0,1.6-0.5,2.9-1.4,3.8
			c-0.9,0.9-2.4,1.4-4.4,1.4c-0.9,0-1.7,0-2.3-0.1V360.3L40.4,360.3z M41.6,369c0.3,0.1,0.8,0.1,1.3,0.1c2.7,0,4.2-1.5,4.2-4.2
			c0-2.3-1.3-3.8-4-3.8c-0.7,0-1.2,0.1-1.5,0.1V369L41.6,369z"/>
		<path fill="#FFFFFF" d="M51.4,360.2v9.9h-1.3v-9.9H51.4z"/>
		<path fill="#FFFFFF" d="M61.9,365.7c-0.1-1.4-0.2-3-0.1-4.3l0,0c-0.3,1.2-0.7,2.4-1.2,3.7l-1.7,4.8h-1l-1.6-4.7
			c-0.5-1.4-0.9-2.7-1.1-3.8l0,0c0,1.2-0.1,2.9-0.2,4.4l-0.3,4.2h-1.4l0.7-9.9h1.6l1.7,4.8c0.4,1.2,0.7,2.3,1,3.3l0,0
			c0.2-1,0.6-2.1,1-3.3l1.8-4.8h1.7l0.6,9.9h-1.2L61.9,365.7z"/>
		<path fill="#FFFFFF" d="M70.5,365.4h-3.8v3.6H71v1.1h-5.5v-9.9h5.3v1.1h-4.1v3.1h3.8C70.5,364.4,70.5,365.4,70.5,365.4z"/>
		<path fill="#FFFFFF" d="M72.6,370v-9.9H74l3.2,5c0.7,1.2,1.3,2.2,1.8,3.2l0,0c-0.1-1.3-0.1-2.5-0.1-4.1v-4.1h1.2v9.9h-1.3l-3.1-5
			c-0.7-1.1-1.3-2.2-1.8-3.3l0,0c0.1,1.2,0.1,2.4,0.1,4.1v4.2L72.6,370L72.6,370z"/>
		<path fill="#FFFFFF" d="M84.1,361.2h-3v-1.1h7.3v1.1h-3v8.8h-1.3V361.2z"/>
		<path fill="#FFFFFF" d="M97.5,365c0,3.4-2.1,5.2-4.6,5.2c-2.6,0-4.4-2-4.4-5c0-3.1,1.9-5.2,4.6-5.2C95.8,360,97.5,362.1,97.5,365z
			 M89.8,365.1c0,2.1,1.1,4,3.1,4c2,0,3.2-1.9,3.2-4.1c0-2-1-4-3.1-4S89.8,363,89.8,365.1z"/>
		<path fill="#FFFFFF" d="M13.7,384.5l-1,3.1h-1.3l3.4-9.9h1.5l3.4,9.9h-1.4l-1.1-3.1H13.7z M16.9,383.5l-1-2.8
			c-0.2-0.6-0.4-1.2-0.5-1.8l0,0c-0.1,0.6-0.3,1.2-0.5,1.8l-1,2.9L16.9,383.5L16.9,383.5z"/>
		<path fill="#FFFFFF" d="M21.9,377.7v5.8c0,2.2,1,3.1,2.3,3.1c1.5,0,2.4-1,2.4-3.1v-5.8h1.3v5.7c0,3-1.6,4.3-3.7,4.3
			c-2,0-3.5-1.2-3.5-4.2v-5.8H21.9L21.9,377.7z"/>
		<path fill="#FFFFFF" d="M32,378.8h-3v-1.1h7.3v1.1h-3v8.8H32C32,387.6,32,378.8,32,378.8z"/>
		<path fill="#FFFFFF" d="M45.4,382.5c0,3.4-2.1,5.2-4.6,5.2c-2.6,0-4.4-2-4.4-5c0-3.1,1.9-5.2,4.6-5.2S45.4,379.6,45.4,382.5z
			 M37.7,382.7c0,2.1,1.1,4,3.1,4c2,0,3.2-1.9,3.2-4.1c0-2-1-4-3.1-4C38.8,378.6,37.7,380.5,37.7,382.7z"/>
		<path fill="#FFFFFF" d="M55.4,383.2c-0.1-1.4-0.2-3-0.1-4.3l0,0c-0.3,1.2-0.7,2.4-1.2,3.7l-1.7,4.8h-1l-1.6-4.7
			c-0.5-1.4-0.9-2.7-1.1-3.8l0,0c0,1.2-0.1,2.9-0.2,4.4l-0.5,4.3h-1.2l0.7-9.9h1.6l1.7,4.8c0.4,1.2,0.7,2.3,1,3.3l0,0
			c0.2-1,0.6-2.1,1-3.3l1.8-4.8h1.6l0.6,9.9h-1.2L55.4,383.2z"/>
		<path fill="#FFFFFF" d="M60.3,384.5l-1,3.1H58l3.4-9.9h1.4l3.4,9.9h-1.4l-1.1-3.1H60.3z M63.5,383.5l-1-2.8
			c-0.2-0.6-0.4-1.2-0.5-1.8l0,0c-0.1,0.6-0.3,1.2-0.5,1.8l-1,2.9L63.5,383.5L63.5,383.5z M64.2,375.5l-1.9,1.7h-1.1l1.4-1.7H64.2z"
			/>
		<path fill="#FFFFFF" d="M68.4,378.8h-3v-1.1h7.3v1.1h-3v8.8h-1.3C68.4,387.6,68.4,378.8,68.4,378.8z"/>
		<path fill="#FFFFFF" d="M75,377.7v9.9h-1.2v-9.9H75z"/>
		<path fill="#FFFFFF" d="M84.1,387.2c-0.5,0.2-1.4,0.5-2.6,0.5c-2.8,0-4.9-1.8-4.9-5c0-3.1,2.1-5.2,5.1-5.2c1.2,0,2,0.3,2.3,0.4
			l-0.3,1c-0.5-0.2-1.2-0.4-2-0.4c-2.3,0-3.8,1.5-3.8,4.1c0,2.4,1.4,4,3.8,4c0.8,0,1.6-0.2,2.1-0.4L84.1,387.2z"/>
		<path fill="#FFFFFF" d="M93.9,382.5c0,3.4-2.1,5.2-4.6,5.2c-2.6,0-4.4-2-4.4-5c0-3.1,1.9-5.2,4.6-5.2
			C92.1,377.5,93.9,379.6,93.9,382.5z M86.2,382.7c0,2.1,1.1,4,3.1,4c2,0,3.2-1.9,3.2-4.1c0-2-1-4-3.1-4
			C87.3,378.6,86.2,380.5,86.2,382.7z"/>
	</g>
</g>
  <g id="Lojas" class="item-icon item-6">
	<g id="Layer_2">
		<g>
			<path fill="#ED7774" d="M56.5,262h1.3v8.8H62v1.1h-5.5V262z"/>
			<path fill="#ED7774" d="M71.3,266.8c0,3.4-2.1,5.2-4.6,5.2c-2.6,0-4.4-2-4.4-5c0-3.1,1.9-5.2,4.6-5.2
				C69.5,261.9,71.3,263.9,71.3,266.8z M63.6,267c0,2.1,1.1,4,3.1,4c2,0,3.2-1.9,3.2-4.1c0-2-1-4-3.1-4S63.6,264.8,63.6,267z"/>
			<path fill="#ED7774" d="M74.9,262h1.3v6.6c0,2.6-1.3,3.4-3,3.4c-0.5,0-1-0.1-1.4-0.2l0.2-1c0.3,0.1,0.6,0.2,1.1,0.2
				c1.1,0,1.8-0.5,1.8-2.4V262L74.9,262z"/>
			<path fill="#ED7774" d="M79.9,268.8l-1,3.1h-1.3L81,262h1.5l3.4,9.9h-1.4l-1.1-3.1H79.9z M83.2,267.8l-1-2.8
				c-0.2-0.6-0.4-1.2-0.5-1.8l0,0c-0.1,0.6-0.3,1.2-0.5,1.8l-1,2.9L83.2,267.8L83.2,267.8z"/>
			<path fill="#ED7774" d="M87.1,270.3c0.6,0.4,1.4,0.6,2.3,0.6c1.3,0,2.1-0.7,2.1-1.7c0-0.9-0.5-1.4-1.9-2
				c-1.6-0.6-2.6-1.4-2.6-2.8c0-1.5,1.3-2.7,3.2-2.7c1,0,1.7,0.2,2.2,0.5l-0.4,1c-0.3-0.2-1-0.5-1.9-0.5c-1.3,0-1.9,0.8-1.9,1.5
				c0,0.9,0.6,1.4,2,1.9c1.7,0.6,2.5,1.4,2.5,2.9c0,1.5-1.1,2.8-3.5,2.8c-1,0-2-0.3-2.5-0.6L87.1,270.3z"/>
		</g>
	</g>
	<path fill="#ED7774" d="M83.5,239.6c-2.6,0-4.7,2.1-4.7,4.7c0,2.6,2.1,4.7,4.7,4.7c2.6,0,4.7-2.1,4.7-4.7
		C88.3,241.7,86.1,239.6,83.5,239.6z M86.2,244.9h-2.1v2.1h-1v-2.1H81v-1h2.1v-2.1h1v2.1h2.1V244.9z M79.3,249.7
		c-1.2,1.1-2.4,2.3-3.6,3.6c-6.7-6.7-12.6-11.7-12.6-16.5c0-7.1,9.3-8.7,12.6-3.1c3.3-5.6,12.6-4,12.6,3.1c0,0.8-0.2,1.6-0.4,2.4
		c-1.2-0.9-2.7-1.5-4.3-1.5c-3.7,0-6.8,3.1-6.8,6.8C76.7,246.5,77.8,248.4,79.3,249.7z"/>
</g>
<g id="Atendimento" class="item-icon item-7">
	<g>
		<path fill="#98AAA9" d="M49.9,161.1c-0.3-1-0.5-2.1-0.5-3.2c0-4.8,3.2-8.8,7.7-10.2v1.3l5.9-3l-5.9-3v2.1c-5.7,1.5-10,6.6-10,12.7
			c0,0.9,0.1,1.7,0.2,2.5l0.2-1.3L49.9,161.1z"/>
		<path fill="#98AAA9" d="M69,159.7l-0.4,6.6l5.5-3.6l-1.8-1.1c0.4-1.2,0.5-2.4,0.5-3.8c0-5.6-3.7-10.4-8.7-12.2l0.9,0.7l-2.8,1.2
			c4.7,1.1,8.2,5.3,8.2,10.3c0,0.9-0.2,1.7-0.3,2.5L69,159.7z"/>
		<path fill="#98AAA9" d="M67.8,165c-2,2.1-4.7,3.4-7.8,3.4c-2.8,0-5.4-1.2-7.3-3l1.2-0.6l-5.5-3.6l0.4,6.6l1.8-1.1
			c2.3,2.5,5.7,4.1,9.4,4.1c3.2,0,6.1-1.2,8.4-3.1l-0.9,0.3L67.8,165z"/>
		<path fill="#98AAA9" d="M59.1,150.5v1.7c-2,0.4-3,1.6-3,3.2c0,1.7,1.3,2.7,3.2,3.3c1.3,0.5,1.9,0.9,1.9,1.6c0,0.7-0.7,1.1-1.7,1.1
			c-1.2,0-2.2-0.4-3-0.8l-0.5,2.1c0.7,0.4,1.9,0.7,3,0.8v1.7h1.8v-1.9c2-0.4,3.2-1.7,3.2-3.3c0-1.6-0.9-2.6-3-3.4
			c-1.6-0.5-2.2-0.9-2.2-1.6c0-0.5,0.4-1,1.6-1c1.3,0,2.1,0.4,2.6,0.6l0.5-2c-0.6-0.3-1.4-0.5-2.6-0.6v-1.6L59.1,150.5z"/>
	</g>
	<g>
		<path fill="#98AAA9" d="M17.3,186.1l-1,3.1H15l3.4-9.9h1.5l3.4,9.9h-1.5l-1.1-3.1H17.3z M20.5,185.1l-1-2.8
			c-0.2-0.6-0.4-1.2-0.5-1.8l0,0c-0.1,0.6-0.3,1.2-0.5,1.8l-1,2.9L20.5,185.1L20.5,185.1z"/>
		<path fill="#98AAA9" d="M25.4,180.4h-3v-1.1h7.3v1.1h-3v8.8h-1.3C25.4,189.2,25.4,180.4,25.4,180.4z"/>
		<path fill="#98AAA9" d="M35.9,184.6h-3.8v3.6h4.3v1.1h-5.6v-9.9h5.3v1.1H32v3.1h3.8C35.9,183.5,35.9,184.6,35.9,184.6z"/>
		<path fill="#98AAA9" d="M38,189.2v-9.9h1.4l3.2,5c0.7,1.2,1.3,2.2,1.8,3.2l0,0c-0.1-1.3-0.1-2.5-0.1-4.1v-4.1h1.2v9.9h-1.3l-3.1-5
			c-0.7-1.1-1.3-2.2-1.8-3.3l0,0c0.1,1.2,0.1,2.4,0.1,4.1v4.2L38,189.2L38,189.2z"/>
		<path fill="#98AAA9" d="M47.6,179.5c0.8-0.1,1.7-0.2,2.7-0.2c1.8,0,3.1,0.4,4,1.2c0.9,0.8,1.4,1.9,1.4,3.5s-0.5,2.9-1.4,3.8
			s-2.4,1.4-4.4,1.4c-0.9,0-1.7,0-2.3-0.1V179.5L47.6,179.5z M48.9,188.2c0.3,0.1,0.8,0.1,1.3,0.1c2.7,0,4.2-1.5,4.2-4.2
			c0-2.3-1.3-3.8-4-3.8c-0.7,0-1.2,0.1-1.5,0.1V188.2L48.9,188.2z"/>
		<path fill="#98AAA9" d="M58.6,179.3v9.9h-1.3v-9.9H58.6z"/>
		<path fill="#98AAA9" d="M69.1,184.9c-0.1-1.4-0.2-3-0.1-4.3l0,0c-0.3,1.2-0.7,2.4-1.2,3.7l-1.7,4.8h-1l-1.6-4.7
			c-0.5-1.4-0.9-2.7-1.1-3.8l0,0c0,1.2-0.1,2.9-0.2,4.4l-0.3,4.2h-1.2l0.7-9.9H63l1.7,4.8c0.4,1.2,0.7,2.3,1,3.3l0,0
			c0.2-1,0.6-2.1,1-3.3l1.8-4.8h1.6l0.6,9.9h-1.2L69.1,184.9z"/>
		<path fill="#98AAA9" d="M77.7,184.6h-3.8v3.6h4.3v1.1h-5.5v-9.9H78v1.1h-4.1v3.1h3.8C77.7,183.5,77.7,184.6,77.7,184.6z"/>
		<path fill="#98AAA9" d="M79.8,189.2v-9.9h1.4l3.2,5c0.7,1.2,1.3,2.2,1.8,3.2l0,0c-0.1-1.3-0.1-2.5-0.1-4.1v-4.1h1.2v9.9H86l-3.1-5
			c-0.7-1.1-1.3-2.2-1.8-3.3l0,0c0.1,1.2,0.1,2.4,0.1,4.1v4.2L79.8,189.2L79.8,189.2z"/>
		<path fill="#98AAA9" d="M91.3,180.4h-3v-1.1h7.3v1.1h-3v8.8h-1.3V180.4z"/>
		<path fill="#98AAA9" d="M104.7,184.1c0,3.4-2.1,5.2-4.6,5.2c-2.6,0-4.4-2-4.4-5c0-3.1,1.9-5.2,4.6-5.2
			C103,179.2,104.7,181.2,104.7,184.1z M97.1,184.3c0,2.1,1.1,4,3.1,4c2,0,3.2-1.9,3.2-4.1c0-2-1-4-3.1-4
			C98.1,180.2,97.1,182.1,97.1,184.3z"/>
		<path fill="#98AAA9" d="M25.1,203.6l-1,3.1h-1.3l3.4-9.9h1.5l3.4,9.9h-1.4l-1.1-3.1H25.1z M28.3,202.6l-1-2.8
			c-0.2-0.6-0.4-1.2-0.5-1.8l0,0c-0.1,0.6-0.3,1.2-0.5,1.8l-1,2.9L28.3,202.6L28.3,202.6z"/>
		<path fill="#98AAA9" d="M40.7,201.7c0,3.4-2.1,5.2-4.6,5.2c-2.6,0-4.4-2-4.4-5c0-3.1,1.9-5.2,4.6-5.2
			C38.9,196.7,40.7,198.8,40.7,201.7z M33,201.9c0,2.1,1.1,4,3.1,4c2,0,3.2-1.9,3.2-4.1c0-2-1-4-3.1-4S33,199.7,33,201.9z"/>
		<path fill="#98AAA9" d="M52.3,206.4c-0.5,0.2-1.4,0.5-2.6,0.5c-2.8,0-4.9-1.8-4.9-5c0-3.1,2.1-5.2,5.1-5.2c1.2,0,2,0.3,2.3,0.4
			l-0.3,1c-0.5-0.2-1.2-0.4-2-0.4c-2.3,0-3.8,1.5-3.8,4.1c0,2.4,1.4,4,3.8,4c0.8,0,1.6-0.2,2.1-0.4L52.3,206.4z"/>
		<path fill="#98AAA9" d="M53.9,196.9h1.3v8.8h4.2v1.1h-5.5C53.9,206.7,53.9,196.9,53.9,196.9z"/>
		<path fill="#98AAA9" d="M62.1,196.9v9.9h-1.3v-9.9H62.1z"/>
		<path fill="#98AAA9" d="M69.4,202.1h-3.8v3.6h4.2v1.1h-5.5v-9.9h5.3v1.1h-4.1v3.1h3.8L69.4,202.1L69.4,202.1z"/>
		<path fill="#98AAA9" d="M71.5,206.7v-9.9h1.4l3.2,5c0.7,1.2,1.3,2.2,1.8,3.2l0,0c-0.1-1.3-0.1-2.5-0.1-4.1v-4.1H79v9.9h-1.3
			l-3.1-5c-0.7-1.1-1.3-2.2-1.8-3.3l0,0c0.1,1.2,0.1,2.4,0.1,4.1v4.2L71.5,206.7L71.5,206.7z"/>
		<path fill="#98AAA9" d="M83,198h-3v-1.1h7.3v1.1h-3v8.8H83V198z"/>
		<path fill="#98AAA9" d="M93.5,202.1h-3.8v3.6H94v1.1h-5.5v-9.9h5.3v1.1h-4.1v3.1h3.8C93.5,201.1,93.5,202.1,93.5,202.1z"/>
		<path fill="#98AAA9" d="M95.2,206c0-0.5,0.4-0.9,0.9-0.9c0.5,0,0.9,0.4,0.9,0.9s-0.3,0.9-0.9,0.9C95.5,206.9,95.2,206.5,95.2,206z
			"/>
	</g>
</g>
</svg>
