<?xml version="1.0" encoding="iso-8859-1"?>
<!-- Generator: Adobe Illustrator 18.0.0, SVG Export Plug-In . SVG Version: 6.00 Build 0)  -->
<!DOCTYPE svg PUBLIC "-//W3C//DTD SVG 1.1//EN" "http://www.w3.org/Graphics/SVG/1.1/DTD/svg11.dtd">
<svg version="1.1" xmlns="http://www.w3.org/2000/svg" xmlns:xlink="http://www.w3.org/1999/xlink" x="0px" y="0px"
	 viewBox="-51 0 594 494.191" style="enable-background:new -51 0 594 494.191;" xml:space="preserve">
<g id="Layer_2">
	<g>
		<path style="fill:#ED7774;" d="M26.82,307.552h1.631v11.271h5.401v1.369H26.82V307.552z"/>
		<path style="fill:#ED7774;" d="M45.74,313.74c0,4.351-2.644,6.657-5.87,6.657c-3.338,0-5.682-2.588-5.682-6.413
			c0-4.014,2.494-6.639,5.87-6.639C43.509,307.346,45.74,309.99,45.74,313.74z M35.932,313.946c0,2.701,1.463,5.12,4.032,5.12
			c2.588,0,4.05-2.382,4.05-5.251c0-2.513-1.312-5.139-4.032-5.139C37.283,308.677,35.932,311.171,35.932,313.946z"/>
		<path style="fill:#ED7774;" d="M50.445,307.552h1.631v8.458c0,3.356-1.65,4.388-3.826,4.388c-0.6,0-1.331-0.131-1.744-0.3
			l0.244-1.331c0.337,0.131,0.825,0.243,1.369,0.243c1.462,0,2.325-0.656,2.325-3.132V307.552z"/>
		<path style="fill:#ED7774;" d="M56.838,316.216l-1.312,3.976h-1.688l4.294-12.64h1.969l4.313,12.64h-1.744l-1.351-3.976H56.838z
			 M60.983,314.94l-1.238-3.638c-0.281-0.825-0.469-1.575-0.656-2.307h-0.038c-0.188,0.75-0.394,1.519-0.638,2.288l-1.238,3.656
			H60.983z"/>
		<path style="fill:#ED7774;" d="M66.044,318.203c0.731,0.45,1.8,0.825,2.925,0.825c1.669,0,2.645-0.881,2.645-2.156
			c0-1.182-0.675-1.856-2.382-2.513c-2.063-0.731-3.338-1.801-3.338-3.582c0-1.969,1.631-3.432,4.088-3.432
			c1.294,0,2.232,0.3,2.794,0.619l-0.45,1.331c-0.413-0.225-1.256-0.601-2.4-0.601c-1.725,0-2.381,1.032-2.381,1.895
			c0,1.182,0.769,1.763,2.513,2.438c2.138,0.825,3.226,1.857,3.226,3.714c0,1.95-1.444,3.638-4.426,3.638
			c-1.219,0-2.55-0.356-3.226-0.807L66.044,318.203z"/>
	</g>
</g>
<g id="Layer_1">
	<path style="fill:#FFFFFF;" d="M341.659,159.54l0.747,0.747l29.434-29.434h89.979v-2.112h-91.122v0.352l-0.043-0.043
		l-28.707,28.707c-20.802-16.87-45.841-27.136-72.523-29.714v1.593c27.228,2.692,52.105,13.498,72.176,29.961L341.659,159.54z"/>
	<path style="fill:#FFFFFF;" d="M170.399,368.689l-0.747-0.747l-29.434,29.434H50.24v2.112h91.121v-0.352l0.043,0.043l28.707-28.707
		c20.802,16.87,45.841,27.136,72.523,29.714v-1.594c-27.228-2.692-52.105-13.498-72.176-29.961L170.399,368.689z"/>
	<path style="fill:#ED7774;" d="M432.585,251.776v-2.112h-40.598c-2.781-26.638-13.226-51.603-30.27-72.292l-1.172,1.173
		c16.463,20.071,27.269,44.948,29.961,72.176h0.017v1.057L432.585,251.776L432.585,251.776z"/>
	<path style="fill:#32B196;" d="M241.576,128.156c-26.638,2.781-51.602,13.226-72.292,30.27l1.173,1.173
		c20.071-16.463,44.948-27.269,72.176-29.961v-0.018h1.056V87.557h-2.112L241.576,128.156L241.576,128.156z"/>
	<path style="fill:#98AAA9;" d="M149.673,178.196c-16.87,20.802-27.136,45.841-29.714,72.523h1.593
		c2.692-27.228,13.498-52.105,29.961-72.176l-0.058-0.058l0.747-0.747l-29.742-29.742l-0.388,0.388v-0.698H30.95v2.112h90.324
		L149.673,178.196z"/>
	<path style="fill:#ED7774;" d="M79.471,276.454v2.112h40.598c2.781,26.638,13.226,51.603,30.27,72.292l1.173-1.173
		c-16.463-20.071-27.269-44.948-29.961-72.176h-0.017v-1.057L79.471,276.454L79.471,276.454z"/>
	<path style="fill:#98AAA9;" d="M390.783,378.431l-28.398-28.398c16.87-20.802,27.136-45.841,29.714-72.523h-1.593
		c-2.691,27.228-13.498,52.105-29.961,72.176l0.058,0.058l-0.747,0.747l29.742,29.742l0.043-0.043v0.352h91.12v-2.112
		L390.783,378.431L390.783,378.431z"/>
	<g>
		<path style="fill:#98AAA9;" d="M18.3,178.153c-0.402-1.301-0.603-2.706-0.603-4.108c0-6.111,4.108-11.32,9.819-13.025v1.706
			l7.515-3.809l-7.515-3.807v2.706c-7.315,1.903-12.825,8.415-12.825,16.23c0,1.103,0.101,2.205,0.301,3.206l0.299-1.603
			L18.3,178.153z"/>
		<path style="fill:#98AAA9;" d="M42.846,176.449l-0.502,8.417l7.015-4.608l-2.304-1.405c0.5-1.503,0.701-3.106,0.701-4.809
			c0-7.214-4.708-13.325-11.121-15.629l1.202,0.902l-3.607,1.503c6.011,1.402,10.52,6.812,10.52,13.225
			c0,1.103-0.201,2.204-0.402,3.206L42.846,176.449z"/>
		<path style="fill:#98AAA9;" d="M41.243,183.162c-2.505,2.706-6.012,4.41-10.021,4.41c-3.606,0-6.912-1.505-9.317-3.809
			l1.503-0.801l-7.013-4.608l0.5,8.415l2.304-1.402c3.007,3.206,7.315,5.209,12.023,5.209c4.108,0,7.817-1.503,10.722-4.007
			l-1.201,0.402L41.243,183.162z"/>
		<path style="fill:#98AAA9;" d="M30.123,164.627v2.204c-2.506,0.502-3.908,2.106-3.908,4.108c0,2.205,1.704,3.407,4.108,4.209
			c1.704,0.603,2.405,1.104,2.405,2.005c0,0.9-0.904,1.402-2.206,1.402c-1.502,0-2.804-0.502-3.806-1.003l-0.701,2.706
			c0.901,0.5,2.405,0.901,3.907,1v2.205h2.304v-2.405c2.606-0.5,4.108-2.204,4.108-4.209c0-2.103-1.103-3.306-3.807-4.307
			c-2.005-0.701-2.806-1.203-2.806-2.005c0-0.6,0.502-1.301,2.005-1.301c1.704,0,2.703,0.502,3.306,0.802l0.701-2.606
			c-0.802-0.399-1.805-0.701-3.306-0.801v-2.002L30.123,164.627z"/>
	</g>
	<path style="fill:#32B196;" d="M269.554,399.384c26.638-2.781,51.602-13.226,72.292-30.27l-1.173-1.173
		c-20.071,16.463-44.948,27.269-72.176,29.961v0.018h-1.056v42.062h2.112V399.384z"/>
	<path style="fill:#98AAA9;" d="M166.19,189.352l-13.989-11.614c-29.303,28.293-30.65,72.981-30.65,72.981l18.329,1.776
		C142.168,228.603,151.671,206.821,166.19,189.352z"/>
	<path style="fill:#ED7774;" d="M139.94,275.621l-18.389,1.889c2.801,44.488,29.961,72.176,29.961,72.176l14.422-11.892
		C151.692,320.541,142.325,299.113,139.94,275.621z"/>
	<path style="fill:#FFFFFF;" d="M181.603,353.479l-11.951,14.463c36.972,31.443,72.98,30.65,72.98,30.65l1.849-18.981
		C220.709,377.322,199.023,367.89,181.603,353.479z"/>
	<path style="fill:#32B196;" d="M265.858,379.717l1.583,18.204c0,0,45.846-1.946,73.232-29.979l-11.366-13.951
		C311.703,368.352,289.817,377.66,265.858,379.717z"/>
	<path style="fill:#98AAA9;" d="M371.607,275.577c-2.399,23.729-11.928,45.351-26.404,62.699l14.654,12.216
		c0,0,29.785-31.052,30.65-72.981L371.607,275.577z"/>
	<path style="fill:#ED7774;" d="M371.746,253.44l18.778-1.665c0,0-0.252-40.725-29.978-73.232l-14.434,11.735
		C360.39,207.82,369.659,229.6,371.746,253.44z"/>
	<path style="fill:#FFFFFF;" d="M330.528,174.468l11.877-14.181c0,0-24.078-26.579-72.981-30.65l-1.858,18.247
		C291.413,150.283,313.131,159.882,330.528,174.468z"/>
	<path style="fill:#32B196;" d="M245.324,147.765l-1.635-18.145c0,0-40.58-0.06-73.232,29.979l11.523,14.065
		C199.542,159.258,221.392,149.894,245.324,147.765z"/>
	<g>
		<path style="fill:#FFFFFF;" d="M202.96,276.478c-1.5,0.75-4.501,1.501-8.346,1.501c-8.909,0-15.614-5.627-15.614-15.988
			c0-9.894,6.705-16.598,16.504-16.598c3.938,0,6.423,0.844,7.501,1.407l-0.984,3.329c-1.547-0.75-3.751-1.313-6.377-1.313
			c-7.408,0-12.331,4.736-12.331,13.035c0,7.736,4.454,12.705,12.143,12.705c2.485,0,5.016-0.515,6.658-1.312L202.96,276.478z"/>
		<path style="fill:#FFFFFF;" d="M208.073,245.91h4.079v28.178h13.503v3.423h-17.583L208.073,245.91L208.073,245.91z"/>
		<path style="fill:#FFFFFF;" d="M234.285,245.91v31.601h-4.079V245.91H234.285L234.285,245.91z"/>
		<path style="fill:#FFFFFF;" d="M257.776,262.694h-12.284v11.393h13.69v3.423h-17.769v-31.601h17.066v3.423h-12.987v9.987h12.284
			V262.694z"/>
		<path style="fill:#FFFFFF;" d="M264.483,277.51v-31.601h4.454l10.127,15.988c2.344,3.705,4.173,7.033,5.673,10.268l0.093-0.047
			c-0.374-4.22-0.469-8.064-0.469-12.988v-13.222h3.845v31.601h-4.126l-10.034-16.036c-2.204-3.516-4.314-7.126-5.908-10.549
			l-0.141,0.047c0.234,3.985,0.328,7.783,0.328,13.034v13.504L264.483,277.51L264.483,277.51z"/>
		<path style="fill:#FFFFFF;" d="M301.34,249.379h-9.612v-3.469h23.396v3.469h-9.658v28.131h-4.126L301.34,249.379L301.34,249.379z"
			/>
		<path style="fill:#FFFFFF;" d="M335.007,262.694h-12.284v11.393h13.691v3.423h-17.769v-31.601h17.067v3.423h-12.988v9.987h12.284
			L335.007,262.694L335.007,262.694z"/>
	</g>
	<path style="fill:#ED7774;" d="M443.883,234.508v32.421h43.228v-32.421H443.883z M455.812,248.79l-8.327,10.288v-17.036
		C447.485,242.042,455.812,248.79,455.812,248.79z M448.353,238.111h34.285l-17.142,13.893L448.353,238.111z M458.608,251.057
		l6.887,5.582l6.898-5.591l10.108,12.278h-33.824L458.608,251.057z M475.194,248.78l8.314-6.738v16.837L475.194,248.78z"/>
	<path style="fill:#32B196;" d="M228.802,52.744v25.221h25.221V52.744H228.802z M240.361,75.864h-9.458V59.049h9.458V75.864z
		 M251.921,75.864h-9.458v-7.356h9.458V75.864z M251.921,66.406h-9.458v-7.356h9.458V66.406z"/>
	<path style="fill:#FFFFFF;" d="M472.963,112.368v28.783h32.621v-28.783H472.963z M501.746,137.313h-24.945v-21.107h24.945V137.313z
		 M493.111,143.069l3.068,3.838h-13.811l3.068-3.838H493.111L493.111,143.069z M509.422,146.907h9.594v-24.945h-9.594V146.907z
		 M515.37,140.191c0,0.637-0.516,1.151-1.151,1.151c-0.635,0-1.151-0.516-1.151-1.151c0-0.635,0.516-1.151,1.151-1.151
		C514.853,139.04,515.37,139.554,515.37,140.191z M515.178,125.8v9.594h-1.919V125.8H515.178z"/>
	<path style="fill:#98AAA9;" d="M512.055,360.375c0.509,0,0.923,0.414,0.923,0.923v35.079c0,0.51-0.414,0.923-0.923,0.923h-20.309
		c-0.509,0-0.923-0.414-0.923-0.923v-35.079c0-0.51,0.414-0.923,0.923-0.923H512.055z M516.671,360.375
		c0-2.038-1.654-3.693-3.693-3.693h-22.155c-2.038,0-3.693,1.654-3.693,3.693v36.926c0,2.038,1.655,3.693,3.693,3.693h22.155
		c2.038,0,3.693-1.654,3.693-3.693V360.375z M499.131,362.221h5.539c0.51,0,0.923,0.414,0.923,0.925
		c0,0.507-0.414,0.921-0.923,0.921h-5.539c-0.507,0-0.923-0.414-0.923-0.921C498.209,362.635,498.624,362.221,499.131,362.221z
		 M501.9,395.454c-1.021,0-1.846-0.827-1.846-1.846s0.826-1.846,1.846-1.846c1.019,0,1.845,0.827,1.845,1.846
		C503.745,394.627,502.92,395.454,501.9,395.454z M511.132,389.915H492.67v-24.001h18.463V389.915z"/>
	<path style="fill:#FFFFFF;" d="M27.678,421.142c-14.68,6.709-37.465-37.581-23.117-45.062l4.198-2.071l6.958,13.584l-4.149,2.044
		c-4.362,2.339,4.722,20.086,9.184,17.921c0.182-0.082,4.099-2.007,4.112-2.014l7.016,13.539
		C31.866,419.092,27.918,421.032,27.678,421.142z M24.613,394.423l5.813,1.734c0.444-1.488,0.319-3.146-0.478-4.617
		c-0.795-1.473-2.116-2.485-3.602-2.927C26.345,388.613,24.613,394.423,24.613,394.423z M28.207,382.352
		c3.091,0.92,5.831,3.021,7.484,6.08c1.656,3.061,1.913,6.502,0.993,9.59l-3.577-1.066c0.647-2.174,0.464-4.595-0.701-6.749
		c-1.162-2.154-3.091-3.63-5.266-4.276C27.139,385.931,28.207,382.352,28.207,382.352z M30.1,376.001
		c4.713,1.405,8.893,4.607,11.416,9.278c2.529,4.668,2.921,9.919,1.516,14.634l-3.666-1.092c1.124-3.776,0.809-7.982-1.212-11.72
		c-2.025-3.74-5.372-6.307-9.148-7.431C29.006,379.67,30.1,376.001,30.1,376.001z"/>
	<path style="fill:#ED7774;" d="M61.475,278.865c-3.329,0-6.035,2.702-6.035,6.035c0,3.332,2.704,6.035,6.035,6.035
		s6.035-2.702,6.035-6.035C67.509,281.566,64.804,278.865,61.475,278.865z M64.828,285.57h-2.682v2.682h-1.341v-2.682h-2.682v-1.341
		h2.682v-2.682h1.341v2.682h2.682V285.57z M56.075,291.729c-1.486,1.457-3.051,2.976-4.657,4.569
		c-8.622-8.556-16.091-14.947-16.091-21.198c0-9.077,11.87-11.192,16.091-3.948c4.191-7.19,16.091-5.16,16.091,3.948
		c0,1-0.209,2.006-0.567,3.022c-1.497-1.209-3.398-1.938-5.467-1.938c-4.806,0-8.716,3.91-8.716,8.716
		C52.758,287.666,54.06,290.13,56.075,291.729z"/>
	<g id="Layer_1_1_">
	</g>
	<g>
		<path style="fill:#32B196;" d="M267.953,67.249l-1.312,3.976h-1.688l4.294-12.64h1.969l4.313,12.64h-1.744l-1.35-3.976H267.953z
			 M272.098,65.974l-1.237-3.638c-0.281-0.825-0.47-1.575-0.657-2.307h-0.037c-0.188,0.75-0.394,1.519-0.638,2.288l-1.237,3.657
			H272.098z"/>
		<path style="fill:#32B196;" d="M277.384,58.735c0.788-0.131,1.819-0.244,3.132-0.244c1.613,0,2.795,0.375,3.545,1.05
			c0.693,0.6,1.106,1.519,1.106,2.644c0,1.144-0.338,2.044-0.976,2.701c-0.862,0.919-2.269,1.388-3.863,1.388
			c-0.487,0-0.938-0.019-1.312-0.113v5.063h-1.632V58.735z M279.016,64.83c0.356,0.094,0.807,0.131,1.351,0.131
			c1.969,0,3.169-0.956,3.169-2.7c0-1.669-1.182-2.476-2.981-2.476c-0.713,0-1.257,0.056-1.538,0.131V64.83z"/>
		<path style="fill:#32B196;" d="M287.358,58.585h1.632v11.271h5.401v1.369h-7.033V58.585z"/>
		<path style="fill:#32B196;" d="M297.84,58.585v12.64h-1.632v-12.64H297.84z"/>
		<path style="fill:#32B196;" d="M309.522,70.812c-0.6,0.3-1.8,0.6-3.338,0.6c-3.563,0-6.245-2.25-6.245-6.395
			c0-3.957,2.682-6.639,6.602-6.639c1.575,0,2.569,0.337,3,0.562l-0.394,1.332c-0.619-0.3-1.5-0.525-2.551-0.525
			c-2.963,0-4.932,1.894-4.932,5.213c0,3.094,1.781,5.082,4.857,5.082c0.993,0,2.006-0.206,2.662-0.525L309.522,70.812z"/>
		<path style="fill:#32B196;" d="M313.685,67.249l-1.313,3.976h-1.688l4.295-12.64h1.969l4.313,12.64h-1.744l-1.351-3.976H313.685z
			 M317.828,65.974l-1.237-3.638c-0.281-0.825-0.469-1.575-0.656-2.307h-0.037c-0.188,0.75-0.395,1.519-0.638,2.288l-1.238,3.657
			H317.828z"/>
		<path style="fill:#32B196;" d="M324.071,59.973h-3.844v-1.388h9.357v1.388h-3.863v11.252h-1.65V59.973z"/>
		<path style="fill:#32B196;" d="M332.621,58.585v12.64h-1.632v-12.64H332.621z"/>
		<path style="fill:#32B196;" d="M338.246,71.225l-4.125-12.64h1.763l1.969,6.226c0.544,1.707,1.013,3.244,1.351,4.726h0.037
			c0.356-1.462,0.882-3.057,1.444-4.707l2.138-6.245h1.744l-4.52,12.64H338.246z"/>
		<path style="fill:#32B196;" d="M356.734,64.774c0,4.351-2.644,6.657-5.869,6.657c-3.338,0-5.683-2.588-5.683-6.413
			c0-4.013,2.494-6.639,5.87-6.639C354.503,58.379,356.734,61.023,356.734,64.774z M346.927,64.98c0,2.7,1.463,5.12,4.032,5.12
			c2.588,0,4.051-2.382,4.051-5.251c0-2.513-1.312-5.138-4.032-5.138C348.277,59.711,346.927,62.205,346.927,64.98z"/>
	</g>
	<g>
		<path style="fill:#FFFFFF;" d="M454.326,162.731v12.64h-1.632v-12.64H454.326z"/>
		<path style="fill:#FFFFFF;" d="M457.176,175.371v-12.64h1.782l4.051,6.395c0.938,1.481,1.669,2.813,2.269,4.107l0.038-0.019
			c-0.15-1.688-0.188-3.226-0.188-5.194v-5.289h1.537v12.64h-1.65l-4.013-6.414c-0.882-1.406-1.726-2.851-2.363-4.219l-0.056,0.019
			c0.094,1.594,0.131,3.113,0.131,5.213v5.401H457.176z"/>
		<path style="fill:#FFFFFF;" d="M471.913,164.119h-3.844v-1.388h9.357v1.388h-3.863v11.252h-1.65V164.119z"/>
		<path style="fill:#FFFFFF;" d="M485.376,169.445h-4.913v4.557h5.476v1.369h-7.107v-12.64h6.826v1.369h-5.194v3.994h4.913V169.445z
			"/>
		<path style="fill:#FFFFFF;" d="M488.057,162.9c0.825-0.169,2.007-0.263,3.132-0.263c1.744,0,2.869,0.319,3.657,1.032
			c0.638,0.562,0.994,1.425,0.994,2.4c0,1.669-1.051,2.775-2.382,3.225v0.057c0.976,0.337,1.557,1.237,1.856,2.55
			c0.413,1.763,0.713,2.981,0.976,3.469h-1.688c-0.206-0.356-0.487-1.444-0.844-3.019c-0.375-1.744-1.05-2.4-2.531-2.457h-1.538
			v5.476h-1.632V162.9z M489.688,168.658h1.669c1.744,0,2.851-0.957,2.851-2.4c0-1.632-1.182-2.344-2.906-2.363
			c-0.788,0-1.351,0.075-1.613,0.15V168.658z"/>
		<path style="fill:#FFFFFF;" d="M498.144,175.371v-12.64h1.782l4.051,6.395c0.938,1.481,1.669,2.813,2.269,4.107l0.038-0.019
			c-0.15-1.688-0.188-3.226-0.188-5.194v-5.289h1.537v12.64h-1.65l-4.013-6.414c-0.882-1.406-1.726-2.851-2.363-4.219l-0.056,0.019
			c0.094,1.594,0.131,3.113,0.131,5.213v5.401H498.144z"/>
		<path style="fill:#FFFFFF;" d="M517.026,169.445h-4.913v4.557h5.476v1.369h-7.107v-12.64h6.826v1.369h-5.194v3.994h4.913V169.445z
			"/>
		<path style="fill:#FFFFFF;" d="M522.406,164.119h-3.844v-1.388h9.357v1.388h-3.863v11.252h-1.65V164.119z"/>
	</g>
	<g>
		<path style="fill:#ED7774;" d="M448.97,287.372h-4.913v4.557h5.476v1.369h-7.107v-12.64h6.826v1.369h-5.194v3.994h4.913V287.372z"
			/>
		<path style="fill:#ED7774;" d="M462.302,287.747c-0.094-1.763-0.206-3.882-0.188-5.457h-0.057
			c-0.431,1.481-0.956,3.057-1.594,4.801l-2.231,6.132h-1.238l-2.044-6.02c-0.6-1.781-1.106-3.413-1.463-4.913h-0.037
			c-0.037,1.575-0.131,3.694-0.244,5.588l-0.337,5.42h-1.557l0.881-12.64h2.082l2.156,6.113c0.525,1.557,0.957,2.944,1.275,4.257
			h0.057c0.318-1.274,0.769-2.662,1.331-4.257l2.25-6.113h2.082l0.788,12.64h-1.595L462.302,287.747z"/>
		<path style="fill:#ED7774;" d="M468.582,289.322l-1.313,3.976h-1.688l4.295-12.64h1.969l4.313,12.64h-1.744l-1.351-3.976H468.582z
			 M472.726,288.047l-1.237-3.638c-0.281-0.825-0.469-1.575-0.656-2.307h-0.037c-0.188,0.75-0.395,1.519-0.638,2.288l-1.238,3.656
			H472.726z"/>
		<path style="fill:#ED7774;" d="M479.644,280.658v12.64h-1.632v-12.64H479.644z"/>
		<path style="fill:#ED7774;" d="M482.493,280.658h1.632v11.271h5.401v1.369h-7.033V280.658z"/>
	</g>
	<g>
		<path style="fill:#98AAA9;" d="M477.077,423.42c-0.6,0.3-1.8,0.6-3.338,0.6c-3.563,0-6.245-2.25-6.245-6.395
			c0-3.957,2.682-6.639,6.602-6.639c1.575,0,2.569,0.338,3,0.562l-0.394,1.331c-0.619-0.3-1.5-0.524-2.551-0.524
			c-2.963,0-4.932,1.894-4.932,5.213c0,3.095,1.781,5.082,4.857,5.082c0.993,0,2.006-0.206,2.662-0.524L477.077,423.42z"/>
		<path style="fill:#98AAA9;" d="M485.664,417.906h-4.913v4.557h5.476v1.369h-7.107v-12.64h6.826v1.369h-5.194v3.994h4.913V417.906z
			"/>
		<path style="fill:#98AAA9;" d="M488.344,411.192h1.632v11.271h5.401v1.369h-7.033V411.192z"/>
		<path style="fill:#98AAA9;" d="M498.15,411.192v7.482c0,2.832,1.257,4.032,2.944,4.032c1.875,0,3.075-1.238,3.075-4.032v-7.482
			h1.65v7.37c0,3.882-2.044,5.476-4.782,5.476c-2.588,0-4.538-1.481-4.538-5.4v-7.445H498.15z"/>
		<path style="fill:#98AAA9;" d="M508.649,411.192h1.632v11.271h5.401v1.369h-7.033V411.192z"/>
		<path style="fill:#98AAA9;" d="M519.544,419.856l-1.313,3.976h-1.688l4.295-12.64h1.969l4.313,12.64h-1.744l-1.351-3.976H519.544z
			 M523.688,418.581l-1.237-3.638c-0.281-0.825-0.469-1.575-0.656-2.307h-0.037c-0.188,0.75-0.395,1.519-0.638,2.288l-1.238,3.656
			H523.688z"/>
		<path style="fill:#98AAA9;" d="M528.975,411.361c0.825-0.169,2.007-0.263,3.132-0.263c1.744,0,2.869,0.319,3.657,1.031
			c0.638,0.562,0.994,1.426,0.994,2.4c0,1.669-1.051,2.775-2.382,3.226v0.057c0.975,0.337,1.557,1.237,1.856,2.55
			c0.413,1.764,0.713,2.982,0.976,3.47h-1.688c-0.206-0.356-0.487-1.444-0.844-3.02c-0.375-1.744-1.05-2.4-2.531-2.456h-1.538v5.476
			h-1.632V411.361z M530.606,417.118h1.669c1.744,0,2.851-0.956,2.851-2.4c0-1.631-1.182-2.344-2.906-2.362
			c-0.788,0-1.351,0.074-1.613,0.149V417.118z"/>
	</g>
	<g>
		<path style="fill:#FFFFFF;" d="M-32.736,442.007l-1.312,3.976h-1.688l4.294-12.64h1.969l4.313,12.64h-1.744l-1.351-3.976H-32.736z
			 M-28.592,440.731l-1.238-3.638c-0.281-0.825-0.469-1.575-0.656-2.307h-0.038c-0.188,0.75-0.394,1.519-0.638,2.288l-1.238,3.656
			H-28.592z"/>
		<path style="fill:#FFFFFF;" d="M-22.349,434.73h-3.844v-1.388h9.357v1.388h-3.863v11.252h-1.65V434.73z"/>
		<path style="fill:#FFFFFF;" d="M-8.885,440.057h-4.914v4.557h5.476v1.369h-7.107v-12.64h6.826v1.369h-5.195v3.994h4.914V440.057z"
			/>
		<path style="fill:#FFFFFF;" d="M-6.206,445.982v-12.64h1.781l4.051,6.395c0.938,1.481,1.669,2.813,2.269,4.107l0.038-0.019
			c-0.15-1.688-0.188-3.226-0.188-5.195v-5.288h1.538v12.64h-1.65l-4.013-6.413c-0.881-1.407-1.726-2.851-2.363-4.22l-0.057,0.019
			c0.094,1.594,0.131,3.113,0.131,5.214v5.4H-6.206z"/>
		<path style="fill:#FFFFFF;" d="M6.132,433.512c0.994-0.15,2.175-0.263,3.469-0.263c2.344,0,4.013,0.544,5.12,1.575
			c1.125,1.031,1.782,2.494,1.782,4.538c0,2.063-0.638,3.751-1.819,4.914c-1.181,1.181-3.132,1.818-5.588,1.818
			c-1.163,0-2.138-0.056-2.963-0.149V433.512z M7.763,444.688c0.413,0.075,1.013,0.094,1.65,0.094c3.488,0,5.382-1.95,5.382-5.363
			c0.019-2.981-1.669-4.876-5.12-4.876c-0.844,0-1.481,0.075-1.913,0.169V444.688z"/>
		<path style="fill:#FFFFFF;" d="M20.25,433.343v12.64h-1.631v-12.64H20.25z"/>
		<path style="fill:#FFFFFF;" d="M33.752,440.432c-0.094-1.763-0.207-3.882-0.188-5.457h-0.057
			c-0.431,1.481-0.956,3.057-1.594,4.801l-2.232,6.132h-1.237l-2.044-6.02c-0.6-1.781-1.106-3.413-1.462-4.913H24.9
			c-0.038,1.575-0.131,3.694-0.244,5.588l-0.338,5.42h-1.556l0.881-12.64h2.082l2.156,6.113c0.525,1.557,0.957,2.944,1.275,4.257
			h0.056c0.319-1.274,0.769-2.662,1.332-4.257l2.25-6.113h2.082l0.788,12.64h-1.594L33.752,440.432z"/>
		<path style="fill:#FFFFFF;" d="M44.72,440.057h-4.914v4.557h5.476v1.369h-7.107v-12.64h6.826v1.369h-5.195v3.994h4.914V440.057z"
			/>
		<path style="fill:#FFFFFF;" d="M47.4,445.982v-12.64h1.781l4.051,6.395c0.938,1.481,1.669,2.813,2.269,4.107l0.038-0.019
			c-0.15-1.688-0.188-3.226-0.188-5.195v-5.288h1.538v12.64h-1.65l-4.013-6.413c-0.881-1.407-1.726-2.851-2.363-4.22l-0.057,0.019
			c0.094,1.594,0.131,3.113,0.131,5.214v5.4H47.4z"/>
		<path style="fill:#FFFFFF;" d="M62.137,434.73h-3.844v-1.388h9.357v1.388h-3.863v11.252h-1.65V434.73z"/>
		<path style="fill:#FFFFFF;" d="M79.351,439.531c0,4.351-2.644,6.657-5.87,6.657c-3.338,0-5.682-2.588-5.682-6.413
			c0-4.014,2.494-6.639,5.87-6.639C77.12,433.137,79.351,435.781,79.351,439.531z M69.543,439.737c0,2.701,1.463,5.12,4.032,5.12
			c2.588,0,4.05-2.382,4.05-5.251c0-2.513-1.312-5.139-4.032-5.139C70.894,434.468,69.543,436.962,69.543,439.737z"/>
		<path style="fill:#FFFFFF;" d="M-28.078,464.507l-1.312,3.976h-1.688l4.294-12.64h1.969l4.313,12.64h-1.744l-1.35-3.976H-28.078z
			 M-23.933,463.231l-1.238-3.638c-0.281-0.825-0.469-1.575-0.656-2.307h-0.038c-0.188,0.75-0.394,1.519-0.638,2.288l-1.238,3.656
			H-23.933z"/>
		<path style="fill:#FFFFFF;" d="M-17.54,455.843v7.482c0,2.832,1.256,4.032,2.944,4.032c1.875,0,3.076-1.238,3.076-4.032v-7.482
			h1.65v7.37c0,3.882-2.044,5.476-4.782,5.476c-2.588,0-4.539-1.481-4.539-5.4v-7.445H-17.54z"/>
		<path style="fill:#FFFFFF;" d="M-4.64,457.23h-3.844v-1.388h9.357v1.388H-2.99v11.252h-1.65V457.23z"/>
		<path style="fill:#FFFFFF;" d="M12.574,462.031c0,4.351-2.644,6.657-5.87,6.657c-3.338,0-5.682-2.588-5.682-6.413
			c0-4.014,2.494-6.639,5.87-6.639C10.342,455.637,12.574,458.281,12.574,462.031z M2.766,462.237c0,2.701,1.463,5.12,4.032,5.12
			c2.588,0,4.05-2.382,4.05-5.251c0-2.513-1.312-5.139-4.032-5.139C4.116,456.968,2.766,459.462,2.766,462.237z"/>
		<path style="fill:#FFFFFF;" d="M25.342,462.932c-0.094-1.763-0.207-3.882-0.188-5.457h-0.057
			c-0.431,1.481-0.956,3.057-1.594,4.801l-2.232,6.132h-1.237l-2.044-6.02c-0.6-1.781-1.106-3.413-1.462-4.913h-0.038
			c-0.038,1.575-0.131,3.694-0.244,5.588l-0.338,5.42h-1.556l0.881-12.64h2.082l2.156,6.113c0.525,1.557,0.957,2.944,1.275,4.257
			h0.056c0.319-1.274,0.769-2.662,1.332-4.257l2.25-6.113h2.082l0.788,12.64h-1.594L25.342,462.932z"/>
		<path style="fill:#FFFFFF;" d="M31.622,464.507l-1.312,3.976h-1.688l4.294-12.64h1.969l4.313,12.64h-1.744l-1.351-3.976H31.622z
			 M35.767,463.231l-1.238-3.638c-0.281-0.825-0.469-1.575-0.656-2.307h-0.038c-0.188,0.75-0.394,1.519-0.638,2.288l-1.238,3.656
			H35.767z M36.667,452.974l-2.381,2.194h-1.35l1.744-2.194H36.667z"/>
		<path style="fill:#FFFFFF;" d="M42.01,457.23h-3.844v-1.388h9.357v1.388H43.66v11.252h-1.65V457.23z"/>
		<path style="fill:#FFFFFF;" d="M50.559,455.843v12.64h-1.631v-12.64H50.559z"/>
		<path style="fill:#FFFFFF;" d="M62.242,468.07c-0.6,0.3-1.8,0.6-3.338,0.6c-3.563,0-6.245-2.25-6.245-6.395
			c0-3.957,2.682-6.639,6.601-6.639c1.575,0,2.569,0.338,3,0.562l-0.394,1.331c-0.619-0.3-1.5-0.524-2.55-0.524
			c-2.963,0-4.932,1.894-4.932,5.213c0,3.095,1.782,5.082,4.857,5.082c0.994,0,2.007-0.206,2.663-0.524L62.242,468.07z"/>
		<path style="fill:#FFFFFF;" d="M74.692,462.031c0,4.351-2.644,6.657-5.87,6.657c-3.338,0-5.682-2.588-5.682-6.413
			c0-4.014,2.494-6.639,5.87-6.639C72.46,455.637,74.692,458.281,74.692,462.031z M64.884,462.237c0,2.701,1.463,5.12,4.032,5.12
			c2.588,0,4.05-2.382,4.05-5.251c0-2.513-1.312-5.139-4.032-5.139C66.234,456.968,64.884,459.462,64.884,462.237z"/>
	</g>
	<g>
		<path style="fill:#98AAA9;" d="M-23.48,210.216l-1.312,3.976h-1.688l4.294-12.64h1.969l4.313,12.64h-1.744l-1.351-3.976H-23.48z
			 M-19.336,208.94l-1.238-3.638c-0.281-0.825-0.469-1.575-0.656-2.307h-0.038c-0.188,0.75-0.394,1.519-0.638,2.288l-1.238,3.657
			H-19.336z"/>
		<path style="fill:#98AAA9;" d="M-13.093,202.939h-3.844v-1.388h9.357v1.388h-3.863v11.252h-1.65V202.939z"/>
		<path style="fill:#98AAA9;" d="M0.371,208.266h-4.914v4.557h5.476v1.369h-7.107v-12.64h6.826v1.369h-5.195v3.994h4.914V208.266z"
			/>
		<path style="fill:#98AAA9;" d="M3.05,214.191v-12.64h1.781l4.051,6.395c0.938,1.481,1.669,2.813,2.269,4.107l0.038-0.019
			c-0.15-1.688-0.188-3.226-0.188-5.194v-5.289h1.538v12.64h-1.65l-4.013-6.414c-0.881-1.406-1.726-2.851-2.363-4.219l-0.057,0.019
			c0.094,1.594,0.131,3.113,0.131,5.213v5.401H3.05z"/>
		<path style="fill:#98AAA9;" d="M15.388,201.721c0.994-0.15,2.175-0.263,3.469-0.263c2.344,0,4.013,0.544,5.12,1.575
			c1.125,1.032,1.782,2.494,1.782,4.539c0,2.062-0.638,3.75-1.819,4.913c-1.181,1.182-3.132,1.819-5.588,1.819
			c-1.163,0-2.138-0.056-2.963-0.15V201.721z M17.019,212.897c0.413,0.075,1.013,0.094,1.65,0.094c3.488,0,5.382-1.95,5.382-5.363
			c0.019-2.982-1.669-4.876-5.12-4.876c-0.844,0-1.481,0.075-1.913,0.169V212.897z"/>
		<path style="fill:#98AAA9;" d="M29.506,201.552v12.64h-1.631v-12.64H29.506z"/>
		<path style="fill:#98AAA9;" d="M43.008,208.641c-0.094-1.763-0.207-3.882-0.188-5.457h-0.057
			c-0.431,1.481-0.956,3.057-1.594,4.801l-2.232,6.132h-1.237l-2.044-6.02c-0.6-1.782-1.106-3.413-1.462-4.913h-0.038
			c-0.038,1.575-0.131,3.694-0.244,5.588l-0.338,5.419h-1.556l0.881-12.64h2.082l2.156,6.114c0.525,1.556,0.957,2.944,1.275,4.257
			h0.056c0.319-1.275,0.769-2.663,1.332-4.257l2.25-6.114h2.082l0.788,12.64h-1.594L43.008,208.641z"/>
		<path style="fill:#98AAA9;" d="M53.976,208.266h-4.914v4.557h5.476v1.369h-7.107v-12.64h6.826v1.369h-5.195v3.994h4.914V208.266z"
			/>
		<path style="fill:#98AAA9;" d="M56.656,214.191v-12.64h1.781l4.051,6.395c0.938,1.481,1.669,2.813,2.269,4.107l0.038-0.019
			c-0.15-1.688-0.188-3.226-0.188-5.194v-5.289h1.538v12.64h-1.65l-4.013-6.414c-0.881-1.406-1.726-2.851-2.363-4.219l-0.057,0.019
			c0.094,1.594,0.131,3.113,0.131,5.213v5.401H56.656z"/>
		<path style="fill:#98AAA9;" d="M71.393,202.939h-3.844v-1.388h9.357v1.388h-3.863v11.252h-1.65V202.939z"/>
		<path style="fill:#98AAA9;" d="M88.607,207.74c0,4.351-2.644,6.657-5.87,6.657c-3.338,0-5.682-2.588-5.682-6.413
			c0-4.013,2.494-6.639,5.87-6.639C86.375,201.346,88.607,203.99,88.607,207.74z M78.799,207.947c0,2.7,1.463,5.12,4.032,5.12
			c2.588,0,4.05-2.382,4.05-5.251c0-2.513-1.312-5.138-4.032-5.138C80.149,202.677,78.799,205.171,78.799,207.947z"/>
		<path style="fill:#98AAA9;" d="M-13.458,232.716l-1.312,3.976h-1.688l4.294-12.64h1.969l4.313,12.64h-1.744l-1.35-3.976H-13.458z
			 M-9.314,231.44l-1.238-3.638c-0.281-0.825-0.469-1.575-0.656-2.307h-0.038c-0.188,0.75-0.394,1.519-0.638,2.288l-1.238,3.657
			H-9.314z"/>
		<path style="fill:#98AAA9;" d="M6.493,230.24c0,4.351-2.644,6.657-5.87,6.657c-3.338,0-5.682-2.588-5.682-6.413
			c0-4.013,2.494-6.639,5.87-6.639C4.262,223.846,6.493,226.49,6.493,230.24z M-3.315,230.447c0,2.7,1.463,5.12,4.032,5.12
			c2.588,0,4.051-2.382,4.051-5.251c0-2.513-1.313-5.138-4.032-5.138C-1.964,225.177-3.315,227.671-3.315,230.447z"/>
		<path style="fill:#98AAA9;" d="M21.417,236.279c-0.6,0.3-1.8,0.6-3.338,0.6c-3.563,0-6.245-2.25-6.245-6.395
			c0-3.957,2.682-6.639,6.601-6.639c1.575,0,2.569,0.337,3,0.562l-0.394,1.332c-0.619-0.3-1.5-0.525-2.55-0.525
			c-2.963,0-4.932,1.894-4.932,5.213c0,3.094,1.782,5.082,4.857,5.082c0.994,0,2.007-0.206,2.663-0.525L21.417,236.279z"/>
		<path style="fill:#98AAA9;" d="M23.459,224.052h1.631v11.271h5.401v1.369h-7.032V224.052z"/>
		<path style="fill:#98AAA9;" d="M33.94,224.052v12.64h-1.631v-12.64H33.94z"/>
		<path style="fill:#98AAA9;" d="M43.335,230.766h-4.914v4.557h5.476v1.369h-7.107v-12.64h6.826v1.369h-5.195v3.994h4.914V230.766z"
			/>
		<path style="fill:#98AAA9;" d="M46.015,236.691v-12.64h1.781l4.051,6.395c0.938,1.481,1.669,2.813,2.269,4.107l0.038-0.019
			c-0.15-1.688-0.188-3.226-0.188-5.194v-5.289h1.538v12.64h-1.65l-4.013-6.414c-0.881-1.406-1.726-2.851-2.363-4.219l-0.057,0.019
			c0.094,1.594,0.131,3.113,0.131,5.213v5.401H46.015z"/>
		<path style="fill:#98AAA9;" d="M60.753,225.439h-3.844v-1.388h9.357v1.388h-3.863v11.252h-1.65V225.439z"/>
		<path style="fill:#98AAA9;" d="M74.216,230.766h-4.914v4.557h5.476v1.369h-7.107v-12.64h6.826v1.369h-5.195v3.994h4.914V230.766z"
			/>
		<path style="fill:#98AAA9;" d="M76.371,235.716c0-0.694,0.469-1.182,1.125-1.182c0.657,0,1.106,0.488,1.106,1.182
			c0,0.675-0.431,1.181-1.125,1.181C76.821,236.897,76.371,236.391,76.371,235.716z"/>
	</g>
</g>
</svg>
