<svg version="1.1" id="Layer_1" xmlns="http://www.w3.org/2000/svg" xmlns:xlink="http://www.w3.org/1999/xlink" x="0px" y="0px"
	 viewBox="0 0 531.453 494.191" style="enable-background:new 0 0 531.453 494.191;" xml:space="preserve">
<path style="fill:#FFFFFF;" d="M339.671,153.877l0.63,0.63l24.158-24.158h73.735v-1.681h-74.68v0.315l0,0l-23.528,23.528
	c-17.016-13.865-37.603-22.268-59.45-24.368v1.26C302.804,131.609,323.181,140.432,339.671,153.877L339.671,153.877z"/>
<path style="fill:#FFFFFF;" d="M199.344,325.294l-0.63-0.63l-24.158,24.158h-73.63v1.681h74.68v-0.315l0,0l23.528-23.528
	c17.016,13.865,37.603,22.268,59.45,24.368v-1.26C236.211,347.562,215.835,338.739,199.344,325.294L199.344,325.294z"/>
<path style="fill:#ED7774;" d="M414.246,229.502v-1.681H380.95c-2.311-21.847-10.819-42.329-24.788-59.24l-0.945,0.945
	c13.445,16.491,22.372,36.867,24.578,59.135l0,0v0.84h34.451V229.502z"/>
<path style="fill:#32B196;" d="M257.744,128.248c-21.847,2.311-42.329,10.819-59.24,24.788l0.945,0.945
	c16.491-13.445,36.867-22.373,59.135-24.578l0,0h0.84V94.952h-1.681v33.296H257.744z"/>
<path style="fill:#98AAA9;" d="M182.433,169.212c-13.865,17.016-22.267,37.603-24.368,59.45h1.26
	c2.206-22.268,11.029-42.749,24.578-59.135l0,0l0.63-0.63l-24.368-24.368l-0.315,0.315v-0.525H85.066V146h74.05L182.433,169.212z"/>
<path style="fill:#ED7774;" d="M124.874,249.774v1.681h33.296c2.311,21.847,10.819,42.329,24.788,59.24l0.945-0.945
	c-13.445-16.491-22.373-36.867-24.578-59.135l0,0v-0.84L124.874,249.774L124.874,249.774z"/>
<path style="fill:#98AAA9;" d="M380.005,333.277l-23.318-23.318c13.865-17.016,22.267-37.603,24.368-59.45h-1.26
	c-2.206,22.268-11.029,42.749-24.578,59.135l0,0l-0.63,0.63l24.368,24.368l0,0v0.315h74.68v-1.681L380.005,333.277L380.005,333.277z
	"/>
<path style="fill:#32B196;" d="M280.641,350.503c21.847-2.311,42.329-10.819,59.24-24.788l-0.945-0.945
	c-16.491,13.445-36.867,22.373-59.135,24.578l0,0h-0.84v1.343L280.641,350.503L280.641,350.503L280.641,350.503z"/>
<path style="fill:#98AAA9;" d="M195.878,178.35l-11.449-9.558c-24.053,23.213-25.103,59.765-25.103,59.765l15.02,1.47
	C176.236,210.491,184.009,192.635,195.878,178.35z"/>
<path style="fill:#ED7774;" d="M174.451,249.039l-15.125,1.576c2.311,36.447,24.578,59.135,24.578,59.135l11.869-9.768
	C184.009,285.906,176.341,268.26,174.451,249.039z"/>
<path style="fill:#FFFFFF;" d="M208.587,312.795l-9.768,11.869c30.25,25.734,59.765,25.103,59.765,25.103l1.47-15.545
	C240.623,332.437,222.872,324.664,208.587,312.795z"/>
<path style="fill:#32B196;" d="M277.595,334.327l1.26,14.915c0,0,37.603-1.576,59.975-24.578l-9.348-11.449
	C315.198,325.084,297.237,332.647,277.595,334.327z"/>
<path style="fill:#98AAA9;" d="M364.249,249.039c-1.996,19.432-9.768,37.183-21.637,51.362l11.974,9.978
	c0,0,24.368-25.419,25.103-59.765L364.249,249.039z"/>
<path style="fill:#ED7774;" d="M364.354,230.868l15.335-1.365c0,0-0.21-33.401-24.578-59.975l-11.869,9.663
	C355.111,193.475,362.674,211.331,364.354,230.868z"/>
<path style="fill:#FFFFFF;" d="M330.638,166.166l9.768-11.659c0,0-19.747-21.742-59.765-25.103l-1.47,14.915
	C298.497,146.314,316.353,154.192,330.638,166.166z"/>
<path style="fill:#32B196;" d="M260.79,144.319l-1.365-14.915c0,0-33.296,0-59.975,24.578l9.453,11.554
	C223.292,153.667,241.148,145.999,260.79,144.319z"/>
<g>
	<path style="fill:#FFFFFF;" d="M226.023,249.774c-1.26,0.63-3.676,1.26-6.827,1.26c-7.352,0-12.814-4.622-12.814-13.129
		c0-8.088,5.462-13.55,13.55-13.55c3.256,0,5.252,0.735,6.197,1.155l-0.84,2.731c-1.26-0.63-3.046-1.05-5.252-1.05
		c-6.092,0-10.083,3.886-10.083,10.714c0,6.302,3.676,10.398,9.978,10.398c1.996,0,4.096-0.42,5.462-1.05L226.023,249.774z"/>
	<path style="fill:#FFFFFF;" d="M230.224,224.671h3.361v23.108h11.029v2.836h-14.39V224.671L230.224,224.671z"/>
	<path style="fill:#FFFFFF;" d="M251.757,224.671v25.944h-3.361v-25.944H251.757L251.757,224.671z"/>
	<path style="fill:#FFFFFF;" d="M270.978,238.43h-10.083v9.348h11.239v2.836h-14.6V224.67h13.97v2.836h-10.609v8.193h10.083V238.43
		L270.978,238.43z"/>
	<path style="fill:#FFFFFF;" d="M276.44,250.614V224.67h3.676l8.298,13.129c1.891,3.046,3.466,5.777,4.622,8.403h0.105
		c-0.315-3.466-0.42-6.617-0.42-10.609v-10.819h3.151v25.839h-3.361l-8.193-13.129c-1.786-2.836-3.571-5.882-4.832-8.613h-0.105
		c0.21,3.256,0.315,6.407,0.315,10.714v11.029L276.44,250.614L276.44,250.614z"/>
	<path style="fill:#FFFFFF;" d="M306.69,227.507h-7.878v-2.836h19.221v2.836h-7.878v23.108h-3.361v-23.108H306.69z"/>
	<path style="fill:#FFFFFF;" d="M334.209,238.43h-10.083v9.348h11.239v2.836h-14.6V224.67h13.97v2.836h-10.609v8.193h10.083V238.43
		L334.209,238.43z"/>
</g>
<g id="Aplicativo" class="item-icon item-1">
	<path style="fill:#32B196;" d="M247.24,66.382v20.692h20.692V66.382H247.24z M256.693,85.394h-7.773V71.529h7.773V85.394z
		 M266.146,85.394h-7.773v-5.987h7.773V85.394L266.146,85.394z M266.146,77.621h-7.773v-5.987h7.773V77.621L266.146,77.621z"/>
	<g>
		<path style="fill:#32B196;" d="M279.276,78.251l-1.05,3.256h-1.365l3.571-10.398h1.576l3.571,10.398h-1.47l-1.155-3.256H279.276z
			 M282.742,77.201l-1.05-2.941c-0.21-0.63-0.42-1.26-0.525-1.891l0,0c-0.105,0.63-0.315,1.26-0.525,1.891l-1.05,3.046
			L282.742,77.201L282.742,77.201z"/>
		<path style="fill:#32B196;" d="M287.048,71.319c0.63-0.105,1.47-0.21,2.521-0.21c1.365,0,2.311,0.315,2.941,0.84
			c0.525,0.525,0.945,1.26,0.945,2.206c0,0.945-0.315,1.681-0.84,2.206c-0.735,0.735-1.891,1.155-3.151,1.155
			c-0.42,0-0.735,0-1.05-0.105v4.096h-1.365V71.319H287.048z M288.414,76.361c0.315,0.105,0.63,0.105,1.155,0.105
			c1.576,0,2.626-0.735,2.626-2.206c0-1.365-0.945-1.996-2.416-1.996c-0.63,0-1.05,0-1.26,0.105L288.414,76.361L288.414,76.361z"/>
		<path style="fill:#32B196;" d="M295.241,71.214h1.365v9.243h4.411v1.05h-5.777V71.214H295.241z"/>
		<path style="fill:#32B196;" d="M303.854,71.214v10.293h-1.365V71.109L303.854,71.214L303.854,71.214z"/>
		<path style="fill:#32B196;" d="M313.412,81.192c-0.525,0.21-1.47,0.525-2.731,0.525c-2.941,0-5.147-1.891-5.147-5.252
			c0-3.256,2.206-5.462,5.462-5.462c1.26,0,2.101,0.315,2.416,0.42l-0.315,1.05c-0.525-0.21-1.26-0.42-2.101-0.42
			c-2.416,0-3.991,1.576-3.991,4.306c0,2.521,1.47,4.201,3.991,4.201c0.84,0,1.681-0.21,2.206-0.42L313.412,81.192z"/>
		<path style="fill:#32B196;" d="M316.773,78.251l-1.05,3.256h-1.365l3.571-10.398h1.576l3.571,10.398h-1.47l-1.155-3.256H316.773z
			 M320.135,77.201l-1.05-2.941c-0.21-0.63-0.42-1.26-0.525-1.891l0,0c-0.105,0.63-0.315,1.26-0.525,1.891l-1.05,3.046
			L320.135,77.201L320.135,77.201z"/>
		<path style="fill:#32B196;" d="M325.281,72.369h-3.151v-1.155h7.668v1.155h-3.151v9.138h-1.365v-9.138H325.281z"/>
		<path style="fill:#32B196;" d="M332.319,71.214v10.293h-1.365V71.109L332.319,71.214L332.319,71.214z"/>
		<path style="fill:#32B196;" d="M336.94,81.507l-3.361-10.398h1.47l1.576,5.147c0.42,1.365,0.84,2.626,1.155,3.886l0,0
			c0.315-1.155,0.735-2.521,1.155-3.886l1.786-5.147h1.47l-3.676,10.398H336.94z"/>
		<path style="fill:#32B196;" d="M352.065,76.256c0,3.571-2.206,5.462-4.832,5.462c-2.731,0-4.622-2.101-4.622-5.252
			c0-3.256,1.996-5.462,4.832-5.462S352.065,73.21,352.065,76.256z M343.978,76.466c0,2.206,1.155,4.201,3.256,4.201
			s3.361-1.996,3.361-4.306c0-2.101-1.05-4.201-3.256-4.201S343.978,74.155,343.978,76.466z"/>
	</g>
</g>
<g id="Internet" class="item-icon item-2">
	<path style="fill:#FFFFFF;" d="M447.332,115.224v23.633h26.679v-23.633H447.332z M470.86,135.706h-20.482v-17.331h20.482V135.706z
		 M463.823,140.432l2.521,3.151H455l2.521-3.151H463.823L463.823,140.432z M477.162,143.583h7.878v-20.482h-7.878V143.583z
		 M482.099,138.016c0,0.525-0.42,0.945-0.945,0.945s-0.945-0.42-0.945-0.945s0.42-0.945,0.945-0.945
		C481.679,137.176,482.099,137.596,482.099,138.016z M481.889,126.252v7.878h-1.576v-7.878
		C480.313,126.252,481.889,126.252,481.889,126.252z"/>
	<g>
		<path style="fill:#FFFFFF;" d="M431.997,156.503v10.398h-1.26v-10.398H431.997z"/>
		<path style="fill:#FFFFFF;" d="M434.413,166.901v-10.398h1.47l3.361,5.252c0.735,1.26,1.365,2.311,1.891,3.361l0,0
			c-0.105-1.365-0.105-2.626-0.105-4.306v-4.306h1.26v10.398h-1.365l-3.256-5.252c-0.735-1.155-1.365-2.311-1.891-3.466l0,0
			c0.105,1.26,0.105,2.521,0.105,4.306v4.411L434.413,166.901L434.413,166.901z"/>
		<path style="fill:#FFFFFF;" d="M446.492,157.658h-3.151v-1.155h7.668v1.155h-3.151v9.243h-1.365v-9.243H446.492z"/>
		<path style="fill:#FFFFFF;" d="M457.521,162.07h-3.991v3.781h4.517v1.155h-5.777v-10.398h5.567v1.155h-4.306v3.256h3.991
			L457.521,162.07L457.521,162.07z"/>
		<path style="fill:#FFFFFF;" d="M459.727,156.713c0.63-0.105,1.681-0.21,2.521-0.21c1.47,0,2.311,0.21,3.046,0.84
			c0.525,0.42,0.84,1.155,0.84,1.996c0,1.365-0.84,2.311-1.996,2.626l0,0c0.84,0.315,1.26,1.05,1.47,2.101
			c0.315,1.47,0.63,2.416,0.84,2.836h-1.365c-0.21-0.315-0.42-1.155-0.735-2.521c-0.315-1.47-0.84-1.996-2.101-1.996h-1.26v4.517
			h-1.365L459.727,156.713L459.727,156.713z M460.987,161.439h1.365c1.47,0,2.311-0.735,2.311-1.996
			c0-1.365-0.945-1.891-2.416-1.891c-0.63,0-1.155,0.105-1.365,0.105L460.987,161.439L460.987,161.439z"/>
		<path style="fill:#FFFFFF;" d="M467.919,166.901v-10.398h1.47l3.361,5.252c0.735,1.26,1.365,2.311,1.891,3.361l0,0
			c-0.105-1.365-0.105-2.626-0.105-4.306v-4.306h1.26v10.398h-1.365l-3.256-5.252c-0.735-1.155-1.365-2.311-1.891-3.466l0,0
			c0.105,1.26,0.105,2.521,0.105,4.306v4.411L467.919,166.901L467.919,166.901z"/>
		<path style="fill:#FFFFFF;" d="M483.465,162.07h-3.991v3.781h4.516v1.155h-5.987v-10.398h5.567v1.155h-4.306v3.256h3.991
			L483.465,162.07L483.465,162.07z"/>
		<path style="fill:#FFFFFF;" d="M487.876,157.658h-3.151v-1.155h7.668v1.155h-3.151v9.243h-1.365v-9.243H487.876z"/>
	</g>
</g>
<g id="Email" class="item-icon item-3">
	<path style="fill:#ED7774;" d="M423.489,215.322v26.574h35.397v-26.574H423.489L423.489,215.322z M433.258,227.086l-6.827,8.403
		v-13.97L433.258,227.086z M427.166,218.263h28.044l-13.97,11.449L427.166,218.263z M435.568,228.872l5.672,4.622l5.672-4.622
		l8.298,10.083h-27.729L435.568,228.872z M449.118,227.086l6.827-5.567v13.76L449.118,227.086z"/>
	<g>
		<path style="fill:#ED7774;" d="M427.691,258.702H423.7v3.781h4.516v1.155h-5.882V253.24h5.567v1.155h-4.306v3.256h3.991
			L427.691,258.702L427.691,258.702z"/>
		<path style="fill:#ED7774;" d="M438.614,259.017c-0.105-1.47-0.21-3.151-0.105-4.517l0,0c-0.315,1.26-0.735,2.521-1.26,3.886
			l-1.786,5.042h-1.05l-1.681-4.937c-0.525-1.47-0.945-2.836-1.155-3.991l0,0c0,1.26-0.105,3.046-0.21,4.622l-0.315,4.411h-1.26
			l0.735-10.398h1.681l1.786,5.042c0.42,1.26,0.735,2.416,1.05,3.466l0,0c0.21-1.05,0.63-2.206,1.05-3.466l1.891-5.042h1.681
			l0.63,10.398h-1.26L438.614,259.017z"/>
		<path style="fill:#ED7774;" d="M443.761,260.278l-1.05,3.256h-1.47l3.571-10.398h1.576l3.571,10.398h-1.47l-1.155-3.256H443.761z
			 M447.122,259.227l-1.05-2.941c-0.21-0.63-0.42-1.26-0.525-1.891l0,0c-0.105,0.63-0.315,1.26-0.525,1.891l-1.05,3.046
			L447.122,259.227L447.122,259.227z"/>
		<path style="fill:#ED7774;" d="M452.794,253.135v10.398h-1.365v-10.398H452.794z"/>
		<path style="fill:#ED7774;" d="M455.105,253.135h1.365v9.243h4.411v1.155h-5.777v-10.398H455.105z"/>
	</g>
</g>
<g id="Celular" class="item-icon item-4">
	<path style="fill:#98AAA9;" d="M479.368,318.467c0.42,0,0.735,0.315,0.735,0.735v28.78c0,0.42-0.315,0.735-0.735,0.735h-16.596
		c-0.42,0-0.735-0.315-0.735-0.735v-28.78c0-0.42,0.315-0.735,0.735-0.735H479.368z M483.149,318.467
		c0-1.681-1.365-3.046-3.046-3.046h-18.171c-1.681,0-3.046,1.365-3.046,3.046v30.25c0,1.681,1.365,3.046,3.046,3.046h18.171
		c1.681,0,3.046-1.365,3.046-3.046V318.467z M468.76,320.043h4.517c0.42,0,0.735,0.315,0.735,0.735s-0.315,0.735-0.735,0.735h-4.517
		c-0.42,0-0.735-0.315-0.735-0.735S468.339,320.043,468.76,320.043z M471.07,347.247c-0.84,0-1.47-0.63-1.47-1.47
		s0.63-1.47,1.47-1.47s1.47,0.63,1.47,1.47S471.806,347.247,471.07,347.247z M478.633,342.73h-15.125v-19.642h15.125V342.73
		L478.633,342.73z"/>
	<g>
		<path style="fill:#98AAA9;" d="M450.694,370.145c-0.525,0.21-1.47,0.525-2.731,0.525c-2.941,0-5.147-1.891-5.147-5.252
			c0-3.256,2.206-5.462,5.462-5.462c1.26,0,2.101,0.315,2.416,0.42l-0.315,1.05c-0.525-0.21-1.26-0.42-2.101-0.42
			c-2.416,0-3.991,1.576-3.991,4.306c0,2.521,1.47,4.201,3.991,4.201c0.84,0,1.681-0.21,2.206-0.42L450.694,370.145z"/>
		<path style="fill:#98AAA9;" d="M457.731,365.628h-3.991v3.781h4.517v1.155h-5.777v-10.398h5.567v1.155h-4.306v3.256h3.991
			L457.731,365.628L457.731,365.628z"/>
		<path style="fill:#98AAA9;" d="M459.937,360.166h1.365v9.243h4.411v1.155h-5.777v-10.398H459.937z"/>
		<path style="fill:#98AAA9;" d="M467.919,360.166v6.092c0,2.311,1.05,3.256,2.416,3.256c1.576,0,2.521-1.05,2.521-3.256v-6.092
			h1.365v5.987c0,3.151-1.681,4.517-3.886,4.517c-2.101,0-3.676-1.26-3.676-4.411v-6.092L467.919,360.166L467.919,360.166z"/>
		<path style="fill:#98AAA9;" d="M476.532,360.166h1.365v9.243h4.411v1.155h-5.777v-10.398H476.532z"/>
		<path style="fill:#98AAA9;" d="M485.46,367.204l-1.05,3.256h-1.365l3.571-10.398h1.576l3.571,10.398h-1.47l-1.155-3.256H485.46z
			 M488.926,366.153l-1.05-2.941c-0.21-0.63-0.42-1.26-0.525-1.891l0,0c-0.105,0.63-0.315,1.26-0.525,1.891l-1.05,3.046
			L488.926,366.153L488.926,366.153z"/>
		<path style="fill:#98AAA9;" d="M493.233,360.271c0.63-0.105,1.681-0.21,2.521-0.21c1.47,0,2.311,0.21,3.046,0.84
			c0.525,0.42,0.84,1.155,0.84,1.996c0,1.365-0.84,2.311-1.996,2.626l0,0c0.84,0.315,1.26,1.05,1.47,2.101
			c0.315,1.47,0.63,2.416,0.84,2.836h-1.365c-0.21-0.315-0.42-1.155-0.735-2.521c-0.315-1.47-0.84-1.996-2.101-1.996h-1.26v4.517
			h-1.365v-10.188h0.105V360.271z M494.493,364.998h1.365c1.47,0,2.311-0.735,2.311-1.996c0-1.365-0.945-1.891-2.416-1.891
			c-0.63,0-1.155,0.105-1.365,0.105L494.493,364.998L494.493,364.998z"/>
	</g>
</g>
<g id="Automatico" class="item-icon item-5">
	<path style="fill:#FFFFFF;" d="M82.44,368.254c-12.079,5.462-30.67-30.775-18.906-36.972L67,329.601l5.672,11.134l-3.361,1.681
		c-3.571,1.891,3.886,16.491,7.563,14.705c0.105-0.105,3.361-1.681,3.361-1.681l5.777,11.134
		C85.801,366.573,82.65,368.254,82.44,368.254z M79.919,346.407l4.727,1.47c0.315-1.26,0.21-2.626-0.42-3.781
		s-1.786-1.996-2.941-2.416L79.919,346.407z M82.86,336.533c2.521,0.735,4.727,2.521,6.092,4.937
		c1.365,2.521,1.576,5.357,0.84,7.878l-2.941-0.84c0.525-1.786,0.42-3.781-0.525-5.567c-0.945-1.786-2.521-2.941-4.306-3.466
		C82.019,339.474,82.86,336.533,82.86,336.533z M84.435,331.281c3.886,1.155,7.247,3.781,9.348,7.563s2.416,8.088,1.26,11.974
		l-3.046-0.945c0.945-3.046,0.63-6.512-0.945-9.558c-1.681-3.046-4.411-5.147-7.458-6.092
		C83.49,334.327,84.435,331.281,84.435,331.281z"/>
	<g>
		<path style="fill:#FFFFFF;" d="M32.863,385.375l-1.05,3.256h-1.365l3.571-10.398h1.576l3.571,10.398h-1.47l-1.155-3.256H32.863z
			 M36.329,384.324l-1.05-2.941c-0.21-0.63-0.42-1.26-0.525-1.891l0,0c-0.105,0.63-0.315,1.26-0.525,1.891l-1.05,3.046
			L36.329,384.324L36.329,384.324z"/>
		<path style="fill:#FFFFFF;" d="M41.476,379.388h-3.151v-1.155h7.668v1.155h-3.151v9.243h-1.365L41.476,379.388L41.476,379.388z"/>
		<path style="fill:#FFFFFF;" d="M52.505,383.799h-4.096v3.781h4.517v1.155h-5.777v-10.398h5.567v1.155H48.41v3.256h3.99v1.05
			L52.505,383.799L52.505,383.799z"/>
		<path style="fill:#FFFFFF;" d="M54.605,388.631v-10.398h1.47l3.361,5.252c0.735,1.26,1.365,2.311,1.891,3.361l0,0
			c-0.105-1.365-0.105-2.626-0.105-4.306v-4.306h1.26v10.398h-1.365l-3.256-5.252c-0.735-1.155-1.365-2.311-1.891-3.466l0,0
			c0.105,1.26,0.105,2.521,0.105,4.306v4.411H54.605L54.605,388.631z"/>
		<path style="fill:#FFFFFF;" d="M64.794,378.442c0.84-0.105,1.786-0.21,2.836-0.21c1.891,0,3.256,0.42,4.201,1.26
			s1.47,1.996,1.47,3.676s-0.525,3.046-1.47,3.991s-2.521,1.47-4.622,1.47c-0.945,0-1.786,0-2.416-0.105v-10.082H64.794z
			 M66.054,387.58c0.315,0.105,0.84,0.105,1.365,0.105c2.836,0,4.411-1.576,4.411-4.411c0-2.416-1.365-3.991-4.201-3.991
			c-0.735,0-1.26,0.105-1.576,0.105L66.054,387.58L66.054,387.58z"/>
		<path style="fill:#FFFFFF;" d="M76.348,378.337v10.398h-1.365v-10.398H76.348z"/>
		<path style="fill:#FFFFFF;" d="M87.376,384.114c-0.105-1.47-0.21-3.151-0.105-4.517l0,0c-0.315,1.26-0.735,2.521-1.26,3.886
			l-1.786,5.042h-1.05l-1.681-4.937c-0.525-1.47-0.945-2.836-1.155-3.991l0,0c0,1.26-0.105,3.046-0.21,4.622l-0.315,4.411h-1.47
			l0.735-10.398h1.681l1.786,5.042c0.42,1.26,0.735,2.416,1.05,3.466l0,0c0.21-1.05,0.63-2.206,1.05-3.466l1.891-5.042h1.786
			l0.63,10.398h-1.26L87.376,384.114z"/>
		<path style="fill:#FFFFFF;" d="M96.409,383.799h-3.991v3.781h4.517v1.155h-5.777v-10.398h5.567v1.155h-4.306v3.256h3.991
			C96.409,382.749,96.409,383.799,96.409,383.799z"/>
		<path style="fill:#FFFFFF;" d="M98.615,388.631v-10.398h1.47l3.361,5.252c0.735,1.26,1.365,2.311,1.891,3.361l0,0
			c-0.105-1.365-0.105-2.626-0.105-4.306v-4.306h1.26v10.398h-1.365l-3.256-5.252c-0.735-1.155-1.365-2.311-1.891-3.466l0,0
			c0.105,1.26,0.105,2.521,0.105,4.306v4.411H98.615L98.615,388.631z"/>
		<path style="fill:#FFFFFF;" d="M110.694,379.388h-3.151v-1.155h7.668v1.155h-3.151v9.243h-1.365L110.694,379.388L110.694,379.388z
			"/>
		<path style="fill:#FFFFFF;" d="M124.769,383.379c0,3.571-2.206,5.462-4.832,5.462c-2.731,0-4.622-2.101-4.622-5.252
			c0-3.256,1.996-5.462,4.832-5.462C122.983,378.127,124.769,380.333,124.769,383.379z M116.681,383.484
			c0,2.206,1.155,4.201,3.256,4.201s3.361-1.996,3.361-4.306c0-2.101-1.05-4.201-3.256-4.201S116.681,381.278,116.681,383.484z"/>
		<path style="fill:#FFFFFF;" d="M36.749,403.861l-1.05,3.256h-1.365l3.571-10.398h1.576l3.571,10.398h-1.47l-1.155-3.256H36.749z
			 M40.11,402.811l-1.05-2.941c-0.21-0.63-0.42-1.26-0.525-1.891l0,0c-0.105,0.63-0.315,1.26-0.525,1.891l-1.05,3.046L40.11,402.811
			L40.11,402.811z"/>
		<path style="fill:#FFFFFF;" d="M45.362,396.719v6.092c0,2.311,1.05,3.256,2.416,3.256c1.576,0,2.521-1.05,2.521-3.256v-6.092
			h1.365v5.987c0,3.151-1.681,4.516-3.886,4.516c-2.101,0-3.676-1.26-3.676-4.411v-6.092L45.362,396.719L45.362,396.719z"/>
		<path style="fill:#FFFFFF;" d="M55.971,397.874H52.82v-1.155h7.668v1.155h-3.151v9.243h-1.365
			C55.971,407.117,55.971,397.874,55.971,397.874z"/>
		<path style="fill:#FFFFFF;" d="M70.045,401.76c0,3.571-2.206,5.462-4.832,5.462c-2.731,0-4.622-2.101-4.622-5.252
			c0-3.256,1.996-5.462,4.832-5.462C68.259,396.508,70.045,398.714,70.045,401.76z M61.958,401.97c0,2.206,1.155,4.201,3.256,4.201
			s3.361-1.996,3.361-4.306c0-2.101-1.05-4.201-3.256-4.201C63.113,397.664,61.958,399.659,61.958,401.97z"/>
		<path style="fill:#FFFFFF;" d="M80.549,402.495c-0.105-1.47-0.21-3.151-0.105-4.517l0,0c-0.315,1.26-0.735,2.521-1.26,3.886
			l-1.786,5.042h-1.05l-1.681-4.937c-0.525-1.47-0.945-2.836-1.155-3.991l0,0c0,1.26-0.105,3.046-0.21,4.622l-0.525,4.516h-1.26
			l0.735-10.398h1.681l1.786,5.042c0.42,1.26,0.735,2.416,1.05,3.466l0,0c0.21-1.05,0.63-2.206,1.05-3.466l1.891-5.042h1.681
			l0.63,10.398h-1.26L80.549,402.495z"/>
		<path style="fill:#FFFFFF;" d="M85.696,403.861l-1.05,3.256H83.28l3.571-10.398h1.47l3.571,10.398h-1.47l-1.155-3.256H85.696z
			 M89.057,402.811l-1.05-2.941c-0.21-0.63-0.42-1.26-0.525-1.891l0,0c-0.105,0.63-0.315,1.26-0.525,1.891l-1.05,3.046
			L89.057,402.811L89.057,402.811z M89.792,394.408l-1.996,1.786h-1.155l1.47-1.786H89.792z"/>
		<path style="fill:#FFFFFF;" d="M94.204,397.874h-3.151v-1.155h7.668v1.155H95.57v9.243h-1.365
			C94.204,407.117,94.204,397.874,94.204,397.874z"/>
		<path style="fill:#FFFFFF;" d="M101.136,396.719v10.398h-1.26v-10.398H101.136z"/>
		<path style="fill:#FFFFFF;" d="M110.694,406.697c-0.525,0.21-1.47,0.525-2.731,0.525c-2.941,0-5.147-1.891-5.147-5.252
			c0-3.256,2.206-5.462,5.357-5.462c1.26,0,2.101,0.315,2.416,0.42l-0.315,1.05c-0.525-0.21-1.26-0.42-2.101-0.42
			c-2.416,0-3.991,1.576-3.991,4.306c0,2.521,1.47,4.201,3.991,4.201c0.84,0,1.681-0.21,2.206-0.42L110.694,406.697z"/>
		<path style="fill:#FFFFFF;" d="M120.988,401.76c0,3.571-2.206,5.462-4.832,5.462c-2.731,0-4.622-2.101-4.622-5.252
			c0-3.256,1.996-5.462,4.832-5.462C119.097,396.508,120.988,398.714,120.988,401.76z M112.9,401.97
			c0,2.206,1.155,4.201,3.256,4.201s3.361-1.996,3.361-4.306c0-2.101-1.05-4.201-3.256-4.201
			C114.055,397.664,112.9,399.659,112.9,401.97z"/>
	</g>
</g>
<g id="Lojas" class="item-icon item-6">
	<g id="Layer_2">
		<g>
			<path style="fill:#ED7774;" d="M81.704,275.193h1.365v9.243h4.411v1.155h-5.777L81.704,275.193L81.704,275.193z"/>
			<path style="fill:#ED7774;" d="M97.25,280.234c0,3.571-2.206,5.462-4.832,5.462c-2.731,0-4.622-2.101-4.622-5.252
				c0-3.256,1.996-5.462,4.832-5.462C95.359,275.088,97.25,277.188,97.25,280.234z M89.162,280.444c0,2.206,1.155,4.201,3.256,4.201
				s3.361-1.996,3.361-4.306c0-2.101-1.05-4.201-3.256-4.201S89.162,278.134,89.162,280.444z"/>
			<path style="fill:#ED7774;" d="M101.031,275.193h1.365v6.932c0,2.731-1.365,3.571-3.151,3.571c-0.525,0-1.05-0.105-1.47-0.21
				l0.21-1.05c0.315,0.105,0.63,0.21,1.155,0.21c1.155,0,1.891-0.525,1.891-2.521L101.031,275.193L101.031,275.193z"/>
			<path style="fill:#ED7774;" d="M106.283,282.335l-1.05,3.256h-1.365l3.571-10.398h1.576l3.571,10.398h-1.47l-1.155-3.256H106.283
				z M109.749,281.285l-1.05-2.941c-0.21-0.63-0.42-1.26-0.525-1.891l0,0c-0.105,0.63-0.315,1.26-0.525,1.891l-1.05,3.046
				L109.749,281.285L109.749,281.285z"/>
			<path style="fill:#ED7774;" d="M113.845,283.911c0.63,0.42,1.47,0.63,2.416,0.63c1.365,0,2.206-0.735,2.206-1.786
				c0-0.945-0.525-1.47-1.996-2.101c-1.681-0.63-2.731-1.47-2.731-2.941c0-1.576,1.365-2.836,3.361-2.836
				c1.05,0,1.786,0.21,2.311,0.525l-0.42,1.05c-0.315-0.21-1.05-0.525-1.996-0.525c-1.365,0-1.996,0.84-1.996,1.576
				c0,0.945,0.63,1.47,2.101,1.996c1.786,0.63,2.626,1.47,2.626,3.046s-1.155,2.941-3.676,2.941c-1.05,0-2.101-0.315-2.626-0.63
				L113.845,283.911z"/>
		</g>
	</g>
	<path style="fill:#ED7774;" d="M110.064,251.665c-2.731,0-4.937,2.206-4.937,4.937c0,2.731,2.206,4.937,4.937,4.937
		c2.731,0,4.937-2.206,4.937-4.937C115.106,253.87,112.795,251.665,110.064,251.665z M112.9,257.232h-2.206v2.206h-1.05v-2.206
		h-2.206v-1.05h2.206v-2.206h1.05v2.206h2.206V257.232z M105.652,262.273c-1.26,1.155-2.521,2.416-3.781,3.781
		c-7.037-7.037-13.234-12.289-13.234-17.331c0-7.458,9.768-9.138,13.234-3.256c3.466-5.882,13.234-4.201,13.234,3.256
		c0,0.84-0.21,1.681-0.42,2.521c-1.26-0.945-2.836-1.576-4.517-1.576c-3.886,0-7.142,3.256-7.142,7.142
		C102.922,258.912,104.077,260.908,105.652,262.273z"/>
</g>
<g id="Atendimento" class="item-icon item-7">
	<g>
		<path style="fill:#98AAA9;" d="M74.772,169.212c-0.315-1.05-0.525-2.206-0.525-3.361c0-5.042,3.361-9.243,8.088-10.714v1.365
			l6.197-3.151l-6.197-3.151v2.206c-5.987,1.576-10.504,6.932-10.504,13.339c0,0.945,0.105,1.786,0.21,2.626l0.21-1.365
			L74.772,169.212z"/>
		<path style="fill:#98AAA9;" d="M94.834,167.741l-0.42,6.932l5.777-3.781l-1.891-1.155c0.42-1.26,0.525-2.521,0.525-3.991
			c0-5.882-3.886-10.924-9.138-12.814l0.945,0.735l-2.941,1.26c4.937,1.155,8.613,5.567,8.613,10.819
			c0,0.945-0.21,1.786-0.315,2.626L94.834,167.741z"/>
		<path style="fill:#98AAA9;" d="M93.573,173.308c-2.101,2.206-4.937,3.571-8.193,3.571c-2.941,0-5.672-1.26-7.668-3.151l1.26-0.63
			l-5.777-3.781l0.42,6.932l1.891-1.155c2.416,2.626,5.987,4.306,9.873,4.306c3.361,0,6.407-1.26,8.823-3.256l-0.945,0.315
			L93.573,173.308z"/>
		<path style="fill:#98AAA9;" d="M84.435,158.078v1.786c-2.101,0.42-3.151,1.681-3.151,3.361c0,1.786,1.365,2.836,3.361,3.466
			c1.365,0.525,1.996,0.945,1.996,1.681c0,0.735-0.735,1.155-1.786,1.155c-1.26,0-2.311-0.42-3.151-0.84l-0.525,2.206
			c0.735,0.42,1.996,0.735,3.151,0.84v1.786h1.891v-1.996c2.101-0.42,3.361-1.786,3.361-3.466s-0.945-2.731-3.151-3.571
			c-1.681-0.525-2.311-0.945-2.311-1.681c0-0.525,0.42-1.05,1.681-1.05c1.365,0,2.206,0.42,2.731,0.63l0.525-2.101
			c-0.63-0.315-1.47-0.525-2.731-0.63v-1.681L84.435,158.078z"/>
	</g>
	<g>
		<path style="fill:#98AAA9;" d="M40.531,195.471l-1.05,3.256h-1.365l3.571-10.398h1.576l3.571,10.398h-1.576l-1.155-3.256H40.531z
			 M43.892,194.42l-1.05-2.941c-0.21-0.63-0.42-1.26-0.525-1.891l0,0c-0.105,0.63-0.315,1.26-0.525,1.891l-1.05,3.046L43.892,194.42
			L43.892,194.42z"/>
		<path style="fill:#98AAA9;" d="M49.038,189.484h-3.151v-1.155h7.668v1.155h-3.151v9.243h-1.365
			C49.038,198.727,49.038,189.484,49.038,189.484z"/>
		<path style="fill:#98AAA9;" d="M60.067,193.895h-3.991v3.781h4.517v1.155H54.71v-10.398h5.567v1.155h-4.306v3.256h3.991
			C60.067,192.74,60.067,193.895,60.067,193.895z"/>
		<path style="fill:#98AAA9;" d="M62.273,198.727v-10.398h1.47l3.361,5.252c0.735,1.26,1.365,2.311,1.891,3.361l0,0
			c-0.105-1.365-0.105-2.626-0.105-4.306v-4.306h1.26v10.398h-1.365l-3.256-5.252c-0.735-1.155-1.365-2.311-1.891-3.466l0,0
			c0.105,1.26,0.105,2.521,0.105,4.306v4.411H62.273L62.273,198.727z"/>
		<path style="fill:#98AAA9;" d="M72.356,188.538c0.84-0.105,1.786-0.21,2.836-0.21c1.891,0,3.256,0.42,4.201,1.26
			s1.47,1.996,1.47,3.676s-0.525,3.046-1.47,3.991s-2.521,1.47-4.622,1.47c-0.945,0-1.786,0-2.416-0.105L72.356,188.538
			L72.356,188.538z M73.722,197.677c0.315,0.105,0.84,0.105,1.365,0.105c2.836,0,4.411-1.576,4.411-4.411
			c0-2.416-1.365-3.991-4.201-3.991c-0.735,0-1.26,0.105-1.576,0.105L73.722,197.677L73.722,197.677z"/>
		<path style="fill:#98AAA9;" d="M83.91,188.328v10.398h-1.365v-10.398H83.91z"/>
		<path style="fill:#98AAA9;" d="M94.939,194.21c-0.105-1.47-0.21-3.151-0.105-4.517l0,0c-0.315,1.26-0.735,2.521-1.26,3.886
			l-1.786,5.042h-1.05l-1.681-4.937c-0.525-1.47-0.945-2.836-1.155-3.991l0,0c0,1.26-0.105,3.046-0.21,4.622l-0.315,4.411h-1.26
			l0.735-10.398h1.681l1.786,5.042c0.42,1.26,0.735,2.416,1.05,3.466l0,0c0.21-1.05,0.63-2.206,1.05-3.466l1.891-5.042h1.681
			l0.63,10.398h-1.26L94.939,194.21z"/>
		<path style="fill:#98AAA9;" d="M103.972,193.895h-3.991v3.781h4.517v1.155H98.72v-10.398h5.567v1.155h-4.306v3.256h3.991
			C103.972,192.74,103.972,193.895,103.972,193.895z"/>
		<path style="fill:#98AAA9;" d="M106.178,198.727v-10.398h1.47l3.361,5.252c0.735,1.26,1.365,2.311,1.891,3.361l0,0
			c-0.105-1.365-0.105-2.626-0.105-4.306v-4.306h1.26v10.398h-1.365l-3.256-5.252c-0.735-1.155-1.365-2.311-1.891-3.466l0,0
			c0.105,1.26,0.105,2.521,0.105,4.306v4.411H106.178L106.178,198.727z"/>
		<path style="fill:#98AAA9;" d="M118.257,189.484h-3.151v-1.155h7.668v1.155h-3.151v9.243h-1.365L118.257,189.484L118.257,189.484z
			"/>
		<path style="fill:#98AAA9;" d="M132.331,193.37c0,3.571-2.206,5.462-4.832,5.462c-2.731,0-4.622-2.101-4.622-5.252
			c0-3.256,1.996-5.462,4.832-5.462C130.546,188.223,132.331,190.324,132.331,193.37z M124.349,193.58
			c0,2.206,1.155,4.201,3.256,4.201s3.361-1.996,3.361-4.306c0-2.101-1.05-4.201-3.256-4.201
			C125.399,189.274,124.349,191.269,124.349,193.58z"/>
		<path style="fill:#98AAA9;" d="M48.723,213.852l-1.05,3.256h-1.365l3.571-10.398h1.576l3.571,10.398h-1.47l-1.155-3.256H48.723z
			 M52.084,212.802l-1.05-2.941c-0.21-0.63-0.42-1.26-0.525-1.891l0,0c-0.105,0.63-0.315,1.26-0.525,1.891l-1.05,3.046
			L52.084,212.802L52.084,212.802z"/>
		<path style="fill:#98AAA9;" d="M65.109,211.856c0,3.571-2.206,5.462-4.832,5.462c-2.731,0-4.622-2.101-4.622-5.252
			c0-3.256,1.996-5.462,4.832-5.462C63.218,206.605,65.109,208.81,65.109,211.856z M57.021,212.066c0,2.206,1.155,4.201,3.256,4.201
			s3.361-1.996,3.361-4.306c0-2.101-1.05-4.201-3.256-4.201S57.021,209.756,57.021,212.066z"/>
		<path style="fill:#98AAA9;" d="M77.293,216.793c-0.525,0.21-1.47,0.525-2.731,0.525c-2.941,0-5.147-1.891-5.147-5.252
			c0-3.256,2.206-5.462,5.357-5.462c1.26,0,2.101,0.315,2.416,0.42l-0.315,1.05c-0.525-0.21-1.26-0.42-2.101-0.42
			c-2.416,0-3.991,1.576-3.991,4.306c0,2.521,1.47,4.201,3.991,4.201c0.84,0,1.681-0.21,2.206-0.42L77.293,216.793z"/>
		<path style="fill:#98AAA9;" d="M78.973,206.815h1.365v9.243h4.411v1.155h-5.777C78.973,217.108,78.973,206.815,78.973,206.815z"/>
		<path style="fill:#98AAA9;" d="M87.586,206.815v10.398h-1.365v-10.398H87.586z"/>
		<path style="fill:#98AAA9;" d="M95.254,212.276h-3.991v3.781h4.411v1.155h-5.777v-10.398h5.567v1.155h-4.306v3.256h3.991
			L95.254,212.276L95.254,212.276z"/>
		<path style="fill:#98AAA9;" d="M97.46,217.108V206.71h1.47l3.361,5.252c0.735,1.26,1.365,2.311,1.891,3.361l0,0
			c-0.105-1.365-0.105-2.626-0.105-4.306v-4.306h1.26v10.398h-1.365l-3.256-5.252c-0.735-1.155-1.365-2.311-1.891-3.466l0,0
			c0.105,1.26,0.105,2.521,0.105,4.306v4.411L97.46,217.108L97.46,217.108z"/>
		<path style="fill:#98AAA9;" d="M109.539,207.97h-3.151v-1.155h7.668v1.155h-3.151v9.243h-1.365L109.539,207.97L109.539,207.97z"/>
		<path style="fill:#98AAA9;" d="M120.567,212.276h-3.991v3.781h4.517v1.155h-5.777v-10.398h5.567v1.155h-4.306v3.256h3.991
			C120.567,211.226,120.567,212.276,120.567,212.276z"/>
	</g>
</g>
</svg>
