<?xml version="1.0" encoding="iso-8859-1"?>
<!-- Generator: Adobe Illustrator 18.0.0, SVG Export Plug-In . SVG Version: 6.00 Build 0)  -->
<!DOCTYPE svg PUBLIC "-//W3C//DTD SVG 1.1//EN" "http://www.w3.org/Graphics/SVG/1.1/DTD/svg11.dtd">
<svg version="1.1" xmlns="http://www.w3.org/2000/svg" xmlns:xlink="http://www.w3.org/1999/xlink" x="0px" y="0px"
	 viewBox="0 0 623.167 464.147" style="enable-background:new 0 0 623.167 464.147;" xml:space="preserve">
<g id="customer_x5F_centric">
	<path style="fill:#FFFFFF;" d="M400.62,129.408l0.876,0.876l34.513-34.513h105.507v-2.477H434.669v0.413l-0.05-0.05l-33.661,33.661
		c-24.392-19.781-53.752-31.819-85.038-34.842v1.868c31.927,3.156,61.097,15.827,84.632,35.131L400.62,129.408z"/>
	<path style="fill:#FFFFFF;" d="M199.805,374.651l-0.876-0.876l-34.513,34.513H58.91v2.477h106.846v-0.413l0.05,0.05l33.661-33.661
		c24.392,19.781,53.752,31.819,85.038,34.842v-1.869c-31.927-3.156-61.097-15.827-84.632-35.131L199.805,374.651z"/>
	<path style="fill:#ED7774;" d="M507.238,237.561v-2.477h-47.604c-3.261-31.235-15.509-60.508-35.494-84.768l-1.374,1.375
		c19.304,23.535,31.975,52.705,35.131,84.632h0.02v1.239H507.238z"/>
	<path style="fill:#32B196;" d="M283.266,92.608c-31.235,3.261-60.507,15.508-84.768,35.494l1.375,1.375
		c23.535-19.304,52.705-31.975,84.632-35.131v-0.021h1.238V45.003h-2.477V92.608z"/>
	<path style="fill:#98AAA9;" d="M175.502,151.284c-19.781,24.392-31.819,53.752-34.842,85.038h1.868
		c3.156-31.927,15.827-61.097,35.131-84.632l-0.068-0.068l0.876-0.876l-34.875-34.875l-0.455,0.455v-0.818H36.291v2.477h105.912
		L175.502,151.284z"/>
	<path style="fill:#ED7774;" d="M93.186,266.498v2.477h47.604c3.261,31.235,15.508,60.508,35.494,84.768l1.375-1.375
		c-19.304-23.535-31.975-52.705-35.131-84.632h-0.02v-1.239H93.186z"/>
	<path style="fill:#98AAA9;" d="M458.222,386.074l-33.299-33.299c19.781-24.392,31.819-53.752,34.842-85.038h-1.868
		c-3.156,31.927-15.827,61.097-35.131,84.632l0.068,0.068l-0.876,0.876l34.875,34.875l0.05-0.05v0.413h106.845v-2.477H458.222z"/>
	<g>
		<path style="fill:#98AAA9;" d="M21.458,151.233c-0.471-1.526-0.707-3.173-0.707-4.817c0-7.166,4.817-13.274,11.514-15.273v2
			l8.812-4.466l-8.812-4.464v3.173c-8.577,2.231-15.038,9.867-15.038,19.031c0,1.293,0.118,2.586,0.353,3.759l0.351-1.88
			L21.458,151.233z M21.458,151.233"/>
		<path style="fill:#98AAA9;" d="M50.24,149.235l-0.589,9.87l8.226-5.403l-2.702-1.647c0.586-1.762,0.822-3.642,0.822-5.639
			c0-8.459-5.521-15.624-13.04-18.326l1.409,1.058l-4.229,1.762c7.048,1.644,12.336,7.988,12.336,15.507
			c0,1.293-0.236,2.584-0.471,3.759L50.24,149.235z M50.24,149.235"/>
		<path style="fill:#98AAA9;" d="M48.361,157.107c-2.937,3.173-7.05,5.171-11.75,5.171c-4.228,0-8.105-1.765-10.925-4.466
			l1.762-0.939l-8.223-5.403l0.586,9.867l2.702-1.644c3.526,3.759,8.577,6.108,14.098,6.108c4.817,0,9.166-1.762,12.572-4.699
			l-1.408,0.471L48.361,157.107z M48.361,157.107"/>
		<path style="fill:#98AAA9;" d="M35.321,135.373v2.584c-2.938,0.589-4.582,2.469-4.582,4.817c0,2.586,1.998,3.995,4.817,4.935
			c1.998,0.707,2.82,1.294,2.82,2.351c0,1.055-1.06,1.644-2.587,1.644c-1.761,0-3.288-0.589-4.463-1.176l-0.822,3.173
			c1.057,0.586,2.82,1.057,4.581,1.173v2.586h2.702v-2.82c3.056-0.586,4.817-2.584,4.817-4.935c0-2.466-1.293-3.877-4.464-5.05
			c-2.351-0.822-3.29-1.411-3.29-2.351c0-0.704,0.589-1.526,2.351-1.526c1.998,0,3.17,0.589,3.877,0.94l0.822-3.056
			c-0.94-0.468-2.116-0.822-3.877-0.939v-2.348L35.321,135.373z M35.321,135.373"/>
	</g>
	<path style="fill:#32B196;" d="M316.072,410.643c31.235-3.261,60.507-15.509,84.768-35.494l-1.375-1.375
		c-23.535,19.304-52.705,31.975-84.632,35.131v0.021h-1.238v49.321h2.477V410.643z"/>
	<path style="fill:#98AAA9;" d="M194.87,164.365l-16.403-13.618c-34.36,33.176-35.939,85.575-35.939,85.575l21.492,2.083
		C166.702,210.39,177.845,184.849,194.87,164.365z"/>
	<path style="fill:#ED7774;" d="M164.09,265.522l-21.562,2.215c3.284,52.165,35.131,84.632,35.131,84.632l16.911-13.944
		C177.87,318.193,166.886,293.068,164.09,265.522z"/>
	<path style="fill:#FFFFFF;" d="M212.943,356.816l-14.014,16.959c43.352,36.869,85.575,35.939,85.575,35.939l2.168-22.257
		C258.797,384.774,233.369,373.714,212.943,356.816z"/>
	<path style="fill:#32B196;" d="M311.738,387.582l1.856,21.345c0,0,53.758-2.282,85.87-35.152l-13.327-16.358
		C365.494,374.255,339.832,385.17,311.738,387.582z"/>
	<path style="fill:#98AAA9;" d="M435.736,265.47c-2.813,27.824-13.986,53.177-30.961,73.519l17.183,14.324
		c0,0,34.925-36.411,35.939-85.576L435.736,265.47z"/>
	<path style="fill:#ED7774;" d="M435.899,239.513l22.018-1.952c0,0-0.296-47.753-35.151-85.87l-16.925,13.76
		C422.584,186.02,433.452,211.558,435.899,239.513z"/>
	<path style="fill:#FFFFFF;" d="M387.568,146.912l13.927-16.628c0,0-28.233-31.166-85.575-35.939l-2.179,21.396
		C341.703,118.554,367.169,129.809,387.568,146.912z"/>
	<path style="fill:#32B196;" d="M287.66,115.601l-1.917-21.276c0,0-47.583-0.07-85.87,35.152l13.512,16.492
		C233.977,129.077,259.598,118.097,287.66,115.601z"/>
	<g>
		<path style="fill:#FFFFFF;" d="M237.985,266.527c-1.759,0.88-5.278,1.76-9.786,1.76c-10.446,0-18.308-6.598-18.308-18.747
			c0-11.601,7.862-19.462,19.352-19.462c4.618,0,7.532,0.99,8.796,1.65l-1.154,3.903c-1.814-0.88-4.398-1.54-7.477-1.54
			c-8.687,0-14.459,5.553-14.459,15.284c0,9.071,5.223,14.898,14.239,14.898c2.914,0,5.882-0.604,7.807-1.539L237.985,266.527z"/>
		<path style="fill:#FFFFFF;" d="M243.981,230.683h4.783v33.041h15.833v4.014h-20.617V230.683z"/>
		<path style="fill:#FFFFFF;" d="M274.716,230.683v37.055h-4.783v-37.055H274.716z"/>
		<path style="fill:#FFFFFF;" d="M302.261,250.364h-14.404v13.359h16.053v4.014h-20.836v-37.055h20.011v4.014h-15.228v11.71h14.404
			V250.364z"/>
		<path style="fill:#FFFFFF;" d="M310.126,267.737v-37.055h5.223l11.875,18.747c2.749,4.344,4.893,8.247,6.652,12.04l0.109-0.055
			c-0.439-4.948-0.55-9.456-0.55-15.229v-15.504h4.509v37.055h-4.838l-11.766-18.803c-2.584-4.123-5.058-8.356-6.927-12.369
			l-0.165,0.055c0.274,4.673,0.385,9.126,0.385,15.283v15.834H310.126z"/>
		<path style="fill:#FFFFFF;" d="M353.343,234.751h-11.271v-4.068h27.434v4.068h-11.325v32.986h-4.838V234.751z"/>
		<path style="fill:#FFFFFF;" d="M392.82,250.364h-14.404v13.359h16.054v4.014h-20.836v-37.055h20.012v4.014h-15.229v11.71h14.404
			V250.364z"/>
	</g>
	<path style="fill:#32B196;" d="M259.161,0v38.016h50.688V0H259.161z M273.149,16.746l-9.764,12.064V8.834
		C263.385,8.834,273.149,16.746,273.149,16.746z M264.403,4.224h40.202l-20.1,16.29C284.505,20.514,264.403,4.224,264.403,4.224z
		 M276.428,19.405l8.076,6.545l8.089-6.556l11.852,14.397h-39.661L276.428,19.405z M295.876,16.735l9.749-7.901v19.743
		C305.625,28.577,295.876,16.735,295.876,16.735z"/>
	<g>
		<path style="fill:#32B196;" d="M335.308,19.988c-0.124-2.336-0.273-5.146-0.249-7.233h-0.074
			c-0.571,1.964-1.268,4.052-2.113,6.363l-2.958,8.128h-1.64l-2.71-7.979c-0.795-2.361-1.467-4.523-1.938-6.512h-0.05
			c-0.05,2.088-0.174,4.897-0.323,7.407l-0.447,7.184h-2.063l1.169-16.753h2.759l2.858,8.104c0.696,2.063,1.268,3.902,1.69,5.642
			h0.074c0.423-1.69,1.02-3.529,1.765-5.642l2.983-8.104h2.759l1.044,16.753h-2.112L335.308,19.988z"/>
		<path style="fill:#32B196;" d="M343.636,22.076l-1.74,5.27h-2.237l5.692-16.753h2.61l5.717,16.753h-2.312l-1.79-5.27H343.636z
			 M349.129,20.385l-1.641-4.822c-0.373-1.093-0.621-2.088-0.87-3.057h-0.05c-0.248,0.994-0.521,2.013-0.845,3.033l-1.641,4.847
			H349.129z"/>
		<path style="fill:#32B196;" d="M358.303,10.592v16.753h-2.163V10.592H358.303z"/>
		<path style="fill:#32B196;" d="M362.081,10.592h2.163v14.939h7.158v1.814h-9.321V10.592z"/>
	</g>
	<path style="fill:#FFFFFF;" d="M548.942,79.558v29.574h29.574V79.558H548.942z M562.496,106.668h-11.09V86.952h11.09V106.668z
		 M576.051,106.668h-11.09v-8.626h11.09V106.668z M576.051,95.578h-11.09v-8.626h11.09V95.578z"/>
	<g>
		<path style="fill:#FFFFFF;" d="M545.541,128.82l-1.74,5.27h-2.237l5.692-16.753h2.61l5.717,16.753h-2.312l-1.79-5.27H545.541z
			 M551.034,127.129l-1.641-4.822c-0.373-1.093-0.621-2.088-0.87-3.057h-0.05c-0.248,0.994-0.521,2.013-0.845,3.033l-1.641,4.847
			H551.034z"/>
		<path style="fill:#FFFFFF;" d="M558.044,117.535c1.044-0.174,2.411-0.323,4.151-0.323c2.138,0,3.704,0.497,4.698,1.392
			c0.92,0.795,1.466,2.014,1.466,3.505c0,1.516-0.447,2.709-1.292,3.58c-1.144,1.218-3.008,1.839-5.12,1.839
			c-0.646,0-1.243-0.025-1.74-0.149v6.711h-2.163V117.535z M560.208,125.613c0.472,0.125,1.068,0.174,1.789,0.174
			c2.61,0,4.201-1.268,4.201-3.579c0-2.212-1.565-3.281-3.952-3.281c-0.944,0-1.665,0.075-2.038,0.174V125.613z"/>
		<path style="fill:#FFFFFF;" d="M571.269,117.535c1.044-0.174,2.411-0.323,4.151-0.323c2.138,0,3.704,0.497,4.698,1.392
			c0.92,0.795,1.466,2.014,1.466,3.505c0,1.516-0.447,2.709-1.292,3.58c-1.144,1.218-3.008,1.839-5.12,1.839
			c-0.646,0-1.243-0.025-1.74-0.149v6.711h-2.163V117.535z M573.432,125.613c0.472,0.125,1.068,0.174,1.789,0.174
			c2.61,0,4.201-1.268,4.201-3.579c0-2.212-1.565-3.281-3.952-3.281c-0.944,0-1.665,0.075-2.038,0.174V125.613z"/>
	</g>
	<path style="fill:#ED7774;" d="M520.911,216.322v33.75h38.25v-33.75H520.911z M554.661,245.572h-29.25v-24.75h29.25V245.572z
		 M544.536,252.322l3.598,4.5h-16.195l3.598-4.5H544.536z M563.661,256.822h11.25v-29.25h-11.25V256.822z M570.636,248.947
		c0,0.747-0.605,1.35-1.35,1.35c-0.745,0-1.35-0.605-1.35-1.35s0.605-1.35,1.35-1.35C570.03,247.597,570.636,248.2,570.636,248.947z
		 M570.411,232.072v11.25h-2.25v-11.25H570.411z"/>
	<g>
		<path style="fill:#ED7774;" d="M527.534,286.572l-4.25-16.753h2.286l1.989,8.476c0.497,2.088,0.944,4.176,1.242,5.792h0.05
			c0.273-1.666,0.796-3.654,1.367-5.816l2.237-8.451h2.262l2.038,8.501c0.473,1.988,0.92,3.977,1.169,5.741h0.05
			c0.348-1.839,0.82-3.703,1.342-5.791l2.212-8.451h2.213l-4.748,16.753h-2.262l-2.113-8.725c-0.521-2.138-0.869-3.778-1.094-5.469
			h-0.049c-0.299,1.666-0.672,3.307-1.293,5.469l-2.386,8.725H527.534z"/>
		<path style="fill:#ED7774;" d="M554.505,278.718h-6.513v6.04h7.258v1.814h-9.421v-16.753h9.048v1.814h-6.885v5.294h6.513V278.718z
			"/>
		<path style="fill:#ED7774;" d="M558.059,270.043c0.945-0.199,2.437-0.349,3.952-0.349c2.163,0,3.555,0.373,4.599,1.219
			c0.87,0.646,1.393,1.64,1.393,2.957c0,1.616-1.069,3.033-2.834,3.68v0.049c1.591,0.398,3.455,1.716,3.455,4.201
			c0,1.441-0.571,2.535-1.417,3.355c-1.168,1.069-3.058,1.566-5.791,1.566c-1.492,0-2.635-0.1-3.356-0.199V270.043z
			 M560.222,276.903h1.964c2.286,0,3.629-1.193,3.629-2.809c0-1.964-1.491-2.734-3.679-2.734c-0.994,0-1.566,0.074-1.914,0.148
			V276.903z M560.222,284.932c0.423,0.074,1.044,0.1,1.814,0.1c2.237,0,4.3-0.82,4.3-3.256c0-2.287-1.963-3.231-4.325-3.231h-1.789
			V284.932z"/>
	</g>
	<path style="fill:#98AAA9;" d="M600.422,364.902c0.597,0,1.082,0.485,1.082,1.082v41.133c0,0.598-0.485,1.082-1.082,1.082h-23.814
		c-0.597,0-1.082-0.485-1.082-1.082v-41.133c0-0.598,0.485-1.082,1.082-1.082H600.422z M605.834,364.902c0-2.39-1.94-4.33-4.33-4.33
		h-25.978c-2.39,0-4.33,1.94-4.33,4.33V408.2c0,2.39,1.94,4.33,4.33,4.33h25.978c2.39,0,4.33-1.94,4.33-4.33V364.902z
		 M585.268,367.067h6.495c0.598,0,1.082,0.485,1.082,1.085c0,0.595-0.485,1.08-1.082,1.08h-6.495c-0.595,0-1.082-0.485-1.082-1.08
		C584.186,367.552,584.673,367.067,585.268,367.067z M588.515,406.035c-1.197,0-2.165-0.97-2.165-2.165
		c0-1.195,0.968-2.165,2.165-2.165c1.195,0,2.163,0.97,2.163,2.165C590.678,405.065,589.711,406.035,588.515,406.035z
		 M599.34,399.54h-21.649v-28.143h21.649V399.54z"/>
	<g>
		<path style="fill:#98AAA9;" d="M550.831,425.018c1.044-0.174,2.411-0.323,4.151-0.323c2.138,0,3.704,0.497,4.698,1.393
			c0.92,0.795,1.466,2.013,1.466,3.505c0,1.516-0.447,2.709-1.292,3.579c-1.144,1.218-3.008,1.839-5.12,1.839
			c-0.646,0-1.243-0.024-1.74-0.148v6.711h-2.163V425.018z M552.994,433.096c0.472,0.125,1.068,0.175,1.789,0.175
			c2.61,0,4.201-1.268,4.201-3.58c0-2.212-1.565-3.28-3.952-3.28c-0.944,0-1.665,0.074-2.038,0.174V433.096z"/>
		<path style="fill:#98AAA9;" d="M566.218,424.819v7.009h8.104v-7.009h2.187v16.753h-2.187v-7.854h-8.104v7.854h-2.163v-16.753
			H566.218z"/>
		<path style="fill:#98AAA9;" d="M594.581,433.022c0,5.767-3.504,8.824-7.779,8.824c-4.425,0-7.532-3.431-7.532-8.501
			c0-5.319,3.307-8.799,7.78-8.799C591.624,424.546,594.581,428.051,594.581,433.022z M581.581,433.295
			c0,3.579,1.939,6.786,5.345,6.786c3.43,0,5.369-3.157,5.369-6.96c0-3.331-1.74-6.811-5.345-6.811
			C583.371,426.311,581.581,429.616,581.581,433.295z"/>
		<path style="fill:#98AAA9;" d="M597.39,441.572v-16.753h2.361l5.369,8.476c1.243,1.964,2.213,3.729,3.008,5.443l0.05-0.024
			c-0.199-2.237-0.248-4.275-0.248-6.886v-7.009h2.038v16.753h-2.188l-5.319-8.501c-1.168-1.864-2.287-3.778-3.132-5.593
			l-0.075,0.025c0.125,2.112,0.175,4.126,0.175,6.91v7.158H597.39z"/>
		<path style="fill:#98AAA9;" d="M622.422,433.718h-6.513v6.04h7.258v1.814h-9.421v-16.753h9.048v1.814h-6.885v5.294h6.513V433.718z
			"/>
	</g>
	<path style="fill:#FFFFFF;" d="M32.454,436.156c-17.213,7.867-43.93-44.066-27.106-52.839l4.923-2.428l8.159,15.928l-4.865,2.397
		c-5.115,2.743,5.537,23.552,10.769,21.014c0.213-0.096,4.806-2.353,4.822-2.362l8.227,15.876
		C37.365,433.752,32.736,436.027,32.454,436.156z M28.86,404.826l6.816,2.033c0.521-1.745,0.374-3.689-0.561-5.414
		c-0.932-1.727-2.481-2.914-4.224-3.432C30.891,398.013,28.86,404.826,28.86,404.826z M33.075,390.672
		c3.624,1.079,6.837,3.542,8.776,7.129c1.942,3.589,2.243,7.624,1.164,11.245l-4.194-1.25c0.759-2.549,0.544-5.388-0.822-7.914
		c-1.362-2.526-3.624-4.257-6.175-5.014C31.823,394.868,33.075,390.672,33.075,390.672z M35.295,383.225
		c5.526,1.647,10.428,5.402,13.386,10.879c2.965,5.474,3.425,11.631,1.778,17.159l-4.299-1.28c1.318-4.428,0.949-9.36-1.421-13.743
		c-2.374-4.386-6.299-7.395-10.727-8.713C34.012,387.527,35.295,383.225,35.295,383.225z"/>
	<g>
		<path style="fill:#FFFFFF;" d="M12.05,447.394v16.753H9.887v-16.753H12.05z"/>
		<path style="fill:#FFFFFF;" d="M15.828,447.617c1.094-0.224,2.66-0.349,4.151-0.349c2.312,0,3.803,0.423,4.847,1.367
			c0.846,0.746,1.317,1.89,1.317,3.182c0,2.213-1.392,3.679-3.156,4.275v0.075c1.292,0.447,2.063,1.64,2.461,3.38
			c0.547,2.337,0.944,3.952,1.292,4.599h-2.236c-0.273-0.473-0.646-1.914-1.119-4.002c-0.497-2.312-1.392-3.182-3.355-3.256h-2.038
			v7.258h-2.163V447.617z M17.991,455.248h2.212c2.312,0,3.778-1.268,3.778-3.182c0-2.163-1.565-3.107-3.853-3.132
			c-1.044,0-1.79,0.099-2.138,0.198V455.248z"/>
		<path style="fill:#FFFFFF;" d="M33.279,464.147l-5.469-16.753h2.336l2.61,8.252c0.721,2.262,1.342,4.3,1.79,6.264h0.05
			c0.472-1.938,1.168-4.052,1.913-6.239l2.834-8.276h2.312l-5.99,16.753H33.279z"/>
	</g>
	<g>
		<path style="fill:#98AAA9;" d="M17.117,175.383c1.044-0.174,2.411-0.323,4.151-0.323c2.138,0,3.704,0.497,4.698,1.392
			c0.919,0.795,1.466,2.014,1.466,3.505c0,1.516-0.447,2.709-1.292,3.58c-1.144,1.218-3.008,1.839-5.121,1.839
			c-0.646,0-1.243-0.025-1.74-0.149v6.711h-2.163V175.383z M19.279,183.462c0.472,0.125,1.069,0.174,1.79,0.174
			c2.61,0,4.201-1.268,4.201-3.579c0-2.212-1.566-3.281-3.952-3.281c-0.944,0-1.666,0.075-2.038,0.174V183.462z"/>
		<path style="fill:#98AAA9;" d="M40.533,185.823c0,4.449-3.082,6.388-5.99,6.388c-3.256,0-5.767-2.386-5.767-6.189
			c0-4.026,2.635-6.388,5.966-6.388C38.196,179.634,40.533,182.145,40.533,185.823z M30.988,185.948
			c0,2.635,1.516,4.623,3.654,4.623c2.088,0,3.654-1.963,3.654-4.673c0-2.039-1.02-4.624-3.604-4.624S30.988,183.661,30.988,185.948
			z"/>
		<path style="fill:#98AAA9;" d="M43.069,189.303c0.969,0.597,2.386,1.094,3.877,1.094c2.212,0,3.505-1.168,3.505-2.858
			c0-1.566-0.895-2.461-3.157-3.331c-2.734-0.969-4.424-2.386-4.424-4.748c0-2.61,2.163-4.549,5.418-4.549
			c1.715,0,2.958,0.398,3.704,0.82l-0.596,1.765c-0.547-0.298-1.666-0.795-3.182-0.795c-2.287,0-3.157,1.367-3.157,2.511
			c0,1.566,1.019,2.336,3.331,3.231c2.833,1.094,4.275,2.461,4.275,4.921c0,2.585-1.914,4.822-5.866,4.822
			c-1.616,0-3.38-0.472-4.275-1.069L43.069,189.303z"/>
	</g>
	<path style="fill:#ED7774;" d="M72.084,269.325c-3.904,0-7.076,3.168-7.076,7.076c0,3.907,3.171,7.076,7.076,7.076
		s7.076-3.168,7.076-7.076C79.159,272.493,75.988,269.325,72.084,269.325z M76.015,277.187H72.87v3.145h-1.572v-3.145h-3.145v-1.572
		h3.145v-3.145h1.572v3.145h3.145V277.187z M65.752,284.409c-1.742,1.708-3.577,3.489-5.461,5.357
		c-10.11-10.033-18.868-17.527-18.868-24.856c0-10.643,13.919-13.123,18.868-4.629c4.914-8.431,18.868-6.051,18.868,4.629
		c0,1.173-0.245,2.352-0.665,3.543c-1.755-1.418-3.984-2.272-6.411-2.272c-5.635,0-10.22,4.585-10.22,10.22
		C61.863,279.645,63.389,282.535,65.752,284.409z"/>
	<g>
		<path style="fill:#ED7774;" d="M26.387,309.585c-0.6,0.3-1.799,0.6-3.335,0.6c-3.56,0-6.239-2.249-6.239-6.39
			c0-3.954,2.679-6.633,6.596-6.633c1.574,0,2.567,0.337,2.998,0.562l-0.394,1.331c-0.619-0.301-1.499-0.525-2.548-0.525
			c-2.961,0-4.928,1.893-4.928,5.209c0,3.092,1.78,5.078,4.853,5.078c0.993,0,2.005-0.206,2.661-0.524L26.387,309.585z"/>
		<path style="fill:#ED7774;" d="M30.059,297.368v7.476c0,2.83,1.255,4.029,2.942,4.029c1.874,0,3.073-1.237,3.073-4.029v-7.476
			h1.648v7.363c0,3.879-2.042,5.472-4.778,5.472c-2.586,0-4.535-1.48-4.535-5.396v-7.438H30.059z"/>
		<path style="fill:#ED7774;" d="M40.326,308.011c0.731,0.45,1.799,0.824,2.923,0.824c1.667,0,2.642-0.88,2.642-2.154
			c0-1.181-0.674-1.855-2.379-2.511c-2.061-0.731-3.335-1.799-3.335-3.579c0-1.968,1.63-3.429,4.085-3.429
			c1.293,0,2.229,0.3,2.792,0.618l-0.45,1.33c-0.413-0.225-1.255-0.6-2.398-0.6c-1.724,0-2.38,1.03-2.38,1.893
			c0,1.181,0.768,1.762,2.511,2.436c2.136,0.825,3.223,1.855,3.223,3.71c0,1.949-1.443,3.636-4.422,3.636
			c-1.218,0-2.548-0.356-3.223-0.806L40.326,308.011z"/>
		<path style="fill:#ED7774;" d="M52.187,298.754h-3.841v-1.386h9.35v1.386h-3.86v11.243h-1.648V298.754z"/>
		<path style="fill:#ED7774;" d="M69.387,303.551c0,4.348-2.642,6.652-5.865,6.652c-3.335,0-5.677-2.586-5.677-6.408
			c0-4.01,2.492-6.633,5.865-6.633C67.158,297.162,69.387,299.804,69.387,303.551z M59.587,303.758c0,2.698,1.462,5.115,4.029,5.115
			c2.586,0,4.047-2.38,4.047-5.247c0-2.511-1.312-5.134-4.029-5.134C60.936,298.492,59.587,300.984,59.587,303.758z"/>
		<path style="fill:#ED7774;" d="M82.148,304.451c-0.094-1.762-0.207-3.879-0.188-5.453h-0.056c-0.431,1.48-0.956,3.055-1.593,4.797
			l-2.23,6.127h-1.237l-2.042-6.015c-0.6-1.78-1.105-3.41-1.461-4.909h-0.038c-0.037,1.574-0.131,3.691-0.243,5.584l-0.337,5.415
			h-1.555l0.88-12.629h2.08l2.155,6.108c0.525,1.555,0.956,2.941,1.274,4.253h0.056c0.318-1.273,0.768-2.66,1.33-4.253l2.249-6.108
			h2.08l0.787,12.629h-1.593L82.148,304.451z"/>
		<path style="fill:#ED7774;" d="M93.108,304.076h-4.909v4.553h5.472v1.368h-7.102v-12.629h6.82v1.367h-5.19v3.991h4.909V304.076z"
			/>
		<path style="fill:#ED7774;" d="M95.787,297.536c0.825-0.168,2.005-0.262,3.129-0.262c1.743,0,2.867,0.318,3.654,1.03
			c0.637,0.562,0.993,1.424,0.993,2.398c0,1.668-1.049,2.773-2.38,3.223v0.057c0.975,0.337,1.556,1.236,1.855,2.548
			c0.412,1.762,0.712,2.979,0.974,3.467h-1.687c-0.206-0.356-0.487-1.442-0.843-3.017c-0.375-1.743-1.049-2.398-2.529-2.455h-1.537
			v5.472h-1.63V297.536z M97.417,303.289h1.667c1.743,0,2.849-0.956,2.849-2.398c0-1.63-1.181-2.343-2.905-2.361
			c-0.787,0-1.349,0.075-1.611,0.15V303.289z"/>
		<path style="fill:#ED7774;" d="M49.686,332.069c-0.6,0.3-1.799,0.6-3.335,0.6c-3.56,0-6.24-2.249-6.24-6.39
			c0-3.954,2.68-6.633,6.596-6.633c1.574,0,2.567,0.337,2.998,0.562l-0.393,1.331c-0.619-0.301-1.499-0.525-2.548-0.525
			c-2.961,0-4.928,1.893-4.928,5.209c0,3.092,1.78,5.078,4.853,5.078c0.993,0,2.005-0.206,2.661-0.524L49.686,332.069z"/>
		<path style="fill:#ED7774;" d="M53.845,328.509l-1.312,3.973h-1.687l4.291-12.629h1.968l4.31,12.629h-1.743l-1.349-3.973H53.845z
			 M57.986,327.234l-1.236-3.635c-0.281-0.824-0.469-1.574-0.656-2.305h-0.037c-0.188,0.75-0.394,1.518-0.637,2.286l-1.237,3.653
			H57.986z"/>
		<path style="fill:#ED7774;" d="M63.27,320.021c0.824-0.168,2.005-0.262,3.129-0.262c1.743,0,2.867,0.318,3.654,1.03
			c0.637,0.562,0.993,1.424,0.993,2.398c0,1.668-1.049,2.773-2.379,3.223v0.057c0.974,0.337,1.555,1.236,1.855,2.548
			c0.412,1.762,0.712,2.979,0.974,3.467h-1.687c-0.206-0.356-0.487-1.442-0.843-3.017c-0.375-1.743-1.05-2.398-2.53-2.455H64.9
			v5.472h-1.63V320.021z M64.9,325.774h1.668c1.742,0,2.848-0.956,2.848-2.398c0-1.63-1.18-2.343-2.904-2.361
			c-0.787,0-1.349,0.075-1.611,0.15V325.774z"/>
		<path style="fill:#ED7774;" d="M79.889,326.561H74.98v4.553h5.472v1.368H73.35v-12.629h6.82v1.367h-5.19v3.991h4.909V326.561z"/>
	</g>
</g>
<g id="Layer_1">
</g>
</svg>
