<?xml version="1.0" encoding="iso-8859-1"?>
<!-- Generator: Adobe Illustrator 18.0.0, SVG Export Plug-In . SVG Version: 6.00 Build 0)  -->
<!DOCTYPE svg PUBLIC "-//W3C//DTD SVG 1.1//EN" "http://www.w3.org/Graphics/SVG/1.1/DTD/svg11.dtd">
<svg version="1.1" xmlns="http://www.w3.org/2000/svg" xmlns:xlink="http://www.w3.org/1999/xlink" x="0px" y="0px"
	 viewBox="0 0 46.292 24.219" style="enable-background:new 0 0 46.292 24.219;" xml:space="preserve">
<g id="DNA">
	<path style="fill-rule:evenodd;clip-rule:evenodd;fill:#006DB3;" d="M5.531,18.41l1.28-12.678c0.042-0.409,0.407-0.743,0.817-0.745
		c0.409-0.002,0.709,0.329,0.667,0.74L6.954,19.01c0.503,0.165,1.02,0.283,1.551,0.348l1.48-14.662
		c0.041-0.41,0.407-0.744,0.816-0.745c0.41-0.002,0.709,0.33,0.667,0.74L9.986,19.387c0.488-0.039,0.987-0.128,1.497-0.272
		c0.04-0.011,0.081-0.023,0.12-0.035l1.444-14.308c0.041-0.409,0.407-0.744,0.817-0.745c0.41-0.002,0.709,0.329,0.667,0.739
		L13.15,18.463c0.582-0.288,1.145-0.629,1.688-1.002l1.129-11.189c0.041-0.409,0.407-0.744,0.817-0.745
		c0.41-0.002,0.709,0.329,0.667,0.739l-1.005,9.965c0.037-0.03,0.074-0.062,0.11-0.092c0.559-0.473,1.102-0.967,1.635-1.474
		l0.596-5.912c0.042-0.409,0.407-0.743,0.816-0.745c0.409-0.001,0.709,0.329,0.667,0.74l-0.433,4.291
		c0.546-0.553,1.086-1.111,1.626-1.661c1.601-1.631,3.246-3.28,5.038-4.7c1.652-1.309,3.486-2.457,5.486-3.009
		c3.405-0.941,6.38,0.109,8.966,1.948l0.142,0.101c-0.176,0.657-0.985,0.959-1.78,0.627c-1.976-0.826-3.951-1.501-6.26-0.841
		c-1.874,0.537-3.582,1.731-5.084,3.01c-1.745,1.486-3.344,3.185-4.949,4.821c-1.583,1.616-3.216,3.244-4.996,4.643
		c-1.649,1.296-3.479,2.429-5.47,2.973c-3.537,0.966-6.597-0.207-9.222-2.177L0,16.31C2.71,17.322,3.436,17.662,5.531,18.41"/>
	<path style="fill-rule:evenodd;clip-rule:evenodd;fill:#93D0D7;" d="M22.986,7.785c4.288-5.245,8.658-9.496,14.523-7.1
		c1.307,0.7,2.651,1.731,4.037,3.146C34.717-1.131,28.309,2.382,22.986,7.785"/>
	<path style="fill-rule:evenodd;clip-rule:evenodd;fill:#56C5D0;" d="M40.778,18.32L39.395,5.653
		c-0.044-0.41-0.413-0.74-0.822-0.739c-0.41,0.002-0.706,0.336-0.661,0.744l1.449,13.272c-0.501,0.169-1.017,0.293-1.549,0.361
		L36.212,4.642c-0.044-0.41-0.413-0.741-0.823-0.739c-0.41,0.002-0.706,0.336-0.661,0.745l1.604,14.684
		c-0.488-0.035-0.988-0.12-1.499-0.259c-0.041-0.011-0.081-0.023-0.121-0.035L33.151,4.744c-0.045-0.41-0.413-0.741-0.823-0.739
		c-0.41,0.002-0.706,0.336-0.661,0.746l1.494,13.685c-0.585-0.284-1.15-0.62-1.696-0.988L30.244,6.269
		c-0.044-0.41-0.413-0.741-0.823-0.739c-0.409,0.001-0.706,0.335-0.661,0.744l1.087,9.957c-0.037-0.031-0.074-0.062-0.111-0.092
		c-0.562-0.468-1.109-0.957-1.647-1.46l-0.645-5.906c-0.045-0.41-0.413-0.74-0.822-0.739c-0.41,0.001-0.707,0.335-0.661,0.744
		l0.468,4.288c-0.55-0.549-1.095-1.102-1.639-1.648C23.175,9.8,21.517,8.164,19.713,6.76c-1.662-1.295-3.506-2.428-5.51-2.964
		c-3.412-0.913-6.379,0.161-8.95,2.021L5.112,5.919C5.292,6.575,6.103,6.87,6.896,6.531c1.968-0.84,3.938-1.533,6.252-0.891
		c1.879,0.521,3.597,1.701,5.109,2.967c1.757,1.472,3.371,3.158,4.988,4.782c1.597,1.603,3.243,3.217,5.034,4.601
		c1.659,1.283,3.498,2.401,5.494,2.929c3.544,0.937,6.595-0.262,9.203-2.253l3.316-2.491C43.591,17.208,42.868,17.555,40.778,18.32"
		/>
	<path style="fill-rule:evenodd;clip-rule:evenodd;fill:#00AEEF;" d="M23.35,16.426c-5.07,5.247-10.238,9.502-17.167,7.11
		c-1.544-0.698-3.131-1.728-4.768-3.143C9.481,25.351,17.056,21.833,23.35,16.426"/>
</g>
<g id="Layer_1">
</g>
</svg>
