<?xml version="1.0" encoding="iso-8859-1"?>
<!-- Generator: Adobe Illustrator 18.0.0, SVG Export Plug-In . SVG Version: 6.00 Build 0)  -->
<!DOCTYPE svg PUBLIC "-//W3C//DTD SVG 1.1//EN" "http://www.w3.org/Graphics/SVG/1.1/DTD/svg11.dtd">
<svg version="1.1" xmlns="http://www.w3.org/2000/svg" xmlns:xlink="http://www.w3.org/1999/xlink" x="0px" y="0px"
	 viewBox="0 0 502.413 471.437" style="enable-background:new 0 0 502.413 471.437;" xml:space="preserve">
<g id="icone-comunicar">
	<g>
		<defs>
			<filter id="Adobe_OpacityMaskFilter" filterUnits="userSpaceOnUse" x="0" y="398.771" width="502.413" height="72.667">
				<feColorMatrix  type="matrix" values="1 0 0 0 0  0 1 0 0 0  0 0 1 0 0  0 0 0 1 0"/>
			</filter>
		</defs>
		<mask maskUnits="userSpaceOnUse" x="0" y="398.771" width="502.413" height="72.667" id="SVGID_1_">
			<g style="filter:url(#Adobe_OpacityMaskFilter);">
				
					<radialGradient id="SVGID_2_" cx="858.3562" cy="982.8785" r="152.0381" gradientTransform="matrix(-1.6526 0.0029 0.0124 -0.2389 1657.0605 667.8011)" gradientUnits="userSpaceOnUse">
					<stop  offset="0" style="stop-color:#FFFFFF"/>
					<stop  offset="0.1213" style="stop-color:#D1D1D1"/>
					<stop  offset="0.3023" style="stop-color:#939392"/>
					<stop  offset="0.4757" style="stop-color:#5F5F5E"/>
					<stop  offset="0.6368" style="stop-color:#363635"/>
					<stop  offset="0.7828" style="stop-color:#191918"/>
					<stop  offset="0.9086" style="stop-color:#070706"/>
					<stop  offset="1" style="stop-color:#010100"/>
				</radialGradient>
				<path style="fill:url(#SVGID_2_);" d="M-0.47,435.942c1.184-20.044,114.534-36.54,253.299-36.793
					c138.699-0.241,250.149,15.838,249.095,35.908c-0.522,20.049-114.047,36.501-252.979,36.753
					C109.979,472.042-1.791,456.003-0.47,435.942z"/>
			</g>
		</mask>
		<path style="mask:url(#SVGID_1_);" d="M0.012,435.566c1.184-20.044,114.534-36.54,253.299-36.793
			c138.699-0.241,250.149,15.838,249.095,35.908c-0.522,20.049-114.047,36.501-252.979,36.754
			C110.46,471.665-1.31,455.626,0.012,435.566z"/>
		<circle style="fill:#EAEAEA;" cx="251.206" cy="226.255" r="226.254"/>
		<radialGradient id="SVGID_3_" cx="375.5211" cy="87.0208" r="324.1078" gradientUnits="userSpaceOnUse">
			<stop  offset="0" style="stop-color:#0085C7"/>
			<stop  offset="0.6862" style="stop-color:#005A89"/>
		</radialGradient>
		<path style="fill:url(#SVGID_3_);" d="M460.056,226.255c0,115.34-93.51,208.849-208.849,208.849
			c-115.341,0-208.851-93.51-208.851-208.849c0-30.581,6.565-59.622,18.375-85.778C93.449,67.926,166.448,17.404,251.206,17.404
			c84.757,0,157.756,50.522,190.475,123.073C453.492,166.632,460.056,195.673,460.056,226.255z"/>
		<path style="opacity:0.1;fill:#FFFFFF;" d="M441.682,140.477c-32.719,72.551-105.718,123.072-190.475,123.072
			c-84.758,0-157.757-50.521-190.476-123.072C93.449,67.926,166.448,17.404,251.206,17.404
			C335.963,17.404,408.962,67.926,441.682,140.477z"/>
	</g>
	<path style="fill:#FFFFFF;" d="M342.202,121.974H160.21c-12.512,0-22.749,10.237-22.749,22.749v204.741l45.498-45.498h159.243
		c12.512,0,22.749-10.237,22.749-22.749V144.723C364.951,132.211,354.714,121.974,342.202,121.974z"/>
</g>
<g id="Layer_1">
</g>
</svg>
