<?xml version="1.0" encoding="iso-8859-1"?>
<!-- Generator: Adobe Illustrator 18.0.0, SVG Export Plug-In . SVG Version: 6.00 Build 0)  -->
<!DOCTYPE svg PUBLIC "-//W3C//DTD SVG 1.1//EN" "http://www.w3.org/Graphics/SVG/1.1/DTD/svg11.dtd">
<svg version="1.1" xmlns="http://www.w3.org/2000/svg" xmlns:xlink="http://www.w3.org/1999/xlink" x="0px" y="0px"
	 viewBox="0 0 196.474 207.365" style="enable-background:new 0 0 196.474 207.365;" xml:space="preserve">
<g id="ideia_x5F_page36">
	<g>
		<g>
			<path style="fill:#2EB1E8;" d="M97.233,207.365c-8.878,0-16.898-4.192-20.432-10.681l-2.013-3.695h44.882l-2.008,3.694
				C114.135,203.172,106.116,207.365,97.233,207.365z M84.246,197.989c3.223,2.74,7.905,4.376,12.988,4.376
				c5.085,0,9.767-1.636,12.988-4.376H84.246z M119.347,192.054h-44.23c-2.727,0-4.945-2.217-4.945-4.942v-4.612
				c0-2.73,2.218-4.952,4.945-4.952h44.232c2.728,0,4.947,2.222,4.947,4.952v4.612C124.296,189.837,122.076,192.054,119.347,192.054
				z M119.347,187.054v2.5V187.054L119.347,187.054L119.347,187.054z M119.296,182.499l-44.18,0.048l0.055,4.564l44.125-0.058
				V182.499z M121.643,176.493H71.368c-5.683,0-10.614-3.635-11.787-8.664l-1.823-5.462c-0.495-2.263-1.851-3.559-3.728-5.352
				c-0.806-0.77-1.64-1.567-2.489-2.523c-0.99-1.114-24.244-27.569-24.244-51.09c0-18.631,7.281-36.028,20.501-48.987
				c13.146-12.888,30.703-19.984,49.435-19.984c18.732,0,36.289,7.097,49.435,19.984c13.22,12.959,20.501,30.357,20.501,48.987
				c0,23.859-23.925,50.555-24.944,51.679c-0.911,1.005-1.812,1.831-2.683,2.63c-1.904,1.746-3.28,3.008-3.841,5.209l-0.105,0.321
				l-1.934,4.774C132.307,172.939,127.285,176.493,121.643,176.493z M62.611,161.158l1.823,5.463
				c0.605,2.777,3.586,4.872,6.934,4.872h50.275c3.402,0,6.507-2.103,7.221-4.892l0.105-0.318l1.932-4.77
				c0.955-3.538,3.144-5.545,5.263-7.487c0.787-0.722,1.602-1.468,2.356-2.301c0.235-0.261,23.649-26.397,23.649-48.322
				c0-35.872-28.523-63.972-64.935-63.972s-64.936,28.1-64.936,63.972c0,21.641,22.753,47.511,22.982,47.77
				c0.713,0.804,1.471,1.527,2.205,2.229C59.59,155.412,61.766,157.491,62.611,161.158z"/>
		</g>
		<g>
			<path style="fill:#2EB1E8;" d="M125.117,93.851c-6.928,10.095-19.345,25.672-30.632,35.853
				c6.63-11.941,3.088-21.922-5.058-30.025c6.202-9.414,19.827-17.936,46.817-22.219c14.979,66.506-25.308,65.491-38.498,63.486
				C107.47,128.889,120.019,107.049,125.117,93.851z"/>
			<path style="fill:#2EB1E8;" d="M69.909,111.197c3.716,8.956,5.559,18.363,5.903,27.989c-10.893-1.816-32.78-10.288-12.714-49.7
				c44.413,19.133,26.602,41.858,20.106,48.369C80.267,128.263,75.802,119.344,69.909,111.197z"/>
		</g>
		<g style="opacity:0.45;">
			<path style="fill:#FFFFFF;" d="M99.907,26.211c2.247,0,4.064-1.821,4.064-4.062V4.063c0-2.246-1.818-4.062-4.064-4.062
				c-2.242,0-4.062,1.818-4.062,4.062v18.086C95.844,24.394,97.664,26.211,99.907,26.211z"/>
			<path style="fill:#FFFFFF;" d="M142.863,39.917c0.712,0.507,1.534,0.75,2.347,0.75c1.271,0,2.529-0.596,3.319-1.709
				l10.473-14.741c1.3-1.83,0.866-4.369-0.962-5.668c-1.827-1.299-4.364-0.869-5.667,0.958l-10.472,14.742
				C140.601,36.079,141.034,38.617,142.863,39.917z"/>
			<path style="fill:#FFFFFF;" d="M175.113,78.465l17.078-5.949c2.119-0.74,3.241-3.057,2.499-5.177
				c-0.74-2.117-3.059-3.236-5.174-2.5l-17.077,5.951c-2.121,0.74-3.238,3.058-2.5,5.179c0.582,1.674,2.155,2.726,3.837,2.726
				C174.218,78.692,174.669,78.62,175.113,78.465z"/>
			<path style="fill:#FFFFFF;" d="M193.542,123.305l-17.372-5.04c-2.161-0.62-4.411,0.616-5.036,2.77
				c-0.623,2.158,0.618,4.412,2.771,5.034l17.371,5.043c0.376,0.107,0.761,0.16,1.134,0.16c1.762,0,3.385-1.156,3.903-2.932
				C196.935,126.189,195.693,123.933,193.542,123.305z"/>
			<path style="fill:#FFFFFF;" d="M47.941,38.958c0.792,1.113,2.042,1.709,3.319,1.709c0.811,0,1.633-0.243,2.345-0.75
				c1.832-1.3,2.261-3.838,0.96-5.668L44.088,19.507c-1.297-1.827-3.834-2.257-5.663-0.958c-1.829,1.299-2.261,3.838-0.961,5.668
				L47.941,38.958z"/>
			<path style="fill:#FFFFFF;" d="M24.031,70.79L6.956,64.839c-2.125-0.736-4.437,0.383-5.176,2.5
				c-0.738,2.12,0.382,4.437,2.499,5.177l17.075,5.949c0.445,0.155,0.892,0.228,1.341,0.228c1.679,0,3.252-1.05,3.836-2.729
				C27.27,73.848,26.155,71.53,24.031,70.79z"/>
			<path style="fill:#FFFFFF;" d="M20.3,118.265l-17.367,5.04c-2.157,0.626-3.399,2.884-2.77,5.035
				c0.514,1.775,2.14,2.932,3.9,2.932c0.373,0,0.758-0.054,1.134-0.16l17.37-5.043c2.155-0.622,3.396-2.879,2.768-5.034
				C24.708,118.88,22.461,117.64,20.3,118.265z"/>
		</g>
	</g>
</g>
<g id="Layer_1">
</g>
</svg>
