<?xml version="1.0" encoding="iso-8859-1"?>
<!-- Generator: Adobe Illustrator 18.0.0, SVG Export Plug-In . SVG Version: 6.00 Build 0)  -->
<!DOCTYPE svg PUBLIC "-//W3C//DTD SVG 1.1//EN" "http://www.w3.org/Graphics/SVG/1.1/DTD/svg11.dtd">
<svg version="1.1" id="Layer_1" xmlns="http://www.w3.org/2000/svg" xmlns:xlink="http://www.w3.org/1999/xlink" x="0px" y="0px"
	 viewBox="-16.5 0 547.953 494.191" style="enable-background:new -16.5 0 547.953 494.191;" xml:space="preserve">
<g id="infinity">
	<g>
		
			<linearGradient id="SVGID_1_" gradientUnits="userSpaceOnUse" x1="305.647" y1="326.4209" x2="544.449" y2="326.4209" gradientTransform="matrix(0.8433 0 0 -0.8433 0 520.0323)">
			<stop  offset="0" style="stop-color:#1A45FF"/>
			<stop  offset="1" style="stop-color:#1A4582"/>
		</linearGradient>
		<path style="fill:url(#SVGID_1_);" d="M363.524,340.387c52.731,0,95.63-42.901,95.63-95.63c0-52.731-42.899-95.632-95.63-95.632
			c0,0-31.371-1.065-54.201,15.065c-20.093,12.707-51.56,51.818-51.56,51.818c0.953,0,46.051-13.756,78.105-25.653
			c15.82-5.872,31.448-5.131,31.92-5.097c30.908,2.193,55.385,28.042,55.385,59.499c0,32.889-26.758,59.649-59.648,59.649
			L363.524,340.387L363.524,340.387z"/>
		
			<linearGradient id="SVGID_2_" gradientUnits="userSpaceOnUse" x1="180.196" y1="326.4355" x2="544.6854" y2="326.4355" gradientTransform="matrix(0.8433 0 0 -0.8433 0 520.0323)">
			<stop  offset="0" style="stop-color:#1A4582"/>
			<stop  offset="1" style="stop-color:#1A45FF"/>
		</linearGradient>
		<path style="fill:url(#SVGID_2_);" d="M363.252,340.287c0.026,0,0.05,0,0.073,0c0,0,31.099,2.915,62.245-21.836
			c43.555-41.622,37.368-88.551,23.455-117.239c-13.158-27.133-35.42-37.895-35.42-37.895c-0.413-0.002,51.049,31.78,25.698,94.413
			c-9.953,21.371-35.184,33.906-48.555,40.091c-14.965,6.921-30.821,6.375-31.285,6.345c-9.701-0.629-24.109-3.446-30.896-9.595
			l-0.892-0.809l-0.994-0.684c-10.839-7.453-31.067-29.333-52.79-57.102l-5.402-6.908h-0.442
			c-14.242-18.063-33.093-41.234-58.102-61.765c-20.48-17.655-53.764-18.223-57.908-18.223c-0.024,0-0.049,0-0.071,0l0.029,18.003
			l-0.021,17.979c9.322,0.039,27,2.716,34.75,9.735l0.892,0.809l0.993,0.682c11.436,7.862,33.571,32.099,56.392,61.745l5.402,7.018
			h0.611c14.822,18.515,37.399,44.972,54.331,57.014C325.821,339.72,359.102,340.287,363.252,340.287z"/>
		
			<linearGradient id="SVGID_3_" gradientUnits="userSpaceOnUse" x1="66.836" y1="326.4634" x2="436.577" y2="326.4634" gradientTransform="matrix(0.8433 0 0 -0.8433 0 520.0323)">
			<stop  offset="0" style="stop-color:#1A4582"/>
			<stop  offset="1" style="stop-color:#1A45FF"/>
		</linearGradient>
		<path style="fill:url(#SVGID_3_);" d="M151.996,340.387v-35.982c-32.889,0-59.648-26.759-59.648-59.648
			c0-32.89,26.758-59.649,59.648-59.649c0,0,9.077-0.08,21.94,3.276c2.807,0.732,15.029,5.418,33.674,26.496
			c23.625,22.833,54.748,56.486,83.029,73.634c44.809,27.171,77.543,15.256,77.543,15.256s-14.667,1.529-30.809-3.821
			c-13.196-6.743-30.553-22.582-49.057-46.126c-23.282-31.683-70.392-82.952-86.166-92.13
			c-24.792-14.549-50.987-12.564-51.218-12.562c-52.242,0.573-94.567,43.25-94.567,95.626
			C56.365,297.487,99.265,340.387,151.996,340.387z"/>
		
			<linearGradient id="SVGID_4_" gradientUnits="userSpaceOnUse" x1="66.2046" y1="326.4641" x2="430.816" y2="326.4641" gradientTransform="matrix(0.8433 0 0 -0.8433 0 520.0323)">
			<stop  offset="0" style="stop-color:#1A45FF"/>
			<stop  offset="1" style="stop-color:#1A4582"/>
		</linearGradient>
		<path style="fill:url(#SVGID_4_);" d="M152.039,340.287c0.552,0,1.623-0.01,3.112-0.069c9.681-0.385,37.047-2.851,54.795-18.154
			c18.475-13.143,63.944-68.673,63.944-68.673c21.724-27.769,41.951-49.651,52.79-57.102l0.994-0.684l0.892-0.809
			c8.129-7.363,26.795-9.732,34.633-9.732c0.021,0,0.042,0,0.064,0l0.06-35.984c-0.023,0-0.047,0-0.073,0
			c-4.143,0-37.429,0.566-57.906,18.221c-16.933,12.044-39.51,38.499-54.332,57.013l-6.012,7.018
			c-22.82,29.648-44.956,53.883-56.392,61.745l-0.993,0.682l-0.893,0.81c-8.13,7.363-26.795,9.734-34.633,9.734
			c-0.022,0-0.043,0-0.065,0c0,0-43.603-2.119-63.987-27.725c-41.06-65.903,1.168-103.896,1.168-103.896
			c0.007,0-20.136,15.571-28.744,44.351c-8.86,29.623-9.383,73.074,39.024,108.563C122.717,342.084,152.029,340.287,152.039,340.287
			z"/>
		<g>
			
				<linearGradient id="SVGID_5_" gradientUnits="userSpaceOnUse" x1="535.567" y1="355.3369" x2="318.9272" y2="347.0682" gradientTransform="matrix(0.8433 0 0 -0.8433 0 520.0323)">
				<stop  offset="0" style="stop-color:#1A4582"/>
				<stop  offset="1" style="stop-color:#1A45FF"/>
			</linearGradient>
			<path style="fill:url(#SVGID_5_);" d="M367.787,185.258c0.972,0.069,1.939,0.162,2.898,0.277v-36.143
				c-2.364-0.175-4.752-0.266-7.161-0.266c0,0-31.371-1.438-54.201,14.693c-26.816,20.054-51.56,52.191-51.56,52.191
				c-11.674,13.215-43.113,56.057-62.745,71.964c-23.702,23.411-61.1,13.632-61.1,13.632c0.379,0,36.901,19.226,95.3-20.549
				c46.787-30.596,87.318-83.525,106.65-90.7C351.688,184.484,367.315,185.224,367.787,185.258z"/>
		</g>
	</g>
	<g id="ItemPrecisar">
		<circle style="fill:#2EB1E8;" cx="177.69" cy="319.386" r="4.779"/>
		<line style="fill:none;stroke:#2EB1E8;stroke-miterlimit:10;" x1="176.679" y1="328.396" x2="176.679" y2="390.803"/>
		<g>
			<path style="fill:#2EB1E8;" d="M160.052,363.18c0,4.304-1.735,7.259-5.289,7.259c-3.598,0-5.182-3.233-5.203-7.173
				c0-4.025,1.713-7.216,5.311-7.216C158.596,356.049,160.052,359.368,160.052,363.18z M152.836,363.265
				c-0.021,3.19,0.75,4.711,2.013,4.711c1.263,0,1.949-1.585,1.949-4.754c0-3.083-0.664-4.711-1.97-4.711
				C153.628,358.512,152.815,360.031,152.836,363.265z"/>
			<path style="fill:#2EB1E8;" d="M165.809,359.175h-0.043l-2.655,1.263l-0.536-2.441l3.683-1.713h2.698v13.918h-3.147
				L165.809,359.175L165.809,359.175z"/>
			<path style="fill:#FFFFFF;" d="M111.111,377.839c0.67-0.115,1.612-0.2,2.94-0.2c1.342,0,2.298,0.257,2.94,0.771
				c0.614,0.485,1.027,1.284,1.027,2.226s-0.315,1.741-0.885,2.284c-0.742,0.699-1.841,1.013-3.125,1.013
				c-0.286,0-0.542-0.014-0.742-0.043v3.439h-2.155V377.839z M113.265,382.206c0.186,0.043,0.414,0.057,0.728,0.057
				c1.156,0,1.87-0.585,1.87-1.57c0-0.885-0.614-1.413-1.698-1.413c-0.443,0-0.742,0.043-0.899,0.086L113.265,382.206
				L113.265,382.206z"/>
			<path style="fill:#FFFFFF;" d="M119.402,377.839c0.699-0.115,1.741-0.2,2.898-0.2c1.427,0,2.425,0.214,3.111,0.757
				c0.571,0.456,0.885,1.128,0.885,2.012c0,1.227-0.87,2.069-1.698,2.369v0.043c0.67,0.272,1.042,0.913,1.284,1.799
				c0.299,1.085,0.6,2.339,0.785,2.711h-2.226c-0.157-0.271-0.385-1.056-0.67-2.241c-0.257-1.198-0.67-1.527-1.555-1.541h-0.657
				v3.782h-2.155L119.402,377.839L119.402,377.839z M121.558,381.978h0.857c1.085,0,1.726-0.543,1.726-1.385
				c0-0.885-0.599-1.327-1.598-1.342c-0.528,0-0.827,0.043-0.985,0.072V381.978z"/>
			<path style="fill:#FFFFFF;" d="M133.588,383.262h-3.539v2.284h3.953v1.784h-6.136v-9.618h5.937v1.784h-3.753v1.998h3.539
				L133.588,383.262L133.588,383.262z"/>
			<path style="fill:#FFFFFF;" d="M142.551,387.059c-0.4,0.199-1.299,0.413-2.468,0.413c-3.325,0-5.038-2.069-5.038-4.809
				c0-3.283,2.34-5.11,5.251-5.11c1.128,0,1.984,0.229,2.369,0.428l-0.442,1.727c-0.442-0.186-1.056-0.357-1.827-0.357
				c-1.726,0-3.068,1.042-3.068,3.182c0,1.926,1.142,3.14,3.082,3.14c0.656,0,1.384-0.143,1.812-0.314L142.551,387.059z"/>
			<path style="fill:#FFFFFF;" d="M146.162,377.711v9.618h-2.183v-9.618H146.162z"/>
			<path style="fill:#FFFFFF;" d="M148.118,385.089c0.584,0.299,1.484,0.6,2.411,0.6c0.999,0,1.527-0.413,1.527-1.042
				c0-0.599-0.457-0.941-1.612-1.355c-1.599-0.557-2.64-1.441-2.64-2.84c0-1.641,1.37-2.898,3.639-2.898
				c1.085,0,1.884,0.229,2.455,0.485l-0.485,1.756c-0.385-0.186-1.07-0.457-2.012-0.457s-1.399,0.428-1.399,0.929
				c0,0.614,0.542,0.885,1.784,1.355c1.698,0.627,2.497,1.513,2.497,2.868c0,1.612-1.241,2.982-3.882,2.982
				c-1.099,0-2.183-0.285-2.726-0.584L148.118,385.089z"/>
			<path style="fill:#FFFFFF;" d="M157.994,384.861l-0.685,2.469h-2.255l2.94-9.618h2.855l2.983,9.618h-2.34l-0.742-2.469H157.994z
				 M160.434,383.234l-0.6-2.041c-0.171-0.571-0.342-1.284-0.485-1.855h-0.029c-0.143,0.571-0.285,1.299-0.442,1.855l-0.571,2.041
				H160.434z"/>
			<path style="fill:#FFFFFF;" d="M165.116,377.839c0.699-0.115,1.741-0.2,2.898-0.2c1.427,0,2.425,0.214,3.111,0.757
				c0.571,0.456,0.885,1.128,0.885,2.012c0,1.227-0.87,2.069-1.698,2.369v0.043c0.67,0.272,1.042,0.913,1.284,1.799
				c0.299,1.085,0.6,2.339,0.785,2.711h-2.226c-0.157-0.271-0.385-1.056-0.67-2.241c-0.257-1.198-0.67-1.527-1.555-1.541h-0.657
				v3.782h-2.155L165.116,377.839L165.116,377.839z M167.27,381.978h0.857c1.085,0,1.726-0.543,1.726-1.385
				c0-0.885-0.599-1.327-1.598-1.342c-0.528,0-0.827,0.043-0.985,0.072V381.978z"/>
		</g>
		<rect x="104.921" y="352.136" style="fill:#2EB1E8;fill-opacity:0.01;" width="72.105" height="38.794"/>
	</g>
	<g id="ItemEscolher">
		<g>
			<circle style="fill:#2EB1E8;" cx="96.589" cy="304.908" r="4.779"/>
			<line style="fill:none;stroke:#2EB1E8;stroke-miterlimit:10;" x1="87.707" y1="304.361" x2="5.06" y2="304.361"/>
		</g>
		<g>
			<path style="fill:#2EB1E8;" d="M15.696,315.739c0,3.939-1.587,6.644-4.841,6.644c-3.292,0-4.743-2.96-4.762-6.565
				c0-3.685,1.568-6.605,4.86-6.605C14.364,309.212,15.696,312.25,15.696,315.739z M9.091,315.818
				c-0.019,2.92,0.686,4.311,1.843,4.311s1.784-1.451,1.784-4.351c0-2.823-0.608-4.311-1.803-4.311
				C9.816,311.466,9.072,312.858,9.091,315.818z"/>
			<path style="fill:#2EB1E8;" d="M17.167,322.167v-1.803l1.646-1.49c2.783-2.489,4.135-3.919,4.175-5.409
				c0-1.038-0.627-1.862-2.097-1.862c-1.098,0-2.058,0.549-2.724,1.059l-0.842-2.136c0.961-0.725,2.45-1.314,4.175-1.314
				c2.881,0,4.469,1.686,4.469,3.998c0,2.136-1.548,3.841-3.391,5.488l-1.176,0.98v0.039h4.802v2.45L17.167,322.167L17.167,322.167z
				"/>
			<path style="fill:#FFFFFF;" d="M6.328,329.163c0.614-0.105,1.476-0.184,2.691-0.184c1.228,0,2.102,0.235,2.69,0.706
				c0.562,0.444,0.94,1.176,0.94,2.037s-0.287,1.594-0.81,2.09c-0.68,0.641-1.685,0.928-2.861,0.928
				c-0.261,0-0.496-0.013-0.679-0.039v3.147H6.328V329.163z M8.3,333.158c0.17,0.04,0.379,0.052,0.666,0.052
				c1.058,0,1.711-0.536,1.711-1.437c0-0.81-0.562-1.293-1.554-1.293c-0.405,0-0.679,0.04-0.823,0.078V333.158z"/>
			<path style="fill:#FFFFFF;" d="M19.157,334.126h-3.239v2.091h3.619v1.633H13.92v-8.803h5.434v1.633h-3.435v1.829h3.239
				L19.157,334.126L19.157,334.126z"/>
			<path style="fill:#FFFFFF;" d="M20.963,335.797c0.536,0.274,1.359,0.548,2.208,0.548c0.914,0,1.397-0.379,1.397-0.954
				c0-0.548-0.418-0.861-1.476-1.241c-1.462-0.509-2.416-1.319-2.416-2.599c0-1.502,1.254-2.652,3.331-2.652
				c0.993,0,1.724,0.209,2.247,0.444l-0.444,1.606c-0.353-0.169-0.98-0.417-1.842-0.417c-0.862,0-1.28,0.392-1.28,0.849
				c0,0.562,0.496,0.81,1.633,1.241c1.554,0.575,2.285,1.385,2.285,2.625c0,1.476-1.137,2.73-3.553,2.73
				c-1.005,0-1.999-0.262-2.495-0.536L20.963,335.797z"/>
			<path style="fill:#FFFFFF;" d="M35.478,339.363c-1.254-0.366-2.299-0.745-3.475-1.241c-0.196-0.078-0.405-0.118-0.614-0.131
				c-1.985-0.13-3.84-1.593-3.84-4.466c0-2.639,1.671-4.624,4.298-4.624c2.69,0,4.166,2.037,4.166,4.442
				c0,1.998-0.928,3.409-2.09,3.931v0.052c0.679,0.196,1.437,0.353,2.129,0.496L35.478,339.363z M33.91,333.421
				c0-1.607-0.757-2.939-2.116-2.939s-2.142,1.332-2.142,2.978c-0.013,1.671,0.797,2.952,2.129,2.952
				C33.126,336.41,33.91,335.144,33.91,333.421z"/>
			<path style="fill:#FFFFFF;" d="M39.309,329.045v5.068c0,1.515,0.574,2.286,1.593,2.286c1.045,0,1.62-0.732,1.62-2.286v-5.068
				h1.985v4.937c0,2.716-1.371,4.009-3.67,4.009c-2.221,0-3.527-1.227-3.527-4.035v-4.911H39.309z"/>
			<path style="fill:#FFFFFF;" d="M48.234,329.045v8.803h-1.999v-8.803H48.234z"/>
			<path style="fill:#FFFFFF;" d="M50.025,335.797c0.536,0.274,1.359,0.548,2.207,0.548c0.914,0,1.397-0.379,1.397-0.954
				c0-0.548-0.418-0.861-1.476-1.241c-1.462-0.509-2.416-1.319-2.416-2.599c0-1.502,1.254-2.652,3.33-2.652
				c0.993,0,1.724,0.209,2.247,0.444l-0.444,1.606c-0.353-0.169-0.98-0.417-1.842-0.417c-0.862,0-1.28,0.392-1.28,0.849
				c0,0.562,0.496,0.81,1.633,1.241c1.554,0.575,2.285,1.385,2.285,2.625c0,1.476-1.137,2.73-3.553,2.73
				c-1.005,0-1.999-0.262-2.495-0.536L50.025,335.797z"/>
			<path style="fill:#FFFFFF;" d="M59.067,335.588l-0.627,2.26h-2.064l2.69-8.803h2.613l2.73,8.803h-2.142l-0.679-2.26H59.067z
				 M61.301,334.099l-0.548-1.868c-0.157-0.522-0.314-1.176-0.444-1.698h-0.026c-0.131,0.522-0.261,1.188-0.405,1.698l-0.523,1.868
				H61.301z"/>
			<path style="fill:#FFFFFF;" d="M65.588,329.163c0.64-0.105,1.594-0.184,2.651-0.184c1.306,0,2.221,0.196,2.847,0.692
				c0.523,0.418,0.81,1.032,0.81,1.842c0,1.123-0.797,1.894-1.554,2.168v0.039c0.614,0.249,0.954,0.836,1.176,1.646
				c0.274,0.993,0.548,2.142,0.719,2.481h-2.038c-0.143-0.248-0.353-0.966-0.614-2.051c-0.235-1.097-0.614-1.397-1.424-1.411h-0.6
				v3.461h-1.973C65.588,337.846,65.588,329.163,65.588,329.163z M67.561,332.95h0.783c0.993,0,1.58-0.497,1.58-1.268
				c0-0.81-0.548-1.214-1.462-1.227c-0.483,0-0.757,0.039-0.902,0.065V332.95z"/>
		</g>
		<rect y="305.723" style="fill:#2EB1E8;fill-opacity:0.01;" width="72.105" height="38.794"/>
	</g>
	<g id="ItemEscolher_1_">
		<g>
			<circle style="fill:#2EB1E8;" cx="95.316" cy="194.017" r="5.631"/>
			
				<line style="fill:none;stroke:#2EB1E8;stroke-width:1.1781;stroke-miterlimit:10;" x1="84.355" y1="193.869" x2="-15.002" y2="193.869"/>
		</g>
		<g>
			<path style="fill:#2EB1E8;" d="M-6.859,206.767c0,3.952-1.593,6.666-4.857,6.666c-3.304,0-4.758-2.969-4.778-6.587
				c0-3.697,1.573-6.626,4.876-6.626C-8.197,200.219-6.859,203.266-6.859,206.767z M-13.487,206.845
				c-0.02,2.93,0.689,4.326,1.848,4.326c1.16,0,1.789-1.456,1.789-4.366c0-2.832-0.61-4.326-1.809-4.326
				C-12.758,202.48-13.505,203.876-13.487,206.845z"/>
			<path style="fill:#2EB1E8;" d="M-4.852,210.286c0.531,0.275,1.75,0.787,2.969,0.787c1.553,0,2.34-0.747,2.34-1.711
				c0-1.259-1.259-1.829-2.575-1.829h-1.219v-2.143h1.159c1.003-0.02,2.281-0.393,2.281-1.474c0-0.767-0.629-1.337-1.888-1.337
				c-1.042,0-2.143,0.452-2.675,0.766l-0.609-2.163c0.767-0.492,2.3-0.964,3.952-0.964c2.732,0,4.247,1.436,4.247,3.185
				c0,1.357-0.766,2.418-2.34,2.969v0.04c1.534,0.275,2.773,1.436,2.773,3.107c0,2.261-1.986,3.913-5.23,3.913
				c-1.652,0-3.048-0.433-3.795-0.905L-4.852,210.286z"/>
			<path style="fill:#FFFFFF;" d="M-11,225.211h-3.252v2.098h3.632v1.639h-5.639v-8.839h5.456v1.639h-3.449v1.836H-11V225.211z"/>
			<path style="fill:#FFFFFF;" d="M-9.191,226.89c0.539,0.275,1.364,0.55,2.217,0.55c0.918,0,1.403-0.38,1.403-0.957
				c0-0.55-0.419-0.865-1.482-1.246c-1.468-0.512-2.425-1.324-2.425-2.609c0-1.508,1.259-2.662,3.344-2.662
				c0.997,0,1.731,0.21,2.255,0.446l-0.446,1.614c-0.354-0.171-0.984-0.42-1.849-0.42S-7.46,222-7.46,222.459
				c0,0.563,0.499,0.813,1.639,1.246c1.561,0.577,2.295,1.39,2.295,2.636c0,1.481-1.141,2.74-3.567,2.74
				c-1.009,0-2.007-0.262-2.505-0.538L-9.191,226.89z"/>
			<path style="fill:#FFFFFF;" d="M4.314,228.7c-0.368,0.184-1.193,0.381-2.269,0.381c-3.055,0-4.629-1.902-4.629-4.419
				c0-3.016,2.151-4.695,4.826-4.695c1.035,0,1.822,0.21,2.177,0.393l-0.406,1.587c-0.406-0.17-0.971-0.328-1.678-0.328
				c-1.587,0-2.82,0.957-2.82,2.924c0,1.771,1.049,2.884,2.833,2.884c0.603,0,1.272-0.131,1.665-0.288L4.314,228.7z"/>
			<path style="fill:#FFFFFF;" d="M13.322,224.438c0,2.898-1.758,4.656-4.341,4.656c-2.623,0-4.157-1.98-4.157-4.498
				c0-2.65,1.692-4.629,4.301-4.629C11.841,219.966,13.322,221.999,13.322,224.438z M6.935,224.557c0,1.731,0.813,2.951,2.151,2.951
				c1.35,0,2.124-1.285,2.124-3.004c0-1.587-0.76-2.951-2.137-2.951C7.722,221.553,6.935,222.838,6.935,224.557z"/>
			<path style="fill:#FFFFFF;" d="M14.631,220.11h2.007v7.161h3.514v1.678h-5.521V220.11z"/>
			<path style="fill:#FFFFFF;" d="M23.337,220.11v3.396h3.292v-3.396h1.993v8.839h-1.993v-3.698h-3.292v3.698H21.33v-8.839H23.337z"
				/>
			<path style="fill:#FFFFFF;" d="M35.623,225.211h-3.252v2.098h3.632v1.639h-5.639v-8.839h5.456v1.639h-3.449v1.836h3.252
				L35.623,225.211L35.623,225.211z"/>
			<path style="fill:#FFFFFF;" d="M37.365,220.229c0.643-0.104,1.6-0.184,2.662-0.184c1.312,0,2.23,0.197,2.858,0.695
				c0.525,0.419,0.813,1.036,0.813,1.849c0,1.128-0.8,1.902-1.561,2.177v0.04c0.617,0.249,0.958,0.84,1.18,1.652
				c0.275,0.997,0.551,2.151,0.721,2.492h-2.046c-0.144-0.249-0.354-0.971-0.616-2.059c-0.236-1.102-0.617-1.403-1.43-1.416h-0.603
				v3.476h-1.98L37.365,220.229L37.365,220.229z M39.346,224.031h0.787c0.997,0,1.587-0.498,1.587-1.272
				c0-0.813-0.55-1.22-1.468-1.233c-0.485,0-0.761,0.04-0.905,0.066V224.031z"/>
		</g>
		<rect x="-16.5" y="195.509" style="fill:#2EB1E8;fill-opacity:0.01;" width="84.95" height="45.704"/>
	</g>
	<g id="ItemComprar">
		<g>
			<circle style="fill:#2EB1E8;" cx="177.69" cy="171.52" r="4.779"/>
			<line style="fill:none;stroke:#2EB1E8;stroke-miterlimit:10;" x1="177.523" y1="163.102" x2="177.523" y2="104.068"/>
		</g>
		<g>
			<path style="fill:#2EB1E8;" d="M162.046,111.113c0,3.644-1.468,6.146-4.478,6.146c-3.046,0-4.388-2.737-4.406-6.074
				c0-3.409,1.451-6.111,4.497-6.111C160.814,105.075,162.046,107.885,162.046,111.113z M155.936,111.186
				c-0.018,2.702,0.634,3.989,1.704,3.989s1.65-1.342,1.65-4.025c0-2.611-0.562-3.989-1.668-3.989
				C156.607,107.16,155.918,108.447,155.936,111.186z"/>
			<path style="fill:#2EB1E8;" d="M168.286,117.06v-2.811h-5.222v-1.795l4.46-7.18h3.373v6.908h1.414v2.067h-1.414v2.811H168.286z
				 M168.286,112.183v-2.611c0-0.707,0.036-1.432,0.09-2.194h-0.073c-0.381,0.762-0.689,1.451-1.088,2.194l-1.578,2.575v0.036
				H168.286z"/>
			<path style="fill:#FFFFFF;" d="M124.367,131.338c-0.338,0.17-1.101,0.351-2.092,0.351c-2.818,0-4.27-1.754-4.27-4.077
				c0-2.782,1.984-4.331,4.451-4.331c0.956,0,1.682,0.193,2.008,0.363l-0.374,1.464c-0.375-0.158-0.896-0.303-1.548-0.303
				c-1.464,0-2.601,0.883-2.601,2.698c0,1.634,0.967,2.661,2.613,2.661c0.557,0,1.173-0.121,1.537-0.266L124.367,131.338z"/>
			<path style="fill:#FFFFFF;" d="M132.673,127.407c0,2.673-1.621,4.294-4.004,4.294c-2.42,0-3.835-1.827-3.835-4.148
				c0-2.443,1.561-4.27,3.968-4.27C131.307,123.283,132.673,125.157,132.673,127.407z M126.782,127.516
				c0,1.597,0.75,2.722,1.984,2.722c1.246,0,1.96-1.186,1.96-2.77c0-1.463-0.702-2.722-1.972-2.722
				C127.509,124.746,126.782,125.932,126.782,127.516z"/>
			<path style="fill:#FFFFFF;" d="M140.773,128.447c-0.036-0.98-0.073-2.165-0.073-3.351h-0.036
				c-0.254,1.041-0.593,2.202-0.907,3.157l-0.992,3.181h-1.44l-0.871-3.157c-0.266-0.956-0.545-2.117-0.738-3.181h-0.024
				c-0.048,1.101-0.085,2.359-0.145,3.375l-0.145,3.097h-1.705l0.52-8.153h2.456l0.799,2.722c0.254,0.944,0.509,1.959,0.69,2.915
				h0.036c0.229-0.944,0.508-2.021,0.774-2.927l0.871-2.71h2.407l0.448,8.153h-1.802L140.773,128.447z"/>
			<path style="fill:#FFFFFF;" d="M144.107,123.525c0.568-0.097,1.367-0.17,2.492-0.17c1.137,0,1.947,0.218,2.492,0.654
				c0.52,0.411,0.871,1.089,0.871,1.887s-0.266,1.476-0.75,1.935c-0.629,0.593-1.56,0.859-2.649,0.859
				c-0.242,0-0.46-0.013-0.629-0.036v2.915h-1.827L144.107,123.525L144.107,123.525z M145.934,127.226
				c0.158,0.036,0.351,0.049,0.617,0.049c0.98,0,1.585-0.496,1.585-1.331c0-0.751-0.52-1.198-1.44-1.198
				c-0.375,0-0.629,0.036-0.762,0.073L145.934,127.226L145.934,127.226z"/>
			<path style="fill:#FFFFFF;" d="M151.132,123.525c0.593-0.097,1.476-0.17,2.456-0.17c1.209,0,2.056,0.181,2.637,0.641
				c0.484,0.387,0.75,0.956,0.75,1.705c0,1.04-0.738,1.754-1.44,2.008v0.036c0.568,0.229,0.883,0.774,1.089,1.524
				c0.254,0.919,0.509,1.984,0.665,2.298h-1.887c-0.133-0.229-0.326-0.896-0.568-1.899c-0.218-1.016-0.568-1.295-1.318-1.306h-0.557
				v3.206h-1.827V123.525z M152.958,127.032h0.726c0.919,0,1.463-0.46,1.463-1.173c0-0.75-0.509-1.125-1.354-1.137
				c-0.448,0-0.702,0.036-0.835,0.061L152.958,127.032L152.958,127.032z"/>
			<path style="fill:#FFFFFF;" d="M160.309,129.475l-0.58,2.092h-1.912l2.492-8.153h2.42l2.528,8.153h-1.984l-0.629-2.092H160.309z
				 M162.377,128.096l-0.509-1.73c-0.145-0.484-0.29-1.089-0.412-1.573h-0.024c-0.121,0.484-0.242,1.101-0.375,1.573l-0.484,1.73
				H162.377z"/>
			<path style="fill:#FFFFFF;" d="M166.341,123.525c0.593-0.097,1.476-0.17,2.456-0.17c1.209,0,2.056,0.181,2.637,0.641
				c0.484,0.387,0.75,0.956,0.75,1.705c0,1.04-0.738,1.754-1.44,2.008v0.036c0.568,0.229,0.883,0.774,1.089,1.524
				c0.254,0.919,0.509,1.984,0.665,2.298h-1.887c-0.133-0.229-0.326-0.896-0.568-1.899c-0.218-1.016-0.568-1.295-1.318-1.306h-0.557
				v3.206h-1.827V123.525z M168.168,127.032h0.726c0.919,0,1.463-0.46,1.463-1.173c0-0.75-0.508-1.125-1.354-1.137
				c-0.448,0-0.702,0.036-0.835,0.061V127.032L168.168,127.032z"/>
		</g>
		<rect x="104.363" y="103.548" style="fill:#2EB1E8;fill-opacity:0.01;" width="72.105" height="38.794"/>
	</g>
	<g id="ItemReceber">
		<circle style="fill:#2EB1E8;" cx="341.297" cy="321.916" r="4.779"/>
		<line style="fill:none;stroke:#2EB1E8;stroke-miterlimit:10;" x1="340.287" y1="330.926" x2="340.287" y2="389.96"/>
		<g>
			<path style="fill:#2EB1E8;" d="M356.16,365.952c0,3.883-1.564,6.549-4.771,6.549c-3.246,0-4.675-2.916-4.693-6.471
				c0-3.631,1.545-6.51,4.79-6.51C354.846,359.52,356.16,362.515,356.16,365.952z M349.65,366.03
				c-0.019,2.878,0.676,4.25,1.815,4.25c1.14,0,1.758-1.429,1.758-4.288c0-2.781-0.599-4.249-1.777-4.249
				C350.365,361.742,349.63,363.114,349.65,366.03z"/>
			<path style="fill:#2EB1E8;" d="M365.994,362.147h-4.868l-0.27,1.931c0.27-0.038,0.503-0.038,0.811-0.038
				c1.198,0,2.414,0.27,3.303,0.907c0.946,0.638,1.526,1.68,1.526,3.148c0,2.337-2.009,4.404-5.389,4.404
				c-1.526,0-2.801-0.347-3.496-0.715l0.521-2.201c0.56,0.27,1.7,0.617,2.84,0.617c1.216,0,2.511-0.58,2.511-1.913
				c0-1.294-1.024-2.086-3.534-2.086c-0.695,0-1.178,0.039-1.7,0.116l0.83-6.587h6.915V362.147z"/>
			<path style="fill:#FFFFFF;" d="M346.927,379.178c0.632-0.103,1.571-0.18,2.615-0.18c1.288,0,2.19,0.193,2.808,0.683
				c0.515,0.412,0.799,1.018,0.799,1.816c0,1.107-0.786,1.868-1.533,2.139v0.039c0.606,0.245,0.94,0.825,1.16,1.623
				c0.271,0.979,0.541,2.113,0.708,2.447h-2.01c-0.142-0.245-0.347-0.953-0.605-2.022c-0.231-1.081-0.605-1.378-1.404-1.391h-0.592
				v3.414h-1.946V379.178z M348.871,382.914h0.772c0.979,0,1.559-0.49,1.559-1.249c0-0.799-0.541-1.198-1.443-1.212
				c-0.476,0-0.747,0.039-0.889,0.065V382.914z"/>
			<path style="fill:#FFFFFF;" d="M359.73,384.073h-3.195v2.061h3.568v1.61h-5.539v-8.682h5.359v1.61h-3.389v1.804h3.195
				L359.73,384.073L359.73,384.073z"/>
			<path style="fill:#FFFFFF;" d="M367.819,387.501c-0.361,0.18-1.172,0.373-2.228,0.373c-3.002,0-4.548-1.867-4.548-4.34
				c0-2.963,2.113-4.612,4.74-4.612c1.018,0,1.79,0.206,2.139,0.386l-0.4,1.559c-0.4-0.167-0.954-0.322-1.649-0.322
				c-1.559,0-2.77,0.94-2.77,2.872c0,1.739,1.031,2.834,2.782,2.834c0.593,0,1.249-0.129,1.636-0.283L367.819,387.501z"/>
			<path style="fill:#FFFFFF;" d="M374.272,384.073h-3.195v2.061h3.568v1.61h-5.539v-8.682h5.359v1.61h-3.389v1.804h3.195
				L374.272,384.073L374.272,384.073z"/>
			<path style="fill:#FFFFFF;" d="M375.986,379.178c0.515-0.103,1.559-0.18,2.538-0.18c1.198,0,1.933,0.116,2.564,0.489
				c0.605,0.322,1.043,0.915,1.043,1.701c0,0.772-0.451,1.494-1.429,1.854v0.025c0.992,0.271,1.726,1.018,1.726,2.139
				c0,0.786-0.361,1.404-0.902,1.842c-0.632,0.503-1.688,0.786-3.414,0.786c-0.966,0-1.688-0.064-2.126-0.128V379.178z
				 M377.93,382.502h0.644c1.031,0,1.585-0.425,1.585-1.069c0-0.657-0.503-1.004-1.391-1.004c-0.425,0-0.67,0.025-0.837,0.052
				L377.93,382.502L377.93,382.502z M377.93,386.354c0.193,0.025,0.425,0.025,0.76,0.025c0.889,0,1.674-0.335,1.674-1.249
				c0-0.876-0.786-1.224-1.765-1.224h-0.67L377.93,386.354L377.93,386.354z"/>
			<path style="fill:#FFFFFF;" d="M388.931,384.073h-3.195v2.061h3.568v1.61h-5.539v-8.682h5.359v1.61h-3.389v1.804h3.195
				L388.931,384.073L388.931,384.073z"/>
			<path style="fill:#FFFFFF;" d="M390.643,379.178c0.632-0.103,1.571-0.18,2.615-0.18c1.288,0,2.19,0.193,2.808,0.683
				c0.515,0.412,0.799,1.018,0.799,1.816c0,1.107-0.786,1.868-1.533,2.139v0.039c0.606,0.245,0.94,0.825,1.16,1.623
				c0.271,0.979,0.541,2.113,0.708,2.447h-2.01c-0.142-0.245-0.347-0.953-0.605-2.022c-0.231-1.081-0.606-1.378-1.404-1.391h-0.592
				v3.414h-1.946V379.178z M392.588,382.914h0.772c0.979,0,1.559-0.49,1.559-1.249c0-0.799-0.541-1.198-1.443-1.212
				c-0.476,0-0.747,0.039-0.889,0.065V382.914z"/>
		</g>
		<rect x="343.153" y="350.806" style="fill:#2EB1E8;fill-opacity:0.01;" width="72.105" height="38.794"/>
	</g>
	<g id="ItemUsar">
		<g>
			<circle style="fill:#2EB1E8;" cx="431.071" cy="285.933" r="4.779"/>
			<line style="fill:none;stroke:#2EB1E8;stroke-miterlimit:10;" x1="439.379" y1="286.651" x2="529.617" y2="286.651"/>
		</g>
		<g>
			<path style="fill:#2EB1E8;" d="M519.092,297.72c0,3.736-1.505,6.3-4.589,6.3c-3.122,0-4.497-2.806-4.515-6.225
				c0-3.494,1.487-6.263,4.609-6.263C517.828,291.533,519.092,294.413,519.092,297.72z M512.829,297.795
				c-0.018,2.769,0.65,4.088,1.747,4.088c1.096,0,1.691-1.375,1.691-4.125c0-2.676-0.576-4.089-1.709-4.089
				C513.517,293.67,512.811,294.989,512.829,297.795z"/>
			<path style="fill:#2EB1E8;" d="M528.199,293.744c-0.316-0.018-0.65,0-1.096,0.037c-2.509,0.204-3.624,1.487-3.939,2.899h0.055
				c0.595-0.614,1.431-0.966,2.565-0.966c2.025,0,3.735,1.43,3.735,3.939c0,2.398-1.84,4.367-4.46,4.367
				c-3.215,0-4.794-2.397-4.794-5.278c0-2.267,0.836-4.163,2.137-5.37c1.208-1.096,2.768-1.691,4.664-1.784
				c0.52-0.037,0.855-0.037,1.133-0.019L528.199,293.744L528.199,293.744z M526.656,299.802c0-1.115-0.595-2.082-1.802-2.082
				c-0.762,0-1.393,0.466-1.672,1.078c-0.074,0.149-0.111,0.371-0.111,0.706c0.055,1.283,0.669,2.435,1.951,2.435
				C526.025,301.938,526.656,301.028,526.656,299.802z"/>
			<path style="fill:#FFFFFF;" d="M502.105,310.333v4.809c0,1.437,0.545,2.168,1.512,2.168c0.992,0,1.537-0.694,1.537-2.168v-4.809
				h1.883v4.685c0,2.578-1.301,3.805-3.482,3.805c-2.107,0-3.346-1.165-3.346-3.83v-4.659L502.105,310.333L502.105,310.333z"/>
			<path style="fill:#FFFFFF;" d="M508.735,316.739c0.509,0.261,1.289,0.52,2.094,0.52c0.868,0,1.326-0.36,1.326-0.905
				c0-0.52-0.396-0.818-1.4-1.177c-1.388-0.483-2.293-1.252-2.293-2.467c0-1.424,1.19-2.515,3.16-2.515
				c0.942,0,1.635,0.198,2.131,0.421l-0.421,1.525c-0.335-0.16-0.93-0.396-1.747-0.396s-1.214,0.371-1.214,0.805
				c0,0.533,0.471,0.768,1.548,1.177c1.475,0.545,2.169,1.314,2.169,2.491c0,1.4-1.078,2.589-3.371,2.589
				c-0.955,0-1.896-0.247-2.367-0.508L508.735,316.739z"/>
			<path style="fill:#FFFFFF;" d="M517.309,316.541l-0.595,2.144h-1.957l2.552-8.352h2.479l2.59,8.352h-2.032l-0.644-2.144H517.309z
				 M519.427,315.129l-0.52-1.773c-0.148-0.496-0.298-1.115-0.421-1.611h-0.024c-0.124,0.496-0.248,1.128-0.385,1.611l-0.496,1.773
				H519.427z"/>
			<path style="fill:#FFFFFF;" d="M523.492,310.444c0.607-0.1,1.512-0.174,2.516-0.174c1.239,0,2.107,0.186,2.701,0.657
				c0.496,0.396,0.768,0.978,0.768,1.747c0,1.066-0.756,1.797-1.475,2.057v0.037c0.582,0.235,0.905,0.793,1.115,1.562
				c0.261,0.942,0.52,2.032,0.682,2.355h-1.933c-0.137-0.235-0.335-0.917-0.583-1.946c-0.223-1.041-0.582-1.326-1.351-1.338h-0.57
				v3.284h-1.871L523.492,310.444L523.492,310.444z M525.364,314.037h0.744c0.942,0,1.499-0.471,1.499-1.202
				c0-0.768-0.52-1.152-1.388-1.165c-0.458,0-0.719,0.038-0.855,0.062L525.364,314.037L525.364,314.037z"/>
		</g>
		<rect x="459.347" y="286.852" style="fill:#2EB1E8;fill-opacity:0.01;" width="72.105" height="38.794"/>
	</g>
	<g id="ItemManter">
		<g>
			<circle style="fill:#2EB1E8;" cx="426.011" cy="193.166" r="4.779"/>
			<line style="fill:none;stroke:#2EB1E8;stroke-miterlimit:10;" x1="434.319" y1="193.884" x2="524.557" y2="193.884"/>
		</g>
		<g>
			<path style="fill:#2EB1E8;" d="M514.05,204.936c0,3.733-1.504,6.295-4.586,6.295c-3.119,0-4.493-2.804-4.513-6.22
				c0-3.491,1.486-6.258,4.605-6.258C512.787,198.753,514.05,201.632,514.05,204.936z M507.793,205.011
				c-0.018,2.767,0.65,4.085,1.746,4.085c1.095,0,1.689-1.374,1.689-4.122c0-2.673-0.576-4.085-1.708-4.085
				C508.479,200.889,507.774,202.207,507.793,205.011z"/>
			<path style="fill:#2EB1E8;" d="M524.093,198.958v1.783l-4.977,10.287h-2.99l4.977-9.712v-0.037h-5.534v-2.321H524.093z"/>
			<path style="fill:#FFFFFF;" d="M485.018,222.684c-0.037-1.003-0.074-2.215-0.074-3.429h-0.037
				c-0.261,1.064-0.607,2.253-0.929,3.231l-1.015,3.255h-1.473l-0.891-3.231c-0.272-0.978-0.557-2.167-0.756-3.255h-0.024
				c-0.05,1.126-0.087,2.414-0.149,3.453l-0.148,3.169h-1.745l0.532-8.344h2.512l0.817,2.786c0.261,0.966,0.52,2.005,0.706,2.984
				h0.037c0.235-0.966,0.52-2.067,0.792-2.996l0.891-2.773h2.464l0.458,8.344h-1.845L485.018,222.684z"/>
			<path style="fill:#FFFFFF;" d="M490.336,223.736l-0.595,2.142h-1.955l2.549-8.344h2.476l2.587,8.344h-2.03l-0.644-2.142H490.336z
				 M492.453,222.325l-0.52-1.77c-0.148-0.495-0.298-1.114-0.421-1.609h-0.024c-0.123,0.495-0.248,1.127-0.384,1.609l-0.495,1.77
				H492.453z"/>
			<path style="fill:#FFFFFF;" d="M496.512,225.878v-8.344h2.204l1.733,3.057c0.495,0.879,0.991,1.919,1.361,2.86h0.038
				c-0.124-1.102-0.161-2.229-0.161-3.479v-2.438h1.733v8.344h-1.98l-1.783-3.218c-0.495-0.891-1.04-1.968-1.449-2.947l-0.037,0.013
				c0.05,1.101,0.074,2.278,0.074,3.639v2.513H496.512z"/>
			<path style="fill:#FFFFFF;" d="M506.66,219.119h-2.241v-1.585h6.413v1.585h-2.278v6.759h-1.894L506.66,219.119L506.66,219.119z"
				/>
			<path style="fill:#FFFFFF;" d="M516.796,222.35h-3.071v1.981h3.428v1.548h-5.323v-8.344h5.149v1.548h-3.255v1.733h3.071
				L516.796,222.35L516.796,222.35z"/>
			<path style="fill:#FFFFFF;" d="M518.441,217.645c0.607-0.099,1.51-0.173,2.512-0.173c1.239,0,2.105,0.186,2.699,0.656
				c0.495,0.396,0.767,0.978,0.767,1.746c0,1.064-0.756,1.795-1.473,2.055v0.037c0.582,0.235,0.904,0.792,1.114,1.56
				c0.261,0.941,0.52,2.03,0.681,2.352h-1.931c-0.136-0.235-0.334-0.916-0.581-1.944c-0.223-1.04-0.582-1.324-1.35-1.337h-0.569
				v3.281h-1.87L518.441,217.645L518.441,217.645z M520.31,221.236h0.743c0.94,0,1.497-0.471,1.497-1.201
				c0-0.767-0.52-1.151-1.386-1.163c-0.458,0-0.719,0.037-0.854,0.062L520.31,221.236L520.31,221.236z"/>
		</g>
		<rect x="455.541" y="194.432" style="fill:#2EB1E8;fill-opacity:0.01;" width="72.105" height="38.794"/>
	</g>
	<g id="ItemREcomendar">
		<g>
			<circle style="fill:#2EB1E8;" cx="341.297" cy="169.833" r="4.779"/>
			<line style="fill:none;stroke:#2EB1E8;stroke-miterlimit:10;" x1="341.13" y1="161.415" x2="341.13" y2="104.068"/>
		</g>
		<g>
			<path style="fill:#2EB1E8;" d="M355.101,111.988c0,3.66-1.475,6.172-4.498,6.172c-3.059,0-4.406-2.749-4.424-6.1
				c0-3.423,1.456-6.136,4.515-6.136C353.863,105.924,355.101,108.747,355.101,111.988z M348.965,112.061
				c-0.018,2.713,0.638,4.006,1.712,4.006c1.074,0,1.656-1.348,1.656-4.042c0-2.622-0.564-4.006-1.675-4.006
				C349.638,108.019,348.947,109.311,348.965,112.061z"/>
			<path style="fill:#2EB1E8;" d="M356.283,114.865c0-1.42,0.819-2.404,2.112-2.969v-0.055c-1.147-0.582-1.711-1.548-1.711-2.586
				c0-2.003,1.803-3.332,4.169-3.332c2.768,0,3.915,1.602,3.915,3.041c0,1.02-0.546,2.021-1.711,2.603v0.055
				c1.147,0.437,2.167,1.42,2.167,2.95c0,2.149-1.803,3.587-4.552,3.587C357.667,118.161,356.283,116.468,356.283,114.865z
				 M362.4,114.774c0-1.038-0.764-1.657-1.857-1.949c-0.91,0.255-1.439,0.911-1.439,1.767c-0.018,0.856,0.638,1.656,1.676,1.656
				C361.763,116.248,362.4,115.612,362.4,114.774z M359.288,109.165c0,0.801,0.728,1.311,1.675,1.602
				c0.637-0.182,1.202-0.765,1.202-1.511c0-0.728-0.419-1.456-1.439-1.456C359.778,107.8,359.288,108.419,359.288,109.165z"/>
			<path style="fill:#FFFFFF;" d="M346.397,124.454c0.595-0.097,1.481-0.17,2.464-0.17c1.213,0,2.062,0.182,2.646,0.643
				c0.485,0.388,0.752,0.959,0.752,1.711c0,1.043-0.74,1.759-1.444,2.014v0.036c0.57,0.23,0.885,0.777,1.092,1.529
				c0.255,0.923,0.509,1.99,0.667,2.306h-1.892c-0.133-0.23-0.328-0.898-0.571-1.905c-0.218-1.019-0.57-1.299-1.322-1.311h-0.558
				v3.216h-1.833L346.397,124.454L346.397,124.454z M348.229,127.973h0.728c0.923,0,1.468-0.461,1.468-1.177
				c0-0.752-0.509-1.128-1.359-1.141c-0.449,0-0.704,0.036-0.837,0.061V127.973z"/>
			<path style="fill:#FFFFFF;" d="M358.459,129.065h-3.009v1.941h3.361v1.517h-5.219v-8.179h5.048v1.517h-3.191v1.698h3.009
				L358.459,129.065L358.459,129.065z"/>
			<path style="fill:#FFFFFF;" d="M366.081,132.294c-0.34,0.17-1.105,0.352-2.099,0.352c-2.828,0-4.283-1.759-4.283-4.089
				c0-2.791,1.989-4.344,4.466-4.344c0.959,0,1.687,0.194,2.015,0.364l-0.376,1.468c-0.376-0.158-0.897-0.304-1.553-0.304
				c-1.468,0-2.609,0.886-2.609,2.706c0,1.638,0.971,2.67,2.621,2.67c0.558,0,1.177-0.121,1.541-0.267L366.081,132.294z"/>
			<path style="fill:#FFFFFF;" d="M374.42,128.35c0,2.682-1.627,4.308-4.018,4.308c-2.426,0-3.846-1.833-3.846-4.163
				c0-2.451,1.564-4.283,3.981-4.283C373.048,124.212,374.42,126.093,374.42,128.35z M368.509,128.459
				c0,1.602,0.752,2.73,1.989,2.73c1.25,0,1.966-1.189,1.966-2.779c0-1.468-0.703-2.73-1.978-2.73
				C369.238,125.68,368.509,126.869,368.509,128.459z"/>
			<path style="fill:#FFFFFF;" d="M382.55,129.393c-0.036-0.983-0.073-2.172-0.073-3.362h-0.037
				c-0.255,1.044-0.595,2.209-0.91,3.168l-0.995,3.191h-1.444l-0.874-3.167c-0.267-0.959-0.546-2.124-0.74-3.192h-0.024
				c-0.049,1.105-0.086,2.366-0.146,3.386l-0.146,3.107h-1.711l0.522-8.18h2.463l0.801,2.731c0.255,0.946,0.509,1.966,0.691,2.925
				h0.037c0.23-0.947,0.509-2.027,0.777-2.937l0.874-2.719h2.414l0.449,8.179h-1.809L382.55,129.393z"/>
			<path style="fill:#FFFFFF;" d="M390.767,129.065h-3.009v1.941h3.361v1.517H385.9v-8.179h5.048v1.517h-3.191v1.698h3.009
				L390.767,129.065L390.767,129.065z"/>
			<path style="fill:#FFFFFF;" d="M392.382,132.524v-8.179h2.161l1.699,2.997c0.485,0.861,0.971,1.881,1.335,2.803h0.036
				c-0.121-1.08-0.159-2.184-0.159-3.41v-2.391h1.699v8.179h-1.941l-1.747-3.155c-0.485-0.874-1.02-1.93-1.42-2.888l-0.036,0.012
				c0.049,1.08,0.073,2.232,0.073,3.567v2.463C394.081,132.524,392.382,132.524,392.382,132.524z"/>
			<path style="fill:#FFFFFF;" d="M400.755,124.454c0.681-0.109,1.565-0.17,2.5-0.17c1.553,0,2.56,0.279,3.349,0.874
				c0.85,0.632,1.384,1.639,1.384,3.082c0,1.565-0.57,2.646-1.359,3.313c-0.861,0.716-2.172,1.055-3.774,1.055
				c-0.96,0-1.639-0.061-2.1-0.121L400.755,124.454L400.755,124.454z M402.612,131.128c0.158,0.036,0.412,0.036,0.643,0.036
				c1.674,0.013,2.766-0.91,2.766-2.864c0.013-1.699-0.982-2.597-2.573-2.597c-0.412,0-0.68,0.036-0.837,0.073V131.128z"/>
			<path style="fill:#FFFFFF;" d="M410.914,130.425l-0.582,2.099h-1.918l2.5-8.179h2.427l2.536,8.179h-1.989l-0.631-2.099H410.914z
				 M412.989,129.041l-0.509-1.736c-0.145-0.485-0.291-1.092-0.412-1.578h-0.024c-0.121,0.486-0.243,1.105-0.376,1.578l-0.485,1.736
				H412.989z"/>
			<path style="fill:#FFFFFF;" d="M416.969,124.454c0.595-0.097,1.481-0.17,2.464-0.17c1.213,0,2.062,0.182,2.646,0.643
				c0.485,0.388,0.752,0.959,0.752,1.711c0,1.043-0.74,1.759-1.444,2.014v0.036c0.57,0.23,0.885,0.777,1.092,1.529
				c0.255,0.923,0.509,1.99,0.667,2.306h-1.892c-0.133-0.23-0.328-0.898-0.571-1.905c-0.218-1.019-0.57-1.299-1.322-1.311h-0.559
				v3.216h-1.833V124.454z M418.802,127.973h0.728c0.923,0,1.468-0.461,1.468-1.177c0-0.752-0.509-1.128-1.359-1.141
				c-0.449,0-0.704,0.036-0.837,0.061V127.973z"/>
		</g>
		<rect x="344.07" y="103.262" style="fill:#2EB1E8;fill-opacity:0.01;" width="79.155" height="38.794"/>
	</g>
</g>
<g id="Layer_1_1_">
</g>
</svg>
