<?xml version="1.0" encoding="iso-8859-1"?>
<!-- Generator: Adobe Illustrator 18.0.0, SVG Export Plug-In . SVG Version: 6.00 Build 0)  -->
<!DOCTYPE svg PUBLIC "-//W3C//DTD SVG 1.1//EN" "http://www.w3.org/Graphics/SVG/1.1/DTD/svg11.dtd">
<svg version="1.1" xmlns="http://www.w3.org/2000/svg" xmlns:xlink="http://www.w3.org/1999/xlink" x="0px" y="0px"
	 viewBox="0 0 630.177 341.106" style="enable-background:new 0 0 630.177 341.106;" xml:space="preserve">
<g id="infinity">
	<g>
		<linearGradient id="SVGID_1_" gradientUnits="userSpaceOnUse" x1="305.646" y1="167.7703" x2="544.4485" y2="167.7703">
			<stop  offset="0" style="stop-color:#1A45FF"/>
			<stop  offset="1" style="stop-color:#1A4582"/>
		</linearGradient>
		<path style="fill:url(#SVGID_1_);" d="M431.054,281.175c62.527,0,113.395-50.87,113.395-113.395
			c0-62.527-50.868-113.397-113.395-113.397c0,0-37.198-1.263-64.269,17.864c-23.825,15.067-61.138,61.444-61.138,61.444
			c1.13,0,54.606-16.311,92.614-30.418c18.759-6.963,37.29-6.084,37.849-6.044c36.65,2.6,65.674,33.251,65.674,70.552
			c0,38.998-31.729,70.729-70.729,70.729V281.175z"/>
		<linearGradient id="SVGID_2_" gradientUnits="userSpaceOnUse" x1="180.1968" y1="167.7563" x2="544.6861" y2="167.7563">
			<stop  offset="0" style="stop-color:#1A4582"/>
			<stop  offset="1" style="stop-color:#1A45FF"/>
		</linearGradient>
		<path style="fill:url(#SVGID_2_);" d="M430.731,281.056c0.031,0,0.059,0,0.087,0c0,0,36.876,3.457,73.808-25.892
			c51.646-49.354,44.309-105.001,27.812-139.018c-15.602-32.173-42-44.934-42-44.934c-0.49-0.002,60.532,37.684,30.472,111.951
			c-11.802,25.341-41.72,40.205-57.575,47.538c-17.745,8.207-36.546,7.559-37.097,7.524c-11.503-0.746-28.587-4.086-36.635-11.377
			l-1.058-0.959l-1.179-0.811c-12.852-8.837-36.838-34.782-62.596-67.71l-6.406-8.191h-0.524
			c-16.888-21.418-39.24-48.894-68.895-73.239c-24.284-20.935-63.751-21.608-68.665-21.608c-0.029,0-0.058,0-0.084,0l0.034,21.347
			l-0.025,21.319c11.054,0.046,32.016,3.22,41.205,11.543l1.058,0.959l1.178,0.809c13.56,9.323,39.807,38.062,66.868,73.215
			l6.405,8.322h0.724c17.575,21.954,44.346,53.326,64.424,67.605C386.347,280.383,425.81,281.056,430.731,281.056z"/>
		<linearGradient id="SVGID_3_" gradientUnits="userSpaceOnUse" x1="66.8355" y1="167.7275" x2="436.577" y2="167.7275">
			<stop  offset="0" style="stop-color:#1A4582"/>
			<stop  offset="1" style="stop-color:#1A45FF"/>
		</linearGradient>
		<path style="fill:url(#SVGID_3_);" d="M180.231,281.175v-42.666c-38.999,0-70.728-31.73-70.728-70.729
			c0-39,31.729-70.73,70.728-70.73c0,0,10.763-0.095,26.016,3.884c3.328,0.868,17.821,6.424,39.929,31.418
			c28.014,27.075,64.918,66.979,98.453,87.313c53.133,32.218,91.948,18.09,91.948,18.09s-17.392,1.813-36.532-4.531
			c-15.647-7.996-36.229-26.777-58.17-54.694c-27.607-37.568-83.468-98.361-102.172-109.244
			c-29.397-17.252-60.458-14.898-60.733-14.896c-61.947,0.679-112.134,51.284-112.134,113.39
			C66.836,230.305,117.705,281.175,180.231,281.175z"/>
		<linearGradient id="SVGID_4_" gradientUnits="userSpaceOnUse" x1="66.2059" y1="167.7276" x2="430.8186" y2="167.7276">
			<stop  offset="0" style="stop-color:#1A45FF"/>
			<stop  offset="1" style="stop-color:#1A4582"/>
		</linearGradient>
		<path style="fill:url(#SVGID_4_);" d="M180.282,281.056c0.655,0,1.925-0.012,3.69-0.082c11.479-0.457,43.929-3.381,64.974-21.526
			c21.907-15.584,75.823-81.43,75.823-81.43c25.759-32.928,49.744-58.874,62.596-67.71l1.179-0.811l1.058-0.959
			c9.639-8.731,31.772-11.54,41.067-11.54c0.025,0,0.05,0,0.076,0l0.071-42.668c-0.027,0-0.056,0-0.086,0
			c-4.913,0-44.382,0.671-68.663,21.606c-20.078,14.281-46.85,45.651-64.425,67.604l-7.129,8.322
			c-27.059,35.155-53.307,63.892-66.867,73.215l-1.178,0.809l-1.059,0.961c-9.64,8.731-31.773,11.542-41.067,11.542
			c-0.026,0-0.051,0-0.077,0c0,0-51.703-2.513-75.874-32.875c-48.688-78.145,1.385-123.196,1.385-123.196
			c0.008,0-23.876,18.463-34.083,52.59c-10.506,35.126-11.126,86.649,46.273,128.73C145.513,283.187,180.27,281.056,180.282,281.056
			z"/>
		<g>
			<linearGradient id="SVGID_5_" gradientUnits="userSpaceOnUse" x1="535.567" y1="138.8545" x2="318.9272" y2="147.1232">
				<stop  offset="0" style="stop-color:#1A4582"/>
				<stop  offset="1" style="stop-color:#1A45FF"/>
			</linearGradient>
			<path style="fill:url(#SVGID_5_);" d="M436.108,97.228c1.153,0.082,2.299,0.192,3.436,0.328V54.699
				c-2.803-0.208-5.635-0.316-8.491-0.316c0,0-37.198-1.705-64.269,17.422c-31.797,23.779-61.138,61.886-61.138,61.886
				c-13.843,15.67-51.122,66.47-74.401,85.332c-28.105,27.76-72.45,16.164-72.45,16.164c0.449,0,43.756,22.797,113.003-24.366
				c55.478-36.28,103.539-99.041,126.462-107.549C417.019,96.31,435.549,97.188,436.108,97.228z"/>
		</g>
	</g>
	<g id="ItemPrecisar">
		<circle style="fill:#2EB1E8;" cx="210.698" cy="256.272" r="5.667"/>
		<line style="fill:#FFFFFF;stroke:#2EB1E8;stroke-miterlimit:10;" x1="209.5" y1="266.956" x2="209.5" y2="340.956"/>
		<g>
			<path style="fill:#2EB1E8;" d="M189.784,308.201c0,5.104-2.057,8.607-6.271,8.607c-4.266,0-6.145-3.834-6.17-8.506
				c0-4.773,2.031-8.557,6.297-8.557C188.057,299.746,189.784,303.681,189.784,308.201z M181.227,308.302
				c-0.025,3.783,0.889,5.586,2.387,5.586s2.311-1.879,2.311-5.637c0-3.656-0.787-5.586-2.336-5.586
				C182.167,302.666,181.202,304.468,181.227,308.302z"/>
			<path style="fill:#2EB1E8;" d="M196.61,303.453h-0.051l-3.148,1.498l-0.635-2.895l4.367-2.031h3.199v16.504h-3.732V303.453z"/>
			<path style="fill:#FFFFFF;" d="M131.751,325.584c0.795-0.136,1.912-0.237,3.486-0.237c1.591,0,2.725,0.305,3.486,0.914
				c0.728,0.575,1.218,1.522,1.218,2.64s-0.373,2.064-1.049,2.708c-0.88,0.829-2.183,1.201-3.706,1.201
				c-0.339,0-0.643-0.017-0.88-0.051v4.078h-2.555V325.584z M134.306,330.762c0.22,0.051,0.491,0.068,0.863,0.068
				c1.371,0,2.217-0.694,2.217-1.862c0-1.049-0.728-1.675-2.014-1.675c-0.525,0-0.88,0.051-1.066,0.102V330.762z"/>
			<path style="fill:#FFFFFF;" d="M141.583,325.584c0.829-0.136,2.064-0.237,3.436-0.237c1.692,0,2.876,0.254,3.689,0.897
				c0.677,0.541,1.049,1.337,1.049,2.386c0,1.455-1.032,2.453-2.014,2.809v0.051c0.795,0.322,1.235,1.083,1.523,2.133
				c0.355,1.286,0.711,2.774,0.931,3.215h-2.64c-0.186-0.321-0.457-1.252-0.795-2.657c-0.305-1.421-0.795-1.811-1.844-1.827h-0.779
				v4.484h-2.555V325.584z M144.139,330.492h1.016c1.286,0,2.047-0.644,2.047-1.642c0-1.049-0.71-1.573-1.895-1.591
				c-0.626,0-0.981,0.051-1.168,0.085V330.492z"/>
			<path style="fill:#FFFFFF;" d="M158.404,332.014h-4.196v2.708h4.687v2.115h-7.276v-11.405h7.04v2.115h-4.45v2.369h4.196V332.014z
				"/>
			<path style="fill:#FFFFFF;" d="M169.032,336.516c-0.474,0.236-1.54,0.49-2.927,0.49c-3.943,0-5.974-2.453-5.974-5.702
				c0-3.893,2.775-6.059,6.227-6.059c1.337,0,2.353,0.271,2.809,0.508l-0.524,2.048c-0.524-0.22-1.252-0.423-2.166-0.423
				c-2.047,0-3.638,1.235-3.638,3.773c0,2.284,1.354,3.723,3.655,3.723c0.778,0,1.641-0.169,2.149-0.372L169.032,336.516z"/>
			<path style="fill:#FFFFFF;" d="M173.314,325.432v11.405h-2.589v-11.405H173.314z"/>
			<path style="fill:#FFFFFF;" d="M175.633,334.18c0.693,0.355,1.76,0.711,2.859,0.711c1.185,0,1.811-0.49,1.811-1.235
				c0-0.71-0.542-1.116-1.912-1.607c-1.896-0.66-3.131-1.709-3.131-3.367c0-1.946,1.625-3.436,4.315-3.436
				c1.286,0,2.234,0.271,2.911,0.575l-0.575,2.082c-0.457-0.221-1.269-0.542-2.386-0.542c-1.117,0-1.659,0.508-1.659,1.101
				c0,0.728,0.643,1.049,2.115,1.607c2.014,0.744,2.961,1.794,2.961,3.401c0,1.912-1.472,3.536-4.603,3.536
				c-1.303,0-2.589-0.338-3.232-0.693L175.633,334.18z"/>
			<path style="fill:#FFFFFF;" d="M187.343,333.91l-0.812,2.928h-2.674l3.486-11.405h3.385l3.537,11.405h-2.775l-0.88-2.928H187.343
				z M190.237,331.981l-0.711-2.42c-0.203-0.677-0.406-1.523-0.575-2.2h-0.034c-0.169,0.677-0.338,1.54-0.524,2.2l-0.677,2.42
				H190.237z"/>
			<path style="fill:#FFFFFF;" d="M195.788,325.584c0.829-0.136,2.064-0.237,3.436-0.237c1.692,0,2.876,0.254,3.689,0.897
				c0.677,0.541,1.049,1.337,1.049,2.386c0,1.455-1.032,2.453-2.014,2.809v0.051c0.795,0.322,1.235,1.083,1.523,2.133
				c0.355,1.286,0.711,2.774,0.931,3.215h-2.64c-0.186-0.321-0.457-1.252-0.795-2.657c-0.305-1.421-0.795-1.811-1.844-1.827h-0.779
				v4.484h-2.555V325.584z M198.343,330.492h1.016c1.286,0,2.047-0.644,2.047-1.642c0-1.049-0.71-1.573-1.895-1.591
				c-0.626,0-0.981,0.051-1.168,0.085V330.492z"/>
		</g>
		<rect x="124.411" y="295.106" style="fill:#2EB1E8;fill-opacity:0.01;" width="85.5" height="46"/>
	</g>
	<g id="ItemEscolher">
		<g>
			<circle style="fill:#2EB1E8;" cx="114.532" cy="239.105" r="5.667"/>
			<line style="fill:#FFFFFF;stroke:#2EB1E8;stroke-miterlimit:10;" x1="104" y1="238.456" x2="6" y2="238.456"/>
		</g>
		<g>
			<path style="fill:#2EB1E8;" d="M18.612,251.948c0,4.671-1.882,7.878-5.74,7.878c-3.904,0-5.624-3.51-5.647-7.785
				c0-4.369,1.859-7.832,5.763-7.832C17.032,244.208,18.612,247.811,18.612,251.948z M10.78,252.041
				c-0.023,3.463,0.813,5.112,2.185,5.112s2.115-1.72,2.115-5.159c0-3.347-0.721-5.112-2.138-5.112
				C11.64,246.881,10.757,248.531,10.78,252.041z"/>
			<path style="fill:#2EB1E8;" d="M20.356,259.57v-2.138l1.952-1.767c3.3-2.951,4.903-4.647,4.95-6.414
				c0-1.231-0.744-2.208-2.486-2.208c-1.302,0-2.44,0.651-3.23,1.256l-0.999-2.533c1.139-0.86,2.905-1.558,4.95-1.558
				c3.416,0,5.299,1.999,5.299,4.741c0,2.533-1.836,4.555-4.021,6.507l-1.395,1.162v0.046h5.694v2.905H20.356z"/>
			<path style="fill:#FFFFFF;" d="M7.503,267.865c0.728-0.124,1.75-0.218,3.191-0.218c1.456,0,2.493,0.279,3.19,0.837
				c0.666,0.526,1.115,1.394,1.115,2.416s-0.34,1.89-0.96,2.478c-0.806,0.76-1.998,1.1-3.392,1.1c-0.31,0-0.588-0.015-0.805-0.046
				v3.732H7.503V267.865z M9.842,272.603c0.201,0.047,0.449,0.062,0.79,0.062c1.254,0,2.029-0.635,2.029-1.704
				c0-0.96-0.666-1.533-1.843-1.533c-0.48,0-0.805,0.047-0.976,0.093V272.603z"/>
			<path style="fill:#FFFFFF;" d="M22.716,273.75h-3.841v2.479h4.291v1.936h-6.66v-10.438h6.443v1.936h-4.073v2.169h3.841V273.75z"
				/>
			<path style="fill:#FFFFFF;" d="M24.857,275.732c0.635,0.325,1.611,0.65,2.618,0.65c1.084,0,1.657-0.449,1.657-1.131
				c0-0.65-0.496-1.021-1.75-1.471c-1.734-0.604-2.865-1.564-2.865-3.082c0-1.781,1.487-3.145,3.95-3.145
				c1.177,0,2.044,0.248,2.664,0.527l-0.526,1.904c-0.418-0.201-1.162-0.495-2.184-0.495c-1.022,0-1.518,0.465-1.518,1.007
				c0,0.666,0.588,0.96,1.936,1.471c1.843,0.682,2.71,1.642,2.71,3.113c0,1.75-1.348,3.237-4.213,3.237
				c-1.192,0-2.37-0.311-2.958-0.636L24.857,275.732z"/>
			<path style="fill:#FFFFFF;" d="M42.068,279.96c-1.487-0.434-2.726-0.883-4.12-1.472c-0.232-0.093-0.48-0.14-0.728-0.155
				c-2.354-0.154-4.553-1.889-4.553-5.296c0-3.129,1.982-5.483,5.096-5.483c3.19,0,4.94,2.416,4.94,5.267
				c0,2.369-1.1,4.042-2.478,4.661v0.062c0.805,0.232,1.704,0.418,2.524,0.588L42.068,279.96z M40.209,272.914
				c0-1.905-0.898-3.485-2.509-3.485c-1.611,0-2.54,1.58-2.54,3.531c-0.016,1.982,0.945,3.5,2.524,3.5
				C39.28,276.459,40.209,274.958,40.209,272.914z"/>
			<path style="fill:#FFFFFF;" d="M46.611,267.725v6.009c0,1.797,0.681,2.711,1.889,2.711c1.239,0,1.921-0.868,1.921-2.711v-6.009
				h2.354v5.854c0,3.221-1.626,4.754-4.352,4.754c-2.633,0-4.182-1.455-4.182-4.785v-5.823H46.611z"/>
			<path style="fill:#FFFFFF;" d="M57.194,267.725v10.438h-2.37v-10.438H57.194z"/>
			<path style="fill:#FFFFFF;" d="M59.318,275.732c0.635,0.325,1.611,0.65,2.617,0.65c1.084,0,1.657-0.449,1.657-1.131
				c0-0.65-0.496-1.021-1.75-1.471c-1.734-0.604-2.865-1.564-2.865-3.082c0-1.781,1.487-3.145,3.949-3.145
				c1.177,0,2.044,0.248,2.664,0.527l-0.526,1.904c-0.418-0.201-1.162-0.495-2.184-0.495c-1.022,0-1.518,0.465-1.518,1.007
				c0,0.666,0.588,0.96,1.936,1.471c1.843,0.682,2.71,1.642,2.71,3.113c0,1.75-1.348,3.237-4.213,3.237
				c-1.192,0-2.37-0.311-2.958-0.636L59.318,275.732z"/>
			<path style="fill:#FFFFFF;" d="M70.039,275.484l-0.743,2.68h-2.447l3.19-10.438h3.098l3.237,10.438h-2.54l-0.805-2.68H70.039z
				 M72.688,273.718l-0.65-2.215c-0.186-0.619-0.372-1.394-0.526-2.013h-0.031c-0.155,0.619-0.31,1.409-0.48,2.013l-0.62,2.215
				H72.688z"/>
			<path style="fill:#FFFFFF;" d="M77.772,267.865c0.759-0.124,1.89-0.218,3.144-0.218c1.549,0,2.633,0.232,3.376,0.821
				c0.62,0.496,0.96,1.224,0.96,2.184c0,1.332-0.945,2.246-1.843,2.571v0.046c0.728,0.295,1.131,0.991,1.394,1.952
				c0.325,1.177,0.65,2.54,0.852,2.942h-2.416c-0.17-0.294-0.418-1.146-0.728-2.432c-0.279-1.301-0.728-1.657-1.688-1.673h-0.712
				v4.104h-2.339V267.865z M80.111,272.356h0.929c1.177,0,1.874-0.589,1.874-1.503c0-0.96-0.65-1.44-1.734-1.455
				c-0.573,0-0.898,0.046-1.069,0.077V272.356z"/>
		</g>
		<rect y="240.071" style="fill:#2EB1E8;fill-opacity:0.01;" width="85.5" height="46"/>
	</g>
	<g id="ItemEscolher_1_">
		<g>
			<circle style="fill:#2EB1E8;" cx="114.032" cy="106.605" r="5.667"/>
			<line style="fill:#FFFFFF;stroke:#2EB1E8;stroke-miterlimit:10;" x1="103" y1="106.456" x2="3" y2="106.456"/>
		</g>
		<g>
			<path style="fill:#2EB1E8;" d="M11.195,119.437c0,3.978-1.603,6.709-4.888,6.709c-3.325,0-4.789-2.988-4.809-6.63
				c0-3.721,1.583-6.669,4.908-6.669C9.849,112.847,11.195,115.914,11.195,119.437z M4.525,119.516
				c-0.02,2.949,0.693,4.354,1.86,4.354c1.168,0,1.801-1.465,1.801-4.394c0-2.85-0.614-4.354-1.821-4.354
				C5.258,115.123,4.506,116.528,4.525,119.516z"/>
			<path style="fill:#2EB1E8;" d="M13.215,122.979c0.534,0.277,1.761,0.792,2.988,0.792c1.563,0,2.355-0.752,2.355-1.722
				c0-1.267-1.267-1.841-2.592-1.841h-1.227v-2.157h1.167c1.009-0.02,2.296-0.396,2.296-1.484c0-0.772-0.633-1.346-1.9-1.346
				c-1.049,0-2.157,0.455-2.692,0.771l-0.613-2.177c0.772-0.495,2.315-0.97,3.978-0.97c2.75,0,4.274,1.445,4.274,3.206
				c0,1.366-0.771,2.434-2.355,2.988v0.04c1.544,0.277,2.791,1.445,2.791,3.127c0,2.276-1.999,3.938-5.264,3.938
				c-1.663,0-3.068-0.436-3.82-0.911L13.215,122.979z"/>
			<path style="fill:#FFFFFF;" d="M7.028,138.001H3.755v2.112h3.656v1.65H1.735v-8.896h5.491v1.65H3.755v1.848h3.273V138.001z"/>
			<path style="fill:#FFFFFF;" d="M8.848,139.691c0.542,0.277,1.373,0.554,2.231,0.554c0.924,0,1.412-0.382,1.412-0.963
				c0-0.554-0.422-0.871-1.492-1.254c-1.478-0.515-2.441-1.333-2.441-2.626c0-1.518,1.267-2.679,3.366-2.679
				c1.003,0,1.742,0.211,2.27,0.449l-0.449,1.624c-0.356-0.172-0.99-0.423-1.861-0.423s-1.293,0.396-1.293,0.858
				c0,0.567,0.502,0.818,1.65,1.254c1.571,0.581,2.31,1.399,2.31,2.653c0,1.491-1.148,2.758-3.59,2.758
				c-1.016,0-2.02-0.264-2.521-0.541L8.848,139.691z"/>
			<path style="fill:#FFFFFF;" d="M22.441,141.512c-0.37,0.185-1.201,0.383-2.284,0.383c-3.075,0-4.659-1.914-4.659-4.448
				c0-3.036,2.165-4.725,4.857-4.725c1.042,0,1.834,0.211,2.191,0.396l-0.409,1.597c-0.409-0.171-0.977-0.33-1.689-0.33
				c-1.597,0-2.838,0.963-2.838,2.943c0,1.782,1.056,2.903,2.851,2.903c0.607,0,1.28-0.132,1.676-0.29L22.441,141.512z"/>
			<path style="fill:#FFFFFF;" d="M31.507,137.223c0,2.917-1.769,4.686-4.369,4.686c-2.64,0-4.184-1.993-4.184-4.527
				c0-2.667,1.703-4.659,4.329-4.659C30.016,132.722,31.507,134.768,31.507,137.223z M25.079,137.342c0,1.742,0.818,2.97,2.165,2.97
				c1.359,0,2.138-1.293,2.138-3.023c0-1.597-0.765-2.97-2.151-2.97C25.871,134.319,25.079,135.612,25.079,137.342z"/>
			<path style="fill:#FFFFFF;" d="M32.825,132.867h2.02v7.207h3.537v1.689h-5.557V132.867z"/>
			<path style="fill:#FFFFFF;" d="M41.587,132.867v3.418H44.9v-3.418h2.006v8.896H44.9v-3.722h-3.313v3.722h-2.02v-8.896H41.587z"/>
			<path style="fill:#FFFFFF;" d="M53.952,138.001h-3.273v2.112h3.656v1.65h-5.675v-8.896h5.491v1.65h-3.471v1.848h3.273V138.001z"
				/>
			<path style="fill:#FFFFFF;" d="M55.706,132.986c0.647-0.105,1.61-0.185,2.679-0.185c1.32,0,2.244,0.198,2.877,0.699
				c0.528,0.422,0.818,1.043,0.818,1.861c0,1.135-0.805,1.914-1.571,2.191v0.04c0.621,0.251,0.964,0.845,1.188,1.663
				c0.277,1.003,0.555,2.165,0.726,2.508h-2.059c-0.145-0.251-0.356-0.977-0.62-2.072c-0.238-1.109-0.621-1.412-1.439-1.425h-0.607
				v3.498h-1.993V132.986z M57.699,136.813h0.792c1.003,0,1.597-0.501,1.597-1.28c0-0.818-0.554-1.228-1.478-1.241
				c-0.488,0-0.766,0.04-0.911,0.066V136.813z"/>
		</g>
		<rect x="1.492" y="108.106" style="fill:#2EB1E8;fill-opacity:0.01;" width="85.5" height="46"/>
	</g>
	<g id="ItemComprar">
		<g>
			<circle style="fill:#2EB1E8;" cx="210.698" cy="80.938" r="5.667"/>
			<line style="fill:#FFFFFF;stroke:#2EB1E8;stroke-miterlimit:10;" x1="210.5" y1="70.956" x2="210.5" y2="0.956"/>
		</g>
		<g>
			<path style="fill:#2EB1E8;" d="M192.148,9.31c0,4.321-1.741,7.288-5.31,7.288c-3.612,0-5.203-3.246-5.225-7.202
				c0-4.042,1.72-7.246,5.332-7.246C190.687,2.15,192.148,5.482,192.148,9.31z M184.903,9.396c-0.021,3.204,0.752,4.73,2.021,4.73
				s1.957-1.591,1.957-4.773c0-3.096-0.667-4.73-1.978-4.73C185.699,4.623,184.882,6.149,184.903,9.396z"/>
			<path style="fill:#2EB1E8;" d="M199.547,16.361v-3.333h-6.192V10.9l5.289-8.514h3.999v8.191h1.677v2.451h-1.677v3.333H199.547z
				 M199.547,10.578V7.482c0-0.838,0.043-1.698,0.107-2.602h-0.086c-0.452,0.903-0.817,1.72-1.29,2.602l-1.871,3.053v0.043H199.547z
				"/>
			<path style="fill:#FFFFFF;" d="M147.47,33.292c-0.401,0.201-1.305,0.416-2.481,0.416c-3.342,0-5.063-2.08-5.063-4.834
				c0-3.299,2.353-5.135,5.278-5.135c1.133,0,1.994,0.229,2.381,0.43l-0.444,1.736c-0.445-0.187-1.062-0.359-1.836-0.359
				c-1.736,0-3.084,1.047-3.084,3.199c0,1.937,1.147,3.155,3.098,3.155c0.66,0,1.391-0.143,1.822-0.315L147.47,33.292z"/>
			<path style="fill:#FFFFFF;" d="M157.319,28.631c0,3.17-1.922,5.092-4.748,5.092c-2.869,0-4.547-2.166-4.547-4.919
				c0-2.897,1.851-5.063,4.705-5.063C155.699,23.74,157.319,25.963,157.319,28.631z M150.334,28.76c0,1.894,0.889,3.228,2.352,3.228
				c1.478,0,2.324-1.406,2.324-3.285c0-1.735-0.832-3.228-2.338-3.228C151.195,25.475,150.334,26.881,150.334,28.76z"/>
			<path style="fill:#FFFFFF;" d="M166.924,29.864c-0.043-1.162-0.086-2.567-0.086-3.973h-0.043
				c-0.301,1.234-0.703,2.611-1.076,3.744l-1.176,3.772h-1.707l-1.033-3.744c-0.316-1.133-0.646-2.51-0.875-3.772H160.9
				c-0.057,1.306-0.101,2.797-0.172,4.002l-0.172,3.672h-2.022l0.617-9.667h2.912l0.947,3.228c0.301,1.119,0.603,2.323,0.818,3.457
				h0.043c0.272-1.119,0.602-2.396,0.918-3.471l1.033-3.213h2.854l0.531,9.667h-2.137L166.924,29.864z"/>
			<path style="fill:#FFFFFF;" d="M170.877,24.027c0.674-0.115,1.621-0.201,2.955-0.201c1.348,0,2.309,0.258,2.955,0.775
				c0.617,0.487,1.033,1.291,1.033,2.237s-0.315,1.75-0.889,2.295c-0.746,0.703-1.85,1.019-3.141,1.019
				c-0.287,0-0.545-0.015-0.746-0.043v3.457h-2.166V24.027z M173.043,28.416c0.187,0.043,0.416,0.058,0.732,0.058
				c1.162,0,1.879-0.588,1.879-1.578c0-0.89-0.617-1.42-1.707-1.42c-0.445,0-0.746,0.043-0.904,0.086V28.416z"/>
			<path style="fill:#FFFFFF;" d="M179.207,24.027c0.703-0.115,1.75-0.201,2.912-0.201c1.434,0,2.438,0.215,3.127,0.76
				c0.574,0.459,0.889,1.133,0.889,2.022c0,1.233-0.875,2.08-1.707,2.381v0.043c0.674,0.272,1.047,0.918,1.291,1.807
				c0.301,1.09,0.603,2.352,0.789,2.725h-2.238c-0.158-0.272-0.387-1.062-0.674-2.252c-0.258-1.205-0.674-1.535-1.563-1.549h-0.66
				v3.801h-2.166V24.027z M181.372,28.186h0.861c1.09,0,1.735-0.545,1.735-1.391c0-0.889-0.603-1.334-1.606-1.348
				c-0.531,0-0.832,0.043-0.99,0.072V28.186z"/>
			<path style="fill:#FFFFFF;" d="M190.088,31.083l-0.688,2.481h-2.267l2.955-9.667h2.869l2.998,9.667h-2.353l-0.746-2.481H190.088z
				 M192.541,29.448l-0.603-2.051c-0.172-0.574-0.344-1.291-0.488-1.865h-0.028c-0.144,0.574-0.287,1.305-0.445,1.865l-0.574,2.051
				H192.541z"/>
			<path style="fill:#FFFFFF;" d="M197.241,24.027c0.703-0.115,1.75-0.201,2.912-0.201c1.434,0,2.438,0.215,3.127,0.76
				c0.574,0.459,0.889,1.133,0.889,2.022c0,1.233-0.875,2.08-1.707,2.381v0.043c0.674,0.272,1.047,0.918,1.291,1.807
				c0.301,1.09,0.603,2.352,0.789,2.725h-2.238c-0.158-0.272-0.387-1.062-0.674-2.252c-0.258-1.205-0.674-1.535-1.563-1.549h-0.66
				v3.801h-2.166V24.027z M199.407,28.186h0.861c1.09,0,1.735-0.545,1.735-1.391c0-0.889-0.602-1.334-1.606-1.348
				c-0.531,0-0.832,0.043-0.99,0.072V28.186z"/>
		</g>
		<rect x="123.75" y="0.339" style="fill:#2EB1E8;fill-opacity:0.01;" width="85.5" height="46"/>
	</g>
	<g id="ItemReceber">
		<circle style="fill:#2EB1E8;" cx="404.698" cy="259.272" r="5.667"/>
		<line style="fill:#FFFFFF;stroke:#2EB1E8;stroke-miterlimit:10;" x1="403.5" y1="269.956" x2="403.5" y2="339.956"/>
		<g>
			<path style="fill:#2EB1E8;" d="M422.321,311.489c0,4.604-1.855,7.765-5.657,7.765c-3.849,0-5.543-3.458-5.565-7.673
				c0-4.306,1.832-7.719,5.68-7.719C420.763,303.862,422.321,307.413,422.321,311.489z M414.602,311.581
				c-0.023,3.413,0.802,5.039,2.152,5.039c1.352,0,2.085-1.695,2.085-5.085c0-3.298-0.71-5.038-2.107-5.038
				C415.45,306.497,414.579,308.123,414.602,311.581z"/>
			<path style="fill:#2EB1E8;" d="M433.982,306.977h-5.772l-0.32,2.29c0.32-0.045,0.596-0.045,0.962-0.045
				c1.42,0,2.863,0.32,3.917,1.076c1.122,0.756,1.809,1.992,1.809,3.733c0,2.771-2.382,5.222-6.39,5.222
				c-1.81,0-3.321-0.412-4.146-0.848l0.618-2.61c0.664,0.32,2.016,0.732,3.367,0.732c1.442,0,2.978-0.688,2.978-2.268
				c0-1.534-1.214-2.474-4.191-2.474c-0.824,0-1.397,0.046-2.016,0.138l0.984-7.811h8.2V306.977z"/>
			<path style="fill:#FFFFFF;" d="M411.373,327.172c0.749-0.122,1.863-0.214,3.101-0.214c1.527,0,2.597,0.229,3.33,0.81
				c0.611,0.488,0.947,1.207,0.947,2.153c0,1.313-0.932,2.215-1.818,2.536v0.046c0.719,0.29,1.115,0.978,1.375,1.924
				c0.321,1.161,0.642,2.505,0.84,2.902h-2.383c-0.168-0.29-0.412-1.13-0.718-2.398c-0.274-1.282-0.718-1.634-1.665-1.649h-0.702
				v4.048h-2.307V327.172z M413.679,331.602h0.916c1.161,0,1.849-0.581,1.849-1.481c0-0.947-0.642-1.421-1.711-1.437
				c-0.564,0-0.886,0.046-1.054,0.077V331.602z"/>
			<path style="fill:#FFFFFF;" d="M426.555,332.976h-3.788v2.444h4.231v1.909h-6.568v-10.295h6.354v1.909h-4.018v2.139h3.788
				V332.976z"/>
			<path style="fill:#FFFFFF;" d="M436.146,337.04c-0.428,0.214-1.39,0.442-2.642,0.442c-3.56,0-5.393-2.214-5.393-5.146
				c0-3.514,2.505-5.469,5.621-5.469c1.207,0,2.123,0.244,2.536,0.458l-0.474,1.849c-0.474-0.198-1.131-0.382-1.955-0.382
				c-1.849,0-3.284,1.115-3.284,3.406c0,2.062,1.222,3.36,3.299,3.36c0.703,0,1.481-0.153,1.94-0.336L436.146,337.04z"/>
			<path style="fill:#FFFFFF;" d="M443.798,332.976h-3.788v2.444h4.231v1.909h-6.568v-10.295h6.354v1.909h-4.018v2.139h3.788
				V332.976z"/>
			<path style="fill:#FFFFFF;" d="M445.83,327.172c0.611-0.122,1.849-0.214,3.009-0.214c1.421,0,2.292,0.138,3.04,0.58
				c0.718,0.382,1.237,1.085,1.237,2.017c0,0.916-0.535,1.771-1.695,2.199v0.03c1.176,0.321,2.047,1.207,2.047,2.536
				c0,0.932-0.428,1.665-1.069,2.184c-0.749,0.596-2.001,0.932-4.048,0.932c-1.146,0-2.001-0.076-2.521-0.152V327.172z
				 M448.136,331.113h0.764c1.222,0,1.879-0.504,1.879-1.268c0-0.779-0.596-1.191-1.649-1.191c-0.504,0-0.795,0.03-0.993,0.062
				V331.113z M448.136,335.68c0.229,0.03,0.504,0.03,0.901,0.03c1.054,0,1.985-0.397,1.985-1.481c0-1.039-0.932-1.451-2.093-1.451
				h-0.794V335.68z"/>
			<path style="fill:#FFFFFF;" d="M461.18,332.976h-3.788v2.444h4.231v1.909h-6.568v-10.295h6.354v1.909h-4.018v2.139h3.788V332.976
				z"/>
			<path style="fill:#FFFFFF;" d="M463.21,327.172c0.749-0.122,1.863-0.214,3.101-0.214c1.527,0,2.597,0.229,3.33,0.81
				c0.611,0.488,0.947,1.207,0.947,2.153c0,1.313-0.932,2.215-1.818,2.536v0.046c0.719,0.29,1.115,0.978,1.375,1.924
				c0.321,1.161,0.642,2.505,0.84,2.902h-2.383c-0.168-0.29-0.412-1.13-0.718-2.398c-0.274-1.282-0.718-1.634-1.665-1.649h-0.702
				v4.048h-2.307V327.172z M465.517,331.602h0.916c1.161,0,1.849-0.581,1.849-1.481c0-0.947-0.642-1.421-1.711-1.437
				c-0.564,0-0.886,0.046-1.054,0.077V331.602z"/>
		</g>
		<rect x="406.898" y="293.529" style="fill:#2EB1E8;fill-opacity:0.01;" width="85.5" height="46"/>
	</g>
	<g id="ItemUsar">
		<g>
			<circle style="fill:#2EB1E8;" cx="511.148" cy="216.605" r="5.667"/>
			<line style="fill:#FFFFFF;stroke:#2EB1E8;stroke-miterlimit:10;" x1="521" y1="217.456" x2="628" y2="217.456"/>
		</g>
		<g>
			<path style="fill:#2EB1E8;" d="M615.52,230.582c0,4.43-1.785,7.47-5.442,7.47c-3.702,0-5.332-3.327-5.354-7.381
				c0-4.143,1.763-7.426,5.465-7.426C614.021,223.245,615.52,226.66,615.52,230.582z M608.094,230.67
				c-0.021,3.283,0.771,4.847,2.071,4.847s2.005-1.63,2.005-4.891c0-3.173-0.683-4.848-2.027-4.848
				C608.91,225.779,608.073,227.343,608.094,230.67z"/>
			<path style="fill:#2EB1E8;" d="M626.319,225.867c-0.375-0.021-0.771,0-1.3,0.044c-2.975,0.242-4.297,1.763-4.671,3.438h0.065
				c0.705-0.728,1.697-1.146,3.041-1.146c2.401,0,4.429,1.696,4.429,4.671c0,2.843-2.182,5.178-5.288,5.178
				c-3.812,0-5.685-2.842-5.685-6.258c0-2.688,0.991-4.936,2.534-6.367c1.432-1.3,3.282-2.005,5.53-2.115
				c0.617-0.044,1.014-0.044,1.344-0.022V225.867z M624.49,233.05c0-1.322-0.705-2.469-2.137-2.469
				c-0.903,0-1.652,0.552-1.983,1.278c-0.088,0.177-0.132,0.44-0.132,0.837c0.065,1.521,0.793,2.887,2.313,2.887
				C623.741,235.583,624.49,234.504,624.49,233.05z"/>
			<path style="fill:#FFFFFF;" d="M595.378,245.537v5.702c0,1.704,0.646,2.571,1.793,2.571c1.176,0,1.822-0.823,1.822-2.571v-5.702
				h2.233v5.555c0,3.057-1.543,4.512-4.129,4.512c-2.498,0-3.968-1.382-3.968-4.541v-5.525H595.378z"/>
			<path style="fill:#FFFFFF;" d="M603.239,253.134c0.603,0.309,1.528,0.617,2.483,0.617c1.029,0,1.572-0.427,1.572-1.073
				c0-0.617-0.47-0.97-1.66-1.396c-1.646-0.573-2.719-1.484-2.719-2.925c0-1.689,1.411-2.982,3.747-2.982
				c1.117,0,1.939,0.235,2.527,0.499l-0.499,1.808c-0.397-0.19-1.103-0.47-2.072-0.47s-1.439,0.44-1.439,0.955
				c0,0.632,0.558,0.911,1.836,1.396c1.749,0.646,2.572,1.558,2.572,2.954c0,1.66-1.278,3.07-3.997,3.07
				c-1.132,0-2.248-0.293-2.807-0.602L603.239,253.134z"/>
			<path style="fill:#FFFFFF;" d="M613.406,252.899l-0.705,2.542h-2.321l3.026-9.904h2.939l3.071,9.904h-2.41l-0.764-2.542H613.406z
				 M615.918,251.224l-0.617-2.102c-0.176-0.588-0.353-1.322-0.499-1.91h-0.029c-0.147,0.588-0.294,1.337-0.456,1.91l-0.588,2.102
				H615.918z"/>
			<path style="fill:#FFFFFF;" d="M620.738,245.669c0.72-0.118,1.793-0.206,2.983-0.206c1.469,0,2.498,0.221,3.203,0.779
				c0.588,0.47,0.911,1.16,0.911,2.071c0,1.264-0.896,2.131-1.749,2.439v0.044c0.69,0.279,1.073,0.94,1.322,1.852
				c0.309,1.117,0.617,2.41,0.809,2.792h-2.292c-0.162-0.279-0.397-1.087-0.691-2.307c-0.264-1.234-0.69-1.572-1.602-1.587h-0.676
				v3.894h-2.219V245.669z M622.957,249.93h0.882c1.117,0,1.778-0.558,1.778-1.425c0-0.911-0.617-1.366-1.646-1.382
				c-0.543,0-0.852,0.045-1.014,0.074V249.93z"/>
		</g>
		<rect x="544.677" y="217.695" style="fill:#2EB1E8;fill-opacity:0.01;" width="85.5" height="46"/>
	</g>
	<g id="ItemManter">
		<g>
			<circle style="fill:#2EB1E8;" cx="505.148" cy="106.605" r="5.667"/>
			<line style="fill:#FFFFFF;stroke:#2EB1E8;stroke-miterlimit:10;" x1="515" y1="107.456" x2="622" y2="107.456"/>
		</g>
		<g>
			<path style="fill:#2EB1E8;" d="M609.542,120.562c0,4.426-1.783,7.464-5.438,7.464c-3.698,0-5.328-3.325-5.351-7.376
				c0-4.14,1.762-7.42,5.461-7.42C608.044,113.23,609.542,116.644,609.542,120.562z M602.122,120.651
				c-0.021,3.281,0.771,4.844,2.07,4.844c1.299,0,2.003-1.629,2.003-4.888c0-3.17-0.683-4.844-2.025-4.844
				C602.936,115.763,602.1,117.326,602.122,120.651z"/>
			<path style="fill:#2EB1E8;" d="M621.45,113.473v2.114l-5.901,12.198h-3.545l5.901-11.516v-0.044h-6.562v-2.752H621.45z"/>
			<path style="fill:#FFFFFF;" d="M575.116,141.607c-0.044-1.189-0.088-2.627-0.088-4.066h-0.044
				c-0.309,1.262-0.72,2.671-1.102,3.831l-1.203,3.86h-1.747l-1.057-3.831c-0.323-1.16-0.661-2.569-0.896-3.86h-0.029
				c-0.059,1.335-0.103,2.862-0.177,4.095l-0.176,3.758h-2.069l0.631-9.894h2.979l0.969,3.303c0.309,1.145,0.617,2.378,0.837,3.538
				h0.044c0.279-1.145,0.617-2.451,0.939-3.552l1.057-3.288h2.922l0.543,9.894h-2.188L575.116,141.607z"/>
			<path style="fill:#FFFFFF;" d="M581.423,142.854l-0.705,2.54H578.4l3.023-9.894h2.936l3.068,9.894h-2.407l-0.764-2.54H581.423z
				 M583.933,141.181l-0.616-2.099c-0.176-0.587-0.353-1.321-0.499-1.908h-0.029c-0.146,0.587-0.294,1.336-0.455,1.908l-0.587,2.099
				H583.933z"/>
			<path style="fill:#FFFFFF;" d="M588.746,145.394V135.5h2.613l2.055,3.625c0.587,1.042,1.175,2.275,1.614,3.391h0.045
				c-0.147-1.307-0.191-2.643-0.191-4.125V135.5h2.055v9.894h-2.348l-2.114-3.816c-0.587-1.057-1.233-2.334-1.718-3.494
				l-0.044,0.015c0.059,1.306,0.088,2.701,0.088,4.315v2.98H588.746z"/>
			<path style="fill:#FFFFFF;" d="M600.779,137.379h-2.657V135.5h7.604v1.879h-2.701v8.015h-2.246V137.379z"/>
			<path style="fill:#FFFFFF;" d="M612.798,141.21h-3.641v2.349h4.065v1.835h-6.312V135.5h6.106v1.835h-3.86v2.055h3.641V141.21z"/>
			<path style="fill:#FFFFFF;" d="M614.748,135.632c0.72-0.117,1.791-0.205,2.979-0.205c1.469,0,2.496,0.22,3.2,0.778
				c0.587,0.47,0.91,1.16,0.91,2.07c0,1.262-0.896,2.128-1.747,2.437v0.044c0.69,0.279,1.072,0.939,1.321,1.85
				c0.309,1.116,0.617,2.407,0.808,2.789h-2.29c-0.161-0.279-0.396-1.086-0.689-2.305c-0.265-1.233-0.69-1.57-1.601-1.585h-0.675
				v3.89h-2.217V135.632z M616.964,139.89h0.881c1.115,0,1.775-0.558,1.775-1.424c0-0.91-0.616-1.365-1.644-1.379
				c-0.543,0-0.852,0.044-1.013,0.073V139.89z"/>
		</g>
		<rect x="540.164" y="108.106" style="fill:#2EB1E8;fill-opacity:0.01;" width="85.5" height="46"/>
	</g>
	<g id="ItemREcomendar">
		<g>
			<circle style="fill:#2EB1E8;" cx="404.698" cy="78.938" r="5.667"/>
			<line style="fill:#FFFFFF;stroke:#2EB1E8;stroke-miterlimit:10;" x1="404.5" y1="68.956" x2="404.5" y2="0.956"/>
		</g>
		<g>
			<path style="fill:#2EB1E8;" d="M421.066,10.347c0,4.34-1.749,7.319-5.333,7.319c-3.627,0-5.225-3.26-5.246-7.233
				c0-4.059,1.727-7.276,5.354-7.276C419.598,3.157,421.066,6.504,421.066,10.347z M413.79,10.434
				c-0.021,3.217,0.756,4.75,2.03,4.75c1.273,0,1.964-1.598,1.964-4.793c0-3.109-0.669-4.75-1.986-4.75
				C414.588,5.641,413.768,7.173,413.79,10.434z"/>
			<path style="fill:#2EB1E8;" d="M422.467,13.759c0-1.684,0.971-2.85,2.504-3.52v-0.065c-1.36-0.69-2.029-1.835-2.029-3.066
				c0-2.375,2.138-3.951,4.944-3.951c3.282,0,4.642,1.9,4.642,3.606c0,1.209-0.647,2.396-2.029,3.087v0.065
				c1.36,0.518,2.569,1.684,2.569,3.498c0,2.548-2.138,4.253-5.397,4.253C424.108,17.667,422.467,15.659,422.467,13.759z
				 M429.721,13.651c0-1.231-0.906-1.965-2.202-2.311c-1.079,0.302-1.706,1.08-1.706,2.095c-0.021,1.015,0.756,1.964,1.987,1.964
				C428.965,15.399,429.721,14.644,429.721,13.651z M426.03,7c0,0.95,0.863,1.555,1.986,1.9c0.755-0.216,1.425-0.907,1.425-1.792
				c0-0.863-0.497-1.727-1.706-1.727C426.612,5.381,426.03,6.115,426.03,7z"/>
			<path style="fill:#FFFFFF;" d="M410.745,25.129c0.705-0.115,1.756-0.201,2.922-0.201c1.438,0,2.445,0.216,3.137,0.763
				c0.575,0.46,0.892,1.137,0.892,2.029c0,1.237-0.878,2.086-1.712,2.388v0.043c0.676,0.273,1.05,0.921,1.295,1.813
				c0.302,1.094,0.604,2.36,0.791,2.734h-2.244c-0.158-0.273-0.389-1.065-0.677-2.259c-0.259-1.208-0.676-1.54-1.568-1.554h-0.662
				v3.813h-2.173V25.129z M412.917,29.302h0.863c1.094,0,1.741-0.547,1.741-1.396c0-0.892-0.604-1.338-1.611-1.353
				c-0.532,0-0.835,0.043-0.993,0.072V29.302z"/>
			<path style="fill:#FFFFFF;" d="M425.048,30.597h-3.568v2.302h3.985v1.799h-6.188V25h5.986v1.799h-3.784v2.014h3.568V30.597z"/>
			<path style="fill:#FFFFFF;" d="M434.086,34.425c-0.403,0.202-1.31,0.417-2.489,0.417c-3.353,0-5.079-2.086-5.079-4.849
				c0-3.31,2.359-5.151,5.295-5.151c1.137,0,2,0.23,2.389,0.432l-0.446,1.741c-0.446-0.187-1.064-0.36-1.842-0.36
				c-1.741,0-3.094,1.05-3.094,3.209c0,1.942,1.151,3.166,3.108,3.166c0.662,0,1.396-0.144,1.827-0.317L434.086,34.425z"/>
			<path style="fill:#FFFFFF;" d="M443.973,29.749c0,3.18-1.929,5.108-4.764,5.108c-2.877,0-4.561-2.173-4.561-4.936
				c0-2.906,1.855-5.079,4.72-5.079C442.347,24.842,443.973,27.072,443.973,29.749z M436.965,29.878
				c0,1.899,0.892,3.237,2.359,3.237c1.482,0,2.331-1.41,2.331-3.295c0-1.741-0.834-3.237-2.345-3.237
				C437.829,26.583,436.965,27.993,436.965,29.878z"/>
			<path style="fill:#FFFFFF;" d="M453.614,30.986c-0.043-1.166-0.086-2.576-0.086-3.986h-0.044
				c-0.302,1.238-0.705,2.619-1.079,3.756l-1.18,3.784h-1.712l-1.036-3.755c-0.316-1.137-0.647-2.519-0.878-3.785h-0.028
				c-0.058,1.31-0.102,2.806-0.173,4.015l-0.173,3.684h-2.029L445.815,25h2.921l0.95,3.238c0.302,1.122,0.604,2.331,0.819,3.468
				h0.044c0.273-1.123,0.604-2.403,0.921-3.482L452.506,25h2.863l0.532,9.698h-2.145L453.614,30.986z"/>
			<path style="fill:#FFFFFF;" d="M463.357,30.597h-3.568v2.302h3.985v1.799h-6.188V25h5.986v1.799h-3.784v2.014h3.568V30.597z"/>
			<path style="fill:#FFFFFF;" d="M465.272,34.698V25h2.562l2.015,3.554c0.575,1.021,1.151,2.23,1.583,3.324h0.043
				c-0.144-1.281-0.188-2.59-0.188-4.043V25h2.015v9.698H471l-2.072-3.741c-0.575-1.036-1.209-2.288-1.684-3.424l-0.043,0.014
				c0.058,1.281,0.086,2.647,0.086,4.23v2.921H465.272z"/>
			<path style="fill:#FFFFFF;" d="M475.201,25.129c0.807-0.129,1.856-0.201,2.965-0.201c1.842,0,3.036,0.331,3.971,1.036
				c1.008,0.749,1.641,1.943,1.641,3.655c0,1.856-0.676,3.137-1.611,3.928c-1.021,0.849-2.576,1.251-4.475,1.251
				c-1.138,0-1.943-0.072-2.49-0.144V25.129z M477.403,33.043c0.187,0.043,0.489,0.043,0.763,0.043
				c1.985,0.015,3.28-1.079,3.28-3.396c0.015-2.015-1.165-3.079-3.051-3.079c-0.488,0-0.806,0.043-0.992,0.086V33.043z"/>
			<path style="fill:#FFFFFF;" d="M487.247,32.209l-0.69,2.489h-2.274L487.247,25h2.878l3.007,9.698h-2.359l-0.748-2.489H487.247z
				 M489.707,30.568l-0.604-2.058c-0.172-0.575-0.345-1.295-0.488-1.871h-0.029c-0.144,0.576-0.288,1.31-0.446,1.871l-0.575,2.058
				H489.707z"/>
			<path style="fill:#FFFFFF;" d="M494.427,25.129c0.705-0.115,1.756-0.201,2.922-0.201c1.438,0,2.445,0.216,3.137,0.763
				c0.575,0.46,0.892,1.137,0.892,2.029c0,1.237-0.878,2.086-1.712,2.388v0.043c0.676,0.273,1.05,0.921,1.295,1.813
				c0.302,1.094,0.604,2.36,0.791,2.734h-2.244c-0.158-0.273-0.389-1.065-0.677-2.259c-0.259-1.208-0.676-1.54-1.568-1.554H496.6
				v3.813h-2.173V25.129z M496.6,29.302h0.863c1.094,0,1.741-0.547,1.741-1.396c0-0.892-0.604-1.338-1.611-1.353
				c-0.532,0-0.835,0.043-0.993,0.072V29.302z"/>
		</g>
		<rect x="407.986" y="0" style="fill:#2EB1E8;fill-opacity:0.01;" width="93.859" height="46"/>
	</g>
</g>
<g id="Layer_1">
</g>
</svg>
