<svg version="1.1" xmlns="http://www.w3.org/2000/svg" xmlns:xlink="http://www.w3.org/1999/xlink" x="0px" y="0px"
	 viewBox="0 0 717.282 701.583" style="enable-background:new 0 0 717.282 701.583;" xml:space="preserve">
<g id="infographic_x5F_page10">
	<linearGradient id="SVGID_1_" gradientUnits="userSpaceOnUse" x1="703.3033" y1="434.3724" x2="76.7214" y2="434.3724">
		<stop  offset="0" style="stop-color:#7864AD"/>
		<stop  offset="0.1837" style="stop-color:#4FC4D0"/>
		<stop  offset="0.3929" style="stop-color:#A4CF27"/>
		<stop  offset="0.602" style="stop-color:#FEC330"/>
		<stop  offset="0.8061" style="stop-color:#FF6400"/>
		<stop  offset="1" style="stop-color:#F46C6D"/>
	</linearGradient>
	<path style="fill:url(#SVGID_1_);" d="M379.309,700.576c-59.449,0-107.813-48.365-107.813-107.814
		c0-26.322,9.589-51.668,27.002-71.369c0.294-0.329,0.798-0.365,1.131-0.068c0.332,0.292,0.363,0.799,0.07,1.131
		c-17.154,19.406-26.601,44.376-26.601,70.307c0,58.565,47.646,106.211,106.211,106.211c58.564,0,106.211-47.646,106.211-106.211
		c0-56.505-44.159-103.093-100.532-106.061c-0.44-0.022-0.777-0.395-0.759-0.834l0.055-1.308l-0.011-101.683
		c-0.02-0.44,0.319-0.811,0.758-0.835c56.349-2.989,100.489-49.577,100.489-106.059c0-58.565-47.647-106.211-106.211-106.211
		c-58.565,0-106.211,47.646-106.211,106.211c0,12.252,2.068,24.261,6.146,35.693c0.148,0.417-0.069,0.875-0.486,1.024
		c-0.415,0.149-0.876-0.069-1.024-0.486c-4.139-11.605-6.238-23.795-6.238-36.231c0-59.449,48.365-107.813,107.813-107.813
		c59.448,0,107.814,48.365,107.814,107.813c0,57.079-44.403,104.203-101.238,107.616l0.001,100.995l-0.023,0.552
		c56.845,3.408,101.261,50.526,101.261,107.617C487.122,652.211,438.757,700.576,379.309,700.576z"/>
	<linearGradient id="SVGID_2_" gradientUnits="userSpaceOnUse" x1="703.3019" y1="614.1143" x2="76.7226" y2="614.1143">
		<stop  offset="0" style="stop-color:#7864AD"/>
		<stop  offset="0.1837" style="stop-color:#4FC4D0"/>
		<stop  offset="0.3929" style="stop-color:#A4CF27"/>
		<stop  offset="0.602" style="stop-color:#FEC330"/>
		<stop  offset="0.8061" style="stop-color:#FF6400"/>
		<stop  offset="1" style="stop-color:#F46C6D"/>
	</linearGradient>
	<path style="fill:url(#SVGID_2_);" d="M235.127,688.874H72.642c-0.442,0-0.801-0.359-0.801-0.802c0-0.442,0.359-0.802,0.801-0.802
		h162.484c5.665,0,10.274-4.608,10.274-10.273V540.156c0-0.442,0.359-0.801,0.801-0.801c0.442,0,0.801,0.358,0.801,0.801v136.841
		C247.003,683.545,241.675,688.874,235.127,688.874z"/>
	<linearGradient id="SVGID_3_" gradientUnits="userSpaceOnUse" x1="703.3037" y1="335.8697" x2="76.7243" y2="335.8697">
		<stop  offset="0" style="stop-color:#7864AD"/>
		<stop  offset="0.1837" style="stop-color:#4FC4D0"/>
		<stop  offset="0.3929" style="stop-color:#A4CF27"/>
		<stop  offset="0.602" style="stop-color:#FEC330"/>
		<stop  offset="0.8061" style="stop-color:#FF6400"/>
		<stop  offset="1" style="stop-color:#F46C6D"/>
	</linearGradient>
	<path style="fill:url(#SVGID_3_);" d="M685.823,441.188c-0.443,0-0.802-0.358-0.802-0.801c0-66.888-54.417-121.305-121.304-121.305
		c-22.787,0.001-44.989,6.353-64.214,18.371c-0.075,0.065-0.164,0.115-0.262,0.149c-0.322,0.109-0.685,0.003-0.894-0.271
		c-0.121-0.157-0.182-0.358-0.166-0.555v-34.121c0-6.549,5.328-11.877,11.877-11.877h63.934c5.665,0,10.274-4.609,10.274-10.274
		v-49.152c0-0.442,0.358-0.801,0.801-0.801c0.442,0,0.802,0.359,0.802,0.801v49.152c0,6.549-5.328,11.877-11.877,11.877H510.06
		c-5.665,0-10.273,4.609-10.273,10.274v32.74c19.217-11.725,41.289-17.915,63.932-17.916c67.771,0,122.906,55.136,122.906,122.907
		C686.624,440.83,686.266,441.188,685.823,441.188z"/>
	<linearGradient id="SVGID_4_" gradientUnits="userSpaceOnUse" x1="704.3683" y1="354.8745" x2="75.74" y2="354.8745">
		<stop  offset="0" style="stop-color:#7864AD"/>
		<stop  offset="0.1837" style="stop-color:#4FC4D0"/>
		<stop  offset="0.3929" style="stop-color:#A4CF27"/>
		<stop  offset="0.602" style="stop-color:#FEC330"/>
		<stop  offset="0.8061" style="stop-color:#FF6400"/>
		<stop  offset="1" style="stop-color:#F46C6D"/>
	</linearGradient>
	<path style="fill:url(#SVGID_4_);" d="M72.642,701.583c-0.993,0-1.801-0.808-1.801-1.802s0.808-1.802,1.801-1.802h172.893
		c6.077,0,11.021-4.943,11.021-11.021V592.76c0-64.773,50.593-118.59,115.181-122.521l-0.005-71.687l-1.208-0.128
		c-30.87-2.167-59.595-15.867-80.848-38.573c-21.358-22.816-33.12-52.602-33.12-83.871c0-67.685,55.066-122.751,122.753-122.751
		c66.918,0,121.772,54.167,122.739,120.95l57.364,0.002c5.114,0,9.274-4.16,9.274-9.274v-30.711
		c-26.908-0.515-54.32-12.533-75.355-33.072c-22.463-21.934-34.834-50.322-34.834-79.934c0-62.321,50.701-113.023,113.023-113.023
		S684.544,58.869,684.544,121.19c0,0.993-0.809,1.801-1.802,1.801c-0.993,0-1.801-0.808-1.801-1.801
		c0-60.335-49.086-109.421-109.421-109.421c-60.334,0-109.42,49.086-109.42,109.421c0,57.157,51.551,109.293,108.179,109.42
		c0.063-0.007,0.128-0.011,0.192-0.011c1.002,0,1.817,0.807,1.817,1.799v32.508c0,7.1-5.776,12.877-12.877,12.877h-59.151
		c-0.993,0-1.802-0.808-1.802-1.801c0-65.7-53.45-119.151-119.15-119.151c-65.699,0-119.149,53.45-119.149,119.148
		c0,62.29,48.617,114.498,110.682,118.857l2.884,0.306c0.919,0.099,1.611,0.869,1.611,1.791v74.877c0,0.899-0.672,1.667-1.563,1.785
		l-1.686,0.227c-62.794,3.827-111.927,56.067-111.927,118.939v94.198c0,8.064-6.56,14.624-14.624,14.624H72.642z"/>
	<linearGradient id="SVGID_5_" gradientUnits="userSpaceOnUse" x1="703.3037" y1="110.5184" x2="76.721" y2="110.5184">
		<stop  offset="0" style="stop-color:#7864AD"/>
		<stop  offset="0.1837" style="stop-color:#4FC4D0"/>
		<stop  offset="0.3929" style="stop-color:#A4CF27"/>
		<stop  offset="0.602" style="stop-color:#FEC330"/>
		<stop  offset="0.8061" style="stop-color:#FF6400"/>
		<stop  offset="1" style="stop-color:#F46C6D"/>
	</linearGradient>
	<path style="fill:url(#SVGID_5_);" d="M630.45,192.664c-0.228,0-0.457-0.098-0.615-0.288c-0.283-0.34-0.238-0.845,0.102-1.128
		c20.843-17.4,32.797-42.935,32.797-70.057c0-50.295-40.918-91.214-91.214-91.214c-50.295,0-91.213,40.919-91.213,91.214
		c0,0.442-0.359,0.801-0.802,0.801c-0.442,0-0.802-0.359-0.802-0.801c0-51.179,41.637-92.817,92.816-92.817
		s92.817,41.638,92.817,92.817c0,27.598-12.164,53.581-33.374,71.287C630.814,192.603,630.632,192.664,630.45,192.664z"/>
	<linearGradient id="SVGID_6_" gradientUnits="userSpaceOnUse" x1="704.6047" y1="440.386" x2="72.0344" y2="440.386">
		<stop  offset="0" style="stop-color:#7864AD"/>
		<stop  offset="0.1837" style="stop-color:#4FC4D0"/>
		<stop  offset="0.3929" style="stop-color:#A4CF27"/>
		<stop  offset="0.602" style="stop-color:#FEC330"/>
		<stop  offset="0.8061" style="stop-color:#FF6400"/>
		<stop  offset="1" style="stop-color:#F46C6D"/>
	</linearGradient>
	<path style="fill:url(#SVGID_6_);" d="M563.718,549.485c-45.277,0-86.354-28.482-102.214-70.873
		c-0.169-0.45-0.152-0.94,0.048-1.379c0.2-0.438,0.559-0.771,1.009-0.94c0.205-0.075,0.416-0.113,0.631-0.113
		c0.749,0,1.428,0.472,1.688,1.173c15.335,40.989,55.056,68.53,98.839,68.53c58.171,0,105.497-47.325,105.497-105.495
		c0-58.172-47.326-105.497-105.497-105.497c-36.167,0-69.412,18.213-88.93,48.72c-0.335,0.521-0.902,0.83-1.519,0.83
		c-0.344,0-0.679-0.098-0.969-0.282c-0.84-0.54-1.084-1.657-0.547-2.492c20.183-31.544,54.561-50.379,91.964-50.379
		c60.158,0,109.1,48.942,109.1,109.1C672.817,500.544,623.876,549.485,563.718,549.485z"/>
	<linearGradient id="SVGID_7_" gradientUnits="userSpaceOnUse" x1="703.3033" y1="265.876" x2="76.7208" y2="265.876">
		<stop  offset="0" style="stop-color:#7864AD"/>
		<stop  offset="0.1837" style="stop-color:#4FC4D0"/>
		<stop  offset="0.3929" style="stop-color:#A4CF27"/>
		<stop  offset="0.602" style="stop-color:#FEC330"/>
		<stop  offset="0.8061" style="stop-color:#FF6400"/>
		<stop  offset="1" style="stop-color:#F46C6D"/>
	</linearGradient>
	<path style="fill:url(#SVGID_7_);" d="M195.212,514.436c-47.546,0-86.227-38.681-86.227-86.227
		c0-47.279,38.247-85.793,85.426-86.224V224.262c0-0.442,0.359-0.801,0.801-0.801c56.393,0,102.271-45.879,102.271-102.271
		c0-56.393-45.878-102.271-102.271-102.271c-56.392,0-102.271,45.879-102.271,102.271c0,0.442-0.359,0.801-0.801,0.801
		c-0.442,0-0.802-0.359-0.802-0.801c0-57.276,46.598-103.874,103.874-103.874S299.086,63.914,299.086,121.19
		c0,57.01-46.162,103.441-103.073,103.871v117.723c0,0.442-0.359,0.801-0.801,0.801c-46.663,0-84.624,37.963-84.624,84.625
		s37.962,84.624,84.624,84.624s84.625-37.962,84.625-84.624c0-0.442,0.359-0.802,0.801-0.802c0.442,0,0.801,0.359,0.801,0.802
		C281.439,475.755,242.758,514.436,195.212,514.436z"/>
	<linearGradient id="SVGID_8_" gradientUnits="userSpaceOnUse" x1="707.5301" y1="104.0779" x2="75.7356" y2="104.0779">
		<stop  offset="0" style="stop-color:#7864AD"/>
		<stop  offset="0.1837" style="stop-color:#4FC4D0"/>
		<stop  offset="0.3929" style="stop-color:#A4CF27"/>
		<stop  offset="0.602" style="stop-color:#FEC330"/>
		<stop  offset="0.8061" style="stop-color:#FF6400"/>
		<stop  offset="1" style="stop-color:#F46C6D"/>
	</linearGradient>
	<path style="fill:url(#SVGID_8_);" d="M111.543,208.156c-0.473,0-0.92-0.183-1.26-0.514c-23.384-22.976-36.26-53.678-36.26-86.452
		C74.022,54.366,128.388,0,195.212,0s121.19,54.366,121.19,121.19c0,0.993-0.808,1.801-1.802,1.801
		c-0.993,0-1.801-0.808-1.801-1.801c0-64.838-52.749-117.587-117.587-117.587S77.625,56.352,77.625,121.19
		c0,31.8,12.494,61.589,35.18,83.879c0.708,0.696,0.717,1.839,0.023,2.547C112.485,207.965,112.029,208.156,111.543,208.156z"/>
	<linearGradient id="SVGID_9_" gradientUnits="userSpaceOnUse" x1="716.8897" y1="414.9683" x2="75.3736" y2="414.9683">
		<stop  offset="0" style="stop-color:#7864AD"/>
		<stop  offset="0.1837" style="stop-color:#4FC4D0"/>
		<stop  offset="0.3929" style="stop-color:#A4CF27"/>
		<stop  offset="0.602" style="stop-color:#FEC330"/>
		<stop  offset="0.8061" style="stop-color:#FF6400"/>
		<stop  offset="1" style="stop-color:#F46C6D"/>
	</linearGradient>
	<path style="fill:url(#SVGID_9_);" d="M123.979,504.508c-0.465,0-0.908-0.178-1.245-0.5c-20.891-19.98-32.396-46.898-32.396-75.799
		c0-49.605,35.218-92.815,83.74-102.744c0.118-0.025,0.24-0.037,0.362-0.037c0.851,0,1.593,0.605,1.764,1.44
		c0.2,0.974-0.43,1.928-1.403,2.127c-46.854,9.587-80.86,51.313-80.86,99.214c0,27.907,11.11,53.901,31.284,73.195
		c0.716,0.685,0.743,1.827,0.058,2.546C124.942,504.306,124.468,504.508,123.979,504.508z"/>
	<g>
		<circle style="fill:#A4CF27;" cx="585.07" cy="231.353" r="3.372"/>
		<circle style="fill:#7864AD;" cx="472.073" cy="384.462" r="3.372"/>
		<circle style="fill:#F46C6D;" cx="111.749" cy="206.355" r="3.372"/>
		<circle style="fill:#4FC4D0;" cx="280.638" cy="314.91" r="3.372"/>
		<circle style="fill:#FF6400;" cx="280.638" cy="428.21" r="3.372"/>
		<circle style="fill:#FEC330;" cx="299.15" cy="521.78" r="3.372"/>
	</g>
	<g>
		<g>
			<circle style="fill:#7864AD;" cx="563.718" cy="440.387" r="91.645"/>
			<circle style="fill:none;stroke:#554689;stroke-width:7;stroke-miterlimit:10;" cx="563.718" cy="440.387" r="81.094"/>
			<path style="fill:#554689;" d="M570.92,419.096l5.541-5.45l5.545,5.545l-5.545,5.451
				C576.46,424.641,570.92,419.096,570.92,419.096z M582.009,484.204h23.527v-50.976h-23.527V484.204z M579.817,410.352l5.545,5.545
				l5.627-5.529l-5.549-5.549L579.817,410.352z M582.134,394.859l18.708,18.708l4.694-23.472
				C605.536,390.095,582.134,394.859,582.134,394.859z M550.639,484.204h23.527v-35.291h-23.527V484.204z M519.269,484.204h23.527
				v-23.527h-23.527V484.204z M573.104,427.939l-5.545-5.545l-5.686,5.588L550.11,416.21l-30.746,30.574l5.529,5.56l25.202-25.057
				l11.728,11.736C561.822,439.024,573.104,427.939,573.104,427.939z"/>
		</g>
		<g>
			<circle style="fill:#FF9740;" cx="195.212" cy="428.21" r="72.734"/>
			<g>
				<path style="fill:#FF6400;" d="M195.212,364.579c35.086,0,63.631,28.544,63.631,63.63c0,35.086-28.545,63.63-63.631,63.63
					s-63.631-28.544-63.631-63.63C131.581,393.124,160.126,364.579,195.212,364.579 M195.212,354.579
					c-40.665,0-73.631,32.964-73.631,73.63s32.966,73.63,73.631,73.63c40.665,0,73.631-32.964,73.631-73.63
					S235.877,354.579,195.212,354.579L195.212,354.579z"/>
			</g>
			<g>
				<path style="fill:#FF6400;" d="M219.979,397.811c-10.848-8.352-26.417-6.322-34.768,4.523
					c-8.354,10.851-6.331,26.419,4.519,34.771c10.85,8.355,26.419,6.331,34.775-4.522
					C232.856,421.736,230.831,406.168,219.979,397.811z M192.549,433.443c-8.825-6.792-10.473-19.459-3.674-28.288
					c6.793-8.825,19.46-10.473,28.284-3.68c8.824,6.791,10.474,19.466,3.68,28.287C214.043,438.591,201.374,440.239,192.549,433.443
					z"/>

					<rect x="180.655" y="432.477" transform="matrix(0.7927 0.6097 -0.6097 0.7927 309.1688 -20.0128)" style="fill:#FF6400;" width="6.705" height="24.127"/>
				<path style="fill:#FF6400;" d="M173.807,466.576c-1.807,2.347-5.175,2.785-7.521,0.978l0,0
					c-2.342-1.803-2.781-5.171-0.974-7.517l13.9-18.056c1.806-2.347,5.171-2.785,7.515-0.982l0,0
					c2.347,1.808,2.786,5.176,0.98,7.522L173.807,466.576z"/>
			</g>
		</g>
		<g>
			<circle style="fill:#A4CF27;" cx="571.521" cy="121.19" r="73.232"/>
			<circle style="fill:none;stroke:#80A938;stroke-width:7;stroke-miterlimit:10;" cx="571.521" cy="121.19" r="74.681"/>
			<path style="fill:none;stroke:#80A938;stroke-width:7;stroke-miterlimit:10;" d="M569.544,85.319
				c1.899-0.319,3.851-0.497,5.847-0.497c20.087,0,36.367,16.281,36.367,36.368c0,7.039-2.02,13.589-5.491,19.145
				c0.913-3.544,1.451-7.237,1.451-11.064C607.717,106.897,591.085,88.382,569.544,85.319z M619.84,121.19
				c0,3.827-0.537,7.52-1.451,11.064c3.471-5.556,5.491-12.106,5.491-19.145c0-20.087-16.281-36.368-36.367-36.368
				c-1.996,0-3.948,0.178-5.847,0.497C603.208,80.3,619.84,98.816,619.84,121.19z M599.636,129.271
				c0,20.087-16.281,36.368-36.367,36.368c-20.087,0-36.368-16.281-36.368-36.368s16.281-36.368,36.368-36.368
				C583.355,92.904,599.636,109.184,599.636,129.271z M577.072,136.286c0-7.221-7.516-9.233-13.278-11.941
				c-3.491-1.814-3.059-6.162,1.952-6.453c2.792-0.17,5.641,0.655,8.227,1.564l1.22-5.544c-3.055-0.929-5.778-1.354-8.223-1.422
				v-3.423h-3.362v3.592c-6.55,0.901-10.054,5.011-10.054,9.597c0,8.211,9.589,9.464,12.721,10.922
				c4.287,1.915,3.487,5.892-0.38,6.768c-3.354,0.76-7.649-0.566-10.862-1.818l-1.527,5.536c3.006,1.556,6.615,2.388,10.102,2.445
				v3.366h3.362v-3.544C572.55,145.148,577.084,142.069,577.072,136.286z"/>
		</g>
		<g>
			<circle style="fill:#2EB1E8;" cx="379.309" cy="592.762" r="92.765"/>
			<circle style="fill:none;stroke:#0067C5;stroke-width:9;stroke-miterlimit:10;" cx="379.309" cy="592.762" r="78.394"/>
		</g>
		<g>
			<circle style="fill:#4FC4D0;" cx="379.309" cy="275.982" r="91.893"/>
			<circle style="fill:none;stroke:#2BA8B2;stroke-width:12;stroke-miterlimit:10;" cx="379.309" cy="275.982" r="75.831"/>
		</g>
		<g>
			<circle style="fill:#F46C6D;" cx="195.212" cy="121.19" r="90.398"/>
			<circle style="fill:none;stroke:#E84A47;stroke-width:10;stroke-miterlimit:10;" cx="195.212" cy="121.19" r="78.842"/>
			<path style="fill:#E84A47;" d="M174.212,79.523c2.3,0,4.167,1.871,4.167,4.167c0,2.296-1.867,4.167-4.167,4.167
				s-4.167-1.871-4.167-4.167C170.045,81.394,171.912,79.523,174.212,79.523z M236.712,117.023c2.3,0,4.167,1.867,4.167,4.167
				c0,2.3-1.867,4.167-4.167,4.167s-4.167-1.871-4.167-4.167C232.545,118.89,234.412,117.023,236.712,117.023z M174.212,154.523
				c2.3,0,4.167,1.871,4.167,4.167s-1.867,4.167-4.167,4.167s-4.167-1.871-4.167-4.167S171.912,154.523,174.212,154.523z
				 M174.212,71.19c-6.9,0-12.5,5.596-12.5,12.5s5.6,12.5,12.5,12.5s12.5-5.596,12.5-12.5S181.112,71.19,174.212,71.19z
				 M236.712,108.69c-6.9,0-12.5,5.596-12.5,12.5s5.6,12.5,12.5,12.5s12.5-5.596,12.5-12.5S243.612,108.69,236.712,108.69z
				 M174.212,146.19c-6.904,0-12.5,5.596-12.5,12.5c0,6.904,5.596,12.5,12.5,12.5c6.9,0,12.5-5.596,12.5-12.5
				C186.712,151.786,181.112,146.19,174.212,146.19z M193.329,75.444l1.717-0.088c17.838,0,33.254,10.208,40.833,25.088
				c-2.987,0.121-5.792,0.875-8.325,2.129c-6.479-11.263-18.608-18.883-32.508-18.883C195.045,80.761,194.424,77.973,193.329,75.444
				z M235.879,141.936c-7.579,14.879-22.996,25.088-40.833,25.088l-1.717-0.088c1.096-2.529,1.717-5.317,1.717-8.246
				c13.9,0,26.029-7.621,32.508-18.883C230.087,141.065,232.891,141.819,235.879,141.936z M157.087,146.877
				c-4.971-7.329-7.875-16.167-7.875-25.688s2.904-18.358,7.875-25.688c1.633,2.358,3.754,4.329,6.196,5.846
				c-3.613,5.763-5.738,12.55-5.738,19.842s2.125,14.079,5.738,19.842C160.841,142.548,158.716,144.519,157.087,146.877z"/>
		</g>
	</g>
	<g>
		<path style="fill:#2EB1E8;" d="M115.257,591.798c-1.254,0.45-3.729,1.189-6.655,1.189c-3.279,0-5.98-0.836-8.102-2.861
			c-1.865-1.8-3.022-4.693-3.022-8.069c0.032-6.462,4.469-11.188,11.735-11.188c2.508,0,4.469,0.547,5.401,0.997l-0.675,2.282
			c-1.157-0.515-2.604-0.932-4.79-0.932c-5.273,0-8.713,3.279-8.713,8.712c0,5.498,3.312,8.745,8.359,8.745
			c1.833,0,3.086-0.257,3.729-0.579v-6.462h-4.404v-2.25h7.137V591.798z"/>
		<path style="fill:#2EB1E8;" d="M130.75,582.604h-8.423v7.812h9.388v2.347h-12.185v-21.669h11.703v2.347h-8.905v6.848h8.423
			V582.604z"/>
		<path style="fill:#2EB1E8;" d="M135.343,571.383c1.415-0.289,3.44-0.45,5.369-0.45c2.99,0,4.919,0.547,6.27,1.769
			c1.093,0.964,1.704,2.443,1.704,4.115c0,2.861-1.8,4.758-4.083,5.529v0.097c1.672,0.579,2.668,2.122,3.183,4.372
			c0.707,3.022,1.222,5.112,1.672,5.948h-2.894c-0.354-0.611-0.836-2.476-1.447-5.176c-0.643-2.99-1.801-4.115-4.34-4.212h-2.636
			v9.388h-2.797V571.383z M138.141,581.253h2.861c2.99,0,4.887-1.64,4.887-4.115c0-2.797-2.025-4.019-4.983-4.051
			c-1.35,0-2.315,0.129-2.765,0.257V581.253z"/>
		<path style="fill:#2EB1E8;" d="M156.301,585.948l-2.25,6.815h-2.894l7.362-21.669h3.376l7.395,21.669h-2.99l-2.315-6.815H156.301z
			 M163.407,583.761l-2.122-6.237c-0.482-1.415-0.804-2.7-1.125-3.954h-0.064c-0.322,1.286-0.675,2.604-1.093,3.922l-2.122,6.27
			H163.407z"/>
		<path style="fill:#2EB1E8;" d="M187.13,592.056c-1.029,0.514-3.055,1.028-5.691,1.028l-0.739,1.286
			c1.189,0.226,2.25,1.093,2.25,2.411c0,1.865-1.64,2.604-3.312,2.604c-0.836,0-1.736-0.226-2.283-0.547l0.45-1.446
			c0.482,0.257,1.093,0.418,1.8,0.418c0.74,0,1.351-0.29,1.351-0.965c0-0.868-0.997-1.222-2.508-1.383l1.35-2.476
			c-5.305-0.643-9.099-4.404-9.099-10.866c0-6.784,4.598-11.381,11.317-11.381c2.701,0,4.405,0.578,5.144,0.964l-0.675,2.283
			c-1.061-0.515-2.572-0.9-4.373-0.9c-5.08,0-8.456,3.247-8.456,8.938c0,5.305,3.054,8.713,8.327,8.713
			c1.704,0,3.44-0.354,4.565-0.9L187.13,592.056z"/>
		<path style="fill:#2EB1E8;" d="M194.263,585.948l-2.25,6.815h-2.894l7.362-21.669h3.376l7.395,21.669h-2.99l-2.314-6.815H194.263z
			 M194.263,569.776c-0.032-1.961,0.804-3.279,2.186-3.279c0.708,0,1.254,0.289,1.929,0.643c0.515,0.29,1.029,0.579,1.511,0.579
			c0.514,0,0.804-0.226,0.868-1.254h1.511c0.032,2.025-0.675,3.118-2.186,3.118c-0.675,0-1.254-0.257-1.961-0.61
			c-0.611-0.321-1.029-0.611-1.511-0.611c-0.515,0-0.74,0.547-0.836,1.415H194.263z M201.368,583.761l-2.122-6.237
			c-0.482-1.415-0.804-2.7-1.125-3.954h-0.064c-0.322,1.286-0.675,2.604-1.093,3.922l-2.122,6.27H201.368z"/>
		<path style="fill:#2EB1E8;" d="M228.466,581.704c0,7.459-4.533,11.413-10.063,11.413c-5.723,0-9.742-4.437-9.742-10.995
			c0-6.88,4.276-11.381,10.063-11.381C224.641,570.741,228.466,575.273,228.466,581.704z M211.652,582.057
			c0,4.63,2.508,8.777,6.912,8.777c4.437,0,6.944-4.083,6.944-9.002c0-4.309-2.25-8.81-6.912-8.81
			C213.967,573.023,211.652,577.299,211.652,582.057z"/>
		<path style="fill:#2EB1E8;" d="M95.746,630.628c-1.029,0.514-3.086,1.028-5.723,1.028c-6.108,0-10.706-3.857-10.706-10.963
			c0-6.784,4.598-11.381,11.317-11.381c2.701,0,4.405,0.578,5.144,0.964l-0.675,2.283c-1.061-0.515-2.572-0.9-4.373-0.9
			c-5.08,0-8.456,3.247-8.456,8.938c0,5.305,3.054,8.713,8.327,8.713c1.704,0,3.44-0.354,4.565-0.9L95.746,630.628z"/>
		<path style="fill:#2EB1E8;" d="M102.043,609.667v12.827c0,4.855,2.154,6.913,5.047,6.913c3.215,0,5.272-2.122,5.272-6.913v-12.827
			h2.83v12.635c0,6.655-3.504,9.388-8.199,9.388c-4.437,0-7.78-2.54-7.78-9.259v-12.764H102.043z"/>
		<path style="fill:#2EB1E8;" d="M119.657,627.927c1.254,0.771,3.086,1.415,5.016,1.415c2.861,0,4.533-1.511,4.533-3.697
			c0-2.025-1.158-3.183-4.083-4.309c-3.536-1.254-5.723-3.086-5.723-6.141c0-3.376,2.797-5.883,7.009-5.883
			c2.218,0,3.826,0.514,4.791,1.061l-0.771,2.282c-0.708-0.386-2.154-1.028-4.115-1.028c-2.958,0-4.083,1.769-4.083,3.247
			c0,2.025,1.318,3.022,4.308,4.18c3.665,1.414,5.53,3.183,5.53,6.365c0,3.344-2.476,6.237-7.587,6.237
			c-2.09,0-4.373-0.61-5.53-1.382L119.657,627.927z"/>
		<path style="fill:#2EB1E8;" d="M140.004,612.045h-6.591v-2.379h16.043v2.379h-6.623v19.29h-2.829V612.045z"/>
		<path style="fill:#2EB1E8;" d="M169.516,620.276c0,7.459-4.533,11.413-10.063,11.413c-5.723,0-9.742-4.437-9.742-10.995
			c0-6.88,4.276-11.381,10.063-11.381C165.69,609.313,169.516,613.845,169.516,620.276z M152.701,620.629
			c0,4.63,2.508,8.777,6.912,8.777c4.437,0,6.945-4.083,6.945-9.002c0-4.309-2.251-8.81-6.913-8.81
			C155.016,611.595,152.701,615.872,152.701,620.629z"/>
		<path style="fill:#2EB1E8;" d="M191.405,621.819c-0.161-3.022-0.354-6.655-0.321-9.355h-0.097c-0.739,2.54-1.64,5.24-2.732,8.23
			l-3.826,10.513h-2.122l-3.504-10.32c-1.029-3.054-1.897-5.851-2.508-8.423h-0.064c-0.064,2.7-0.225,6.333-0.418,9.581
			l-0.579,9.291h-2.668l1.511-21.669h3.568l3.697,10.48c0.9,2.669,1.64,5.048,2.187,7.298h0.096
			c0.547-2.186,1.318-4.564,2.283-7.298l3.858-10.48h3.569l1.35,21.669h-2.732L191.405,621.819z"/>
		<path style="fill:#2EB1E8;" d="M210.208,621.176h-8.423v7.812h9.388v2.347h-12.185v-21.669h11.703v2.347h-8.905v6.848h8.423
			V621.176z"/>
		<path style="fill:#2EB1E8;" d="M214.801,609.956c1.415-0.289,3.44-0.45,5.369-0.45c2.99,0,4.919,0.547,6.27,1.769
			c1.093,0.964,1.704,2.443,1.704,4.115c0,2.861-1.8,4.758-4.083,5.529v0.097c1.672,0.579,2.668,2.122,3.183,4.372
			c0.707,3.022,1.222,5.112,1.672,5.948h-2.894c-0.354-0.611-0.836-2.476-1.447-5.176c-0.643-2.99-1.801-4.115-4.34-4.212h-2.636
			v9.388h-2.797V609.956z M217.599,619.826h2.861c2.99,0,4.887-1.64,4.887-4.115c0-2.797-2.025-4.019-4.983-4.051
			c-1.35,0-2.315,0.129-2.765,0.257V619.826z"/>
		<path style="fill:#2EB1E8;" d="M79.835,659.75h-8.423v7.812h9.388v2.347H68.614V648.24h11.703v2.347h-8.905v6.848h8.423V659.75z"
			/>
		<path style="fill:#2EB1E8;" d="M96.292,669.909l-2.765-4.79c-1.125-1.833-1.833-3.022-2.508-4.276h-0.064
			c-0.611,1.254-1.222,2.411-2.347,4.309l-2.604,4.758h-3.215l6.623-10.963l-6.366-10.706h3.247l2.861,5.079
			c0.804,1.415,1.415,2.508,1.993,3.665h0.097c0.611-1.285,1.157-2.282,1.961-3.665l2.958-5.079h3.215l-6.591,10.545l6.752,11.124
			H96.292z"/>
		<path style="fill:#2EB1E8;" d="M102.783,648.497c1.351-0.225,3.119-0.418,5.369-0.418c2.765,0,4.791,0.643,6.076,1.801
			c1.19,1.028,1.897,2.604,1.897,4.533c0,1.961-0.579,3.504-1.672,4.629c-1.479,1.576-3.89,2.38-6.623,2.38
			c-0.836,0-1.608-0.032-2.25-0.193v8.681h-2.797V648.497z M105.58,658.946c0.611,0.16,1.382,0.225,2.314,0.225
			c3.376,0,5.434-1.64,5.434-4.63c0-2.861-2.025-4.243-5.112-4.243c-1.222,0-2.154,0.096-2.636,0.225V658.946z"/>
		<path style="fill:#2EB1E8;" d="M131.104,659.75h-8.423v7.812h9.388v2.347h-12.185V648.24h11.703v2.347h-8.905v6.848h8.423V659.75z
			"/>
		<path style="fill:#2EB1E8;" d="M135.697,648.529c1.415-0.289,3.44-0.45,5.369-0.45c2.99,0,4.919,0.547,6.27,1.769
			c1.093,0.964,1.704,2.443,1.704,4.115c0,2.861-1.8,4.758-4.083,5.529v0.097c1.672,0.579,2.668,2.122,3.183,4.372
			c0.707,3.022,1.222,5.112,1.672,5.948h-2.894c-0.354-0.611-0.836-2.476-1.447-5.176c-0.643-2.99-1.801-4.115-4.34-4.212h-2.636
			v9.388h-2.797V648.529z M138.495,658.399h2.861c2.99,0,4.887-1.64,4.887-4.115c0-2.797-2.025-4.019-4.983-4.051
			c-1.35,0-2.315,0.128-2.765,0.257V658.399z"/>
		<path style="fill:#2EB1E8;" d="M155.788,648.24v21.669h-2.797V648.24H155.788z"/>
		<path style="fill:#2EB1E8;" d="M171.894,659.75h-8.423v7.812h9.388v2.347h-12.185V648.24h11.703v2.347h-8.905v6.848h8.423V659.75z
			"/>
		<path style="fill:#2EB1E8;" d="M176.487,669.909V648.24h3.054l6.945,10.963c1.607,2.54,2.861,4.822,3.89,7.041l0.064-0.032
			c-0.257-2.894-0.321-5.53-0.321-8.905v-9.066h2.636v21.669h-2.829l-6.88-10.995c-1.511-2.411-2.958-4.887-4.051-7.234
			l-0.097,0.032c0.161,2.733,0.225,5.337,0.225,8.938v9.259H176.487z"/>
		<path style="fill:#2EB1E8;" d="M212.781,669.202c-1.029,0.514-3.086,1.028-5.723,1.028c-6.108,0-10.706-3.857-10.706-10.963
			c0-6.784,4.598-11.381,11.317-11.381c2.701,0,4.405,0.578,5.144,0.964l-0.675,2.283c-1.061-0.515-2.572-0.9-4.373-0.9
			c-5.08,0-8.456,3.247-8.456,8.938c0,5.305,3.054,8.713,8.327,8.713c1.704,0,3.44-0.354,4.565-0.9L212.781,669.202z"/>
		<path style="fill:#2EB1E8;" d="M227.501,659.75h-8.423v7.812h9.388v2.347h-12.185V648.24h11.703v2.347h-8.905v6.848h8.423V659.75z
			"/>
	</g>
	<path style="fill:#2BA8B2;" d="M381.309,232.38c-25.035,0-45.333,20.298-45.333,45.333c0,25.035,20.298,45.333,45.333,45.333
		c25.035,0,45.333-20.298,45.333-45.333C426.642,252.678,406.344,232.38,381.309,232.38z M381.309,315.492
		c-11.798,0-22.342-5.444-29.274-13.94c0.978-2.221,2.958-3.759,7.053-4.707c8.477-1.957,16.845-3.706,12.818-11.126
		c-11.919-21.987-3.396-34.45,9.403-34.45c12.55,0,21.284,12.002,9.403,34.45c-3.91,7.374,4.156,9.127,12.818,11.126
		c4.088,0.944,6.082,2.474,7.068,4.688C403.662,310.044,393.114,315.492,381.309,315.492z"/>
	<g>
		<path style="fill:#E84A47;" d="M0,272.468h1.339h1.348v12.87H1.348H0V272.468z"/>
		<path style="fill:#E84A47;" d="M7.582,285.337H6.33H5.069v-12.87h1.41h1.41l5.165,9.035v-9.035h1.252h1.261v12.87h-1.339h-1.339
			l-5.306-9.28V285.337z"/>
		<path style="fill:#E84A47;" d="M18.149,285.337v-12.87h9.158v1.138v1.147h-6.47v2.924h5.638v1.103v1.112h-5.638v5.445h-1.34
			H18.149z"/>
		<path style="fill:#E84A47;" d="M29.101,272.468h1.339h5.148c1.226,0,2.213,0.328,2.964,0.985c0.75,0.657,1.125,1.522,1.125,2.596
			c0,1.238-0.417,2.142-1.252,2.714c-0.222,0.152-0.473,0.28-0.753,0.385c0.157,0.064,0.3,0.135,0.429,0.21
			c0.735,0.438,1.118,1.173,1.147,2.206l0.062,2.11c0.011,0.42,0.055,0.718,0.131,0.893c0.076,0.175,0.222,0.315,0.438,0.42v0.341
			h-2.97c-0.07-0.134-0.131-0.421-0.184-0.862c-0.052-0.44-0.082-0.915-0.087-1.423l-0.017-1.19
			c-0.012-0.578-0.183-0.989-0.512-1.234c-0.33-0.245-0.876-0.368-1.641-0.368h-2.679v5.086h-1.34h-1.348V272.468z M31.789,278.088
			h3.117c0.694,0,1.215-0.142,1.562-0.425c0.347-0.283,0.521-0.71,0.521-1.282c0-0.566-0.165-0.991-0.495-1.274
			s-0.824-0.425-1.484-0.425h-3.222V278.088z"/>
		<path style="fill:#E84A47;" d="M45.596,272.468h1.558h1.559l4.552,12.87h-1.425h-1.425l-0.871-2.618h-4.881l-0.842,2.618h-1.384
			h-1.393L45.596,272.468z M45.409,280.505h3.417l-1.709-5.174h0.002L45.409,280.505z"/>
		<path style="fill:#E84A47;" d="M54.998,285.337v-12.87h9.473v1.138v1.147h-6.785v2.731h6.294v1.103v1.112h-6.294v3.353h7.083
			v1.138v1.147H54.998z"/>
		<path style="fill:#E84A47;" d="M73.932,276.329c-0.047-0.613-0.315-1.099-0.805-1.458c-0.49-0.359-1.129-0.539-1.917-0.539
			c-0.683,0-1.216,0.15-1.601,0.451c-0.385,0.301-0.578,0.72-0.578,1.256c0,0.385,0.202,0.683,0.604,0.893
			c0.396,0.21,1.24,0.458,2.53,0.744c1.873,0.42,3.125,0.905,3.755,1.454c0.631,0.542,0.947,1.415,0.947,2.618
			c0,1.208-0.476,2.167-1.427,2.876c-0.951,0.709-2.238,1.063-3.86,1.063c-1.628,0-2.9-0.376-3.816-1.129
			c-0.917-0.753-1.406-1.824-1.471-3.213h2.591c0.029,0.683,0.277,1.208,0.744,1.576s1.117,0.552,1.952,0.552
			c0.858,0,1.527-0.139,2.009-0.416c0.481-0.277,0.722-0.661,0.722-1.151c0-0.484-0.173-0.84-0.521-1.068
			c-0.338-0.228-1.062-0.464-2.169-0.709c-2.042-0.456-3.407-0.949-4.095-1.48c-0.684-0.525-1.025-1.345-1.025-2.46
			c0-1.249,0.452-2.24,1.356-2.972s2.127-1.099,3.667-1.099c1.441,0,2.614,0.379,3.519,1.138c0.904,0.759,1.406,1.783,1.505,3.073
			H73.932z"/>
		<path style="fill:#E84A47;" d="M81.692,274.753h-3.887v-1.138v-1.147h10.462v1.138v1.147h-3.887v10.584H83.04h-1.348V274.753z"/>
		<path style="fill:#E84A47;" d="M89.869,272.468h1.339h5.148c1.226,0,2.213,0.328,2.964,0.985c0.75,0.657,1.125,1.522,1.125,2.596
			c0,1.238-0.417,2.142-1.252,2.714c-0.222,0.152-0.473,0.28-0.753,0.385c0.157,0.064,0.3,0.135,0.429,0.21
			c0.735,0.438,1.118,1.173,1.147,2.206l0.062,2.11c0.011,0.42,0.055,0.718,0.131,0.893c0.076,0.175,0.222,0.315,0.438,0.42v0.341
			h-2.97c-0.07-0.134-0.131-0.421-0.184-0.862c-0.052-0.44-0.082-0.915-0.087-1.423l-0.017-1.19
			c-0.012-0.578-0.183-0.989-0.512-1.234c-0.33-0.245-0.876-0.368-1.641-0.368h-2.679v5.086h-1.34h-1.348V272.468z M92.557,278.088
			h3.117c0.694,0,1.215-0.142,1.562-0.425c0.347-0.283,0.521-0.71,0.521-1.282c0-0.566-0.165-0.991-0.495-1.274
			s-0.824-0.425-1.484-0.425h-3.222V278.088z"/>
		<path style="fill:#E84A47;" d="M113.131,280.487c0.005,1.838-0.398,3.165-1.213,3.979c-0.814,0.814-2.141,1.221-3.979,1.221
			c-1.763,0-3.068-0.424-3.918-1.274c-0.849-0.849-1.277-2.158-1.282-3.926v-8.02h1.339h1.348v8.107
			c0,0.922,0.208,1.614,0.626,2.075c0.417,0.461,1.046,0.692,1.887,0.692c0.899,0,1.541-0.211,1.926-0.635s0.578-1.134,0.578-2.132
			v-8.107h1.339h1.349V280.487z"/>
		<path style="fill:#E84A47;" d="M118.542,274.753h-3.887v-1.138v-1.147h10.462v1.138v1.147h-3.887v10.584h-1.339h-1.348V274.753z"
			/>
		<path style="fill:#E84A47;" d="M137.032,280.487c0.005,1.838-0.398,3.165-1.213,3.979c-0.814,0.814-2.141,1.221-3.979,1.221
			c-1.763,0-3.068-0.424-3.918-1.274c-0.849-0.849-1.277-2.158-1.282-3.926v-8.02h1.339h1.348v8.107
			c0,0.922,0.208,1.614,0.626,2.075c0.417,0.461,1.046,0.692,1.887,0.692c0.899,0,1.541-0.211,1.926-0.635s0.578-1.134,0.578-2.132
			v-8.107h1.339h1.349V280.487z"/>
		<path style="fill:#E84A47;" d="M139.667,272.468h1.339h5.148c1.226,0,2.213,0.328,2.964,0.985c0.75,0.657,1.125,1.522,1.125,2.596
			c0,1.238-0.417,2.142-1.252,2.714c-0.222,0.152-0.473,0.28-0.753,0.385c0.157,0.064,0.3,0.135,0.429,0.21
			c0.735,0.438,1.118,1.173,1.147,2.206l0.062,2.11c0.011,0.42,0.055,0.718,0.131,0.893c0.076,0.175,0.222,0.315,0.438,0.42v0.341
			h-2.97c-0.07-0.134-0.131-0.421-0.184-0.862c-0.052-0.44-0.082-0.915-0.087-1.423l-0.017-1.19
			c-0.012-0.578-0.183-0.989-0.512-1.234c-0.33-0.245-0.876-0.368-1.641-0.368h-2.679v5.086h-1.34h-1.348V272.468z M142.355,278.088
			h3.117c0.694,0,1.215-0.142,1.562-0.425c0.347-0.283,0.521-0.71,0.521-1.282c0-0.566-0.165-0.991-0.495-1.274
			s-0.824-0.425-1.484-0.425h-3.222V278.088z"/>
		<path style="fill:#E84A47;" d="M156.161,272.468h1.558h1.559l4.552,12.87h-1.425h-1.425l-0.871-2.618h-4.881l-0.842,2.618h-1.384
			h-1.393L156.161,272.468z M155.974,280.505h3.417l-1.709-5.174h0.002L155.974,280.505z"/>
	</g>
	<g>
		<path style="fill:#80A938;" d="M363.631,97.077c-1.115-1.208-1.672-2.842-1.672-4.903c0-2.101,0.557-3.769,1.672-5.003
			s2.618-1.852,4.509-1.852c1.903,0,3.41,0.617,4.522,1.852s1.668,2.902,1.668,5.003c0,2.061-0.556,3.694-1.668,4.903
			c-1.112,1.208-2.619,1.812-4.522,1.812C366.249,98.889,364.746,98.285,363.631,97.077z M370.714,95.427
			c0.619-0.785,0.928-1.875,0.928-3.27c0-1.424-0.309-2.539-0.928-3.344c-0.619-0.806-1.477-1.208-2.574-1.208
			c-1.091,0-1.946,0.403-2.565,1.208c-0.619,0.805-0.928,1.92-0.928,3.344c0,1.395,0.308,2.485,0.924,3.27s1.472,1.177,2.569,1.177
			S370.096,96.212,370.714,95.427z"/>
		<path style="fill:#80A938;" d="M376.484,98.539v-12.87h9.158v1.138v1.147h-6.47v2.924h5.638v1.103v1.112h-5.638v5.445h-1.34
			H376.484z"/>
		<path style="fill:#80A938;" d="M387.437,98.539v-12.87h9.473v1.138v1.147h-6.785v2.731h6.295v1.103v1.112h-6.295v3.353h7.082
			v1.138v1.147H387.437z"/>
		<path style="fill:#80A938;" d="M399.396,85.669h1.339h5.147c1.227,0,2.214,0.328,2.965,0.985c0.749,0.657,1.125,1.522,1.125,2.596
			c0,1.238-0.418,2.142-1.252,2.714c-0.223,0.152-0.474,0.28-0.754,0.385c0.158,0.064,0.301,0.135,0.43,0.21
			c0.734,0.438,1.117,1.173,1.146,2.206l0.062,2.11c0.011,0.42,0.056,0.718,0.131,0.893c0.076,0.175,0.222,0.315,0.438,0.42v0.341
			h-2.971c-0.069-0.134-0.131-0.421-0.184-0.862c-0.053-0.44-0.082-0.915-0.088-1.423l-0.017-1.19
			c-0.012-0.578-0.183-0.989-0.512-1.234s-0.876-0.368-1.641-0.368h-2.679v5.086h-1.34h-1.348V85.669z M402.083,91.29h3.117
			c0.693,0,1.215-0.142,1.562-0.425c0.347-0.283,0.521-0.71,0.521-1.282c0-0.566-0.165-0.991-0.495-1.274
			c-0.329-0.283-0.824-0.425-1.483-0.425h-3.222V91.29z"/>
		<path style="fill:#80A938;" d="M415.119,87.955h-3.888v-1.138v-1.147h10.463v1.138v1.147h-3.888v10.584h-1.339h-1.349V87.955z"/>
		<path style="fill:#80A938;" d="M426.842,85.669h1.558h1.559l4.553,12.87h-1.426h-1.425l-0.87-2.618h-4.882l-0.843,2.618h-1.383
			h-1.394L426.842,85.669z M426.655,93.707h3.416l-1.709-5.174h0.002L426.655,93.707z"/>
	</g>
	<g>
		<path style="fill:#554689;" d="M617.406,275.982v-12.87h9.473v1.138v1.147h-6.784v2.731h6.294v1.103v1.112h-6.294v3.353h7.082
			v1.138v1.147H617.406z"/>
		<path style="fill:#554689;" d="M629.365,275.982v-12.87h9.158v1.138v1.147h-6.47v2.924h5.638v1.103v1.112h-5.638v5.445h-1.34
			H629.365z"/>
		<path style="fill:#554689;" d="M640.1,263.112h1.339h1.349v12.87h-1.34H640.1V263.112z"/>
		<path style="fill:#554689;" d="M656.199,271.473c-0.163,1.488-0.745,2.67-1.746,3.546s-2.275,1.313-3.822,1.313
			c-1.809,0-3.246-0.604-4.312-1.812c-1.065-1.208-1.598-2.842-1.598-4.903c0-2.101,0.532-3.769,1.598-5.003
			s2.503-1.852,4.312-1.852c1.529,0,2.796,0.413,3.8,1.239c1.004,0.826,1.594,1.945,1.769,3.357h-2.688
			c-0.088-0.694-0.388-1.246-0.898-1.655c-0.512-0.408-1.162-0.613-1.951-0.613c-0.999,0-1.782,0.398-2.35,1.195
			c-0.567,0.797-0.851,1.901-0.851,3.314c0,1.377,0.282,2.456,0.847,3.235c0.563,0.779,1.349,1.169,2.354,1.169
			c0.789,0,1.439-0.228,1.951-0.683c0.511-0.455,0.811-1.071,0.898-1.847H656.199z"/>
		<path style="fill:#554689;" d="M658.029,263.112h1.34h1.348v12.87h-1.339h-1.349V263.112z"/>
		<path style="fill:#554689;" d="M663.229,275.982v-12.87h9.473v1.138v1.147h-6.784v2.731h6.294v1.103v1.112h-6.294v3.353H673v1.138
			v1.147H663.229z M669.104,259.199l2.031,2.6h-2.014l-1.139-1.462l-1.138,1.462h-2.014l2.031-2.6h1.12H669.104z"/>
		<path style="fill:#554689;" d="M677.57,275.982h-1.252h-1.261v-12.87h1.409h1.41l5.165,9.035v-9.035h1.252h1.261v12.87h-1.34
			h-1.339l-5.306-9.28V275.982z"/>
		<path style="fill:#554689;" d="M699.037,271.473c-0.163,1.488-0.745,2.67-1.746,3.546s-2.275,1.313-3.822,1.313
			c-1.809,0-3.246-0.604-4.312-1.812c-1.065-1.208-1.598-2.842-1.598-4.903c0-2.101,0.532-3.769,1.598-5.003
			s2.503-1.852,4.312-1.852c1.529,0,2.796,0.413,3.8,1.239c1.004,0.826,1.594,1.945,1.769,3.357h-2.688
			c-0.088-0.694-0.388-1.246-0.898-1.655c-0.512-0.408-1.162-0.613-1.951-0.613c-0.999,0-1.782,0.398-2.35,1.195
			c-0.567,0.797-0.851,1.901-0.851,3.314c0,1.377,0.282,2.456,0.847,3.235c0.563,0.779,1.349,1.169,2.354,1.169
			c0.789,0,1.439-0.228,1.951-0.683c0.511-0.455,0.811-1.071,0.898-1.847H699.037z"/>
		<path style="fill:#554689;" d="M700.867,263.112h1.339h1.349v12.87h-1.34h-1.348V263.112z"/>
		<path style="fill:#554689;" d="M709.613,263.112h1.559h1.559l4.552,12.87h-1.425h-1.426l-0.87-2.618h-4.882l-0.842,2.618h-1.384
			h-1.394L709.613,263.112z M709.427,271.149h3.416l-1.709-5.174h0.002L709.427,271.149z"/>
	</g>
	<g>
		<path style="fill:#2EB1E8;" d="M525.535,588.223c-0.164,1.488-0.746,2.671-1.747,3.546c-1.001,0.876-2.274,1.313-3.821,1.313
			c-1.81,0-3.247-0.604-4.312-1.812c-1.065-1.208-1.598-2.842-1.598-4.902c0-2.102,0.532-3.77,1.598-5.004
			c1.064-1.234,2.502-1.852,4.312-1.852c1.529,0,2.796,0.413,3.8,1.239c1.004,0.825,1.593,1.944,1.769,3.357h-2.688
			c-0.087-0.694-0.387-1.246-0.898-1.655c-0.512-0.408-1.161-0.612-1.95-0.612c-1,0-1.783,0.398-2.35,1.194
			c-0.567,0.797-0.851,1.901-0.851,3.314c0,1.377,0.281,2.455,0.846,3.234s1.349,1.169,2.354,1.169c0.789,0,1.438-0.228,1.95-0.683
			s0.812-1.071,0.898-1.848H525.535z"/>
		<path style="fill:#2EB1E8;" d="M537.897,587.882c0.005,1.838-0.398,3.164-1.213,3.979s-2.141,1.222-3.979,1.222
			c-1.763,0-3.068-0.425-3.918-1.274c-0.849-0.849-1.276-2.157-1.282-3.926v-8.02h1.34h1.348v8.106c0,0.923,0.209,1.614,0.626,2.075
			c0.418,0.461,1.047,0.691,1.887,0.691c0.899,0,1.541-0.211,1.927-0.635c0.385-0.423,0.577-1.134,0.577-2.132v-8.106h1.34h1.349
			V587.882z"/>
		<path style="fill:#2EB1E8;" d="M547.507,583.723c-0.047-0.612-0.315-1.099-0.806-1.457c-0.49-0.359-1.129-0.539-1.916-0.539
			c-0.683,0-1.217,0.15-1.602,0.451s-0.577,0.72-0.577,1.256c0,0.386,0.201,0.684,0.604,0.894c0.396,0.21,1.239,0.458,2.529,0.744
			c1.873,0.42,3.125,0.904,3.756,1.453c0.631,0.543,0.946,1.415,0.946,2.618c0,1.208-0.476,2.166-1.427,2.876
			c-0.951,0.709-2.237,1.063-3.859,1.063c-1.629,0-2.9-0.377-3.816-1.13c-0.917-0.753-1.406-1.823-1.471-3.213h2.591
			c0.029,0.683,0.277,1.208,0.744,1.576c0.467,0.367,1.117,0.552,1.952,0.552c0.857,0,1.527-0.139,2.009-0.416
			c0.48-0.277,0.722-0.661,0.722-1.151c0-0.484-0.174-0.841-0.521-1.068c-0.339-0.228-1.062-0.464-2.17-0.709
			c-2.041-0.455-3.406-0.948-4.095-1.479c-0.684-0.525-1.024-1.346-1.024-2.46c0-1.249,0.452-2.24,1.356-2.973
			s2.127-1.099,3.667-1.099c1.441,0,2.613,0.38,3.519,1.139c0.904,0.759,1.405,1.782,1.505,3.072H547.507z"/>
		<path style="fill:#2EB1E8;" d="M555.267,582.148h-3.887v-1.139v-1.146h10.462v1.138v1.147h-3.888v10.584h-1.339h-1.349V582.148z"
			/>
		<path style="fill:#2EB1E8;" d="M564.538,591.27c-1.115-1.208-1.672-2.842-1.672-4.902c0-2.102,0.557-3.77,1.672-5.004
			c1.114-1.234,2.617-1.852,4.509-1.852c1.902,0,3.41,0.617,4.521,1.852c1.112,1.234,1.668,2.902,1.668,5.004
			c0,2.061-0.556,3.694-1.668,4.902c-1.111,1.208-2.619,1.812-4.521,1.812C567.155,593.083,565.652,592.478,564.538,591.27z
			 M571.621,589.62c0.618-0.785,0.928-1.875,0.928-3.27c0-1.424-0.31-2.539-0.928-3.345c-0.619-0.806-1.478-1.208-2.574-1.208
			c-1.092,0-1.946,0.402-2.565,1.208c-0.618,0.806-0.928,1.921-0.928,3.345c0,1.395,0.308,2.484,0.924,3.27
			c0.615,0.785,1.472,1.178,2.569,1.178C570.144,590.797,571.002,590.405,571.621,589.62z"/>
		<path style="fill:#2EB1E8;" d="M579.771,592.732h-1.252h-1.261v-12.869h1.97h1.971l2.344,10.199l2.313-10.199h1.943h1.943v12.869
			h-1.252h-1.261v-10.821h0.002l-2.409,10.821h-1.322h-1.321l-2.405-11.058h-0.003V592.732z"/>
		<path style="fill:#2EB1E8;" d="M592.326,592.732v-12.869h9.473v1.138v1.147h-6.785v2.731h6.295v1.103v1.112h-6.295v3.353h7.083
			v1.139v1.146H592.326z"/>
		<path style="fill:#2EB1E8;" d="M604.285,579.863h1.34h5.147c1.226,0,2.214,0.328,2.964,0.984c0.75,0.657,1.125,1.522,1.125,2.596
			c0,1.238-0.417,2.143-1.252,2.715c-0.222,0.151-0.473,0.279-0.753,0.385c0.157,0.064,0.301,0.135,0.429,0.21
			c0.735,0.438,1.118,1.173,1.147,2.206l0.062,2.11c0.011,0.42,0.055,0.718,0.131,0.893c0.076,0.176,0.222,0.315,0.438,0.421v0.341
			h-2.97c-0.069-0.134-0.131-0.421-0.184-0.862c-0.053-0.44-0.082-0.915-0.088-1.423l-0.017-1.19
			c-0.012-0.578-0.183-0.989-0.512-1.234c-0.33-0.245-0.877-0.367-1.641-0.367h-2.679v5.086h-1.34h-1.349V579.863z M606.974,585.483
			h3.116c0.694,0,1.216-0.142,1.562-0.425c0.348-0.282,0.521-0.71,0.521-1.282c0-0.566-0.165-0.99-0.495-1.273
			c-0.329-0.283-0.824-0.425-1.483-0.425h-3.222V585.483z"/>
		<path style="fill:#2EB1E8;" d="M514.635,614.249v-12.87h9.473v1.139v1.146h-6.784v2.731h6.294v1.104v1.111h-6.294v3.354h7.082
			v1.138v1.147H514.635z"/>
		<path style="fill:#2EB1E8;" d="M529.649,607.735l-3.887-6.356h1.586h1.595l2.262,4.151l2.344-4.151h1.553h1.552l-3.922,6.155
			l4.202,6.715h-1.602h-1.61l-2.525-4.432l-2.533,4.432h-1.586h-1.595L529.649,607.735z"/>
		<path style="fill:#2EB1E8;" d="M538.554,601.378h1.339h4.045c1.465,0,2.58,0.343,3.345,1.029c0.765,0.686,1.146,1.685,1.146,2.998
			c0,1.39-0.382,2.444-1.146,3.165s-1.88,1.081-3.345,1.081c-1.039-0.006-1.938,0-2.696,0.018v4.579h-1.34h-1.348V601.378z
			 M541.241,607.437h2.241c0.753,0,1.317-0.166,1.694-0.499c0.376-0.333,0.564-0.835,0.564-1.506c0-0.613-0.188-1.072-0.564-1.379
			c-0.377-0.307-0.941-0.46-1.694-0.46h-2.241V607.437z"/>
		<path style="fill:#2EB1E8;" d="M550.513,614.249v-12.87h9.473v1.139v1.146H553.2v2.731h6.295v1.104v1.111H553.2v3.354h7.083v1.138
			v1.147H550.513z"/>
		<path style="fill:#2EB1E8;" d="M562.472,601.378h1.34h5.147c1.226,0,2.214,0.328,2.964,0.985c0.75,0.656,1.125,1.521,1.125,2.596
			c0,1.237-0.417,2.142-1.252,2.714c-0.222,0.152-0.473,0.28-0.753,0.385c0.157,0.064,0.301,0.135,0.429,0.211
			c0.735,0.438,1.118,1.173,1.147,2.206l0.062,2.109c0.011,0.421,0.055,0.719,0.131,0.894s0.222,0.315,0.438,0.42v0.342h-2.97
			c-0.069-0.135-0.131-0.422-0.184-0.862s-0.082-0.915-0.088-1.423l-0.017-1.19c-0.012-0.578-0.183-0.989-0.512-1.234
			c-0.33-0.245-0.877-0.368-1.641-0.368h-2.679v5.087h-1.34h-1.349V601.378z M565.16,607h3.116c0.694,0,1.216-0.142,1.562-0.425
			c0.348-0.283,0.521-0.711,0.521-1.282c0-0.566-0.165-0.991-0.495-1.274c-0.329-0.283-0.824-0.425-1.483-0.425h-3.222V607z"/>
		<path style="fill:#2EB1E8;" d="M575.201,601.378h1.34h1.348v12.87h-1.339h-1.349V601.378z"/>
		<path style="fill:#2EB1E8;" d="M580.401,614.249v-12.87h9.473v1.139v1.146h-6.784v2.731h6.294v1.104v1.111h-6.294v3.354h7.082
			v1.138v1.147H580.401z"/>
		<path style="fill:#2EB1E8;" d="M594.742,614.249h-1.252h-1.261v-12.87h1.41h1.409l5.165,9.035v-9.035h1.252h1.261v12.87h-1.339
			h-1.34l-5.306-9.28V614.249z"/>
		<path style="fill:#2EB1E8;" d="M616.209,609.74c-0.163,1.488-0.745,2.67-1.746,3.546c-1.001,0.875-2.275,1.312-3.822,1.312
			c-1.809,0-3.246-0.604-4.312-1.812c-1.065-1.209-1.598-2.843-1.598-4.903c0-2.101,0.532-3.769,1.598-5.003
			s2.503-1.852,4.312-1.852c1.529,0,2.796,0.412,3.8,1.238s1.594,1.945,1.769,3.357h-2.688c-0.088-0.694-0.388-1.246-0.898-1.654
			c-0.512-0.408-1.162-0.613-1.951-0.613c-0.999,0-1.782,0.398-2.35,1.195s-0.851,1.901-0.851,3.313
			c0,1.378,0.282,2.456,0.847,3.235c0.563,0.779,1.349,1.169,2.354,1.169c0.789,0,1.439-0.228,1.951-0.684
			c0.511-0.455,0.811-1.07,0.898-1.847H616.209z"/>
		<path style="fill:#2EB1E8;" d="M618.039,601.378h1.34h1.348v12.87h-1.339h-1.349V601.378z"/>
		<path style="fill:#2EB1E8;" d="M623.239,614.249v-12.87h9.473v1.139v1.146h-6.784v2.731h6.294v1.104v1.111h-6.294v3.354h7.082
			v1.138v1.147H623.239z"/>
	</g>
	<g id="uGSrGf_1_">
		<g>
			<path style="fill:#2EB1E8;" d="M379.331,522.968c38.651,0,69.678,31.13,69.781,69.799c0.101,37.858-30.821,70.48-71.121,69.78
				c-38.527-0.67-68.625-32.289-68.484-69.985C309.65,554.045,340.729,522.967,379.331,522.968z M378.966,583.44
				c-0.304-8.645-5.063-15.342-12.378-18.207c-5.369-2.103-10.936-2.404-16.586-1.665c-9.877,1.291-16.894,6.313-20.07,15.955
				c-2.543,7.722-2.602,15.656-0.887,23.532c1.916,8.796,6.845,15.183,15.737,17.933c4.94,1.528,9.993,1.499,15.081,0.864
				c10.577-1.32,17.724-8.395,19.14-18.966c0.161-1.205-0.164-1.655-1.424-1.622c-2.757,0.071-5.519,0.072-8.276-0.002
				c-1.223-0.033-1.808,0.337-2.157,1.58c-0.825,2.933-2.315,5.48-5.054,7.076c-7.779,4.532-17.697,0.997-20.702-7.461
				c-2.108-5.932-2.026-11.996-0.445-18.023c1.518-5.786,5.247-9.458,11.232-10.24c6.091-0.796,11.611,0.12,14.558,6.597
				c0.714,1.569,2.216,2.499,3.889,2.603C373.357,583.564,376.108,583.44,378.966,583.44z M430.423,563.229
				c-3.671,0-6.964,0.059-10.253-0.018c-2.764-0.065-4.676,1.099-6.167,3.408c-11.579,17.938-23.211,35.842-34.823,53.758
				c-0.335,0.517-0.632,1.058-1.068,1.792c0.813,0.061,1.336,0.134,1.86,0.135c3.624,0.01,7.25-0.041,10.873,0.031
				c1.203,0.024,1.828-0.459,2.405-1.459c3.299-5.708,6.662-11.378,10.009-17.058c0.283-0.48,0.604-0.938,1.002-1.551
				c0.518,0.851,0.912,1.488,1.296,2.132c3.269,5.476,6.565,10.936,9.777,16.445c0.623,1.068,1.301,1.522,2.555,1.494
				c3.514-0.079,7.032-0.022,10.548-0.034c0.566-0.002,1.132-0.084,1.917-0.146c-0.457-0.792-0.765-1.355-1.1-1.901
				c-5.456-8.89-10.894-17.791-16.402-26.649c-0.704-1.133-0.698-1.93,0.024-3.041c5.454-8.381,10.844-16.804,16.251-25.216
				C429.501,564.771,429.847,564.175,430.423,563.229z M378.514,563.258c5.327,8.697,10.424,17.018,15.67,25.583
				c2.516-3.562,4.836-6.801,7.08-10.092c0.216-0.317,0.118-1.048-0.103-1.433c-2.531-4.395-5.097-8.771-7.709-13.118
				c-0.256-0.427-0.877-0.893-1.335-0.9C387.75,563.23,383.381,563.258,378.514,563.258z"/>
			<path style="fill:#FFFFFF;" d="M378.966,583.44c-2.857,0-5.609,0.125-8.342-0.046c-1.674-0.104-3.175-1.034-3.889-2.603
				c-2.946-6.477-8.467-7.392-14.558-6.597c-5.986,0.782-9.714,4.454-11.232,10.24c-1.581,6.027-1.664,12.091,0.445,18.023
				c3.006,8.457,12.923,11.992,20.702,7.461c2.739-1.596,4.229-4.143,5.054-7.076c0.35-1.244,0.934-1.614,2.157-1.58
				c2.757,0.075,5.519,0.073,8.276,0.002c1.261-0.032,1.586,0.417,1.424,1.622c-1.416,10.571-8.563,17.646-19.14,18.966
				c-5.088,0.635-10.141,0.664-15.081-0.864c-8.892-2.75-13.822-9.137-15.737-17.933c-1.715-7.875-1.657-15.81,0.887-23.532
				c3.176-9.642,10.193-14.664,20.07-15.955c5.65-0.739,11.217-0.438,16.586,1.665C373.902,568.098,378.662,574.795,378.966,583.44z
				"/>
			<path style="fill:#FFFFFF;" d="M430.423,563.229c-0.576,0.946-0.922,1.542-1.294,2.121c-5.407,8.412-10.797,16.835-16.251,25.216
				c-0.723,1.111-0.729,1.908-0.024,3.041c5.508,8.858,10.946,17.759,16.402,26.649c0.335,0.546,0.643,1.109,1.1,1.901
				c-0.785,0.062-1.351,0.144-1.917,0.146c-3.516,0.012-7.034-0.046-10.548,0.034c-1.254,0.028-1.932-0.425-2.555-1.494
				c-3.212-5.509-6.509-10.969-9.777-16.445c-0.384-0.644-0.779-1.281-1.296-2.132c-0.397,0.613-0.719,1.07-1.002,1.551
				c-3.347,5.68-6.71,11.35-10.009,17.058c-0.578,1-1.202,1.483-2.405,1.459c-3.623-0.071-7.248-0.021-10.873-0.031
				c-0.524-0.001-1.047-0.074-1.86-0.135c0.436-0.733,0.733-1.275,1.068-1.792c11.612-17.917,23.243-35.821,34.823-53.758
				c1.491-2.309,3.402-3.473,6.167-3.408C423.459,563.289,426.752,563.229,430.423,563.229z"/>
			<path style="fill:#FFFFFF;" d="M378.514,563.258c4.867,0,9.236-0.027,13.603,0.041c0.458,0.007,1.079,0.473,1.335,0.9
				c2.612,4.347,5.178,8.723,7.709,13.118c0.221,0.384,0.319,1.116,0.103,1.433c-2.244,3.291-4.563,6.53-7.08,10.092
				C388.938,580.275,383.841,571.954,378.514,563.258z"/>
		</g>
	</g>
</g>
<g id="Layer_1">
</g>
</svg>
