<?xml version="1.0" encoding="iso-8859-1"?>
<!-- Generator: Adobe Illustrator 18.0.0, SVG Export Plug-In . SVG Version: 6.00 Build 0)  -->
<!DOCTYPE svg PUBLIC "-//W3C//DTD SVG 1.1//EN" "http://www.w3.org/Graphics/SVG/1.1/DTD/svg11.dtd">
<svg version="1.1" xmlns="http://www.w3.org/2000/svg" xmlns:xlink="http://www.w3.org/1999/xlink" x="0px" y="0px"
	 viewBox="0 0 35.508 81.038" style="enable-background:new 0 0 35.508 81.038;" xml:space="preserve">
<g id="Layer_1_1_">
	<path style="fill-rule:evenodd;clip-rule:evenodd;fill:#FFFFFF;" d="M33.398,34.583c-0.19-0.573-0.572-1.146-1.05-1.528
		c-4.206-3.345-8.506-5.164-12.81-5.545c-0.669-2.579-0.669-4.396,0-5.733c0.767-1.34,2.295-2.295,4.877-3.155
		c4.873-1.245,8.314-4.683,8.982-8.604c0.577-3.632-1.241-7.073-5.159-9.651c-0.956-0.672-2.104-0.382-2.678,0.573
		c-0.573,0.859-0.382,2.101,0.573,2.677c1.722,1.146,3.823,3.151,3.441,5.829c-0.477,2.295-2.867,4.495-6.21,5.259
		c0,0.095,0,0.095,0,0.095c-3.632,1.146-6.118,2.868-7.264,5.16c-1.054,2.009-1.245,4.591-0.577,7.646
		c-4.205,0.48-8.315,2.295-12.425,5.45c-0.477,0.382-0.859,0.955-1.05,1.528c-1.914,6.882-2.486,13.574-1.723,20.934
		c0.764,6.405,2.678,12.905,4.778,20.265c0.191,0.573,0.481,1.146,0.958,1.433c3.25,2.486,7.359,3.823,11.66,3.823
		c4.3,0,8.602-1.337,11.756-3.823c0.478-0.287,0.859-0.86,1.054-1.433c2.005-7.36,3.823-13.86,4.587-20.265
		C35.981,48.157,35.408,41.466,33.398,34.583L33.398,34.583z"/>
	<path style="fill-rule:evenodd;clip-rule:evenodd;fill:#67CDFD;" d="M20.401,48.635c0,1.436-1.244,2.486-2.677,2.486
		c-1.433,0-2.486-1.05-2.486-2.486V37.834c0-1.433,1.054-2.582,2.486-2.582c1.433,0,2.677,1.149,2.677,2.582V48.635z"/>
</g>
<g id="Layer_1">
</g>
</svg>
