<?xml version="1.0" encoding="iso-8859-1"?>
<!-- Generator: Adobe Illustrator 18.0.0, SVG Export Plug-In . SVG Version: 6.00 Build 0)  -->
<!DOCTYPE svg PUBLIC "-//W3C//DTD SVG 1.1//EN" "http://www.w3.org/Graphics/SVG/1.1/DTD/svg11.dtd">
<svg version="1.1" id="Isolation_Mode" xmlns="http://www.w3.org/2000/svg" xmlns:xlink="http://www.w3.org/1999/xlink" x="0px"
	 y="0px" viewBox="0 0 290.52 76.941" style="enable-background:new 0 0 290.52 76.941;" xml:space="preserve">
<path style="fill-rule:evenodd;clip-rule:evenodd;fill:#FFFFFF;" d="M272.616,31.81c-0.092,0.174-0.203,0.34-0.275,0.521
	c-3.096,7.806-6.185,15.614-9.283,23.419c-0.916,2.307-1.91,4.584-2.77,6.911c-0.43,1.166-1.19,1.827-2.355,1.841
	c-4.014,0.047-8.03,0.049-12.045-0.014c-1.293-0.02-2.113-0.752-2.65-2.027c-3.717-8.838-7.514-17.643-11.264-26.467
	c-0.572-1.347-1.041-2.739-1.713-4.138c0,0.327,0,0.654,0,0.981c0,13.854,0,27.708,0,41.564c0,1.726-0.302,2.217-1.996,2.3
	c-3.424,0.166-6.855,0.193-10.285,0.231c-1.192,0.014-2.395-0.041-3.577-0.186c-1.66-0.202-1.86-0.482-1.86-2.096
	c0-24.114,0-48.228,0-72.343c0-1.477,0.328-1.886,1.83-2.075c1.031-0.129,2.076-0.212,3.115-0.216
	c3.748-0.015,7.496-0.036,11.242,0.049c1.241,0.028,2.514,0.242,3.695,0.612c0.613,0.191,1.294,0.809,1.549,1.404
	c3.998,9.322,7.99,18.648,11.857,28.025c2.275,5.52,4.329,11.132,6.454,16.629c0.013-0.034,0.099-0.266,0.189-0.496
	c2.971-7.556,5.886-15.133,8.928-22.66c2.869-7.104,5.903-14.142,8.791-21.238c0.553-1.36,1.443-2.029,2.803-2.113
	c1.957-0.123,3.921-0.191,5.883-0.212c2.549-0.028,5.1-0.024,7.648,0.044c0.939,0.025,1.879,0.238,2.807,0.426
	c0.835,0.17,1.2,0.711,1.188,1.595c-0.031,2.58-0.011,5.161-0.011,7.741c0,21.564,0,43.13,0,64.694c0,1.598-0.325,2.117-1.907,2.193
	c-3.363,0.162-6.734,0.196-10.103,0.229c-1.315,0.013-2.637-0.066-3.945-0.205c-1.469-0.155-1.728-0.517-1.728-2.017
	c-0.002-13.978-0.002-27.955-0.004-41.932c0-0.315,0-0.63,0-0.945C272.752,31.829,272.684,31.819,272.616,31.81z"/>
<path style="fill-rule:evenodd;clip-rule:evenodd;fill:#FFFFFF;" d="M131.799,16.622c-3.043,0-5.929,0-8.815,0
	c-2.826,0-5.653,0.003-8.479-0.001c-1.209-0.002-1.596-0.301-1.799-1.502c-0.127-0.753-0.207-1.524-0.213-2.288
	c-0.023-3.195-0.019-6.39-0.002-9.585c0.003-0.611,0.094-1.223,0.17-1.832c0.147-1.176,0.415-1.407,1.589-1.407
	c11.09-0.001,22.18-0.001,33.269-0.001c6.451,0,12.902-0.001,19.354-0.001c1.218,0,1.535,0.235,1.648,1.462
	c0.113,1.219,0.172,2.449,0.162,3.673c-0.023,3.19-0.049,6.382-0.175,9.569c-0.062,1.557-0.556,1.911-2.081,1.911
	c-5.283,0.001-10.567,0.001-15.852,0.001c-0.33,0-0.66,0-1.05,0c-0.017,0.385-0.042,0.683-0.042,0.981
	c0,18.923,0.001,37.847,0.002,56.771c0,1.789-0.252,2.236-2.062,2.334c-3.393,0.183-6.795,0.199-10.194,0.227
	c-1.314,0.012-2.637-0.08-3.944-0.226c-1.194-0.134-1.486-0.548-1.486-1.759c0-19.046,0-38.093,0-57.139
	C131.799,17.45,131.799,17.089,131.799,16.622z"/>
<path style="fill-rule:evenodd;clip-rule:evenodd;fill:#EE3624;" d="M46.029,0.038c13.856,0,27.713,0.021,41.569-0.021
	c2.357-0.007,4.474,2.043,4.433,4.282c-0.051,2.733,0.003,5.468-0.029,8.202c-0.023,1.922-1.743,3.753-3.669,3.933
	c-1.063,0.099-2.131,0.173-3.198,0.174c-26.637,0.01-53.275,0.008-79.912,0.006c-1.97,0-3.701-0.542-4.684-2.408
	c-0.3-0.569-0.477-1.268-0.489-1.911c-0.053-2.672-0.025-5.345-0.022-8.019C0.03,1.968,1.96,0.039,4.276,0.039
	C18.194,0.036,32.112,0.038,46.029,0.038z"/>
<path style="fill-rule:evenodd;clip-rule:evenodd;fill:#FFFFFF;" d="M180.465,38.468c0-12.042,0-24.084,0-36.127
	c0-1.565,0.285-1.944,1.869-2.103c1.432-0.143,2.876-0.228,4.314-0.218c3.036,0.02,6.072,0.11,9.107,0.193
	c0.393,0.011,0.785,0.126,1.168,0.23c0.842,0.229,1.248,0.739,1.242,1.669c-0.029,4.669-0.013,9.339-0.013,14.008
	c0,19.445,0,38.892,0,58.337c0,1.675-0.298,2.175-1.944,2.255c-3.426,0.168-6.859,0.195-10.29,0.226
	c-1.284,0.011-2.575-0.069-3.852-0.218c-1.333-0.154-1.602-0.53-1.602-1.85C180.465,62.737,180.465,50.603,180.465,38.468z"/>
<path style="fill-rule:evenodd;clip-rule:evenodd;fill:#EE3624;" d="M55.21,30.278c0.335-0.015,0.608-0.037,0.881-0.037
	c10.414-0.001,20.829-0.003,31.243,0.003c2.38,0.001,3.946,1.099,4.543,3.188c0.123,0.432,0.148,0.904,0.149,1.357
	c0.007,2.611,0.017,5.223-0.02,7.833c-0.031,2.167-1.866,4.042-4.025,4.047c-10.752,0.025-21.504,0.019-32.256,0.022
	c-0.151,0-0.301-0.025-0.514-0.043C55.21,41.213,55.21,35.795,55.21,30.278z"/>
<path style="fill-rule:evenodd;clip-rule:evenodd;fill:#EE3624;" d="M55.19,76.868c0-5.497,0-10.893,0-16.345
	c0.338-0.019,0.636-0.049,0.935-0.05c10.382-0.002,20.764-0.005,31.145-0.002c2.452,0.001,3.928,0.998,4.585,3.117
	c0.132,0.426,0.164,0.897,0.165,1.346c0.009,2.672,0.021,5.345-0.02,8.016c-0.031,1.996-1.985,3.943-3.96,3.945
	C77.26,76.908,66.479,76.901,55.698,76.9C55.549,76.9,55.401,76.882,55.19,76.868z"/>
<path style="fill-rule:evenodd;clip-rule:evenodd;fill:#EE3624;" d="M36.866,60.533c0,5.482,0,10.853,0,16.368
	c-0.337,0-0.658,0-0.98,0c-10.501,0-21.001,0.002-31.501,0c-2.461-0.001-4.354-1.89-4.356-4.341
	c-0.003-2.641-0.009-5.281,0.001-7.921c0.009-2.197,1.895-4.145,4.079-4.146c10.685-0.015,21.37-0.008,32.054-0.006
	C36.371,60.487,36.579,60.514,36.866,60.533z"/>
<path style="fill-rule:evenodd;clip-rule:evenodd;fill:#EE3624;" d="M36.834,46.688c-0.398,0-0.757,0-1.116,0
	c-10.378-0.001-20.756-0.045-31.134,0.029C2.089,46.734-0.123,44.623,0,42.075c0.123-2.542,0.019-5.096,0.03-7.644
	c0.009-2.174,1.895-4.15,4.07-4.155c10.746-0.024,21.493-0.016,32.239-0.017c0.147,0,0.295,0.024,0.494,0.042
	C36.834,35.754,36.834,41.169,36.834,46.688z"/>
</svg>
