<?xml version="1.0" encoding="iso-8859-1"?>
<!-- Generator: Adobe Illustrator 18.0.0, SVG Export Plug-In . SVG Version: 6.00 Build 0)  -->
<!DOCTYPE svg PUBLIC "-//W3C//DTD SVG 1.1//EN" "http://www.w3.org/Graphics/SVG/1.1/DTD/svg11.dtd">
<svg version="1.1" xmlns="http://www.w3.org/2000/svg" xmlns:xlink="http://www.w3.org/1999/xlink" x="0px" y="0px"
	 viewBox="0 0 85.483 65.818" style="enable-background:new 0 0 85.483 65.818;" xml:space="preserve">
<g id="mouse">
	<path style="fill:#FFFFFF;" d="M11.281,23.471c-1.528,1.543-3.118,3.161-4.721,4.765c-7.432,7.439-8.682,18.628-3.067,27.511
		c4.608,7.29,13.426,11.118,21.957,9.819c7.415-1.129,12.216-6.009,16.864-11.083C31.999,44.176,21.701,33.886,11.281,23.471z"/>
	<path style="fill:#FFFFFF;" d="M82.14,13.152c0.093-6.443-5.423-11.374-9.617-12.623C68.76-0.592,65.231,0.16,61.864,1.932
		c-4.28,2.253-7.733,5.552-11.078,8.967c-0.333,0.34-0.536,0.882-0.633,1.364c-0.229,1.14,0.328,2.23,1.3,2.76
		c1.096,0.597,2.293,0.426,3.27-0.483c1.664-1.548,3.272-3.16,4.995-4.64c2.17-1.865,4.501-3.511,7.331-4.255
		c5.305-1.396,10.713,3.778,9.541,9.134c-0.727,3.322-2.58,6.056-4.741,8.568c-2.379,2.765-4.956,5.359-7.327,8.13
		c-1.906,2.227-3.392,4.725-4.055,7.647c-1.221,5.383,2.713,10.874,8.189,11.421c2.325,0.232,4.435-0.435,6.461-1.462
		c3.65-1.849,6.616-4.583,9.5-7.416c1.313-1.29,1.388-2.912,0.212-4.074c-1.097-1.083-2.712-0.947-4.022,0.279
		c-1.402,1.312-2.797,2.639-4.282,3.853c-1.837,1.502-3.768,2.904-6.16,3.408c-2.671,0.563-5.333-2.032-4.633-4.675
		c0.392-1.481,1.078-2.977,1.981-4.211c1.448-1.98,3.213-3.727,4.794-5.613c2.135-2.547,4.362-5.034,6.295-7.73
		C80.86,20.031,82.09,16.765,82.14,13.152z"/>
	<path style="fill:#FFFFFF;" d="M45.732,51.025c5.8-4.01,9.775-11.224,9.945-18.393c0.122-5.141-1.419-9.783-4.675-14.021
		c-1.283,1.32-2.479,2.517-3.622,3.763c-0.182,0.199-0.223,0.641-0.16,0.934c0.463,2.14-0.037,3.997-1.563,5.562
		c-1.139,1.168-2.299,2.316-3.458,3.465c-1.574,1.56-3.433,2.144-5.619,1.652c-0.278-0.063-0.704-0.08-0.873,0.081
		c-1.196,1.134-2.343,2.32-3.487,3.469C36.772,42.079,41.249,46.55,45.732,51.025z"/>
	<path style="fill:#FFFFFF;" d="M47.121,14.79c-0.318-0.259-0.524-0.455-0.756-0.612c-5.613-3.801-11.701-4.922-18.304-3.304
		c-5.577,1.367-9.507,5.081-13.214,9.134c-0.033,0.036-0.015,0.12-0.016,0.129c4.48,4.481,8.935,8.937,13.435,13.437
		c1.087-1.076,2.219-2.157,3.288-3.296c0.169-0.18,0.146-0.65,0.06-0.942c-0.695-2.373-0.194-4.42,1.576-6.157
		c1.074-1.054,2.142-2.115,3.195-3.189c1.788-1.823,3.871-2.374,6.318-1.568c0.259,0.085,0.705,0.005,0.898-0.175
		C44.77,17.155,45.89,16.012,47.121,14.79z"/>
	<path style="fill:#FFFFFF;" d="M44.208,24.837c-0.124-1.309-1.044-1.948-1.783-2.677c-1.03-1.014-2.393-1.039-3.429-0.047
		c-1.248,1.194-2.466,2.421-3.661,3.668c-0.951,0.993-0.952,2.251-0.048,3.281c0.337,0.384,0.708,0.741,1.089,1.081
		c1.042,0.933,2.255,0.944,3.268-0.023c1.249-1.193,2.486-2.402,3.659-3.668C43.711,26.013,43.912,25.381,44.208,24.837z"/>
	<path style="fill:#FFFFFF;" d="M11.281,23.471c10.421,10.414,20.718,20.705,31.033,31.013c-4.649,5.073-9.449,9.954-16.864,11.083
		c-8.531,1.299-17.349-2.529-21.957-9.819c-5.615-8.884-4.366-20.072,3.067-27.511C8.163,26.632,9.753,25.014,11.281,23.471z"/>
	<path style="fill:#FFFFFF;" d="M82.14,13.152c-0.05,3.613-1.28,6.879-3.34,9.753c-1.933,2.696-4.16,5.183-6.295,7.73
		c-1.582,1.887-3.346,3.633-4.794,5.613c-0.902,1.234-1.589,2.729-1.981,4.211c-0.7,2.643,1.962,5.238,4.633,4.675
		c2.392-0.504,4.323-1.906,6.16-3.408c1.485-1.214,2.88-2.541,4.282-3.853c1.31-1.226,2.925-1.362,4.022-0.279
		c1.177,1.162,1.102,2.784-0.212,4.074c-2.884,2.833-5.85,5.567-9.5,7.416c-2.026,1.027-4.136,1.694-6.461,1.462
		c-5.477-0.547-9.411-6.038-8.189-11.421c0.663-2.922,2.149-5.42,4.055-7.647c2.372-2.771,4.949-5.365,7.327-8.13
		c2.162-2.513,4.015-5.247,4.741-8.568c1.172-5.356-4.236-10.53-9.541-9.134c-2.83,0.745-5.161,2.39-7.331,4.255
		c-1.722,1.48-3.331,3.092-4.995,4.64c-0.977,0.909-2.174,1.08-3.27,0.483c-0.972-0.529-1.529-1.619-1.3-2.76
		c0.097-0.482,0.3-1.024,0.633-1.364c3.344-3.416,6.798-6.715,11.078-8.967c3.368-1.772,6.897-2.525,10.659-1.404
		C76.717,1.778,82.233,6.708,82.14,13.152z"/>
	<path style="fill:#FFFFFF;" d="M45.732,51.025c-4.482-4.475-8.96-8.946-13.511-13.489c1.143-1.15,2.29-2.335,3.487-3.469
		c0.169-0.16,0.595-0.143,0.873-0.081c2.187,0.492,4.045-0.092,5.619-1.652c1.159-1.149,2.319-2.296,3.458-3.465
		c1.526-1.565,2.026-3.422,1.563-5.562c-0.063-0.293-0.023-0.735,0.16-0.934c1.143-1.246,2.339-2.443,3.622-3.763
		c3.256,4.237,4.796,8.879,4.675,14.021C55.507,39.801,51.532,47.015,45.732,51.025z"/>
	<path style="fill:#FFFFFF;" d="M47.121,14.79c-1.232,1.222-2.351,2.365-3.519,3.457c-0.193,0.181-0.639,0.261-0.898,0.175
		c-2.447-0.806-4.53-0.255-6.318,1.568c-1.054,1.074-2.121,2.135-3.195,3.189c-1.77,1.738-2.271,3.784-1.576,6.157
		c0.085,0.292,0.108,0.762-0.06,0.942c-1.069,1.139-2.201,2.22-3.288,3.296c-4.5-4.5-8.955-8.957-13.435-13.437
		c0.001-0.009-0.018-0.093,0.016-0.129c3.707-4.053,7.637-7.767,13.214-9.134c6.603-1.618,12.691-0.498,18.304,3.304
		C46.598,14.335,46.804,14.531,47.121,14.79z"/>
	<path class="mouseScroll" id="MouseScroll" style="fill:#2EB1E8;" d="M44.208,24.837c-0.296,0.544-0.497,1.176-0.905,1.617
		c-1.173,1.266-2.41,2.475-3.659,3.668c-1.012,0.967-2.225,0.955-3.268,0.023c-0.381-0.341-0.752-0.698-1.089-1.081
		c-0.904-1.03-0.903-2.288,0.048-3.281c1.195-1.247,2.413-2.474,3.661-3.668c1.036-0.992,2.399-0.967,3.429,0.047
		C43.164,22.888,44.084,23.528,44.208,24.837z"/>
</g>
</svg>
