<?xml version="1.0" encoding="iso-8859-1"?>
<!-- Generator: Adobe Illustrator 18.0.0, SVG Export Plug-In . SVG Version: 6.00 Build 0)  -->
<!DOCTYPE svg PUBLIC "-//W3C//DTD SVG 1.1//EN" "http://www.w3.org/Graphics/SVG/1.1/DTD/svg11.dtd">
<svg version="1.1" xmlns="http://www.w3.org/2000/svg" xmlns:xlink="http://www.w3.org/1999/xlink" x="0px" y="0px"
	 viewBox="0 0 531.453 494.191" style="enable-background:new 0 0 531.453 494.191;" xml:space="preserve">
<g id="page13-3">
	
		<polygon style="fill:none;stroke:#000000;stroke-width:3.6793;stroke-linecap:round;stroke-linejoin:round;stroke-miterlimit:10;" points="
		43.446,14.904 69.635,406.333 475.632,438.052 529.613,82.648 	"/>
	<polygon style="opacity:0.8;fill:#E92325;" points="100.919,49.06 83.146,447.249 518.153,405.508 454.366,31.542 	"/>
	<polygon style="fill:#03B9DB;" points="23.262,106.379 387.98,82.648 390.61,211.407 20.388,285.052 	"/>
	
		<polyline style="fill:none;stroke:#000000;stroke-width:3.6793;stroke-linecap:round;stroke-linejoin:round;stroke-miterlimit:10;" points="
		45.65,296.379 1.84,305.543 4.782,122.591 	"/>
	<g>
		<g>
			<g>
				
					<line style="fill:none;stroke:#000000;stroke-width:3.6793;stroke-linecap:round;stroke-linejoin:round;stroke-miterlimit:10;" x1="20.388" y1="335.586" x2="43.803" y2="335.586"/>
				
					<line style="fill:none;stroke:#000000;stroke-width:3.6793;stroke-linecap:round;stroke-linejoin:round;stroke-miterlimit:10;" x1="32.095" y1="323.878" x2="32.095" y2="347.293"/>
			</g>
			<g>
				
					<line style="fill:none;stroke:#000000;stroke-width:3.6793;stroke-linecap:round;stroke-linejoin:round;stroke-miterlimit:10;" x1="274.822" y1="453.476" x2="298.237" y2="453.476"/>
				
					<line style="fill:none;stroke:#000000;stroke-width:3.6793;stroke-linecap:round;stroke-linejoin:round;stroke-miterlimit:10;" x1="286.53" y1="441.769" x2="286.53" y2="465.184"/>
			</g>
			
				<path style="fill:none;stroke:#000000;stroke-width:3.6793;stroke-linecap:round;stroke-linejoin:round;stroke-miterlimit:10;" d="
				M503.274,13.043c8.685,13.564-5.72,27.969-19.284,19.284c-0.931-0.596-1.73-1.395-2.325-2.326
				c-8.681-13.563,5.721-27.965,19.283-19.283C501.879,11.313,502.678,12.112,503.274,13.043z"/>
			<g>
				
					<line style="fill:none;stroke:#000000;stroke-width:3.6793;stroke-linecap:round;stroke-linejoin:round;stroke-miterlimit:10;" x1="211.98" y1="1.84" x2="298.237" y2="1.84"/>
				
					<line style="fill:none;stroke:#000000;stroke-width:3.6793;stroke-linecap:round;stroke-linejoin:round;stroke-miterlimit:10;" x1="264.348" y1="21.523" x2="319.935" y2="21.523"/>
			</g>
			
				<path style="fill:none;stroke:#000000;stroke-width:3.6793;stroke-linecap:round;stroke-linejoin:round;stroke-miterlimit:10;" d="
				M216.304,470.431c8.681,13.563-5.721,27.965-19.283,19.283c-0.931-0.596-1.73-1.395-2.326-2.325
				c-8.685-13.564,5.72-27.969,19.284-19.284C214.91,468.702,215.709,469.501,216.304,470.431z"/>
		</g>
	</g>
	<g>
		<path style="fill:#FFFFFF;" d="M79.572,176.389l16.029-2.86l0.867,4.863l-10.076,1.798l1.068,5.992l9.415-1.68l0.861,4.824
			l-9.415,1.68l1.881,10.543l-5.952,1.062L79.572,176.389z"/>
		<path style="fill:#FFFFFF;" d="M126.367,181.288c1.534,8.598-2.749,14.741-10.414,16.108c-7.781,1.388-13.381-3.674-14.714-11.144
			c-1.402-7.859,2.568-14.629,10.311-16.01C119.603,168.805,125.076,174.051,126.367,181.288z M107.482,185.018
			c0.916,5.136,3.975,8.324,7.942,7.616c4.007-0.715,5.622-4.938,4.713-10.034c-0.84-4.707-3.818-8.351-7.903-7.622
			C108.226,175.692,106.573,179.921,107.482,185.018z"/>
		<path style="fill:#FFFFFF;" d="M151.766,189.803c-0.992,0.739-3.339,1.76-6.529,2.329c-9.065,1.618-14.74-3.191-16.073-10.661
			c-1.597-8.948,3.896-15.066,11.832-16.482c3.074-0.548,5.52-0.342,6.667,0.015l-0.366,4.923c-1.297-0.291-3.053-0.459-5.154-0.084
			c-4.707,0.84-7.857,4.332-6.816,10.168c0.938,5.252,4.64,8.003,9.931,7.06c1.79-0.319,3.705-1.062,4.788-1.737L151.766,189.803z"
			/>
		<path style="fill:#FFFFFF;" d="M157.019,162.571l2.693,15.096c0.805,4.513,2.927,6.503,5.961,5.961
			c3.112-0.556,4.436-3.04,3.609-7.669l-2.693-15.096l5.914-1.055l2.623,14.706c1.444,8.093-1.953,12.673-8.801,13.895
			c-6.613,1.18-11.157-1.783-12.649-10.147l-2.61-14.629L157.019,162.571z"/>
		<path style="fill:#FFFFFF;" d="M181.418,178.973c1.74,0.532,4.337,0.912,6.866,0.46c2.724-0.486,3.962-1.871,3.656-3.583
			c-0.292-1.634-1.703-2.346-5.056-2.911c-4.629-0.74-7.898-2.646-8.579-6.459c-0.798-4.474,2.326-8.563,8.512-9.667
			c2.957-0.527,5.247-0.293,6.928,0.129l-0.469,5.021c-1.141-0.318-3.14-0.724-5.708-0.266c-2.567,0.458-3.604,1.848-3.361,3.209
			c0.299,1.673,1.909,2.148,5.523,2.828c4.935,0.886,7.543,2.909,8.203,6.605c0.784,4.396-1.935,8.735-9.132,10.02
			c-2.996,0.535-6.092,0.284-7.716-0.269L181.418,178.973z"/>
		<path style="fill:#FFFFFF;" d="M232.864,174.852c-1.718,0.949-5.027,2.422-8.49,3.041c-4.785,0.854-8.463,0.265-11.292-1.639
			c-2.814-1.826-4.748-5.014-5.396-8.872c-1.516-8.722,3.938-14.833,12.535-16.367c3.385-0.604,6.109-0.408,7.505-0.015
			l-0.398,4.969c-1.551-0.366-3.431-0.553-6.31-0.039c-4.941,0.882-8.176,4.35-7.163,10.03c0.965,5.408,4.919,7.994,9.782,7.126
			c1.361-0.243,2.424-0.593,2.849-0.91l-0.979-5.485l-4.046,0.722l-0.826-4.63l9.766-1.742L232.864,174.852z"/>
		<path style="fill:#FFFFFF;" d="M233.087,149.361c1.852-0.652,4.649-1.392,7.801-1.955c3.891-0.694,6.719-0.596,8.85,0.549
			c1.778,0.967,2.961,2.643,3.391,5.055c0.598,3.346-1.367,6.065-3.478,7.284l0.021,0.117c1.961,0.413,3.285,1.983,4.376,4.277
			c1.345,2.811,2.772,6.089,3.459,7.01l-6.069,1.083c-0.56-0.663-1.564-2.691-2.918-5.782c-1.283-3.143-2.571-3.837-4.99-3.445
			l-1.79,0.319l1.839,10.31l-5.874,1.048L233.087,149.361z M240.975,159.595l2.335-0.416c2.956-0.528,4.443-2.318,4.034-4.613
			c-0.431-2.413-2.28-3.327-5.01-2.88c-1.44,0.257-2.235,0.519-2.65,0.673L240.975,159.595z"/>
		<path style="fill:#FFFFFF;" d="M282.232,153.48c1.534,8.598-2.75,14.741-10.414,16.108c-7.781,1.388-13.381-3.674-14.714-11.144
			c-1.402-7.859,2.568-14.629,10.311-16.01C275.468,140.997,280.941,146.242,282.232,153.48z M263.347,157.209
			c0.916,5.136,3.975,8.324,7.942,7.616c4.007-0.715,5.622-4.938,4.713-10.034c-0.84-4.707-3.818-8.351-7.903-7.622
			C264.091,147.884,262.438,152.112,263.347,157.209z"/>
		<path style="fill:#FFFFFF;" d="M289.74,138.892l2.693,15.096c0.805,4.513,2.926,6.503,5.96,5.961
			c3.113-0.555,4.437-3.04,3.61-7.669l-2.693-15.096l5.914-1.055l2.624,14.706c1.443,8.093-1.954,12.673-8.802,13.895
			c-6.614,1.18-11.158-1.783-12.65-10.147l-2.609-14.629L289.74,138.892z"/>
		<path style="fill:#FFFFFF;" d="M310.417,135.565c1.773-0.638,4.3-1.33,7.918-1.976c3.657-0.652,6.388-0.417,8.389,0.671
			c1.909,1.025,3.427,3.001,3.885,5.569s-0.01,4.899-1.302,6.656c-1.684,2.267-4.526,3.657-8.028,4.282
			c-0.777,0.139-1.485,0.225-2.043,0.244l1.673,9.376l-5.875,1.048L310.417,135.565z M318.416,146.421
			c0.526,0.026,1.155-0.046,2.012-0.199c3.152-0.562,4.812-2.504,4.333-5.188c-0.431-2.412-2.36-3.553-5.317-3.025
			c-1.205,0.215-2.002,0.478-2.408,0.67L318.416,146.421z"/>
	</g>
	<g>
		<path style="fill:#FFFFFF;" d="M115.911,291.161c0.687-0.111,1.709-0.195,2.844-0.195c1.401,0,2.381,0.21,3.054,0.742
			c0.56,0.448,0.868,1.106,0.868,1.975c0,1.205-0.854,2.031-1.667,2.325v0.042c0.658,0.267,1.022,0.896,1.261,1.766
			c0.294,1.064,0.588,2.297,0.77,2.661h-2.185c-0.154-0.267-0.378-1.036-0.658-2.199c-0.252-1.177-0.659-1.499-1.527-1.513h-0.645
			v3.712h-2.115V291.161z M118.026,295.224h0.84c1.065,0,1.695-0.532,1.695-1.358c0-0.869-0.588-1.303-1.569-1.317
			c-0.519,0-0.812,0.042-0.967,0.07V295.224z"/>
		<path style="fill:#FFFFFF;" d="M129.83,296.484h-3.474v2.241h3.88v1.751h-6.023v-9.441h5.827v1.751h-3.684v1.961h3.474V296.484z"
			/>
		<path style="fill:#FFFFFF;" d="M133.888,298.054l-0.672,2.423h-2.213l2.885-9.441h2.802l2.928,9.441h-2.297l-0.729-2.423H133.888z
			 M136.283,296.456l-0.588-2.003c-0.168-0.561-0.336-1.261-0.476-1.82h-0.028c-0.14,0.56-0.28,1.274-0.434,1.82l-0.561,2.003
			H136.283z"/>
		<path style="fill:#FFFFFF;" d="M140.873,291.035h2.144v7.648h3.754v1.793h-5.897V291.035z"/>
		<path style="fill:#FFFFFF;" d="M150.17,291.035v9.441h-2.144v-9.441H150.17z"/>
		<path style="fill:#FFFFFF;" d="M151.414,299.328l4.496-6.472v-0.056h-4.076v-1.766h6.85v1.233l-4.398,6.387v0.057h4.468v1.765
			h-7.34V299.328z"/>
		<path style="fill:#FFFFFF;" d="M162.405,298.054l-0.672,2.423h-2.213l2.885-9.441h2.802l2.928,9.441h-2.297l-0.729-2.423H162.405z
			 M164.801,296.456l-0.588-2.003c-0.168-0.561-0.336-1.261-0.476-1.82h-0.028c-0.14,0.56-0.28,1.274-0.434,1.82l-0.561,2.003
			H164.801z"/>
		<path style="fill:#FFFFFF;" d="M175.975,300.21c-0.378,0.183-1.191,0.393-2.255,0.406l-0.238,0.477
			c0.546,0.126,1.023,0.49,1.023,1.148c0,0.967-0.869,1.289-1.667,1.289c-0.42,0-0.883-0.084-1.205-0.267l0.28-0.868
			c0.21,0.112,0.532,0.196,0.785,0.196c0.28,0,0.504-0.098,0.504-0.336c0-0.295-0.322-0.448-1.107-0.532l0.532-1.163
			c-2.661-0.351-4.02-2.241-4.02-4.664c0-3.222,2.297-5.015,5.155-5.015c1.106,0,1.947,0.224,2.325,0.42l-0.434,1.694
			c-0.434-0.182-1.037-0.35-1.793-0.35c-1.695,0-3.012,1.022-3.012,3.123c0,1.892,1.121,3.082,3.026,3.082
			c0.644,0,1.358-0.14,1.779-0.308L175.975,300.21z"/>
		<path style="fill:#FFFFFF;" d="M179.709,298.054l-0.672,2.423h-2.213l2.885-9.441h2.802l2.928,9.441h-2.297l-0.729-2.423H179.709z
			 M179.261,290.461c-0.042-1.177,0.406-1.778,1.079-1.778c0.378,0,0.63,0.126,0.896,0.279c0.224,0.141,0.435,0.267,0.617,0.267
			c0.238,0,0.322-0.14,0.378-0.603h0.953c0.042,1.261-0.364,1.751-1.107,1.751c-0.378,0-0.658-0.126-0.91-0.266
			c-0.238-0.126-0.406-0.253-0.588-0.253s-0.308,0.211-0.336,0.603H179.261z M182.105,296.456l-0.588-2.003
			c-0.168-0.561-0.336-1.261-0.476-1.82h-0.028c-0.14,0.56-0.28,1.274-0.434,1.82l-0.561,2.003H182.105z"/>
		<path style="fill:#FFFFFF;" d="M194.987,295.658c0,3.096-1.877,4.973-4.637,4.973c-2.802,0-4.44-2.115-4.44-4.805
			c0-2.83,1.807-4.944,4.595-4.944C193.404,290.882,194.987,293.053,194.987,295.658z M188.166,295.784
			c0,1.849,0.868,3.151,2.297,3.151c1.442,0,2.269-1.373,2.269-3.208c0-1.694-0.812-3.151-2.283-3.151
			C189.006,292.576,188.166,293.949,188.166,295.784z"/>
		<path style="fill:#FFFFFF;" d="M199.211,291.161c0.785-0.126,1.807-0.195,2.886-0.195c1.793,0,2.956,0.321,3.866,1.008
			c0.98,0.729,1.597,1.892,1.597,3.559c0,1.807-0.658,3.054-1.569,3.823c-0.995,0.827-2.507,1.219-4.356,1.219
			c-1.106,0-1.891-0.069-2.423-0.14V291.161z M201.354,298.865c0.182,0.043,0.476,0.043,0.742,0.043
			c1.933,0.014,3.194-1.051,3.194-3.307c0.014-1.961-1.135-2.997-2.97-2.997c-0.476,0-0.784,0.042-0.966,0.084V298.865z"/>
		<path style="fill:#FFFFFF;" d="M214.572,296.484h-3.474v2.241h3.88v1.751h-6.023v-9.441h5.827v1.751h-3.684v1.961h3.474V296.484z"
			/>
		<path style="fill:#FFFFFF;" d="M219.259,291.035h5.771v1.751h-3.628v2.157h3.39v1.737h-3.39v3.796h-2.144V291.035z"/>
		<path style="fill:#FFFFFF;" d="M235.28,295.658c0,3.096-1.877,4.973-4.637,4.973c-2.801,0-4.44-2.115-4.44-4.805
			c0-2.83,1.807-4.944,4.595-4.944C233.697,290.882,235.28,293.053,235.28,295.658z M228.458,295.784
			c0,1.849,0.868,3.151,2.297,3.151c1.443,0,2.27-1.373,2.27-3.208c0-1.694-0.812-3.151-2.283-3.151
			C229.298,292.576,228.458,293.949,228.458,295.784z"/>
		<path style="fill:#FFFFFF;" d="M243.609,300.21c-0.393,0.196-1.275,0.406-2.423,0.406c-3.264,0-4.945-2.03-4.945-4.72
			c0-3.222,2.297-5.015,5.155-5.015c1.106,0,1.947,0.224,2.325,0.42l-0.434,1.694c-0.434-0.182-1.037-0.35-1.793-0.35
			c-1.695,0-3.012,1.022-3.012,3.123c0,1.892,1.121,3.082,3.026,3.082c0.644,0,1.358-0.14,1.779-0.308L243.609,300.21z"/>
		<path style="fill:#FFFFFF;" d="M247.134,291.035v5.436c0,1.625,0.616,2.451,1.709,2.451c1.121,0,1.737-0.784,1.737-2.451v-5.436
			h2.129v5.295c0,2.914-1.471,4.301-3.937,4.301c-2.381,0-3.782-1.317-3.782-4.328v-5.268H247.134z"/>
		<path style="fill:#FFFFFF;" d="M254.623,298.277c0.574,0.294,1.457,0.588,2.367,0.588c0.98,0,1.499-0.406,1.499-1.022
			c0-0.588-0.448-0.924-1.583-1.33c-1.569-0.547-2.591-1.415-2.591-2.788c0-1.61,1.345-2.843,3.572-2.843
			c1.064,0,1.849,0.224,2.409,0.476l-0.476,1.723c-0.378-0.182-1.051-0.447-1.975-0.447s-1.373,0.42-1.373,0.91
			c0,0.603,0.532,0.868,1.751,1.33c1.667,0.617,2.451,1.485,2.451,2.816c0,1.582-1.219,2.927-3.81,2.927
			c-1.079,0-2.143-0.279-2.675-0.574L254.623,298.277z"/>
		<path style="fill:#FFFFFF;" d="M272.828,300.042c-0.658,0.225-1.905,0.532-3.152,0.532c-1.723,0-2.969-0.434-3.838-1.274
			c-0.868-0.812-1.345-2.045-1.331-3.432c0.014-3.138,2.297-4.931,5.394-4.931c1.219,0,2.157,0.238,2.619,0.462l-0.448,1.709
			c-0.519-0.224-1.162-0.406-2.199-0.406c-1.778,0-3.124,1.009-3.124,3.054c0,1.947,1.218,3.096,2.969,3.096
			c0.49,0,0.883-0.056,1.051-0.14v-1.976h-1.457v-1.667h3.517V300.042z"/>
		<path style="fill:#FFFFFF;" d="M274.489,291.161c0.687-0.111,1.709-0.195,2.843-0.195c1.401,0,2.382,0.21,3.054,0.742
			c0.561,0.448,0.869,1.106,0.869,1.975c0,1.205-0.854,2.031-1.667,2.325v0.042c0.658,0.267,1.022,0.896,1.261,1.766
			c0.294,1.064,0.588,2.297,0.771,2.661h-2.186c-0.154-0.267-0.378-1.036-0.658-2.199c-0.252-1.177-0.658-1.499-1.527-1.513h-0.644
			v3.712h-2.115V291.161z M276.604,295.224h0.84c1.064,0,1.695-0.532,1.695-1.358c0-0.869-0.589-1.303-1.569-1.317
			c-0.518,0-0.812,0.042-0.966,0.07V295.224z"/>
		<path style="fill:#FFFFFF;" d="M291.378,295.658c0,3.096-1.877,4.973-4.637,4.973c-2.802,0-4.44-2.115-4.44-4.805
			c0-2.83,1.807-4.944,4.595-4.944C289.794,290.882,291.378,293.053,291.378,295.658z M284.555,295.784
			c0,1.849,0.869,3.151,2.298,3.151c1.442,0,2.269-1.373,2.269-3.208c0-1.694-0.812-3.151-2.283-3.151
			C285.396,292.576,284.555,293.949,284.555,295.784z"/>
		<path style="fill:#FFFFFF;" d="M294.902,291.035v5.436c0,1.625,0.616,2.451,1.709,2.451c1.12,0,1.736-0.784,1.736-2.451v-5.436
			h2.13v5.295c0,2.914-1.471,4.301-3.937,4.301c-2.381,0-3.782-1.317-3.782-4.328v-5.268H294.902z"/>
		<path style="fill:#FFFFFF;" d="M302.321,291.161c0.658-0.111,1.583-0.195,2.886-0.195c1.316,0,2.255,0.252,2.885,0.756
			c0.603,0.477,1.009,1.261,1.009,2.186c0,0.924-0.308,1.709-0.868,2.241c-0.729,0.687-1.808,0.994-3.068,0.994
			c-0.279,0-0.532-0.014-0.728-0.042v3.376h-2.115V291.161z M304.436,295.448c0.182,0.042,0.406,0.056,0.714,0.056
			c1.135,0,1.835-0.574,1.835-1.541c0-0.868-0.603-1.387-1.667-1.387c-0.434,0-0.729,0.042-0.882,0.084V295.448z"/>
		<path style="fill:#FFFFFF;" d="M313.283,291.161c0.658-0.111,1.583-0.195,2.885-0.195c1.317,0,2.256,0.252,2.886,0.756
			c0.603,0.477,1.009,1.261,1.009,2.186c0,0.924-0.309,1.709-0.868,2.241c-0.729,0.687-1.808,0.994-3.068,0.994
			c-0.279,0-0.532-0.014-0.728-0.042v3.376h-2.115V291.161z M315.398,295.448c0.182,0.042,0.406,0.056,0.714,0.056
			c1.135,0,1.835-0.574,1.835-1.541c0-0.868-0.603-1.387-1.667-1.387c-0.434,0-0.729,0.042-0.882,0.084V295.448z"/>
		<path style="fill:#FFFFFF;" d="M322.776,298.054l-0.673,2.423h-2.213l2.886-9.441h2.801l2.928,9.441h-2.297l-0.729-2.423H322.776z
			 M325.17,296.456l-0.588-2.003c-0.168-0.561-0.336-1.261-0.477-1.82h-0.027c-0.141,0.56-0.28,1.274-0.435,1.82l-0.561,2.003
			H325.17z"/>
		<path style="fill:#FFFFFF;" d="M329.76,291.161c0.687-0.111,1.709-0.195,2.843-0.195c1.401,0,2.382,0.21,3.054,0.742
			c0.561,0.448,0.869,1.106,0.869,1.975c0,1.205-0.854,2.031-1.667,2.325v0.042c0.658,0.267,1.022,0.896,1.261,1.766
			c0.294,1.064,0.588,2.297,0.771,2.661h-2.186c-0.154-0.267-0.378-1.036-0.658-2.199c-0.252-1.177-0.658-1.499-1.527-1.513h-0.644
			v3.712h-2.115V291.161z M331.876,295.224h0.84c1.064,0,1.695-0.532,1.695-1.358c0-0.869-0.589-1.303-1.569-1.317
			c-0.518,0-0.812,0.042-0.966,0.07V295.224z"/>
		<path style="fill:#FFFFFF;" d="M340.387,298.054l-0.673,2.423h-2.213l2.886-9.441h2.801l2.928,9.441h-2.297l-0.729-2.423H340.387z
			 M342.782,296.456l-0.588-2.003c-0.168-0.561-0.336-1.261-0.477-1.82h-0.027c-0.141,0.56-0.28,1.274-0.435,1.82l-0.561,2.003
			H342.782z"/>
		<path style="fill:#FFFFFF;" d="M350.2,291.161c0.687-0.111,1.709-0.195,2.843-0.195c1.401,0,2.382,0.21,3.054,0.742
			c0.561,0.448,0.869,1.106,0.869,1.975c0,1.205-0.854,2.031-1.667,2.325v0.042c0.658,0.267,1.022,0.896,1.261,1.766
			c0.294,1.064,0.588,2.297,0.771,2.661h-2.186c-0.154-0.267-0.378-1.036-0.658-2.199c-0.252-1.177-0.658-1.499-1.527-1.513h-0.644
			v3.712H350.2V291.161z M352.315,295.224h0.84c1.064,0,1.695-0.532,1.695-1.358c0-0.869-0.589-1.303-1.569-1.317
			c-0.518,0-0.812,0.042-0.966,0.07V295.224z"/>
		<path style="fill:#FFFFFF;" d="M364.119,296.484h-3.475v2.241h3.881v1.751h-6.023v-9.441h5.827v1.751h-3.685v1.961h3.475V296.484z
			"/>
		<path style="fill:#FFFFFF;" d="M368.176,298.054l-0.673,2.423h-2.213l2.886-9.441h2.801l2.928,9.441h-2.297l-0.729-2.423H368.176z
			 M370.571,296.456l-0.588-2.003c-0.168-0.561-0.336-1.261-0.477-1.82h-0.027c-0.141,0.56-0.28,1.274-0.435,1.82l-0.561,2.003
			H370.571z"/>
		<path style="fill:#FFFFFF;" d="M375.161,291.035h2.143v7.648h3.754v1.793h-5.896V291.035z"/>
		<path style="fill:#FFFFFF;" d="M384.457,291.035v9.441h-2.143v-9.441H384.457z"/>
		<path style="fill:#FFFFFF;" d="M385.702,299.328l4.496-6.472v-0.056h-4.076v-1.766h6.85v1.233l-4.398,6.387v0.057h4.469v1.765
			h-7.34V299.328z"/>
		<path style="fill:#FFFFFF;" d="M396.693,298.054l-0.673,2.423h-2.213l2.886-9.441h2.801l2.928,9.441h-2.297l-0.729-2.423H396.693z
			 M399.087,296.456l-0.588-2.003c-0.168-0.561-0.336-1.261-0.477-1.82h-0.027c-0.141,0.56-0.28,1.274-0.435,1.82l-0.561,2.003
			H399.087z"/>
		<path style="fill:#FFFFFF;" d="M403.677,291.161c0.687-0.111,1.709-0.195,2.843-0.195c1.401,0,2.382,0.21,3.054,0.742
			c0.561,0.448,0.869,1.106,0.869,1.975c0,1.205-0.854,2.031-1.667,2.325v0.042c0.658,0.267,1.022,0.896,1.261,1.766
			c0.294,1.064,0.588,2.297,0.771,2.661h-2.186c-0.154-0.267-0.378-1.036-0.658-2.199c-0.252-1.177-0.658-1.499-1.527-1.513h-0.644
			v3.712h-2.115V291.161z M405.793,295.224h0.84c1.064,0,1.695-0.532,1.695-1.358c0-0.869-0.589-1.303-1.569-1.317
			c-0.518,0-0.812,0.042-0.966,0.07V295.224z"/>
		<path style="fill:#FFFFFF;" d="M417.006,298.054l-0.673,2.423h-2.213l2.886-9.441h2.801l2.928,9.441h-2.297l-0.729-2.423H417.006z
			 M419.401,296.456l-0.588-2.003c-0.168-0.561-0.336-1.261-0.477-1.82h-0.027c-0.141,0.56-0.28,1.274-0.435,1.82l-0.561,2.003
			H419.401z"/>
		<path style="fill:#FFFFFF;" d="M121.528,313.285h-3.474v2.241h3.88v1.751h-6.023v-9.441h5.827v1.751h-3.684v1.961h3.474V313.285z"
			/>
		<path style="fill:#FFFFFF;" d="M123.457,315.078c0.574,0.294,1.457,0.588,2.367,0.588c0.98,0,1.499-0.406,1.499-1.022
			c0-0.588-0.448-0.924-1.583-1.33c-1.569-0.547-2.591-1.415-2.591-2.788c0-1.61,1.345-2.843,3.572-2.843
			c1.064,0,1.849,0.224,2.409,0.476l-0.476,1.723c-0.378-0.182-1.051-0.447-1.975-0.447s-1.373,0.42-1.373,0.91
			c0,0.603,0.532,0.868,1.75,1.33c1.667,0.617,2.452,1.485,2.452,2.816c0,1.582-1.219,2.927-3.81,2.927
			c-1.079,0-2.143-0.279-2.676-0.574L123.457,315.078z"/>
		<path style="fill:#FFFFFF;" d="M137.881,317.011c-0.393,0.196-1.275,0.406-2.423,0.406c-3.264,0-4.945-2.03-4.945-4.72
			c0-3.222,2.297-5.015,5.155-5.015c1.106,0,1.947,0.224,2.325,0.42l-0.434,1.694c-0.434-0.182-1.037-0.35-1.793-0.35
			c-1.695,0-3.012,1.022-3.012,3.123c0,1.892,1.121,3.082,3.026,3.082c0.644,0,1.358-0.14,1.779-0.308L137.881,317.011z"/>
		<path style="fill:#FFFFFF;" d="M141.406,307.836v5.436c0,1.625,0.616,2.451,1.709,2.451c1.121,0,1.737-0.784,1.737-2.451v-5.436
			h2.129v5.295c0,2.914-1.471,4.301-3.936,4.301c-2.381,0-3.782-1.317-3.782-4.328v-5.268H141.406z"/>
		<path style="fill:#FFFFFF;" d="M150.646,309.629h-2.536v-1.793h7.256v1.793h-2.577v7.648h-2.143V309.629z"/>
		<path style="fill:#FFFFFF;" d="M157.688,314.855l-0.672,2.423h-2.213l2.885-9.441h2.802l2.928,9.441h-2.297l-0.729-2.423H157.688z
			 M160.083,313.257l-0.588-2.003c-0.168-0.561-0.336-1.261-0.476-1.82h-0.028c-0.14,0.56-0.28,1.274-0.434,1.82l-0.561,2.003
			H160.083z"/>
		<path style="fill:#FFFFFF;" d="M169.7,314.855l-0.672,2.423h-2.213l2.885-9.441h2.802l2.927,9.441h-2.297l-0.729-2.423H169.7z
			 M172.095,313.257l-0.588-2.003c-0.168-0.561-0.336-1.261-0.476-1.82h-0.028c-0.14,0.56-0.28,1.274-0.434,1.82l-0.561,2.003
			H172.095z"/>
		<path style="fill:#FFFFFF;" d="M177.344,309.629h-2.536v-1.793h7.256v1.793h-2.577v7.648h-2.143V309.629z"/>
		<path style="fill:#FFFFFF;" d="M185.338,307.836v9.441h-2.144v-9.441H185.338z"/>
		<path style="fill:#FFFFFF;" d="M189.412,317.277l-3.026-9.441h2.339l1.148,3.992c0.322,1.121,0.617,2.199,0.841,3.376h0.042
			c0.238-1.135,0.532-2.255,0.854-3.334l1.205-4.034h2.269l-3.18,9.441H189.412z"/>
		<path style="fill:#FFFFFF;" d="M197.531,314.855l-0.672,2.423h-2.213l2.885-9.441h2.802l2.928,9.441h-2.297l-0.729-2.423H197.531z
			 M199.927,313.257l-0.588-2.003c-0.168-0.561-0.336-1.261-0.476-1.82h-0.028c-0.14,0.56-0.28,1.274-0.434,1.82l-0.561,2.003
			H199.927z"/>
		<path style="fill:#FFFFFF;" d="M207.344,307.962c0.785-0.126,1.807-0.195,2.886-0.195c1.793,0,2.956,0.321,3.866,1.008
			c0.98,0.729,1.597,1.892,1.597,3.559c0,1.807-0.658,3.054-1.569,3.823c-0.995,0.827-2.507,1.219-4.356,1.219
			c-1.106,0-1.891-0.069-2.423-0.14V307.962z M209.488,315.666c0.182,0.043,0.476,0.043,0.742,0.043
			c1.933,0.014,3.194-1.051,3.194-3.307c0.014-1.961-1.135-2.997-2.97-2.997c-0.476,0-0.784,0.042-0.966,0.084V315.666z"/>
		<path style="fill:#FFFFFF;" d="M219.064,314.855l-0.672,2.423h-2.213l2.885-9.441h2.802l2.927,9.441h-2.297l-0.729-2.423H219.064z
			 M221.46,313.257l-0.588-2.003c-0.168-0.561-0.336-1.261-0.476-1.82h-0.028c-0.14,0.56-0.28,1.274-0.434,1.82l-0.561,2.003H221.46
			z"/>
		<path style="fill:#FFFFFF;" d="M226.119,315.078c0.574,0.294,1.457,0.588,2.367,0.588c0.98,0,1.499-0.406,1.499-1.022
			c0-0.588-0.448-0.924-1.583-1.33c-1.569-0.547-2.591-1.415-2.591-2.788c0-1.61,1.345-2.843,3.572-2.843
			c1.064,0,1.849,0.224,2.409,0.476l-0.476,1.723c-0.378-0.182-1.051-0.447-1.975-0.447s-1.373,0.42-1.373,0.91
			c0,0.603,0.532,0.868,1.75,1.33c1.667,0.617,2.452,1.485,2.452,2.816c0,1.582-1.219,2.927-3.81,2.927
			c-1.079,0-2.143-0.279-2.676-0.574L226.119,315.078z"/>
		<path style="fill:#FFFFFF;" d="M236.437,317.277v-9.441h2.494l1.961,3.46c0.561,0.995,1.121,2.171,1.541,3.236h0.042
			c-0.14-1.247-0.182-2.521-0.182-3.937v-2.76h1.961v9.441h-2.241l-2.017-3.642c-0.561-1.009-1.177-2.228-1.639-3.334l-0.042,0.014
			c0.056,1.247,0.084,2.577,0.084,4.118v2.844H236.437z"/>
		<path style="fill:#FFFFFF;" d="M251.714,313.285h-3.474v2.241h3.88v1.751h-6.023v-9.441h5.827v1.751h-3.684v1.961h3.474V313.285z"
			/>
		<path style="fill:#FFFFFF;" d="M260.507,317.011c-0.393,0.196-1.275,0.406-2.423,0.406c-3.264,0-4.945-2.03-4.945-4.72
			c0-3.222,2.297-5.015,5.155-5.015c1.106,0,1.947,0.224,2.325,0.42l-0.434,1.694c-0.434-0.182-1.037-0.35-1.793-0.35
			c-1.695,0-3.012,1.022-3.012,3.123c0,1.892,1.121,3.082,3.026,3.082c0.644,0,1.358-0.14,1.779-0.308L260.507,317.011z"/>
		<path style="fill:#FFFFFF;" d="M267.52,313.285h-3.474v2.241h3.88v1.751h-6.024v-9.441h5.828v1.751h-3.684v1.961h3.474V313.285z"
			/>
		<path style="fill:#FFFFFF;" d="M269.449,315.078c0.574,0.294,1.457,0.588,2.367,0.588c0.981,0,1.499-0.406,1.499-1.022
			c0-0.588-0.448-0.924-1.583-1.33c-1.568-0.547-2.591-1.415-2.591-2.788c0-1.61,1.345-2.843,3.571-2.843
			c1.065,0,1.85,0.224,2.41,0.476l-0.477,1.723c-0.378-0.182-1.051-0.447-1.976-0.447c-0.924,0-1.372,0.42-1.372,0.91
			c0,0.603,0.532,0.868,1.751,1.33c1.667,0.617,2.451,1.485,2.451,2.816c0,1.582-1.219,2.927-3.811,2.927
			c-1.078,0-2.143-0.279-2.675-0.574L269.449,315.078z"/>
		<path style="fill:#FFFFFF;" d="M277.008,315.078c0.575,0.294,1.457,0.588,2.368,0.588c0.98,0,1.498-0.406,1.498-1.022
			c0-0.588-0.448-0.924-1.583-1.33c-1.568-0.547-2.591-1.415-2.591-2.788c0-1.61,1.345-2.843,3.572-2.843
			c1.064,0,1.849,0.224,2.409,0.476l-0.477,1.723c-0.378-0.182-1.051-0.447-1.976-0.447c-0.924,0-1.372,0.42-1.372,0.91
			c0,0.603,0.532,0.868,1.751,1.33c1.667,0.617,2.451,1.485,2.451,2.816c0,1.582-1.219,2.927-3.811,2.927
			c-1.078,0-2.143-0.279-2.675-0.574L277.008,315.078z"/>
		<path style="fill:#FFFFFF;" d="M286.641,307.836v9.441h-2.143v-9.441H286.641z"/>
		<path style="fill:#FFFFFF;" d="M288.489,307.962c0.784-0.126,1.807-0.195,2.886-0.195c1.793,0,2.955,0.321,3.865,1.008
			c0.98,0.729,1.598,1.892,1.598,3.559c0,1.807-0.659,3.054-1.569,3.823c-0.994,0.827-2.507,1.219-4.356,1.219
			c-1.106,0-1.891-0.069-2.423-0.14V307.962z M290.631,315.666c0.183,0.043,0.477,0.043,0.743,0.043
			c1.933,0.014,3.193-1.051,3.193-3.307c0.014-1.961-1.135-2.997-2.97-2.997c-0.477,0-0.784,0.042-0.967,0.084V315.666z"/>
		<path style="fill:#FFFFFF;" d="M300.209,314.855l-0.673,2.423h-2.213l2.886-9.441h2.801l2.928,9.441h-2.297l-0.729-2.423H300.209z
			 M302.603,313.257l-0.588-2.003c-0.168-0.561-0.336-1.261-0.477-1.82h-0.027c-0.141,0.56-0.28,1.274-0.435,1.82l-0.561,2.003
			H302.603z"/>
		<path style="fill:#FFFFFF;" d="M307.193,307.962c0.784-0.126,1.807-0.195,2.885-0.195c1.793,0,2.956,0.321,3.866,1.008
			c0.98,0.729,1.598,1.892,1.598,3.559c0,1.807-0.659,3.054-1.569,3.823c-0.994,0.827-2.507,1.219-4.356,1.219
			c-1.106,0-1.891-0.069-2.423-0.14V307.962z M309.336,315.666c0.183,0.043,0.477,0.043,0.742,0.043
			c1.934,0.014,3.194-1.051,3.194-3.307c0.014-1.961-1.135-2.997-2.97-2.997c-0.477,0-0.784,0.042-0.967,0.084V315.666z"/>
		<path style="fill:#FFFFFF;" d="M322.554,313.285h-3.475v2.241h3.881v1.751h-6.023v-9.441h5.827v1.751h-3.685v1.961h3.475V313.285z
			"/>
		<path style="fill:#FFFFFF;" d="M324.482,315.078c0.574,0.294,1.457,0.588,2.367,0.588c0.981,0,1.499-0.406,1.499-1.022
			c0-0.588-0.448-0.924-1.583-1.33c-1.568-0.547-2.591-1.415-2.591-2.788c0-1.61,1.345-2.843,3.571-2.843
			c1.065,0,1.85,0.224,2.41,0.476l-0.477,1.723c-0.378-0.182-1.051-0.447-1.976-0.447c-0.924,0-1.372,0.42-1.372,0.91
			c0,0.603,0.532,0.868,1.751,1.33c1.667,0.617,2.451,1.485,2.451,2.816c0,1.582-1.219,2.927-3.811,2.927
			c-1.078,0-2.143-0.279-2.675-0.574L324.482,315.078z"/>
		<path style="fill:#FFFFFF;" d="M340.418,313.285h-3.475v2.241h3.881v1.751H334.8v-9.441h5.827v1.751h-3.685v1.961h3.475V313.285z"
			/>
		<path style="fill:#FFFFFF;" d="M345.104,307.962c0.784-0.126,1.807-0.195,2.886-0.195c1.793,0,2.955,0.321,3.865,1.008
			c0.98,0.729,1.598,1.892,1.598,3.559c0,1.807-0.659,3.054-1.569,3.823c-0.994,0.827-2.507,1.219-4.356,1.219
			c-1.106,0-1.891-0.069-2.423-0.14V307.962z M347.247,315.666c0.183,0.043,0.477,0.043,0.743,0.043
			c1.933,0.014,3.193-1.051,3.193-3.307c0.014-1.961-1.135-2.997-2.97-2.997c-0.477,0-0.784,0.042-0.967,0.084V315.666z"/>
		<path style="fill:#FFFFFF;" d="M360.465,313.285h-3.475v2.241h3.88v1.751h-6.022v-9.441h5.827v1.751h-3.685v1.961h3.475V313.285z"
			/>
		<path style="fill:#FFFFFF;" d="M362.393,315.078c0.575,0.294,1.457,0.588,2.368,0.588c0.98,0,1.498-0.406,1.498-1.022
			c0-0.588-0.448-0.924-1.583-1.33c-1.568-0.547-2.591-1.415-2.591-2.788c0-1.61,1.345-2.843,3.572-2.843
			c1.064,0,1.849,0.224,2.409,0.476l-0.477,1.723c-0.378-0.182-1.051-0.447-1.976-0.447c-0.924,0-1.372,0.42-1.372,0.91
			c0,0.603,0.532,0.868,1.751,1.33c1.667,0.617,2.451,1.485,2.451,2.816c0,1.582-1.219,2.927-3.811,2.927
			c-1.078,0-2.143-0.279-2.675-0.574L362.393,315.078z"/>
		<path style="fill:#FFFFFF;" d="M375.501,313.285h-3.475v2.241h3.88v1.751h-6.022v-9.441h5.827v1.751h-3.685v1.961h3.475V313.285z"
			/>
		<path style="fill:#FFFFFF;" d="M379.515,307.836h2.129v5.968c0,2.689-1.288,3.628-3.361,3.628c-0.49,0-1.135-0.084-1.555-0.225
			l0.238-1.723c0.294,0.098,0.672,0.168,1.092,0.168c0.896,0,1.457-0.406,1.457-1.877V307.836z"/>
		<path style="fill:#FFFFFF;" d="M392.063,312.459c0,3.096-1.877,4.973-4.637,4.973c-2.802,0-4.44-2.115-4.44-4.805
			c0-2.83,1.807-4.944,4.595-4.944C390.48,307.683,392.063,309.854,392.063,312.459z M385.241,312.585
			c0,1.849,0.869,3.151,2.298,3.151c1.442,0,2.269-1.373,2.269-3.208c0-1.694-0.812-3.151-2.283-3.151
			C386.082,309.377,385.241,310.75,385.241,312.585z"/>
		<path style="fill:#FFFFFF;" d="M393.528,315.078c0.575,0.294,1.457,0.588,2.368,0.588c0.98,0,1.498-0.406,1.498-1.022
			c0-0.588-0.448-0.924-1.583-1.33c-1.568-0.547-2.591-1.415-2.591-2.788c0-1.61,1.345-2.843,3.572-2.843
			c1.064,0,1.849,0.224,2.409,0.476l-0.477,1.723c-0.378-0.182-1.051-0.447-1.976-0.447c-0.924,0-1.372,0.42-1.372,0.91
			c0,0.603,0.532,0.868,1.751,1.33c1.667,0.617,2.451,1.485,2.451,2.816c0,1.582-1.219,2.927-3.811,2.927
			c-1.078,0-2.143-0.279-2.675-0.574L393.528,315.078z"/>
		<path style="fill:#FFFFFF;" d="M115.911,324.762c0.785-0.126,1.807-0.195,2.886-0.195c1.793,0,2.956,0.322,3.866,1.008
			c0.98,0.729,1.597,1.892,1.597,3.559c0,1.807-0.658,3.054-1.569,3.824c-0.995,0.826-2.507,1.218-4.356,1.218
			c-1.106,0-1.891-0.069-2.423-0.14V324.762z M118.054,332.466c0.182,0.042,0.476,0.042,0.742,0.042
			c1.933,0.015,3.194-1.05,3.194-3.306c0.014-1.961-1.135-2.997-2.97-2.997c-0.476,0-0.784,0.042-0.966,0.084V332.466z"/>
		<path style="fill:#FFFFFF;" d="M134.298,329.259c0,3.096-1.877,4.973-4.637,4.973c-2.802,0-4.44-2.115-4.44-4.805
			c0-2.83,1.807-4.944,4.595-4.944C132.715,324.483,134.298,326.653,134.298,329.259z M127.476,329.385
			c0,1.849,0.868,3.151,2.297,3.151c1.442,0,2.269-1.372,2.269-3.208c0-1.694-0.812-3.151-2.283-3.151
			C128.316,326.177,127.476,327.55,127.476,329.385z"/>
		<path style="fill:#FFFFFF;" d="M135.763,331.878c0.574,0.294,1.457,0.588,2.367,0.588c0.98,0,1.499-0.405,1.499-1.022
			c0-0.588-0.448-0.924-1.583-1.33c-1.569-0.547-2.591-1.415-2.591-2.788c0-1.61,1.345-2.843,3.572-2.843
			c1.064,0,1.849,0.224,2.409,0.476l-0.476,1.724c-0.378-0.183-1.051-0.449-1.975-0.449s-1.373,0.421-1.373,0.911
			c0,0.603,0.532,0.868,1.751,1.331c1.667,0.616,2.451,1.484,2.451,2.815c0,1.582-1.219,2.927-3.81,2.927
			c-1.079,0-2.143-0.279-2.675-0.574L135.763,331.878z"/>
		<path style="fill:#FFFFFF;" d="M153.015,333.811c-0.393,0.196-1.275,0.406-2.423,0.406c-3.264,0-4.945-2.03-4.945-4.72
			c0-3.222,2.297-5.015,5.155-5.015c1.106,0,1.947,0.224,2.325,0.42l-0.434,1.694c-0.434-0.182-1.037-0.35-1.793-0.35
			c-1.695,0-3.012,1.022-3.012,3.124c0,1.891,1.121,3.081,3.026,3.081c0.644,0,1.358-0.14,1.779-0.308L153.015,333.811z"/>
		<path style="fill:#FFFFFF;" d="M154.411,324.636h2.144v7.648h3.754v1.793h-5.897V324.636z"/>
		<path style="fill:#FFFFFF;" d="M163.708,324.636v9.441h-2.144v-9.441H163.708z"/>
		<path style="fill:#FFFFFF;" d="M171.171,330.085h-3.474v2.241h3.88v1.751h-6.023v-9.441h5.827v1.751h-3.684v1.961h3.474V330.085z"
			/>
		<path style="fill:#FFFFFF;" d="M173.03,334.077v-9.441h2.494l1.961,3.46c0.56,0.995,1.121,2.172,1.541,3.236h0.042
			c-0.14-1.247-0.182-2.521-0.182-3.937v-2.76h1.961v9.441h-2.241l-2.017-3.642c-0.56-1.009-1.177-2.228-1.639-3.334l-0.042,0.014
			c0.056,1.247,0.084,2.577,0.084,4.118v2.844H173.03z"/>
		<path style="fill:#FFFFFF;" d="M184.511,326.429h-2.536v-1.793h7.256v1.793h-2.577v7.648h-2.143V326.429z"/>
		<path style="fill:#FFFFFF;" d="M195.979,330.085h-3.474v2.241h3.88v1.751h-6.023v-9.441h5.827v1.751h-3.684v1.961h3.474V330.085z"
			/>
		<path style="fill:#FFFFFF;" d="M197.908,331.878c0.574,0.294,1.457,0.588,2.367,0.588c0.98,0,1.499-0.405,1.499-1.022
			c0-0.588-0.448-0.924-1.583-1.33c-1.569-0.547-2.591-1.415-2.591-2.788c0-1.61,1.345-2.843,3.572-2.843
			c1.064,0,1.849,0.224,2.409,0.476l-0.476,1.724c-0.378-0.183-1.051-0.449-1.975-0.449s-1.373,0.421-1.373,0.911
			c0,0.603,0.532,0.868,1.75,1.331c1.667,0.616,2.452,1.484,2.452,2.815c0,1.582-1.219,2.927-3.81,2.927
			c-1.079,0-2.143-0.279-2.676-0.574L197.908,331.878z"/>
		<path style="fill:#FFFFFF;" d="M205.174,332.942c0-0.756,0.519-1.303,1.261-1.303c0.743,0,1.247,0.532,1.247,1.303
			c0,0.742-0.504,1.289-1.26,1.289C205.692,334.232,205.174,333.685,205.174,332.942z"/>
	</g>
</g>
<g id="Layer_1">
</g>
</svg>
