<?xml version="1.0" encoding="iso-8859-1"?>
<!-- Generator: Adobe Illustrator 18.0.0, SVG Export Plug-In . SVG Version: 6.00 Build 0)  -->
<!DOCTYPE svg PUBLIC "-//W3C//DTD SVG 1.1//EN" "http://www.w3.org/Graphics/SVG/1.1/DTD/svg11.dtd">
<svg version="1.1" xmlns="http://www.w3.org/2000/svg" xmlns:xlink="http://www.w3.org/1999/xlink" x="0px" y="0px"
	 viewBox="0 0 531.453 494.191" style="enable-background:new 0 0 531.453 494.191;" xml:space="preserve">
<g id="page13-7">
	
		<polygon style="fill:none;stroke:#000000;stroke-width:3.6793;stroke-linecap:round;stroke-linejoin:round;stroke-miterlimit:10;" points="
		43.446,14.904 69.635,406.333 475.632,438.052 529.613,82.648 	"/>
	<polygon style="opacity:0.8;fill:#E92325;" points="100.919,49.06 83.146,447.249 518.153,405.508 454.366,31.542 	"/>
	<polygon style="fill:#03B9DB;" points="23.262,106.379 387.98,82.648 390.61,211.407 20.388,285.052 	"/>
	
		<polyline style="fill:none;stroke:#000000;stroke-width:3.6793;stroke-linecap:round;stroke-linejoin:round;stroke-miterlimit:10;" points="
		45.65,296.379 1.84,305.543 4.782,122.591 	"/>
	<g>
		<g>
			<g>
				
					<line style="fill:none;stroke:#000000;stroke-width:3.6793;stroke-linecap:round;stroke-linejoin:round;stroke-miterlimit:10;" x1="20.388" y1="335.586" x2="43.803" y2="335.586"/>
				
					<line style="fill:none;stroke:#000000;stroke-width:3.6793;stroke-linecap:round;stroke-linejoin:round;stroke-miterlimit:10;" x1="32.095" y1="323.878" x2="32.095" y2="347.293"/>
			</g>
			<g>
				
					<line style="fill:none;stroke:#000000;stroke-width:3.6793;stroke-linecap:round;stroke-linejoin:round;stroke-miterlimit:10;" x1="274.822" y1="453.476" x2="298.237" y2="453.476"/>
				
					<line style="fill:none;stroke:#000000;stroke-width:3.6793;stroke-linecap:round;stroke-linejoin:round;stroke-miterlimit:10;" x1="286.53" y1="441.769" x2="286.53" y2="465.184"/>
			</g>
			
				<path style="fill:none;stroke:#000000;stroke-width:3.6793;stroke-linecap:round;stroke-linejoin:round;stroke-miterlimit:10;" d="
				M503.274,13.043c8.685,13.564-5.72,27.969-19.284,19.284c-0.931-0.596-1.73-1.395-2.325-2.326
				c-8.681-13.563,5.721-27.965,19.283-19.283C501.879,11.313,502.678,12.112,503.274,13.043z"/>
			<g>
				
					<line style="fill:none;stroke:#000000;stroke-width:3.6793;stroke-linecap:round;stroke-linejoin:round;stroke-miterlimit:10;" x1="211.98" y1="1.84" x2="298.237" y2="1.84"/>
				
					<line style="fill:none;stroke:#000000;stroke-width:3.6793;stroke-linecap:round;stroke-linejoin:round;stroke-miterlimit:10;" x1="264.348" y1="21.523" x2="319.935" y2="21.523"/>
			</g>
			
				<path style="fill:none;stroke:#000000;stroke-width:3.6793;stroke-linecap:round;stroke-linejoin:round;stroke-miterlimit:10;" d="
				M216.304,470.431c8.681,13.563-5.721,27.965-19.283,19.283c-0.931-0.596-1.73-1.395-2.326-2.325
				c-8.685-13.564,5.72-27.969,19.284-19.284C214.91,468.702,215.709,469.501,216.304,470.431z"/>
		</g>
	</g>
	<g>
		<path style="fill:#FFFFFF;" d="M161.018,144.699c1.851-0.651,4.649-1.392,7.8-1.954c3.892-0.694,6.719-0.596,8.851,0.549
			c1.778,0.967,2.96,2.643,3.391,5.055c0.597,3.346-1.367,6.065-3.478,7.285l0.021,0.117c1.961,0.413,3.285,1.983,4.376,4.278
			c1.345,2.811,2.773,6.088,3.459,7.01l-6.069,1.083c-0.56-0.663-1.564-2.691-2.918-5.782c-1.284-3.143-2.571-3.837-4.99-3.445
			l-1.79,0.319l1.839,10.31l-5.874,1.048L161.018,144.699z M168.906,154.934l2.334-0.417c2.957-0.528,4.444-2.318,4.034-4.613
			c-0.43-2.413-2.279-3.327-5.01-2.88c-1.439,0.257-2.235,0.519-2.649,0.674L168.906,154.934z"/>
		<path style="fill:#FFFFFF;" d="M202.324,152.584l-9.649,1.722l1.11,6.225l10.777-1.923l0.868,4.863l-16.729,2.985l-4.679-26.223
			l16.185-2.888l0.867,4.863l-10.232,1.826l0.973,5.447l9.648-1.722L202.324,152.584z"/>
		<path style="fill:#FFFFFF;" d="M214.379,154.929l-0.666,7.064l-6.147,1.097l3.336-27.653l7.781-1.388l12.81,24.772l-6.38,1.138
			l-3.225-6.37L214.379,154.929z M220.241,149.307l-2.626-5.272c-0.744-1.473-1.559-3.335-2.226-4.822l-0.078,0.014
			c-0.11,1.625-0.146,3.679-0.304,5.273l-0.563,5.841L220.241,149.307z"/>
		<path style="fill:#FFFFFF;" d="M230.311,131.975l5.952-1.062l3.791,21.243l10.426-1.86l0.889,4.98l-16.379,2.922L230.311,131.975z
			"/>
		<path style="fill:#FFFFFF;" d="M88.428,210.592l-7.042,1.256l-0.888-4.98l20.153-3.596l0.888,4.98l-7.158,1.277l3.79,21.243
			l-5.953,1.062L88.428,210.592z"/>
		<path style="fill:#FFFFFF;" d="M109.752,201.649l4.678,26.223l-5.952,1.062l-4.679-26.223L109.752,201.649z"/>
		<path style="fill:#FFFFFF;" d="M139.948,212.961c-0.679-3.13-1.476-6.922-2.155-10.735l-0.117,0.021
			c-0.221,3.492-0.644,7.421-1.106,10.676l-1.364,10.801l-4.63,0.826l-4.612-9.655c-1.405-2.921-2.967-6.496-4.2-9.809l-0.077,0.014
			c0.477,3.568,1.081,7.636,1.47,10.938l1.31,10.043l-5.485,0.979l-3.006-26.521l7.898-1.409l4.129,8.296
			c1.359,2.889,2.759,6.011,3.891,8.98l0.117-0.021c0.198-3.166,0.475-6.789,0.811-9.859l1.246-9.214l7.742-1.381l6.117,25.966
			l-5.796,1.034L139.948,212.961z"/>
		<path style="fill:#FFFFFF;" d="M166.093,207.213l-9.648,1.721l1.11,6.225l10.777-1.923l0.867,4.863l-16.729,2.985l-4.678-26.223
			l16.185-2.888l0.868,4.863l-10.232,1.826l0.972,5.447l9.648-1.721L166.093,207.213z"/>
		<path style="fill:#FFFFFF;" d="M176.484,190.105c2.116-0.739,4.922-1.441,7.918-1.975c4.979-0.889,8.368-0.57,11.237,0.886
			c3.084,1.537,5.372,4.461,6.198,9.09c0.896,5.02-0.315,8.808-2.462,11.399c-2.354,2.788-6.36,4.627-11.496,5.544
			c-3.073,0.548-5.287,0.742-6.8,0.811L176.484,190.105z M186.253,210.44c0.527,0.027,1.345-0.119,2.084-0.25
			c5.375-0.919,8.35-4.501,7.232-10.765c-0.933-5.454-4.637-7.764-9.733-6.854c-1.323,0.236-2.158,0.505-2.644,0.712L186.253,210.44
			z"/>
		<path style="fill:#FFFFFF;" d="M221.796,197.275l-9.648,1.722l1.11,6.225l10.776-1.923l0.868,4.863l-16.729,2.985l-4.679-26.223
			l16.186-2.888l0.867,4.863l-10.232,1.826l0.972,5.447l9.649-1.722L221.796,197.275z"/>
		<path style="fill:#FFFFFF;" d="M248.072,203.265c-0.992,0.739-3.339,1.759-6.529,2.329c-9.065,1.618-14.74-3.19-16.073-10.661
			c-1.597-8.947,3.896-15.066,11.832-16.482c3.074-0.548,5.52-0.342,6.667,0.015l-0.366,4.922c-1.297-0.291-3.053-0.459-5.153-0.084
			c-4.707,0.84-7.858,4.332-6.816,10.168c0.937,5.252,4.639,8.004,9.93,7.06c1.79-0.319,3.705-1.062,4.789-1.737L248.072,203.265z"
			/>
		<path style="fill:#FFFFFF;" d="M253.364,176.026l4.678,26.223l-5.952,1.062l-4.678-26.223L253.364,176.026z"/>
		<path style="fill:#FFFFFF;" d="M262.28,195.191c1.741,0.532,4.338,0.912,6.866,0.46c2.724-0.486,3.962-1.871,3.656-3.583
			c-0.291-1.634-1.703-2.346-5.056-2.912c-4.628-0.74-7.898-2.646-8.579-6.458c-0.798-4.474,2.326-8.563,8.512-9.667
			c2.957-0.527,5.247-0.293,6.929,0.129l-0.47,5.021c-1.141-0.318-3.14-0.725-5.708-0.266c-2.567,0.458-3.604,1.848-3.361,3.209
			c0.299,1.673,1.909,2.148,5.522,2.828c4.936,0.886,7.545,2.909,8.204,6.605c0.784,4.396-1.935,8.735-9.132,10.02
			c-2.996,0.535-6.091,0.284-7.715-0.269L262.28,195.191z"/>
		<path style="fill:#FFFFFF;" d="M285.455,170.301l4.678,26.223l-5.952,1.062l-4.679-26.223L285.455,170.301z"/>
		<path style="fill:#FFFFFF;" d="M316.882,177.942c1.534,8.598-2.748,14.741-10.413,16.108c-7.78,1.388-13.381-3.674-14.714-11.144
			c-1.402-7.859,2.568-14.629,10.311-16.01C310.12,165.459,315.591,170.705,316.882,177.942z M297.999,181.672
			c0.916,5.136,3.974,8.323,7.942,7.615c4.007-0.715,5.622-4.938,4.713-10.034c-0.84-4.707-3.818-8.351-7.903-7.622
			C298.744,172.346,297.089,176.575,297.999,181.672z"/>
		<path style="fill:#FFFFFF;" d="M323.156,190.632l-4.678-26.223l6.925-1.235l7.161,8.638c2.049,2.485,4.188,5.475,5.883,8.224
			l0.117-0.021c-1.007-3.393-1.755-6.912-2.456-10.842l-1.367-7.665l5.446-0.972l4.678,26.223l-6.225,1.11l-7.407-9.116
			c-2.056-2.523-4.371-5.603-6.204-8.447l-0.109,0.06c0.773,3.435,1.511,7.118,2.273,11.397l1.409,7.898L323.156,190.632z"/>
	</g>
	<g>
		<path style="fill:#FFFFFF;" d="M115.911,291.161c0.687-0.111,1.709-0.195,2.844-0.195c1.401,0,2.381,0.21,3.054,0.742
			c0.56,0.448,0.868,1.106,0.868,1.975c0,1.205-0.854,2.031-1.667,2.325v0.042c0.658,0.267,1.022,0.896,1.261,1.766
			c0.294,1.064,0.588,2.297,0.77,2.661h-2.185c-0.154-0.267-0.378-1.036-0.658-2.199c-0.252-1.177-0.659-1.499-1.527-1.513h-0.645
			v3.712h-2.115V291.161z M118.026,295.224h0.84c1.065,0,1.695-0.532,1.695-1.358c0-0.869-0.588-1.303-1.569-1.317
			c-0.519,0-0.812,0.042-0.967,0.07V295.224z"/>
		<path style="fill:#FFFFFF;" d="M129.83,296.484h-3.474v2.241h3.88v1.751h-6.023v-9.441h5.827v1.751h-3.684v1.961h3.474V296.484z"
			/>
		<path style="fill:#FFFFFF;" d="M133.888,298.054l-0.672,2.423h-2.213l2.885-9.441h2.802l2.928,9.441h-2.297l-0.729-2.423H133.888z
			 M136.283,296.456l-0.588-2.003c-0.168-0.561-0.336-1.261-0.476-1.82h-0.028c-0.14,0.56-0.28,1.274-0.434,1.82l-0.561,2.003
			H136.283z"/>
		<path style="fill:#FFFFFF;" d="M140.873,291.035h2.144v7.648h3.754v1.793h-5.897V291.035z"/>
		<path style="fill:#FFFFFF;" d="M152.13,292.828h-2.536v-1.793h7.256v1.793h-2.577v7.648h-2.143V292.828z"/>
		<path style="fill:#FFFFFF;" d="M160.124,291.035v9.441h-2.144v-9.441H160.124z"/>
		<path style="fill:#FFFFFF;" d="M169.955,296.862c-0.042-1.135-0.084-2.507-0.084-3.88h-0.042c-0.294,1.205-0.687,2.55-1.05,3.656
			l-1.149,3.684h-1.667l-1.008-3.656c-0.308-1.106-0.63-2.451-0.854-3.684h-0.028c-0.056,1.274-0.098,2.731-0.168,3.908
			l-0.168,3.586h-1.975l0.603-9.441h2.843l0.925,3.152c0.294,1.092,0.588,2.269,0.798,3.375h0.042
			c0.266-1.092,0.588-2.339,0.896-3.39l1.008-3.138h2.788l0.519,9.441h-2.087L169.955,296.862z"/>
		<path style="fill:#FFFFFF;" d="M179.431,296.484h-3.474v2.241h3.88v1.751h-6.023v-9.441h5.827v1.751h-3.684v1.961h3.474V296.484z"
			/>
		<path style="fill:#FFFFFF;" d="M184.118,291.161c0.785-0.126,1.807-0.195,2.886-0.195c1.793,0,2.956,0.321,3.866,1.008
			c0.98,0.729,1.597,1.892,1.597,3.559c0,1.807-0.658,3.054-1.569,3.823c-0.995,0.827-2.507,1.219-4.356,1.219
			c-1.106,0-1.891-0.069-2.423-0.14V291.161z M186.262,298.865c0.182,0.043,0.476,0.043,0.742,0.043
			c1.933,0.014,3.194-1.051,3.194-3.307c0.014-1.961-1.135-2.997-2.97-2.997c-0.476,0-0.785,0.042-0.966,0.084V298.865z"/>
		<path style="fill:#FFFFFF;" d="M199.48,296.484h-3.474v2.241h3.88v1.751h-6.023v-9.441h5.827v1.751h-3.684v1.961h3.474V296.484z"
			/>
		<path style="fill:#FFFFFF;" d="M208.273,300.21c-0.393,0.196-1.275,0.406-2.423,0.406c-3.264,0-4.945-2.03-4.945-4.72
			c0-3.222,2.297-5.015,5.155-5.015c1.106,0,1.947,0.224,2.325,0.42l-0.434,1.694c-0.434-0.182-1.037-0.35-1.793-0.35
			c-1.695,0-3.012,1.022-3.012,3.123c0,1.892,1.121,3.082,3.026,3.082c0.644,0,1.358-0.14,1.779-0.308L208.273,300.21z"/>
		<path style="fill:#FFFFFF;" d="M211.812,291.035v9.441h-2.144v-9.441H211.812z"/>
		<path style="fill:#FFFFFF;" d="M213.728,298.277c0.574,0.294,1.457,0.588,2.367,0.588c0.98,0,1.499-0.406,1.499-1.022
			c0-0.588-0.448-0.924-1.583-1.33c-1.569-0.547-2.591-1.415-2.591-2.788c0-1.61,1.345-2.843,3.572-2.843
			c1.064,0,1.849,0.224,2.409,0.476l-0.476,1.723c-0.378-0.182-1.051-0.447-1.975-0.447s-1.373,0.42-1.373,0.91
			c0,0.603,0.532,0.868,1.751,1.33c1.667,0.617,2.451,1.485,2.451,2.816c0,1.582-1.219,2.927-3.81,2.927
			c-1.079,0-2.143-0.279-2.675-0.574L213.728,298.277z"/>
		<path style="fill:#FFFFFF;" d="M223.361,291.035v9.441h-2.144v-9.441H223.361z"/>
		<path style="fill:#FFFFFF;" d="M233.851,295.658c0,3.096-1.877,4.973-4.637,4.973c-2.802,0-4.44-2.115-4.44-4.805
			c0-2.83,1.807-4.944,4.595-4.944C232.268,290.882,233.851,293.053,233.851,295.658z M227.029,295.784
			c0,1.849,0.868,3.151,2.297,3.151c1.442,0,2.269-1.373,2.269-3.208c0-1.694-0.812-3.151-2.283-3.151
			C227.869,292.576,227.029,293.949,227.029,295.784z"/>
		<path style="fill:#FFFFFF;" d="M235.246,300.477v-9.441h2.494l1.961,3.46c0.561,0.995,1.121,2.171,1.541,3.236h0.042
			c-0.14-1.247-0.182-2.521-0.182-3.937v-2.76h1.961v9.441h-2.241l-2.017-3.642c-0.561-1.009-1.177-2.228-1.639-3.334l-0.042,0.014
			c0.056,1.247,0.084,2.577,0.084,4.118v2.844H235.246z"/>
		<path style="fill:#FFFFFF;" d="M247.733,291.161c0.659-0.111,1.583-0.195,2.886-0.195c1.317,0,2.255,0.252,2.886,0.756
			c0.602,0.477,1.008,1.261,1.008,2.186c0,0.924-0.308,1.709-0.869,2.241c-0.728,0.687-1.807,0.994-3.067,0.994
			c-0.28,0-0.532-0.014-0.729-0.042v3.376h-2.115V291.161z M249.849,295.448c0.182,0.042,0.406,0.056,0.714,0.056
			c1.135,0,1.835-0.574,1.835-1.541c0-0.868-0.602-1.387-1.667-1.387c-0.435,0-0.729,0.042-0.883,0.084V295.448z"/>
		<path style="fill:#FFFFFF;" d="M255.867,291.035h2.144v7.648h3.754v1.793h-5.897V291.035z"/>
		<path style="fill:#FFFFFF;" d="M265.304,298.054l-0.672,2.423h-2.213l2.885-9.441h2.802l2.928,9.441h-2.297l-0.729-2.423H265.304z
			 M267.7,296.456l-0.588-2.003c-0.168-0.561-0.336-1.261-0.477-1.82h-0.027c-0.141,0.56-0.28,1.274-0.435,1.82l-0.561,2.003H267.7z
			"/>
		<path style="fill:#FFFFFF;" d="M272.948,292.828h-2.535v-1.793h7.256v1.793h-2.577v7.648h-2.144V292.828z"/>
		<path style="fill:#FFFFFF;" d="M279.991,298.054l-0.673,2.423h-2.213l2.886-9.441h2.801l2.928,9.441h-2.297l-0.729-2.423H279.991z
			 M282.385,296.456l-0.588-2.003c-0.168-0.561-0.336-1.261-0.477-1.82h-0.027c-0.141,0.56-0.28,1.274-0.435,1.82l-0.561,2.003
			H282.385z"/>
		<path style="fill:#FFFFFF;" d="M286.975,291.035h5.771v1.751h-3.628v2.157h3.39v1.737h-3.39v3.796h-2.143V291.035z"/>
		<path style="fill:#FFFFFF;" d="M302.996,295.658c0,3.096-1.877,4.973-4.637,4.973c-2.802,0-4.44-2.115-4.44-4.805
			c0-2.83,1.807-4.944,4.595-4.944C301.413,290.882,302.996,293.053,302.996,295.658z M296.173,295.784
			c0,1.849,0.869,3.151,2.298,3.151c1.442,0,2.269-1.373,2.269-3.208c0-1.694-0.812-3.151-2.283-3.151
			C297.014,292.576,296.173,293.949,296.173,295.784z"/>
		<path style="fill:#FFFFFF;" d="M304.391,291.161c0.687-0.111,1.709-0.195,2.843-0.195c1.401,0,2.382,0.21,3.054,0.742
			c0.561,0.448,0.869,1.106,0.869,1.975c0,1.205-0.854,2.031-1.667,2.325v0.042c0.658,0.267,1.022,0.896,1.261,1.766
			c0.294,1.064,0.588,2.297,0.771,2.661h-2.186c-0.154-0.267-0.378-1.036-0.658-2.199c-0.252-1.177-0.658-1.499-1.527-1.513h-0.644
			v3.712h-2.115V291.161z M306.506,295.224h0.84c1.064,0,1.695-0.532,1.695-1.358c0-0.869-0.589-1.303-1.569-1.317
			c-0.518,0-0.812,0.042-0.966,0.07V295.224z"/>
		<path style="fill:#FFFFFF;" d="M320.677,296.862c-0.042-1.135-0.084-2.507-0.084-3.88h-0.042c-0.295,1.205-0.687,2.55-1.051,3.656
			l-1.148,3.684h-1.667l-1.009-3.656c-0.309-1.106-0.631-2.451-0.854-3.684h-0.028c-0.056,1.274-0.098,2.731-0.168,3.908
			l-0.168,3.586h-1.975l0.602-9.441h2.844l0.925,3.152c0.294,1.092,0.588,2.269,0.798,3.375h0.042
			c0.267-1.092,0.589-2.339,0.896-3.39l1.009-3.138h2.788l0.518,9.441h-2.087L320.677,296.862z"/>
		<path style="fill:#FFFFFF;" d="M326.694,298.054l-0.673,2.423h-2.213l2.886-9.441h2.801l2.928,9.441h-2.297l-0.729-2.423H326.694z
			 M329.088,296.456l-0.588-2.003c-0.168-0.561-0.336-1.261-0.477-1.82h-0.027c-0.141,0.56-0.28,1.274-0.435,1.82l-0.561,2.003
			H329.088z"/>
		<path style="fill:#FFFFFF;" d="M344.575,302.102c-1.345-0.393-2.466-0.799-3.727-1.331c-0.21-0.084-0.434-0.126-0.658-0.14
			c-2.129-0.141-4.118-1.709-4.118-4.791c0-2.829,1.793-4.958,4.608-4.958c2.886,0,4.469,2.185,4.469,4.762
			c0,2.144-0.995,3.656-2.241,4.217v0.056c0.729,0.21,1.541,0.379,2.283,0.532L344.575,302.102z M342.893,295.728
			c0-1.723-0.812-3.151-2.269-3.151s-2.298,1.429-2.298,3.193c-0.014,1.793,0.854,3.166,2.283,3.166
			C342.053,298.936,342.893,297.577,342.893,295.728z"/>
		<path style="fill:#FFFFFF;" d="M348.673,291.035v5.436c0,1.625,0.616,2.451,1.709,2.451c1.12,0,1.736-0.784,1.736-2.451v-5.436
			h2.13v5.295c0,2.914-1.471,4.301-3.937,4.301c-2.381,0-3.782-1.317-3.782-4.328v-5.268H348.673z"/>
		<path style="fill:#FFFFFF;" d="M361.71,296.484h-3.475v2.241h3.88v1.751h-6.022v-9.441h5.827v1.751h-3.685v1.961h3.475V296.484z"
			/>
		<path style="fill:#FFFFFF;" d="M368.105,300.477l-3.025-9.441h2.34l1.148,3.992c0.322,1.121,0.616,2.199,0.84,3.376h0.042
			c0.238-1.135,0.532-2.255,0.854-3.334l1.205-4.034h2.27l-3.18,9.441H368.105z"/>
		<path style="fill:#FFFFFF;" d="M376.225,298.054l-0.673,2.423h-2.213l2.886-9.441h2.801l2.928,9.441h-2.297l-0.729-2.423H376.225z
			 M378.62,296.456l-0.588-2.003c-0.168-0.561-0.336-1.261-0.477-1.82h-0.027c-0.141,0.56-0.28,1.274-0.435,1.82l-0.561,2.003
			H378.62z"/>
		<path style="fill:#FFFFFF;" d="M385.352,291.035v9.441h-2.143v-9.441H385.352z"/>
		<path style="fill:#FFFFFF;" d="M390.028,291.161c0.658-0.111,1.583-0.195,2.886-0.195c1.316,0,2.255,0.252,2.885,0.756
			c0.603,0.477,1.009,1.261,1.009,2.186c0,0.924-0.308,1.709-0.868,2.241c-0.729,0.687-1.808,0.994-3.068,0.994
			c-0.279,0-0.532-0.014-0.728-0.042v3.376h-2.115V291.161z M392.143,295.448c0.182,0.042,0.406,0.056,0.714,0.056
			c1.135,0,1.835-0.574,1.835-1.541c0-0.868-0.603-1.387-1.667-1.387c-0.434,0-0.729,0.042-0.882,0.084V295.448z"/>
		<path style="fill:#FFFFFF;" d="M403.779,296.484h-3.475v2.241h3.881v1.751h-6.023v-9.441h5.827v1.751h-3.685v1.961h3.475V296.484z
			"/>
		<path style="fill:#FFFFFF;" d="M405.637,291.161c0.687-0.111,1.709-0.195,2.843-0.195c1.401,0,2.382,0.21,3.054,0.742
			c0.561,0.448,0.869,1.106,0.869,1.975c0,1.205-0.854,2.031-1.667,2.325v0.042c0.658,0.267,1.022,0.896,1.261,1.766
			c0.294,1.064,0.588,2.297,0.771,2.661h-2.186c-0.154-0.267-0.378-1.036-0.658-2.199c-0.252-1.177-0.658-1.499-1.527-1.513h-0.644
			v3.712h-2.115V291.161z M407.753,295.224h0.84c1.064,0,1.695-0.532,1.695-1.358c0-0.869-0.589-1.303-1.569-1.317
			c-0.518,0-0.812,0.042-0.966,0.07V295.224z"/>
		<path style="fill:#FFFFFF;" d="M421.923,296.862c-0.042-1.135-0.084-2.507-0.084-3.88h-0.042c-0.295,1.205-0.687,2.55-1.051,3.656
			l-1.148,3.684h-1.667l-1.009-3.656c-0.309-1.106-0.631-2.451-0.854-3.684h-0.028c-0.056,1.274-0.098,2.731-0.168,3.908
			l-0.168,3.586h-1.975l0.602-9.441h2.844l0.925,3.152c0.294,1.092,0.588,2.269,0.798,3.375h0.042
			c0.267-1.092,0.589-2.339,0.896-3.39l1.009-3.138h2.788l0.518,9.441h-2.087L421.923,296.862z"/>
		<path style="fill:#FFFFFF;" d="M427.925,291.035v9.441h-2.143v-9.441H427.925z"/>
		<path style="fill:#FFFFFF;" d="M431.593,292.828h-2.535v-1.793h7.256v1.793h-2.577v7.648h-2.144V292.828z"/>
		<path style="fill:#FFFFFF;" d="M439.587,291.035v9.441h-2.143v-9.441H439.587z"/>
		<path style="fill:#FFFFFF;" d="M441.435,291.161c0.687-0.111,1.709-0.195,2.843-0.195c1.401,0,2.382,0.21,3.054,0.742
			c0.561,0.448,0.869,1.106,0.869,1.975c0,1.205-0.854,2.031-1.667,2.325v0.042c0.658,0.267,1.022,0.896,1.261,1.766
			c0.294,1.064,0.588,2.297,0.771,2.661h-2.186c-0.154-0.267-0.378-1.036-0.658-2.199c-0.252-1.177-0.658-1.499-1.527-1.513h-0.644
			v3.712h-2.115V291.161z M443.55,295.224h0.84c1.064,0,1.695-0.532,1.695-1.358c0-0.869-0.589-1.303-1.569-1.317
			c-0.518,0-0.812,0.042-0.966,0.07V295.224z"/>
		<path style="fill:#FFFFFF;" d="M118.11,314.855l-0.672,2.423h-2.213l2.885-9.441h2.802l2.927,9.441h-2.297l-0.729-2.423H118.11z
			 M120.505,313.257l-0.588-2.003c-0.168-0.561-0.336-1.261-0.476-1.82h-0.028c-0.14,0.56-0.28,1.274-0.434,1.82l-0.561,2.003
			H120.505z"/>
		<path style="fill:#FFFFFF;" d="M125.095,307.962c0.561-0.111,1.695-0.195,2.76-0.195c1.303,0,2.101,0.126,2.788,0.532
			c0.658,0.35,1.134,0.994,1.134,1.849c0,0.841-0.49,1.625-1.555,2.018v0.027c1.079,0.294,1.877,1.106,1.877,2.325
			c0,0.854-0.392,1.527-0.98,2.003c-0.687,0.547-1.835,0.854-3.712,0.854c-1.051,0-1.835-0.069-2.312-0.14V307.962z M127.21,311.576
			h0.701c1.121,0,1.723-0.462,1.723-1.162c0-0.715-0.546-1.093-1.513-1.093c-0.462,0-0.729,0.027-0.911,0.056V311.576z
			 M127.21,315.765c0.21,0.028,0.462,0.028,0.827,0.028c0.966,0,1.821-0.364,1.821-1.359c0-0.952-0.854-1.33-1.919-1.33h-0.729
			V315.765z"/>
		<path style="fill:#FFFFFF;" d="M142.194,312.459c0,3.096-1.877,4.973-4.637,4.973c-2.801,0-4.44-2.115-4.44-4.805
			c0-2.83,1.807-4.944,4.595-4.944C140.611,307.683,142.194,309.854,142.194,312.459z M135.372,312.585
			c0,1.849,0.868,3.151,2.297,3.151c1.443,0,2.27-1.373,2.27-3.208c0-1.694-0.812-3.151-2.283-3.151
			C136.212,309.377,135.372,310.75,135.372,312.585z"/>
		<path style="fill:#FFFFFF;" d="M143.589,307.962c0.687-0.111,1.709-0.195,2.844-0.195c1.401,0,2.381,0.21,3.054,0.742
			c0.56,0.448,0.868,1.106,0.868,1.975c0,1.205-0.854,2.031-1.667,2.325v0.042c0.658,0.267,1.022,0.896,1.26,1.766
			c0.294,1.064,0.588,2.297,0.771,2.661h-2.185c-0.154-0.267-0.378-1.036-0.658-2.199c-0.252-1.177-0.659-1.499-1.527-1.513h-0.645
			v3.712h-2.115V307.962z M145.704,312.025h0.84c1.065,0,1.695-0.532,1.695-1.358c0-0.869-0.588-1.303-1.569-1.317
			c-0.519,0-0.812,0.042-0.967,0.07V312.025z"/>
		<path style="fill:#FFFFFF;" d="M151.891,307.962c0.785-0.126,1.807-0.195,2.886-0.195c1.793,0,2.956,0.321,3.866,1.008
			c0.98,0.729,1.597,1.892,1.597,3.559c0,1.807-0.658,3.054-1.569,3.823c-0.995,0.827-2.507,1.219-4.356,1.219
			c-1.106,0-1.891-0.069-2.423-0.14V307.962z M154.034,315.666c0.182,0.043,0.476,0.043,0.742,0.043
			c1.933,0.014,3.194-1.051,3.194-3.307c0.014-1.961-1.135-2.997-2.97-2.997c-0.476,0-0.785,0.042-0.966,0.084V315.666z"/>
		<path style="fill:#FFFFFF;" d="M163.61,314.855l-0.672,2.423h-2.213l2.885-9.441h2.802l2.927,9.441h-2.297l-0.729-2.423H163.61z
			 M166.005,313.257l-0.588-2.003c-0.168-0.561-0.336-1.261-0.476-1.82h-0.028c-0.14,0.56-0.28,1.274-0.434,1.82l-0.561,2.003
			H166.005z"/>
		<path style="fill:#FFFFFF;" d="M170.595,307.962c0.687-0.111,1.709-0.195,2.844-0.195c1.401,0,2.381,0.21,3.054,0.742
			c0.56,0.448,0.868,1.106,0.868,1.975c0,1.205-0.854,2.031-1.667,2.325v0.042c0.658,0.267,1.022,0.896,1.261,1.766
			c0.294,1.064,0.588,2.297,0.77,2.661h-2.185c-0.154-0.267-0.378-1.036-0.658-2.199c-0.252-1.177-0.659-1.499-1.527-1.513h-0.645
			v3.712h-2.115V307.962z M172.711,312.025h0.84c1.065,0,1.695-0.532,1.695-1.358c0-0.869-0.588-1.303-1.569-1.317
			c-0.519,0-0.812,0.042-0.967,0.07V312.025z"/>
		<path style="fill:#FFFFFF;" d="M190.368,312.459c0,3.096-1.877,4.973-4.637,4.973c-2.802,0-4.44-2.115-4.44-4.805
			c0-2.83,1.807-4.944,4.595-4.944C188.785,307.683,190.368,309.854,190.368,312.459z M183.546,312.585
			c0,1.849,0.868,3.151,2.297,3.151c1.442,0,2.269-1.373,2.269-3.208c0-1.694-0.812-3.151-2.283-3.151
			C184.387,309.377,183.546,310.75,183.546,312.585z"/>
		<path style="fill:#FFFFFF;" d="M201.525,317.011c-0.393,0.196-1.275,0.406-2.423,0.406c-3.264,0-4.945-2.03-4.945-4.72
			c0-3.222,2.297-5.015,5.155-5.015c1.106,0,1.947,0.224,2.325,0.42l-0.434,1.694c-0.434-0.182-1.037-0.35-1.793-0.35
			c-1.695,0-3.012,1.022-3.012,3.123c0,1.892,1.121,3.082,3.026,3.082c0.644,0,1.358-0.14,1.779-0.308L201.525,317.011z"/>
		<path style="fill:#FFFFFF;" d="M202.92,307.836h2.144v7.648h3.754v1.793h-5.897V307.836z"/>
		<path style="fill:#FFFFFF;" d="M212.218,307.836v9.441h-2.144v-9.441H212.218z"/>
		<path style="fill:#FFFFFF;" d="M219.681,313.285h-3.474v2.241h3.88v1.751h-6.023v-9.441h5.827v1.751h-3.684v1.961h3.474V313.285z"
			/>
		<path style="fill:#FFFFFF;" d="M221.541,317.277v-9.441h2.494l1.961,3.46c0.561,0.995,1.121,2.171,1.541,3.236h0.042
			c-0.14-1.247-0.182-2.521-0.182-3.937v-2.76h1.961v9.441h-2.241l-2.017-3.642c-0.561-1.009-1.177-2.228-1.639-3.334l-0.042,0.014
			c0.056,1.247,0.084,2.577,0.084,4.118v2.844H221.541z"/>
		<path style="fill:#FFFFFF;" d="M233.021,309.629h-2.536v-1.793h7.256v1.793h-2.577v7.648h-2.143V309.629z"/>
		<path style="fill:#FFFFFF;" d="M244.489,313.285h-3.474v2.241h3.88v1.751h-6.023v-9.441h5.827v1.751h-3.684v1.961h3.474V313.285z"
			/>
		<path style="fill:#FFFFFF;" d="M256.11,317.011c-0.393,0.196-1.275,0.406-2.423,0.406c-3.264,0-4.945-2.03-4.945-4.72
			c0-3.222,2.297-5.015,5.155-5.015c1.106,0,1.947,0.224,2.325,0.42l-0.434,1.694c-0.434-0.182-1.037-0.35-1.793-0.35
			c-1.695,0-3.012,1.022-3.012,3.123c0,1.892,1.121,3.082,3.026,3.082c0.644,0,1.358-0.14,1.779-0.308L256.11,317.011z"/>
		<path style="fill:#FFFFFF;" d="M265.729,312.459c0,3.096-1.877,4.973-4.637,4.973c-2.802,0-4.44-2.115-4.44-4.805
			c0-2.83,1.807-4.944,4.595-4.944C264.146,307.683,265.729,309.854,265.729,312.459z M258.907,312.585
			c0,1.849,0.868,3.151,2.297,3.151c1.442,0,2.269-1.373,2.269-3.208c0-1.694-0.812-3.151-2.283-3.151
			C259.747,309.377,258.907,310.75,258.907,312.585z"/>
		<path style="fill:#FFFFFF;" d="M275.108,313.663c-0.042-1.135-0.084-2.507-0.084-3.88h-0.042c-0.294,1.205-0.687,2.55-1.051,3.656
			l-1.148,3.684h-1.667l-1.009-3.656c-0.308-1.106-0.63-2.451-0.854-3.684h-0.027c-0.057,1.274-0.099,2.731-0.168,3.908
			l-0.169,3.586h-1.975l0.603-9.441h2.844l0.924,3.152c0.294,1.092,0.589,2.269,0.799,3.375h0.042
			c0.266-1.092,0.588-2.339,0.896-3.39l1.009-3.138h2.787l0.519,9.441h-2.087L275.108,313.663z"/>
		<path style="fill:#FFFFFF;" d="M290.439,312.459c0,3.096-1.877,4.973-4.637,4.973c-2.802,0-4.44-2.115-4.44-4.805
			c0-2.83,1.807-4.944,4.595-4.944C288.856,307.683,290.439,309.854,290.439,312.459z M283.617,312.585
			c0,1.849,0.869,3.151,2.298,3.151c1.442,0,2.269-1.373,2.269-3.208c0-1.694-0.812-3.151-2.283-3.151
			C284.458,309.377,283.617,310.75,283.617,312.585z"/>
		<path style="fill:#FFFFFF;" d="M291.835,307.836h5.771v1.751h-3.628v2.157h3.39v1.737h-3.39v3.796h-2.143V307.836z"/>
		<path style="fill:#FFFFFF;" d="M304.83,313.285h-3.475v2.241h3.881v1.751h-6.023v-9.441h5.827v1.751h-3.685v1.961h3.475V313.285z"
			/>
		<path style="fill:#FFFFFF;" d="M306.688,307.962c0.687-0.111,1.709-0.195,2.843-0.195c1.401,0,2.382,0.21,3.054,0.742
			c0.561,0.448,0.869,1.106,0.869,1.975c0,1.205-0.854,2.031-1.667,2.325v0.042c0.658,0.267,1.022,0.896,1.261,1.766
			c0.294,1.064,0.588,2.297,0.771,2.661h-2.186c-0.154-0.267-0.378-1.036-0.658-2.199c-0.252-1.177-0.658-1.499-1.527-1.513h-0.644
			v3.712h-2.115V307.962z M308.803,312.025h0.84c1.064,0,1.695-0.532,1.695-1.358c0-0.869-0.589-1.303-1.569-1.317
			c-0.518,0-0.812,0.042-0.966,0.07V312.025z"/>
		<path style="fill:#FFFFFF;" d="M316.81,309.629h-2.535v-1.793h7.256v1.793h-2.577v7.648h-2.144V309.629z"/>
		<path style="fill:#FFFFFF;" d="M323.853,314.855l-0.673,2.423h-2.213l2.886-9.441h2.801l2.928,9.441h-2.297l-0.729-2.423H323.853z
			 M326.248,313.257l-0.588-2.003c-0.168-0.561-0.336-1.261-0.477-1.82h-0.027c-0.141,0.56-0.28,1.274-0.435,1.82l-0.561,2.003
			H326.248z"/>
		<path style="fill:#FFFFFF;" d="M330.907,315.078c0.575,0.294,1.457,0.588,2.368,0.588c0.98,0,1.498-0.406,1.498-1.022
			c0-0.588-0.448-0.924-1.583-1.33c-1.568-0.547-2.591-1.415-2.591-2.788c0-1.61,1.345-2.843,3.572-2.843
			c1.064,0,1.849,0.224,2.409,0.476l-0.477,1.723c-0.378-0.182-1.051-0.447-1.976-0.447c-0.924,0-1.372,0.42-1.372,0.91
			c0,0.603,0.532,0.868,1.751,1.33c1.667,0.617,2.451,1.485,2.451,2.816c0,1.582-1.219,2.927-3.811,2.927
			c-1.078,0-2.143-0.279-2.675-0.574L330.907,315.078z"/>
		<path style="fill:#FFFFFF;" d="M346.842,313.285h-3.475v2.241h3.88v1.751h-6.022v-9.441h5.827v1.751h-3.685v1.961h3.475V313.285z"
			/>
		<path style="fill:#FFFFFF;" d="M353.728,314.855l-0.673,2.423h-2.213l2.886-9.441h2.801l2.928,9.441h-2.297l-0.729-2.423H353.728z
			 M356.123,313.257l-0.588-2.003c-0.168-0.561-0.336-1.261-0.477-1.82h-0.027c-0.141,0.56-0.28,1.274-0.435,1.82l-0.561,2.003
			H356.123z"/>
		<path style="fill:#FFFFFF;" d="M367.295,317.011c-0.378,0.183-1.19,0.393-2.255,0.406l-0.238,0.477
			c0.546,0.126,1.022,0.49,1.022,1.148c0,0.967-0.869,1.289-1.667,1.289c-0.42,0-0.883-0.084-1.205-0.267l0.28-0.868
			c0.21,0.112,0.532,0.196,0.784,0.196c0.28,0,0.505-0.098,0.505-0.336c0-0.295-0.322-0.448-1.106-0.532l0.532-1.163
			c-2.662-0.351-4.021-2.241-4.021-4.664c0-3.222,2.297-5.015,5.155-5.015c1.106,0,1.946,0.224,2.325,0.42l-0.435,1.694
			c-0.435-0.182-1.036-0.35-1.793-0.35c-1.695,0-3.012,1.022-3.012,3.123c0,1.892,1.121,3.082,3.025,3.082
			c0.645,0,1.359-0.14,1.779-0.308L367.295,317.011z"/>
		<path style="fill:#FFFFFF;" d="M376.915,312.459c0,3.096-1.877,4.973-4.637,4.973c-2.802,0-4.44-2.115-4.44-4.805
			c0-2.83,1.807-4.944,4.595-4.944C375.332,307.683,376.915,309.854,376.915,312.459z M370.092,312.585
			c0,1.849,0.869,3.151,2.298,3.151c1.442,0,2.269-1.373,2.269-3.208c0-1.694-0.812-3.151-2.283-3.151
			C370.933,309.377,370.092,310.75,370.092,312.585z M370.415,307.276c-0.042-1.191,0.406-1.793,1.079-1.793
			c0.378,0,0.63,0.14,0.896,0.279c0.224,0.141,0.434,0.267,0.616,0.267c0.224,0,0.322-0.126,0.378-0.588h0.953
			c0.042,1.246-0.364,1.736-1.107,1.736c-0.378,0-0.658-0.126-0.91-0.252c-0.238-0.14-0.406-0.252-0.588-0.252
			c-0.183,0-0.309,0.196-0.337,0.603H370.415z"/>
		<path style="fill:#FFFFFF;" d="M383.927,313.285h-3.475v2.241h3.881v1.751h-6.023v-9.441h5.827v1.751h-3.685v1.961h3.475V313.285z
			"/>
		<path style="fill:#FFFFFF;" d="M385.855,315.078c0.574,0.294,1.457,0.588,2.367,0.588c0.981,0,1.499-0.406,1.499-1.022
			c0-0.588-0.448-0.924-1.583-1.33c-1.568-0.547-2.591-1.415-2.591-2.788c0-1.61,1.345-2.843,3.571-2.843
			c1.065,0,1.85,0.224,2.41,0.476l-0.477,1.723c-0.378-0.182-1.051-0.447-1.976-0.447c-0.924,0-1.372,0.42-1.372,0.91
			c0,0.603,0.532,0.868,1.751,1.33c1.667,0.617,2.451,1.485,2.451,2.816c0,1.582-1.219,2.927-3.811,2.927
			c-1.078,0-2.143-0.279-2.675-0.574L385.855,315.078z"/>
		<path style="fill:#FFFFFF;" d="M396.173,307.962c0.784-0.126,1.807-0.195,2.885-0.195c1.793,0,2.956,0.321,3.866,1.008
			c0.98,0.729,1.598,1.892,1.598,3.559c0,1.807-0.659,3.054-1.569,3.823c-0.994,0.827-2.507,1.219-4.356,1.219
			c-1.106,0-1.891-0.069-2.423-0.14V307.962z M398.316,315.666c0.183,0.043,0.477,0.043,0.742,0.043
			c1.934,0.014,3.194-1.051,3.194-3.307c0.014-1.961-1.135-2.997-2.97-2.997c-0.477,0-0.784,0.042-0.967,0.084V315.666z"/>
		<path style="fill:#FFFFFF;" d="M411.535,313.285h-3.475v2.241h3.881v1.751h-6.023v-9.441h5.827v1.751h-3.685v1.961h3.475V313.285z
			"/>
		<path style="fill:#FFFFFF;" d="M118.054,324.636v9.441h-2.144v-9.441H118.054z"/>
		<path style="fill:#FFFFFF;" d="M119.9,334.077v-9.441h2.494l1.961,3.46c0.56,0.995,1.121,2.172,1.541,3.236h0.042
			c-0.14-1.247-0.182-2.521-0.182-3.937v-2.76h1.961v9.441h-2.241l-2.017-3.642c-0.56-1.009-1.177-2.228-1.639-3.334l-0.042,0.014
			c0.056,1.247,0.084,2.577,0.084,4.118v2.844H119.9z"/>
		<path style="fill:#FFFFFF;" d="M136.494,333.811c-0.393,0.196-1.275,0.406-2.423,0.406c-3.264,0-4.945-2.03-4.945-4.72
			c0-3.222,2.297-5.015,5.155-5.015c1.106,0,1.947,0.224,2.325,0.42l-0.434,1.694c-0.434-0.182-1.037-0.35-1.793-0.35
			c-1.695,0-3.012,1.022-3.012,3.124c0,1.891,1.121,3.081,3.026,3.081c0.644,0,1.358-0.14,1.779-0.308L136.494,333.811z"/>
		<path style="fill:#FFFFFF;" d="M143.507,330.085h-3.474v2.241h3.88v1.751h-6.023v-9.441h5.827v1.751h-3.684v1.961h3.474V330.085z"
			/>
		<path style="fill:#FFFFFF;" d="M145.366,334.077v-9.441h2.494l1.961,3.46c0.561,0.995,1.121,2.172,1.541,3.236h0.042
			c-0.14-1.247-0.182-2.521-0.182-3.937v-2.76h1.961v9.441h-2.241l-2.017-3.642c-0.561-1.009-1.177-2.228-1.639-3.334l-0.042,0.014
			c0.056,1.247,0.084,2.577,0.084,4.118v2.844H145.366z"/>
		<path style="fill:#FFFFFF;" d="M156.847,326.429h-2.536v-1.793h7.256v1.793h-2.577v7.648h-2.143V326.429z"/>
		<path style="fill:#FFFFFF;" d="M164.841,324.636v9.441h-2.144v-9.441H164.841z"/>
		<path style="fill:#FFFFFF;" d="M168.915,334.077l-3.026-9.441h2.339l1.148,3.992c0.322,1.121,0.617,2.199,0.841,3.376h0.042
			c0.238-1.135,0.532-2.255,0.854-3.334l1.205-4.034h2.269l-3.18,9.441H168.915z"/>
		<path style="fill:#FFFFFF;" d="M184.122,329.259c0,3.096-1.877,4.973-4.637,4.973c-2.802,0-4.44-2.115-4.44-4.805
			c0-2.83,1.807-4.944,4.595-4.944C182.539,324.483,184.122,326.653,184.122,329.259z M177.3,329.385
			c0,1.849,0.868,3.151,2.297,3.151c1.442,0,2.269-1.372,2.269-3.208c0-1.694-0.812-3.151-2.283-3.151
			C178.141,326.177,177.3,327.55,177.3,329.385z"/>
		<path style="fill:#FFFFFF;" d="M190.544,331.654l-0.672,2.423h-2.213l2.885-9.441h2.802l2.927,9.441h-2.297l-0.729-2.423H190.544z
			 M192.94,330.057l-0.588-2.003c-0.168-0.561-0.336-1.261-0.476-1.821h-0.028c-0.14,0.561-0.28,1.275-0.434,1.821l-0.561,2.003
			H192.94z"/>
		<path style="fill:#FFFFFF;" d="M197.529,324.762c0.785-0.126,1.807-0.195,2.886-0.195c1.793,0,2.956,0.322,3.866,1.008
			c0.98,0.729,1.597,1.892,1.597,3.559c0,1.807-0.658,3.054-1.569,3.824c-0.995,0.826-2.507,1.218-4.356,1.218
			c-1.106,0-1.891-0.069-2.423-0.14V324.762z M199.673,332.466c0.182,0.042,0.476,0.042,0.742,0.042
			c1.933,0.015,3.194-1.05,3.194-3.306c0.014-1.961-1.135-2.997-2.97-2.997c-0.476,0-0.785,0.042-0.966,0.084V332.466z"/>
		<path style="fill:#FFFFFF;" d="M212.891,330.085h-3.474v2.241h3.88v1.751h-6.023v-9.441h5.827v1.751h-3.684v1.961h3.474V330.085z"
			/>
		<path style="fill:#FFFFFF;" d="M214.75,324.762c0.687-0.111,1.709-0.195,2.844-0.195c1.401,0,2.381,0.21,3.054,0.742
			c0.56,0.448,0.868,1.106,0.868,1.975c0,1.205-0.854,2.031-1.667,2.325v0.042c0.658,0.267,1.022,0.896,1.261,1.766
			c0.294,1.064,0.588,2.297,0.77,2.661h-2.185c-0.154-0.267-0.378-1.036-0.658-2.199c-0.252-1.177-0.659-1.499-1.527-1.513h-0.645
			v3.712h-2.115V324.762z M216.865,328.824h0.84c1.065,0,1.695-0.532,1.695-1.358c0-0.869-0.588-1.303-1.569-1.317
			c-0.519,0-0.812,0.042-0.967,0.07V328.824z"/>
		<path style="fill:#FFFFFF;" d="M228.669,330.085h-3.474v2.241h3.88v1.751h-6.023v-9.441h5.827v1.751h-3.684v1.961h3.474V330.085z"
			/>
		<path style="fill:#FFFFFF;" d="M230.527,334.077v-9.441h2.494l1.961,3.46c0.56,0.995,1.121,2.172,1.541,3.236h0.042
			c-0.14-1.247-0.182-2.521-0.182-3.937v-2.76h1.961v9.441h-2.241l-2.017-3.642c-0.56-1.009-1.177-2.228-1.639-3.334l-0.042,0.014
			c0.056,1.247,0.084,2.577,0.084,4.118v2.844H230.527z"/>
		<path style="fill:#FFFFFF;" d="M242.008,326.429h-2.536v-1.793h7.256v1.793h-2.577v7.648h-2.143V326.429z"/>
		<path style="fill:#FFFFFF;" d="M253.476,330.085h-3.474v2.241h3.88v1.751h-6.023v-9.441h5.827v1.751h-3.684v1.961h3.474V330.085z"
			/>
		<path style="fill:#FFFFFF;" d="M255.405,331.878c0.574,0.294,1.457,0.588,2.367,0.588c0.98,0,1.499-0.405,1.499-1.022
			c0-0.588-0.448-0.924-1.583-1.33c-1.569-0.547-2.591-1.415-2.591-2.788c0-1.61,1.345-2.843,3.572-2.843
			c1.064,0,1.849,0.224,2.409,0.476l-0.476,1.724c-0.378-0.183-1.051-0.449-1.975-0.449s-1.373,0.421-1.373,0.911
			c0,0.603,0.532,0.868,1.75,1.331c1.667,0.616,2.452,1.484,2.452,2.815c0,1.582-1.219,2.927-3.81,2.927
			c-1.079,0-2.143-0.279-2.676-0.574L255.405,331.878z"/>
		<path style="fill:#FFFFFF;" d="M267.923,331.654l-0.673,2.423h-2.213l2.886-9.441h2.801l2.928,9.441h-2.297l-0.729-2.423H267.923z
			 M270.318,330.057l-0.588-2.003c-0.168-0.561-0.336-1.261-0.477-1.821h-0.027c-0.141,0.561-0.28,1.275-0.435,1.821l-0.561,2.003
			H270.318z"/>
		<path style="fill:#FFFFFF;" d="M274.977,331.878c0.575,0.294,1.457,0.588,2.368,0.588c0.98,0,1.498-0.405,1.498-1.022
			c0-0.588-0.448-0.924-1.583-1.33c-1.568-0.547-2.591-1.415-2.591-2.788c0-1.61,1.345-2.843,3.572-2.843
			c1.064,0,1.849,0.224,2.409,0.476l-0.477,1.724c-0.378-0.183-1.051-0.449-1.976-0.449c-0.924,0-1.372,0.421-1.372,0.911
			c0,0.603,0.532,0.868,1.751,1.331c1.667,0.616,2.451,1.484,2.451,2.815c0,1.582-1.219,2.927-3.811,2.927
			c-1.078,0-2.143-0.279-2.675-0.574L274.977,331.878z"/>
		<path style="fill:#FFFFFF;" d="M285.365,331.878c0.574,0.294,1.457,0.588,2.367,0.588c0.981,0,1.499-0.405,1.499-1.022
			c0-0.588-0.448-0.924-1.583-1.33c-1.568-0.547-2.591-1.415-2.591-2.788c0-1.61,1.345-2.843,3.571-2.843
			c1.065,0,1.85,0.224,2.41,0.476l-0.477,1.724c-0.378-0.183-1.051-0.449-1.976-0.449c-0.924,0-1.372,0.421-1.372,0.911
			c0,0.603,0.532,0.868,1.751,1.331c1.667,0.616,2.451,1.484,2.451,2.815c0,1.582-1.219,2.927-3.811,2.927
			c-1.078,0-2.143-0.279-2.675-0.574L285.365,331.878z"/>
		<path style="fill:#FFFFFF;" d="M294.984,324.636v5.436c0,1.625,0.616,2.451,1.709,2.451c1.12,0,1.736-0.784,1.736-2.451v-5.436
			h2.13v5.295c0,2.914-1.471,4.301-3.937,4.301c-2.381,0-3.782-1.317-3.782-4.328v-5.268H294.984z"/>
		<path style="fill:#FFFFFF;" d="M304.182,331.654l-0.673,2.423h-2.213l2.886-9.441h2.801l2.928,9.441h-2.297l-0.729-2.423H304.182z
			 M306.577,330.057l-0.588-2.003c-0.168-0.561-0.336-1.261-0.477-1.821h-0.027c-0.141,0.561-0.28,1.275-0.435,1.821l-0.561,2.003
			H306.577z"/>
		<path style="fill:#FFFFFF;" d="M311.236,331.878c0.574,0.294,1.457,0.588,2.367,0.588c0.981,0,1.499-0.405,1.499-1.022
			c0-0.588-0.448-0.924-1.583-1.33c-1.568-0.547-2.591-1.415-2.591-2.788c0-1.61,1.345-2.843,3.571-2.843
			c1.065,0,1.85,0.224,2.41,0.476l-0.477,1.724c-0.378-0.183-1.051-0.449-1.976-0.449c-0.924,0-1.372,0.421-1.372,0.911
			c0,0.603,0.532,0.868,1.751,1.331c1.667,0.616,2.451,1.484,2.451,2.815c0,1.582-1.219,2.927-3.811,2.927
			c-1.078,0-2.143-0.279-2.675-0.574L311.236,331.878z"/>
		<path style="fill:#FFFFFF;" d="M321.554,334.077v-9.441h2.493l1.961,3.46c0.561,0.995,1.12,2.172,1.541,3.236h0.042
			c-0.141-1.247-0.183-2.521-0.183-3.937v-2.76h1.962v9.441h-2.242l-2.017-3.642c-0.561-1.009-1.177-2.228-1.639-3.334l-0.042,0.014
			c0.056,1.247,0.084,2.577,0.084,4.118v2.844H321.554z"/>
		<path style="fill:#FFFFFF;" d="M336.832,330.085h-3.475v2.241h3.881v1.751h-6.023v-9.441h5.827v1.751h-3.685v1.961h3.475V330.085z
			"/>
		<path style="fill:#FFFFFF;" d="M345.624,333.811c-0.393,0.196-1.274,0.406-2.424,0.406c-3.264,0-4.944-2.03-4.944-4.72
			c0-3.222,2.297-5.015,5.155-5.015c1.106,0,1.946,0.224,2.325,0.42l-0.435,1.694c-0.435-0.182-1.036-0.35-1.793-0.35
			c-1.695,0-3.012,1.022-3.012,3.124c0,1.891,1.121,3.081,3.025,3.081c0.645,0,1.359-0.14,1.779-0.308L345.624,333.811z"/>
		<path style="fill:#FFFFFF;" d="M352.637,330.085h-3.475v2.241h3.88v1.751h-6.022v-9.441h5.827v1.751h-3.685v1.961h3.475V330.085z"
			/>
		<path style="fill:#FFFFFF;" d="M354.565,331.878c0.575,0.294,1.457,0.588,2.368,0.588c0.98,0,1.498-0.405,1.498-1.022
			c0-0.588-0.448-0.924-1.583-1.33c-1.568-0.547-2.591-1.415-2.591-2.788c0-1.61,1.345-2.843,3.572-2.843
			c1.064,0,1.849,0.224,2.409,0.476l-0.477,1.724c-0.378-0.183-1.051-0.449-1.976-0.449c-0.924,0-1.372,0.421-1.372,0.911
			c0,0.603,0.532,0.868,1.751,1.331c1.667,0.616,2.451,1.484,2.451,2.815c0,1.582-1.219,2.927-3.811,2.927
			c-1.078,0-2.143-0.279-2.675-0.574L354.565,331.878z"/>
		<path style="fill:#FFFFFF;" d="M362.125,331.878c0.574,0.294,1.457,0.588,2.367,0.588c0.981,0,1.499-0.405,1.499-1.022
			c0-0.588-0.448-0.924-1.583-1.33c-1.568-0.547-2.591-1.415-2.591-2.788c0-1.61,1.345-2.843,3.571-2.843
			c1.065,0,1.85,0.224,2.41,0.476l-0.477,1.724c-0.378-0.183-1.051-0.449-1.976-0.449c-0.924,0-1.372,0.421-1.372,0.911
			c0,0.603,0.532,0.868,1.751,1.331c1.667,0.616,2.451,1.484,2.451,2.815c0,1.582-1.219,2.927-3.811,2.927
			c-1.078,0-2.143-0.279-2.675-0.574L362.125,331.878z"/>
		<path style="fill:#FFFFFF;" d="M371.757,324.636v9.441h-2.143v-9.441H371.757z"/>
		<path style="fill:#FFFFFF;" d="M373.605,324.762c0.784-0.126,1.807-0.195,2.885-0.195c1.793,0,2.956,0.322,3.866,1.008
			c0.98,0.729,1.598,1.892,1.598,3.559c0,1.807-0.659,3.054-1.569,3.824c-0.994,0.826-2.507,1.218-4.356,1.218
			c-1.106,0-1.891-0.069-2.423-0.14V324.762z M375.748,332.466c0.183,0.042,0.477,0.042,0.742,0.042
			c1.934,0.015,3.194-1.05,3.194-3.306c0.014-1.961-1.135-2.997-2.97-2.997c-0.477,0-0.784,0.042-0.967,0.084V332.466z"/>
		<path style="fill:#FFFFFF;" d="M385.325,331.654l-0.673,2.423h-2.213l2.886-9.441h2.801l2.928,9.441h-2.297l-0.729-2.423H385.325z
			 M387.719,330.057l-0.588-2.003c-0.168-0.561-0.336-1.261-0.477-1.821h-0.027c-0.141,0.561-0.28,1.275-0.435,1.821l-0.561,2.003
			H387.719z"/>
		<path style="fill:#FFFFFF;" d="M392.309,324.762c0.784-0.126,1.807-0.195,2.886-0.195c1.793,0,2.955,0.322,3.865,1.008
			c0.98,0.729,1.598,1.892,1.598,3.559c0,1.807-0.659,3.054-1.569,3.824c-0.994,0.826-2.507,1.218-4.356,1.218
			c-1.106,0-1.891-0.069-2.423-0.14V324.762z M394.452,332.466c0.183,0.042,0.477,0.042,0.743,0.042
			c1.933,0.015,3.193-1.05,3.193-3.306c0.014-1.961-1.135-2.997-2.97-2.997c-0.477,0-0.784,0.042-0.967,0.084V332.466z"/>
		<path style="fill:#FFFFFF;" d="M407.67,330.085h-3.475v2.241h3.88v1.751h-6.022v-9.441h5.827v1.751h-3.685v1.961h3.475V330.085z"
			/>
		<path style="fill:#FFFFFF;" d="M409.598,331.878c0.575,0.294,1.457,0.588,2.368,0.588c0.98,0,1.498-0.405,1.498-1.022
			c0-0.588-0.448-0.924-1.583-1.33c-1.568-0.547-2.591-1.415-2.591-2.788c0-1.61,1.345-2.843,3.572-2.843
			c1.064,0,1.849,0.224,2.409,0.476l-0.477,1.724c-0.378-0.183-1.051-0.449-1.976-0.449c-0.924,0-1.372,0.421-1.372,0.911
			c0,0.603,0.532,0.868,1.751,1.331c1.667,0.616,2.451,1.484,2.451,2.815c0,1.582-1.219,2.927-3.811,2.927
			c-1.078,0-2.143-0.279-2.675-0.574L409.598,331.878z"/>
		<path style="fill:#FFFFFF;" d="M115.911,341.562c0.785-0.126,1.807-0.195,2.886-0.195c1.793,0,2.956,0.321,3.866,1.008
			c0.98,0.729,1.597,1.892,1.597,3.559c0,1.807-0.658,3.054-1.569,3.823c-0.995,0.827-2.507,1.219-4.356,1.219
			c-1.106,0-1.891-0.069-2.423-0.14V341.562z M118.054,349.266c0.182,0.043,0.476,0.043,0.742,0.043
			c1.933,0.014,3.194-1.051,3.194-3.307c0.014-1.961-1.135-2.997-2.97-2.997c-0.476,0-0.784,0.042-0.966,0.084V349.266z"/>
		<path style="fill:#FFFFFF;" d="M127.784,341.436v5.436c0,1.625,0.616,2.451,1.709,2.451c1.121,0,1.737-0.784,1.737-2.451v-5.436
			h2.129v5.295c0,2.914-1.471,4.301-3.937,4.301c-2.381,0-3.782-1.317-3.782-4.328v-5.268H127.784z"/>
		<path style="fill:#FFFFFF;" d="M135.203,341.562c0.687-0.111,1.709-0.195,2.844-0.195c1.401,0,2.381,0.21,3.054,0.742
			c0.56,0.448,0.868,1.106,0.868,1.975c0,1.205-0.854,2.031-1.667,2.325v0.042c0.658,0.267,1.022,0.896,1.261,1.766
			c0.294,1.064,0.588,2.297,0.77,2.661h-2.185c-0.154-0.267-0.378-1.036-0.658-2.199c-0.252-1.177-0.659-1.499-1.527-1.513h-0.645
			v3.712h-2.115V341.562z M137.318,345.624h0.84c1.065,0,1.695-0.532,1.695-1.358c0-0.869-0.588-1.303-1.569-1.317
			c-0.519,0-0.812,0.042-0.967,0.07V345.624z"/>
		<path style="fill:#FFFFFF;" d="M145.83,348.454l-0.672,2.423h-2.213l2.885-9.441h2.802l2.927,9.441h-2.297l-0.729-2.423H145.83z
			 M148.225,346.857l-0.588-2.003c-0.168-0.561-0.336-1.261-0.476-1.82h-0.028c-0.14,0.56-0.28,1.274-0.434,1.82l-0.561,2.003
			H148.225z"/>
		<path style="fill:#FFFFFF;" d="M152.815,350.877v-9.441h2.494l1.961,3.46c0.56,0.995,1.121,2.171,1.541,3.236h0.042
			c-0.14-1.247-0.182-2.521-0.182-3.937v-2.76h1.961v9.441h-2.241l-2.017-3.642c-0.56-1.009-1.177-2.228-1.639-3.334l-0.042,0.014
			c0.056,1.247,0.084,2.577,0.084,4.118v2.844H152.815z"/>
		<path style="fill:#FFFFFF;" d="M164.295,343.229h-2.536v-1.793h7.256v1.793h-2.577v7.648h-2.143V343.229z"/>
		<path style="fill:#FFFFFF;" d="M175.763,346.885h-3.474v2.241h3.88v1.751h-6.023v-9.441h5.827v1.751h-3.684v1.961h3.474V346.885z"
			/>
		<path style="fill:#FFFFFF;" d="M180.521,348.678c0.574,0.294,1.457,0.588,2.367,0.588c0.98,0,1.499-0.406,1.499-1.022
			c0-0.588-0.448-0.924-1.583-1.33c-1.569-0.547-2.591-1.415-2.591-2.788c0-1.61,1.345-2.843,3.572-2.843
			c1.064,0,1.849,0.224,2.409,0.476l-0.476,1.723c-0.378-0.182-1.051-0.447-1.975-0.447s-1.373,0.42-1.373,0.91
			c0,0.603,0.532,0.868,1.75,1.33c1.667,0.617,2.452,1.485,2.452,2.816c0,1.582-1.219,2.927-3.81,2.927
			c-1.079,0-2.143-0.279-2.676-0.574L180.521,348.678z"/>
		<path style="fill:#FFFFFF;" d="M193.628,346.885h-3.474v2.241h3.88v1.751h-6.023v-9.441h5.827v1.751h-3.684v1.961h3.474V346.885z"
			/>
		<path style="fill:#FFFFFF;" d="M197.616,341.436v5.436c0,1.625,0.616,2.451,1.709,2.451c1.121,0,1.737-0.784,1.737-2.451v-5.436
			h2.129v5.295c0,2.914-1.471,4.301-3.936,4.301c-2.381,0-3.782-1.317-3.782-4.328v-5.268H197.616z"/>
		<path style="fill:#FFFFFF;" d="M214.796,350.61c-0.393,0.196-1.275,0.406-2.423,0.406c-3.264,0-4.945-2.03-4.945-4.72
			c0-3.222,2.297-5.015,5.155-5.015c1.106,0,1.947,0.224,2.325,0.42l-0.434,1.694c-0.434-0.182-1.037-0.35-1.793-0.35
			c-1.695,0-3.012,1.022-3.012,3.123c0,1.892,1.121,3.082,3.026,3.082c0.644,0,1.358-0.14,1.779-0.308L214.796,350.61z"/>
		<path style="fill:#FFFFFF;" d="M218.336,341.436v9.441h-2.144v-9.441H218.336z"/>
		<path style="fill:#FFFFFF;" d="M227.116,350.61c-0.393,0.196-1.275,0.406-2.423,0.406c-3.264,0-4.945-2.03-4.945-4.72
			c0-3.222,2.297-5.015,5.155-5.015c1.106,0,1.947,0.224,2.325,0.42l-0.434,1.694c-0.434-0.182-1.037-0.35-1.793-0.35
			c-1.695,0-3.012,1.022-3.012,3.123c0,1.892,1.121,3.082,3.026,3.082c0.644,0,1.358-0.14,1.779-0.308L227.116,350.61z"/>
		<path style="fill:#FFFFFF;" d="M228.511,341.436h2.144v7.648h3.754v1.793h-5.897V341.436z"/>
		<path style="fill:#FFFFFF;" d="M243.776,346.059c0,3.096-1.877,4.973-4.637,4.973c-2.801,0-4.44-2.115-4.44-4.805
			c0-2.83,1.807-4.944,4.595-4.944C242.193,341.282,243.776,343.453,243.776,346.059z M236.954,346.185
			c0,1.849,0.868,3.151,2.297,3.151c1.443,0,2.27-1.373,2.27-3.208c0-1.694-0.812-3.151-2.283-3.151
			C237.794,342.977,236.954,344.35,236.954,346.185z"/>
		<path style="fill:#FFFFFF;" d="M247.999,341.562c0.785-0.126,1.807-0.195,2.886-0.195c1.793,0,2.956,0.321,3.866,1.008
			c0.98,0.729,1.597,1.892,1.597,3.559c0,1.807-0.658,3.054-1.569,3.823c-0.995,0.827-2.507,1.219-4.356,1.219
			c-1.106,0-1.891-0.069-2.423-0.14V341.562z M250.143,349.266c0.182,0.043,0.476,0.043,0.742,0.043
			c1.933,0.014,3.194-1.051,3.194-3.307c0.014-1.961-1.135-2.997-2.97-2.997c-0.476,0-0.785,0.042-0.966,0.084V349.266z"/>
		<path style="fill:#FFFFFF;" d="M263.36,346.885h-3.474v2.241h3.88v1.751h-6.023v-9.441h5.827v1.751h-3.684v1.961h3.474V346.885z"
			/>
		<path style="fill:#FFFFFF;" d="M269.757,350.877l-3.026-9.441h2.34l1.148,3.992c0.322,1.121,0.616,2.199,0.84,3.376h0.042
			c0.238-1.135,0.532-2.255,0.854-3.334l1.205-4.034h2.27l-3.18,9.441H269.757z"/>
		<path style="fill:#FFFFFF;" d="M278.577,341.436v9.441h-2.143v-9.441H278.577z"/>
		<path style="fill:#FFFFFF;" d="M280.424,341.562c0.784-0.126,1.807-0.195,2.886-0.195c1.793,0,2.955,0.321,3.865,1.008
			c0.98,0.729,1.598,1.892,1.598,3.559c0,1.807-0.659,3.054-1.569,3.823c-0.994,0.827-2.507,1.219-4.356,1.219
			c-1.106,0-1.891-0.069-2.423-0.14V341.562z M282.567,349.266c0.183,0.043,0.477,0.043,0.743,0.043
			c1.933,0.014,3.193-1.051,3.193-3.307c0.014-1.961-1.135-2.997-2.97-2.997c-0.477,0-0.784,0.042-0.967,0.084V349.266z"/>
		<path style="fill:#FFFFFF;" d="M292.144,348.454l-0.673,2.423h-2.213l2.886-9.441h2.801l2.928,9.441h-2.297l-0.729-2.423H292.144z
			 M294.539,346.857l-0.588-2.003c-0.168-0.561-0.336-1.261-0.477-1.82h-0.027c-0.141,0.56-0.28,1.274-0.435,1.82l-0.561,2.003
			H294.539z"/>
		<path style="fill:#FFFFFF;" d="M308.89,350.61c-0.393,0.196-1.274,0.406-2.424,0.406c-3.264,0-4.944-2.03-4.944-4.72
			c0-3.222,2.297-5.015,5.155-5.015c1.106,0,1.946,0.224,2.325,0.42l-0.435,1.694c-0.435-0.182-1.037-0.35-1.793-0.35
			c-1.695,0-3.012,1.022-3.012,3.123c0,1.892,1.121,3.082,3.025,3.082c0.645,0,1.359-0.14,1.779-0.308L308.89,350.61z"/>
		<path style="fill:#FFFFFF;" d="M318.509,346.059c0,3.096-1.877,4.973-4.637,4.973c-2.802,0-4.44-2.115-4.44-4.805
			c0-2.83,1.807-4.944,4.595-4.944C316.926,341.282,318.509,343.453,318.509,346.059z M311.687,346.185
			c0,1.849,0.869,3.151,2.298,3.151c1.442,0,2.269-1.373,2.269-3.208c0-1.694-0.812-3.151-2.283-3.151
			C312.528,342.977,311.687,344.35,311.687,346.185z"/>
		<path style="fill:#FFFFFF;" d="M327.889,347.263c-0.042-1.135-0.084-2.507-0.084-3.88h-0.042c-0.295,1.205-0.687,2.55-1.051,3.656
			l-1.148,3.684h-1.667l-1.009-3.656c-0.309-1.106-0.631-2.451-0.854-3.684h-0.028c-0.056,1.274-0.098,2.731-0.168,3.908
			l-0.168,3.586h-1.975l0.602-9.441h2.844l0.925,3.152c0.294,1.092,0.588,2.269,0.798,3.375h0.042
			c0.267-1.092,0.589-2.339,0.896-3.39l1.009-3.138h2.788l0.518,9.441h-2.087L327.889,347.263z"/>
		<path style="fill:#FFFFFF;" d="M336.776,348.454l-0.673,2.423h-2.213l2.886-9.441h2.801l2.928,9.441h-2.297l-0.729-2.423H336.776z
			 M339.17,346.857l-0.588-2.003c-0.168-0.561-0.336-1.261-0.477-1.82h-0.027c-0.141,0.56-0.28,1.274-0.435,1.82l-0.561,2.003
			H339.17z"/>
		<path style="fill:#FFFFFF;" d="M347.863,343.229h-2.535v-1.793h7.256v1.793h-2.577v7.648h-2.144V343.229z"/>
		<path style="fill:#FFFFFF;" d="M355.857,341.436v9.441h-2.143v-9.441H355.857z"/>
		<path style="fill:#FFFFFF;" d="M365.689,347.263c-0.042-1.135-0.084-2.507-0.084-3.88h-0.042c-0.295,1.205-0.687,2.55-1.051,3.656
			l-1.148,3.684h-1.667l-1.009-3.656c-0.309-1.106-0.631-2.451-0.854-3.684h-0.028c-0.056,1.274-0.098,2.731-0.168,3.908
			l-0.168,3.586h-1.975l0.602-9.441h2.844l0.925,3.152c0.294,1.092,0.588,2.269,0.798,3.375h0.042
			c0.267-1.092,0.589-2.339,0.896-3.39l1.009-3.138h2.788l0.518,9.441h-2.087L365.689,347.263z"/>
		<path style="fill:#FFFFFF;" d="M369.324,349.742c0-0.756,0.519-1.303,1.261-1.303s1.247,0.532,1.247,1.303
			c0,0.742-0.505,1.289-1.261,1.289C369.842,351.031,369.324,350.484,369.324,349.742z"/>
	</g>
</g>
<g id="Layer_1">
</g>
</svg>
