<?xml version="1.0" encoding="iso-8859-1"?>
<!-- Generator: Adobe Illustrator 18.0.0, SVG Export Plug-In . SVG Version: 6.00 Build 0)  -->
<!DOCTYPE svg PUBLIC "-//W3C//DTD SVG 1.1//EN" "http://www.w3.org/Graphics/SVG/1.1/DTD/svg11.dtd">
<svg version="1.1" xmlns="http://www.w3.org/2000/svg" xmlns:xlink="http://www.w3.org/1999/xlink" x="0px" y="0px"
	 viewBox="0 0 531.453 494.191" style="enable-background:new 0 0 531.453 494.191;" xml:space="preserve">
<g id="page13-2">
	
		<polygon style="fill:none;stroke:#000000;stroke-width:3.6793;stroke-linecap:round;stroke-linejoin:round;stroke-miterlimit:10;" points="
		43.446,14.904 69.635,406.333 475.632,438.052 529.613,82.648 	"/>
	<polygon style="opacity:0.8;fill:#E92325;" points="100.919,49.06 83.146,447.249 518.153,405.508 454.366,31.542 	"/>
	<polygon style="fill:#03B9DB;" points="23.262,106.379 387.98,82.648 390.61,211.407 20.388,285.052 	"/>
	
		<polyline style="fill:none;stroke:#000000;stroke-width:3.6793;stroke-linecap:round;stroke-linejoin:round;stroke-miterlimit:10;" points="
		45.65,296.379 1.84,305.543 4.782,122.591 	"/>
	<g>
		<g>
			<g>
				
					<line style="fill:none;stroke:#000000;stroke-width:3.6793;stroke-linecap:round;stroke-linejoin:round;stroke-miterlimit:10;" x1="20.388" y1="335.586" x2="43.803" y2="335.586"/>
				
					<line style="fill:none;stroke:#000000;stroke-width:3.6793;stroke-linecap:round;stroke-linejoin:round;stroke-miterlimit:10;" x1="32.095" y1="323.878" x2="32.095" y2="347.293"/>
			</g>
			<g>
				
					<line style="fill:none;stroke:#000000;stroke-width:3.6793;stroke-linecap:round;stroke-linejoin:round;stroke-miterlimit:10;" x1="274.822" y1="453.476" x2="298.237" y2="453.476"/>
				
					<line style="fill:none;stroke:#000000;stroke-width:3.6793;stroke-linecap:round;stroke-linejoin:round;stroke-miterlimit:10;" x1="286.53" y1="441.769" x2="286.53" y2="465.184"/>
			</g>
			
				<path style="fill:none;stroke:#000000;stroke-width:3.6793;stroke-linecap:round;stroke-linejoin:round;stroke-miterlimit:10;" d="
				M503.274,13.043c8.685,13.564-5.72,27.969-19.284,19.284c-0.931-0.596-1.73-1.395-2.325-2.326
				c-8.681-13.563,5.721-27.965,19.283-19.283C501.879,11.313,502.678,12.112,503.274,13.043z"/>
			<g>
				
					<line style="fill:none;stroke:#000000;stroke-width:3.6793;stroke-linecap:round;stroke-linejoin:round;stroke-miterlimit:10;" x1="211.98" y1="1.84" x2="298.237" y2="1.84"/>
				
					<line style="fill:none;stroke:#000000;stroke-width:3.6793;stroke-linecap:round;stroke-linejoin:round;stroke-miterlimit:10;" x1="264.348" y1="21.523" x2="319.935" y2="21.523"/>
			</g>
			
				<path style="fill:none;stroke:#000000;stroke-width:3.6793;stroke-linecap:round;stroke-linejoin:round;stroke-miterlimit:10;" d="
				M216.304,470.431c8.681,13.563-5.721,27.965-19.283,19.283c-0.931-0.596-1.73-1.395-2.326-2.325
				c-8.685-13.564,5.72-27.969,19.284-19.284C214.91,468.702,215.709,469.501,216.304,470.431z"/>
		</g>
	</g>
	<g>
		<path style="fill:#FFFFFF;" d="M102.158,194.791l-0.667,7.064l-6.147,1.097l3.336-27.652l7.781-1.388l12.81,24.772l-6.38,1.138
			l-3.224-6.37L102.158,194.791z M108.019,189.169l-2.627-5.272c-0.744-1.473-1.558-3.335-2.226-4.822l-0.077,0.014
			c-0.111,1.625-0.146,3.679-0.304,5.273l-0.563,5.841L108.019,189.169z"/>
		<path style="fill:#FFFFFF;" d="M118.152,172.187c1.772-0.638,4.299-1.33,7.917-1.976c3.657-0.652,6.389-0.417,8.39,0.671
			c1.908,1.025,3.426,3.001,3.884,5.57c0.458,2.567-0.009,4.899-1.302,6.655c-1.683,2.267-4.525,3.658-8.027,4.282
			c-0.778,0.139-1.485,0.225-2.044,0.244l1.673,9.377l-5.875,1.048L118.152,172.187z M126.15,183.043
			c0.527,0.026,1.156-0.046,2.012-0.198c3.152-0.562,4.812-2.504,4.334-5.189c-0.431-2.412-2.36-3.553-5.317-3.025
			c-1.206,0.215-2.002,0.478-2.409,0.67L126.15,183.043z"/>
		<path style="fill:#FFFFFF;" d="M140.752,168.154c1.851-0.651,4.649-1.392,7.801-1.954c3.891-0.694,6.719-0.597,8.85,0.549
			c1.778,0.967,2.96,2.643,3.391,5.055c0.597,3.346-1.367,6.065-3.478,7.285l0.021,0.117c1.961,0.413,3.285,1.983,4.376,4.277
			c1.345,2.811,2.772,6.089,3.459,7.01l-6.069,1.083c-0.56-0.663-1.564-2.691-2.918-5.782c-1.283-3.143-2.571-3.837-4.99-3.445
			l-1.79,0.32l1.839,10.31l-5.874,1.048L140.752,168.154z M148.639,178.389l2.334-0.417c2.957-0.527,4.444-2.318,4.034-4.613
			c-0.43-2.412-2.279-3.327-5.01-2.88c-1.439,0.257-2.235,0.519-2.649,0.674L148.639,178.389z"/>
		<path style="fill:#FFFFFF;" d="M189.895,172.273c1.534,8.598-2.749,14.741-10.413,16.109c-7.781,1.388-13.381-3.674-14.714-11.144
			c-1.402-7.859,2.568-14.629,10.311-16.011C183.132,159.79,188.604,165.036,189.895,172.273z M171.011,176.003
			c0.916,5.136,3.974,8.323,7.942,7.615c4.007-0.715,5.622-4.938,4.713-10.034c-0.84-4.707-3.818-8.351-7.903-7.622
			C171.755,166.677,170.101,170.906,171.011,176.003z"/>
		<path style="fill:#FFFFFF;" d="M202.083,183.908L189,159.185l6.498-1.159l5.169,10.519c1.449,2.953,2.801,5.803,4.007,8.96
			l0.117-0.021c0.099-3.269,0.36-6.527,0.721-9.683l1.348-11.802l6.303-1.124l-4.154,27.798L202.083,183.908z"/>
		<path style="fill:#FFFFFF;" d="M223.443,173.151l-0.667,7.064l-6.146,1.097l3.336-27.653l7.781-1.388l12.81,24.772l-6.381,1.138
			l-3.224-6.37L223.443,173.151z M229.304,167.529l-2.627-5.271c-0.744-1.474-1.558-3.336-2.225-4.822l-0.078,0.014
			c-0.111,1.625-0.146,3.68-0.304,5.273l-0.563,5.841L229.304,167.529z"/>
		<path style="fill:#FFFFFF;" d="M239.437,150.547c2.115-0.739,4.922-1.441,7.917-1.975c4.979-0.889,8.369-0.57,11.238,0.886
			c3.084,1.537,5.372,4.461,6.198,9.091c0.896,5.019-0.315,8.808-2.463,11.398c-2.353,2.788-6.359,4.628-11.495,5.544
			c-3.074,0.548-5.288,0.742-6.8,0.811L239.437,150.547z M249.207,170.883c0.527,0.027,1.344-0.119,2.083-0.25
			c5.376-0.919,8.351-4.5,7.232-10.764c-0.933-5.455-4.637-7.764-9.733-6.855c-1.322,0.236-2.158,0.505-2.643,0.712L249.207,170.883
			z"/>
		<path style="fill:#FFFFFF;" d="M292.744,153.923c1.534,8.598-2.75,14.741-10.414,16.109c-7.781,1.388-13.381-3.674-14.714-11.144
			c-1.402-7.859,2.568-14.629,10.311-16.01C285.98,141.441,291.453,146.687,292.744,153.923z M273.859,157.653
			c0.916,5.136,3.974,8.323,7.941,7.615c4.008-0.715,5.623-4.938,4.714-10.034c-0.84-4.707-3.818-8.351-7.903-7.622
			C274.603,148.328,272.949,152.557,273.859,157.653z"/>
	</g>
	<g>
		<path style="fill:#FFFFFF;" d="M115.911,300.477v-9.441h2.494l1.961,3.46c0.561,0.995,1.121,2.171,1.541,3.236h0.042
			c-0.14-1.247-0.182-2.521-0.182-3.937v-2.76h1.961v9.441h-2.241l-2.017-3.642c-0.561-1.009-1.177-2.228-1.639-3.334l-0.042,0.014
			c0.056,1.247,0.084,2.577,0.084,4.118v2.844H115.911z"/>
		<path style="fill:#FFFFFF;" d="M134.213,295.658c0,3.096-1.877,4.973-4.637,4.973c-2.801,0-4.44-2.115-4.44-4.805
			c0-2.83,1.807-4.944,4.595-4.944C132.63,290.882,134.213,293.053,134.213,295.658z M127.392,295.784
			c0,1.849,0.868,3.151,2.297,3.151c1.443,0,2.27-1.373,2.27-3.208c0-1.694-0.812-3.151-2.283-3.151
			C128.232,292.576,127.392,293.949,127.392,295.784z"/>
		<path style="fill:#FFFFFF;" d="M137.738,300.477l-3.026-9.441h2.339l1.148,3.992c0.322,1.121,0.617,2.199,0.841,3.376h0.042
			c0.238-1.135,0.532-2.255,0.854-3.334l1.205-4.034h2.269l-3.18,9.441H137.738z"/>
		<path style="fill:#FFFFFF;" d="M152.945,295.658c0,3.096-1.877,4.973-4.637,4.973c-2.802,0-4.44-2.115-4.44-4.805
			c0-2.83,1.807-4.944,4.595-4.944C151.362,290.882,152.945,293.053,152.945,295.658z M146.124,295.784
			c0,1.849,0.868,3.151,2.297,3.151c1.442,0,2.269-1.373,2.269-3.208c0-1.694-0.812-3.151-2.283-3.151
			C146.964,292.576,146.124,293.949,146.124,295.784z"/>
		<path style="fill:#FFFFFF;" d="M157.169,291.161c0.659-0.111,1.583-0.195,2.886-0.195c1.317,0,2.255,0.252,2.886,0.756
			c0.602,0.477,1.008,1.261,1.008,2.186c0,0.924-0.308,1.709-0.868,2.241c-0.729,0.687-1.807,0.994-3.068,0.994
			c-0.28,0-0.532-0.014-0.729-0.042v3.376h-2.115V291.161z M159.284,295.448c0.182,0.042,0.406,0.056,0.714,0.056
			c1.135,0,1.835-0.574,1.835-1.541c0-0.868-0.602-1.387-1.667-1.387c-0.434,0-0.728,0.042-0.882,0.084V295.448z"/>
		<path style="fill:#FFFFFF;" d="M165.302,291.161c0.687-0.111,1.709-0.195,2.844-0.195c1.401,0,2.381,0.21,3.054,0.742
			c0.56,0.448,0.868,1.106,0.868,1.975c0,1.205-0.854,2.031-1.667,2.325v0.042c0.658,0.267,1.022,0.896,1.261,1.766
			c0.294,1.064,0.588,2.297,0.77,2.661h-2.185c-0.154-0.267-0.378-1.036-0.658-2.199c-0.252-1.177-0.659-1.499-1.527-1.513h-0.645
			v3.712h-2.115V291.161z M167.418,295.224h0.84c1.065,0,1.695-0.532,1.695-1.358c0-0.869-0.588-1.303-1.569-1.317
			c-0.519,0-0.812,0.042-0.967,0.07V295.224z"/>
		<path style="fill:#FFFFFF;" d="M182.191,295.658c0,3.096-1.877,4.973-4.637,4.973c-2.802,0-4.44-2.115-4.44-4.805
			c0-2.83,1.807-4.944,4.595-4.944C180.608,290.882,182.191,293.053,182.191,295.658z M175.37,295.784
			c0,1.849,0.868,3.151,2.297,3.151c1.442,0,2.269-1.373,2.269-3.208c0-1.694-0.812-3.151-2.283-3.151
			C176.21,292.576,175.37,293.949,175.37,295.784z"/>
		<path style="fill:#FFFFFF;" d="M190.521,300.21c-0.393,0.196-1.275,0.406-2.423,0.406c-3.264,0-4.945-2.03-4.945-4.72
			c0-3.222,2.297-5.015,5.155-5.015c1.106,0,1.947,0.224,2.325,0.42l-0.434,1.694c-0.434-0.182-1.037-0.35-1.793-0.35
			c-1.695,0-3.012,1.022-3.012,3.123c0,1.892,1.121,3.082,3.026,3.082c0.644,0,1.358-0.14,1.779-0.308L190.521,300.21z"/>
		<path style="fill:#FFFFFF;" d="M197.533,296.484h-3.474v2.241h3.88v1.751h-6.023v-9.441h5.827v1.751h-3.684v1.961h3.474V296.484z"
			/>
		<path style="fill:#FFFFFF;" d="M199.462,298.277c0.574,0.294,1.457,0.588,2.367,0.588c0.98,0,1.499-0.406,1.499-1.022
			c0-0.588-0.448-0.924-1.583-1.33c-1.569-0.547-2.591-1.415-2.591-2.788c0-1.61,1.345-2.843,3.572-2.843
			c1.064,0,1.849,0.224,2.409,0.476l-0.476,1.723c-0.378-0.182-1.051-0.447-1.975-0.447s-1.373,0.42-1.373,0.91
			c0,0.603,0.532,0.868,1.751,1.33c1.667,0.617,2.451,1.485,2.451,2.816c0,1.582-1.219,2.927-3.81,2.927
			c-1.079,0-2.143-0.279-2.675-0.574L199.462,298.277z"/>
		<path style="fill:#FFFFFF;" d="M207.023,298.277c0.574,0.294,1.457,0.588,2.367,0.588c0.98,0,1.499-0.406,1.499-1.022
			c0-0.588-0.448-0.924-1.583-1.33c-1.569-0.547-2.591-1.415-2.591-2.788c0-1.61,1.345-2.843,3.572-2.843
			c1.064,0,1.849,0.224,2.409,0.476l-0.476,1.723c-0.378-0.182-1.051-0.447-1.975-0.447s-1.373,0.42-1.373,0.91
			c0,0.603,0.532,0.868,1.75,1.33c1.667,0.617,2.452,1.485,2.452,2.816c0,1.582-1.219,2.927-3.81,2.927
			c-1.079,0-2.143-0.279-2.676-0.574L207.023,298.277z"/>
		<path style="fill:#FFFFFF;" d="M223.155,295.658c0,3.096-1.877,4.973-4.637,4.973c-2.802,0-4.44-2.115-4.44-4.805
			c0-2.83,1.807-4.944,4.595-4.944C221.572,290.882,223.155,293.053,223.155,295.658z M216.334,295.784
			c0,1.849,0.868,3.151,2.297,3.151c1.442,0,2.269-1.373,2.269-3.208c0-1.694-0.812-3.151-2.283-3.151
			C217.174,292.576,216.334,293.949,216.334,295.784z"/>
		<path style="fill:#FFFFFF;" d="M227.378,291.161c0.785-0.126,1.807-0.195,2.886-0.195c1.793,0,2.956,0.321,3.866,1.008
			c0.98,0.729,1.597,1.892,1.597,3.559c0,1.807-0.658,3.054-1.569,3.823c-0.995,0.827-2.507,1.219-4.356,1.219
			c-1.106,0-1.891-0.069-2.423-0.14V291.161z M229.522,298.865c0.182,0.043,0.476,0.043,0.742,0.043
			c1.933,0.014,3.194-1.051,3.194-3.307c0.014-1.961-1.135-2.997-2.97-2.997c-0.476,0-0.784,0.042-0.966,0.084V298.865z"/>
		<path style="fill:#FFFFFF;" d="M242.74,296.484h-3.474v2.241h3.88v1.751h-6.023v-9.441h5.827v1.751h-3.684v1.961h3.474V296.484z"
			/>
		<path style="fill:#FFFFFF;" d="M247.427,291.035h2.144v7.648h3.754v1.793h-5.897V291.035z"/>
		<path style="fill:#FFFFFF;" d="M256.864,298.054l-0.672,2.423h-2.213l2.885-9.441h2.802l2.927,9.441h-2.297l-0.729-2.423H256.864z
			 M259.259,296.456l-0.588-2.003c-0.168-0.561-0.336-1.261-0.476-1.82h-0.028c-0.14,0.56-0.28,1.274-0.434,1.82l-0.561,2.003
			H259.259z"/>
		<path style="fill:#FFFFFF;" d="M263.849,300.477v-9.441h2.494l1.962,3.46c0.56,0.995,1.12,2.171,1.54,3.236h0.042
			c-0.14-1.247-0.182-2.521-0.182-3.937v-2.76h1.961v9.441h-2.241l-2.017-3.642c-0.561-1.009-1.178-2.228-1.64-3.334l-0.042,0.014
			c0.056,1.247,0.084,2.577,0.084,4.118v2.844H263.849z"/>
		<path style="fill:#FFFFFF;" d="M280.443,300.21c-0.378,0.183-1.19,0.393-2.256,0.406l-0.237,0.477
			c0.546,0.126,1.022,0.49,1.022,1.148c0,0.967-0.869,1.289-1.667,1.289c-0.42,0-0.883-0.084-1.205-0.267l0.28-0.868
			c0.21,0.112,0.532,0.196,0.784,0.196c0.28,0,0.505-0.098,0.505-0.336c0-0.295-0.322-0.448-1.106-0.532l0.532-1.163
			c-2.662-0.351-4.021-2.241-4.021-4.664c0-3.222,2.297-5.015,5.155-5.015c1.106,0,1.946,0.224,2.325,0.42l-0.435,1.694
			c-0.435-0.182-1.037-0.35-1.793-0.35c-1.695,0-3.012,1.022-3.012,3.123c0,1.892,1.121,3.082,3.025,3.082
			c0.645,0,1.359-0.14,1.779-0.308L280.443,300.21z"/>
		<path style="fill:#FFFFFF;" d="M284.178,298.054l-0.673,2.423h-2.213l2.886-9.441h2.801l2.928,9.441h-2.297l-0.729-2.423H284.178z
			 M286.573,296.456l-0.588-2.003c-0.168-0.561-0.336-1.261-0.477-1.82h-0.027c-0.141,0.56-0.28,1.274-0.435,1.82l-0.561,2.003
			H286.573z"/>
		<path style="fill:#FFFFFF;" d="M299.147,296.862c-0.042-1.135-0.084-2.507-0.084-3.88h-0.042c-0.295,1.205-0.687,2.55-1.051,3.656
			l-1.148,3.684h-1.667l-1.009-3.656c-0.309-1.106-0.631-2.451-0.854-3.684h-0.028c-0.056,1.274-0.098,2.731-0.168,3.908
			l-0.168,3.586h-1.975l0.602-9.441h2.844l0.925,3.152c0.294,1.092,0.588,2.269,0.798,3.375h0.042
			c0.267-1.092,0.589-2.339,0.896-3.39l1.009-3.138h2.788l0.518,9.441h-2.087L299.147,296.862z"/>
		<path style="fill:#FFFFFF;" d="M308.624,296.484h-3.475v2.241h3.88v1.751h-6.022v-9.441h5.827v1.751h-3.685v1.961h3.475V296.484z"
			/>
		<path style="fill:#FFFFFF;" d="M310.482,300.477v-9.441h2.493l1.961,3.46c0.561,0.995,1.12,2.171,1.541,3.236h0.042
			c-0.141-1.247-0.183-2.521-0.183-3.937v-2.76h1.962v9.441h-2.242l-2.017-3.642c-0.561-1.009-1.177-2.228-1.639-3.334l-0.042,0.014
			c0.056,1.247,0.084,2.577,0.084,4.118v2.844H310.482z"/>
		<path style="fill:#FFFFFF;" d="M321.962,292.828h-2.535v-1.793h7.256v1.793h-2.577v7.648h-2.144V292.828z"/>
		<path style="fill:#FFFFFF;" d="M336.051,295.658c0,3.096-1.877,4.973-4.637,4.973c-2.802,0-4.44-2.115-4.44-4.805
			c0-2.83,1.807-4.944,4.595-4.944C334.468,290.882,336.051,293.053,336.051,295.658z M329.229,295.784
			c0,1.849,0.869,3.151,2.298,3.151c1.442,0,2.269-1.373,2.269-3.208c0-1.694-0.812-3.151-2.283-3.151
			C330.07,292.576,329.229,293.949,329.229,295.784z"/>
		<path style="fill:#FFFFFF;" d="M340.274,291.161c0.784-0.126,1.807-0.195,2.886-0.195c1.793,0,2.955,0.321,3.865,1.008
			c0.98,0.729,1.598,1.892,1.598,3.559c0,1.807-0.659,3.054-1.569,3.823c-0.994,0.827-2.507,1.219-4.356,1.219
			c-1.106,0-1.891-0.069-2.423-0.14V291.161z M342.417,298.865c0.183,0.043,0.477,0.043,0.743,0.043
			c1.933,0.014,3.193-1.051,3.193-3.307c0.014-1.961-1.135-2.997-2.97-2.997c-0.477,0-0.784,0.042-0.967,0.084V298.865z"/>
		<path style="fill:#FFFFFF;" d="M355.635,296.484h-3.475v2.241h3.88v1.751h-6.022v-9.441h5.827v1.751h-3.685v1.961h3.475V296.484z"
			/>
		<path style="fill:#FFFFFF;" d="M360.323,291.161c0.658-0.111,1.583-0.195,2.886-0.195c1.316,0,2.255,0.252,2.885,0.756
			c0.603,0.477,1.009,1.261,1.009,2.186c0,0.924-0.308,1.709-0.868,2.241c-0.729,0.687-1.808,0.994-3.068,0.994
			c-0.279,0-0.532-0.014-0.728-0.042v3.376h-2.115V291.161z M362.438,295.448c0.182,0.042,0.406,0.056,0.714,0.056
			c1.135,0,1.835-0.574,1.835-1.541c0-0.868-0.603-1.387-1.667-1.387c-0.434,0-0.729,0.042-0.882,0.084V295.448z"/>
		<path style="fill:#FFFFFF;" d="M368.456,291.161c0.687-0.111,1.709-0.195,2.843-0.195c1.401,0,2.382,0.21,3.054,0.742
			c0.561,0.448,0.869,1.106,0.869,1.975c0,1.205-0.854,2.031-1.667,2.325v0.042c0.658,0.267,1.022,0.896,1.261,1.766
			c0.294,1.064,0.588,2.297,0.771,2.661H373.4c-0.154-0.267-0.378-1.036-0.658-2.199c-0.252-1.177-0.658-1.499-1.527-1.513h-0.644
			v3.712h-2.115V291.161z M370.571,295.224h0.84c1.064,0,1.695-0.532,1.695-1.358c0-0.869-0.589-1.303-1.569-1.317
			c-0.518,0-0.812,0.042-0.966,0.07V295.224z"/>
		<path style="fill:#FFFFFF;" d="M385.344,295.658c0,3.096-1.877,4.973-4.637,4.973c-2.802,0-4.44-2.115-4.44-4.805
			c0-2.83,1.807-4.944,4.595-4.944C383.761,290.882,385.344,293.053,385.344,295.658z M378.522,295.784
			c0,1.849,0.869,3.151,2.298,3.151c1.442,0,2.269-1.373,2.269-3.208c0-1.694-0.812-3.151-2.283-3.151
			C379.363,292.576,378.522,293.949,378.522,295.784z"/>
		<path style="fill:#FFFFFF;" d="M386.74,291.161c0.784-0.126,1.807-0.195,2.885-0.195c1.793,0,2.956,0.321,3.866,1.008
			c0.98,0.729,1.598,1.892,1.598,3.559c0,1.807-0.659,3.054-1.569,3.823c-0.994,0.827-2.507,1.219-4.356,1.219
			c-1.106,0-1.891-0.069-2.423-0.14V291.161z M388.882,298.865c0.183,0.043,0.477,0.043,0.742,0.043
			c1.934,0.014,3.194-1.051,3.194-3.307c0.014-1.961-1.135-2.997-2.97-2.997c-0.477,0-0.784,0.042-0.967,0.084V298.865z"/>
		<path style="fill:#FFFFFF;" d="M398.613,291.035v5.436c0,1.625,0.616,2.451,1.709,2.451c1.12,0,1.736-0.784,1.736-2.451v-5.436
			h2.13v5.295c0,2.914-1.471,4.301-3.937,4.301c-2.381,0-3.782-1.317-3.782-4.328v-5.268H398.613z"/>
		<path style="fill:#FFFFFF;" d="M407.852,292.828h-2.535v-1.793h7.256v1.793h-2.577v7.648h-2.144V292.828z"/>
		<path style="fill:#FFFFFF;" d="M421.941,295.658c0,3.096-1.877,4.973-4.637,4.973c-2.802,0-4.44-2.115-4.44-4.805
			c0-2.83,1.807-4.944,4.595-4.944C420.358,290.882,421.941,293.053,421.941,295.658z M415.119,295.784
			c0,1.849,0.869,3.151,2.298,3.151c1.442,0,2.269-1.373,2.269-3.208c0-1.694-0.812-3.151-2.283-3.151
			C415.96,292.576,415.119,293.949,415.119,295.784z"/>
		<path style="fill:#FFFFFF;" d="M423.406,298.277c0.574,0.294,1.457,0.588,2.367,0.588c0.981,0,1.499-0.406,1.499-1.022
			c0-0.588-0.448-0.924-1.583-1.33c-1.568-0.547-2.591-1.415-2.591-2.788c0-1.61,1.345-2.843,3.571-2.843
			c1.065,0,1.85,0.224,2.41,0.476l-0.477,1.723c-0.378-0.182-1.051-0.447-1.976-0.447c-0.924,0-1.372,0.42-1.372,0.91
			c0,0.603,0.532,0.868,1.751,1.33c1.667,0.617,2.451,1.485,2.451,2.816c0,1.582-1.219,2.927-3.811,2.927
			c-1.078,0-2.143-0.279-2.675-0.574L423.406,298.277z"/>
		<path style="fill:#FFFFFF;" d="M430,302.144c0.434-1.247,0.812-2.703,1.008-3.979l2.172-0.14
			c-0.463,1.429-1.093,2.899-1.766,3.992L430,302.144z"/>
		<path style="fill:#FFFFFF;" d="M115.981,315.078c0.574,0.294,1.457,0.588,2.367,0.588c0.98,0,1.499-0.406,1.499-1.022
			c0-0.588-0.448-0.924-1.583-1.33c-1.569-0.547-2.591-1.415-2.591-2.788c0-1.61,1.345-2.843,3.572-2.843
			c1.064,0,1.849,0.224,2.409,0.476l-0.476,1.723c-0.378-0.182-1.051-0.447-1.975-0.447s-1.373,0.42-1.373,0.91
			c0,0.603,0.532,0.868,1.751,1.33c1.667,0.617,2.451,1.485,2.451,2.816c0,1.582-1.219,2.927-3.81,2.927
			c-1.079,0-2.143-0.279-2.675-0.574L115.981,315.078z"/>
		<path style="fill:#FFFFFF;" d="M129.088,313.285h-3.474v2.241h3.88v1.751h-6.023v-9.441h5.827v1.751h-3.684v1.961h3.474V313.285z"
			/>
		<path style="fill:#FFFFFF;" d="M130.947,307.962c0.687-0.111,1.709-0.195,2.844-0.195c1.401,0,2.381,0.21,3.054,0.742
			c0.56,0.448,0.868,1.106,0.868,1.975c0,1.205-0.854,2.031-1.667,2.325v0.042c0.658,0.267,1.022,0.896,1.261,1.766
			c0.294,1.064,0.588,2.297,0.77,2.661h-2.185c-0.154-0.267-0.378-1.036-0.658-2.199c-0.252-1.177-0.659-1.499-1.527-1.513h-0.645
			v3.712h-2.115V307.962z M133.062,312.025h0.84c1.065,0,1.695-0.532,1.695-1.358c0-0.869-0.588-1.303-1.569-1.317
			c-0.519,0-0.812,0.042-0.967,0.07V312.025z"/>
		<path style="fill:#FFFFFF;" d="M141.392,317.277l-3.026-9.441h2.339l1.148,3.992c0.322,1.121,0.617,2.199,0.841,3.376h0.042
			c0.238-1.135,0.532-2.255,0.854-3.334l1.205-4.034h2.269l-3.18,9.441H141.392z"/>
		<path style="fill:#FFFFFF;" d="M150.212,307.836v9.441h-2.144v-9.441H150.212z"/>
		<path style="fill:#FFFFFF;" d="M158.992,317.011c-0.378,0.183-1.191,0.393-2.255,0.406l-0.238,0.477
			c0.546,0.126,1.023,0.49,1.023,1.148c0,0.967-0.869,1.289-1.667,1.289c-0.42,0-0.883-0.084-1.205-0.267l0.28-0.868
			c0.21,0.112,0.532,0.196,0.785,0.196c0.28,0,0.504-0.098,0.504-0.336c0-0.295-0.322-0.448-1.107-0.532l0.532-1.163
			c-2.661-0.351-4.02-2.241-4.02-4.664c0-3.222,2.297-5.015,5.155-5.015c1.106,0,1.947,0.224,2.325,0.42l-0.434,1.694
			c-0.434-0.182-1.037-0.35-1.793-0.35c-1.695,0-3.012,1.022-3.012,3.123c0,1.892,1.121,3.082,3.026,3.082
			c0.644,0,1.358-0.14,1.779-0.308L158.992,317.011z"/>
		<path style="fill:#FFFFFF;" d="M168.611,312.459c0,3.096-1.877,4.973-4.637,4.973c-2.801,0-4.44-2.115-4.44-4.805
			c0-2.83,1.807-4.944,4.595-4.944C167.028,307.683,168.611,309.854,168.611,312.459z M161.789,312.585
			c0,1.849,0.868,3.151,2.297,3.151c1.443,0,2.27-1.373,2.27-3.208c0-1.694-0.812-3.151-2.283-3.151
			C162.629,309.377,161.789,310.75,161.789,312.585z"/>
		<path style="fill:#FFFFFF;" d="M170.076,315.078c0.574,0.294,1.457,0.588,2.367,0.588c0.98,0,1.499-0.406,1.499-1.022
			c0-0.588-0.448-0.924-1.583-1.33c-1.569-0.547-2.591-1.415-2.591-2.788c0-1.61,1.345-2.843,3.572-2.843
			c1.064,0,1.849,0.224,2.409,0.476l-0.476,1.723c-0.378-0.182-1.051-0.447-1.975-0.447s-1.373,0.42-1.373,0.91
			c0,0.603,0.532,0.868,1.75,1.33c1.667,0.617,2.452,1.485,2.452,2.816c0,1.582-1.219,2.927-3.81,2.927
			c-1.079,0-2.143-0.279-2.676-0.574L170.076,315.078z"/>
		<path style="fill:#FFFFFF;" d="M186.011,313.285h-3.474v2.241h3.88v1.751h-6.023v-9.441h5.827v1.751h-3.684v1.961h3.474V313.285z"
			/>
		<path style="fill:#FFFFFF;" d="M199.341,312.459c0,3.096-1.877,4.973-4.637,4.973c-2.801,0-4.44-2.115-4.44-4.805
			c0-2.83,1.807-4.944,4.595-4.944C197.758,307.683,199.341,309.854,199.341,312.459z M192.52,312.585
			c0,1.849,0.868,3.151,2.297,3.151c1.443,0,2.27-1.373,2.27-3.208c0-1.694-0.812-3.151-2.283-3.151
			C193.36,309.377,192.52,310.75,192.52,312.585z"/>
		<path style="fill:#FFFFFF;" d="M200.736,307.836h5.771v1.751h-3.628v2.157h3.39v1.737h-3.39v3.796h-2.144V307.836z"/>
		<path style="fill:#FFFFFF;" d="M213.732,313.285h-3.474v2.241h3.88v1.751h-6.023v-9.441h5.827v1.751h-3.684v1.961h3.474V313.285z"
			/>
		<path style="fill:#FFFFFF;" d="M215.59,307.962c0.687-0.111,1.709-0.195,2.844-0.195c1.401,0,2.381,0.21,3.054,0.742
			c0.56,0.448,0.868,1.106,0.868,1.975c0,1.205-0.854,2.031-1.667,2.325v0.042c0.658,0.267,1.022,0.896,1.261,1.766
			c0.294,1.064,0.588,2.297,0.77,2.661h-2.185c-0.154-0.267-0.378-1.036-0.658-2.199c-0.252-1.177-0.659-1.499-1.527-1.513h-0.645
			v3.712h-2.115V307.962z M217.706,312.025h0.84c1.065,0,1.695-0.532,1.695-1.358c0-0.869-0.588-1.303-1.569-1.317
			c-0.519,0-0.812,0.042-0.967,0.07V312.025z"/>
		<path style="fill:#FFFFFF;" d="M225.713,309.629h-2.536v-1.793h7.256v1.793h-2.577v7.648h-2.143V309.629z"/>
		<path style="fill:#FFFFFF;" d="M232.755,314.855l-0.672,2.423h-2.213l2.885-9.441h2.802l2.927,9.441h-2.297l-0.729-2.423H232.755z
			 M235.151,313.257l-0.588-2.003c-0.168-0.561-0.336-1.261-0.476-1.82h-0.028c-0.14,0.56-0.28,1.274-0.434,1.82l-0.561,2.003
			H235.151z"/>
		<path style="fill:#FFFFFF;" d="M239.811,315.078c0.574,0.294,1.457,0.588,2.367,0.588c0.98,0,1.499-0.406,1.499-1.022
			c0-0.588-0.448-0.924-1.583-1.33c-1.569-0.547-2.591-1.415-2.591-2.788c0-1.61,1.345-2.843,3.572-2.843
			c1.064,0,1.849,0.224,2.409,0.476l-0.476,1.723c-0.378-0.182-1.051-0.447-1.975-0.447s-1.373,0.42-1.373,0.91
			c0,0.603,0.532,0.868,1.75,1.33c1.667,0.617,2.452,1.485,2.452,2.816c0,1.582-1.219,2.927-3.81,2.927
			c-1.079,0-2.143-0.279-2.676-0.574L239.811,315.078z"/>
		<path style="fill:#FFFFFF;" d="M258.015,316.843c-0.658,0.225-1.905,0.532-3.151,0.532c-1.723,0-2.97-0.434-3.838-1.274
			c-0.868-0.812-1.345-2.045-1.331-3.432c0.014-3.138,2.297-4.931,5.393-4.931c1.219,0,2.157,0.238,2.619,0.462l-0.448,1.709
			c-0.518-0.224-1.163-0.406-2.199-0.406c-1.779,0-3.124,1.009-3.124,3.054c0,1.947,1.219,3.096,2.97,3.096
			c0.49,0,0.882-0.056,1.05-0.14v-1.976h-1.457v-1.667h3.516V316.843z"/>
		<path style="fill:#FFFFFF;" d="M261.876,314.855l-0.672,2.423h-2.213l2.885-9.441h2.802l2.928,9.441h-2.297l-0.729-2.423H261.876z
			 M264.271,313.257l-0.588-2.003c-0.168-0.561-0.336-1.261-0.476-1.82h-0.028c-0.14,0.56-0.28,1.274-0.434,1.82l-0.561,2.003
			H264.271z"/>
		<path style="fill:#FFFFFF;" d="M268.861,307.962c0.687-0.111,1.709-0.195,2.843-0.195c1.401,0,2.382,0.21,3.054,0.742
			c0.561,0.448,0.869,1.106,0.869,1.975c0,1.205-0.854,2.031-1.667,2.325v0.042c0.658,0.267,1.022,0.896,1.261,1.766
			c0.294,1.064,0.588,2.297,0.771,2.661h-2.186c-0.154-0.267-0.378-1.036-0.658-2.199c-0.252-1.177-0.658-1.499-1.527-1.513h-0.644
			v3.712h-2.115V307.962z M270.976,312.025h0.84c1.064,0,1.695-0.532,1.695-1.358c0-0.869-0.589-1.303-1.569-1.317
			c-0.518,0-0.812,0.042-0.966,0.07V312.025z"/>
		<path style="fill:#FFFFFF;" d="M279.488,314.855l-0.673,2.423h-2.213l2.886-9.441h2.801l2.928,9.441h-2.297l-0.729-2.423H279.488z
			 M281.882,313.257l-0.588-2.003c-0.168-0.561-0.336-1.261-0.477-1.82h-0.027c-0.141,0.56-0.28,1.274-0.435,1.82l-0.561,2.003
			H281.882z"/>
		<path style="fill:#FFFFFF;" d="M286.472,317.277v-9.441h2.493l1.961,3.46c0.561,0.995,1.12,2.171,1.541,3.236h0.042
			c-0.141-1.247-0.183-2.521-0.183-3.937v-2.76h1.962v9.441h-2.242l-2.017-3.642c-0.561-1.009-1.177-2.228-1.639-3.334l-0.042,0.014
			c0.056,1.247,0.084,2.577,0.084,4.118v2.844H286.472z"/>
		<path style="fill:#FFFFFF;" d="M297.953,309.629h-2.535v-1.793h7.256v1.793h-2.577v7.648h-2.144V309.629z"/>
		<path style="fill:#FFFFFF;" d="M305.947,307.836v9.441h-2.143v-9.441H305.947z"/>
		<path style="fill:#FFFFFF;" d="M307.794,317.277v-9.441h2.493l1.961,3.46c0.561,0.995,1.12,2.171,1.541,3.236h0.042
			c-0.141-1.247-0.183-2.521-0.183-3.937v-2.76h1.962v9.441h-2.242l-2.017-3.642c-0.561-1.009-1.177-2.228-1.639-3.334l-0.042,0.014
			c0.056,1.247,0.084,2.577,0.084,4.118v2.844H307.794z"/>
		<path style="fill:#FFFFFF;" d="M317.455,307.962c0.784-0.126,1.807-0.195,2.885-0.195c1.793,0,2.956,0.321,3.866,1.008
			c0.98,0.729,1.598,1.892,1.598,3.559c0,1.807-0.659,3.054-1.569,3.823c-0.994,0.827-2.507,1.219-4.356,1.219
			c-1.106,0-1.891-0.069-2.423-0.14V307.962z M319.597,315.666c0.183,0.043,0.477,0.043,0.742,0.043
			c1.934,0.014,3.194-1.051,3.194-3.307c0.014-1.961-1.135-2.997-2.97-2.997c-0.477,0-0.784,0.042-0.967,0.084V315.666z"/>
		<path style="fill:#FFFFFF;" d="M335.841,312.459c0,3.096-1.877,4.973-4.637,4.973c-2.802,0-4.44-2.115-4.44-4.805
			c0-2.83,1.807-4.944,4.595-4.944C334.258,307.683,335.841,309.854,335.841,312.459z M329.019,312.585
			c0,1.849,0.869,3.151,2.298,3.151c1.442,0,2.269-1.373,2.269-3.208c0-1.694-0.812-3.151-2.283-3.151
			C329.86,309.377,329.019,310.75,329.019,312.585z"/>
		<path style="fill:#FFFFFF;" d="M348.708,312.459c0,3.096-1.877,4.973-4.637,4.973c-2.802,0-4.44-2.115-4.44-4.805
			c0-2.83,1.807-4.944,4.595-4.944C347.125,307.683,348.708,309.854,348.708,312.459z M341.885,312.585
			c0,1.849,0.869,3.151,2.298,3.151c1.442,0,2.269-1.373,2.269-3.208c0-1.694-0.812-3.151-2.283-3.151
			C342.726,309.377,341.885,310.75,341.885,312.585z"/>
		<path style="fill:#FFFFFF;" d="M352.931,307.836h5.771v1.751h-3.628v2.157h3.39v1.737h-3.39v3.796h-2.143V307.836z"/>
		<path style="fill:#FFFFFF;" d="M368.952,312.459c0,3.096-1.877,4.973-4.637,4.973c-2.802,0-4.44-2.115-4.44-4.805
			c0-2.83,1.807-4.944,4.595-4.944C367.369,307.683,368.952,309.854,368.952,312.459z M362.129,312.585
			c0,1.849,0.869,3.151,2.298,3.151c1.442,0,2.269-1.373,2.269-3.208c0-1.694-0.812-3.151-2.283-3.151
			C362.97,309.377,362.129,310.75,362.129,312.585z"/>
		<path style="fill:#FFFFFF;" d="M377.281,317.011c-0.393,0.196-1.274,0.406-2.424,0.406c-3.264,0-4.944-2.03-4.944-4.72
			c0-3.222,2.297-5.015,5.155-5.015c1.106,0,1.946,0.224,2.325,0.42l-0.435,1.694c-0.435-0.182-1.037-0.35-1.793-0.35
			c-1.695,0-3.012,1.022-3.012,3.123c0,1.892,1.121,3.082,3.025,3.082c0.645,0,1.359-0.14,1.779-0.308L377.281,317.011z"/>
		<path style="fill:#FFFFFF;" d="M386.9,312.459c0,3.096-1.877,4.973-4.637,4.973c-2.802,0-4.44-2.115-4.44-4.805
			c0-2.83,1.807-4.944,4.595-4.944C385.317,307.683,386.9,309.854,386.9,312.459z M380.078,312.585c0,1.849,0.869,3.151,2.298,3.151
			c1.442,0,2.269-1.373,2.269-3.208c0-1.694-0.812-3.151-2.283-3.151C380.919,309.377,380.078,310.75,380.078,312.585z"/>
		<path style="fill:#FFFFFF;" d="M391.124,317.277v-9.441h2.493l1.961,3.46c0.561,0.995,1.121,2.171,1.541,3.236h0.042
			c-0.141-1.247-0.183-2.521-0.183-3.937v-2.76h1.961v9.441h-2.24l-2.018-3.642c-0.561-1.009-1.177-2.228-1.639-3.334l-0.042,0.014
			c0.056,1.247,0.084,2.577,0.084,4.118v2.844H391.124z"/>
		<path style="fill:#FFFFFF;" d="M402.983,314.855l-0.673,2.423h-2.213l2.886-9.441h2.801l2.928,9.441h-2.297l-0.729-2.423H402.983z
			 M405.378,313.257l-0.588-2.003c-0.168-0.561-0.336-1.261-0.477-1.82h-0.027c-0.141,0.56-0.28,1.274-0.435,1.82l-0.561,2.003
			H405.378z"/>
		<path style="fill:#FFFFFF;" d="M420.78,313.663c-0.042-1.135-0.084-2.507-0.084-3.88h-0.042c-0.295,1.205-0.687,2.55-1.051,3.656
			l-1.148,3.684h-1.667l-1.009-3.656c-0.309-1.106-0.631-2.451-0.854-3.684h-0.028c-0.056,1.274-0.098,2.731-0.168,3.908
			l-0.168,3.586h-1.975l0.602-9.441h2.844l0.925,3.152c0.294,1.092,0.588,2.269,0.798,3.375h0.042
			c0.267-1.092,0.589-2.339,0.896-3.39l1.009-3.138h2.788l0.518,9.441h-2.087L420.78,313.663z"/>
		<path style="fill:#FFFFFF;" d="M430.256,313.285h-3.475v2.241h3.88v1.751h-6.022v-9.441h5.827v1.751h-3.685v1.961h3.475V313.285z"
			/>
		<path style="fill:#FFFFFF;" d="M432.115,307.836h2.143v7.648h3.754v1.793h-5.896V307.836z"/>
		<path style="fill:#FFFFFF;" d="M441.412,307.836v3.628h3.517v-3.628h2.129v9.441h-2.129v-3.95h-3.517v3.95h-2.143v-9.441H441.412z
			"/>
		<path style="fill:#FFFFFF;" d="M457.557,312.459c0,3.096-1.877,4.973-4.637,4.973c-2.802,0-4.44-2.115-4.44-4.805
			c0-2.83,1.807-4.944,4.595-4.944C455.974,307.683,457.557,309.854,457.557,312.459z M450.735,312.585
			c0,1.849,0.869,3.151,2.298,3.151c1.442,0,2.269-1.373,2.269-3.208c0-1.694-0.812-3.151-2.283-3.151
			C451.576,309.377,450.735,310.75,450.735,312.585z"/>
		<path style="fill:#FFFFFF;" d="M458.953,307.962c0.687-0.111,1.709-0.195,2.843-0.195c1.401,0,2.382,0.21,3.054,0.742
			c0.561,0.448,0.869,1.106,0.869,1.975c0,1.205-0.854,2.031-1.667,2.325v0.042c0.658,0.267,1.022,0.896,1.261,1.766
			c0.294,1.064,0.588,2.297,0.771,2.661h-2.186c-0.154-0.267-0.378-1.036-0.658-2.199c-0.252-1.177-0.658-1.499-1.527-1.513h-0.644
			v3.712h-2.115V307.962z M461.068,312.025h0.84c1.064,0,1.695-0.532,1.695-1.358c0-0.869-0.589-1.303-1.569-1.317
			c-0.518,0-0.812,0.042-0.966,0.07V312.025z"/>
		<path style="fill:#FFFFFF;" d="M121.528,330.085h-3.474v2.241h3.88v1.751h-6.023v-9.441h5.827v1.751h-3.684v1.961h3.474V330.085z"
			/>
		<path style="fill:#FFFFFF;" d="M128.359,334.077l-0.854-1.709c-0.35-0.658-0.574-1.148-0.84-1.695h-0.028
			c-0.196,0.547-0.434,1.037-0.729,1.695l-0.784,1.709h-2.438l2.731-4.776l-2.633-4.665h2.451l0.827,1.724
			c0.28,0.574,0.49,1.036,0.714,1.568h0.028c0.224-0.603,0.406-1.022,0.645-1.568l0.798-1.724h2.438l-2.662,4.608l2.801,4.833
			H128.359z"/>
		<path style="fill:#FFFFFF;" d="M131.969,324.762c0.659-0.111,1.583-0.195,2.886-0.195c1.317,0,2.255,0.252,2.886,0.756
			c0.602,0.477,1.008,1.261,1.008,2.186c0,0.924-0.308,1.709-0.869,2.241c-0.728,0.687-1.807,0.994-3.067,0.994
			c-0.28,0-0.532-0.014-0.729-0.042v3.376h-2.115V324.762z M134.084,329.049c0.182,0.042,0.406,0.056,0.714,0.056
			c1.135,0,1.835-0.574,1.835-1.541c0-0.868-0.602-1.387-1.667-1.387c-0.435,0-0.729,0.042-0.883,0.084V329.049z"/>
		<path style="fill:#FFFFFF;" d="M145.72,330.085h-3.474v2.241h3.88v1.751h-6.023v-9.441h5.827v1.751h-3.684v1.961h3.474V330.085z"
			/>
		<path style="fill:#FFFFFF;" d="M147.579,324.762c0.687-0.111,1.709-0.195,2.844-0.195c1.401,0,2.381,0.21,3.054,0.742
			c0.56,0.448,0.868,1.106,0.868,1.975c0,1.205-0.854,2.031-1.667,2.325v0.042c0.658,0.267,1.022,0.896,1.261,1.766
			c0.294,1.064,0.588,2.297,0.77,2.661h-2.185c-0.154-0.267-0.378-1.036-0.658-2.199c-0.252-1.177-0.659-1.499-1.527-1.513h-0.645
			v3.712h-2.115V324.762z M149.694,328.824h0.84c1.065,0,1.695-0.532,1.695-1.358c0-0.869-0.588-1.303-1.569-1.317
			c-0.519,0-0.812,0.042-0.967,0.07V328.824z"/>
		<path style="fill:#FFFFFF;" d="M158.024,324.636v9.441h-2.144v-9.441H158.024z"/>
		<path style="fill:#FFFFFF;" d="M165.487,330.085h-3.474v2.241h3.88v1.751h-6.023v-9.441h5.827v1.751h-3.684v1.961h3.474V330.085z
			 M163.638,322.409l1.429,1.723h-1.499l-0.714-0.868h-0.028l-0.7,0.868h-1.485l1.401-1.723H163.638z"/>
		<path style="fill:#FFFFFF;" d="M167.346,334.077v-9.441h2.494l1.961,3.46c0.561,0.995,1.121,2.172,1.541,3.236h0.042
			c-0.14-1.247-0.182-2.521-0.182-3.937v-2.76h1.961v9.441h-2.241l-2.017-3.642c-0.561-1.009-1.177-2.228-1.639-3.334l-0.042,0.014
			c0.056,1.247,0.084,2.577,0.084,4.118v2.844H167.346z"/>
		<path style="fill:#FFFFFF;" d="M183.94,333.811c-0.393,0.196-1.275,0.406-2.423,0.406c-3.264,0-4.945-2.03-4.945-4.72
			c0-3.222,2.297-5.015,5.155-5.015c1.106,0,1.947,0.224,2.325,0.42l-0.434,1.694c-0.434-0.182-1.037-0.35-1.793-0.35
			c-1.695,0-3.012,1.022-3.012,3.124c0,1.891,1.121,3.081,3.026,3.081c0.644,0,1.358-0.14,1.779-0.308L183.94,333.811z"/>
		<path style="fill:#FFFFFF;" d="M187.479,324.636v9.441h-2.144v-9.441H187.479z"/>
		<path style="fill:#FFFFFF;" d="M191.524,331.654l-0.672,2.423h-2.213l2.885-9.441h2.802l2.928,9.441h-2.297l-0.729-2.423H191.524z
			 M193.92,330.057l-0.588-2.003c-0.168-0.561-0.336-1.261-0.476-1.821h-0.028c-0.14,0.561-0.28,1.275-0.434,1.821l-0.561,2.003
			H193.92z"/>
		<path style="fill:#FFFFFF;" d="M201.337,324.762c0.659-0.111,1.583-0.195,2.886-0.195c1.317,0,2.255,0.252,2.886,0.756
			c0.602,0.477,1.008,1.261,1.008,2.186c0,0.924-0.308,1.709-0.868,2.241c-0.729,0.687-1.807,0.994-3.068,0.994
			c-0.28,0-0.532-0.014-0.729-0.042v3.376h-2.115V324.762z M203.453,329.049c0.182,0.042,0.406,0.056,0.714,0.056
			c1.135,0,1.835-0.574,1.835-1.541c0-0.868-0.602-1.387-1.667-1.387c-0.434,0-0.728,0.042-0.882,0.084V329.049z"/>
		<path style="fill:#FFFFFF;" d="M210.831,331.654l-0.672,2.423h-2.213l2.885-9.441h2.802l2.927,9.441h-2.297l-0.729-2.423H210.831z
			 M213.226,330.057l-0.588-2.003c-0.168-0.561-0.336-1.261-0.476-1.821h-0.028c-0.14,0.561-0.28,1.275-0.434,1.821l-0.561,2.003
			H213.226z"/>
		<path style="fill:#FFFFFF;" d="M217.815,324.762c0.687-0.111,1.709-0.195,2.844-0.195c1.401,0,2.381,0.21,3.054,0.742
			c0.56,0.448,0.868,1.106,0.868,1.975c0,1.205-0.854,2.031-1.667,2.325v0.042c0.658,0.267,1.022,0.896,1.26,1.766
			c0.294,1.064,0.588,2.297,0.771,2.661h-2.185c-0.154-0.267-0.378-1.036-0.658-2.199c-0.252-1.177-0.659-1.499-1.527-1.513h-0.645
			v3.712h-2.115V324.762z M219.931,328.824h0.84c1.065,0,1.695-0.532,1.695-1.358c0-0.869-0.588-1.303-1.569-1.317
			c-0.519,0-0.812,0.042-0.967,0.07V328.824z"/>
		<path style="fill:#FFFFFF;" d="M228.442,331.654l-0.672,2.423h-2.213l2.885-9.441h2.802l2.927,9.441h-2.297l-0.729-2.423H228.442z
			 M230.837,330.057l-0.588-2.003c-0.168-0.561-0.336-1.261-0.476-1.821h-0.028c-0.14,0.561-0.28,1.275-0.434,1.821l-0.561,2.003
			H230.837z"/>
		<path style="fill:#FFFFFF;" d="M246.898,329.259c0,3.096-1.877,4.973-4.637,4.973c-2.801,0-4.44-2.115-4.44-4.805
			c0-2.83,1.807-4.944,4.595-4.944C245.315,324.483,246.898,326.653,246.898,329.259z M240.076,329.385
			c0,1.849,0.868,3.151,2.297,3.151c1.443,0,2.27-1.372,2.27-3.208c0-1.694-0.812-3.151-2.283-3.151
			C240.917,326.177,240.076,327.55,240.076,329.385z"/>
		<path style="fill:#FFFFFF;" d="M258.055,333.811c-0.393,0.196-1.275,0.406-2.423,0.406c-3.264,0-4.945-2.03-4.945-4.72
			c0-3.222,2.297-5.015,5.155-5.015c1.106,0,1.947,0.224,2.325,0.42l-0.434,1.694c-0.434-0.182-1.037-0.35-1.793-0.35
			c-1.695,0-3.012,1.022-3.012,3.124c0,1.891,1.121,3.081,3.026,3.081c0.644,0,1.358-0.14,1.779-0.308L258.055,333.811z"/>
		<path style="fill:#FFFFFF;" d="M259.451,324.636h2.144v7.648h3.754v1.793h-5.897V324.636z"/>
		<path style="fill:#FFFFFF;" d="M268.749,324.636v9.441h-2.144v-9.441H268.749z"/>
		<path style="fill:#FFFFFF;" d="M276.213,330.085h-3.475v2.241h3.88v1.751h-6.022v-9.441h5.827v1.751h-3.685v1.961h3.475V330.085z"
			/>
		<path style="fill:#FFFFFF;" d="M278.072,334.077v-9.441h2.493l1.961,3.46c0.561,0.995,1.12,2.172,1.541,3.236h0.042
			c-0.141-1.247-0.183-2.521-0.183-3.937v-2.76h1.962v9.441h-2.242l-2.017-3.642c-0.561-1.009-1.177-2.228-1.639-3.334l-0.042,0.014
			c0.056,1.247,0.084,2.577,0.084,4.118v2.844H278.072z"/>
		<path style="fill:#FFFFFF;" d="M289.552,326.429h-2.535v-1.793h7.256v1.793h-2.577v7.648h-2.144V326.429z"/>
		<path style="fill:#FFFFFF;" d="M301.021,330.085h-3.475v2.241h3.881v1.751h-6.023v-9.441h5.827v1.751h-3.685v1.961h3.475V330.085z
			"/>
		<path style="fill:#FFFFFF;" d="M302.543,332.942c0-0.756,0.519-1.303,1.261-1.303s1.247,0.532,1.247,1.303
			c0,0.742-0.505,1.289-1.261,1.289C303.061,334.232,302.543,333.685,302.543,332.942z"/>
	</g>
</g>
<g id="Layer_1">
</g>
</svg>
