<?xml version="1.0" encoding="iso-8859-1"?>
<!-- Generator: Adobe Illustrator 18.0.0, SVG Export Plug-In . SVG Version: 6.00 Build 0)  -->
<!DOCTYPE svg PUBLIC "-//W3C//DTD SVG 1.1//EN" "http://www.w3.org/Graphics/SVG/1.1/DTD/svg11.dtd">
<svg version="1.1" xmlns="http://www.w3.org/2000/svg" xmlns:xlink="http://www.w3.org/1999/xlink" x="0px" y="0px"
	 viewBox="0 0 531.453 494.191" style="enable-background:new 0 0 531.453 494.191;" xml:space="preserve">
<g id="page13-4">
	<g>
		
			<polygon style="fill:none;stroke:#000000;stroke-width:3.6793;stroke-linecap:round;stroke-linejoin:round;stroke-miterlimit:10;" points="
			43.446,14.904 69.635,406.333 475.632,438.052 529.613,82.648 		"/>
		<polygon style="opacity:0.8;fill:#E92325;" points="100.919,49.06 83.146,447.249 518.153,405.508 454.366,31.542 		"/>
		<polygon style="fill:#03B9DB;" points="23.262,106.379 387.98,82.648 390.61,211.407 20.388,285.052 		"/>
		
			<polyline style="fill:none;stroke:#000000;stroke-width:3.6793;stroke-linecap:round;stroke-linejoin:round;stroke-miterlimit:10;" points="
			45.65,296.379 1.84,305.543 4.782,122.591 		"/>
		<g>
			<g>
				<g>
					
						<line style="fill:none;stroke:#000000;stroke-width:3.6793;stroke-linecap:round;stroke-linejoin:round;stroke-miterlimit:10;" x1="20.388" y1="335.586" x2="43.803" y2="335.586"/>
					
						<line style="fill:none;stroke:#000000;stroke-width:3.6793;stroke-linecap:round;stroke-linejoin:round;stroke-miterlimit:10;" x1="32.095" y1="323.878" x2="32.095" y2="347.293"/>
				</g>
				<g>
					
						<line style="fill:none;stroke:#000000;stroke-width:3.6793;stroke-linecap:round;stroke-linejoin:round;stroke-miterlimit:10;" x1="274.822" y1="453.476" x2="298.237" y2="453.476"/>
					
						<line style="fill:none;stroke:#000000;stroke-width:3.6793;stroke-linecap:round;stroke-linejoin:round;stroke-miterlimit:10;" x1="286.53" y1="441.769" x2="286.53" y2="465.184"/>
				</g>
				
					<path style="fill:none;stroke:#000000;stroke-width:3.6793;stroke-linecap:round;stroke-linejoin:round;stroke-miterlimit:10;" d="
					M503.274,13.043c8.685,13.564-5.72,27.969-19.284,19.284c-0.931-0.596-1.73-1.395-2.325-2.326
					c-8.681-13.563,5.721-27.965,19.283-19.283C501.879,11.313,502.678,12.112,503.274,13.043z"/>
				<g>
					
						<line style="fill:none;stroke:#000000;stroke-width:3.6793;stroke-linecap:round;stroke-linejoin:round;stroke-miterlimit:10;" x1="211.98" y1="1.84" x2="298.237" y2="1.84"/>
					
						<line style="fill:none;stroke:#000000;stroke-width:3.6793;stroke-linecap:round;stroke-linejoin:round;stroke-miterlimit:10;" x1="264.348" y1="21.523" x2="319.935" y2="21.523"/>
				</g>
				
					<path style="fill:none;stroke:#000000;stroke-width:3.6793;stroke-linecap:round;stroke-linejoin:round;stroke-miterlimit:10;" d="
					M216.304,470.431c8.681,13.563-5.721,27.965-19.283,19.283c-0.931-0.596-1.73-1.395-2.326-2.325
					c-8.685-13.564,5.72-27.969,19.284-19.284C214.91,468.702,215.709,469.501,216.304,470.431z"/>
			</g>
		</g>
		<g>
			<path style="fill:#FFFFFF;" d="M78.232,203.521c-1.54,0.821-4.505,2.09-7.594,2.595c-4.27,0.698-7.534,0.127-10.027-1.604
				c-2.48-1.662-4.16-4.523-4.688-7.966c-1.236-7.781,3.695-13.149,11.366-14.403c3.02-0.494,5.442-0.283,6.679,0.085l-0.419,4.416
				c-1.375-0.345-3.046-0.536-5.614-0.116c-4.408,0.721-7.332,3.764-6.504,8.833c0.789,4.824,4.274,7.177,8.613,6.468
				c1.215-0.199,2.164-0.497,2.547-0.772l-0.801-4.895l-3.609,0.59l-0.676-4.131l8.713-1.424L78.232,203.521z"/>
			<path style="fill:#FFFFFF;" d="M83.992,179.663l2.201,13.469c0.658,4.025,2.521,5.824,5.229,5.381
				c2.776-0.454,3.986-2.647,3.311-6.777l-2.201-13.469l5.275-0.862l2.146,13.121c1.18,7.221-1.903,11.252-8.013,12.25
				c-5.9,0.965-9.904-1.73-11.125-9.193l-2.133-13.052L83.992,179.663z"/>
			<path style="fill:#FFFFFF;" d="M107.7,175.787l3.824,23.396l-5.311,0.868l-3.824-23.396L107.7,175.787z"/>
			<path style="fill:#FFFFFF;" d="M112.334,175.352c1.893-0.631,4.398-1.219,7.07-1.656c4.443-0.726,7.455-0.397,9.99,0.934
				c2.725,1.407,4.722,4.04,5.396,8.169c0.732,4.478-0.394,7.834-2.337,10.112c-2.131,2.451-5.72,4.035-10.302,4.784
				c-2.743,0.449-4.714,0.592-6.062,0.634L112.334,175.352z M120.764,193.573c0.47,0.031,1.198-0.088,1.857-0.196
				c4.796-0.749,7.489-3.897,6.575-9.485c-0.76-4.866-4.025-6.969-8.573-6.226c-1.18,0.193-1.927,0.422-2.361,0.6L120.764,193.573z"
				/>
			<path style="fill:#FFFFFF;" d="M152.569,182.317l-8.608,1.407l0.908,5.553l9.615-1.572l0.709,4.339l-14.926,2.44l-3.824-23.396
				l14.44-2.36l0.709,4.339l-9.13,1.492l0.795,4.86l8.608-1.407L152.569,182.317z"/>
			<path style="fill:#FFFFFF;" d="M154.979,168.059l5.311-0.868l3.099,18.952l9.303-1.521l0.727,4.443l-14.613,2.389
				L154.979,168.059z"/>
			<path style="fill:#FFFFFF;" d="M178.028,164.291l3.824,23.396l-5.31,0.868l-3.825-23.396L178.028,164.291z"/>
			<path style="fill:#FFFFFF;" d="M186.435,186.937l-3.824-23.396l6.179-1.01l6.261,7.78c1.791,2.237,3.656,4.926,5.129,7.394
				l0.104-0.017c-0.852-3.032-1.473-6.176-2.046-9.681l-1.118-6.839l4.859-0.794l3.825,23.396l-5.555,0.908l-6.474-8.208
				c-1.797-2.271-3.817-5.043-5.411-7.598l-0.099,0.052c0.644,3.067,1.252,6.353,1.877,10.171l1.151,7.046L186.435,186.937z"/>
			<path style="fill:#FFFFFF;" d="M222.688,170.855l-8.608,1.407l0.908,5.553l9.615-1.572l0.709,4.339l-14.926,2.44l-3.824-23.396
				l14.44-2.361l0.709,4.339l-9.13,1.493l0.795,4.86l8.608-1.407L222.688,170.855z"/>
			<path style="fill:#FFFFFF;" d="M228.206,174.514c1.543,0.496,3.849,0.867,6.104,0.498c2.43-0.397,3.549-1.613,3.3-3.14
				c-0.238-1.458-1.485-2.11-4.461-2.656c-4.109-0.719-6.995-2.457-7.552-5.859c-0.652-3.99,2.181-7.591,7.7-8.493
				c2.638-0.431,4.673-0.192,6.163,0.205l-0.482,4.462c-1.011-0.298-2.785-0.686-5.075-0.311c-2.291,0.375-3.231,1.598-3.033,2.813
				c0.244,1.492,1.671,1.936,4.878,2.589c4.381,0.851,6.676,2.686,7.215,5.983c0.641,3.923-1.834,7.747-8.255,8.797
				c-2.674,0.438-5.425,0.175-6.862-0.338L228.206,174.514z"/>
			<path style="fill:#FFFFFF;" d="M250.906,152.699c1.894-0.631,4.398-1.219,7.071-1.656c4.443-0.726,7.456-0.397,9.989,0.934
				c2.725,1.407,4.723,4.04,5.397,8.169c0.731,4.478-0.394,7.834-2.338,10.112c-2.13,2.451-5.72,4.036-10.301,4.784
				c-2.743,0.449-4.715,0.592-6.062,0.634L250.906,152.699z M259.338,170.921c0.469,0.031,1.197-0.088,1.856-0.196
				c4.796-0.749,7.489-3.897,6.576-9.485c-0.76-4.866-4.025-6.969-8.573-6.226c-1.18,0.192-1.927,0.422-2.361,0.599L259.338,170.921
				z"/>
			<path style="fill:#FFFFFF;" d="M291.142,159.665l-8.608,1.407l0.908,5.553l9.615-1.572l0.709,4.339l-14.926,2.439l-3.824-23.396
				l14.44-2.36l0.709,4.339l-9.13,1.493l0.795,4.86l8.608-1.407L291.142,159.665z"/>
			<path style="fill:#FFFFFF;" d="M321.464,164.188c-0.894,0.644-2.995,1.522-5.841,1.988c-8.088,1.322-13.075-3.03-14.165-9.695
				c-1.305-7.983,3.661-13.357,10.742-14.515c2.742-0.448,4.915-0.232,5.932,0.1l-0.39,4.376c-1.148-0.276-2.71-0.448-4.585-0.142
				c-4.198,0.687-7.048,3.753-6.196,8.961c0.766,4.686,4.024,7.182,8.745,6.41c1.597-0.261,3.311-0.897,4.283-1.484L321.464,164.188
				z"/>
			<path style="fill:#FFFFFF;" d="M337.47,162.248l-2.81-3.888c-1.135-1.49-1.889-2.614-2.77-3.86l-0.069,0.012
				c-0.265,1.433-0.656,2.744-1.118,4.495l-1.252,4.552l-6.04,0.987l4.834-12.942l-8.415-10.493l6.074-0.993l2.746,3.935
				c0.927,1.311,1.636,2.371,2.405,3.599l0.069-0.012c0.312-1.584,0.593-2.697,0.963-4.148l1.279-4.593l6.04-0.987l-4.729,12.499
				l8.899,10.84L337.47,162.248z"/>
		</g>
		<g>
			<path style="fill:#FFFFFF;" d="M120.878,281.73v6.986c0,2.089,0.792,3.15,2.197,3.15c1.44,0,2.232-1.008,2.232-3.15v-6.986h2.736
				v6.807c0,3.744-1.891,5.527-5.06,5.527c-3.061,0-4.861-1.692-4.861-5.563v-6.771H120.878z"/>
			<path style="fill:#FFFFFF;" d="M140.68,289.22c-0.055-1.458-0.108-3.223-0.108-4.987h-0.054
				c-0.379,1.549-0.883,3.277-1.351,4.699l-1.477,4.735h-2.143l-1.297-4.699c-0.396-1.423-0.81-3.151-1.098-4.735h-0.036
				c-0.072,1.639-0.126,3.511-0.216,5.023l-0.217,4.609h-2.538l0.773-12.136h3.655l1.188,4.052c0.378,1.404,0.756,2.916,1.026,4.339
				h0.054c0.343-1.404,0.757-3.007,1.152-4.357l1.297-4.033h3.583l0.666,12.136h-2.683L140.68,289.22z"/>
			<path style="fill:#FFFFFF;" d="M159.418,293.307c-0.847,0.288-2.449,0.685-4.051,0.685c-2.215,0-3.817-0.559-4.934-1.639
				c-1.116-1.044-1.729-2.629-1.711-4.411c0.019-4.033,2.953-6.338,6.933-6.338c1.566,0,2.772,0.306,3.366,0.595l-0.576,2.196
				c-0.666-0.288-1.494-0.522-2.826-0.522c-2.287,0-4.016,1.297-4.016,3.926c0,2.502,1.566,3.979,3.817,3.979
				c0.63,0,1.134-0.072,1.351-0.18v-2.539h-1.873v-2.143h4.52V293.307z"/>
			<path style="fill:#FFFFFF;" d="M164.294,281.73v6.986c0,2.089,0.792,3.15,2.196,3.15c1.44,0,2.232-1.008,2.232-3.15v-6.986h2.737
				v6.807c0,3.744-1.891,5.527-5.06,5.527c-3.062,0-4.861-1.692-4.861-5.563v-6.771H164.294z"/>
			<path style="fill:#FFFFFF;" d="M176.588,281.73v12.136h-2.755V281.73H176.588z"/>
			<path style="fill:#FFFFFF;" d="M181.789,290.75l-0.864,3.115h-2.845l3.709-12.136h3.602l3.763,12.136h-2.952l-0.937-3.115
				H181.789z M184.868,288.698l-0.756-2.574c-0.216-0.721-0.433-1.62-0.612-2.341h-0.036c-0.18,0.721-0.36,1.639-0.559,2.341
				l-0.72,2.574H184.868z"/>
			<path style="fill:#FFFFFF;" d="M204.777,295.955c-1.729-0.504-3.169-1.026-4.79-1.711c-0.27-0.107-0.558-0.162-0.846-0.18
				c-2.737-0.181-5.294-2.197-5.294-6.158c0-3.637,2.305-6.374,5.924-6.374c3.709,0,5.744,2.81,5.744,6.122
				c0,2.755-1.278,4.699-2.881,5.42v0.072c0.936,0.27,1.98,0.485,2.935,0.684L204.777,295.955z M202.616,287.762
				c0-2.215-1.044-4.052-2.917-4.052c-1.872,0-2.952,1.837-2.952,4.105c-0.019,2.305,1.098,4.069,2.935,4.069
				C201.536,291.885,202.616,290.138,202.616,287.762z"/>
			<path style="fill:#FFFFFF;" d="M210.049,281.73v6.986c0,2.089,0.792,3.15,2.196,3.15c1.44,0,2.232-1.008,2.232-3.15v-6.986h2.737
				v6.807c0,3.744-1.891,5.527-5.06,5.527c-3.062,0-4.861-1.692-4.861-5.563v-6.771H210.049z"/>
			<path style="fill:#FFFFFF;" d="M226.807,288.734h-4.465v2.881h4.987v2.251h-7.742V281.73h7.49v2.251h-4.735v2.521h4.465V288.734z
				"/>
			<path style="fill:#FFFFFF;" d="M235.59,281.73v12.136h-2.755V281.73H235.59z"/>
			<path style="fill:#FFFFFF;" d="M237.965,293.866V281.73h3.205l2.521,4.447c0.721,1.278,1.44,2.791,1.98,4.159h0.055
				c-0.181-1.603-0.234-3.241-0.234-5.06v-3.547h2.521v12.136h-2.881l-2.593-4.682c-0.72-1.296-1.512-2.862-2.106-4.285
				l-0.054,0.019c0.072,1.602,0.107,3.312,0.107,5.293v3.655H237.965z"/>
			<path style="fill:#FFFFFF;" d="M250.385,281.892c1.009-0.162,2.323-0.252,3.709-0.252c2.305,0,3.8,0.414,4.97,1.296
				c1.261,0.937,2.053,2.431,2.053,4.574c0,2.322-0.847,3.925-2.017,4.915c-1.278,1.062-3.223,1.566-5.6,1.566
				c-1.423,0-2.431-0.09-3.115-0.18V281.892z M253.139,291.795c0.234,0.054,0.612,0.054,0.954,0.054
				c2.485,0.018,4.105-1.351,4.105-4.249c0.018-2.521-1.458-3.854-3.817-3.854c-0.612,0-1.008,0.054-1.242,0.108V291.795z"/>
			<path style="fill:#FFFFFF;" d="M265.668,281.73v12.136h-2.755V281.73H265.668z"/>
			<path style="fill:#FFFFFF;" d="M276.955,293.524c-0.504,0.252-1.639,0.521-3.114,0.521c-4.195,0-6.356-2.61-6.356-6.067
				c0-4.142,2.953-6.446,6.626-6.446c1.423,0,2.503,0.288,2.989,0.54l-0.559,2.179c-0.558-0.233-1.332-0.45-2.305-0.45
				c-2.179,0-3.871,1.314-3.871,4.016c0,2.431,1.44,3.961,3.89,3.961c0.828,0,1.746-0.18,2.286-0.396L276.955,293.524z"/>
			<path style="fill:#FFFFFF;" d="M281.759,290.75l-0.864,3.115h-2.845l3.709-12.136h3.602l3.763,12.136h-2.952l-0.937-3.115
				H281.759z M284.838,288.698l-0.756-2.574c-0.216-0.721-0.433-1.62-0.612-2.341h-0.036c-0.18,0.721-0.36,1.639-0.559,2.341
				l-0.72,2.574H284.838z"/>
			<path style="fill:#FFFFFF;" d="M294.376,281.892c0.846-0.144,2.034-0.252,3.709-0.252c1.692,0,2.898,0.324,3.709,0.973
				c0.774,0.611,1.296,1.62,1.296,2.809s-0.396,2.196-1.116,2.881c-0.936,0.882-2.322,1.278-3.943,1.278
				c-0.359,0-0.684-0.019-0.936-0.054v4.339h-2.719V281.892z M297.095,287.402c0.233,0.054,0.521,0.072,0.918,0.072
				c1.458,0,2.358-0.738,2.358-1.98c0-1.117-0.773-1.783-2.143-1.783c-0.558,0-0.936,0.055-1.134,0.108V287.402z"/>
			<path style="fill:#FFFFFF;" d="M307.589,281.73v12.136h-2.755V281.73H307.589z"/>
			<path style="fill:#FFFFFF;" d="M309.964,281.73h2.755v9.831h4.825v2.305h-7.58V281.73z"/>
			<path style="fill:#FFFFFF;" d="M322.096,290.75l-0.864,3.115h-2.845l3.709-12.136h3.602l3.763,12.136h-2.952l-0.937-3.115
				H322.096z M325.175,288.698l-0.756-2.574c-0.216-0.721-0.433-1.62-0.612-2.341h-0.036c-0.18,0.721-0.36,1.639-0.559,2.341
				l-0.72,2.574H325.175z"/>
			<path style="fill:#FFFFFF;" d="M331.077,281.892c0.882-0.144,2.196-0.252,3.654-0.252c1.801,0,3.062,0.27,3.926,0.954
				c0.72,0.576,1.116,1.423,1.116,2.539c0,1.548-1.099,2.61-2.143,2.988v0.055c0.846,0.342,1.314,1.152,1.62,2.269
				c0.378,1.368,0.757,2.953,0.99,3.421h-2.809c-0.198-0.342-0.486-1.332-0.846-2.827c-0.324-1.512-0.847-1.926-1.963-1.944h-0.828
				v4.771h-2.719V281.892z M333.796,287.114h1.08c1.368,0,2.179-0.685,2.179-1.747c0-1.116-0.756-1.674-2.017-1.692
				c-0.666,0-1.044,0.055-1.242,0.091V287.114z"/>
			<path style="fill:#FFFFFF;" d="M348.971,288.734h-4.465v2.881h4.987v2.251h-7.742V281.73h7.49v2.251h-4.735v2.521h4.465V288.734z
				"/>
			<path style="fill:#FFFFFF;" d="M351.453,291.039c0.738,0.379,1.872,0.757,3.043,0.757c1.26,0,1.927-0.522,1.927-1.314
				c0-0.757-0.576-1.188-2.035-1.711c-2.017-0.702-3.331-1.818-3.331-3.583c0-2.07,1.729-3.655,4.592-3.655
				c1.368,0,2.377,0.288,3.097,0.612l-0.612,2.215c-0.486-0.234-1.351-0.576-2.539-0.576c-1.188,0-1.764,0.54-1.764,1.17
				c0,0.774,0.684,1.117,2.25,1.711c2.143,0.792,3.151,1.908,3.151,3.619c0,2.034-1.566,3.763-4.897,3.763
				c-1.387,0-2.755-0.359-3.439-0.738L351.453,291.039z"/>
			<path style="fill:#FFFFFF;" d="M375.09,295.955c-1.729-0.504-3.169-1.026-4.79-1.711c-0.27-0.107-0.558-0.162-0.846-0.18
				c-2.737-0.181-5.294-2.197-5.294-6.158c0-3.637,2.305-6.374,5.924-6.374c3.709,0,5.744,2.81,5.744,6.122
				c0,2.755-1.278,4.699-2.881,5.42v0.072c0.936,0.27,1.98,0.485,2.935,0.684L375.09,295.955z M372.929,287.762
				c0-2.215-1.044-4.052-2.917-4.052c-1.872,0-2.952,1.837-2.952,4.105c-0.019,2.305,1.098,4.069,2.935,4.069
				C371.848,291.885,372.929,290.138,372.929,287.762z"/>
			<path style="fill:#FFFFFF;" d="M380.36,281.73v6.986c0,2.089,0.792,3.15,2.197,3.15c1.44,0,2.232-1.008,2.232-3.15v-6.986h2.736
				v6.807c0,3.744-1.891,5.527-5.06,5.527c-3.061,0-4.861-1.692-4.861-5.563v-6.771H380.36z"/>
			<path style="fill:#FFFFFF;" d="M397.12,288.734h-4.465v2.881h4.987v2.251H389.9V281.73h7.49v2.251h-4.735v2.521h4.465V288.734z"
				/>
			<path style="fill:#FFFFFF;" d="M404.786,284.035h-3.259v-2.305h9.326v2.305h-3.312v9.831h-2.755V284.035z"/>
			<path style="fill:#FFFFFF;" d="M422.897,287.671c0,3.979-2.413,6.393-5.96,6.393c-3.602,0-5.708-2.719-5.708-6.176
				c0-3.638,2.323-6.356,5.906-6.356C420.862,281.532,422.897,284.323,422.897,287.671z M414.129,287.833
				c0,2.377,1.116,4.052,2.952,4.052c1.854,0,2.917-1.765,2.917-4.123c0-2.179-1.044-4.052-2.935-4.052
				C415.209,283.71,414.129,285.475,414.129,287.833z"/>
			<path style="fill:#FFFFFF;" d="M424.693,281.892c1.009-0.162,2.323-0.252,3.709-0.252c2.305,0,3.8,0.414,4.97,1.296
				c1.261,0.937,2.053,2.431,2.053,4.574c0,2.322-0.847,3.925-2.017,4.915c-1.278,1.062-3.223,1.566-5.6,1.566
				c-1.423,0-2.431-0.09-3.115-0.18V281.892z M427.448,291.795c0.234,0.054,0.612,0.054,0.954,0.054
				c2.485,0.018,4.105-1.351,4.105-4.249c0.018-2.521-1.458-3.854-3.817-3.854c-0.612,0-1.008,0.054-1.242,0.108V291.795z"/>
			<path style="fill:#FFFFFF;" d="M448.331,287.671c0,3.979-2.413,6.393-5.96,6.393c-3.602,0-5.708-2.719-5.708-6.176
				c0-3.638,2.323-6.356,5.906-6.356C446.296,281.532,448.331,284.323,448.331,287.671z M439.562,287.833
				c0,2.377,1.116,4.052,2.952,4.052c1.854,0,2.917-1.765,2.917-4.123c0-2.179-1.044-4.052-2.935-4.052
				C440.642,283.71,439.562,285.475,439.562,287.833z"/>
			<path style="fill:#FFFFFF;" d="M450.217,291.039c0.738,0.379,1.873,0.757,3.043,0.757c1.261,0,1.927-0.522,1.927-1.314
				c0-0.757-0.576-1.188-2.034-1.711c-2.017-0.702-3.331-1.818-3.331-3.583c0-2.07,1.729-3.655,4.591-3.655
				c1.369,0,2.377,0.288,3.098,0.612l-0.612,2.215c-0.486-0.234-1.351-0.576-2.539-0.576s-1.765,0.54-1.765,1.17
				c0,0.774,0.685,1.117,2.251,1.711c2.143,0.792,3.15,1.908,3.15,3.619c0,2.034-1.566,3.763-4.897,3.763
				c-1.386,0-2.755-0.359-3.438-0.738L450.217,291.039z"/>
			<path style="fill:#FFFFFF;" d="M129.251,309.271c0,3.979-2.413,6.393-5.96,6.393c-3.602,0-5.708-2.719-5.708-6.176
				c0-3.638,2.323-6.356,5.906-6.356C127.216,303.131,129.251,305.922,129.251,309.271z M120.482,309.433
				c0,2.377,1.116,4.052,2.952,4.052c1.854,0,2.917-1.765,2.917-4.123c0-2.179-1.044-4.052-2.935-4.052
				C121.562,305.31,120.482,307.075,120.482,309.433z"/>
			<path style="fill:#FFFFFF;" d="M131.137,312.638c0.738,0.379,1.873,0.757,3.043,0.757c1.261,0,1.927-0.522,1.927-1.314
				c0-0.757-0.576-1.188-2.034-1.711c-2.017-0.702-3.331-1.818-3.331-3.583c0-2.07,1.729-3.655,4.591-3.655
				c1.369,0,2.377,0.288,3.098,0.612l-0.612,2.215c-0.486-0.234-1.351-0.576-2.539-0.576s-1.765,0.54-1.765,1.17
				c0,0.774,0.685,1.117,2.251,1.711c2.143,0.792,3.15,1.908,3.15,3.619c0,2.034-1.566,3.763-4.897,3.763
				c-1.386,0-2.755-0.359-3.438-0.738L131.137,312.638z"/>
			<path style="fill:#FFFFFF;" d="M153.315,315.124c-0.505,0.252-1.639,0.521-3.115,0.521c-4.195,0-6.355-2.61-6.355-6.067
				c0-4.142,2.952-6.446,6.626-6.446c1.422,0,2.502,0.288,2.988,0.54l-0.558,2.179c-0.559-0.233-1.333-0.45-2.305-0.45
				c-2.179,0-3.871,1.314-3.871,4.016c0,2.431,1.44,3.961,3.889,3.961c0.828,0,1.747-0.18,2.287-0.396L153.315,315.124z"/>
			<path style="fill:#FFFFFF;" d="M165.681,309.271c0,3.979-2.413,6.393-5.96,6.393c-3.601,0-5.707-2.719-5.707-6.176
				c0-3.638,2.322-6.356,5.905-6.356C163.647,303.131,165.681,305.922,165.681,309.271z M156.913,309.433
				c0,2.377,1.116,4.052,2.953,4.052c1.854,0,2.917-1.765,2.917-4.123c0-2.179-1.045-4.052-2.936-4.052
				C157.993,305.31,156.913,307.075,156.913,309.433z"/>
			<path style="fill:#FFFFFF;" d="M167.478,303.33h2.755v9.831h4.825v2.305h-7.58V303.33z"/>
			<path style="fill:#FFFFFF;" d="M179.61,312.35l-0.864,3.115h-2.845l3.709-12.136h3.602l3.763,12.136h-2.952l-0.937-3.115H179.61z
				 M182.689,310.297l-0.756-2.574c-0.216-0.721-0.433-1.62-0.612-2.341h-0.036c-0.18,0.721-0.36,1.639-0.559,2.341l-0.72,2.574
				H182.689z"/>
			<path style="fill:#FFFFFF;" d="M188.592,303.492c0.72-0.144,2.179-0.252,3.547-0.252c1.675,0,2.7,0.162,3.583,0.685
				c0.846,0.45,1.458,1.278,1.458,2.376c0,1.081-0.63,2.089-1.998,2.593v0.036c1.386,0.378,2.412,1.423,2.412,2.989
				c0,1.099-0.504,1.962-1.26,2.574c-0.883,0.702-2.359,1.099-4.771,1.099c-1.351,0-2.358-0.09-2.971-0.18V303.492z M191.31,308.137
				h0.9c1.44,0,2.214-0.595,2.214-1.494c0-0.919-0.702-1.405-1.944-1.405c-0.594,0-0.937,0.036-1.17,0.072V308.137z M191.31,313.521
				c0.27,0.036,0.594,0.036,1.062,0.036c1.242,0,2.34-0.469,2.34-1.747c0-1.225-1.098-1.71-2.467-1.71h-0.936V313.521z"/>
			<path style="fill:#FFFFFF;" d="M210.572,309.271c0,3.979-2.413,6.393-5.96,6.393c-3.601,0-5.707-2.719-5.707-6.176
				c0-3.638,2.322-6.356,5.905-6.356C208.538,303.131,210.572,305.922,210.572,309.271z M201.804,309.433
				c0,2.377,1.116,4.052,2.953,4.052c1.854,0,2.917-1.765,2.917-4.123c0-2.179-1.045-4.052-2.936-4.052
				C202.884,305.31,201.804,307.075,201.804,309.433z"/>
			<path style="fill:#FFFFFF;" d="M212.369,303.492c0.882-0.144,2.196-0.252,3.654-0.252c1.801,0,3.062,0.27,3.926,0.954
				c0.72,0.576,1.116,1.423,1.116,2.539c0,1.548-1.099,2.61-2.143,2.988v0.055c0.846,0.342,1.314,1.152,1.62,2.269
				c0.378,1.368,0.757,2.953,0.99,3.421h-2.809c-0.198-0.342-0.486-1.332-0.846-2.827c-0.324-1.512-0.847-1.926-1.963-1.944h-0.828
				v4.771h-2.719V303.492z M215.088,308.713h1.08c1.368,0,2.179-0.685,2.179-1.747c0-1.116-0.756-1.674-2.017-1.692
				c-0.666,0-1.044,0.055-1.242,0.091V308.713z"/>
			<path style="fill:#FFFFFF;" d="M226.031,312.35l-0.864,3.115h-2.845l3.709-12.136h3.602l3.763,12.136h-2.952l-0.937-3.115
				H226.031z M229.11,310.297l-0.756-2.574c-0.216-0.721-0.433-1.62-0.612-2.341h-0.036c-0.18,0.721-0.36,1.639-0.559,2.341
				l-0.72,2.574H229.11z"/>
			<path style="fill:#FFFFFF;" d="M235.013,303.492c1.008-0.162,2.322-0.252,3.709-0.252c2.305,0,3.799,0.414,4.97,1.296
				c1.26,0.937,2.052,2.431,2.052,4.574c0,2.322-0.846,3.925-2.017,4.915c-1.278,1.062-3.223,1.566-5.6,1.566
				c-1.422,0-2.431-0.09-3.114-0.18V303.492z M237.767,313.395c0.233,0.054,0.611,0.054,0.954,0.054
				c2.484,0.018,4.105-1.351,4.105-4.249c0.018-2.521-1.459-3.854-3.817-3.854c-0.612,0-1.009,0.054-1.242,0.108V313.395z"/>
			<path style="fill:#FFFFFF;" d="M258.649,309.271c0,3.979-2.413,6.393-5.96,6.393c-3.602,0-5.708-2.719-5.708-6.176
				c0-3.638,2.323-6.356,5.906-6.356C256.614,303.131,258.649,305.922,258.649,309.271z M249.881,309.433
				c0,2.377,1.116,4.052,2.952,4.052c1.854,0,2.917-1.765,2.917-4.123c0-2.179-1.044-4.052-2.935-4.052
				C250.961,305.31,249.881,307.075,249.881,309.433z"/>
			<path style="fill:#FFFFFF;" d="M260.446,303.492c0.882-0.144,2.196-0.252,3.654-0.252c1.801,0,3.062,0.27,3.926,0.954
				c0.72,0.576,1.116,1.423,1.116,2.539c0,1.548-1.099,2.61-2.143,2.988v0.055c0.846,0.342,1.314,1.152,1.62,2.269
				c0.378,1.368,0.757,2.953,0.99,3.421h-2.809c-0.198-0.342-0.486-1.332-0.846-2.827c-0.324-1.512-0.847-1.926-1.963-1.944h-0.828
				v4.771h-2.719V303.492z M263.165,308.713h1.08c1.368,0,2.179-0.685,2.179-1.747c0-1.116-0.756-1.674-2.017-1.692
				c-0.666,0-1.044,0.055-1.242,0.091V308.713z"/>
			<path style="fill:#FFFFFF;" d="M278.34,310.333h-4.465v2.881h4.987v2.251h-7.742V303.33h7.49v2.251h-4.735v2.521h4.465V310.333z"
				/>
			<path style="fill:#FFFFFF;" d="M280.821,312.638c0.738,0.379,1.872,0.757,3.043,0.757c1.26,0,1.927-0.522,1.927-1.314
				c0-0.757-0.576-1.188-2.035-1.711c-2.017-0.702-3.331-1.818-3.331-3.583c0-2.07,1.729-3.655,4.592-3.655
				c1.368,0,2.377,0.288,3.097,0.612l-0.612,2.215c-0.486-0.234-1.351-0.576-2.539-0.576c-1.188,0-1.764,0.54-1.764,1.17
				c0,0.774,0.684,1.117,2.25,1.711c2.143,0.792,3.151,1.908,3.151,3.619c0,2.034-1.566,3.763-4.897,3.763
				c-1.387,0-2.755-0.359-3.439-0.738L280.821,312.638z"/>
			<path style="fill:#FFFFFF;" d="M294.087,303.492c1.008-0.162,2.322-0.252,3.709-0.252c2.305,0,3.799,0.414,4.97,1.296
				c1.26,0.937,2.052,2.431,2.052,4.574c0,2.322-0.846,3.925-2.017,4.915c-1.278,1.062-3.223,1.566-5.6,1.566
				c-1.422,0-2.431-0.09-3.114-0.18V303.492z M296.842,313.395c0.233,0.054,0.611,0.054,0.954,0.054
				c2.484,0.018,4.105-1.351,4.105-4.249c0.018-2.521-1.459-3.854-3.817-3.854c-0.612,0-1.009,0.054-1.242,0.108V313.395z"/>
			<path style="fill:#FFFFFF;" d="M309.153,312.35l-0.864,3.115h-2.845l3.709-12.136h3.602l3.763,12.136h-2.952l-0.937-3.115
				H309.153z M312.232,310.297l-0.756-2.574c-0.216-0.721-0.433-1.62-0.612-2.341h-0.036c-0.18,0.721-0.36,1.639-0.559,2.341
				l-0.72,2.574H312.232z"/>
			<path style="fill:#FFFFFF;" d="M323.409,305.634h-3.259v-2.305h9.326v2.305h-3.312v9.831h-2.755V305.634z"/>
			<path style="fill:#FFFFFF;" d="M333.687,303.33v12.136h-2.755V303.33H333.687z"/>
			<path style="fill:#FFFFFF;" d="M346.325,310.82c-0.054-1.458-0.108-3.223-0.108-4.987h-0.054
				c-0.378,1.549-0.882,3.277-1.351,4.699l-1.477,4.735h-2.143l-1.296-4.699c-0.396-1.423-0.811-3.151-1.099-4.735h-0.036
				c-0.071,1.639-0.126,3.511-0.216,5.023l-0.216,4.609h-2.539l0.774-12.136h3.655l1.188,4.052c0.378,1.404,0.756,2.916,1.026,4.339
				h0.054c0.342-1.404,0.756-3.007,1.152-4.357l1.296-4.033h3.583l0.667,12.136h-2.684L346.325,310.82z"/>
			<path style="fill:#FFFFFF;" d="M354.926,303.492c1.009-0.162,2.323-0.252,3.709-0.252c2.305,0,3.8,0.414,4.97,1.296
				c1.261,0.937,2.053,2.431,2.053,4.574c0,2.322-0.847,3.925-2.017,4.915c-1.278,1.062-3.223,1.566-5.6,1.566
				c-1.423,0-2.431-0.09-3.115-0.18V303.492z M357.68,313.395c0.234,0.054,0.612,0.054,0.954,0.054
				c2.485,0.018,4.105-1.351,4.105-4.249c0.018-2.521-1.458-3.854-3.817-3.854c-0.612,0-1.008,0.054-1.242,0.108V313.395z"/>
			<path style="fill:#FFFFFF;" d="M374.674,310.333h-4.465v2.881h4.987v2.251h-7.742V303.33h7.49v2.251h-4.735v2.521h4.465V310.333z
				"/>
			<path style="fill:#FFFFFF;" d="M380.054,315.465l-3.889-12.136h3.007l1.477,5.132c0.414,1.44,0.792,2.827,1.08,4.339h0.054
				c0.307-1.458,0.685-2.898,1.099-4.285l1.549-5.186h2.916l-4.087,12.136H380.054z"/>
			<path style="fill:#FFFFFF;" d="M395.859,310.333h-4.466v2.881h4.987v2.251h-7.742V303.33h7.49v2.251h-4.735v2.521h4.466V310.333z
				"/>
			<path style="fill:#FFFFFF;" d="M408.513,310.82c-0.054-1.458-0.108-3.223-0.108-4.987h-0.054
				c-0.378,1.549-0.882,3.277-1.351,4.699l-1.477,4.735h-2.143l-1.296-4.699c-0.396-1.423-0.811-3.151-1.099-4.735h-0.036
				c-0.071,1.639-0.126,3.511-0.216,5.023l-0.216,4.609h-2.539l0.774-12.136h3.655l1.188,4.052c0.378,1.404,0.756,2.916,1.026,4.339
				h0.054c0.342-1.404,0.756-3.007,1.152-4.357l1.296-4.033h3.583l0.667,12.136h-2.684L408.513,310.82z"/>
			<path style="fill:#FFFFFF;" d="M127.054,336.723c-0.504,0.252-1.639,0.521-3.114,0.521c-4.195,0-6.356-2.61-6.356-6.067
				c0-4.142,2.953-6.446,6.626-6.446c1.423,0,2.503,0.288,2.989,0.54l-0.559,2.179c-0.558-0.233-1.332-0.45-2.305-0.45
				c-2.179,0-3.871,1.314-3.871,4.016c0,2.431,1.44,3.961,3.89,3.961c0.828,0,1.746-0.18,2.286-0.396L127.054,336.723z"/>
			<path style="fill:#FFFFFF;" d="M139.421,330.871c0,3.979-2.413,6.393-5.96,6.393c-3.602,0-5.708-2.719-5.708-6.176
				c0-3.638,2.323-6.356,5.906-6.356C137.386,324.731,139.421,327.522,139.421,330.871z M130.652,331.033
				c0,2.377,1.116,4.052,2.952,4.052c1.854,0,2.917-1.765,2.917-4.123c0-2.179-1.044-4.052-2.935-4.052
				C131.732,326.91,130.652,328.674,130.652,331.033z"/>
			<path style="fill:#FFFFFF;" d="M141.217,324.929h2.755v9.831h4.825v2.305h-7.58V324.929z"/>
			<path style="fill:#FFFFFF;" d="M160.841,330.871c0,3.979-2.413,6.393-5.96,6.393c-3.602,0-5.708-2.719-5.708-6.176
				c0-3.638,2.323-6.356,5.906-6.356C158.805,324.731,160.841,327.522,160.841,330.871z M152.072,331.033
				c0,2.377,1.116,4.052,2.952,4.052c1.854,0,2.917-1.765,2.917-4.123c0-2.179-1.044-4.052-2.935-4.052
				C153.152,326.91,152.072,328.674,152.072,331.033z"/>
			<path style="fill:#FFFFFF;" d="M171.549,336.723c-0.504,0.252-1.639,0.521-3.114,0.521c-4.195,0-6.356-2.61-6.356-6.067
				c0-4.142,2.953-6.446,6.626-6.446c1.423,0,2.503,0.288,2.989,0.54l-0.559,2.179c-0.558-0.233-1.332-0.45-2.305-0.45
				c-2.179,0-3.871,1.314-3.871,4.016c0,2.431,1.44,3.961,3.89,3.961c0.828,0,1.746-0.18,2.286-0.396L171.549,336.723z"/>
			<path style="fill:#FFFFFF;" d="M176.353,333.95l-0.864,3.115h-2.845l3.709-12.136h3.601l3.764,12.136h-2.953l-0.937-3.115
				H176.353z M179.432,331.897l-0.757-2.574c-0.216-0.721-0.432-1.62-0.612-2.341h-0.035c-0.181,0.721-0.36,1.639-0.559,2.341
				l-0.721,2.574H179.432z"/>
			<path style="fill:#FFFFFF;" d="M185.334,325.091c0.883-0.144,2.197-0.252,3.655-0.252c1.801,0,3.061,0.27,3.925,0.954
				c0.721,0.576,1.116,1.423,1.116,2.539c0,1.548-1.098,2.61-2.143,2.988v0.055c0.847,0.342,1.314,1.152,1.621,2.269
				c0.378,1.368,0.756,2.953,0.99,3.421h-2.809c-0.198-0.342-0.486-1.332-0.847-2.827c-0.324-1.512-0.847-1.926-1.963-1.944h-0.828
				v4.771h-2.719V325.091z M188.053,330.313h1.08c1.369,0,2.179-0.685,2.179-1.747c0-1.116-0.756-1.674-2.017-1.692
				c-0.666,0-1.044,0.055-1.242,0.091V330.313z"/>
			<path style="fill:#FFFFFF;" d="M206.864,331.933h-4.466v2.881h4.987v2.251h-7.742v-12.136h7.49v2.251h-4.735v2.521h4.466V331.933
				z"/>
			<path style="fill:#FFFFFF;" d="M219.518,332.419c-0.054-1.458-0.108-3.223-0.108-4.987h-0.054
				c-0.378,1.549-0.882,3.277-1.351,4.699l-1.477,4.735h-2.143l-1.296-4.699c-0.396-1.423-0.811-3.151-1.099-4.735h-0.036
				c-0.071,1.639-0.126,3.511-0.216,5.023l-0.216,4.609h-2.539l0.774-12.136h3.655l1.188,4.052c0.378,1.404,0.756,2.916,1.026,4.339
				h0.054c0.342-1.404,0.756-3.007,1.152-4.357l1.296-4.033h3.583l0.667,12.136h-2.684L219.518,332.419z"/>
			<path style="fill:#FFFFFF;" d="M228.119,325.091c0.847-0.144,2.035-0.252,3.709-0.252c1.692,0,2.899,0.324,3.709,0.973
				c0.774,0.611,1.297,1.62,1.297,2.809s-0.396,2.196-1.116,2.881c-0.937,0.882-2.323,1.278-3.943,1.278
				c-0.36,0-0.685-0.019-0.937-0.054v4.339h-2.719V325.091z M230.838,330.601c0.234,0.054,0.522,0.072,0.919,0.072
				c1.458,0,2.358-0.738,2.358-1.98c0-1.117-0.774-1.783-2.143-1.783c-0.559,0-0.937,0.055-1.135,0.108V330.601z"/>
			<path style="fill:#FFFFFF;" d="M238.577,325.091c0.883-0.144,2.197-0.252,3.655-0.252c1.801,0,3.061,0.27,3.925,0.954
				c0.721,0.576,1.116,1.423,1.116,2.539c0,1.548-1.098,2.61-2.143,2.988v0.055c0.847,0.342,1.314,1.152,1.621,2.269
				c0.378,1.368,0.756,2.953,0.99,3.421h-2.809c-0.198-0.342-0.486-1.332-0.847-2.827c-0.324-1.512-0.847-1.926-1.963-1.944h-0.828
				v4.771h-2.719V325.091z M241.296,330.313h1.08c1.369,0,2.179-0.685,2.179-1.747c0-1.116-0.756-1.674-2.017-1.692
				c-0.666,0-1.044,0.055-1.242,0.091V330.313z"/>
			<path style="fill:#FFFFFF;" d="M252.239,333.95l-0.864,3.115h-2.845l3.709-12.136h3.602l3.763,12.136h-2.952l-0.937-3.115
				H252.239z M255.318,331.897l-0.756-2.574c-0.216-0.721-0.433-1.62-0.612-2.341h-0.036c-0.18,0.721-0.36,1.639-0.559,2.341
				l-0.72,2.574H255.318z"/>
			<path style="fill:#FFFFFF;" d="M262.067,327.234h-3.259v-2.305h9.326v2.305h-3.312v9.831h-2.755V327.234z"/>
			<path style="fill:#FFFFFF;" d="M272.346,324.929v12.136h-2.755v-12.136H272.346z"/>
			<path style="fill:#FFFFFF;" d="M283.633,336.723c-0.504,0.252-1.639,0.521-3.114,0.521c-4.195,0-6.356-2.61-6.356-6.067
				c0-4.142,2.953-6.446,6.626-6.446c1.423,0,2.503,0.288,2.989,0.54l-0.559,2.179c-0.558-0.233-1.332-0.45-2.305-0.45
				c-2.179,0-3.871,1.314-3.871,4.016c0,2.431,1.44,3.961,3.89,3.961c0.828,0,1.746-0.18,2.286-0.396L283.633,336.723z"/>
			<path style="fill:#FFFFFF;" d="M288.436,333.95l-0.864,3.115h-2.845l3.709-12.136h3.602l3.763,12.136h-2.952l-0.937-3.115
				H288.436z M291.515,331.897l-0.756-2.574c-0.216-0.721-0.433-1.62-0.612-2.341h-0.036c-0.18,0.721-0.36,1.639-0.559,2.341
				l-0.72,2.574H291.515z"/>
			<path style="fill:#FFFFFF;" d="M301.054,337.065v-12.136h3.205l2.521,4.447c0.72,1.278,1.44,2.791,1.98,4.159h0.054
				c-0.18-1.603-0.233-3.241-0.233-5.06v-3.547h2.521v12.136h-2.881l-2.593-4.682c-0.721-1.296-1.513-2.862-2.106-4.285
				l-0.055,0.019c0.072,1.602,0.108,3.312,0.108,5.293v3.655H301.054z"/>
			<path style="fill:#FFFFFF;" d="M324.583,330.871c0,3.979-2.413,6.393-5.96,6.393c-3.602,0-5.708-2.719-5.708-6.176
				c0-3.638,2.323-6.356,5.906-6.356C322.548,324.731,324.583,327.522,324.583,330.871z M315.814,331.033
				c0,2.377,1.116,4.052,2.952,4.052c1.854,0,2.917-1.765,2.917-4.123c0-2.179-1.044-4.052-2.935-4.052
				C316.894,326.91,315.814,328.674,315.814,331.033z"/>
			<path style="fill:#FFFFFF;" d="M330.014,325.091c1.009-0.162,2.323-0.252,3.709-0.252c2.305,0,3.8,0.414,4.97,1.296
				c1.261,0.937,2.053,2.431,2.053,4.574c0,2.322-0.847,3.925-2.017,4.915c-1.278,1.062-3.223,1.566-5.6,1.566
				c-1.423,0-2.431-0.09-3.115-0.18V325.091z M332.769,334.995c0.234,0.054,0.612,0.054,0.954,0.054
				c2.485,0.018,4.105-1.351,4.105-4.249c0.018-2.521-1.458-3.854-3.817-3.854c-0.612,0-1.008,0.054-1.242,0.108V334.995z"/>
			<path style="fill:#FFFFFF;" d="M345.298,324.929v12.136h-2.755v-12.136H345.298z"/>
			<path style="fill:#FFFFFF;" d="M350.499,333.95l-0.864,3.115h-2.845l3.709-12.136h3.602l3.763,12.136h-2.952l-0.937-3.115
				H350.499z M353.578,331.897l-0.756-2.574c-0.216-0.721-0.433-1.62-0.612-2.341h-0.036c-0.18,0.721-0.36,1.639-0.559,2.341
				l-0.72,2.574H353.578z"/>
			<path style="fill:#FFFFFF;" d="M365.942,333.95l-0.864,3.115h-2.845l3.709-12.136h3.602l3.763,12.136h-2.952l-0.937-3.115
				H365.942z M369.021,331.897l-0.756-2.574c-0.216-0.721-0.433-1.62-0.612-2.341h-0.036c-0.18,0.721-0.36,1.639-0.559,2.341
				l-0.72,2.574H369.021z"/>
			<path style="fill:#FFFFFF;" d="M378.559,325.091c1.008-0.162,2.322-0.252,3.709-0.252c2.305,0,3.799,0.414,4.97,1.296
				c1.26,0.937,2.052,2.431,2.052,4.574c0,2.322-0.846,3.925-2.017,4.915c-1.278,1.062-3.223,1.566-5.6,1.566
				c-1.422,0-2.431-0.09-3.114-0.18V325.091z M381.314,334.995c0.233,0.054,0.611,0.054,0.954,0.054
				c2.484,0.018,4.105-1.351,4.105-4.249c0.018-2.521-1.459-3.854-3.817-3.854c-0.612,0-1.009,0.054-1.242,0.108V334.995z"/>
			<path style="fill:#FFFFFF;" d="M393.842,324.929v12.136h-2.755v-12.136H393.842z"/>
			<path style="fill:#FFFFFF;" d="M399.044,333.95l-0.864,3.115h-2.845l3.709-12.136h3.601l3.764,12.136h-2.953l-0.937-3.115
				H399.044z M402.123,331.897l-0.757-2.574c-0.216-0.721-0.432-1.62-0.612-2.341h-0.035c-0.181,0.721-0.36,1.639-0.559,2.341
				l-0.721,2.574H402.123z"/>
			<path style="fill:#FFFFFF;" d="M411.66,325.091c0.847-0.144,2.035-0.252,3.709-0.252c1.692,0,2.899,0.324,3.709,0.973
				c0.774,0.611,1.297,1.62,1.297,2.809s-0.396,2.196-1.116,2.881c-0.937,0.882-2.323,1.278-3.943,1.278
				c-0.36,0-0.685-0.019-0.937-0.054v4.339h-2.719V325.091z M414.379,330.601c0.234,0.054,0.522,0.072,0.919,0.072
				c1.458,0,2.358-0.738,2.358-1.98c0-1.117-0.774-1.783-2.143-1.783c-0.559,0-0.937,0.055-1.135,0.108V330.601z"/>
			<path style="fill:#FFFFFF;" d="M423.865,333.95l-0.864,3.115h-2.845l3.709-12.136h3.602l3.763,12.136h-2.952l-0.937-3.115
				H423.865z M426.944,331.897l-0.756-2.574c-0.216-0.721-0.433-1.62-0.612-2.341h-0.036c-0.18,0.721-0.36,1.639-0.559,2.341
				l-0.72,2.574H426.944z"/>
			<path style="fill:#FFFFFF;" d="M432.846,325.091c0.882-0.144,2.196-0.252,3.654-0.252c1.801,0,3.062,0.27,3.926,0.954
				c0.72,0.576,1.116,1.423,1.116,2.539c0,1.548-1.099,2.61-2.143,2.988v0.055c0.846,0.342,1.314,1.152,1.62,2.269
				c0.378,1.368,0.757,2.953,0.99,3.421h-2.809c-0.198-0.342-0.486-1.332-0.846-2.827c-0.324-1.512-0.847-1.926-1.963-1.944h-0.828
				v4.771h-2.719V325.091z M435.565,330.313h1.08c1.368,0,2.179-0.685,2.179-1.747c0-1.116-0.756-1.674-2.017-1.692
				c-0.666,0-1.044,0.055-1.242,0.091V330.313z"/>
			<path style="fill:#FFFFFF;" d="M446.509,333.95l-0.864,3.115H442.8l3.709-12.136h3.601l3.764,12.136h-2.953l-0.937-3.115H446.509
				z M449.588,331.897l-0.757-2.574c-0.216-0.721-0.432-1.62-0.612-2.341h-0.035c-0.181,0.721-0.36,1.639-0.559,2.341l-0.721,2.574
				H449.588z"/>
			<path style="fill:#FFFFFF;" d="M465.177,336.506c-0.847,0.288-2.449,0.685-4.052,0.685c-2.215,0-3.817-0.559-4.934-1.639
				c-1.116-1.044-1.729-2.629-1.71-4.411c0.018-4.033,2.952-6.338,6.932-6.338c1.566,0,2.773,0.306,3.367,0.595l-0.576,2.196
				c-0.666-0.288-1.494-0.522-2.827-0.522c-2.286,0-4.015,1.297-4.015,3.926c0,2.502,1.566,3.979,3.817,3.979
				c0.63,0,1.134-0.072,1.35-0.18v-2.539h-1.872v-2.143h4.52V336.506z"/>
			<path style="fill:#FFFFFF;" d="M120.968,355.55l-0.864,3.115h-2.845l3.709-12.136h3.602l3.763,12.136h-2.952l-0.937-3.115
				H120.968z M124.047,353.498l-0.756-2.574c-0.216-0.721-0.433-1.621-0.612-2.341h-0.036c-0.18,0.72-0.36,1.639-0.559,2.341
				l-0.72,2.574H124.047z"/>
			<path style="fill:#FFFFFF;" d="M129.949,346.692c0.882-0.144,2.196-0.252,3.654-0.252c1.801,0,3.062,0.271,3.926,0.954
				c0.72,0.576,1.116,1.423,1.116,2.539c0,1.548-1.099,2.61-2.143,2.988v0.055c0.846,0.342,1.314,1.152,1.62,2.269
				c0.378,1.368,0.757,2.953,0.99,3.421h-2.809c-0.198-0.342-0.486-1.332-0.846-2.827c-0.324-1.512-0.847-1.927-1.963-1.944h-0.828
				v4.771h-2.719V346.692z M132.668,351.914h1.08c1.368,0,2.179-0.685,2.179-1.746c0-1.117-0.756-1.675-2.017-1.693
				c-0.666,0-1.044,0.055-1.242,0.091V351.914z"/>
			<path style="fill:#FFFFFF;" d="M143.611,355.55l-0.864,3.115h-2.845l3.709-12.136h3.601l3.764,12.136h-2.953l-0.937-3.115
				H143.611z M146.69,353.498l-0.757-2.574c-0.216-0.721-0.432-1.621-0.612-2.341h-0.035c-0.181,0.72-0.36,1.639-0.559,2.341
				l-0.721,2.574H146.69z"/>
			<path style="fill:#FFFFFF;" d="M152.592,358.666V346.53h3.205l2.521,4.447c0.721,1.278,1.44,2.791,1.98,4.159h0.055
				c-0.181-1.603-0.234-3.24-0.234-5.06v-3.547h2.521v12.136h-2.881l-2.593-4.682c-0.72-1.296-1.512-2.862-2.106-4.285l-0.054,0.019
				c0.072,1.603,0.107,3.312,0.107,5.293v3.655H152.592z"/>
			<path style="fill:#FFFFFF;" d="M167.352,348.834h-3.259v-2.305h9.326v2.305h-3.312v9.831h-2.755V348.834z"/>
			<path style="fill:#FFFFFF;" d="M177.631,346.53v12.136h-2.755V346.53H177.631z"/>
			<path style="fill:#FFFFFF;" d="M180.006,346.692c0.882-0.144,2.196-0.252,3.654-0.252c1.801,0,3.062,0.271,3.926,0.954
				c0.72,0.576,1.116,1.423,1.116,2.539c0,1.548-1.099,2.61-2.143,2.988v0.055c0.846,0.342,1.314,1.152,1.62,2.269
				c0.378,1.368,0.757,2.953,0.99,3.421h-2.809c-0.198-0.342-0.486-1.332-0.846-2.827c-0.324-1.512-0.847-1.927-1.963-1.944h-0.828
				v4.771h-2.719V346.692z M182.724,351.914h1.08c1.368,0,2.179-0.685,2.179-1.746c0-1.117-0.756-1.675-2.017-1.693
				c-0.666,0-1.044,0.055-1.242,0.091V351.914z"/>
			<path style="fill:#FFFFFF;" d="M197.141,355.55l-0.864,3.115h-2.845l3.709-12.136h3.602l3.763,12.136h-2.952l-0.937-3.115
				H197.141z M200.221,353.498l-0.756-2.574c-0.216-0.721-0.433-1.621-0.612-2.341h-0.036c-0.18,0.72-0.36,1.639-0.559,2.341
				l-0.72,2.574H200.221z"/>
			<path style="fill:#FFFFFF;" d="M209.759,346.692c1.008-0.162,2.322-0.252,3.709-0.252c2.305,0,3.799,0.414,4.97,1.296
				c1.26,0.937,2.052,2.432,2.052,4.574c0,2.322-0.846,3.925-2.017,4.915c-1.278,1.062-3.223,1.566-5.6,1.566
				c-1.422,0-2.431-0.09-3.114-0.18V346.692z M212.513,356.595c0.233,0.054,0.611,0.054,0.954,0.054
				c2.484,0.018,4.105-1.351,4.105-4.249c0.018-2.521-1.459-3.854-3.817-3.854c-0.612,0-1.009,0.054-1.242,0.108V356.595z"/>
			<path style="fill:#FFFFFF;" d="M225.041,346.53v12.136h-2.755V346.53H225.041z"/>
			<path style="fill:#FFFFFF;" d="M227.506,355.838c0.738,0.378,1.873,0.757,3.043,0.757c1.261,0,1.927-0.522,1.927-1.314
				c0-0.757-0.576-1.188-2.034-1.711c-2.017-0.702-3.331-1.818-3.331-3.583c0-2.07,1.729-3.655,4.591-3.655
				c1.369,0,2.377,0.288,3.098,0.612l-0.612,2.215c-0.486-0.234-1.351-0.576-2.539-0.576s-1.765,0.54-1.765,1.17
				c0,0.774,0.685,1.117,2.251,1.711c2.143,0.792,3.15,1.908,3.15,3.619c0,2.034-1.566,3.763-4.897,3.763
				c-1.386,0-2.755-0.359-3.438-0.738L227.506,355.838z"/>
			<path style="fill:#FFFFFF;" d="M237.225,355.838c0.738,0.378,1.873,0.757,3.043,0.757c1.261,0,1.927-0.522,1.927-1.314
				c0-0.757-0.576-1.188-2.034-1.711c-2.017-0.702-3.331-1.818-3.331-3.583c0-2.07,1.729-3.655,4.591-3.655
				c1.369,0,2.377,0.288,3.098,0.612l-0.612,2.215c-0.486-0.234-1.351-0.576-2.539-0.576s-1.765,0.54-1.765,1.17
				c0,0.774,0.685,1.117,2.251,1.711c2.143,0.792,3.15,1.908,3.15,3.619c0,2.034-1.566,3.763-4.897,3.763
				c-1.386,0-2.755-0.359-3.438-0.738L237.225,355.838z"/>
			<path style="fill:#FFFFFF;" d="M254.076,353.534h-4.466v2.881h4.987v2.251h-7.742V346.53h7.49v2.251h-4.735v2.521h4.466V353.534z
				"/>
			<path style="fill:#FFFFFF;" d="M266.73,354.02c-0.054-1.458-0.108-3.223-0.108-4.987h-0.054
				c-0.378,1.549-0.882,3.277-1.351,4.699l-1.477,4.735h-2.143l-1.296-4.699c-0.396-1.423-0.811-3.151-1.099-4.735h-0.036
				c-0.071,1.639-0.126,3.511-0.216,5.023l-0.216,4.609h-2.539l0.774-12.136h3.655l1.188,4.052c0.378,1.404,0.756,2.916,1.026,4.339
				h0.054c0.342-1.404,0.756-3.007,1.152-4.357l1.296-4.033h3.583l0.667,12.136h-2.684L266.73,354.02z"/>
			<path style="fill:#FFFFFF;" d="M274.45,346.53v12.136h-2.755V346.53H274.45z"/>
			<path style="fill:#FFFFFF;" d="M276.825,358.666V346.53h3.205l2.521,4.447c0.721,1.278,1.44,2.791,1.98,4.159h0.055
				c-0.181-1.603-0.234-3.24-0.234-5.06v-3.547h2.521v12.136h-2.881l-2.593-4.682c-0.72-1.296-1.512-2.862-2.106-4.285l-0.054,0.019
				c0.072,1.603,0.107,3.312,0.107,5.293v3.655H276.825z"/>
			<path style="fill:#FFFFFF;" d="M292.072,355.55l-0.864,3.115h-2.845l3.709-12.136h3.601l3.764,12.136h-2.953l-0.937-3.115
				H292.072z M295.151,353.498l-0.757-2.574c-0.216-0.721-0.432-1.621-0.612-2.341h-0.035c-0.181,0.72-0.36,1.639-0.559,2.341
				l-0.721,2.574H295.151z"/>
			<path style="fill:#FFFFFF;" d="M309.515,358.324c-0.486,0.233-1.53,0.504-2.898,0.521l-0.307,0.612
				c0.702,0.162,1.314,0.631,1.314,1.477c0,1.242-1.116,1.656-2.143,1.656c-0.54,0-1.134-0.107-1.548-0.342l0.359-1.116
				c0.271,0.144,0.685,0.252,1.009,0.252c0.36,0,0.648-0.126,0.648-0.432c0-0.379-0.414-0.576-1.423-0.685l0.685-1.494
				c-3.421-0.45-5.168-2.881-5.168-5.996c0-4.142,2.953-6.446,6.626-6.446c1.423,0,2.503,0.288,2.989,0.54l-0.559,2.179
				c-0.558-0.233-1.332-0.45-2.305-0.45c-2.179,0-3.871,1.314-3.871,4.016c0,2.431,1.44,3.961,3.89,3.961
				c0.828,0,1.746-0.18,2.286-0.396L309.515,358.324z"/>
			<path style="fill:#FFFFFF;" d="M314.319,355.55l-0.864,3.115h-2.845l3.709-12.136h3.602l3.763,12.136h-2.952l-0.937-3.115
				H314.319z M313.743,345.792c-0.054-1.513,0.522-2.286,1.387-2.286c0.486,0,0.811,0.162,1.152,0.359
				c0.288,0.181,0.559,0.343,0.792,0.343c0.307,0,0.414-0.181,0.486-0.774h1.225c0.054,1.62-0.469,2.251-1.423,2.251
				c-0.486,0-0.846-0.162-1.17-0.343c-0.307-0.162-0.522-0.324-0.757-0.324c-0.233,0-0.396,0.271-0.432,0.774H313.743z
				 M317.398,353.498l-0.756-2.574c-0.216-0.721-0.433-1.621-0.612-2.341h-0.036c-0.18,0.72-0.36,1.639-0.559,2.341l-0.72,2.574
				H317.398z"/>
			<path style="fill:#FFFFFF;" d="M333.96,352.472c0,3.979-2.413,6.392-5.96,6.392c-3.601,0-5.707-2.719-5.707-6.176
				c0-3.638,2.322-6.356,5.905-6.356C331.926,346.332,333.96,349.123,333.96,352.472z M325.191,352.633
				c0,2.377,1.116,4.052,2.953,4.052c1.854,0,2.917-1.765,2.917-4.123c0-2.179-1.045-4.052-2.936-4.052
				C326.271,348.51,325.191,350.275,325.191,352.633z"/>
			<path style="fill:#FFFFFF;" d="M339.392,346.692c1.008-0.162,2.322-0.252,3.709-0.252c2.305,0,3.799,0.414,4.97,1.296
				c1.26,0.937,2.052,2.432,2.052,4.574c0,2.322-0.846,3.925-2.017,4.915c-1.278,1.062-3.223,1.566-5.6,1.566
				c-1.422,0-2.431-0.09-3.114-0.18V346.692z M342.147,356.595c0.233,0.054,0.611,0.054,0.954,0.054
				c2.484,0.018,4.105-1.351,4.105-4.249c0.018-2.521-1.459-3.854-3.817-3.854c-0.612,0-1.009,0.054-1.242,0.108V356.595z"/>
			<path style="fill:#FFFFFF;" d="M363.029,352.472c0,3.979-2.413,6.392-5.96,6.392c-3.601,0-5.707-2.719-5.707-6.176
				c0-3.638,2.322-6.356,5.905-6.356C360.995,346.332,363.029,349.123,363.029,352.472z M354.261,352.633
				c0,2.377,1.116,4.052,2.953,4.052c1.854,0,2.917-1.765,2.917-4.123c0-2.179-1.045-4.052-2.936-4.052
				C355.341,348.51,354.261,350.275,354.261,352.633z"/>
			<path style="fill:#FFFFFF;" d="M366.374,351.355c0.558-1.764,1.332-3.528,2.16-4.879l1.656-0.145
				c-0.558,1.531-1.008,3.277-1.26,4.861L366.374,351.355z M369.885,351.355c0.559-1.764,1.332-3.528,2.16-4.879l1.657-0.145
				c-0.54,1.531-1.009,3.277-1.261,4.861L369.885,351.355z"/>
			<path style="fill:#FFFFFF;" d="M376.094,346.53h2.737v7.671c0,3.457-1.656,4.663-4.321,4.663c-0.63,0-1.459-0.108-1.999-0.288
				l0.307-2.215c0.378,0.126,0.864,0.216,1.404,0.216c1.152,0,1.872-0.521,1.872-2.412V346.53z"/>
			<path style="fill:#FFFFFF;" d="M388.336,353.534h-4.465v2.881h4.987v2.251h-7.742V346.53h7.49v2.251h-4.735v2.521h4.465V353.534z
				"/>
			<path style="fill:#FFFFFF;" d="M393.482,346.53v12.136h-2.755V346.53H393.482z"/>
			<path style="fill:#FFFFFF;" d="M398.198,348.834h-3.26v-2.305h9.327v2.305h-3.313v9.831h-2.754V348.834z"/>
			<path style="fill:#FFFFFF;" d="M416.308,352.472c0,3.979-2.413,6.392-5.96,6.392c-3.601,0-5.707-2.719-5.707-6.176
				c0-3.638,2.322-6.356,5.905-6.356C414.274,346.332,416.308,349.123,416.308,352.472z M407.54,352.633
				c0,2.377,1.116,4.052,2.953,4.052c1.854,0,2.917-1.765,2.917-4.123c0-2.179-1.045-4.052-2.936-4.052
				C408.62,348.51,407.54,350.275,407.54,352.633z"/>
			<path style="fill:#FFFFFF;" d="M421.741,346.692c1.008-0.162,2.322-0.252,3.709-0.252c2.305,0,3.799,0.414,4.97,1.296
				c1.26,0.937,2.052,2.432,2.052,4.574c0,2.322-0.846,3.925-2.017,4.915c-1.278,1.062-3.223,1.566-5.6,1.566
				c-1.422,0-2.431-0.09-3.114-0.18V346.692z M424.496,356.595c0.233,0.054,0.611,0.054,0.954,0.054
				c2.484,0.018,4.105-1.351,4.105-4.249c0.018-2.521-1.459-3.854-3.817-3.854c-0.612,0-1.009,0.054-1.242,0.108V356.595z"/>
			<path style="fill:#FFFFFF;" d="M441.489,353.534h-4.466v2.881h4.987v2.251h-7.742V346.53h7.49v2.251h-4.735v2.521h4.466V353.534z
				"/>
			<path style="fill:#FFFFFF;" d="M118.141,368.292c0.846-0.144,2.034-0.252,3.709-0.252c1.692,0,2.898,0.324,3.709,0.973
				c0.774,0.611,1.296,1.62,1.296,2.809s-0.396,2.196-1.116,2.881c-0.936,0.882-2.322,1.278-3.943,1.278
				c-0.359,0-0.684-0.019-0.936-0.054v4.339h-2.719V368.292z M120.86,373.801c0.233,0.054,0.521,0.072,0.918,0.072
				c1.458,0,2.358-0.738,2.358-1.98c0-1.117-0.773-1.783-2.143-1.783c-0.558,0-0.936,0.055-1.134,0.108V373.801z"/>
			<path style="fill:#FFFFFF;" d="M135.819,375.133h-4.465v2.881h4.987v2.251h-7.742v-12.136h7.49v2.251h-4.735v2.521h4.465V375.133
				z"/>
			<path style="fill:#FFFFFF;" d="M138.211,380.265v-12.136h3.205l2.521,4.447c0.721,1.278,1.44,2.791,1.98,4.159h0.055
				c-0.181-1.603-0.234-3.24-0.234-5.06v-3.547h2.521v12.136h-2.881l-2.593-4.682c-0.72-1.296-1.512-2.862-2.106-4.285l-0.054,0.019
				c0.072,1.603,0.107,3.312,0.107,5.293v3.655H138.211z"/>
			<path style="fill:#FFFFFF;" d="M150.721,377.438c0.738,0.378,1.873,0.757,3.043,0.757c1.261,0,1.927-0.522,1.927-1.314
				c0-0.757-0.576-1.188-2.034-1.711c-2.017-0.702-3.331-1.818-3.331-3.583c0-2.07,1.729-3.655,4.591-3.655
				c1.369,0,2.377,0.288,3.098,0.612l-0.612,2.215c-0.486-0.234-1.351-0.576-2.539-0.576s-1.765,0.54-1.765,1.17
				c0,0.774,0.685,1.117,2.251,1.711c2.143,0.792,3.15,1.908,3.15,3.619c0,2.034-1.566,3.763-4.897,3.763
				c-1.386,0-2.755-0.359-3.438-0.738L150.721,377.438z"/>
			<path style="fill:#FFFFFF;" d="M163.178,377.15l-0.864,3.115h-2.845l3.709-12.136h3.601l3.764,12.136h-2.953l-0.937-3.115
				H163.178z M166.257,375.097l-0.757-2.574c-0.216-0.721-0.432-1.621-0.612-2.341h-0.035c-0.181,0.72-0.36,1.639-0.559,2.341
				l-0.721,2.574H166.257z"/>
			<path style="fill:#FFFFFF;" d="M172.158,368.292c0.883-0.144,2.197-0.252,3.655-0.252c1.801,0,3.061,0.271,3.925,0.954
				c0.721,0.576,1.116,1.423,1.116,2.539c0,1.548-1.098,2.61-2.143,2.988v0.055c0.847,0.342,1.314,1.152,1.621,2.269
				c0.378,1.368,0.756,2.953,0.99,3.421h-2.809c-0.198-0.342-0.486-1.332-0.847-2.827c-0.324-1.512-0.847-1.927-1.963-1.944h-0.828
				v4.771h-2.719V368.292z M174.877,373.513h1.08c1.369,0,2.179-0.685,2.179-1.746c0-1.117-0.756-1.675-2.017-1.693
				c-0.666,0-1.044,0.055-1.242,0.091V373.513z"/>
			<path style="fill:#FFFFFF;" d="M186.018,367.931c-0.558,1.765-1.35,3.529-2.16,4.88l-1.656,0.144
				c0.54-1.53,1.008-3.276,1.26-4.861L186.018,367.931z M189.53,367.931c-0.559,1.765-1.333,3.529-2.161,4.88l-1.656,0.144
				c0.54-1.53,1.009-3.276,1.261-4.861L189.53,367.931z"/>
			<path style="fill:#FFFFFF;" d="M193.524,368.129h7.418v2.251h-4.663v2.772h4.356v2.232h-4.356v4.88h-2.755V368.129z"/>
			<path style="fill:#FFFFFF;" d="M214.119,374.072c0,3.979-2.413,6.392-5.96,6.392c-3.601,0-5.707-2.719-5.707-6.176
				c0-3.638,2.322-6.356,5.905-6.356C212.085,367.931,214.119,370.722,214.119,374.072z M205.35,374.233
				c0,2.377,1.116,4.052,2.953,4.052c1.854,0,2.917-1.765,2.917-4.123c0-2.179-1.045-4.052-2.936-4.052
				C206.43,370.11,205.35,371.875,205.35,374.233z"/>
			<path style="fill:#FFFFFF;" d="M224.828,379.923c-0.504,0.252-1.639,0.521-3.114,0.521c-4.195,0-6.356-2.61-6.356-6.067
				c0-4.142,2.953-6.446,6.626-6.446c1.423,0,2.503,0.288,2.989,0.54l-0.559,2.179c-0.558-0.233-1.332-0.45-2.305-0.45
				c-2.179,0-3.871,1.314-3.871,4.016c0,2.431,1.44,3.961,3.89,3.961c0.828,0,1.746-0.18,2.286-0.396L224.828,379.923z"/>
			<path style="fill:#FFFFFF;" d="M229.632,377.15l-0.864,3.115h-2.845l3.709-12.136h3.602l3.763,12.136h-2.952l-0.937-3.115
				H229.632z M232.711,375.097l-0.756-2.574c-0.216-0.721-0.433-1.621-0.612-2.341h-0.036c-0.18,0.72-0.36,1.639-0.559,2.341
				l-0.72,2.574H232.711z"/>
			<path style="fill:#FFFFFF;" d="M238.613,368.292c1.008-0.162,2.322-0.252,3.709-0.252c2.305,0,3.799,0.414,4.97,1.296
				c1.26,0.937,2.052,2.432,2.052,4.574c0,2.322-0.846,3.925-2.017,4.915c-1.278,1.062-3.223,1.566-5.6,1.566
				c-1.422,0-2.431-0.09-3.114-0.18V368.292z M241.368,378.195c0.233,0.054,0.611,0.054,0.954,0.054
				c2.484,0.018,4.105-1.351,4.105-4.249c0.018-2.521-1.459-3.854-3.817-3.854c-0.612,0-1.009,0.054-1.242,0.108V378.195z"/>
			<path style="fill:#FFFFFF;" d="M262.25,374.072c0,3.979-2.413,6.392-5.96,6.392c-3.601,0-5.707-2.719-5.707-6.176
				c0-3.638,2.322-6.356,5.905-6.356C260.216,367.931,262.25,370.722,262.25,374.072z M253.481,374.233
				c0,2.377,1.116,4.052,2.953,4.052c1.854,0,2.917-1.765,2.917-4.123c0-2.179-1.045-4.052-2.936-4.052
				C254.561,370.11,253.481,371.875,253.481,374.233z"/>
			<path style="fill:#FFFFFF;" d="M267.682,380.265v-12.136h3.205l2.521,4.447c0.72,1.278,1.44,2.791,1.98,4.159h0.054
				c-0.18-1.603-0.233-3.24-0.233-5.06v-3.547h2.521v12.136h-2.881l-2.593-4.682c-0.721-1.296-1.513-2.862-2.106-4.285l-0.055,0.019
				c0.072,1.603,0.108,3.312,0.108,5.293v3.655H267.682z"/>
			<path style="fill:#FFFFFF;" d="M282.929,377.15l-0.864,3.115h-2.845l3.709-12.136h3.602l3.763,12.136h-2.952l-0.937-3.115
				H282.929z M286.008,375.097l-0.756-2.574c-0.216-0.721-0.433-1.621-0.612-2.341h-0.036c-0.18,0.72-0.36,1.639-0.559,2.341
				l-0.72,2.574H286.008z"/>
			<path style="fill:#FFFFFF;" d="M302.765,375.133h-4.465v2.881h4.987v2.251h-7.742v-12.136h7.49v2.251h-4.735v2.521h4.465V375.133
				z"/>
			<path style="fill:#FFFFFF;" d="M311.549,380.265l-1.098-2.196c-0.45-0.847-0.738-1.477-1.08-2.179h-0.036
				c-0.252,0.702-0.559,1.332-0.937,2.179l-1.009,2.196h-3.133l3.512-6.14l-3.386-5.996h3.151l1.062,2.215
				c0.359,0.738,0.63,1.332,0.918,2.017h0.036c0.288-0.774,0.522-1.314,0.828-2.017l1.026-2.215h3.133l-3.421,5.924l3.601,6.212
				H311.549z"/>
			<path style="fill:#FFFFFF;" d="M316.191,368.292c0.846-0.144,2.034-0.252,3.709-0.252c1.692,0,2.898,0.324,3.709,0.973
				c0.774,0.611,1.296,1.62,1.296,2.809s-0.396,2.196-1.116,2.881c-0.936,0.882-2.322,1.278-3.943,1.278
				c-0.359,0-0.684-0.019-0.936-0.054v4.339h-2.719V368.292z M318.91,373.801c0.233,0.054,0.521,0.072,0.918,0.072
				c1.458,0,2.358-0.738,2.358-1.98c0-1.117-0.773-1.783-2.143-1.783c-0.558,0-0.936,0.055-1.134,0.108V373.801z"/>
			<path style="fill:#FFFFFF;" d="M333.869,375.133h-4.465v2.881h4.987v2.251h-7.742v-12.136h7.49v2.251h-4.735v2.521h4.465V375.133
				z"/>
			<path style="fill:#FFFFFF;" d="M336.261,368.292c0.883-0.144,2.197-0.252,3.655-0.252c1.801,0,3.061,0.271,3.925,0.954
				c0.721,0.576,1.116,1.423,1.116,2.539c0,1.548-1.098,2.61-2.143,2.988v0.055c0.847,0.342,1.314,1.152,1.621,2.269
				c0.378,1.368,0.756,2.953,0.99,3.421h-2.809c-0.198-0.342-0.486-1.332-0.847-2.827c-0.324-1.512-0.847-1.927-1.963-1.944h-0.828
				v4.771h-2.719V368.292z M338.979,373.513h1.08c1.369,0,2.179-0.685,2.179-1.746c0-1.117-0.756-1.675-2.017-1.693
				c-0.666,0-1.044,0.055-1.242,0.091V373.513z"/>
			<path style="fill:#FFFFFF;" d="M349.689,368.129v12.136h-2.755v-12.136H349.689z"/>
			<path style="fill:#FFFFFF;" d="M359.285,375.133h-4.466v2.881h4.987v2.251h-7.742v-12.136h7.49v2.251h-4.735v2.521h4.466V375.133
				z M356.908,365.267l1.836,2.214h-1.926l-0.919-1.116h-0.036l-0.899,1.116h-1.909l1.801-2.214H356.908z"/>
			<path style="fill:#FFFFFF;" d="M361.677,380.265v-12.136h3.205l2.521,4.447c0.72,1.278,1.44,2.791,1.98,4.159h0.054
				c-0.18-1.603-0.233-3.24-0.233-5.06v-3.547h2.521v12.136h-2.881l-2.593-4.682c-0.721-1.296-1.513-2.862-2.106-4.285l-0.055,0.019
				c0.072,1.603,0.108,3.312,0.108,5.293v3.655H361.677z"/>
			<path style="fill:#FFFFFF;" d="M383.009,379.923c-0.504,0.252-1.639,0.521-3.114,0.521c-4.195,0-6.356-2.61-6.356-6.067
				c0-4.142,2.953-6.446,6.626-6.446c1.423,0,2.503,0.288,2.989,0.54l-0.559,2.179c-0.558-0.233-1.332-0.45-2.305-0.45
				c-2.179,0-3.871,1.314-3.871,4.016c0,2.431,1.44,3.961,3.89,3.961c0.828,0,1.746-0.18,2.286-0.396L383.009,379.923z"/>
			<path style="fill:#FFFFFF;" d="M387.561,368.129v12.136h-2.755v-12.136H387.561z"/>
			<path style="fill:#FFFFFF;" d="M392.763,377.15l-0.864,3.115h-2.845l3.709-12.136h3.602l3.763,12.136h-2.952l-0.937-3.115
				H392.763z M395.842,375.097l-0.756-2.574c-0.216-0.721-0.433-1.621-0.612-2.341h-0.036c-0.18,0.72-0.36,1.639-0.559,2.341
				l-0.72,2.574H395.842z"/>
			<path style="fill:#FFFFFF;" d="M405.38,368.292c1.008-0.162,2.322-0.252,3.709-0.252c2.305,0,3.799,0.414,4.97,1.296
				c1.26,0.937,2.052,2.432,2.052,4.574c0,2.322-0.846,3.925-2.017,4.915c-1.278,1.062-3.223,1.566-5.6,1.566
				c-1.422,0-2.431-0.09-3.114-0.18V368.292z M408.135,378.195c0.233,0.054,0.611,0.054,0.954,0.054
				c2.484,0.018,4.105-1.351,4.105-4.249c0.018-2.521-1.459-3.854-3.817-3.854c-0.612,0-1.009,0.054-1.242,0.108V378.195z"/>
			<path style="fill:#FFFFFF;" d="M429.016,374.072c0,3.979-2.413,6.392-5.96,6.392c-3.601,0-5.707-2.719-5.707-6.176
				c0-3.638,2.322-6.356,5.905-6.356C426.982,367.931,429.016,370.722,429.016,374.072z M420.248,374.233
				c0,2.377,1.116,4.052,2.953,4.052c1.854,0,2.917-1.765,2.917-4.123c0-2.179-1.045-4.052-2.936-4.052
				C421.328,370.11,420.248,371.875,420.248,374.233z"/>
			<path style="fill:#FFFFFF;" d="M127.054,401.524c-0.504,0.252-1.639,0.521-3.114,0.521c-4.195,0-6.356-2.61-6.356-6.067
				c0-4.142,2.953-6.446,6.626-6.446c1.423,0,2.503,0.288,2.989,0.54l-0.559,2.179c-0.558-0.233-1.332-0.45-2.305-0.45
				c-2.179,0-3.871,1.314-3.871,4.016c0,2.431,1.44,3.961,3.89,3.961c0.828,0,1.746-0.18,2.286-0.396L127.054,401.524z"/>
			<path style="fill:#FFFFFF;" d="M128.851,389.73h2.755v9.831h4.825v2.305h-7.58V389.73z"/>
			<path style="fill:#FFFFFF;" d="M140.804,389.73v12.136h-2.755V389.73H140.804z"/>
			<path style="fill:#FFFFFF;" d="M150.399,396.734h-4.466v2.881h4.987v2.251h-7.742V389.73h7.49v2.251h-4.735v2.521h4.466V396.734z
				"/>
			<path style="fill:#FFFFFF;" d="M152.791,401.866V389.73h3.205l2.521,4.447c0.72,1.278,1.44,2.791,1.98,4.159h0.054
				c-0.18-1.603-0.233-3.241-0.233-5.06v-3.547h2.521v12.136h-2.881l-2.593-4.682c-0.721-1.296-1.513-2.862-2.106-4.285
				l-0.055,0.019c0.072,1.602,0.108,3.312,0.108,5.293v3.655H152.791z"/>
			<path style="fill:#FFFFFF;" d="M167.552,392.035h-3.26v-2.305h9.327v2.305h-3.313v9.831h-2.754V392.035z"/>
			<path style="fill:#FFFFFF;" d="M182.295,396.734h-4.466v2.881h4.987v2.251h-7.742V389.73h7.49v2.251h-4.735v2.521h4.466V396.734z
				"/>
			<path style="fill:#FFFFFF;" d="M183.534,404.008c0.558-1.603,1.044-3.475,1.314-5.113l2.755-0.181
				c-0.595,1.837-1.405,3.728-2.27,5.132L183.534,404.008z M184.506,394.61c0-0.973,0.648-1.657,1.603-1.657
				s1.585,0.667,1.603,1.657c0,0.936-0.63,1.638-1.603,1.638C185.154,396.248,184.488,395.545,184.506,394.61z"/>
		</g>
	</g>
</g>
<g id="Layer_1">
</g>
</svg>
