<?xml version="1.0" encoding="iso-8859-1"?>
<!-- Generator: Adobe Illustrator 18.0.0, SVG Export Plug-In . SVG Version: 6.00 Build 0)  -->
<!DOCTYPE svg PUBLIC "-//W3C//DTD SVG 1.1//EN" "http://www.w3.org/Graphics/SVG/1.1/DTD/svg11.dtd">
<svg version="1.1" xmlns="http://www.w3.org/2000/svg" xmlns:xlink="http://www.w3.org/1999/xlink" x="0px" y="0px"
	 viewBox="0 0 531.453 494.191" style="enable-background:new 0 0 531.453 494.191;" xml:space="preserve">
<g id="page13-4">
	
		<polygon style="fill:none;stroke:#000000;stroke-width:3.6793;stroke-linecap:round;stroke-linejoin:round;stroke-miterlimit:10;" points="
		43.446,14.904 69.635,406.333 475.632,438.052 529.613,82.648 	"/>
	<polygon style="opacity:0.8;fill:#E92325;" points="100.919,49.06 83.146,447.249 518.153,405.508 454.366,31.542 	"/>
	<polygon style="fill:#03B9DB;" points="23.262,106.379 387.98,82.648 390.61,211.407 20.388,285.052 	"/>
	
		<polyline style="fill:none;stroke:#000000;stroke-width:3.6793;stroke-linecap:round;stroke-linejoin:round;stroke-miterlimit:10;" points="
		45.65,296.379 1.84,305.543 4.782,122.591 	"/>
	<g>
		<g>
			<g>
				
					<line style="fill:none;stroke:#000000;stroke-width:3.6793;stroke-linecap:round;stroke-linejoin:round;stroke-miterlimit:10;" x1="20.388" y1="335.586" x2="43.803" y2="335.586"/>
				
					<line style="fill:none;stroke:#000000;stroke-width:3.6793;stroke-linecap:round;stroke-linejoin:round;stroke-miterlimit:10;" x1="32.095" y1="323.878" x2="32.095" y2="347.293"/>
			</g>
			<g>
				
					<line style="fill:none;stroke:#000000;stroke-width:3.6793;stroke-linecap:round;stroke-linejoin:round;stroke-miterlimit:10;" x1="274.822" y1="453.476" x2="298.237" y2="453.476"/>
				
					<line style="fill:none;stroke:#000000;stroke-width:3.6793;stroke-linecap:round;stroke-linejoin:round;stroke-miterlimit:10;" x1="286.53" y1="441.769" x2="286.53" y2="465.184"/>
			</g>
			
				<path style="fill:none;stroke:#000000;stroke-width:3.6793;stroke-linecap:round;stroke-linejoin:round;stroke-miterlimit:10;" d="
				M503.274,13.043c8.685,13.564-5.72,27.969-19.284,19.284c-0.931-0.596-1.73-1.395-2.325-2.326
				c-8.681-13.563,5.721-27.965,19.283-19.283C501.879,11.313,502.678,12.112,503.274,13.043z"/>
			<g>
				
					<line style="fill:none;stroke:#000000;stroke-width:3.6793;stroke-linecap:round;stroke-linejoin:round;stroke-miterlimit:10;" x1="211.98" y1="1.84" x2="298.237" y2="1.84"/>
				
					<line style="fill:none;stroke:#000000;stroke-width:3.6793;stroke-linecap:round;stroke-linejoin:round;stroke-miterlimit:10;" x1="264.348" y1="21.523" x2="319.935" y2="21.523"/>
			</g>
			
				<path style="fill:none;stroke:#000000;stroke-width:3.6793;stroke-linecap:round;stroke-linejoin:round;stroke-miterlimit:10;" d="
				M216.304,470.431c8.681,13.563-5.721,27.965-19.283,19.283c-0.931-0.596-1.73-1.395-2.326-2.325
				c-8.685-13.564,5.72-27.969,19.284-19.284C214.91,468.702,215.709,469.501,216.304,470.431z"/>
		</g>
	</g>
	<g>
		<path style="fill:#FFFFFF;" d="M62.628,196.165l-4.679-26.223l6.925-1.235l7.161,8.638c2.05,2.485,4.188,5.475,5.884,8.224
			l0.116-0.021c-1.006-3.393-1.755-6.912-2.456-10.842l-1.367-7.665l5.446-0.972l4.679,26.223l-6.225,1.11l-7.407-9.116
			c-2.057-2.523-4.372-5.603-6.204-8.447l-0.109,0.06c0.772,3.435,1.51,7.118,2.273,11.397l1.409,7.898L62.628,196.165z"/>
		<path style="fill:#FFFFFF;" d="M103.091,177.504l-9.649,1.722l1.11,6.225l10.777-1.923l0.867,4.863l-16.729,2.985l-4.679-26.223
			l16.186-2.888l0.867,4.863l-10.232,1.826l0.973,5.447l9.648-1.722L103.091,177.504z"/>
		<path style="fill:#FFFFFF;" d="M111.702,165.491l-7.042,1.256l-0.889-4.98l20.153-3.596l0.889,4.98l-7.159,1.277l3.79,21.243
			l-5.952,1.062L111.702,165.491z"/>
		<path style="fill:#FFFFFF;" d="M134.992,156.559c1.772-0.638,4.299-1.33,7.917-1.975c3.657-0.653,6.389-0.417,8.39,0.671
			c1.908,1.024,3.426,3.001,3.884,5.569s-0.009,4.899-1.302,6.655c-1.683,2.268-4.525,3.658-8.027,4.282
			c-0.778,0.139-1.484,0.225-2.044,0.245l1.673,9.376l-5.875,1.048L134.992,156.559z M142.99,167.416
			c0.527,0.026,1.156-0.046,2.012-0.199c3.152-0.562,4.812-2.504,4.334-5.188c-0.431-2.412-2.36-3.553-5.317-3.026
			c-1.206,0.215-2.002,0.478-2.409,0.671L142.99,167.416z"/>
		<path style="fill:#FFFFFF;" d="M157.591,152.526c1.852-0.651,4.649-1.392,7.801-1.954c3.891-0.694,6.719-0.596,8.85,0.549
			c1.778,0.967,2.96,2.643,3.391,5.055c0.597,3.346-1.366,6.065-3.478,7.285l0.021,0.117c1.961,0.413,3.285,1.983,4.377,4.277
			c1.344,2.811,2.771,6.089,3.458,7.01l-6.069,1.083c-0.56-0.663-1.563-2.691-2.918-5.782c-1.283-3.143-2.571-3.837-4.99-3.445
			l-1.79,0.319l1.839,10.31l-5.874,1.048L157.591,152.526z M165.479,162.761l2.335-0.417c2.956-0.528,4.443-2.318,4.033-4.613
			c-0.43-2.413-2.279-3.327-5.01-2.88c-1.439,0.257-2.235,0.52-2.649,0.674L165.479,162.761z"/>
		<path style="fill:#FFFFFF;" d="M206.735,156.645c1.534,8.598-2.749,14.741-10.413,16.108c-7.781,1.388-13.382-3.674-14.715-11.144
			c-1.401-7.859,2.569-14.629,10.311-16.011C199.971,144.162,205.444,149.408,206.735,156.645z M187.851,160.375
			c0.916,5.136,3.973,8.323,7.941,7.615c4.008-0.715,5.622-4.937,4.713-10.034c-0.84-4.707-3.818-8.351-7.903-7.622
			C188.595,151.049,186.941,155.278,187.851,160.375z"/>
		<path style="fill:#FFFFFF;" d="M233.394,155.34c-0.68-3.13-1.477-6.922-2.156-10.735l-0.117,0.021
			c-0.221,3.492-0.643,7.421-1.106,10.676l-1.364,10.801l-4.63,0.826l-4.612-9.655c-1.405-2.921-2.967-6.496-4.199-9.809
			l-0.078,0.014c0.476,3.568,1.081,7.635,1.47,10.938l1.31,10.043l-5.485,0.979l-3.005-26.521l7.896-1.409l4.13,8.296
			c1.359,2.889,2.759,6.011,3.891,8.98l0.117-0.021c0.198-3.166,0.475-6.789,0.811-9.859l1.245-9.214l7.743-1.381l6.117,25.966
			l-5.796,1.034L233.394,155.34z"/>
		<path style="fill:#FFFFFF;" d="M267.533,145.798c1.534,8.598-2.749,14.741-10.414,16.108c-7.78,1.388-13.381-3.674-14.713-11.144
			c-1.402-7.859,2.568-14.629,10.311-16.011C260.769,133.315,266.242,138.561,267.533,145.798z M248.649,149.528
			c0.916,5.136,3.974,8.324,7.941,7.616c4.008-0.715,5.622-4.938,4.713-10.034c-0.84-4.707-3.818-8.351-7.902-7.622
			C249.393,140.202,247.74,144.431,248.649,149.528z"/>
		<path style="fill:#FFFFFF;" d="M273.985,136.537l-7.042,1.256l-0.889-4.98l20.153-3.596l0.889,4.98l-7.159,1.277l3.79,21.243
			l-5.952,1.062L273.985,136.537z"/>
		<path style="fill:#FFFFFF;" d="M307.656,141.007l-9.648,1.721l1.11,6.226l10.777-1.923l0.867,4.863l-16.729,2.984l-4.678-26.223
			l16.184-2.888l0.868,4.863l-10.232,1.826l0.972,5.446l9.649-1.721L307.656,141.007z"/>
		<path style="fill:#FFFFFF;" d="M310.189,125.301c1.851-0.651,4.648-1.392,7.801-1.954c3.891-0.694,6.718-0.596,8.85,0.549
			c1.778,0.967,2.96,2.643,3.391,5.055c0.597,3.346-1.366,6.065-3.478,7.285l0.021,0.117c1.961,0.413,3.285,1.983,4.376,4.277
			c1.345,2.811,2.772,6.089,3.459,7.01l-6.069,1.083c-0.561-0.663-1.563-2.691-2.918-5.782c-1.284-3.143-2.571-3.837-4.99-3.445
			l-1.79,0.319l1.839,10.31l-5.874,1.048L310.189,125.301z M318.077,135.535l2.334-0.417c2.957-0.528,4.444-2.318,4.034-4.613
			c-0.43-2.413-2.279-3.327-5.01-2.88c-1.439,0.257-2.235,0.52-2.649,0.674L318.077,135.535z"/>
		<path style="fill:#FFFFFF;" d="M150.328,222.38c1.741,0.532,4.338,0.912,6.866,0.461c2.724-0.486,3.962-1.871,3.656-3.583
			c-0.292-1.634-1.703-2.346-5.056-2.911c-4.628-0.74-7.898-2.646-8.579-6.458c-0.798-4.474,2.326-8.564,8.512-9.667
			c2.957-0.528,5.247-0.294,6.929,0.129l-0.47,5.021c-1.14-0.318-3.14-0.725-5.708-0.266c-2.567,0.458-3.604,1.848-3.361,3.209
			c0.299,1.673,1.909,2.148,5.522,2.829c4.936,0.886,7.545,2.909,8.204,6.605c0.785,4.396-1.934,8.735-9.132,10.02
			c-2.996,0.534-6.091,0.284-7.716-0.269L150.328,222.38z"/>
		<path style="fill:#FFFFFF;" d="M191.355,220.6c-0.992,0.739-3.34,1.76-6.53,2.329c-9.064,1.618-14.739-3.19-16.072-10.661
			c-1.597-8.948,3.896-15.066,11.832-16.482c3.073-0.548,5.519-0.342,6.666,0.015l-0.366,4.922
			c-1.296-0.291-3.052-0.459-5.152-0.084c-4.708,0.84-7.858,4.332-6.817,10.168c0.938,5.252,4.64,8.004,9.931,7.06
			c1.789-0.319,3.704-1.062,4.788-1.737L191.355,220.6z"/>
		<path style="fill:#FFFFFF;" d="M215.822,203.189c1.534,8.598-2.748,14.741-10.413,16.108c-7.781,1.388-13.381-3.674-14.714-11.144
			c-1.402-7.859,2.568-14.63,10.311-16.011C209.058,190.706,214.531,195.951,215.822,203.189z M196.938,206.918
			c0.916,5.136,3.974,8.324,7.942,7.616c4.007-0.715,5.622-4.938,4.713-10.034c-0.84-4.707-3.818-8.351-7.903-7.622
			C197.682,197.593,196.029,201.821,196.938,206.918z"/>
		<path style="fill:#FFFFFF;" d="M217.479,190.006c1.852-0.652,4.649-1.392,7.801-1.955c3.891-0.694,6.719-0.596,8.85,0.549
			c1.778,0.967,2.96,2.643,3.391,5.055c0.597,3.346-1.366,6.065-3.478,7.284l0.021,0.117c1.961,0.413,3.285,1.984,4.377,4.278
			c1.345,2.811,2.772,6.089,3.458,7.01l-6.069,1.083c-0.56-0.663-1.563-2.692-2.918-5.782c-1.283-3.143-2.571-3.837-4.99-3.445
			l-1.79,0.32l1.839,10.31l-5.874,1.048L217.479,190.006z M225.367,200.24l2.335-0.417c2.956-0.527,4.443-2.318,4.034-4.613
			c-0.431-2.413-2.28-3.327-5.011-2.88c-1.439,0.257-2.235,0.52-2.649,0.674L225.367,200.24z"/>
		<path style="fill:#FFFFFF;" d="M258.785,197.891l-9.648,1.722l1.11,6.225l10.776-1.923l0.868,4.863l-16.729,2.985l-4.679-26.223
			l16.186-2.888l0.867,4.863l-10.232,1.826l0.972,5.447l9.648-1.722L258.785,197.891z"/>
	</g>
	<g>
		<path style="fill:#FFFFFF;" d="M118.11,298.054l-0.672,2.423h-2.213l2.885-9.441h2.802l2.927,9.441h-2.297l-0.729-2.423H118.11z
			 M120.505,296.456l-0.588-2.003c-0.168-0.561-0.336-1.261-0.476-1.82h-0.028c-0.14,0.56-0.28,1.274-0.434,1.82l-0.561,2.003
			H120.505z"/>
		<path style="fill:#FFFFFF;" d="M131.679,300.21c-0.393,0.196-1.275,0.406-2.423,0.406c-3.264,0-4.945-2.03-4.945-4.72
			c0-3.222,2.297-5.015,5.155-5.015c1.106,0,1.947,0.224,2.325,0.42l-0.434,1.694c-0.434-0.182-1.037-0.35-1.793-0.35
			c-1.695,0-3.012,1.022-3.012,3.123c0,1.892,1.121,3.082,3.026,3.082c0.644,0,1.358-0.14,1.779-0.308L131.679,300.21z"/>
		<path style="fill:#FFFFFF;" d="M141.297,295.658c0,3.096-1.877,4.973-4.637,4.973c-2.801,0-4.44-2.115-4.44-4.805
			c0-2.83,1.807-4.944,4.595-4.944C139.714,290.882,141.297,293.053,141.297,295.658z M134.476,295.784
			c0,1.849,0.868,3.151,2.297,3.151c1.443,0,2.27-1.373,2.27-3.208c0-1.694-0.812-3.151-2.283-3.151
			C135.316,292.576,134.476,293.949,134.476,295.784z"/>
		<path style="fill:#FFFFFF;" d="M150.677,296.862c-0.042-1.135-0.084-2.507-0.084-3.88h-0.042c-0.294,1.205-0.687,2.55-1.051,3.656
			l-1.148,3.684h-1.667l-1.008-3.656c-0.308-1.106-0.63-2.451-0.854-3.684h-0.028c-0.056,1.274-0.098,2.731-0.168,3.908
			l-0.168,3.586h-1.975l0.603-9.441h2.843l0.925,3.152c0.294,1.092,0.588,2.269,0.798,3.375h0.042
			c0.266-1.092,0.588-2.339,0.896-3.39l1.008-3.138h2.788l0.519,9.441h-2.087L150.677,296.862z"/>
		<path style="fill:#FFFFFF;" d="M154.536,291.161c0.659-0.111,1.583-0.195,2.886-0.195c1.317,0,2.255,0.252,2.886,0.756
			c0.602,0.477,1.008,1.261,1.008,2.186c0,0.924-0.308,1.709-0.869,2.241c-0.728,0.687-1.807,0.994-3.067,0.994
			c-0.28,0-0.532-0.014-0.729-0.042v3.376h-2.115V291.161z M156.651,295.448c0.182,0.042,0.406,0.056,0.714,0.056
			c1.135,0,1.835-0.574,1.835-1.541c0-0.868-0.602-1.387-1.667-1.387c-0.435,0-0.729,0.042-0.883,0.084V295.448z"/>
		<path style="fill:#FFFFFF;" d="M164.029,298.054l-0.672,2.423h-2.213l2.885-9.441h2.802l2.928,9.441h-2.297l-0.729-2.423H164.029z
			 M166.425,296.456l-0.588-2.003c-0.168-0.561-0.336-1.261-0.476-1.82h-0.028c-0.14,0.56-0.28,1.274-0.434,1.82l-0.561,2.003
			H166.425z"/>
		<path style="fill:#FFFFFF;" d="M171.014,300.477v-9.441h2.494l1.961,3.46c0.561,0.995,1.121,2.171,1.541,3.236h0.042
			c-0.14-1.247-0.182-2.521-0.182-3.937v-2.76h1.961v9.441h-2.241l-2.017-3.642c-0.561-1.009-1.177-2.228-1.639-3.334l-0.042,0.014
			c0.056,1.247,0.084,2.577,0.084,4.118v2.844H171.014z"/>
		<path style="fill:#FFFFFF;" d="M182.817,291.035v3.628h3.516v-3.628h2.129v9.441h-2.129v-3.95h-3.516v3.95h-2.144v-9.441H182.817z
			"/>
		<path style="fill:#FFFFFF;" d="M192.519,298.054l-0.672,2.423h-2.213l2.885-9.441h2.802l2.927,9.441h-2.297l-0.729-2.423H192.519z
			 M194.915,296.456l-0.588-2.003c-0.168-0.561-0.336-1.261-0.476-1.82h-0.028c-0.14,0.56-0.28,1.274-0.434,1.82l-0.561,2.003
			H194.915z"/>
		<path style="fill:#FFFFFF;" d="M207.488,296.862c-0.042-1.135-0.084-2.507-0.084-3.88h-0.042c-0.294,1.205-0.687,2.55-1.051,3.656
			l-1.148,3.684h-1.667l-1.008-3.656c-0.308-1.106-0.63-2.451-0.854-3.684h-0.028c-0.056,1.274-0.098,2.731-0.168,3.908
			l-0.168,3.586h-1.975l0.603-9.441h2.843l0.925,3.152c0.294,1.092,0.588,2.269,0.798,3.375h0.042
			c0.266-1.092,0.588-2.339,0.896-3.39l1.008-3.138h2.788l0.519,9.441h-2.087L207.488,296.862z"/>
		<path style="fill:#FFFFFF;" d="M216.965,296.484h-3.474v2.241h3.88v1.751h-6.023v-9.441h5.827v1.751h-3.684v1.961h3.474V296.484z"
			/>
		<path style="fill:#FFFFFF;" d="M218.824,300.477v-9.441h2.494l1.961,3.46c0.561,0.995,1.121,2.171,1.541,3.236h0.042
			c-0.14-1.247-0.182-2.521-0.182-3.937v-2.76h1.961v9.441h-2.241l-2.017-3.642c-0.561-1.009-1.177-2.228-1.639-3.334l-0.042,0.014
			c0.056,1.247,0.084,2.577,0.084,4.118v2.844H218.824z"/>
		<path style="fill:#FFFFFF;" d="M230.305,292.828h-2.536v-1.793h7.256v1.793h-2.577v7.648h-2.143V292.828z"/>
		<path style="fill:#FFFFFF;" d="M244.393,295.658c0,3.096-1.877,4.973-4.637,4.973c-2.802,0-4.44-2.115-4.44-4.805
			c0-2.83,1.807-4.944,4.595-4.944C242.81,290.882,244.393,293.053,244.393,295.658z M237.571,295.784
			c0,1.849,0.868,3.151,2.297,3.151c1.442,0,2.269-1.373,2.269-3.208c0-1.694-0.812-3.151-2.283-3.151
			C238.411,292.576,237.571,293.949,237.571,295.784z"/>
		<path style="fill:#FFFFFF;" d="M248.616,291.161c0.785-0.126,1.807-0.195,2.886-0.195c1.793,0,2.956,0.321,3.866,1.008
			c0.98,0.729,1.597,1.892,1.597,3.559c0,1.807-0.658,3.054-1.569,3.823c-0.995,0.827-2.507,1.219-4.356,1.219
			c-1.106,0-1.891-0.069-2.423-0.14V291.161z M250.759,298.865c0.182,0.043,0.476,0.043,0.742,0.043
			c1.933,0.014,3.194-1.051,3.194-3.307c0.014-1.961-1.135-2.997-2.97-2.997c-0.476,0-0.784,0.042-0.966,0.084V298.865z"/>
		<path style="fill:#FFFFFF;" d="M267.003,295.658c0,3.096-1.878,4.973-4.637,4.973c-2.802,0-4.44-2.115-4.44-4.805
			c0-2.83,1.807-4.944,4.595-4.944C265.42,290.882,267.003,293.053,267.003,295.658z M260.181,295.784
			c0,1.849,0.868,3.151,2.297,3.151c1.442,0,2.269-1.373,2.269-3.208c0-1.694-0.812-3.151-2.283-3.151
			C261.022,292.576,260.181,293.949,260.181,295.784z"/>
		<path style="fill:#FFFFFF;" d="M271.227,300.477v-9.441h2.493l1.961,3.46c0.561,0.995,1.121,2.171,1.541,3.236h0.042
			c-0.141-1.247-0.183-2.521-0.183-3.937v-2.76h1.961v9.441h-2.24l-2.018-3.642c-0.561-1.009-1.177-2.228-1.639-3.334l-0.042,0.014
			c0.056,1.247,0.084,2.577,0.084,4.118v2.844H271.227z"/>
		<path style="fill:#FFFFFF;" d="M280.887,291.161c0.658-0.111,1.583-0.195,2.886-0.195c1.316,0,2.255,0.252,2.885,0.756
			c0.603,0.477,1.009,1.261,1.009,2.186c0,0.924-0.308,1.709-0.868,2.241c-0.729,0.687-1.808,0.994-3.068,0.994
			c-0.279,0-0.532-0.014-0.728-0.042v3.376h-2.115V291.161z M283.003,295.448c0.182,0.042,0.406,0.056,0.714,0.056
			c1.135,0,1.835-0.574,1.835-1.541c0-0.868-0.603-1.387-1.667-1.387c-0.434,0-0.729,0.042-0.882,0.084V295.448z"/>
		<path style="fill:#FFFFFF;" d="M289.09,298.277c0.575,0.294,1.457,0.588,2.368,0.588c0.98,0,1.498-0.406,1.498-1.022
			c0-0.588-0.448-0.924-1.583-1.33c-1.568-0.547-2.591-1.415-2.591-2.788c0-1.61,1.345-2.843,3.572-2.843
			c1.064,0,1.849,0.224,2.409,0.476l-0.477,1.723c-0.378-0.182-1.051-0.447-1.976-0.447c-0.924,0-1.372,0.42-1.372,0.91
			c0,0.603,0.532,0.868,1.751,1.33c1.667,0.617,2.451,1.485,2.451,2.816c0,1.582-1.219,2.927-3.811,2.927
			c-1.078,0-2.143-0.279-2.675-0.574L289.09,298.277z"/>
		<path style="fill:#FFFFFF;" d="M302.406,290.265c-0.798,1.289-1.414,3.166-1.414,5.674c0,2.465,0.63,4.328,1.414,5.645h-1.484
			c-0.757-1.093-1.597-2.955-1.597-5.645c0.014-2.731,0.84-4.581,1.597-5.674H302.406z"/>
		<path style="fill:#FFFFFF;" d="M306.632,300.477v-9.441h2.493l1.961,3.46c0.561,0.995,1.12,2.171,1.541,3.236h0.042
			c-0.141-1.247-0.183-2.521-0.183-3.937v-2.76h1.962v9.441h-2.242l-2.017-3.642c-0.561-1.009-1.177-2.228-1.639-3.334l-0.042,0.014
			c0.056,1.247,0.084,2.577,0.084,4.118v2.844H306.632z"/>
		<path style="fill:#FFFFFF;" d="M321.91,296.484h-3.475v2.241h3.881v1.751h-6.023v-9.441h5.827v1.751h-3.685v1.961h3.475V296.484z"
			/>
		<path style="fill:#FFFFFF;" d="M325.658,292.828h-2.535v-1.793h7.256v1.793h-2.577v7.648h-2.144V292.828z"/>
		<path style="fill:#FFFFFF;" d="M334.337,291.161c0.658-0.111,1.583-0.195,2.885-0.195c1.317,0,2.256,0.252,2.886,0.756
			c0.603,0.477,1.009,1.261,1.009,2.186c0,0.924-0.309,1.709-0.868,2.241c-0.729,0.687-1.808,0.994-3.068,0.994
			c-0.279,0-0.532-0.014-0.728-0.042v3.376h-2.115V291.161z M336.453,295.448c0.182,0.042,0.406,0.056,0.714,0.056
			c1.135,0,1.835-0.574,1.835-1.541c0-0.868-0.603-1.387-1.667-1.387c-0.434,0-0.729,0.042-0.882,0.084V295.448z"/>
		<path style="fill:#FFFFFF;" d="M342.471,291.161c0.687-0.111,1.709-0.195,2.843-0.195c1.401,0,2.382,0.21,3.054,0.742
			c0.561,0.448,0.869,1.106,0.869,1.975c0,1.205-0.854,2.031-1.667,2.325v0.042c0.658,0.267,1.022,0.896,1.261,1.766
			c0.294,1.064,0.588,2.297,0.771,2.661h-2.186c-0.154-0.267-0.378-1.036-0.658-2.199c-0.252-1.177-0.658-1.499-1.527-1.513h-0.644
			v3.712h-2.115V291.161z M344.586,295.224h0.84c1.064,0,1.695-0.532,1.695-1.358c0-0.869-0.589-1.303-1.569-1.317
			c-0.518,0-0.812,0.042-0.966,0.07V295.224z"/>
		<path style="fill:#FFFFFF;" d="M359.36,295.658c0,3.096-1.877,4.973-4.637,4.973c-2.802,0-4.44-2.115-4.44-4.805
			c0-2.83,1.807-4.944,4.595-4.944C357.777,290.882,359.36,293.053,359.36,295.658z M352.538,295.784
			c0,1.849,0.869,3.151,2.298,3.151c1.442,0,2.269-1.373,2.269-3.208c0-1.694-0.812-3.151-2.283-3.151
			C353.378,292.576,352.538,293.949,352.538,295.784z"/>
		<path style="fill:#FFFFFF;" d="M368.74,296.862c-0.042-1.135-0.084-2.507-0.084-3.88h-0.042c-0.295,1.205-0.687,2.55-1.051,3.656
			l-1.148,3.684h-1.667l-1.009-3.656c-0.309-1.106-0.631-2.451-0.854-3.684h-0.028c-0.056,1.274-0.098,2.731-0.168,3.908
			l-0.168,3.586h-1.975l0.602-9.441h2.844l0.925,3.152c0.294,1.092,0.588,2.269,0.798,3.375h0.042
			c0.267-1.092,0.589-2.339,0.896-3.39l1.009-3.138h2.788l0.518,9.441h-2.087L368.74,296.862z"/>
		<path style="fill:#FFFFFF;" d="M381.242,295.658c0,3.096-1.877,4.973-4.637,4.973c-2.802,0-4.44-2.115-4.44-4.805
			c0-2.83,1.807-4.944,4.595-4.944C379.659,290.882,381.242,293.053,381.242,295.658z M374.419,295.784
			c0,1.849,0.869,3.151,2.298,3.151c1.442,0,2.269-1.373,2.269-3.208c0-1.694-0.812-3.151-2.283-3.151
			C375.26,292.576,374.419,293.949,374.419,295.784z"/>
		<path style="fill:#FFFFFF;" d="M384.066,292.828h-2.535v-1.793h7.256v1.793h-2.577v7.648h-2.144V292.828z"/>
		<path style="fill:#FFFFFF;" d="M395.535,296.484h-3.475v2.241h3.881v1.751h-6.023v-9.441h5.827v1.751h-3.685v1.961h3.475V296.484z
			"/>
		<path style="fill:#FFFFFF;" d="M397.393,291.161c0.687-0.111,1.709-0.195,2.843-0.195c1.401,0,2.382,0.21,3.054,0.742
			c0.561,0.448,0.869,1.106,0.869,1.975c0,1.205-0.854,2.031-1.667,2.325v0.042c0.658,0.267,1.022,0.896,1.261,1.766
			c0.294,1.064,0.588,2.297,0.771,2.661h-2.186c-0.154-0.267-0.378-1.036-0.658-2.199c-0.252-1.177-0.658-1.499-1.527-1.513h-0.644
			v3.712h-2.115V291.161z M399.508,295.224h0.84c1.064,0,1.695-0.532,1.695-1.358c0-0.869-0.589-1.303-1.569-1.317
			c-0.518,0-0.812,0.042-0.966,0.07V295.224z"/>
		<path style="fill:#FFFFFF;" d="M408.592,298.277c0.575,0.294,1.457,0.588,2.368,0.588c0.98,0,1.498-0.406,1.498-1.022
			c0-0.588-0.448-0.924-1.583-1.33c-1.568-0.547-2.591-1.415-2.591-2.788c0-1.61,1.345-2.843,3.572-2.843
			c1.064,0,1.849,0.224,2.409,0.476l-0.477,1.723c-0.378-0.182-1.051-0.447-1.976-0.447c-0.924,0-1.372,0.42-1.372,0.91
			c0,0.603,0.532,0.868,1.751,1.33c1.667,0.617,2.451,1.485,2.451,2.816c0,1.582-1.219,2.927-3.811,2.927
			c-1.078,0-2.143-0.279-2.675-0.574L408.592,298.277z"/>
		<path style="fill:#FFFFFF;" d="M423.016,300.21c-0.393,0.196-1.274,0.406-2.424,0.406c-3.264,0-4.944-2.03-4.944-4.72
			c0-3.222,2.297-5.015,5.155-5.015c1.106,0,1.946,0.224,2.325,0.42l-0.435,1.694c-0.435-0.182-1.036-0.35-1.793-0.35
			c-1.695,0-3.012,1.022-3.012,3.123c0,1.892,1.121,3.082,3.025,3.082c0.645,0,1.359-0.14,1.779-0.308L423.016,300.21z"/>
		<path style="fill:#FFFFFF;" d="M432.635,295.658c0,3.096-1.877,4.973-4.637,4.973c-2.802,0-4.44-2.115-4.44-4.805
			c0-2.83,1.807-4.944,4.595-4.944C431.052,290.882,432.635,293.053,432.635,295.658z M425.813,295.784
			c0,1.849,0.869,3.151,2.298,3.151c1.442,0,2.269-1.373,2.269-3.208c0-1.694-0.812-3.151-2.283-3.151
			C426.654,292.576,425.813,293.949,425.813,295.784z"/>
		<path style="fill:#FFFFFF;" d="M434.031,291.161c0.687-0.111,1.709-0.195,2.843-0.195c1.401,0,2.382,0.21,3.054,0.742
			c0.561,0.448,0.869,1.106,0.869,1.975c0,1.205-0.854,2.031-1.667,2.325v0.042c0.658,0.267,1.022,0.896,1.261,1.766
			c0.294,1.064,0.588,2.297,0.771,2.661h-2.186c-0.154-0.267-0.378-1.036-0.658-2.199c-0.252-1.177-0.658-1.499-1.527-1.513h-0.644
			v3.712h-2.115V291.161z M436.146,295.224h0.84c1.064,0,1.695-0.532,1.695-1.358c0-0.869-0.589-1.303-1.569-1.317
			c-0.518,0-0.812,0.042-0.966,0.07V295.224z"/>
		<path style="fill:#FFFFFF;" d="M447.95,296.484h-3.475v2.241h3.88v1.751h-6.022v-9.441h5.827v1.751h-3.685v1.961h3.475V296.484z"
			/>
		<path style="fill:#FFFFFF;" d="M449.374,301.583c0.771-1.303,1.415-3.193,1.415-5.673s-0.631-4.343-1.415-5.646h1.484
			c0.743,1.079,1.598,2.914,1.598,5.659c-0.015,2.718-0.854,4.553-1.598,5.659H449.374z"/>
		<path style="fill:#FFFFFF;" d="M123.979,318.902c-1.345-0.393-2.465-0.799-3.726-1.331c-0.21-0.084-0.434-0.126-0.658-0.14
			c-2.129-0.141-4.118-1.709-4.118-4.791c0-2.829,1.793-4.958,4.608-4.958c2.886,0,4.469,2.185,4.469,4.762
			c0,2.144-0.995,3.656-2.241,4.217v0.056c0.728,0.21,1.541,0.379,2.283,0.532L123.979,318.902z M122.298,312.528
			c0-1.723-0.812-3.151-2.269-3.151c-1.457,0-2.297,1.429-2.297,3.193c-0.014,1.793,0.854,3.166,2.283,3.166
			C121.458,315.736,122.298,314.378,122.298,312.528z"/>
		<path style="fill:#FFFFFF;" d="M128.078,307.836v5.436c0,1.625,0.616,2.451,1.709,2.451c1.121,0,1.737-0.784,1.737-2.451v-5.436
			h2.129v5.295c0,2.914-1.471,4.301-3.937,4.301c-2.381,0-3.782-1.317-3.782-4.328v-5.268H128.078z"/>
		<path style="fill:#FFFFFF;" d="M141.114,313.285h-3.474v2.241h3.88v1.751h-6.023v-9.441h5.827v1.751h-3.684v1.961h3.474V313.285z"
			/>
		<path style="fill:#FFFFFF;" d="M147.944,307.836v9.441h-2.144v-9.441H147.944z"/>
		<path style="fill:#FFFFFF;" d="M149.791,317.277v-9.441h2.494l1.961,3.46c0.561,0.995,1.121,2.171,1.541,3.236h0.042
			c-0.14-1.247-0.182-2.521-0.182-3.937v-2.76h1.961v9.441h-2.241l-2.017-3.642c-0.561-1.009-1.177-2.228-1.639-3.334l-0.042,0.014
			c0.056,1.247,0.084,2.577,0.084,4.118v2.844H149.791z"/>
		<path style="fill:#FFFFFF;" d="M159.45,307.962c0.785-0.126,1.807-0.195,2.886-0.195c1.793,0,2.956,0.321,3.866,1.008
			c0.98,0.729,1.597,1.892,1.597,3.559c0,1.807-0.658,3.054-1.569,3.823c-0.995,0.827-2.507,1.219-4.356,1.219
			c-1.106,0-1.891-0.069-2.423-0.14V307.962z M161.594,315.666c0.182,0.043,0.476,0.043,0.742,0.043
			c1.933,0.014,3.194-1.051,3.194-3.307c0.014-1.961-1.135-2.997-2.97-2.997c-0.476,0-0.785,0.042-0.966,0.084V315.666z"/>
		<path style="fill:#FFFFFF;" d="M171.338,307.836v9.441h-2.144v-9.441H171.338z"/>
		<path style="fill:#FFFFFF;" d="M180.118,317.011c-0.393,0.196-1.275,0.406-2.423,0.406c-3.264,0-4.945-2.03-4.945-4.72
			c0-3.222,2.297-5.015,5.155-5.015c1.106,0,1.947,0.224,2.325,0.42l-0.434,1.694c-0.434-0.182-1.037-0.35-1.793-0.35
			c-1.695,0-3.012,1.022-3.012,3.123c0,1.892,1.121,3.082,3.026,3.082c0.644,0,1.358-0.14,1.779-0.308L180.118,317.011z"/>
		<path style="fill:#FFFFFF;" d="M183.853,314.855l-0.672,2.423h-2.213l2.885-9.441h2.802l2.927,9.441h-2.297l-0.729-2.423H183.853z
			 M186.249,313.257l-0.588-2.003c-0.168-0.561-0.336-1.261-0.476-1.82h-0.028c-0.14,0.56-0.28,1.274-0.434,1.82l-0.561,2.003
			H186.249z"/>
		<path style="fill:#FFFFFF;" d="M195.865,314.855l-0.672,2.423h-2.213l2.885-9.441h2.802l2.928,9.441h-2.297l-0.729-2.423H195.865z
			 M198.261,313.257l-0.588-2.003c-0.168-0.561-0.336-1.261-0.476-1.82h-0.028c-0.14,0.56-0.28,1.274-0.434,1.82l-0.561,2.003
			H198.261z"/>
		<path style="fill:#FFFFFF;" d="M207.822,307.836v9.441h-2.144v-9.441H207.822z"/>
		<path style="fill:#FFFFFF;" d="M209.668,317.277v-9.441h2.494l1.961,3.46c0.56,0.995,1.121,2.171,1.541,3.236h0.042
			c-0.14-1.247-0.182-2.521-0.182-3.937v-2.76h1.961v9.441h-2.241l-2.017-3.642c-0.56-1.009-1.177-2.228-1.639-3.334l-0.042,0.014
			c0.056,1.247,0.084,2.577,0.084,4.118v2.844H209.668z"/>
		<path style="fill:#FFFFFF;" d="M221.149,309.629h-2.536v-1.793h7.256v1.793h-2.577v7.648h-2.143V309.629z"/>
		<path style="fill:#FFFFFF;" d="M232.617,313.285h-3.474v2.241h3.88v1.751H227v-9.441h5.827v1.751h-3.684v1.961h3.474V313.285z"/>
		<path style="fill:#FFFFFF;" d="M234.476,317.277v-9.441h2.494l1.961,3.46c0.56,0.995,1.121,2.171,1.541,3.236h0.042
			c-0.14-1.247-0.182-2.521-0.182-3.937v-2.76h1.961v9.441h-2.241l-2.017-3.642c-0.56-1.009-1.177-2.228-1.639-3.334l-0.042,0.014
			c0.056,1.247,0.084,2.577,0.084,4.118v2.844H234.476z"/>
		<path style="fill:#FFFFFF;" d="M251.069,317.011c-0.378,0.183-1.191,0.393-2.255,0.406l-0.238,0.477
			c0.546,0.126,1.023,0.49,1.023,1.148c0,0.967-0.869,1.289-1.667,1.289c-0.42,0-0.883-0.084-1.205-0.267l0.28-0.868
			c0.21,0.112,0.532,0.196,0.785,0.196c0.28,0,0.504-0.098,0.504-0.336c0-0.295-0.322-0.448-1.107-0.532l0.532-1.163
			c-2.661-0.351-4.02-2.241-4.02-4.664c0-3.222,2.297-5.015,5.155-5.015c1.106,0,1.947,0.224,2.325,0.42l-0.434,1.694
			c-0.434-0.182-1.037-0.35-1.793-0.35c-1.695,0-3.012,1.022-3.012,3.123c0,1.892,1.121,3.082,3.026,3.082
			c0.644,0,1.358-0.14,1.779-0.308L251.069,317.011z"/>
		<path style="fill:#FFFFFF;" d="M254.804,314.855l-0.672,2.423h-2.213l2.885-9.441h2.802l2.928,9.441h-2.297l-0.729-2.423H254.804z
			 M254.356,307.262c-0.042-1.177,0.406-1.778,1.079-1.778c0.378,0,0.63,0.126,0.896,0.279c0.224,0.141,0.435,0.267,0.617,0.267
			c0.238,0,0.322-0.14,0.378-0.603h0.953c0.042,1.261-0.364,1.751-1.107,1.751c-0.378,0-0.658-0.126-0.91-0.266
			c-0.238-0.126-0.406-0.253-0.588-0.253s-0.308,0.211-0.336,0.603H254.356z M257.199,313.257l-0.588-2.003
			c-0.168-0.561-0.336-1.261-0.476-1.82h-0.028c-0.14,0.56-0.28,1.274-0.434,1.82l-0.561,2.003H257.199z"/>
		<path style="fill:#FFFFFF;" d="M270.083,312.459c0,3.096-1.877,4.973-4.637,4.973c-2.802,0-4.44-2.115-4.44-4.805
			c0-2.83,1.807-4.944,4.595-4.944C268.5,307.683,270.083,309.854,270.083,312.459z M263.26,312.585
			c0,1.849,0.868,3.151,2.297,3.151c1.443,0,2.269-1.373,2.269-3.208c0-1.694-0.812-3.151-2.283-3.151
			C264.101,309.377,263.26,310.75,263.26,312.585z"/>
		<path style="fill:#FFFFFF;" d="M274.305,307.962c0.784-0.126,1.807-0.195,2.886-0.195c1.793,0,2.955,0.321,3.865,1.008
			c0.98,0.729,1.598,1.892,1.598,3.559c0,1.807-0.659,3.054-1.569,3.823c-0.994,0.827-2.507,1.219-4.356,1.219
			c-1.106,0-1.891-0.069-2.423-0.14V307.962z M276.448,315.666c0.183,0.043,0.477,0.043,0.743,0.043
			c1.933,0.014,3.193-1.051,3.193-3.307c0.014-1.961-1.135-2.997-2.97-2.997c-0.477,0-0.784,0.042-0.967,0.084V315.666z"/>
		<path style="fill:#FFFFFF;" d="M292.692,312.459c0,3.096-1.877,4.973-4.637,4.973c-2.802,0-4.44-2.115-4.44-4.805
			c0-2.83,1.807-4.944,4.595-4.944C291.109,307.683,292.692,309.854,292.692,312.459z M285.87,312.585
			c0,1.849,0.869,3.151,2.298,3.151c1.442,0,2.269-1.373,2.269-3.208c0-1.694-0.812-3.151-2.283-3.151
			C286.711,309.377,285.87,310.75,285.87,312.585z"/>
		<path style="fill:#FFFFFF;" d="M303.849,317.011c-0.393,0.196-1.274,0.406-2.424,0.406c-3.264,0-4.944-2.03-4.944-4.72
			c0-3.222,2.297-5.015,5.155-5.015c1.106,0,1.946,0.224,2.325,0.42l-0.435,1.694c-0.435-0.182-1.037-0.35-1.793-0.35
			c-1.695,0-3.012,1.022-3.012,3.123c0,1.892,1.121,3.082,3.025,3.082c0.645,0,1.359-0.14,1.779-0.308L303.849,317.011z"/>
		<path style="fill:#FFFFFF;" d="M305.246,307.836h2.143v7.648h3.754v1.793h-5.896V307.836z"/>
		<path style="fill:#FFFFFF;" d="M314.542,307.836v9.441h-2.143v-9.441H314.542z"/>
		<path style="fill:#FFFFFF;" d="M322.006,313.285h-3.475v2.241h3.88v1.751h-6.022v-9.441h5.827v1.751h-3.685v1.961h3.475V313.285z"
			/>
		<path style="fill:#FFFFFF;" d="M323.865,317.277v-9.441h2.493l1.961,3.46c0.561,0.995,1.12,2.171,1.541,3.236h0.042
			c-0.141-1.247-0.183-2.521-0.183-3.937v-2.76h1.962v9.441h-2.242l-2.017-3.642c-0.561-1.009-1.177-2.228-1.639-3.334l-0.042,0.014
			c0.056,1.247,0.084,2.577,0.084,4.118v2.844H323.865z"/>
		<path style="fill:#FFFFFF;" d="M335.345,309.629h-2.535v-1.793h7.256v1.793h-2.577v7.648h-2.144V309.629z"/>
		<path style="fill:#FFFFFF;" d="M346.814,313.285h-3.475v2.241h3.881v1.751h-6.023v-9.441h5.827v1.751h-3.685v1.961h3.475V313.285z
			"/>
		<path style="fill:#FFFFFF;" d="M357.118,313.285h-3.475v2.241h3.88v1.751h-6.022v-9.441h5.827v1.751h-3.685v1.961h3.475V313.285z"
			/>
		<path style="fill:#FFFFFF;" d="M366.961,313.663c-0.042-1.135-0.084-2.507-0.084-3.88h-0.042c-0.295,1.205-0.687,2.55-1.051,3.656
			l-1.148,3.684h-1.667l-1.009-3.656c-0.309-1.106-0.631-2.451-0.854-3.684h-0.028c-0.056,1.274-0.098,2.731-0.168,3.908
			l-0.168,3.586h-1.975l0.602-9.441h2.844l0.925,3.152c0.294,1.092,0.588,2.269,0.798,3.375h0.042
			c0.267-1.092,0.589-2.339,0.896-3.39l1.009-3.138h2.788l0.518,9.441H367.1L366.961,313.663z"/>
		<path style="fill:#FFFFFF;" d="M373.648,307.962c0.687-0.111,1.709-0.195,2.843-0.195c1.401,0,2.382,0.21,3.054,0.742
			c0.561,0.448,0.869,1.106,0.869,1.975c0,1.205-0.854,2.031-1.667,2.325v0.042c0.658,0.267,1.022,0.896,1.261,1.766
			c0.294,1.064,0.588,2.297,0.771,2.661h-2.186c-0.154-0.267-0.378-1.036-0.658-2.199c-0.252-1.177-0.658-1.499-1.527-1.513h-0.644
			v3.712h-2.115V307.962z M375.763,312.025h0.84c1.064,0,1.695-0.532,1.695-1.358c0-0.869-0.589-1.303-1.569-1.317
			c-0.518,0-0.812,0.042-0.966,0.07V312.025z"/>
		<path style="fill:#FFFFFF;" d="M387.567,313.285h-3.475v2.241h3.88v1.751h-6.022v-9.441h5.827v1.751h-3.685v1.961h3.475V313.285z"
			/>
		<path style="fill:#FFFFFF;" d="M396.359,317.011c-0.393,0.196-1.274,0.406-2.424,0.406c-3.264,0-4.944-2.03-4.944-4.72
			c0-3.222,2.297-5.015,5.155-5.015c1.106,0,1.946,0.224,2.325,0.42l-0.435,1.694c-0.435-0.182-1.037-0.35-1.793-0.35
			c-1.695,0-3.012,1.022-3.012,3.123c0,1.892,1.121,3.082,3.025,3.082c0.645,0,1.359-0.14,1.779-0.308L396.359,317.011z"/>
		<path style="fill:#FFFFFF;" d="M405.978,312.459c0,3.096-1.877,4.973-4.637,4.973c-2.802,0-4.44-2.115-4.44-4.805
			c0-2.83,1.807-4.944,4.595-4.944C404.395,307.683,405.978,309.854,405.978,312.459z M399.156,312.585
			c0,1.849,0.869,3.151,2.298,3.151c1.442,0,2.269-1.373,2.269-3.208c0-1.694-0.812-3.151-2.283-3.151
			C399.997,309.377,399.156,310.75,399.156,312.585z"/>
		<path style="fill:#FFFFFF;" d="M415.358,313.663c-0.042-1.135-0.084-2.507-0.084-3.88h-0.042c-0.295,1.205-0.687,2.55-1.051,3.656
			l-1.148,3.684h-1.667l-1.009-3.656c-0.309-1.106-0.631-2.451-0.854-3.684h-0.028c-0.056,1.274-0.098,2.731-0.168,3.908
			l-0.168,3.586h-1.975l0.602-9.441h2.844l0.925,3.152c0.294,1.092,0.588,2.269,0.798,3.375h0.042
			c0.267-1.092,0.589-2.339,0.896-3.39l1.009-3.138h2.788l0.518,9.441h-2.087L415.358,313.663z"/>
		<path style="fill:#FFFFFF;" d="M424.835,313.285h-3.475v2.241h3.88v1.751h-6.022v-9.441h5.827v1.751h-3.685v1.961h3.475V313.285z"
			/>
		<path style="fill:#FFFFFF;" d="M426.693,317.277v-9.441h2.493l1.961,3.46c0.561,0.995,1.12,2.171,1.541,3.236h0.042
			c-0.141-1.247-0.183-2.521-0.183-3.937v-2.76h1.962v9.441h-2.242l-2.017-3.642c-0.561-1.009-1.177-2.228-1.639-3.334l-0.042,0.014
			c0.056,1.247,0.084,2.577,0.084,4.118v2.844H426.693z"/>
		<path style="fill:#FFFFFF;" d="M436.353,307.962c0.784-0.126,1.807-0.195,2.885-0.195c1.793,0,2.956,0.321,3.866,1.008
			c0.98,0.729,1.598,1.892,1.598,3.559c0,1.807-0.659,3.054-1.569,3.823c-0.994,0.827-2.507,1.219-4.356,1.219
			c-1.106,0-1.891-0.069-2.423-0.14V307.962z M438.496,315.666c0.183,0.043,0.477,0.043,0.742,0.043
			c1.934,0.014,3.194-1.051,3.194-3.307c0.014-1.961-1.135-2.997-2.97-2.997c-0.477,0-0.784,0.042-0.967,0.084V315.666z"/>
		<path style="fill:#FFFFFF;" d="M448.073,314.855l-0.673,2.423h-2.213l2.886-9.441h2.801l2.928,9.441h-2.297l-0.729-2.423H448.073z
			 M450.467,313.257l-0.588-2.003c-0.168-0.561-0.336-1.261-0.477-1.82h-0.027c-0.141,0.56-0.28,1.274-0.435,1.82l-0.561,2.003
			H450.467z"/>
		<path style="fill:#FFFFFF;" d="M455.057,307.962c0.687-0.111,1.709-0.195,2.843-0.195c1.401,0,2.382,0.21,3.054,0.742
			c0.561,0.448,0.869,1.106,0.869,1.975c0,1.205-0.854,2.031-1.667,2.325v0.042c0.658,0.267,1.022,0.896,1.261,1.766
			c0.294,1.064,0.588,2.297,0.771,2.661h-2.186c-0.154-0.267-0.378-1.036-0.658-2.199c-0.252-1.177-0.658-1.499-1.527-1.513h-0.644
			v3.712h-2.115V307.962z M457.172,312.025h0.84c1.064,0,1.695-0.532,1.695-1.358c0-0.869-0.589-1.303-1.569-1.317
			c-0.518,0-0.812,0.042-0.966,0.07V312.025z"/>
		<path style="fill:#FFFFFF;" d="M118.11,331.654l-0.672,2.423h-2.213l2.885-9.441h2.802l2.927,9.441h-2.297l-0.729-2.423H118.11z
			 M120.505,330.057l-0.588-2.003c-0.168-0.561-0.336-1.261-0.476-1.821h-0.028c-0.14,0.561-0.28,1.275-0.434,1.821l-0.561,2.003
			H120.505z"/>
		<path style="fill:#FFFFFF;" d="M127.923,334.077v-9.441h2.494l1.961,3.46c0.56,0.995,1.121,2.172,1.541,3.236h0.042
			c-0.14-1.247-0.182-2.521-0.182-3.937v-2.76h1.961v9.441h-2.241l-2.017-3.642c-0.56-1.009-1.177-2.228-1.639-3.334l-0.042,0.014
			c0.056,1.247,0.084,2.577,0.084,4.118v2.844H127.923z"/>
		<path style="fill:#FFFFFF;" d="M146.226,329.259c0,3.096-1.877,4.973-4.637,4.973c-2.802,0-4.44-2.115-4.44-4.805
			c0-2.83,1.807-4.944,4.595-4.944C144.643,324.483,146.226,326.653,146.226,329.259z M139.404,329.385
			c0,1.849,0.868,3.151,2.297,3.151c1.442,0,2.269-1.372,2.269-3.208c0-1.694-0.812-3.151-2.283-3.151
			C140.244,326.177,139.404,327.55,139.404,329.385z"/>
		<path style="fill:#FFFFFF;" d="M147.691,331.878c0.574,0.294,1.457,0.588,2.367,0.588c0.98,0,1.499-0.405,1.499-1.022
			c0-0.588-0.448-0.924-1.583-1.33c-1.569-0.547-2.591-1.415-2.591-2.788c0-1.61,1.345-2.843,3.572-2.843
			c1.064,0,1.849,0.224,2.409,0.476l-0.476,1.724c-0.378-0.183-1.051-0.449-1.975-0.449s-1.373,0.421-1.373,0.911
			c0,0.603,0.532,0.868,1.751,1.331c1.667,0.616,2.451,1.484,2.451,2.815c0,1.582-1.219,2.927-3.81,2.927
			c-1.079,0-2.143-0.279-2.675-0.574L147.691,331.878z"/>
		<path style="fill:#FFFFFF;" d="M155.251,331.878c0.574,0.294,1.457,0.588,2.367,0.588c0.98,0,1.499-0.405,1.499-1.022
			c0-0.588-0.448-0.924-1.583-1.33c-1.569-0.547-2.591-1.415-2.591-2.788c0-1.61,1.345-2.843,3.572-2.843
			c1.064,0,1.849,0.224,2.409,0.476l-0.476,1.724c-0.378-0.183-1.051-0.449-1.975-0.449s-1.373,0.421-1.373,0.911
			c0,0.603,0.532,0.868,1.75,1.331c1.667,0.616,2.452,1.484,2.452,2.815c0,1.582-1.219,2.927-3.81,2.927
			c-1.079,0-2.143-0.279-2.676-0.574L155.251,331.878z"/>
		<path style="fill:#FFFFFF;" d="M164.94,331.654l-0.672,2.423h-2.213l2.885-9.441h2.802l2.927,9.441h-2.297l-0.729-2.423H164.94z
			 M167.336,330.057l-0.588-2.003c-0.168-0.561-0.336-1.261-0.476-1.821h-0.028c-0.14,0.561-0.28,1.275-0.434,1.821l-0.561,2.003
			H167.336z"/>
		<path style="fill:#FFFFFF;" d="M182.737,330.463c-0.042-1.135-0.084-2.507-0.084-3.88h-0.042c-0.294,1.205-0.687,2.55-1.051,3.656
			l-1.148,3.684h-1.667l-1.008-3.655c-0.308-1.107-0.63-2.452-0.854-3.685h-0.028c-0.056,1.274-0.098,2.731-0.168,3.908
			l-0.168,3.586h-1.975l0.603-9.441h2.843l0.925,3.152c0.294,1.092,0.588,2.269,0.798,3.376h0.042
			c0.266-1.093,0.588-2.34,0.896-3.391l1.008-3.138h2.788l0.519,9.441h-2.087L182.737,330.463z"/>
		<path style="fill:#FFFFFF;" d="M188.754,331.654l-0.672,2.423h-2.213l2.885-9.441h2.802l2.928,9.441h-2.297l-0.729-2.423H188.754z
			 M191.149,330.057l-0.588-2.003c-0.168-0.561-0.336-1.261-0.476-1.821h-0.028c-0.14,0.561-0.28,1.275-0.434,1.821l-0.561,2.003
			H191.149z"/>
		<path style="fill:#FFFFFF;" d="M195.739,324.762c0.687-0.111,1.709-0.195,2.844-0.195c1.401,0,2.381,0.21,3.054,0.742
			c0.56,0.448,0.868,1.106,0.868,1.975c0,1.205-0.854,2.031-1.667,2.325v0.042c0.658,0.267,1.022,0.896,1.261,1.766
			c0.294,1.064,0.588,2.297,0.77,2.661h-2.185c-0.154-0.267-0.378-1.036-0.658-2.199c-0.252-1.177-0.659-1.499-1.527-1.513h-0.645
			v3.712h-2.115V324.762z M197.854,328.824h0.84c1.065,0,1.695-0.532,1.695-1.358c0-0.869-0.588-1.303-1.569-1.317
			c-0.519,0-0.812,0.042-0.967,0.07V328.824z"/>
		<path style="fill:#FFFFFF;" d="M210.919,333.811c-0.393,0.196-1.275,0.406-2.423,0.406c-3.264,0-4.945-2.03-4.945-4.72
			c0-3.222,2.297-5.015,5.155-5.015c1.106,0,1.947,0.224,2.325,0.42l-0.434,1.694c-0.434-0.182-1.037-0.35-1.793-0.35
			c-1.695,0-3.012,1.022-3.012,3.124c0,1.891,1.121,3.081,3.026,3.081c0.644,0,1.358-0.14,1.779-0.308L210.919,333.811z"/>
		<path style="fill:#FFFFFF;" d="M214.653,331.654l-0.672,2.423h-2.213l2.885-9.441h2.802l2.928,9.441h-2.297l-0.729-2.423H214.653z
			 M217.049,330.057l-0.588-2.003c-0.168-0.561-0.336-1.261-0.476-1.821h-0.028c-0.14,0.561-0.28,1.275-0.434,1.821l-0.561,2.003
			H217.049z"/>
		<path style="fill:#FFFFFF;" d="M221.414,332.942c0-0.756,0.519-1.303,1.261-1.303c0.743,0,1.247,0.532,1.247,1.303
			c0,0.742-0.504,1.289-1.26,1.289C221.933,334.232,221.414,333.685,221.414,332.942z"/>
	</g>
</g>
<g id="Layer_1">
</g>
</svg>
