<?xml version="1.0" encoding="iso-8859-1"?>
<!-- Generator: Adobe Illustrator 18.0.0, SVG Export Plug-In . SVG Version: 6.00 Build 0)  -->
<!DOCTYPE svg PUBLIC "-//W3C//DTD SVG 1.1//EN" "http://www.w3.org/Graphics/SVG/1.1/DTD/svg11.dtd">
<svg version="1.1" xmlns="http://www.w3.org/2000/svg" xmlns:xlink="http://www.w3.org/1999/xlink" x="0px" y="0px"
	 viewBox="0 0 531.453 494.191" style="enable-background:new 0 0 531.453 494.191;" xml:space="preserve">
<g id="page13-7">
	
		<polygon style="fill:none;stroke:#000000;stroke-width:3.6793;stroke-linecap:round;stroke-linejoin:round;stroke-miterlimit:10;" points="
		43.446,14.904 69.635,406.333 475.632,438.052 529.613,82.648 	"/>
	<polygon style="opacity:0.8;fill:#E92325;" points="100.919,49.06 83.146,447.249 518.153,405.508 454.366,31.542 	"/>
	<polygon style="fill:#03B9DB;" points="23.262,106.379 387.98,82.648 390.61,211.407 20.388,285.052 	"/>
	
		<polyline style="fill:none;stroke:#000000;stroke-width:3.6793;stroke-linecap:round;stroke-linejoin:round;stroke-miterlimit:10;" points="
		45.65,296.379 1.84,305.543 4.782,122.591 	"/>
	<g>
		<g>
			<g>
				
					<line style="fill:none;stroke:#000000;stroke-width:3.6793;stroke-linecap:round;stroke-linejoin:round;stroke-miterlimit:10;" x1="20.388" y1="335.586" x2="43.803" y2="335.586"/>
				
					<line style="fill:none;stroke:#000000;stroke-width:3.6793;stroke-linecap:round;stroke-linejoin:round;stroke-miterlimit:10;" x1="32.095" y1="323.878" x2="32.095" y2="347.293"/>
			</g>
			<g>
				
					<line style="fill:none;stroke:#000000;stroke-width:3.6793;stroke-linecap:round;stroke-linejoin:round;stroke-miterlimit:10;" x1="274.822" y1="453.476" x2="298.237" y2="453.476"/>
				
					<line style="fill:none;stroke:#000000;stroke-width:3.6793;stroke-linecap:round;stroke-linejoin:round;stroke-miterlimit:10;" x1="286.53" y1="441.769" x2="286.53" y2="465.184"/>
			</g>
			
				<path style="fill:none;stroke:#000000;stroke-width:3.6793;stroke-linecap:round;stroke-linejoin:round;stroke-miterlimit:10;" d="
				M503.274,13.043c8.685,13.564-5.72,27.969-19.284,19.284c-0.931-0.596-1.73-1.395-2.325-2.326
				c-8.681-13.563,5.721-27.965,19.283-19.283C501.879,11.313,502.678,12.112,503.274,13.043z"/>
			<g>
				
					<line style="fill:none;stroke:#000000;stroke-width:3.6793;stroke-linecap:round;stroke-linejoin:round;stroke-miterlimit:10;" x1="211.98" y1="1.84" x2="298.237" y2="1.84"/>
				
					<line style="fill:none;stroke:#000000;stroke-width:3.6793;stroke-linecap:round;stroke-linejoin:round;stroke-miterlimit:10;" x1="264.348" y1="21.523" x2="319.935" y2="21.523"/>
			</g>
			
				<path style="fill:none;stroke:#000000;stroke-width:3.6793;stroke-linecap:round;stroke-linejoin:round;stroke-miterlimit:10;" d="
				M216.304,470.431c8.681,13.563-5.721,27.965-19.283,19.283c-0.931-0.596-1.73-1.395-2.326-2.325
				c-8.685-13.564,5.72-27.969,19.284-19.284C214.91,468.702,215.709,469.501,216.304,470.431z"/>
		</g>
	</g>
	<g>
		<path style="fill:#FFFFFF;" d="M88.418,166.784c1.218-0.428,3.059-0.916,5.132-1.285c2.56-0.457,4.42-0.393,5.822,0.361
			c1.17,0.637,1.947,1.739,2.23,3.326c0.393,2.201-0.899,3.99-2.288,4.792l0.015,0.076c1.289,0.272,2.16,1.305,2.879,2.814
			c0.884,1.85,1.823,4.006,2.275,4.612l-3.993,0.713c-0.369-0.437-1.029-1.771-1.92-3.804c-0.845-2.068-1.692-2.524-3.283-2.267
			l-1.178,0.21l1.21,6.783l-3.865,0.689L88.418,166.784z M93.607,173.518l1.535-0.274c1.945-0.347,2.924-1.525,2.654-3.035
			c-0.282-1.587-1.5-2.188-3.296-1.895c-0.947,0.169-1.472,0.342-1.743,0.443L93.607,173.518z"/>
		<path style="fill:#FFFFFF;" d="M115.595,171.972l-6.349,1.132l0.73,4.095l7.091-1.265l0.57,3.2l-11.006,1.963l-3.078-17.252
			l10.648-1.9l0.57,3.199l-6.732,1.201l0.64,3.583l6.349-1.132L115.595,171.972z"/>
		<path style="fill:#FFFFFF;" d="M123.528,173.515l-0.438,4.647l-4.044,0.722l2.194-18.193l5.12-0.914l8.428,16.298l-4.198,0.749
			l-2.121-4.19L123.528,173.515z M127.385,169.815l-1.729-3.468c-0.49-0.969-1.025-2.194-1.464-3.172l-0.052,0.009
			c-0.072,1.069-0.096,2.421-0.2,3.469l-0.37,3.843L127.385,169.815z"/>
		<path style="fill:#FFFFFF;" d="M134.012,158.412l3.917-0.699l2.493,13.976l6.859-1.224l0.585,3.276l-10.776,1.923L134.012,158.412
			z"/>
		<path style="fill:#FFFFFF;" d="M155.175,158.017l-4.633,0.827l-0.584-3.276l13.259-2.366l0.585,3.276l-4.711,0.84l2.494,13.976
			l-3.916,0.698L155.175,158.017z"/>
		<path style="fill:#FFFFFF;" d="M169.207,152.133l3.077,17.252l-3.916,0.699l-3.078-17.252L169.207,152.133z"/>
		<path style="fill:#FFFFFF;" d="M189.074,159.575c-0.447-2.06-0.971-4.554-1.418-7.063l-0.077,0.014
			c-0.145,2.297-0.423,4.882-0.728,7.024l-0.898,7.105l-3.046,0.544l-3.035-6.352c-0.924-1.922-1.951-4.274-2.763-6.454
			l-0.051,0.009c0.313,2.348,0.711,5.023,0.967,7.197l0.862,6.607l-3.609,0.644l-1.978-17.448l5.196-0.927l2.718,5.457
			c0.893,1.901,1.814,3.955,2.559,5.909l0.077-0.014c0.13-2.083,0.312-4.466,0.533-6.487l0.819-6.062l5.095-0.909l4.024,17.083
			l-3.813,0.681L189.074,159.575z"/>
		<path style="fill:#FFFFFF;" d="M206.279,155.793l-6.349,1.132l0.73,4.095l7.091-1.265l0.57,3.199l-11.006,1.964l-3.078-17.252
			l10.648-1.9l0.57,3.199l-6.732,1.201l0.64,3.583l6.349-1.133L206.279,155.793z"/>
		<path style="fill:#FFFFFF;" d="M213.117,144.536c1.393-0.486,3.238-0.948,5.209-1.299c3.276-0.584,5.506-0.375,7.394,0.583
			c2.029,1.011,3.534,2.936,4.078,5.981c0.589,3.302-0.208,5.794-1.62,7.499c-1.548,1.834-4.185,3.044-7.563,3.647
			c-2.021,0.36-3.479,0.488-4.474,0.534L213.117,144.536z M219.544,157.916c0.347,0.017,0.885-0.079,1.371-0.166
			c3.537-0.604,5.493-2.96,4.758-7.082c-0.614-3.588-3.051-5.108-6.403-4.509c-0.871,0.155-1.42,0.332-1.739,0.468L219.544,157.916z
			"/>
		<path style="fill:#FFFFFF;" d="M242.931,149.254l-6.348,1.132l0.73,4.095l7.09-1.265l0.571,3.2l-11.007,1.964l-3.078-17.252
			l10.648-1.9l0.57,3.199l-6.73,1.201l0.639,3.583l6.348-1.132L242.931,149.254z"/>
		<path style="fill:#FFFFFF;" d="M260.22,153.193c-0.652,0.487-2.197,1.158-4.296,1.532c-5.964,1.064-9.698-2.099-10.574-7.014
			c-1.051-5.887,2.562-9.912,7.784-10.844c2.021-0.36,3.631-0.225,4.386,0.01l-0.241,3.239c-0.853-0.191-2.008-0.302-3.391-0.055
			c-3.097,0.553-5.17,2.85-4.484,6.69c0.616,3.456,3.053,5.266,6.534,4.645c1.177-0.21,2.437-0.7,3.149-1.143L260.22,153.193z"/>
		<path style="fill:#FFFFFF;" d="M263.705,135.274l3.077,17.252l-3.916,0.699l-3.078-17.252L263.705,135.274z"/>
		<path style="fill:#FFFFFF;" d="M269.571,147.881c1.146,0.35,2.854,0.6,4.518,0.303c1.792-0.32,2.606-1.231,2.406-2.357
			c-0.192-1.075-1.121-1.543-3.327-1.916c-3.045-0.486-5.196-1.74-5.644-4.249c-0.525-2.944,1.53-5.634,5.601-6.361
			c1.945-0.347,3.451-0.193,4.557,0.085l-0.308,3.304c-0.751-0.209-2.066-0.477-3.756-0.176c-1.688,0.302-2.371,1.216-2.212,2.112
			c0.197,1.101,1.256,1.414,3.634,1.861c3.247,0.583,4.964,1.914,5.397,4.345c0.517,2.893-1.272,5.747-6.008,6.592
			c-1.971,0.352-4.008,0.188-5.076-0.177L269.571,147.881z"/>
		<path style="fill:#FFFFFF;" d="M284.82,131.506l3.078,17.252l-3.916,0.699l-3.078-17.252L284.82,131.506z"/>
		<path style="fill:#FFFFFF;" d="M305.499,136.532c1.01,5.657-1.809,9.699-6.852,10.599c-5.119,0.913-8.804-2.418-9.681-7.332
			c-0.922-5.171,1.689-9.625,6.784-10.534C301.048,128.32,304.649,131.772,305.499,136.532z M293.074,138.986
			c0.604,3.379,2.614,5.476,5.226,5.01c2.637-0.47,3.699-3.248,3.101-6.602c-0.553-3.097-2.512-5.494-5.199-5.015
			C293.564,132.851,292.476,135.634,293.074,138.986z"/>
		<path style="fill:#FFFFFF;" d="M309.628,144.881l-3.078-17.252l4.557-0.813l4.711,5.682c1.348,1.635,2.756,3.603,3.87,5.411
			l0.077-0.014c-0.662-2.232-1.154-4.548-1.615-7.133l-0.9-5.042l3.584-0.639l3.078,17.252l-4.096,0.731l-4.873-5.998
			c-1.353-1.66-2.877-3.686-4.082-5.558l-0.072,0.039c0.509,2.26,0.994,4.683,1.496,7.498l0.927,5.196L309.628,144.881z"/>
		<path style="fill:#FFFFFF;" d="M62.238,201.458c-1.039,2.615-1.553,6.246-0.735,10.827c0.804,4.505,2.562,7.704,4.425,9.854
			l-2.713,0.484c-1.738-1.75-3.882-4.881-4.759-9.795c-0.864-4.996,0.043-8.644,1.069-10.887L62.238,201.458z"/>
		<path style="fill:#FFFFFF;" d="M65.089,202.639c1.393-0.486,3.238-0.948,5.209-1.299c3.276-0.585,5.506-0.375,7.394,0.583
			c2.028,1.011,3.535,2.935,4.078,5.981c0.589,3.302-0.208,5.795-1.62,7.499c-1.548,1.835-4.185,3.045-7.563,3.647
			c-2.021,0.361-3.479,0.488-4.474,0.534L65.089,202.639z M71.517,216.018c0.347,0.018,0.885-0.078,1.371-0.165
			c3.536-0.605,5.493-2.961,4.758-7.083c-0.614-3.588-3.051-5.107-6.403-4.509c-0.87,0.155-1.42,0.333-1.739,0.468L71.517,216.018z"
			/>
		<path style="fill:#FFFFFF;" d="M94.904,207.356l-6.348,1.133l0.73,4.096l7.09-1.265l0.571,3.199l-11.007,1.964l-3.078-17.252
			l10.648-1.9l0.571,3.2l-6.731,1.201l0.639,3.583l6.348-1.133L94.904,207.356z"/>
		<path style="fill:#FFFFFF;" d="M112.193,211.297c-0.653,0.486-2.197,1.158-4.297,1.532c-5.963,1.064-9.697-2.1-10.573-7.014
			c-1.051-5.888,2.562-9.913,7.784-10.844c2.022-0.361,3.631-0.225,4.386,0.009l-0.24,3.239c-0.854-0.191-2.009-0.302-3.391-0.055
			c-3.098,0.553-5.171,2.851-4.485,6.69c0.616,3.456,3.053,5.266,6.533,4.645c1.178-0.21,2.438-0.699,3.15-1.143L112.193,211.297z"
			/>
		<path style="fill:#FFFFFF;" d="M115.677,193.376l3.077,17.252l-3.916,0.699l-3.078-17.252L115.677,193.376z"/>
		<path style="fill:#FFFFFF;" d="M121.544,205.984c1.146,0.35,2.854,0.6,4.518,0.303c1.792-0.32,2.606-1.231,2.406-2.357
			c-0.192-1.075-1.121-1.543-3.327-1.916c-3.045-0.486-5.196-1.74-5.644-4.248c-0.525-2.944,1.53-5.635,5.6-6.361
			c1.945-0.347,3.452-0.193,4.558,0.084l-0.309,3.304c-0.75-0.209-2.065-0.477-3.755-0.175c-1.688,0.301-2.371,1.215-2.212,2.111
			c0.197,1.101,1.256,1.414,3.634,1.861c3.247,0.583,4.964,1.914,5.397,4.346c0.517,2.893-1.272,5.747-6.008,6.592
			c-1.971,0.352-4.007,0.188-5.076-0.177L121.544,205.984z"/>
		<path style="fill:#FFFFFF;" d="M139.183,202.414l-0.438,4.647l-4.045,0.722l2.195-18.193l5.12-0.914l8.427,16.298l-4.198,0.749
			l-2.12-4.191L139.183,202.414z M135.889,188.687c-0.461-2.136,0.162-3.383,1.391-3.602c0.691-0.124,1.192,0.025,1.729,0.219
			c0.455,0.183,0.88,0.345,1.213,0.286c0.436-0.078,0.543-0.361,0.494-1.224l1.741-0.311c0.487,2.29-0.095,3.319-1.451,3.561
			c-0.691,0.124-1.244-0.015-1.751-0.189c-0.476-0.153-0.824-0.328-1.157-0.269c-0.332,0.06-0.494,0.484-0.418,1.21L135.889,188.687
			z M143.04,198.715l-1.729-3.469c-0.49-0.969-1.025-2.193-1.464-3.172l-0.051,0.009c-0.073,1.07-0.097,2.42-0.2,3.469l-0.371,3.843
			L143.04,198.715z"/>
		<path style="fill:#FFFFFF;" d="M166.328,193.055c1.009,5.657-1.81,9.699-6.852,10.599c-5.119,0.914-8.804-2.417-9.681-7.332
			c-0.922-5.171,1.69-9.625,6.784-10.534C161.878,184.842,165.478,188.294,166.328,193.055z M153.903,195.509
			c0.603,3.379,2.614,5.476,5.225,5.01c2.637-0.47,3.7-3.248,3.102-6.601c-0.553-3.097-2.513-5.494-5.2-5.015
			C154.393,189.374,153.304,192.156,153.903,195.509z"/>
		<path style="fill:#FFFFFF;" d="M184.59,191.355l-6.348,1.133l0.73,4.096l7.09-1.265l0.571,3.199l-11.007,1.963l-3.078-17.252
			l10.647-1.9l0.571,3.2l-6.731,1.201l0.64,3.583l6.348-1.133L184.59,191.355z"/>
		<path style="fill:#FFFFFF;" d="M202.708,188.836c-0.447-2.06-0.971-4.555-1.419-7.063l-0.077,0.014
			c-0.144,2.297-0.423,4.883-0.728,7.023l-0.897,7.106l-3.046,0.543l-3.035-6.352c-0.924-1.922-1.951-4.274-2.763-6.453
			l-0.051,0.009c0.313,2.348,0.711,5.023,0.967,7.196l0.861,6.607l-3.608,0.644l-1.977-17.448l5.195-0.927l2.717,5.458
			c0.894,1.9,1.814,3.955,2.56,5.908l0.077-0.014c0.129-2.083,0.312-4.466,0.533-6.486l0.82-6.062l5.094-0.909l4.024,17.083
			l-3.813,0.68L202.708,188.836z"/>
		<path style="fill:#FFFFFF;" d="M215.956,178.865l-4.633,0.827l-0.585-3.276l13.26-2.366l0.584,3.276l-4.71,0.841l2.493,13.976
			l-3.916,0.698L215.956,178.865z"/>
		<path style="fill:#FFFFFF;" d="M238.111,181.806l-6.349,1.132l0.73,4.096l7.091-1.265l0.57,3.199l-11.007,1.964l-3.077-17.252
			l10.647-1.9l0.571,3.2l-6.732,1.201l0.64,3.583l6.349-1.132L238.111,181.806z"/>
		<path style="fill:#FFFFFF;" d="M256.227,179.287c-0.446-2.06-0.971-4.555-1.419-7.063l-0.076,0.014
			c-0.145,2.298-0.424,4.883-0.729,7.024l-0.897,7.106l-3.046,0.543l-3.035-6.352c-0.924-1.921-1.951-4.274-2.763-6.453
			l-0.051,0.009c0.313,2.348,0.711,5.024,0.967,7.196l0.862,6.608l-3.609,0.644l-1.977-17.449l5.195-0.927l2.718,5.458
			c0.893,1.9,1.814,3.955,2.559,5.908l0.077-0.014c0.13-2.083,0.312-4.466,0.533-6.486l0.82-6.062l5.094-0.909l4.024,17.083
			l-3.813,0.68L256.227,179.287z"/>
		<path style="fill:#FFFFFF;" d="M261.432,167.609c1.166-0.419,2.828-0.875,5.208-1.299c2.406-0.43,4.204-0.274,5.521,0.442
			c1.255,0.673,2.253,1.974,2.555,3.664s-0.006,3.223-0.855,4.379c-1.107,1.491-2.979,2.406-5.282,2.817
			c-0.512,0.091-0.977,0.148-1.345,0.161l1.101,6.168l-3.864,0.689L261.432,167.609z M266.695,174.752
			c0.346,0.018,0.76-0.03,1.323-0.13c2.073-0.37,3.166-1.647,2.851-3.414c-0.283-1.587-1.553-2.337-3.498-1.99
			c-0.794,0.142-1.317,0.314-1.585,0.441L266.695,174.752z"/>
		<path style="fill:#FFFFFF;" d="M293.562,170.355c1.01,5.657-1.809,9.699-6.852,10.599c-5.119,0.913-8.803-2.418-9.68-7.333
			c-0.923-5.171,1.689-9.625,6.783-10.534C289.113,162.142,292.712,165.594,293.562,170.355z M281.137,172.809
			c0.603,3.379,2.614,5.476,5.226,5.01c2.637-0.471,3.699-3.249,3.101-6.601c-0.553-3.098-2.512-5.495-5.199-5.015
			C281.628,166.673,280.54,169.456,281.137,172.809z"/>
		<path style="fill:#FFFFFF;" d="M299.826,160.759c1.218-0.429,3.059-0.916,5.132-1.286c2.56-0.457,4.42-0.392,5.822,0.361
			c1.17,0.637,1.947,1.739,2.23,3.326c0.393,2.201-0.898,3.99-2.288,4.792l0.015,0.077c1.29,0.272,2.16,1.305,2.879,2.813
			c0.885,1.85,1.824,4.007,2.275,4.613l-3.993,0.712c-0.368-0.436-1.029-1.771-1.92-3.804c-0.845-2.067-1.692-2.524-3.283-2.266
			l-1.178,0.21l1.21,6.783l-3.864,0.689L299.826,160.759z M305.015,167.492l1.535-0.274c1.945-0.347,2.924-1.525,2.654-3.036
			c-0.283-1.587-1.499-2.188-3.296-1.895c-0.947,0.169-1.471,0.341-1.743,0.443L305.015,167.492z"/>
		<path style="fill:#FFFFFF;" d="M327.003,165.946l-6.349,1.133l0.73,4.096l7.091-1.265l0.57,3.199l-11.007,1.964l-3.077-17.252
			l10.647-1.9l0.571,3.2l-6.732,1.201l0.64,3.584l6.349-1.133L327.003,165.946z"/>
		<path style="fill:#FFFFFF;" d="M334.937,167.489l-0.438,4.647l-4.045,0.722l2.195-18.193l5.119-0.913l8.428,16.297l-4.198,0.749
			l-2.121-4.19L334.937,167.489z M338.793,163.79l-1.728-3.469c-0.49-0.969-1.025-2.194-1.464-3.172l-0.051,0.009
			c-0.074,1.07-0.097,2.42-0.201,3.469l-0.37,3.843L338.793,163.79z"/>
		<path style="fill:#FFFFFF;" d="M345.42,152.387l3.917-0.699l2.493,13.976l6.859-1.224l0.585,3.276l-10.776,1.923L345.42,152.387z"
			/>
		<path style="fill:#FFFFFF;" d="M361.145,169.469c0.983-2.632,1.544-6.297,0.735-10.828c-0.808-4.53-2.567-7.729-4.426-9.854
			l2.713-0.484c1.709,1.729,3.869,4.803,4.764,9.82c0.86,4.97-0.077,8.597-1.073,10.862L361.145,169.469z"/>
	</g>
	<g>
		<path style="fill:#FFFFFF;" d="M115.911,291.161c0.687-0.111,1.709-0.195,2.844-0.195c1.401,0,2.381,0.21,3.054,0.742
			c0.56,0.448,0.868,1.106,0.868,1.975c0,1.205-0.854,2.031-1.667,2.325v0.042c0.658,0.267,1.022,0.896,1.261,1.766
			c0.294,1.064,0.588,2.297,0.77,2.661h-2.185c-0.154-0.267-0.378-1.036-0.658-2.199c-0.252-1.177-0.659-1.499-1.527-1.513h-0.645
			v3.712h-2.115V291.161z M118.026,295.224h0.84c1.065,0,1.695-0.532,1.695-1.358c0-0.869-0.588-1.303-1.569-1.317
			c-0.519,0-0.812,0.042-0.967,0.07V295.224z"/>
		<path style="fill:#FFFFFF;" d="M129.83,296.484h-3.474v2.241h3.88v1.751h-6.023v-9.441h5.827v1.751h-3.684v1.961h3.474V296.484z"
			/>
		<path style="fill:#FFFFFF;" d="M133.888,298.054l-0.672,2.423h-2.213l2.885-9.441h2.802l2.928,9.441h-2.297l-0.729-2.423H133.888z
			 M136.283,296.456l-0.588-2.003c-0.168-0.561-0.336-1.261-0.476-1.82h-0.028c-0.14,0.56-0.28,1.274-0.434,1.82l-0.561,2.003
			H136.283z"/>
		<path style="fill:#FFFFFF;" d="M140.873,291.035h2.144v7.648h3.754v1.793h-5.897V291.035z"/>
		<path style="fill:#FFFFFF;" d="M152.13,292.828h-2.536v-1.793h7.256v1.793h-2.577v7.648h-2.143V292.828z"/>
		<path style="fill:#FFFFFF;" d="M160.124,291.035v9.441h-2.144v-9.441H160.124z"/>
		<path style="fill:#FFFFFF;" d="M169.955,296.862c-0.042-1.135-0.084-2.507-0.084-3.88h-0.042c-0.294,1.205-0.687,2.55-1.05,3.656
			l-1.149,3.684h-1.667l-1.008-3.656c-0.308-1.106-0.63-2.451-0.854-3.684h-0.028c-0.056,1.274-0.098,2.731-0.168,3.908
			l-0.168,3.586h-1.975l0.603-9.441h2.843l0.925,3.152c0.294,1.092,0.588,2.269,0.798,3.375h0.042
			c0.266-1.092,0.588-2.339,0.896-3.39l1.008-3.138h2.788l0.519,9.441h-2.087L169.955,296.862z"/>
		<path style="fill:#FFFFFF;" d="M179.431,296.484h-3.474v2.241h3.88v1.751h-6.023v-9.441h5.827v1.751h-3.684v1.961h3.474V296.484z"
			/>
		<path style="fill:#FFFFFF;" d="M184.118,291.161c0.785-0.126,1.807-0.195,2.886-0.195c1.793,0,2.956,0.321,3.866,1.008
			c0.98,0.729,1.597,1.892,1.597,3.559c0,1.807-0.658,3.054-1.569,3.823c-0.995,0.827-2.507,1.219-4.356,1.219
			c-1.106,0-1.891-0.069-2.423-0.14V291.161z M186.262,298.865c0.182,0.043,0.476,0.043,0.742,0.043
			c1.933,0.014,3.194-1.051,3.194-3.307c0.014-1.961-1.135-2.997-2.97-2.997c-0.476,0-0.785,0.042-0.966,0.084V298.865z"/>
		<path style="fill:#FFFFFF;" d="M199.48,296.484h-3.474v2.241h3.88v1.751h-6.023v-9.441h5.827v1.751h-3.684v1.961h3.474V296.484z"
			/>
		<path style="fill:#FFFFFF;" d="M208.273,300.21c-0.393,0.196-1.275,0.406-2.423,0.406c-3.264,0-4.945-2.03-4.945-4.72
			c0-3.222,2.297-5.015,5.155-5.015c1.106,0,1.947,0.224,2.325,0.42l-0.434,1.694c-0.434-0.182-1.037-0.35-1.793-0.35
			c-1.695,0-3.012,1.022-3.012,3.123c0,1.892,1.121,3.082,3.026,3.082c0.644,0,1.358-0.14,1.779-0.308L208.273,300.21z"/>
		<path style="fill:#FFFFFF;" d="M211.812,291.035v9.441h-2.144v-9.441H211.812z"/>
		<path style="fill:#FFFFFF;" d="M213.728,298.277c0.574,0.294,1.457,0.588,2.367,0.588c0.98,0,1.499-0.406,1.499-1.022
			c0-0.588-0.448-0.924-1.583-1.33c-1.569-0.547-2.591-1.415-2.591-2.788c0-1.61,1.345-2.843,3.572-2.843
			c1.064,0,1.849,0.224,2.409,0.476l-0.476,1.723c-0.378-0.182-1.051-0.447-1.975-0.447s-1.373,0.42-1.373,0.91
			c0,0.603,0.532,0.868,1.751,1.33c1.667,0.617,2.451,1.485,2.451,2.816c0,1.582-1.219,2.927-3.81,2.927
			c-1.079,0-2.143-0.279-2.675-0.574L213.728,298.277z"/>
		<path style="fill:#FFFFFF;" d="M223.361,291.035v9.441h-2.144v-9.441H223.361z"/>
		<path style="fill:#FFFFFF;" d="M233.851,295.658c0,3.096-1.877,4.973-4.637,4.973c-2.802,0-4.44-2.115-4.44-4.805
			c0-2.83,1.807-4.944,4.595-4.944C232.268,290.882,233.851,293.053,233.851,295.658z M227.029,295.784
			c0,1.849,0.868,3.151,2.297,3.151c1.442,0,2.269-1.373,2.269-3.208c0-1.694-0.812-3.151-2.283-3.151
			C227.869,292.576,227.029,293.949,227.029,295.784z"/>
		<path style="fill:#FFFFFF;" d="M235.246,300.477v-9.441h2.494l1.961,3.46c0.561,0.995,1.121,2.171,1.541,3.236h0.042
			c-0.14-1.247-0.182-2.521-0.182-3.937v-2.76h1.961v9.441h-2.241l-2.017-3.642c-0.561-1.009-1.177-2.228-1.639-3.334l-0.042,0.014
			c0.056,1.247,0.084,2.577,0.084,4.118v2.844H235.246z"/>
		<path style="fill:#FFFFFF;" d="M250.732,290.265c-0.799,1.289-1.415,3.166-1.415,5.674c0,2.465,0.63,4.328,1.415,5.645h-1.485
			c-0.756-1.093-1.597-2.955-1.597-5.645c0.014-2.731,0.841-4.581,1.597-5.674H250.732z"/>
		<path style="fill:#FFFFFF;" d="M252.129,291.161c0.785-0.126,1.807-0.195,2.886-0.195c1.793,0,2.956,0.321,3.866,1.008
			c0.98,0.729,1.597,1.892,1.597,3.559c0,1.807-0.658,3.054-1.569,3.823c-0.995,0.827-2.507,1.219-4.356,1.219
			c-1.106,0-1.891-0.069-2.423-0.14V291.161z M254.273,298.865c0.182,0.043,0.476,0.043,0.742,0.043
			c1.933,0.014,3.194-1.051,3.194-3.307c0.014-1.961-1.135-2.997-2.97-2.997c-0.476,0-0.784,0.042-0.966,0.084V298.865z"/>
		<path style="fill:#FFFFFF;" d="M267.492,296.484h-3.475v2.241h3.881v1.751h-6.024v-9.441h5.828v1.751h-3.685v1.961h3.475V296.484z
			"/>
		<path style="fill:#FFFFFF;" d="M276.284,300.21c-0.393,0.196-1.274,0.406-2.424,0.406c-3.264,0-4.944-2.03-4.944-4.72
			c0-3.222,2.297-5.015,5.155-5.015c1.106,0,1.946,0.224,2.325,0.42l-0.435,1.694c-0.435-0.182-1.036-0.35-1.793-0.35
			c-1.695,0-3.012,1.022-3.012,3.123c0,1.892,1.121,3.082,3.025,3.082c0.645,0,1.359-0.14,1.779-0.308L276.284,300.21z"/>
		<path style="fill:#FFFFFF;" d="M279.823,291.035v9.441h-2.143v-9.441H279.823z"/>
		<path style="fill:#FFFFFF;" d="M281.74,298.277c0.574,0.294,1.457,0.588,2.367,0.588c0.981,0,1.499-0.406,1.499-1.022
			c0-0.588-0.448-0.924-1.583-1.33c-1.568-0.547-2.591-1.415-2.591-2.788c0-1.61,1.345-2.843,3.571-2.843
			c1.065,0,1.85,0.224,2.41,0.476l-0.477,1.723c-0.378-0.182-1.051-0.447-1.976-0.447c-0.924,0-1.372,0.42-1.372,0.91
			c0,0.603,0.532,0.868,1.751,1.33c1.667,0.617,2.451,1.485,2.451,2.816c0,1.582-1.219,2.927-3.811,2.927
			c-1.078,0-2.143-0.279-2.675-0.574L281.74,298.277z"/>
		<path style="fill:#FFFFFF;" d="M291.429,298.054l-0.673,2.423h-2.213l2.886-9.441h2.801l2.928,9.441h-2.297l-0.729-2.423H291.429z
			 M290.981,290.461c-0.042-1.177,0.406-1.778,1.078-1.778c0.378,0,0.631,0.126,0.896,0.279c0.225,0.141,0.435,0.267,0.616,0.267
			c0.238,0,0.322-0.14,0.379-0.603h0.952c0.042,1.261-0.364,1.751-1.106,1.751c-0.379,0-0.658-0.126-0.911-0.266
			c-0.237-0.126-0.406-0.253-0.588-0.253c-0.183,0-0.309,0.211-0.336,0.603H290.981z M293.824,296.456l-0.588-2.003
			c-0.168-0.561-0.336-1.261-0.477-1.82h-0.027c-0.141,0.56-0.28,1.274-0.435,1.82l-0.561,2.003H293.824z"/>
		<path style="fill:#FFFFFF;" d="M306.707,295.658c0,3.096-1.877,4.973-4.637,4.973c-2.802,0-4.44-2.115-4.44-4.805
			c0-2.83,1.807-4.944,4.595-4.944C305.124,290.882,306.707,293.053,306.707,295.658z M299.884,295.784
			c0,1.849,0.869,3.151,2.298,3.151c1.442,0,2.269-1.373,2.269-3.208c0-1.694-0.812-3.151-2.283-3.151
			C300.725,292.576,299.884,293.949,299.884,295.784z"/>
		<path style="fill:#FFFFFF;" d="M316.547,296.484h-3.475v2.241h3.88v1.751h-6.022v-9.441h5.827v1.751h-3.685v1.961h3.475V296.484z"
			/>
		<path style="fill:#FFFFFF;" d="M326.39,296.862c-0.042-1.135-0.084-2.507-0.084-3.88h-0.042c-0.295,1.205-0.687,2.55-1.051,3.656
			l-1.148,3.684h-1.667l-1.009-3.656c-0.309-1.106-0.631-2.451-0.854-3.684h-0.028c-0.056,1.274-0.098,2.731-0.168,3.908
			l-0.168,3.586h-1.975l0.602-9.441h2.844l0.925,3.152c0.294,1.092,0.588,2.269,0.798,3.375h0.042
			c0.267-1.092,0.589-2.339,0.896-3.39l1.009-3.138h2.788l0.518,9.441h-2.087L326.39,296.862z"/>
		<path style="fill:#FFFFFF;" d="M334.352,292.828h-2.535v-1.793h7.256v1.793h-2.577v7.648h-2.144V292.828z"/>
		<path style="fill:#FFFFFF;" d="M345.821,296.484h-3.475v2.241h3.88v1.751h-6.022v-9.441h5.827v1.751h-3.685v1.961h3.475V296.484z"
			/>
		<path style="fill:#FFFFFF;" d="M355.664,296.862c-0.042-1.135-0.084-2.507-0.084-3.88h-0.042c-0.295,1.205-0.687,2.55-1.051,3.656
			l-1.148,3.684h-1.667l-1.009-3.656c-0.309-1.106-0.631-2.451-0.854-3.684h-0.028c-0.056,1.274-0.098,2.731-0.168,3.908
			l-0.168,3.586h-1.975l0.602-9.441h2.844l0.925,3.152c0.294,1.092,0.588,2.269,0.798,3.375h0.042
			c0.267-1.092,0.589-2.339,0.896-3.39l1.009-3.138h2.788l0.518,9.441h-2.087L355.664,296.862z"/>
		<path style="fill:#FFFFFF;" d="M359.523,291.161c0.658-0.111,1.583-0.195,2.885-0.195c1.317,0,2.256,0.252,2.886,0.756
			c0.603,0.477,1.009,1.261,1.009,2.186c0,0.924-0.309,1.709-0.868,2.241c-0.729,0.687-1.808,0.994-3.068,0.994
			c-0.279,0-0.532-0.014-0.728-0.042v3.376h-2.115V291.161z M361.638,295.448c0.182,0.042,0.406,0.056,0.714,0.056
			c1.135,0,1.835-0.574,1.835-1.541c0-0.868-0.603-1.387-1.667-1.387c-0.434,0-0.729,0.042-0.882,0.084V295.448z"/>
		<path style="fill:#FFFFFF;" d="M376.299,295.658c0,3.096-1.877,4.973-4.637,4.973c-2.802,0-4.44-2.115-4.44-4.805
			c0-2.83,1.807-4.944,4.595-4.944C374.716,290.882,376.299,293.053,376.299,295.658z M369.477,295.784
			c0,1.849,0.869,3.151,2.298,3.151c1.442,0,2.269-1.373,2.269-3.208c0-1.694-0.812-3.151-2.283-3.151
			C370.318,292.576,369.477,293.949,369.477,295.784z"/>
		<path style="fill:#FFFFFF;" d="M380.523,291.161c0.687-0.111,1.709-0.195,2.843-0.195c1.401,0,2.382,0.21,3.054,0.742
			c0.561,0.448,0.869,1.106,0.869,1.975c0,1.205-0.854,2.031-1.667,2.325v0.042c0.658,0.267,1.022,0.896,1.261,1.766
			c0.294,1.064,0.588,2.297,0.771,2.661h-2.186c-0.154-0.267-0.378-1.036-0.658-2.199c-0.252-1.177-0.658-1.499-1.527-1.513h-0.644
			v3.712h-2.115V291.161z M382.638,295.224h0.84c1.064,0,1.695-0.532,1.695-1.358c0-0.869-0.589-1.303-1.569-1.317
			c-0.518,0-0.812,0.042-0.966,0.07V295.224z"/>
		<path style="fill:#FFFFFF;" d="M394.442,296.484h-3.475v2.241h3.88v1.751h-6.022v-9.441h5.827v1.751h-3.685v1.961h3.475V296.484z"
			/>
		<path style="fill:#FFFFFF;" d="M398.5,298.054l-0.673,2.423h-2.213l2.886-9.441h2.801l2.928,9.441h-2.297l-0.729-2.423H398.5z
			 M400.894,296.456l-0.588-2.003c-0.168-0.561-0.336-1.261-0.477-1.82h-0.027c-0.141,0.56-0.28,1.274-0.435,1.82l-0.561,2.003
			H400.894z"/>
		<path style="fill:#FFFFFF;" d="M405.484,291.035h2.143v7.648h3.754v1.793h-5.896V291.035z"/>
		<path style="fill:#FFFFFF;" d="M412.203,301.583c0.771-1.303,1.415-3.193,1.415-5.673s-0.631-4.343-1.415-5.646h1.484
			c0.743,1.079,1.598,2.914,1.598,5.659c-0.015,2.718-0.854,4.553-1.598,5.659H412.203z"/>
		<path style="fill:#FFFFFF;" d="M416.808,294.831c0-0.756,0.519-1.288,1.261-1.288s1.232,0.519,1.247,1.288
			c0,0.729-0.505,1.275-1.261,1.275C417.327,296.107,416.808,295.56,416.808,294.831z M416.808,299.356
			c0-0.742,0.519-1.288,1.261-1.288s1.232,0.532,1.247,1.288c0,0.729-0.505,1.275-1.261,1.275
			C417.327,300.631,416.808,300.084,416.808,299.356z"/>
		<path style="fill:#FFFFFF;" d="M115.911,307.962c0.659-0.111,1.583-0.195,2.886-0.195c1.317,0,2.255,0.252,2.886,0.756
			c0.602,0.477,1.008,1.261,1.008,2.186c0,0.924-0.308,1.709-0.868,2.241c-0.729,0.687-1.807,0.994-3.068,0.994
			c-0.28,0-0.532-0.014-0.729-0.042v3.376h-2.115V307.962z M118.026,312.249c0.182,0.042,0.406,0.056,0.714,0.056
			c1.135,0,1.835-0.574,1.835-1.541c0-0.868-0.602-1.387-1.667-1.387c-0.434,0-0.728,0.042-0.882,0.084V312.249z"/>
		<path style="fill:#FFFFFF;" d="M124.044,307.836h2.144v7.648h3.754v1.793h-5.897V307.836z"/>
		<path style="fill:#FFFFFF;" d="M133.482,314.855l-0.672,2.423h-2.213l2.885-9.441h2.802l2.928,9.441h-2.297l-0.729-2.423H133.482z
			 M135.877,313.257l-0.588-2.003c-0.168-0.561-0.336-1.261-0.476-1.82h-0.028c-0.14,0.56-0.28,1.274-0.434,1.82l-0.561,2.003
			H135.877z"/>
		<path style="fill:#FFFFFF;" d="M141.126,309.629h-2.536v-1.793h7.256v1.793h-2.577v7.648h-2.143V309.629z"/>
		<path style="fill:#FFFFFF;" d="M148.168,314.855l-0.672,2.423h-2.213l2.885-9.441h2.802l2.927,9.441H151.6l-0.729-2.423H148.168z
			 M150.563,313.257l-0.588-2.003c-0.168-0.561-0.336-1.261-0.476-1.82h-0.028c-0.14,0.56-0.28,1.274-0.434,1.82l-0.561,2.003
			H150.563z"/>
		<path style="fill:#FFFFFF;" d="M155.152,307.836h5.771v1.751h-3.628v2.157h3.39v1.737h-3.39v3.796h-2.144V307.836z"/>
		<path style="fill:#FFFFFF;" d="M171.173,312.459c0,3.096-1.877,4.973-4.637,4.973c-2.801,0-4.44-2.115-4.44-4.805
			c0-2.83,1.807-4.944,4.595-4.944C169.59,307.683,171.173,309.854,171.173,312.459z M164.352,312.585
			c0,1.849,0.868,3.151,2.297,3.151c1.443,0,2.27-1.373,2.27-3.208c0-1.694-0.812-3.151-2.283-3.151
			C165.192,309.377,164.352,310.75,164.352,312.585z"/>
		<path style="fill:#FFFFFF;" d="M172.568,307.962c0.687-0.111,1.709-0.195,2.844-0.195c1.401,0,2.381,0.21,3.054,0.742
			c0.56,0.448,0.868,1.106,0.868,1.975c0,1.205-0.854,2.031-1.667,2.325v0.042c0.658,0.267,1.022,0.896,1.26,1.766
			c0.294,1.064,0.588,2.297,0.771,2.661h-2.185c-0.154-0.267-0.378-1.036-0.658-2.199c-0.252-1.177-0.659-1.499-1.527-1.513h-0.645
			v3.712h-2.115V307.962z M174.684,312.025h0.84c1.065,0,1.695-0.532,1.695-1.358c0-0.869-0.588-1.303-1.569-1.317
			c-0.519,0-0.812,0.042-0.967,0.07V312.025z"/>
		<path style="fill:#FFFFFF;" d="M188.855,313.663c-0.042-1.135-0.084-2.507-0.084-3.88h-0.042c-0.294,1.205-0.687,2.55-1.051,3.656
			l-1.148,3.684h-1.667l-1.008-3.656c-0.308-1.106-0.63-2.451-0.854-3.684h-0.028c-0.056,1.274-0.098,2.731-0.168,3.908
			l-0.168,3.586h-1.975l0.603-9.441h2.843l0.925,3.152c0.294,1.092,0.588,2.269,0.798,3.375h0.042
			c0.266-1.092,0.588-2.339,0.896-3.39l1.008-3.138h2.788l0.519,9.441h-2.087L188.855,313.663z"/>
		<path style="fill:#FFFFFF;" d="M194.872,314.855l-0.672,2.423h-2.213l2.885-9.441h2.802l2.927,9.441h-2.297l-0.729-2.423H194.872z
			 M197.267,313.257l-0.588-2.003c-0.168-0.561-0.336-1.261-0.476-1.82h-0.028c-0.14,0.56-0.28,1.274-0.434,1.82l-0.561,2.003
			H197.267z"/>
		<path style="fill:#FFFFFF;" d="M212.753,318.902c-1.345-0.393-2.465-0.799-3.726-1.331c-0.21-0.084-0.434-0.126-0.658-0.14
			c-2.129-0.141-4.118-1.709-4.118-4.791c0-2.829,1.793-4.958,4.608-4.958c2.886,0,4.469,2.185,4.469,4.762
			c0,2.144-0.995,3.656-2.241,4.217v0.056c0.728,0.21,1.541,0.379,2.283,0.532L212.753,318.902z M211.072,312.528
			c0-1.723-0.812-3.151-2.269-3.151c-1.457,0-2.297,1.429-2.297,3.193c-0.014,1.793,0.854,3.166,2.283,3.166
			C210.232,315.736,211.072,314.378,211.072,312.528z"/>
		<path style="fill:#FFFFFF;" d="M216.852,307.836v5.436c0,1.625,0.616,2.451,1.709,2.451c1.121,0,1.737-0.784,1.737-2.451v-5.436
			h2.129v5.295c0,2.914-1.471,4.301-3.937,4.301c-2.381,0-3.782-1.317-3.782-4.328v-5.268H216.852z"/>
		<path style="fill:#FFFFFF;" d="M229.887,313.285h-3.474v2.241h3.88v1.751h-6.023v-9.441h5.827v1.751h-3.684v1.961h3.474V313.285z"
			/>
		<path style="fill:#FFFFFF;" d="M236.284,317.277l-3.026-9.441h2.339l1.148,3.992c0.322,1.121,0.617,2.199,0.841,3.376h0.042
			c0.238-1.135,0.532-2.255,0.854-3.334l1.205-4.034h2.269l-3.18,9.441H236.284z"/>
		<path style="fill:#FFFFFF;" d="M244.404,314.855l-0.672,2.423h-2.213l2.885-9.441h2.802l2.927,9.441h-2.297l-0.729-2.423H244.404z
			 M246.799,313.257l-0.588-2.003c-0.168-0.561-0.336-1.261-0.476-1.82h-0.028c-0.14,0.56-0.28,1.274-0.434,1.82l-0.561,2.003
			H246.799z"/>
		<path style="fill:#FFFFFF;" d="M253.532,307.836v9.441h-2.144v-9.441H253.532z"/>
		<path style="fill:#FFFFFF;" d="M258.207,307.962c0.659-0.111,1.583-0.195,2.886-0.195c1.317,0,2.255,0.252,2.886,0.756
			c0.602,0.477,1.008,1.261,1.008,2.186c0,0.924-0.308,1.709-0.868,2.241c-0.729,0.687-1.807,0.994-3.068,0.994
			c-0.28,0-0.532-0.014-0.729-0.042v3.376h-2.115V307.962z M260.322,312.249c0.182,0.042,0.406,0.056,0.714,0.056
			c1.135,0,1.835-0.574,1.835-1.541c0-0.868-0.602-1.387-1.667-1.387c-0.434,0-0.728,0.042-0.882,0.084V312.249z"/>
		<path style="fill:#FFFFFF;" d="M271.959,313.285h-3.475v2.241h3.881v1.751h-6.024v-9.441h5.828v1.751h-3.685v1.961h3.475V313.285z
			"/>
		<path style="fill:#FFFFFF;" d="M273.817,307.962c0.687-0.111,1.709-0.195,2.843-0.195c1.401,0,2.382,0.21,3.054,0.742
			c0.561,0.448,0.869,1.106,0.869,1.975c0,1.205-0.854,2.031-1.667,2.325v0.042c0.658,0.267,1.022,0.896,1.261,1.766
			c0.294,1.064,0.588,2.297,0.771,2.661h-2.186c-0.154-0.267-0.378-1.036-0.658-2.199c-0.252-1.177-0.658-1.499-1.527-1.513h-0.644
			v3.712h-2.115V307.962z M275.932,312.025h0.84c1.064,0,1.695-0.532,1.695-1.358c0-0.869-0.589-1.303-1.569-1.317
			c-0.518,0-0.812,0.042-0.966,0.07V312.025z"/>
		<path style="fill:#FFFFFF;" d="M290.103,313.663c-0.042-1.135-0.084-2.507-0.084-3.88h-0.042c-0.295,1.205-0.687,2.55-1.051,3.656
			l-1.148,3.684h-1.667l-1.009-3.656c-0.309-1.106-0.631-2.451-0.854-3.684h-0.028c-0.056,1.274-0.098,2.731-0.168,3.908
			l-0.168,3.586h-1.975l0.602-9.441h2.844l0.925,3.152c0.294,1.092,0.588,2.269,0.798,3.375h0.042
			c0.267-1.092,0.589-2.339,0.896-3.39l1.009-3.138h2.788l0.518,9.441h-2.087L290.103,313.663z"/>
		<path style="fill:#FFFFFF;" d="M296.105,307.836v9.441h-2.143v-9.441H296.105z"/>
		<path style="fill:#FFFFFF;" d="M299.773,309.629h-2.535v-1.793h7.256v1.793h-2.577v7.648h-2.144V309.629z"/>
		<path style="fill:#FFFFFF;" d="M307.767,307.836v9.441h-2.143v-9.441H307.767z"/>
		<path style="fill:#FFFFFF;" d="M309.615,307.962c0.687-0.111,1.709-0.195,2.843-0.195c1.401,0,2.382,0.21,3.054,0.742
			c0.561,0.448,0.869,1.106,0.869,1.975c0,1.205-0.854,2.031-1.667,2.325v0.042c0.658,0.267,1.022,0.896,1.261,1.766
			c0.294,1.064,0.588,2.297,0.771,2.661h-2.186c-0.154-0.267-0.378-1.036-0.658-2.199c-0.252-1.177-0.658-1.499-1.527-1.513h-0.644
			v3.712h-2.115V307.962z M311.73,312.025h0.84c1.064,0,1.695-0.532,1.695-1.358c0-0.869-0.589-1.303-1.569-1.317
			c-0.518,0-0.812,0.042-0.966,0.07V312.025z"/>
		<path style="fill:#FFFFFF;" d="M322.944,314.855l-0.673,2.423h-2.213l2.886-9.441h2.801l2.928,9.441h-2.297l-0.729-2.423H322.944z
			 M325.338,313.257l-0.588-2.003c-0.168-0.561-0.336-1.261-0.477-1.82h-0.027c-0.141,0.56-0.28,1.274-0.435,1.82l-0.561,2.003
			H325.338z"/>
		<path style="fill:#FFFFFF;" d="M329.928,307.962c0.56-0.111,1.694-0.195,2.759-0.195c1.303,0,2.102,0.126,2.788,0.532
			c0.658,0.35,1.135,0.994,1.135,1.849c0,0.841-0.49,1.625-1.556,2.018v0.027c1.079,0.294,1.878,1.106,1.878,2.325
			c0,0.854-0.393,1.527-0.981,2.003c-0.686,0.547-1.835,0.854-3.712,0.854c-1.05,0-1.835-0.069-2.311-0.14V307.962z
			 M332.044,311.576h0.7c1.12,0,1.723-0.462,1.723-1.162c0-0.715-0.546-1.093-1.513-1.093c-0.462,0-0.729,0.027-0.91,0.056V311.576z
			 M332.044,315.765c0.21,0.028,0.462,0.028,0.826,0.028c0.967,0,1.821-0.364,1.821-1.359c0-0.952-0.854-1.33-1.92-1.33h-0.728
			V315.765z"/>
		<path style="fill:#FFFFFF;" d="M347.027,312.459c0,3.096-1.877,4.973-4.637,4.973c-2.802,0-4.44-2.115-4.44-4.805
			c0-2.83,1.807-4.944,4.595-4.944C345.444,307.683,347.027,309.854,347.027,312.459z M340.205,312.585
			c0,1.849,0.869,3.151,2.298,3.151c1.442,0,2.269-1.373,2.269-3.208c0-1.694-0.812-3.151-2.283-3.151
			C341.045,309.377,340.205,310.75,340.205,312.585z"/>
		<path style="fill:#FFFFFF;" d="M348.422,307.962c0.687-0.111,1.709-0.195,2.843-0.195c1.401,0,2.382,0.21,3.054,0.742
			c0.561,0.448,0.869,1.106,0.869,1.975c0,1.205-0.854,2.031-1.667,2.325v0.042c0.658,0.267,1.022,0.896,1.261,1.766
			c0.294,1.064,0.588,2.297,0.771,2.661h-2.186c-0.154-0.267-0.378-1.036-0.658-2.199c-0.252-1.177-0.658-1.499-1.527-1.513h-0.644
			v3.712h-2.115V307.962z M350.538,312.025h0.84c1.064,0,1.695-0.532,1.695-1.358c0-0.869-0.589-1.303-1.569-1.317
			c-0.518,0-0.812,0.042-0.966,0.07V312.025z"/>
		<path style="fill:#FFFFFF;" d="M356.724,307.962c0.784-0.126,1.807-0.195,2.885-0.195c1.793,0,2.956,0.321,3.866,1.008
			c0.98,0.729,1.598,1.892,1.598,3.559c0,1.807-0.659,3.054-1.569,3.823c-0.994,0.827-2.507,1.219-4.356,1.219
			c-1.106,0-1.891-0.069-2.423-0.14V307.962z M358.867,315.666c0.183,0.043,0.477,0.043,0.742,0.043
			c1.934,0.014,3.194-1.051,3.194-3.307c0.014-1.961-1.135-2.997-2.97-2.997c-0.477,0-0.784,0.042-0.967,0.084V315.666z"/>
		<path style="fill:#FFFFFF;" d="M368.444,314.855l-0.673,2.423h-2.213l2.886-9.441h2.801l2.928,9.441h-2.297l-0.729-2.423H368.444z
			 M370.838,313.257l-0.588-2.003c-0.168-0.561-0.336-1.261-0.477-1.82h-0.027c-0.141,0.56-0.28,1.274-0.435,1.82l-0.561,2.003
			H370.838z"/>
		<path style="fill:#FFFFFF;" d="M375.428,307.962c0.687-0.111,1.709-0.195,2.843-0.195c1.401,0,2.382,0.21,3.054,0.742
			c0.561,0.448,0.869,1.106,0.869,1.975c0,1.205-0.854,2.031-1.667,2.325v0.042c0.658,0.267,1.022,0.896,1.261,1.766
			c0.294,1.064,0.588,2.297,0.771,2.661h-2.186c-0.154-0.267-0.378-1.036-0.658-2.199c-0.252-1.177-0.658-1.499-1.527-1.513h-0.644
			v3.712h-2.115V307.962z M377.544,312.025h0.84c1.064,0,1.695-0.532,1.695-1.358c0-0.869-0.589-1.303-1.569-1.317
			c-0.518,0-0.812,0.042-0.966,0.07V312.025z"/>
		<path style="fill:#FFFFFF;" d="M395.201,312.459c0,3.096-1.877,4.973-4.637,4.973c-2.802,0-4.44-2.115-4.44-4.805
			c0-2.83,1.807-4.944,4.595-4.944C393.618,307.683,395.201,309.854,395.201,312.459z M388.378,312.585
			c0,1.849,0.869,3.151,2.298,3.151c1.442,0,2.269-1.373,2.269-3.208c0-1.694-0.812-3.151-2.283-3.151
			C389.219,309.377,388.378,310.75,388.378,312.585z"/>
		<path style="fill:#FFFFFF;" d="M406.358,317.011c-0.393,0.196-1.274,0.406-2.424,0.406c-3.264,0-4.944-2.03-4.944-4.72
			c0-3.222,2.297-5.015,5.155-5.015c1.106,0,1.946,0.224,2.325,0.42l-0.435,1.694c-0.435-0.182-1.036-0.35-1.793-0.35
			c-1.695,0-3.012,1.022-3.012,3.123c0,1.892,1.121,3.082,3.025,3.082c0.645,0,1.359-0.14,1.779-0.308L406.358,317.011z"/>
		<path style="fill:#FFFFFF;" d="M407.754,307.836h2.143v7.648h3.754v1.793h-5.896V307.836z"/>
		<path style="fill:#FFFFFF;" d="M417.051,307.836v9.441h-2.143v-9.441H417.051z"/>
		<path style="fill:#FFFFFF;" d="M424.516,313.285h-3.475v2.241h3.88v1.751h-6.022v-9.441h5.827v1.751h-3.685v1.961h3.475V313.285z"
			/>
		<path style="fill:#FFFFFF;" d="M426.375,317.277v-9.441h2.493l1.961,3.46c0.561,0.995,1.12,2.171,1.541,3.236h0.042
			c-0.141-1.247-0.183-2.521-0.183-3.937v-2.76h1.962v9.441h-2.242l-2.017-3.642c-0.561-1.009-1.177-2.228-1.639-3.334l-0.042,0.014
			c0.056,1.247,0.084,2.577,0.084,4.118v2.844H426.375z"/>
		<path style="fill:#FFFFFF;" d="M437.855,309.629h-2.535v-1.793h7.256v1.793h-2.577v7.648h-2.144V309.629z"/>
		<path style="fill:#FFFFFF;" d="M449.324,313.285h-3.475v2.241h3.881v1.751h-6.023v-9.441h5.827v1.751h-3.685v1.961h3.475V313.285z
			"/>
		<path style="fill:#FFFFFF;" d="M122.845,333.811c-0.393,0.196-1.275,0.406-2.423,0.406c-3.264,0-4.945-2.03-4.945-4.72
			c0-3.222,2.297-5.015,5.155-5.015c1.106,0,1.947,0.224,2.325,0.42l-0.434,1.694c-0.434-0.182-1.037-0.35-1.793-0.35
			c-1.695,0-3.012,1.022-3.012,3.124c0,1.891,1.121,3.081,3.026,3.081c0.644,0,1.358-0.14,1.779-0.308L122.845,333.811z"/>
		<path style="fill:#FFFFFF;" d="M132.463,329.259c0,3.096-1.877,4.973-4.637,4.973c-2.801,0-4.44-2.115-4.44-4.805
			c0-2.83,1.807-4.944,4.595-4.944C130.88,324.483,132.463,326.653,132.463,329.259z M125.642,329.385
			c0,1.849,0.868,3.151,2.297,3.151c1.443,0,2.27-1.372,2.27-3.208c0-1.694-0.812-3.151-2.283-3.151
			C126.482,326.177,125.642,327.55,125.642,329.385z"/>
		<path style="fill:#FFFFFF;" d="M141.843,330.463c-0.042-1.135-0.084-2.507-0.084-3.88h-0.042c-0.294,1.205-0.687,2.55-1.051,3.656
			l-1.148,3.684h-1.667l-1.008-3.655c-0.308-1.107-0.63-2.452-0.854-3.685h-0.028c-0.056,1.274-0.098,2.731-0.168,3.908
			l-0.168,3.586h-1.975l0.603-9.441h2.843l0.925,3.152c0.294,1.092,0.588,2.269,0.798,3.376h0.042
			c0.266-1.093,0.588-2.34,0.896-3.391l1.008-3.138h2.788l0.519,9.441h-2.087L141.843,330.463z"/>
		<path style="fill:#FFFFFF;" d="M157.173,329.259c0,3.096-1.877,4.973-4.637,4.973c-2.801,0-4.44-2.115-4.44-4.805
			c0-2.83,1.807-4.944,4.595-4.944C155.59,324.483,157.173,326.653,157.173,329.259z M150.352,329.385
			c0,1.849,0.868,3.151,2.297,3.151c1.443,0,2.27-1.372,2.27-3.208c0-1.694-0.812-3.151-2.283-3.151
			C151.192,326.177,150.352,327.55,150.352,329.385z"/>
		<path style="fill:#FFFFFF;" d="M158.568,324.636h5.771v1.751h-3.628v2.157h3.39v1.737h-3.39v3.796h-2.144V324.636z"/>
		<path style="fill:#FFFFFF;" d="M171.564,330.085h-3.474v2.241h3.88v1.751h-6.023v-9.441h5.827v1.751h-3.684v1.961h3.474V330.085z"
			/>
		<path style="fill:#FFFFFF;" d="M173.422,324.762c0.687-0.111,1.709-0.195,2.844-0.195c1.401,0,2.381,0.21,3.054,0.742
			c0.56,0.448,0.868,1.106,0.868,1.975c0,1.205-0.854,2.031-1.667,2.325v0.042c0.658,0.267,1.022,0.896,1.261,1.766
			c0.294,1.064,0.588,2.297,0.77,2.661h-2.185c-0.154-0.267-0.378-1.036-0.658-2.199c-0.252-1.177-0.659-1.499-1.527-1.513h-0.645
			v3.712h-2.115V324.762z M175.538,328.824h0.84c1.065,0,1.695-0.532,1.695-1.358c0-0.869-0.588-1.303-1.569-1.317
			c-0.519,0-0.812,0.042-0.967,0.07V328.824z"/>
		<path style="fill:#FFFFFF;" d="M183.545,326.429h-2.536v-1.793h7.256v1.793h-2.577v7.648h-2.143V326.429z"/>
		<path style="fill:#FFFFFF;" d="M190.587,331.654l-0.672,2.423h-2.213l2.885-9.441h2.802l2.927,9.441h-2.297l-0.729-2.423H190.587z
			 M192.983,330.057l-0.588-2.003c-0.168-0.561-0.336-1.261-0.476-1.821h-0.028c-0.14,0.561-0.28,1.275-0.434,1.821l-0.561,2.003
			H192.983z"/>
		<path style="fill:#FFFFFF;" d="M197.643,331.878c0.574,0.294,1.457,0.588,2.367,0.588c0.98,0,1.499-0.405,1.499-1.022
			c0-0.588-0.448-0.924-1.583-1.33c-1.569-0.547-2.591-1.415-2.591-2.788c0-1.61,1.345-2.843,3.572-2.843
			c1.064,0,1.849,0.224,2.409,0.476l-0.476,1.724c-0.378-0.183-1.051-0.449-1.975-0.449s-1.373,0.421-1.373,0.911
			c0,0.603,0.532,0.868,1.75,1.331c1.667,0.616,2.452,1.484,2.452,2.815c0,1.582-1.219,2.927-3.81,2.927
			c-1.079,0-2.143-0.279-2.676-0.574L197.643,331.878z"/>
		<path style="fill:#FFFFFF;" d="M213.578,330.085h-3.474v2.241h3.88v1.751h-6.023v-9.441h5.827v1.751h-3.684v1.961h3.474V330.085z"
			/>
		<path style="fill:#FFFFFF;" d="M220.464,331.654l-0.672,2.423h-2.213l2.885-9.441h2.802l2.928,9.441h-2.297l-0.729-2.423H220.464z
			 M222.859,330.057l-0.588-2.003c-0.168-0.561-0.336-1.261-0.476-1.821h-0.028c-0.14,0.561-0.28,1.275-0.434,1.821l-0.561,2.003
			H222.859z"/>
		<path style="fill:#FFFFFF;" d="M234.033,333.811c-0.378,0.183-1.191,0.393-2.255,0.406l-0.238,0.477
			c0.546,0.126,1.022,0.49,1.022,1.148c0,0.967-0.868,1.289-1.667,1.289c-0.42,0-0.883-0.084-1.205-0.267l0.28-0.868
			c0.21,0.112,0.532,0.196,0.785,0.196c0.28,0,0.504-0.099,0.504-0.336c0-0.295-0.322-0.448-1.107-0.532l0.532-1.163
			c-2.661-0.351-4.02-2.241-4.02-4.664c0-3.222,2.297-5.015,5.155-5.015c1.106,0,1.947,0.224,2.325,0.42l-0.434,1.694
			c-0.434-0.182-1.037-0.35-1.793-0.35c-1.695,0-3.012,1.022-3.012,3.124c0,1.891,1.121,3.081,3.026,3.081
			c0.644,0,1.358-0.14,1.779-0.308L234.033,333.811z"/>
		<path style="fill:#FFFFFF;" d="M243.651,329.259c0,3.096-1.877,4.973-4.637,4.973c-2.802,0-4.44-2.115-4.44-4.805
			c0-2.83,1.807-4.944,4.595-4.944C242.068,324.483,243.651,326.653,243.651,329.259z M236.83,329.385
			c0,1.849,0.868,3.151,2.297,3.151c1.442,0,2.269-1.372,2.269-3.208c0-1.694-0.812-3.151-2.283-3.151
			C237.67,326.177,236.83,327.55,236.83,329.385z M237.152,324.076c-0.042-1.191,0.406-1.793,1.079-1.793
			c0.378,0,0.63,0.14,0.896,0.279c0.224,0.141,0.434,0.267,0.616,0.267c0.224,0,0.322-0.126,0.378-0.588h0.953
			c0.042,1.246-0.364,1.736-1.106,1.736c-0.378,0-0.659-0.126-0.911-0.252c-0.238-0.14-0.406-0.252-0.588-0.252
			s-0.308,0.196-0.336,0.603H237.152z"/>
		<path style="fill:#FFFFFF;" d="M250.664,330.085h-3.474v2.241h3.88v1.751h-6.023v-9.441h5.827v1.751h-3.684v1.961h3.474V330.085z"
			/>
		<path style="fill:#FFFFFF;" d="M252.593,331.878c0.574,0.294,1.457,0.588,2.367,0.588c0.98,0,1.499-0.405,1.499-1.022
			c0-0.588-0.448-0.924-1.583-1.33c-1.569-0.547-2.591-1.415-2.591-2.788c0-1.61,1.345-2.843,3.572-2.843
			c1.064,0,1.849,0.224,2.409,0.476l-0.476,1.724c-0.378-0.183-1.051-0.449-1.975-0.449s-1.373,0.421-1.373,0.911
			c0,0.603,0.532,0.868,1.75,1.331c1.667,0.616,2.452,1.484,2.452,2.815c0,1.582-1.219,2.927-3.81,2.927
			c-1.079,0-2.143-0.279-2.676-0.574L252.593,331.878z"/>
		<path style="fill:#FFFFFF;" d="M262.911,324.762c0.785-0.126,1.807-0.195,2.886-0.195c1.793,0,2.956,0.322,3.866,1.008
			c0.98,0.729,1.598,1.892,1.598,3.559c0,1.807-0.659,3.054-1.569,3.824c-0.994,0.826-2.507,1.218-4.357,1.218
			c-1.106,0-1.891-0.069-2.423-0.14V324.762z M265.054,332.466c0.182,0.042,0.476,0.042,0.742,0.042
			c1.934,0.015,3.194-1.05,3.194-3.306c0.014-1.961-1.135-2.997-2.97-2.997c-0.476,0-0.784,0.042-0.966,0.084V332.466z"/>
		<path style="fill:#FFFFFF;" d="M278.272,330.085h-3.475v2.241h3.88v1.751h-6.022v-9.441h5.827v1.751h-3.685v1.961h3.475V330.085z"
			/>
		<path style="fill:#FFFFFF;" d="M285.102,324.636v9.441h-2.143v-9.441H285.102z"/>
		<path style="fill:#FFFFFF;" d="M286.95,334.077v-9.441h2.493l1.961,3.46c0.561,0.995,1.121,2.172,1.541,3.236h0.042
			c-0.141-1.247-0.183-2.521-0.183-3.937v-2.76h1.961v9.441h-2.24l-2.018-3.642c-0.561-1.009-1.177-2.228-1.639-3.334l-0.042,0.014
			c0.056,1.247,0.084,2.577,0.084,4.118v2.844H286.95z"/>
		<path style="fill:#FFFFFF;" d="M303.544,333.811c-0.393,0.196-1.274,0.406-2.424,0.406c-3.264,0-4.944-2.03-4.944-4.72
			c0-3.222,2.297-5.015,5.155-5.015c1.106,0,1.946,0.224,2.325,0.42l-0.435,1.694c-0.435-0.182-1.036-0.35-1.793-0.35
			c-1.695,0-3.012,1.022-3.012,3.124c0,1.891,1.121,3.081,3.025,3.081c0.645,0,1.359-0.14,1.779-0.308L303.544,333.811z"/>
		<path style="fill:#FFFFFF;" d="M310.557,330.085h-3.475v2.241h3.88v1.751h-6.022v-9.441h5.827v1.751h-3.685v1.961h3.475V330.085z"
			/>
		<path style="fill:#FFFFFF;" d="M312.415,334.077v-9.441h2.493l1.961,3.46c0.561,0.995,1.121,2.172,1.541,3.236h0.042
			c-0.141-1.247-0.183-2.521-0.183-3.937v-2.76h1.961v9.441h-2.24l-2.018-3.642c-0.561-1.009-1.177-2.228-1.639-3.334l-0.042,0.014
			c0.056,1.247,0.084,2.577,0.084,4.118v2.844H312.415z"/>
		<path style="fill:#FFFFFF;" d="M323.895,326.429h-2.535v-1.793h7.256v1.793h-2.577v7.648h-2.144V326.429z"/>
		<path style="fill:#FFFFFF;" d="M331.889,324.636v9.441h-2.143v-9.441H331.889z"/>
		<path style="fill:#FFFFFF;" d="M335.963,334.077l-3.025-9.441h2.339l1.149,3.992c0.322,1.121,0.616,2.199,0.84,3.376h0.042
			c0.238-1.135,0.532-2.255,0.854-3.334l1.205-4.034h2.27l-3.18,9.441H335.963z"/>
		<path style="fill:#FFFFFF;" d="M351.171,329.259c0,3.096-1.877,4.973-4.637,4.973c-2.802,0-4.44-2.115-4.44-4.805
			c0-2.83,1.807-4.944,4.595-4.944C349.588,324.483,351.171,326.653,351.171,329.259z M344.349,329.385
			c0,1.849,0.869,3.151,2.298,3.151c1.442,0,2.269-1.372,2.269-3.208c0-1.694-0.812-3.151-2.283-3.151
			C345.19,326.177,344.349,327.55,344.349,329.385z"/>
		<path style="fill:#FFFFFF;" d="M357.594,331.654l-0.673,2.423h-2.213l2.886-9.441h2.801l2.928,9.441h-2.297l-0.729-2.423H357.594z
			 M359.989,330.057l-0.588-2.003c-0.168-0.561-0.336-1.261-0.477-1.821h-0.027c-0.141,0.561-0.28,1.275-0.435,1.821l-0.561,2.003
			H359.989z"/>
		<path style="fill:#FFFFFF;" d="M364.579,324.762c0.784-0.126,1.807-0.195,2.886-0.195c1.793,0,2.955,0.322,3.865,1.008
			c0.98,0.729,1.598,1.892,1.598,3.559c0,1.807-0.659,3.054-1.569,3.824c-0.994,0.826-2.507,1.218-4.356,1.218
			c-1.106,0-1.891-0.069-2.423-0.14V324.762z M366.721,332.466c0.183,0.042,0.477,0.042,0.743,0.042
			c1.933,0.015,3.193-1.05,3.193-3.306c0.014-1.961-1.135-2.997-2.97-2.997c-0.477,0-0.784,0.042-0.967,0.084V332.466z"/>
		<path style="fill:#FFFFFF;" d="M379.94,330.085h-3.475v2.241h3.88v1.751h-6.022v-9.441h5.827v1.751h-3.685v1.961h3.475V330.085z"
			/>
		<path style="fill:#FFFFFF;" d="M381.798,324.762c0.687-0.111,1.709-0.195,2.843-0.195c1.401,0,2.382,0.21,3.054,0.742
			c0.561,0.448,0.869,1.106,0.869,1.975c0,1.205-0.854,2.031-1.667,2.325v0.042c0.658,0.267,1.022,0.896,1.261,1.766
			c0.294,1.064,0.588,2.297,0.771,2.661h-2.186c-0.154-0.267-0.378-1.036-0.658-2.199c-0.252-1.177-0.658-1.499-1.527-1.513h-0.644
			v3.712h-2.115V324.762z M383.914,328.824h0.84c1.064,0,1.695-0.532,1.695-1.358c0-0.869-0.589-1.303-1.569-1.317
			c-0.518,0-0.812,0.042-0.966,0.07V328.824z"/>
		<path style="fill:#FFFFFF;" d="M395.717,330.085h-3.475v2.241h3.88v1.751H390.1v-9.441h5.827v1.751h-3.685v1.961h3.475V330.085z"
			/>
		<path style="fill:#FFFFFF;" d="M397.576,334.077v-9.441h2.493l1.961,3.46c0.561,0.995,1.12,2.172,1.541,3.236h0.042
			c-0.141-1.247-0.183-2.521-0.183-3.937v-2.76h1.962v9.441h-2.242l-2.017-3.642c-0.561-1.009-1.177-2.228-1.639-3.334l-0.042,0.014
			c0.056,1.247,0.084,2.577,0.084,4.118v2.844H397.576z"/>
		<path style="fill:#FFFFFF;" d="M409.056,326.429h-2.535v-1.793h7.256v1.793H411.2v7.648h-2.144V326.429z"/>
		<path style="fill:#FFFFFF;" d="M420.525,330.085h-3.475v2.241h3.881v1.751h-6.023v-9.441h5.827v1.751h-3.685v1.961h3.475V330.085z
			"/>
		<path style="fill:#FFFFFF;" d="M422.453,331.878c0.574,0.294,1.457,0.588,2.367,0.588c0.981,0,1.499-0.405,1.499-1.022
			c0-0.588-0.448-0.924-1.583-1.33c-1.568-0.547-2.591-1.415-2.591-2.788c0-1.61,1.345-2.843,3.571-2.843
			c1.065,0,1.85,0.224,2.41,0.476l-0.477,1.724c-0.378-0.183-1.051-0.449-1.976-0.449c-0.924,0-1.372,0.421-1.372,0.911
			c0,0.603,0.532,0.868,1.751,1.331c1.667,0.616,2.451,1.484,2.451,2.815c0,1.582-1.219,2.927-3.811,2.927
			c-1.078,0-2.143-0.279-2.675-0.574L422.453,331.878z"/>
		<path style="fill:#FFFFFF;" d="M434.97,331.654l-0.673,2.423h-2.213l2.886-9.441h2.801l2.928,9.441h-2.297l-0.729-2.423H434.97z
			 M437.365,330.057l-0.588-2.003c-0.168-0.561-0.336-1.261-0.477-1.821h-0.027c-0.141,0.561-0.28,1.275-0.435,1.821l-0.561,2.003
			H437.365z"/>
		<path style="fill:#FFFFFF;" d="M442.024,331.878c0.575,0.294,1.457,0.588,2.368,0.588c0.98,0,1.498-0.405,1.498-1.022
			c0-0.588-0.448-0.924-1.583-1.33c-1.568-0.547-2.591-1.415-2.591-2.788c0-1.61,1.345-2.843,3.572-2.843
			c1.064,0,1.849,0.224,2.409,0.476l-0.477,1.724c-0.378-0.183-1.051-0.449-1.976-0.449c-0.924,0-1.372,0.421-1.372,0.911
			c0,0.603,0.532,0.868,1.751,1.331c1.667,0.616,2.451,1.484,2.451,2.815c0,1.582-1.219,2.927-3.811,2.927
			c-1.078,0-2.143-0.279-2.675-0.574L442.024,331.878z"/>
		<path style="fill:#FFFFFF;" d="M115.981,348.678c0.574,0.294,1.457,0.588,2.367,0.588c0.98,0,1.499-0.406,1.499-1.022
			c0-0.588-0.448-0.924-1.583-1.33c-1.569-0.547-2.591-1.415-2.591-2.788c0-1.61,1.345-2.843,3.572-2.843
			c1.064,0,1.849,0.224,2.409,0.476l-0.476,1.723c-0.378-0.182-1.051-0.447-1.975-0.447s-1.373,0.42-1.373,0.91
			c0,0.603,0.532,0.868,1.751,1.33c1.667,0.617,2.451,1.485,2.451,2.816c0,1.582-1.219,2.927-3.81,2.927
			c-1.079,0-2.143-0.279-2.675-0.574L115.981,348.678z"/>
		<path style="fill:#FFFFFF;" d="M125.6,341.436v5.436c0,1.625,0.616,2.451,1.709,2.451c1.121,0,1.737-0.784,1.737-2.451v-5.436
			h2.129v5.295c0,2.914-1.471,4.301-3.936,4.301c-2.381,0-3.782-1.317-3.782-4.328v-5.268H125.6z"/>
		<path style="fill:#FFFFFF;" d="M134.798,348.454l-0.672,2.423h-2.213l2.885-9.441h2.802l2.928,9.441h-2.297l-0.729-2.423H134.798z
			 M137.193,346.857l-0.588-2.003c-0.168-0.561-0.336-1.261-0.476-1.82h-0.028c-0.14,0.56-0.28,1.274-0.434,1.82l-0.561,2.003
			H137.193z"/>
		<path style="fill:#FFFFFF;" d="M141.853,348.678c0.574,0.294,1.457,0.588,2.367,0.588c0.98,0,1.499-0.406,1.499-1.022
			c0-0.588-0.448-0.924-1.583-1.33c-1.569-0.547-2.591-1.415-2.591-2.788c0-1.61,1.345-2.843,3.572-2.843
			c1.064,0,1.849,0.224,2.409,0.476l-0.476,1.723c-0.378-0.182-1.051-0.447-1.975-0.447s-1.373,0.42-1.373,0.91
			c0,0.603,0.532,0.868,1.751,1.33c1.667,0.617,2.451,1.485,2.451,2.816c0,1.582-1.219,2.927-3.81,2.927
			c-1.079,0-2.143-0.279-2.675-0.574L141.853,348.678z"/>
		<path style="fill:#FFFFFF;" d="M152.171,350.877v-9.441h2.494l1.961,3.46c0.56,0.995,1.121,2.171,1.541,3.236h0.042
			c-0.14-1.247-0.182-2.521-0.182-3.937v-2.76h1.961v9.441h-2.241l-2.017-3.642c-0.56-1.009-1.177-2.228-1.639-3.334l-0.042,0.014
			c0.056,1.247,0.084,2.577,0.084,4.118v2.844H152.171z"/>
		<path style="fill:#FFFFFF;" d="M167.448,346.885h-3.474v2.241h3.88v1.751h-6.023v-9.441h5.827v1.751h-3.684v1.961h3.474V346.885z"
			/>
		<path style="fill:#FFFFFF;" d="M176.241,350.61c-0.393,0.196-1.275,0.406-2.423,0.406c-3.264,0-4.945-2.03-4.945-4.72
			c0-3.222,2.297-5.015,5.155-5.015c1.106,0,1.947,0.224,2.325,0.42l-0.434,1.694c-0.434-0.182-1.037-0.35-1.793-0.35
			c-1.695,0-3.012,1.022-3.012,3.123c0,1.892,1.121,3.082,3.026,3.082c0.644,0,1.358-0.14,1.779-0.308L176.241,350.61z"/>
		<path style="fill:#FFFFFF;" d="M183.253,346.885h-3.474v2.241h3.88v1.751h-6.023v-9.441h5.827v1.751h-3.684v1.961h3.474V346.885z"
			/>
		<path style="fill:#FFFFFF;" d="M185.183,348.678c0.574,0.294,1.457,0.588,2.367,0.588c0.98,0,1.499-0.406,1.499-1.022
			c0-0.588-0.448-0.924-1.583-1.33c-1.569-0.547-2.591-1.415-2.591-2.788c0-1.61,1.345-2.843,3.572-2.843
			c1.064,0,1.849,0.224,2.409,0.476l-0.476,1.723c-0.378-0.182-1.051-0.447-1.975-0.447s-1.373,0.42-1.373,0.91
			c0,0.603,0.532,0.868,1.75,1.33c1.667,0.617,2.452,1.485,2.452,2.816c0,1.582-1.219,2.927-3.81,2.927
			c-1.079,0-2.143-0.279-2.676-0.574L185.183,348.678z"/>
		<path style="fill:#FFFFFF;" d="M192.743,348.678c0.574,0.294,1.457,0.588,2.367,0.588c0.98,0,1.499-0.406,1.499-1.022
			c0-0.588-0.448-0.924-1.583-1.33c-1.569-0.547-2.591-1.415-2.591-2.788c0-1.61,1.345-2.843,3.572-2.843
			c1.064,0,1.849,0.224,2.409,0.476l-0.476,1.723c-0.378-0.182-1.051-0.447-1.975-0.447s-1.373,0.42-1.373,0.91
			c0,0.603,0.532,0.868,1.751,1.33c1.667,0.617,2.451,1.485,2.451,2.816c0,1.582-1.219,2.927-3.81,2.927
			c-1.079,0-2.143-0.279-2.675-0.574L192.743,348.678z"/>
		<path style="fill:#FFFFFF;" d="M202.376,341.436v9.441h-2.144v-9.441H202.376z"/>
		<path style="fill:#FFFFFF;" d="M204.222,341.562c0.785-0.126,1.807-0.195,2.886-0.195c1.793,0,2.956,0.321,3.866,1.008
			c0.98,0.729,1.597,1.892,1.597,3.559c0,1.807-0.658,3.054-1.569,3.823c-0.995,0.827-2.507,1.219-4.356,1.219
			c-1.106,0-1.891-0.069-2.423-0.14V341.562z M206.366,349.266c0.182,0.043,0.476,0.043,0.742,0.043
			c1.933,0.014,3.194-1.051,3.194-3.307c0.014-1.961-1.135-2.997-2.97-2.997c-0.476,0-0.784,0.042-0.966,0.084V349.266z"/>
		<path style="fill:#FFFFFF;" d="M215.941,348.454l-0.672,2.423h-2.213l2.885-9.441h2.802l2.928,9.441h-2.297l-0.729-2.423H215.941z
			 M218.337,346.857l-0.588-2.003c-0.168-0.561-0.336-1.261-0.476-1.82h-0.028c-0.14,0.56-0.28,1.274-0.434,1.82l-0.561,2.003
			H218.337z"/>
		<path style="fill:#FFFFFF;" d="M222.926,341.562c0.785-0.126,1.807-0.195,2.886-0.195c1.793,0,2.956,0.321,3.866,1.008
			c0.98,0.729,1.597,1.892,1.597,3.559c0,1.807-0.658,3.054-1.569,3.823c-0.995,0.827-2.507,1.219-4.356,1.219
			c-1.106,0-1.891-0.069-2.423-0.14V341.562z M225.07,349.266c0.182,0.043,0.476,0.043,0.742,0.043
			c1.933,0.014,3.194-1.051,3.194-3.307c0.014-1.961-1.135-2.997-2.97-2.997c-0.476,0-0.784,0.042-0.966,0.084V349.266z"/>
		<path style="fill:#FFFFFF;" d="M238.288,346.885h-3.474v2.241h3.88v1.751h-6.023v-9.441h5.827v1.751h-3.684v1.961h3.474V346.885z"
			/>
		<path style="fill:#FFFFFF;" d="M240.217,348.678c0.574,0.294,1.457,0.588,2.367,0.588c0.98,0,1.499-0.406,1.499-1.022
			c0-0.588-0.448-0.924-1.583-1.33c-1.569-0.547-2.591-1.415-2.591-2.788c0-1.61,1.345-2.843,3.572-2.843
			c1.064,0,1.849,0.224,2.409,0.476l-0.476,1.723c-0.378-0.182-1.051-0.447-1.975-0.447s-1.373,0.42-1.373,0.91
			c0,0.603,0.532,0.868,1.75,1.33c1.667,0.617,2.452,1.485,2.452,2.816c0,1.582-1.219,2.927-3.81,2.927
			c-1.079,0-2.143-0.279-2.676-0.574L240.217,348.678z"/>
		<path style="fill:#FFFFFF;" d="M250.535,341.562c0.785-0.126,1.807-0.195,2.886-0.195c1.793,0,2.956,0.321,3.866,1.008
			c0.98,0.729,1.597,1.892,1.597,3.559c0,1.807-0.658,3.054-1.569,3.823c-0.995,0.827-2.507,1.219-4.356,1.219
			c-1.106,0-1.891-0.069-2.423-0.14V341.562z M252.678,349.266c0.182,0.043,0.476,0.043,0.742,0.043
			c1.933,0.014,3.194-1.051,3.194-3.307c0.014-1.961-1.135-2.997-2.97-2.997c-0.476,0-0.784,0.042-0.966,0.084V349.266z"/>
		<path style="fill:#FFFFFF;" d="M262.408,341.436v5.436c0,1.625,0.616,2.451,1.709,2.451c1.121,0,1.737-0.784,1.737-2.451v-5.436
			h2.13v5.295c0,2.914-1.472,4.301-3.937,4.301c-2.381,0-3.782-1.317-3.782-4.328v-5.268H262.408z"/>
		<path style="fill:#FFFFFF;" d="M269.829,341.562c0.687-0.111,1.709-0.195,2.843-0.195c1.401,0,2.382,0.21,3.054,0.742
			c0.561,0.448,0.869,1.106,0.869,1.975c0,1.205-0.854,2.031-1.667,2.325v0.042c0.658,0.267,1.022,0.896,1.261,1.766
			c0.294,1.064,0.588,2.297,0.771,2.661h-2.186c-0.154-0.267-0.378-1.036-0.658-2.199c-0.252-1.177-0.658-1.499-1.527-1.513h-0.644
			v3.712h-2.115V341.562z M271.944,345.624h0.84c1.064,0,1.695-0.532,1.695-1.358c0-0.869-0.589-1.303-1.569-1.317
			c-0.518,0-0.812,0.042-0.966,0.07V345.624z"/>
		<path style="fill:#FFFFFF;" d="M280.456,348.454l-0.673,2.423h-2.213l2.886-9.441h2.801l2.928,9.441h-2.297l-0.729-2.423H280.456z
			 M282.85,346.857l-0.588-2.003c-0.168-0.561-0.336-1.261-0.477-1.82h-0.027c-0.141,0.56-0.28,1.274-0.435,1.82l-0.561,2.003
			H282.85z"/>
		<path style="fill:#FFFFFF;" d="M287.44,350.877v-9.441h2.493l1.961,3.46c0.561,0.995,1.121,2.171,1.541,3.236h0.042
			c-0.141-1.247-0.183-2.521-0.183-3.937v-2.76h1.961v9.441h-2.24l-2.018-3.642c-0.561-1.009-1.177-2.228-1.639-3.334l-0.042,0.014
			c0.056,1.247,0.084,2.577,0.084,4.118v2.844H287.44z"/>
		<path style="fill:#FFFFFF;" d="M298.92,343.229h-2.535v-1.793h7.256v1.793h-2.577v7.648h-2.144V343.229z"/>
		<path style="fill:#FFFFFF;" d="M310.389,346.885h-3.475v2.241h3.88v1.751h-6.022v-9.441h5.827v1.751h-3.685v1.961h3.475V346.885z"
			/>
		<path style="fill:#FFFFFF;" d="M315.145,348.678c0.575,0.294,1.457,0.588,2.368,0.588c0.98,0,1.498-0.406,1.498-1.022
			c0-0.588-0.448-0.924-1.583-1.33c-1.568-0.547-2.591-1.415-2.591-2.788c0-1.61,1.345-2.843,3.572-2.843
			c1.064,0,1.849,0.224,2.409,0.476l-0.477,1.723c-0.378-0.182-1.051-0.447-1.976-0.447c-0.924,0-1.372,0.42-1.372,0.91
			c0,0.603,0.532,0.868,1.751,1.33c1.667,0.617,2.451,1.485,2.451,2.816c0,1.582-1.219,2.927-3.811,2.927
			c-1.078,0-2.143-0.279-2.675-0.574L315.145,348.678z"/>
		<path style="fill:#FFFFFF;" d="M328.253,346.885h-3.475v2.241h3.88v1.751h-6.022v-9.441h5.827v1.751h-3.685v1.961h3.475V346.885z"
			/>
		<path style="fill:#FFFFFF;" d="M332.24,341.436v5.436c0,1.625,0.616,2.451,1.709,2.451c1.12,0,1.736-0.784,1.736-2.451v-5.436
			h2.13v5.295c0,2.914-1.471,4.301-3.937,4.301c-2.381,0-3.782-1.317-3.782-4.328v-5.268H332.24z"/>
		<path style="fill:#FFFFFF;" d="M349.42,350.61c-0.393,0.196-1.274,0.406-2.424,0.406c-3.264,0-4.944-2.03-4.944-4.72
			c0-3.222,2.297-5.015,5.155-5.015c1.106,0,1.946,0.224,2.325,0.42l-0.435,1.694c-0.435-0.182-1.036-0.35-1.793-0.35
			c-1.695,0-3.012,1.022-3.012,3.123c0,1.892,1.121,3.082,3.025,3.082c0.645,0,1.359-0.14,1.779-0.308L349.42,350.61z"/>
		<path style="fill:#FFFFFF;" d="M352.96,341.436v9.441h-2.143v-9.441H352.96z"/>
		<path style="fill:#FFFFFF;" d="M361.741,350.61c-0.393,0.196-1.274,0.406-2.424,0.406c-3.264,0-4.944-2.03-4.944-4.72
			c0-3.222,2.297-5.015,5.155-5.015c1.106,0,1.946,0.224,2.325,0.42l-0.435,1.694c-0.435-0.182-1.036-0.35-1.793-0.35
			c-1.695,0-3.012,1.022-3.012,3.123c0,1.892,1.121,3.082,3.025,3.082c0.645,0,1.359-0.14,1.779-0.308L361.741,350.61z"/>
		<path style="fill:#FFFFFF;" d="M363.137,341.436h2.143v7.648h3.754v1.793h-5.896V341.436z"/>
		<path style="fill:#FFFFFF;" d="M378.402,346.059c0,3.096-1.877,4.973-4.637,4.973c-2.802,0-4.44-2.115-4.44-4.805
			c0-2.83,1.807-4.944,4.595-4.944C376.819,341.282,378.402,343.453,378.402,346.059z M371.58,346.185
			c0,1.849,0.869,3.151,2.298,3.151c1.442,0,2.269-1.373,2.269-3.208c0-1.694-0.812-3.151-2.283-3.151
			C372.42,342.977,371.58,344.35,371.58,346.185z"/>
		<path style="fill:#FFFFFF;" d="M118.739,358.361c0.785-0.126,1.807-0.195,2.886-0.195c1.793,0,2.956,0.322,3.866,1.008
			c0.98,0.729,1.597,1.892,1.597,3.559c0,1.807-0.658,3.054-1.569,3.824c-0.995,0.826-2.507,1.218-4.356,1.218
			c-1.106,0-1.891-0.069-2.423-0.14V358.361z M120.882,366.066c0.182,0.042,0.476,0.042,0.742,0.042
			c1.933,0.015,3.194-1.05,3.194-3.306c0.014-1.961-1.135-2.997-2.97-2.997c-0.476,0-0.784,0.042-0.966,0.084V366.066z"/>
		<path style="fill:#FFFFFF;" d="M134.1,363.685h-3.474v2.241h3.88v1.751h-6.023v-9.441h5.827v1.751h-3.684v1.961h3.474V363.685z"/>
		<path style="fill:#FFFFFF;" d="M140.497,367.677l-3.026-9.441h2.339l1.148,3.992c0.322,1.121,0.617,2.199,0.841,3.376h0.042
			c0.238-1.135,0.532-2.255,0.854-3.334l1.205-4.034h2.269l-3.18,9.441H140.497z"/>
		<path style="fill:#FFFFFF;" d="M149.317,358.235v9.441h-2.144v-9.441H149.317z"/>
		<path style="fill:#FFFFFF;" d="M151.163,358.361c0.785-0.126,1.807-0.195,2.886-0.195c1.793,0,2.956,0.322,3.866,1.008
			c0.98,0.729,1.597,1.892,1.597,3.559c0,1.807-0.658,3.054-1.569,3.824c-0.995,0.826-2.507,1.218-4.356,1.218
			c-1.106,0-1.891-0.069-2.423-0.14V358.361z M153.306,366.066c0.182,0.042,0.476,0.042,0.742,0.042
			c1.933,0.015,3.194-1.05,3.194-3.306c0.014-1.961-1.135-2.997-2.97-2.997c-0.476,0-0.784,0.042-0.966,0.084V366.066z"/>
		<path style="fill:#FFFFFF;" d="M162.882,365.254l-0.672,2.423h-2.213l2.885-9.441h2.802l2.927,9.441h-2.297l-0.729-2.423H162.882z
			 M165.278,363.656l-0.588-2.003c-0.168-0.561-0.336-1.261-0.476-1.821h-0.028c-0.14,0.561-0.28,1.275-0.434,1.821l-0.561,2.003
			H165.278z"/>
		<path style="fill:#FFFFFF;" d="M179.629,367.41c-0.393,0.196-1.275,0.406-2.423,0.406c-3.264,0-4.945-2.03-4.945-4.72
			c0-3.222,2.297-5.015,5.155-5.015c1.106,0,1.947,0.224,2.325,0.42l-0.434,1.694c-0.434-0.182-1.037-0.35-1.793-0.35
			c-1.695,0-3.012,1.022-3.012,3.124c0,1.891,1.121,3.081,3.026,3.081c0.644,0,1.358-0.14,1.779-0.308L179.629,367.41z"/>
		<path style="fill:#FFFFFF;" d="M189.248,362.858c0,3.096-1.877,4.973-4.637,4.973c-2.802,0-4.44-2.115-4.44-4.805
			c0-2.83,1.807-4.944,4.595-4.944C187.665,358.082,189.248,360.253,189.248,362.858z M182.426,362.984
			c0,1.849,0.868,3.151,2.297,3.151c1.442,0,2.269-1.372,2.269-3.208c0-1.694-0.812-3.151-2.283-3.151
			C183.267,359.776,182.426,361.15,182.426,362.984z"/>
		<path style="fill:#FFFFFF;" d="M198.628,364.063c-0.042-1.135-0.084-2.507-0.084-3.88h-0.042c-0.294,1.205-0.687,2.55-1.05,3.656
			l-1.149,3.684h-1.667l-1.008-3.655c-0.308-1.107-0.63-2.452-0.854-3.685h-0.028c-0.056,1.274-0.098,2.731-0.168,3.908
			l-0.168,3.586h-1.975l0.603-9.441h2.843l0.925,3.152c0.294,1.092,0.588,2.269,0.798,3.376h0.042
			c0.266-1.093,0.588-2.34,0.896-3.391l1.008-3.138h2.788l0.519,9.441h-2.087L198.628,364.063z"/>
		<path style="fill:#FFFFFF;" d="M207.514,365.254l-0.672,2.423h-2.213l2.885-9.441h2.802l2.927,9.441h-2.297l-0.729-2.423H207.514z
			 M209.91,363.656l-0.588-2.003c-0.168-0.561-0.336-1.261-0.476-1.821h-0.028c-0.14,0.561-0.28,1.275-0.434,1.821l-0.561,2.003
			H209.91z"/>
		<path style="fill:#FFFFFF;" d="M218.603,360.028h-2.536v-1.793h7.256v1.793h-2.577v7.648h-2.143V360.028z"/>
		<path style="fill:#FFFFFF;" d="M226.597,358.235v9.441h-2.144v-9.441H226.597z"/>
		<path style="fill:#FFFFFF;" d="M236.427,364.063c-0.042-1.135-0.084-2.507-0.084-3.88h-0.042c-0.294,1.205-0.687,2.55-1.05,3.656
			l-1.149,3.684h-1.667l-1.008-3.655c-0.308-1.107-0.63-2.452-0.854-3.685h-0.028c-0.056,1.274-0.098,2.731-0.168,3.908
			l-0.168,3.586h-1.975l0.603-9.441h2.843l0.925,3.152c0.294,1.092,0.588,2.269,0.798,3.376h0.042
			c0.266-1.093,0.588-2.34,0.896-3.391l1.008-3.138h2.788l0.519,9.441h-2.087L236.427,364.063z"/>
		<path style="fill:#FFFFFF;" d="M240.063,366.542c0-0.756,0.519-1.303,1.261-1.303c0.743,0,1.247,0.532,1.247,1.303
			c0,0.742-0.504,1.289-1.26,1.289C240.581,367.831,240.063,367.284,240.063,366.542z"/>
	</g>
</g>
<g id="Layer_1">
</g>
</svg>
