<?xml version="1.0" encoding="iso-8859-1"?>
<!-- Generator: Adobe Illustrator 18.0.0, SVG Export Plug-In . SVG Version: 6.00 Build 0)  -->
<!DOCTYPE svg PUBLIC "-//W3C//DTD SVG 1.1//EN" "http://www.w3.org/Graphics/SVG/1.1/DTD/svg11.dtd">
<svg version="1.1" xmlns="http://www.w3.org/2000/svg" xmlns:xlink="http://www.w3.org/1999/xlink" x="0px" y="0px"
	 viewBox="0 0 531.453 494.191" style="enable-background:new 0 0 531.453 494.191;" xml:space="preserve">
<g id="page13-6">
	<g>
		
			<polygon style="fill:none;stroke:#000000;stroke-width:3.6793;stroke-linecap:round;stroke-linejoin:round;stroke-miterlimit:10;" points="
			43.446,14.904 69.635,406.333 475.632,438.052 529.613,82.648 		"/>
		<polygon style="opacity:0.8;fill:#E92325;" points="100.919,49.06 83.146,447.249 518.153,405.508 454.366,31.542 		"/>
		<polygon style="fill:#03B9DB;" points="23.262,106.379 387.98,82.648 390.61,211.407 20.388,285.052 		"/>
		
			<polyline style="fill:none;stroke:#000000;stroke-width:3.6793;stroke-linecap:round;stroke-linejoin:round;stroke-miterlimit:10;" points="
			45.65,296.379 1.84,305.543 4.782,122.591 		"/>
		<g>
			<g>
				<g>
					
						<line style="fill:none;stroke:#000000;stroke-width:3.6793;stroke-linecap:round;stroke-linejoin:round;stroke-miterlimit:10;" x1="20.388" y1="335.586" x2="43.803" y2="335.586"/>
					
						<line style="fill:none;stroke:#000000;stroke-width:3.6793;stroke-linecap:round;stroke-linejoin:round;stroke-miterlimit:10;" x1="32.095" y1="323.878" x2="32.095" y2="347.293"/>
				</g>
				<g>
					
						<line style="fill:none;stroke:#000000;stroke-width:3.6793;stroke-linecap:round;stroke-linejoin:round;stroke-miterlimit:10;" x1="274.822" y1="453.476" x2="298.237" y2="453.476"/>
					
						<line style="fill:none;stroke:#000000;stroke-width:3.6793;stroke-linecap:round;stroke-linejoin:round;stroke-miterlimit:10;" x1="286.53" y1="441.769" x2="286.53" y2="465.184"/>
				</g>
				
					<path style="fill:none;stroke:#000000;stroke-width:3.6793;stroke-linecap:round;stroke-linejoin:round;stroke-miterlimit:10;" d="
					M503.274,13.043c8.685,13.564-5.72,27.969-19.284,19.284c-0.931-0.596-1.73-1.395-2.325-2.326
					c-8.681-13.563,5.721-27.965,19.283-19.283C501.879,11.313,502.678,12.112,503.274,13.043z"/>
				<g>
					
						<line style="fill:none;stroke:#000000;stroke-width:3.6793;stroke-linecap:round;stroke-linejoin:round;stroke-miterlimit:10;" x1="211.98" y1="1.84" x2="298.237" y2="1.84"/>
					
						<line style="fill:none;stroke:#000000;stroke-width:3.6793;stroke-linecap:round;stroke-linejoin:round;stroke-miterlimit:10;" x1="264.348" y1="21.523" x2="319.935" y2="21.523"/>
				</g>
				
					<path style="fill:none;stroke:#000000;stroke-width:3.6793;stroke-linecap:round;stroke-linejoin:round;stroke-miterlimit:10;" d="
					M216.304,470.431c8.681,13.563-5.721,27.965-19.283,19.283c-0.931-0.596-1.73-1.395-2.326-2.325
					c-8.685-13.564,5.72-27.969,19.284-19.284C214.91,468.702,215.709,469.501,216.304,470.431z"/>
			</g>
		</g>
		<g>
			<path style="fill:#FFFFFF;" d="M63.111,175.076l5.311-0.868l3.1,18.952l9.301-1.521l0.727,4.443l-14.613,2.389L63.111,175.076z"
				/>
			<path style="fill:#FFFFFF;" d="M102.82,180.346c1.254,7.671-2.639,13.083-9.477,14.2c-6.941,1.135-11.859-3.442-12.949-10.106
				c-1.146-7.012,2.475-12.986,9.383-14.115C96.963,169.15,101.765,173.89,102.82,180.346z M85.967,183.422
				c0.748,4.582,3.428,7.458,6.969,6.879c3.574-0.584,5.068-4.32,4.324-8.867c-0.688-4.2-3.291-7.481-6.936-6.886
				C86.75,175.132,85.222,178.875,85.967,183.422z"/>
			<path style="fill:#FFFFFF;" d="M109.002,167.574l5.275-0.862l2.418,14.787c1.088,6.664-1.725,9.512-6.861,10.352
				c-1.215,0.198-2.846,0.251-3.943,0.074l-0.109-4.366c0.771,0.124,1.736,0.145,2.777-0.025c2.221-0.363,3.445-1.597,2.85-5.242
				L109.002,167.574z"/>
			<path style="fill:#FFFFFF;" d="M126.978,182.491l-0.684,6.277l-5.484,0.896l3.324-24.564l6.943-1.135l11.08,22.21l-5.693,0.931
				l-2.787-5.71L126.978,182.491z M132.267,177.563l-2.27-4.725c-0.643-1.32-1.344-2.988-1.918-4.32l-0.068,0.012
				c-0.121,1.445-0.178,3.272-0.34,4.688l-0.576,5.191L132.267,177.563z"/>
			<path style="fill:#FFFFFF;" d="M148.521,161.436c1.893-0.631,4.398-1.219,7.07-1.656c4.443-0.726,7.455-0.397,9.99,0.934
				c2.725,1.408,4.721,4.04,5.396,8.17c0.732,4.478-0.393,7.834-2.338,10.112c-2.131,2.451-5.719,4.036-10.301,4.785
				c-2.744,0.448-4.715,0.592-6.062,0.634L148.521,161.436z M156.951,179.658c0.471,0.031,1.199-0.088,1.857-0.196
				c4.797-0.749,7.49-3.897,6.576-9.485c-0.76-4.866-4.025-6.969-8.574-6.226c-1.18,0.193-1.926,0.422-2.361,0.6L156.951,179.658z"
				/>
			<path style="fill:#FFFFFF;" d="M195.92,165.127c1.254,7.671-2.637,13.083-9.477,14.201c-6.941,1.135-11.857-3.443-12.947-10.107
				c-1.146-7.012,2.475-12.986,9.383-14.115C190.062,153.931,194.865,158.671,195.92,165.127z M179.066,168.203
				c0.75,4.582,3.43,7.458,6.971,6.879c3.574-0.584,5.066-4.321,4.322-8.868c-0.686-4.2-3.289-7.481-6.934-6.886
				C179.849,159.913,178.324,163.656,179.066,168.203z"/>
			<path style="fill:#FFFFFF;" d="M204.531,151.958l14.301-2.338l0.709,4.339l-8.99,1.47l0.875,5.346l8.4-1.374l0.703,4.305
				l-8.4,1.374l1.537,9.406l-5.311,0.868L204.531,151.958z"/>
			<path style="fill:#FFFFFF;" d="M228.101,148.105l2.201,13.469c0.658,4.025,2.52,5.824,5.227,5.381
				c2.777-0.454,3.988-2.647,3.312-6.777l-2.201-13.469l5.275-0.862l2.145,13.121c1.182,7.221-1.902,11.252-8.012,12.25
				c-5.9,0.964-9.904-1.73-11.125-9.193l-2.133-13.052L228.101,148.105z"/>
			<path style="fill:#FFFFFF;" d="M251.738,148.804l-6.283,1.027l-0.727-4.443l17.98-2.939l0.727,4.443l-6.387,1.044l3.098,18.952
				l-5.311,0.868L251.738,148.804z"/>
			<path style="fill:#FFFFFF;" d="M270.797,141.126l2.201,13.469c0.658,4.025,2.521,5.823,5.229,5.381
				c2.777-0.454,3.986-2.647,3.311-6.777l-2.201-13.469l5.277-0.862l2.145,13.121c1.182,7.221-1.902,11.252-8.012,12.25
				c-5.9,0.964-9.906-1.731-11.125-9.194l-2.135-13.052L270.797,141.126z"/>
			<path style="fill:#FFFFFF;" d="M289.246,138.432c1.656-0.556,4.156-1.179,6.967-1.639c3.473-0.567,5.986-0.443,7.869,0.603
				c1.57,0.884,2.6,2.39,2.951,4.542c0.488,2.985-1.293,5.379-3.188,6.438l0.018,0.104c1.736,0.393,2.896,1.808,3.838,3.864
				c1.16,2.519,2.389,5.454,2.986,6.282l-5.414,0.885c-0.49-0.597-1.357-2.415-2.521-5.183c-1.102-2.814-2.24-3.447-4.398-3.13
				l-1.596,0.261l1.504,9.198l-5.242,0.856L289.246,138.432z M296.133,147.641l2.084-0.34c2.639-0.432,3.984-2.005,3.65-4.053
				c-0.354-2.152-1.986-2.99-4.424-2.628c-1.283,0.21-1.994,0.433-2.365,0.565L296.133,147.641z"/>
			<path style="fill:#FFFFFF;" d="M332.93,142.73c1.254,7.671-2.637,13.083-9.475,14.201c-6.941,1.135-11.859-3.443-12.949-10.107
				c-1.146-7.012,2.475-12.985,9.383-14.115C327.074,131.535,331.875,136.274,332.93,142.73z M316.078,145.806
				c0.748,4.582,3.428,7.458,6.969,6.879c3.574-0.584,5.066-4.32,4.322-8.867c-0.686-4.2-3.289-7.481-6.934-6.886
				C316.861,137.516,315.334,141.259,316.078,145.806z"/>
		</g>
		<g>
			<path style="fill:#FFFFFF;" d="M127.055,313.524c-0.505,0.252-1.639,0.521-3.115,0.521c-4.195,0-6.355-2.61-6.355-6.067
				c0-4.142,2.952-6.446,6.625-6.446c1.423,0,2.503,0.288,2.989,0.54l-0.558,2.179c-0.559-0.233-1.333-0.45-2.305-0.45
				c-2.18,0-3.871,1.314-3.871,4.016c0,2.431,1.439,3.961,3.889,3.961c0.828,0,1.746-0.18,2.287-0.396L127.055,313.524z"/>
			<path style="fill:#FFFFFF;" d="M139.421,307.671c0,3.979-2.413,6.393-5.96,6.393c-3.602,0-5.707-2.719-5.707-6.176
				c0-3.638,2.322-6.356,5.905-6.356C137.387,301.532,139.421,304.323,139.421,307.671z M130.652,307.833
				c0,2.377,1.116,4.052,2.953,4.052c1.854,0,2.916-1.765,2.916-4.123c0-2.179-1.044-4.052-2.935-4.052
				C131.732,303.71,130.652,305.475,130.652,307.833z"/>
			<path style="fill:#FFFFFF;" d="M151.48,309.22c-0.055-1.458-0.108-3.223-0.108-4.987h-0.054
				c-0.379,1.549-0.883,3.277-1.351,4.699l-1.477,4.735h-2.143l-1.296-4.699c-0.396-1.423-0.811-3.151-1.099-4.735h-0.036
				c-0.072,1.639-0.126,3.511-0.216,5.023l-0.216,4.609h-2.539l0.773-12.136h3.656l1.188,4.052c0.379,1.404,0.756,2.916,1.026,4.339
				h0.054c0.343-1.404,0.757-3.007,1.152-4.357l1.297-4.033h3.583l0.667,12.136h-2.684L151.48,309.22z"/>
			<path style="fill:#FFFFFF;" d="M162.836,301.73v12.136h-2.755V301.73H162.836z"/>
			<path style="fill:#FFFFFF;" d="M165.211,313.866V301.73h3.205l2.521,4.447c0.72,1.278,1.44,2.791,1.98,4.159h0.054
				c-0.18-1.603-0.233-3.241-0.233-5.06v-3.547h2.521v12.136h-2.881l-2.593-4.682c-0.72-1.296-1.513-2.862-2.106-4.285l-0.055,0.019
				c0.072,1.602,0.108,3.312,0.108,5.293v3.655H165.211z"/>
			<path style="fill:#FFFFFF;" d="M179.971,304.035h-3.259v-2.305h9.326v2.305h-3.312v9.831h-2.755V304.035z"/>
			<path style="fill:#FFFFFF;" d="M194.715,308.734h-4.465v2.881h4.986v2.251h-7.742V301.73h7.49v2.251h-4.734v2.521h4.465V308.734z
				"/>
			<path style="fill:#FFFFFF;" d="M207.243,313.307c-0.847,0.288-2.448,0.685-4.051,0.685c-2.215,0-3.817-0.559-4.934-1.639
				c-1.116-1.044-1.729-2.629-1.71-4.411c0.018-4.033,2.952-6.338,6.932-6.338c1.566,0,2.772,0.306,3.367,0.595l-0.576,2.196
				c-0.666-0.288-1.495-0.522-2.827-0.522c-2.286,0-4.015,1.297-4.015,3.926c0,2.502,1.566,3.979,3.816,3.979
				c0.631,0,1.135-0.072,1.351-0.18v-2.539h-1.872v-2.143h4.519V313.307z"/>
			<path style="fill:#FFFFFF;" d="M209.383,301.892c0.882-0.144,2.196-0.252,3.654-0.252c1.801,0,3.061,0.27,3.926,0.954
				c0.72,0.576,1.115,1.423,1.115,2.539c0,1.548-1.098,2.61-2.143,2.988v0.055c0.847,0.342,1.314,1.152,1.621,2.269
				c0.378,1.368,0.756,2.953,0.99,3.421h-2.809c-0.198-0.342-0.486-1.332-0.847-2.827c-0.323-1.512-0.847-1.926-1.962-1.944h-0.828
				v4.771h-2.719V301.892z M212.101,307.114h1.08c1.368,0,2.178-0.685,2.178-1.747c0-1.116-0.756-1.674-2.016-1.692
				c-0.666,0-1.045,0.055-1.242,0.091V307.114z"/>
			<path style="fill:#FFFFFF;" d="M223.045,310.75l-0.865,3.115h-2.844l3.709-12.136h3.601l3.763,12.136h-2.952l-0.937-3.115
				H223.045z M226.123,308.698l-0.756-2.574c-0.216-0.721-0.432-1.62-0.612-2.341h-0.036c-0.18,0.721-0.359,1.639-0.559,2.341
				l-0.72,2.574H226.123z"/>
			<path style="fill:#FFFFFF;" d="M240.488,313.524c-0.486,0.233-1.53,0.504-2.898,0.521l-0.307,0.612
				c0.702,0.162,1.314,0.631,1.314,1.477c0,1.242-1.116,1.656-2.143,1.656c-0.54,0-1.135-0.107-1.549-0.342l0.36-1.116
				c0.271,0.144,0.685,0.252,1.009,0.252c0.359,0,0.648-0.126,0.648-0.432c0-0.379-0.415-0.576-1.423-0.685l0.685-1.494
				c-3.422-0.45-5.168-2.881-5.168-5.996c0-4.142,2.953-6.446,6.626-6.446c1.423,0,2.503,0.288,2.989,0.54l-0.559,2.179
				c-0.559-0.233-1.332-0.45-2.305-0.45c-2.179,0-3.871,1.314-3.871,4.016c0,2.431,1.44,3.961,3.889,3.961
				c0.828,0,1.747-0.18,2.287-0.396L240.488,313.524z"/>
			<path style="fill:#FFFFFF;" d="M245.293,310.75l-0.865,3.115h-2.844l3.709-12.136h3.601l3.763,12.136h-2.952l-0.937-3.115
				H245.293z M244.717,300.992c-0.055-1.513,0.521-2.286,1.386-2.286c0.486,0,0.811,0.162,1.152,0.359
				c0.288,0.181,0.559,0.343,0.792,0.343c0.307,0,0.414-0.181,0.486-0.774h1.225c0.055,1.62-0.469,2.251-1.422,2.251
				c-0.486,0-0.847-0.162-1.171-0.343c-0.306-0.162-0.522-0.324-0.757-0.324c-0.233,0-0.396,0.271-0.432,0.774H244.717z
				 M248.371,308.698l-0.756-2.574c-0.216-0.721-0.432-1.62-0.612-2.341h-0.036c-0.18,0.721-0.359,1.639-0.559,2.341l-0.72,2.574
				H248.371z"/>
			<path style="fill:#FFFFFF;" d="M264.932,307.671c0,3.979-2.413,6.393-5.96,6.393c-3.602,0-5.707-2.719-5.707-6.176
				c0-3.638,2.322-6.356,5.905-6.356C262.898,301.532,264.932,304.323,264.932,307.671z M256.164,307.833
				c0,2.377,1.116,4.052,2.953,4.052c1.854,0,2.916-1.765,2.916-4.123c0-2.179-1.044-4.052-2.935-4.052
				C257.244,303.71,256.164,305.475,256.164,307.833z"/>
			<path style="fill:#FFFFFF;" d="M270.365,301.892c1.008-0.162,2.322-0.252,3.709-0.252c2.305,0,3.799,0.414,4.969,1.296
				c1.261,0.937,2.053,2.431,2.053,4.574c0,2.322-0.846,3.925-2.017,4.915c-1.278,1.062-3.223,1.566-5.6,1.566
				c-1.423,0-2.431-0.09-3.114-0.18V301.892z M273.119,311.795c0.234,0.054,0.612,0.054,0.955,0.054
				c2.484,0.018,4.104-1.351,4.104-4.249c0.019-2.521-1.458-3.854-3.817-3.854c-0.611,0-1.008,0.054-1.242,0.108V311.795z"/>
			<path style="fill:#FFFFFF;" d="M290.113,308.734h-4.466v2.881h4.987v2.251h-7.742V301.73h7.49v2.251h-4.735v2.521h4.466V308.734z
				"/>
			<path style="fill:#FFFFFF;" d="M296.23,311.039c0.738,0.379,1.872,0.757,3.043,0.757c1.26,0,1.926-0.522,1.926-1.314
				c0-0.757-0.576-1.188-2.034-1.711c-2.017-0.702-3.331-1.818-3.331-3.583c0-2.07,1.729-3.655,4.592-3.655
				c1.368,0,2.376,0.288,3.097,0.612l-0.612,2.215c-0.486-0.234-1.351-0.576-2.539-0.576c-1.188,0-1.764,0.54-1.764,1.17
				c0,0.774,0.684,1.117,2.25,1.711c2.143,0.792,3.15,1.908,3.15,3.619c0,2.034-1.566,3.763-4.896,3.763
				c-1.387,0-2.756-0.359-3.439-0.738L296.23,311.039z"/>
			<path style="fill:#FFFFFF;" d="M308.615,301.73v12.136h-2.756V301.73H308.615z"/>
			<path style="fill:#FFFFFF;" d="M311.08,311.039c0.738,0.379,1.872,0.757,3.043,0.757c1.26,0,1.926-0.522,1.926-1.314
				c0-0.757-0.576-1.188-2.034-1.711c-2.017-0.702-3.331-1.818-3.331-3.583c0-2.07,1.729-3.655,4.592-3.655
				c1.368,0,2.376,0.288,3.097,0.612l-0.612,2.215c-0.486-0.234-1.351-0.576-2.539-0.576c-1.188,0-1.764,0.54-1.764,1.17
				c0,0.774,0.684,1.117,2.25,1.711c2.143,0.792,3.15,1.908,3.15,3.619c0,2.034-1.566,3.763-4.896,3.763
				c-1.387,0-2.756-0.359-3.439-0.738L311.08,311.039z"/>
			<path style="fill:#FFFFFF;" d="M323.05,304.035h-3.259v-2.305h9.326v2.305h-3.312v9.831h-2.755V304.035z"/>
			<path style="fill:#FFFFFF;" d="M337.793,308.734h-4.465v2.881h4.987v2.251h-7.742V301.73h7.49v2.251h-4.735v2.521h4.465V308.734z
				"/>
			<path style="fill:#FFFFFF;" d="M350.448,309.22c-0.054-1.458-0.108-3.223-0.108-4.987h-0.054
				c-0.378,1.549-0.882,3.277-1.351,4.699l-1.477,4.735h-2.143l-1.297-4.699c-0.396-1.423-0.81-3.151-1.098-4.735h-0.036
				c-0.072,1.639-0.126,3.511-0.216,5.023l-0.217,4.609h-2.538l0.774-12.136h3.654l1.189,4.052c0.377,1.404,0.756,2.916,1.025,4.339
				h0.055c0.342-1.404,0.756-3.007,1.152-4.357l1.296-4.033h3.583l0.666,12.136h-2.683L350.448,309.22z"/>
			<path style="fill:#FFFFFF;" d="M358.185,310.75l-0.863,3.115h-2.846l3.709-12.136h3.602l3.764,12.136h-2.953l-0.937-3.115
				H358.185z M361.265,308.698l-0.757-2.574c-0.216-0.721-0.433-1.62-0.612-2.341h-0.036c-0.18,0.721-0.36,1.639-0.558,2.341
				l-0.721,2.574H361.265z"/>
			<path style="fill:#FFFFFF;" d="M367.257,311.039c0.738,0.379,1.872,0.757,3.043,0.757c1.261,0,1.927-0.522,1.927-1.314
				c0-0.757-0.576-1.188-2.035-1.711c-2.016-0.702-3.33-1.818-3.33-3.583c0-2.07,1.729-3.655,4.591-3.655
				c1.368,0,2.377,0.288,3.097,0.612l-0.611,2.215c-0.486-0.234-1.352-0.576-2.539-0.576c-1.188,0-1.765,0.54-1.765,1.17
				c0,0.774,0.685,1.117,2.251,1.711c2.143,0.792,3.15,1.908,3.15,3.619c0,2.034-1.566,3.763-4.897,3.763
				c-1.386,0-2.755-0.359-3.438-0.738L367.257,311.039z"/>
			<path style="fill:#FFFFFF;" d="M128.404,330.82c-0.054-1.458-0.107-3.223-0.107-4.987h-0.055
				c-0.378,1.549-0.882,3.277-1.35,4.699l-1.477,4.735h-2.143l-1.297-4.699c-0.396-1.423-0.811-3.151-1.098-4.735h-0.037
				c-0.071,1.639-0.125,3.511-0.216,5.023l-0.216,4.609h-2.539l0.774-12.136h3.655l1.188,4.052c0.378,1.404,0.756,2.916,1.026,4.339
				h0.054c0.343-1.404,0.757-3.007,1.152-4.357l1.296-4.033h3.584l0.666,12.136h-2.684L128.404,330.82z"/>
			<path style="fill:#FFFFFF;" d="M140.59,330.333h-4.465v2.881h4.986v2.251h-7.742V323.33h7.49v2.251h-4.734v2.521h4.465V330.333z"
				/>
			<path style="fill:#FFFFFF;" d="M142.981,323.33h2.755v9.831h4.825v2.305h-7.58V323.33z"/>
			<path style="fill:#FFFFFF;" d="M154.933,323.33v4.663h4.52v-4.663h2.736v12.136h-2.736v-5.077h-4.52v5.077h-2.754V323.33H154.933
				z"/>
			<path style="fill:#FFFFFF;" d="M175.69,329.271c0,3.979-2.413,6.393-5.96,6.393c-3.602,0-5.707-2.719-5.707-6.176
				c0-3.638,2.322-6.356,5.905-6.356C173.656,323.131,175.69,325.922,175.69,329.271z M166.922,329.433
				c0,2.377,1.116,4.052,2.953,4.052c1.854,0,2.916-1.765,2.916-4.123c0-2.179-1.044-4.052-2.935-4.052
				C168.002,325.31,166.922,327.075,166.922,329.433z"/>
			<path style="fill:#FFFFFF;" d="M177.486,323.492c0.883-0.144,2.197-0.252,3.655-0.252c1.801,0,3.062,0.27,3.925,0.954
				c0.721,0.576,1.117,1.423,1.117,2.539c0,1.548-1.099,2.61-2.143,2.988v0.055c0.846,0.342,1.314,1.152,1.62,2.269
				c0.378,1.368,0.757,2.953,0.99,3.421h-2.809c-0.198-0.342-0.486-1.332-0.847-2.827c-0.324-1.512-0.846-1.926-1.963-1.944h-0.828
				v4.771h-2.719V323.492z M180.205,328.713h1.08c1.369,0,2.18-0.685,2.18-1.747c0-1.116-0.757-1.674-2.018-1.692
				c-0.666,0-1.044,0.055-1.242,0.091V328.713z"/>
			<path style="fill:#FFFFFF;" d="M191.148,332.35l-0.863,3.115h-2.846l3.709-12.136h3.602l3.764,12.136h-2.953l-0.937-3.115
				H191.148z M194.228,330.297l-0.757-2.574c-0.216-0.721-0.433-1.62-0.612-2.341h-0.036c-0.18,0.721-0.36,1.639-0.558,2.341
				l-0.721,2.574H194.228z"/>
			<path style="fill:#FFFFFF;" d="M200.13,335.465V323.33h3.205l2.521,4.447c0.721,1.278,1.44,2.791,1.98,4.159h0.055
				c-0.181-1.603-0.234-3.241-0.234-5.06v-3.547h2.521v12.136h-2.881l-2.593-4.682c-0.721-1.296-1.513-2.862-2.106-4.285
				l-0.054,0.019c0.071,1.602,0.107,3.312,0.107,5.293v3.655H200.13z"/>
			<path style="fill:#FFFFFF;" d="M212.55,323.492c1.009-0.162,2.323-0.252,3.709-0.252c2.305,0,3.8,0.414,4.97,1.296
				c1.26,0.937,2.053,2.431,2.053,4.574c0,2.322-0.847,3.925-2.018,4.915c-1.277,1.062-3.223,1.566-5.6,1.566
				c-1.422,0-2.43-0.09-3.114-0.18V323.492z M215.305,333.395c0.234,0.054,0.611,0.054,0.954,0.054
				c2.485,0.018,4.105-1.351,4.105-4.249c0.018-2.521-1.458-3.854-3.817-3.854c-0.612,0-1.008,0.054-1.242,0.108V333.395z"/>
			<path style="fill:#FFFFFF;" d="M236.187,329.271c0,3.979-2.414,6.393-5.961,6.393c-3.601,0-5.707-2.719-5.707-6.176
				c0-3.638,2.322-6.356,5.906-6.356C234.152,323.131,236.187,325.922,236.187,329.271z M227.418,329.433
				c0,2.377,1.117,4.052,2.953,4.052c1.854,0,2.917-1.765,2.917-4.123c0-2.179-1.044-4.052-2.935-4.052
				C228.498,325.31,227.418,327.075,227.418,329.433z"/>
			<path style="fill:#FFFFFF;" d="M244.445,332.35l-0.863,3.115h-2.846l3.709-12.136h3.602l3.764,12.136h-2.953l-0.937-3.115
				H244.445z M247.525,330.297l-0.757-2.574c-0.216-0.721-0.433-1.62-0.612-2.341h-0.036c-0.18,0.721-0.36,1.639-0.558,2.341
				l-0.721,2.574H247.525z"/>
			<path style="fill:#FFFFFF;" d="M264.283,330.333h-4.466v2.881h4.987v2.251h-7.742V323.33h7.49v2.251h-4.735v2.521h4.466V330.333z
				"/>
			<path style="fill:#FFFFFF;" d="M273.066,335.465l-1.099-2.196c-0.45-0.847-0.738-1.477-1.08-2.179h-0.036
				c-0.252,0.702-0.559,1.332-0.937,2.179l-1.009,2.196h-3.133l3.512-6.14l-3.385-5.996h3.15l1.062,2.215
				c0.359,0.738,0.63,1.332,0.918,2.017h0.036c0.288-0.774,0.522-1.314,0.828-2.017l1.026-2.215h3.133l-3.421,5.924l3.601,6.212
				H273.066z"/>
			<path style="fill:#FFFFFF;" d="M277.708,323.492c0.847-0.144,2.034-0.252,3.709-0.252c1.692,0,2.899,0.324,3.709,0.973
				c0.774,0.611,1.296,1.62,1.296,2.809s-0.396,2.196-1.115,2.881c-0.937,0.882-2.323,1.278-3.943,1.278
				c-0.36,0-0.685-0.019-0.937-0.054v4.339h-2.719V323.492z M280.427,329.001c0.233,0.054,0.522,0.072,0.918,0.072
				c1.458,0,2.358-0.738,2.358-1.98c0-1.117-0.773-1.783-2.143-1.783c-0.558,0-0.936,0.055-1.134,0.108V329.001z"/>
			<path style="fill:#FFFFFF;" d="M295.387,330.333h-4.466v2.881h4.987v2.251h-7.742V323.33h7.49v2.251h-4.735v2.521h4.466V330.333z
				"/>
			<path style="fill:#FFFFFF;" d="M297.777,323.492c0.883-0.144,2.197-0.252,3.655-0.252c1.801,0,3.062,0.27,3.925,0.954
				c0.721,0.576,1.117,1.423,1.117,2.539c0,1.548-1.099,2.61-2.143,2.988v0.055c0.846,0.342,1.314,1.152,1.62,2.269
				c0.378,1.368,0.757,2.953,0.99,3.421h-2.809c-0.198-0.342-0.486-1.332-0.847-2.827c-0.324-1.512-0.846-1.926-1.963-1.944h-0.828
				v4.771h-2.719V323.492z M300.496,328.713h1.08c1.369,0,2.18-0.685,2.18-1.747c0-1.116-0.757-1.674-2.018-1.692
				c-0.666,0-1.044,0.055-1.242,0.091V328.713z"/>
			<path style="fill:#FFFFFF;" d="M311.207,323.33v12.136h-2.756V323.33H311.207z"/>
			<path style="fill:#FFFFFF;" d="M320.802,330.333h-4.466v2.881h4.988v2.251h-7.742V323.33h7.49v2.251h-4.736v2.521h4.466V330.333z
				 M318.425,320.467l1.837,2.214h-1.927l-0.919-1.116h-0.035l-0.9,1.116h-1.908l1.8-2.214H318.425z"/>
			<path style="fill:#FFFFFF;" d="M323.193,335.465V323.33h3.205l2.521,4.447c0.72,1.278,1.44,2.791,1.98,4.159h0.054
				c-0.18-1.603-0.233-3.241-0.233-5.06v-3.547h2.521v12.136h-2.881l-2.593-4.682c-0.72-1.296-1.513-2.862-2.106-4.285l-0.055,0.019
				c0.072,1.602,0.108,3.312,0.108,5.293v3.655H323.193z"/>
			<path style="fill:#FFFFFF;" d="M344.525,335.124c-0.504,0.252-1.639,0.521-3.114,0.521c-4.195,0-6.356-2.61-6.356-6.067
				c0-4.142,2.953-6.446,6.627-6.446c1.422,0,2.502,0.288,2.988,0.54l-0.559,2.179c-0.558-0.233-1.332-0.45-2.305-0.45
				c-2.178,0-3.871,1.314-3.871,4.016c0,2.431,1.441,3.961,3.89,3.961c0.828,0,1.746-0.18,2.286-0.396L344.525,335.124z"/>
			<path style="fill:#FFFFFF;" d="M349.078,323.33v12.136h-2.755V323.33H349.078z"/>
			<path style="fill:#FFFFFF;" d="M354.279,332.35l-0.863,3.115h-2.846l3.709-12.136h3.602l3.764,12.136h-2.953l-0.937-3.115
				H354.279z M357.359,330.297l-0.757-2.574c-0.216-0.721-0.433-1.62-0.612-2.341h-0.036c-0.18,0.721-0.36,1.639-0.558,2.341
				l-0.721,2.574H357.359z"/>
			<path style="fill:#FFFFFF;" d="M366.896,323.492c1.008-0.162,2.322-0.252,3.709-0.252c2.305,0,3.799,0.414,4.97,1.296
				c1.261,0.937,2.052,2.431,2.052,4.574c0,2.322-0.846,3.925-2.016,4.915c-1.279,1.062-3.223,1.566-5.6,1.566
				c-1.423,0-2.432-0.09-3.115-0.18V323.492z M369.651,333.395c0.233,0.054,0.612,0.054,0.954,0.054
				c2.484,0.018,4.105-1.351,4.105-4.249c0.018-2.521-1.459-3.854-3.817-3.854c-0.612,0-1.009,0.054-1.242,0.108V333.395z"/>
			<path style="fill:#FFFFFF;" d="M390.533,329.271c0,3.979-2.412,6.393-5.959,6.393c-3.602,0-5.708-2.719-5.708-6.176
				c0-3.638,2.322-6.356,5.905-6.356C388.499,323.131,390.533,325.922,390.533,329.271z M381.764,329.433
				c0,2.377,1.116,4.052,2.953,4.052c1.854,0,2.917-1.765,2.917-4.123c0-2.179-1.045-4.052-2.936-4.052
				C382.846,325.31,381.764,327.075,381.764,329.433z"/>
			<path style="fill:#FFFFFF;" d="M127.055,356.723c-0.505,0.252-1.639,0.521-3.115,0.521c-4.195,0-6.355-2.61-6.355-6.067
				c0-4.142,2.952-6.446,6.625-6.446c1.423,0,2.503,0.288,2.989,0.54l-0.558,2.179c-0.559-0.233-1.333-0.45-2.305-0.45
				c-2.18,0-3.871,1.314-3.871,4.016c0,2.431,1.439,3.961,3.889,3.961c0.828,0,1.746-0.18,2.287-0.396L127.055,356.723z"/>
			<path style="fill:#FFFFFF;" d="M139.421,350.871c0,3.979-2.413,6.393-5.96,6.393c-3.602,0-5.707-2.719-5.707-6.176
				c0-3.638,2.322-6.356,5.905-6.356C137.387,344.731,139.421,347.522,139.421,350.871z M130.652,351.033
				c0,2.377,1.116,4.052,2.953,4.052c1.854,0,2.916-1.765,2.916-4.123c0-2.179-1.044-4.052-2.935-4.052
				C131.732,346.91,130.652,348.674,130.652,351.033z"/>
			<path style="fill:#FFFFFF;" d="M141.217,344.929h2.756v9.831h4.824v2.305h-7.58V344.929z"/>
			<path style="fill:#FFFFFF;" d="M153.349,353.95l-0.864,3.115h-2.845l3.709-12.136h3.602l3.763,12.136h-2.953l-0.937-3.115
				H153.349z M156.429,351.897l-0.757-2.574c-0.216-0.721-0.432-1.62-0.611-2.341h-0.036c-0.181,0.721-0.36,1.639-0.559,2.341
				l-0.72,2.574H156.429z"/>
			<path style="fill:#FFFFFF;" d="M162.33,345.091c0.721-0.144,2.18-0.252,3.547-0.252c1.675,0,2.701,0.162,3.584,0.685
				c0.846,0.45,1.458,1.278,1.458,2.376c0,1.081-0.63,2.089-1.999,2.593v0.036c1.387,0.378,2.413,1.423,2.413,2.989
				c0,1.099-0.504,1.962-1.261,2.574c-0.882,0.702-2.358,1.099-4.771,1.099c-1.35,0-2.358-0.09-2.971-0.18V345.091z
				 M165.049,349.737h0.9c1.441,0,2.215-0.595,2.215-1.494c0-0.919-0.702-1.405-1.944-1.405c-0.595,0-0.937,0.036-1.171,0.072
				V349.737z M165.049,355.121c0.271,0.036,0.595,0.036,1.062,0.036c1.242,0,2.341-0.469,2.341-1.747c0-1.225-1.099-1.71-2.467-1.71
				h-0.937V355.121z"/>
			<path style="fill:#FFFFFF;" d="M184.311,350.871c0,3.979-2.413,6.393-5.96,6.393c-3.602,0-5.707-2.719-5.707-6.176
				c0-3.638,2.322-6.356,5.905-6.356C182.277,344.731,184.311,347.522,184.311,350.871z M175.543,351.033
				c0,2.377,1.116,4.052,2.953,4.052c1.854,0,2.916-1.765,2.916-4.123c0-2.179-1.044-4.052-2.935-4.052
				C176.623,346.91,175.543,348.674,175.543,351.033z"/>
			<path style="fill:#FFFFFF;" d="M186.107,345.091c0.883-0.144,2.197-0.252,3.655-0.252c1.801,0,3.062,0.27,3.925,0.954
				c0.721,0.576,1.117,1.423,1.117,2.539c0,1.548-1.099,2.61-2.143,2.988v0.055c0.846,0.342,1.314,1.152,1.62,2.269
				c0.378,1.368,0.757,2.953,0.99,3.421h-2.809c-0.198-0.342-0.486-1.332-0.847-2.827c-0.324-1.512-0.846-1.926-1.963-1.944h-0.828
				v4.771h-2.719V345.091z M188.826,350.313h1.08c1.369,0,2.18-0.685,2.18-1.747c0-1.116-0.757-1.674-2.018-1.692
				c-0.666,0-1.044,0.055-1.242,0.091V350.313z"/>
			<path style="fill:#FFFFFF;" d="M199.769,353.95l-0.863,3.115h-2.846l3.709-12.136h3.602l3.764,12.136h-2.953l-0.937-3.115
				H199.769z M202.849,351.897l-0.757-2.574c-0.216-0.721-0.433-1.62-0.612-2.341h-0.036c-0.18,0.721-0.36,1.639-0.558,2.341
				l-0.721,2.574H202.849z"/>
			<path style="fill:#FFFFFF;" d="M208.751,345.091c1.009-0.162,2.323-0.252,3.709-0.252c2.305,0,3.8,0.414,4.97,1.296
				c1.26,0.937,2.053,2.431,2.053,4.574c0,2.322-0.847,3.925-2.018,4.915c-1.277,1.062-3.223,1.566-5.6,1.566
				c-1.422,0-2.43-0.09-3.114-0.18V345.091z M211.506,354.995c0.234,0.054,0.611,0.054,0.954,0.054
				c2.485,0.018,4.105-1.351,4.105-4.249c0.018-2.521-1.458-3.854-3.817-3.854c-0.612,0-1.008,0.054-1.242,0.108V354.995z"/>
			<path style="fill:#FFFFFF;" d="M232.388,350.871c0,3.979-2.413,6.393-5.96,6.393c-3.601,0-5.708-2.719-5.708-6.176
				c0-3.638,2.323-6.356,5.906-6.356C230.353,344.731,232.388,347.522,232.388,350.871z M223.62,351.033
				c0,2.377,1.116,4.052,2.952,4.052c1.855,0,2.918-1.765,2.918-4.123c0-2.179-1.045-4.052-2.936-4.052
				C224.7,346.91,223.62,348.674,223.62,351.033z"/>
			<path style="fill:#FFFFFF;" d="M234.184,345.091c0.882-0.144,2.196-0.252,3.655-0.252c1.801,0,3.061,0.27,3.925,0.954
				c0.72,0.576,1.116,1.423,1.116,2.539c0,1.548-1.098,2.61-2.143,2.988v0.055c0.846,0.342,1.314,1.152,1.621,2.269
				c0.377,1.368,0.756,2.953,0.99,3.421h-2.809c-0.199-0.342-0.486-1.332-0.847-2.827c-0.324-1.512-0.847-1.926-1.963-1.944h-0.828
				v4.771h-2.719V345.091z M236.903,350.313h1.08c1.368,0,2.179-0.685,2.179-1.747c0-1.116-0.756-1.674-2.017-1.692
				c-0.666,0-1.044,0.055-1.242,0.091V350.313z"/>
			<path style="fill:#FFFFFF;" d="M248.494,357.065v-12.136h3.205l2.521,4.447c0.72,1.278,1.44,2.791,1.98,4.159h0.054
				c-0.18-1.603-0.233-3.241-0.233-5.06v-3.547h2.521v12.136h-2.881l-2.593-4.682c-0.72-1.296-1.513-2.862-2.106-4.285l-0.055,0.019
				c0.072,1.602,0.108,3.312,0.108,5.293v3.655H248.494z"/>
			<path style="fill:#FFFFFF;" d="M272.023,350.871c0,3.979-2.413,6.393-5.96,6.393c-3.601,0-5.708-2.719-5.708-6.176
				c0-3.638,2.323-6.356,5.906-6.356C269.988,344.731,272.023,347.522,272.023,350.871z M263.255,351.033
				c0,2.377,1.116,4.052,2.952,4.052c1.855,0,2.918-1.765,2.918-4.123c0-2.179-1.045-4.052-2.936-4.052
				C264.335,346.91,263.255,348.674,263.255,351.033z"/>
			<path style="fill:#FFFFFF;" d="M280.283,353.95l-0.865,3.115h-2.844l3.709-12.136h3.601l3.763,12.136h-2.952l-0.937-3.115
				H280.283z M283.361,351.897l-0.756-2.574c-0.216-0.721-0.432-1.62-0.612-2.341h-0.036c-0.18,0.721-0.359,1.639-0.559,2.341
				l-0.72,2.574H283.361z"/>
			<path style="fill:#FFFFFF;" d="M290.11,347.234h-3.259v-2.305h9.326v2.305h-3.312v9.831h-2.755V347.234z"/>
			<path style="fill:#FFFFFF;" d="M304.853,351.933h-4.465v2.881h4.986v2.251h-7.742v-12.136h7.49v2.251h-4.734v2.521h4.465V351.933
				z"/>
			<path style="fill:#FFFFFF;" d="M307.245,357.065v-12.136h3.205l2.521,4.447c0.721,1.278,1.44,2.791,1.98,4.159h0.055
				c-0.181-1.603-0.234-3.241-0.234-5.06v-3.547h2.521v12.136h-2.881l-2.593-4.682c-0.721-1.296-1.513-2.862-2.106-4.285
				l-0.054,0.019c0.071,1.602,0.107,3.312,0.107,5.293v3.655H307.245z"/>
			<path style="fill:#FFFFFF;" d="M319.665,345.091c1.009-0.162,2.323-0.252,3.709-0.252c2.305,0,3.8,0.414,4.97,1.296
				c1.26,0.937,2.053,2.431,2.053,4.574c0,2.322-0.847,3.925-2.018,4.915c-1.277,1.062-3.223,1.566-5.6,1.566
				c-1.422,0-2.43-0.09-3.114-0.18V345.091z M322.42,354.995c0.234,0.054,0.611,0.054,0.954,0.054
				c2.485,0.018,4.105-1.351,4.105-4.249c0.018-2.521-1.458-3.854-3.817-3.854c-0.612,0-1.008,0.054-1.242,0.108V354.995z"/>
			<path style="fill:#FFFFFF;" d="M334.947,344.929v12.136h-2.754v-12.136H334.947z"/>
			<path style="fill:#FFFFFF;" d="M347.586,352.419c-0.055-1.458-0.108-3.223-0.108-4.987h-0.054
				c-0.379,1.549-0.883,3.277-1.351,4.699l-1.477,4.735h-2.143l-1.296-4.699c-0.396-1.423-0.811-3.151-1.099-4.735h-0.036
				c-0.072,1.639-0.126,3.511-0.216,5.023l-0.216,4.609h-2.539l0.773-12.136h3.656l1.188,4.052c0.379,1.404,0.756,2.916,1.026,4.339
				h0.054c0.343-1.404,0.757-3.007,1.152-4.357l1.297-4.033h3.583l0.667,12.136h-2.684L347.586,352.419z"/>
			<path style="fill:#FFFFFF;" d="M359.771,351.933h-4.466v2.881h4.987v2.251h-7.742v-12.136h7.49v2.251h-4.735v2.521h4.466V351.933
				z"/>
			<path style="fill:#FFFFFF;" d="M362.162,357.065v-12.136h3.205l2.521,4.447c0.72,1.278,1.439,2.791,1.98,4.159h0.054
				c-0.181-1.603-0.234-3.241-0.234-5.06v-3.547h2.521v12.136h-2.881l-2.592-4.682c-0.721-1.296-1.513-2.862-2.107-4.285
				l-0.054,0.019c0.072,1.602,0.108,3.312,0.108,5.293v3.655H362.162z"/>
			<path style="fill:#FFFFFF;" d="M376.923,347.234h-3.259v-2.305h9.326v2.305h-3.312v9.831h-2.755V347.234z"/>
			<path style="fill:#FFFFFF;" d="M395.033,350.871c0,3.979-2.412,6.393-5.959,6.393c-3.602,0-5.708-2.719-5.708-6.176
				c0-3.638,2.322-6.356,5.905-6.356C392.999,344.731,395.033,347.522,395.033,350.871z M386.264,351.033
				c0,2.377,1.116,4.052,2.953,4.052c1.854,0,2.917-1.765,2.917-4.123c0-2.179-1.045-4.052-2.936-4.052
				C387.346,346.91,386.264,348.674,386.264,351.033z"/>
			<path style="fill:#FFFFFF;" d="M120.969,375.55l-0.865,3.115h-2.844l3.709-12.136h3.601l3.763,12.136h-2.952l-0.937-3.115
				H120.969z M124.047,373.498l-0.756-2.574c-0.216-0.721-0.432-1.621-0.612-2.341h-0.036c-0.18,0.72-0.359,1.639-0.559,2.341
				l-0.72,2.574H124.047z"/>
			<path style="fill:#FFFFFF;" d="M140.609,372.472c0,3.979-2.414,6.392-5.961,6.392c-3.601,0-5.707-2.719-5.707-6.176
				c0-3.638,2.322-6.356,5.906-6.356C138.574,366.332,140.609,369.123,140.609,372.472z M131.84,372.633
				c0,2.377,1.117,4.052,2.953,4.052c1.854,0,2.917-1.765,2.917-4.123c0-2.179-1.044-4.052-2.935-4.052
				C132.92,368.51,131.84,370.275,131.84,372.633z"/>
			<path style="fill:#FFFFFF;" d="M154.953,378.324c-0.504,0.252-1.639,0.521-3.114,0.521c-4.195,0-6.356-2.61-6.356-6.067
				c0-4.142,2.953-6.446,6.627-6.446c1.422,0,2.502,0.288,2.988,0.54l-0.559,2.179c-0.558-0.233-1.332-0.45-2.305-0.45
				c-2.178,0-3.871,1.314-3.871,4.016c0,2.431,1.441,3.961,3.89,3.961c0.828,0,1.746-0.18,2.286-0.396L154.953,378.324z"/>
			<path style="fill:#FFFFFF;" d="M156.751,366.53h2.755v9.831h4.825v2.305h-7.58V366.53z"/>
			<path style="fill:#FFFFFF;" d="M168.703,366.53v12.136h-2.754V366.53H168.703z"/>
			<path style="fill:#FFFFFF;" d="M178.299,373.534h-4.465v2.881h4.986v2.251h-7.742V366.53h7.49v2.251h-4.734v2.521h4.465V373.534z
				"/>
			<path style="fill:#FFFFFF;" d="M180.69,378.666V366.53h3.205l2.521,4.447c0.721,1.278,1.44,2.791,1.98,4.159h0.055
				c-0.181-1.603-0.234-3.24-0.234-5.06v-3.547h2.521v12.136h-2.881l-2.593-4.682c-0.721-1.296-1.513-2.862-2.106-4.285
				l-0.054,0.019c0.071,1.603,0.107,3.312,0.107,5.293v3.655H180.69z"/>
			<path style="fill:#FFFFFF;" d="M195.451,368.834h-3.26v-2.305h9.327v2.305h-3.313v9.831h-2.754V368.834z"/>
			<path style="fill:#FFFFFF;" d="M210.194,373.534h-4.466v2.881h4.988v2.251h-7.742V366.53h7.49v2.251h-4.736v2.521h4.466V373.534z
				"/>
			<path style="fill:#FFFFFF;" d="M211.433,380.808c0.559-1.603,1.044-3.475,1.314-5.113l2.755-0.181
				c-0.595,1.837-1.405,3.728-2.269,5.132L211.433,380.808z M212.406,371.41c0-0.973,0.647-1.657,1.602-1.657
				c0.955,0,1.585,0.667,1.604,1.657c0,0.936-0.631,1.639-1.604,1.639C213.054,373.048,212.388,372.345,212.406,371.41z"/>
		</g>
	</g>
</g>
<g id="Layer_1">
</g>
</svg>
