<?xml version="1.0" encoding="iso-8859-1"?>
<!-- Generator: Adobe Illustrator 18.0.0, SVG Export Plug-In . SVG Version: 6.00 Build 0)  -->
<!DOCTYPE svg PUBLIC "-//W3C//DTD SVG 1.1//EN" "http://www.w3.org/Graphics/SVG/1.1/DTD/svg11.dtd">
<svg version="1.1" xmlns="http://www.w3.org/2000/svg" xmlns:xlink="http://www.w3.org/1999/xlink" x="0px" y="0px"
	 viewBox="0 0 531.453 494.191" style="enable-background:new 0 0 531.453 494.191;" xml:space="preserve">
<g id="page13-5">
	<g>
		
			<polygon style="fill:none;stroke:#000000;stroke-width:3.6793;stroke-linecap:round;stroke-linejoin:round;stroke-miterlimit:10;" points="
			43.446,14.904 69.635,406.333 475.632,438.052 529.613,82.648 		"/>
		<polygon style="opacity:0.8;fill:#E92325;" points="100.919,49.06 83.146,447.249 518.153,405.508 454.366,31.542 		"/>
		<polygon style="fill:#03B9DB;" points="23.262,106.379 387.98,82.648 390.61,211.407 20.388,285.052 		"/>
		
			<polyline style="fill:none;stroke:#000000;stroke-width:3.6793;stroke-linecap:round;stroke-linejoin:round;stroke-miterlimit:10;" points="
			45.65,296.379 1.84,305.543 4.782,122.591 		"/>
		<g>
			<g>
				<g>
					
						<line style="fill:none;stroke:#000000;stroke-width:3.6793;stroke-linecap:round;stroke-linejoin:round;stroke-miterlimit:10;" x1="20.388" y1="335.586" x2="43.803" y2="335.586"/>
					
						<line style="fill:none;stroke:#000000;stroke-width:3.6793;stroke-linecap:round;stroke-linejoin:round;stroke-miterlimit:10;" x1="32.095" y1="323.878" x2="32.095" y2="347.293"/>
				</g>
				<g>
					
						<line style="fill:none;stroke:#000000;stroke-width:3.6793;stroke-linecap:round;stroke-linejoin:round;stroke-miterlimit:10;" x1="274.822" y1="453.476" x2="298.237" y2="453.476"/>
					
						<line style="fill:none;stroke:#000000;stroke-width:3.6793;stroke-linecap:round;stroke-linejoin:round;stroke-miterlimit:10;" x1="286.53" y1="441.769" x2="286.53" y2="465.184"/>
				</g>
				
					<path style="fill:none;stroke:#000000;stroke-width:3.6793;stroke-linecap:round;stroke-linejoin:round;stroke-miterlimit:10;" d="
					M503.274,13.043c8.685,13.564-5.72,27.969-19.284,19.284c-0.931-0.596-1.73-1.395-2.325-2.326
					c-8.681-13.563,5.721-27.965,19.283-19.283C501.879,11.313,502.678,12.112,503.274,13.043z"/>
				<g>
					
						<line style="fill:none;stroke:#000000;stroke-width:3.6793;stroke-linecap:round;stroke-linejoin:round;stroke-miterlimit:10;" x1="211.98" y1="1.84" x2="298.237" y2="1.84"/>
					
						<line style="fill:none;stroke:#000000;stroke-width:3.6793;stroke-linecap:round;stroke-linejoin:round;stroke-miterlimit:10;" x1="264.348" y1="21.523" x2="319.935" y2="21.523"/>
				</g>
				
					<path style="fill:none;stroke:#000000;stroke-width:3.6793;stroke-linecap:round;stroke-linejoin:round;stroke-miterlimit:10;" d="
					M216.304,470.431c8.681,13.563-5.721,27.965-19.283,19.283c-0.931-0.596-1.73-1.395-2.326-2.325
					c-8.685-13.564,5.72-27.969,19.284-19.284C214.91,468.702,215.709,469.501,216.304,470.431z"/>
			</g>
		</g>
		<g>
			<path style="fill:#FFFFFF;" d="M60.002,175.146l-6.281,1.027l-0.727-4.443l17.98-2.939l0.727,4.443l-6.387,1.044l3.098,18.952
				l-5.311,0.868L60.002,175.146z"/>
			<path style="fill:#FFFFFF;" d="M73.838,168.644c1.656-0.556,4.154-1.179,6.967-1.639c3.471-0.567,5.986-0.443,7.867,0.603
				c1.57,0.885,2.6,2.391,2.953,4.543c0.486,2.985-1.295,5.379-3.189,6.438l0.018,0.104c1.738,0.392,2.896,1.807,3.838,3.863
				c1.16,2.519,2.389,5.454,2.988,6.283l-5.416,0.885c-0.488-0.597-1.357-2.415-2.521-5.182c-1.102-2.814-2.238-3.447-4.396-3.13
				l-1.598,0.261l1.504,9.198l-5.24,0.856L73.838,168.644z M80.724,177.853l2.082-0.341c2.639-0.431,3.984-2.004,3.65-4.052
				c-0.352-2.152-1.986-2.99-4.422-2.628c-1.283,0.21-1.996,0.434-2.365,0.565L80.724,177.853z"/>
			<path style="fill:#FFFFFF;" d="M102.974,181.415l-0.684,6.277l-5.484,0.896l3.326-24.564l6.941-1.135l11.08,22.21l-5.693,0.931
				l-2.785-5.71L102.974,181.415z M108.263,176.487l-2.27-4.725c-0.643-1.32-1.344-2.988-1.918-4.32l-0.068,0.012
				c-0.121,1.445-0.178,3.272-0.34,4.688l-0.576,5.191L108.263,176.487z"/>
			<path style="fill:#FFFFFF;" d="M121.279,184.589l-3.826-23.396l6.18-1.01l6.262,7.78c1.791,2.237,3.654,4.926,5.129,7.395
				l0.104-0.017c-0.852-3.032-1.473-6.175-2.045-9.68l-1.119-6.839l4.859-0.794l3.824,23.396l-5.553,0.908l-6.475-8.207
				c-1.797-2.272-3.816-5.043-5.41-7.598l-0.1,0.052c0.645,3.067,1.252,6.353,1.877,10.171l1.152,7.046L121.279,184.589z"/>
			<path style="fill:#FFFFFF;" d="M144.512,175.195c1.543,0.496,3.85,0.867,6.105,0.498c2.43-0.397,3.549-1.613,3.299-3.14
				c-0.238-1.458-1.484-2.11-4.461-2.656c-4.107-0.719-6.994-2.457-7.551-5.859c-0.652-3.99,2.182-7.59,7.701-8.493
				c2.637-0.431,4.672-0.192,6.162,0.205l-0.482,4.463c-1.012-0.298-2.785-0.686-5.076-0.312s-3.23,1.598-3.033,2.813
				c0.244,1.492,1.672,1.936,4.879,2.588c4.381,0.852,6.676,2.686,7.215,5.984c0.641,3.923-1.834,7.748-8.256,8.797
				c-2.672,0.437-5.424,0.175-6.861-0.338L144.512,175.195z"/>
			<path style="fill:#FFFFFF;" d="M160.15,154.213l14.301-2.337l0.709,4.339l-8.99,1.47l0.875,5.346l8.4-1.374l0.703,4.305
				l-8.4,1.374l1.537,9.406l-5.311,0.868L160.15,154.213z"/>
			<path style="fill:#FFFFFF;" d="M201.734,159.177c1.254,7.671-2.639,13.083-9.477,14.201c-6.941,1.135-11.859-3.443-12.949-10.107
				c-1.146-7.012,2.477-12.986,9.383-14.115C195.877,147.981,200.678,152.721,201.734,159.177z M184.881,162.253
				c0.748,4.582,3.428,7.458,6.969,6.879c3.574-0.584,5.066-4.32,4.324-8.867c-0.688-4.2-3.291-7.481-6.934-6.886
				C185.664,153.963,184.137,157.706,184.881,162.253z"/>
			<path style="fill:#FFFFFF;" d="M203.385,147.467c1.656-0.556,4.156-1.179,6.967-1.639c3.471-0.568,5.986-0.443,7.869,0.603
				c1.568,0.885,2.6,2.391,2.951,4.543c0.488,2.985-1.295,5.379-3.188,6.438l0.016,0.104c1.738,0.393,2.896,1.808,3.838,3.864
				c1.16,2.519,2.389,5.454,2.988,6.283l-5.414,0.885c-0.49-0.597-1.359-2.415-2.523-5.183c-1.102-2.813-2.238-3.447-4.396-3.13
				l-1.598,0.261l1.504,9.198l-5.24,0.856L203.385,147.467z M210.271,156.676l2.082-0.341c2.639-0.431,3.986-2.005,3.65-4.053
				c-0.352-2.152-1.986-2.99-4.422-2.628c-1.283,0.21-1.994,0.434-2.365,0.565L210.271,156.676z"/>
			<path style="fill:#FFFFFF;" d="M246.064,154.996c-0.564-2.795-1.225-6.18-1.781-9.582l-0.104,0.017
				c-0.242,3.104-0.668,6.596-1.123,9.485l-1.354,9.594l-4.131,0.676l-3.98-8.651c-1.211-2.616-2.555-5.819-3.609-8.783
				l-0.068,0.011c0.377,3.182,0.863,6.809,1.166,9.753l1.035,8.954l-4.893,0.8l-2.334-23.64l7.047-1.152l3.568,7.436
				c1.17,2.588,2.377,5.385,3.346,8.042l0.105-0.018c0.215-2.814,0.508-6.035,0.848-8.763l1.229-8.184l6.906-1.129l5.109,23.186
				l-5.172,0.845L246.064,154.996z"/>
			<path style="fill:#FFFFFF;" d="M261.472,155.506l-0.684,6.277l-5.484,0.896l3.326-24.564l6.941-1.135l11.08,22.209l-5.693,0.931
				l-2.785-5.71L261.472,155.506z M266.762,150.578l-2.27-4.726c-0.645-1.32-1.344-2.988-1.918-4.32l-0.068,0.011
				c-0.119,1.446-0.178,3.273-0.34,4.689l-0.576,5.19L266.762,150.578z"/>
			<path style="fill:#FFFFFF;" d="M295.984,155.353c-0.865,0.604-2.793,1.454-5.426,1.919l-0.396,1.277
				c1.406,0.091,2.732,0.8,3,2.432c0.391,2.395-1.631,3.544-3.609,3.868c-1.041,0.17-2.221,0.149-3.092-0.171l0.342-2.266
				c0.566,0.193,1.398,0.271,2.023,0.168c0.693-0.113,1.211-0.447,1.113-1.037c-0.119-0.729-0.98-0.981-2.959-0.871l0.85-3.097
				c-6.736,0.211-10.869-3.924-11.852-9.93c-1.305-7.983,3.66-13.357,10.742-14.515c2.742-0.448,4.914-0.232,5.932,0.1l-0.391,4.376
				c-1.148-0.276-2.709-0.448-4.584-0.142c-4.199,0.687-7.049,3.753-6.197,8.961c0.766,4.686,4.025,7.182,8.746,6.41
				c1.598-0.261,3.311-0.897,4.283-1.484L295.984,155.353z"/>
			<path style="fill:#FFFFFF;" d="M304.379,148.492l-0.686,6.277l-5.484,0.896l3.326-24.564l6.943-1.135l11.078,22.209l-5.693,0.931
				l-2.785-5.71L304.379,148.492z M300.193,129.86c-0.582-2.898,0.285-4.573,1.951-4.845c0.938-0.153,1.613,0.057,2.334,0.332
				c0.613,0.256,1.184,0.483,1.635,0.409c0.59-0.096,0.742-0.477,0.695-1.646l2.359-0.386c0.615,3.107-0.193,4.486-2.033,4.787
				c-0.936,0.153-1.682-0.046-2.365-0.291c-0.641-0.216-1.107-0.46-1.559-0.386c-0.451,0.074-0.678,0.645-0.588,1.628
				L300.193,129.86z M309.668,143.565l-2.27-4.726c-0.645-1.319-1.344-2.988-1.918-4.32l-0.07,0.012
				c-0.119,1.445-0.178,3.272-0.338,4.688l-0.576,5.19L309.668,143.565z"/>
			<path style="fill:#FFFFFF;" d="M341.279,136.366c1.254,7.671-2.637,13.083-9.475,14.2c-6.943,1.135-11.859-3.442-12.949-10.106
				c-1.146-7.012,2.475-12.986,9.381-14.115C335.422,125.17,340.224,129.91,341.279,136.366z M324.426,139.442
				c0.75,4.582,3.428,7.458,6.969,6.879c3.576-0.584,5.068-4.32,4.324-8.867c-0.688-4.2-3.291-7.481-6.934-6.886
				C325.209,131.152,323.683,134.895,324.426,139.442z"/>
			<path style="fill:#FFFFFF;" d="M143.355,200.05c1.893-0.631,4.398-1.219,7.07-1.656c4.443-0.726,7.455-0.398,9.99,0.934
				c2.725,1.407,4.723,4.04,5.396,8.168c0.732,4.479-0.393,7.835-2.336,10.113c-2.131,2.451-5.721,4.035-10.303,4.784
				c-2.742,0.448-4.715,0.592-6.062,0.634L143.355,200.05z M151.787,218.272c0.469,0.031,1.197-0.088,1.857-0.196
				c4.795-0.749,7.488-3.897,6.574-9.485c-0.76-4.866-4.025-6.97-8.572-6.226c-1.18,0.193-1.928,0.422-2.361,0.6L151.787,218.272z"
				/>
			<path style="fill:#FFFFFF;" d="M172.775,194.919l3.824,23.396l-5.311,0.868l-3.824-23.396L172.775,194.919z"/>
			<path style="fill:#FFFFFF;" d="M200.549,213.296c-1.541,0.821-4.506,2.09-7.596,2.595c-4.27,0.698-7.533,0.126-10.027-1.604
				c-2.48-1.662-4.158-4.525-4.686-7.966c-1.236-7.781,3.693-13.149,11.365-14.403c3.02-0.494,5.441-0.283,6.678,0.085l-0.418,4.416
				c-1.375-0.345-3.045-0.536-5.613-0.116c-4.408,0.721-7.332,3.765-6.504,8.833c0.789,4.824,4.273,7.177,8.611,6.468
				c1.215-0.199,2.164-0.496,2.547-0.773l-0.799-4.894l-3.611,0.59l-0.674-4.131l8.711-1.424L200.549,213.296z"/>
			<path style="fill:#FFFFFF;" d="M206.342,189.432l3.824,23.396l-5.311,0.868l-3.824-23.396L206.342,189.432z"/>
			<path style="fill:#FFFFFF;" d="M216.162,192.387l-6.281,1.027l-0.727-4.442l17.98-2.939l0.725,4.442l-6.387,1.044l3.1,18.953
				l-5.311,0.868L216.162,192.387z"/>
			<path style="fill:#FFFFFF;" d="M235.74,202.482l-0.684,6.277l-5.486,0.897l3.326-24.564l6.943-1.135l11.078,22.21l-5.693,0.931
				l-2.785-5.71L235.74,202.482z M241.029,197.554l-2.27-4.726c-0.645-1.32-1.344-2.988-1.918-4.32l-0.07,0.011
				c-0.119,1.445-0.176,3.272-0.338,4.688l-0.576,5.191L241.029,197.554z"/>
			<path style="fill:#FFFFFF;" d="M250.221,182.259l5.309-0.868l3.098,18.952l9.305-1.521l0.727,4.443l-14.613,2.389
				L250.221,182.259z"/>
		</g>
		<g>
			<path style="fill:#FFFFFF;" d="M127.055,313.524c-0.505,0.252-1.639,0.521-3.115,0.521c-4.195,0-6.355-2.61-6.355-6.067
				c0-4.142,2.952-6.446,6.625-6.446c1.423,0,2.503,0.288,2.989,0.54l-0.558,2.179c-0.559-0.233-1.333-0.45-2.305-0.45
				c-2.18,0-3.871,1.314-3.871,4.016c0,2.43,1.439,3.96,3.889,3.96c0.828,0,1.746-0.18,2.287-0.396L127.055,313.524z"/>
			<path style="fill:#FFFFFF;" d="M139.421,307.672c0,3.979-2.413,6.392-5.96,6.392c-3.602,0-5.707-2.719-5.707-6.175
				c0-3.638,2.322-6.356,5.905-6.356C137.387,301.532,139.421,304.323,139.421,307.672z M130.652,307.834
				c0,2.376,1.116,4.051,2.953,4.051c1.854,0,2.916-1.765,2.916-4.123c0-2.179-1.044-4.052-2.935-4.052
				C131.732,303.711,130.652,305.475,130.652,307.834z"/>
			<path style="fill:#FFFFFF;" d="M151.48,309.22c-0.055-1.458-0.108-3.223-0.108-4.987h-0.054
				c-0.379,1.549-0.883,3.277-1.351,4.699l-1.477,4.735h-2.143l-1.296-4.699c-0.396-1.423-0.811-3.151-1.099-4.735h-0.036
				c-0.072,1.639-0.126,3.511-0.216,5.023l-0.216,4.609h-2.539l0.773-12.135h3.656l1.188,4.052c0.379,1.404,0.756,2.916,1.026,4.338
				h0.054c0.343-1.404,0.757-3.006,1.152-4.357l1.297-4.033h3.583l0.667,12.135h-2.684L151.48,309.22z"/>
			<path style="fill:#FFFFFF;" d="M162.908,310.75l-0.865,3.115h-2.844l3.709-12.135h3.601l3.763,12.135h-2.952l-0.937-3.115
				H162.908z M165.986,308.698l-0.756-2.574c-0.216-0.721-0.432-1.62-0.612-2.341h-0.036c-0.18,0.721-0.359,1.639-0.559,2.341
				l-0.72,2.574H165.986z"/>
			<path style="fill:#FFFFFF;" d="M175.614,311.038c0.738,0.379,1.872,0.757,3.043,0.757c1.261,0,1.927-0.522,1.927-1.314
				c0-0.757-0.576-1.188-2.035-1.71c-2.016-0.702-3.33-1.818-3.33-3.583c0-2.07,1.729-3.655,4.591-3.655
				c1.368,0,2.377,0.288,3.097,0.612l-0.611,2.215c-0.486-0.234-1.352-0.576-2.539-0.576c-1.188,0-1.765,0.54-1.765,1.17
				c0,0.774,0.685,1.117,2.251,1.711c2.143,0.792,3.15,1.908,3.15,3.619c0,2.034-1.566,3.763-4.897,3.763
				c-1.386,0-2.755-0.359-3.438-0.738L175.614,311.038z"/>
			<path style="fill:#FFFFFF;" d="M187.999,301.73v12.135h-2.755V301.73H187.999z"/>
			<path style="fill:#FFFFFF;" d="M200.637,309.22c-0.054-1.458-0.107-3.223-0.107-4.987h-0.055
				c-0.378,1.549-0.882,3.277-1.35,4.699l-1.477,4.735h-2.143l-1.297-4.699c-0.396-1.423-0.811-3.151-1.098-4.735h-0.037
				c-0.071,1.639-0.125,3.511-0.216,5.023l-0.216,4.609h-2.539l0.774-12.135h3.655l1.188,4.052c0.378,1.404,0.756,2.916,1.026,4.338
				h0.054c0.343-1.404,0.757-3.006,1.152-4.357l1.296-4.033h3.584l0.666,12.135h-2.684L200.637,309.22z"/>
			<path style="fill:#FFFFFF;" d="M205.601,301.892c0.847-0.144,2.035-0.252,3.709-0.252c1.693,0,2.899,0.324,3.709,0.973
				c0.775,0.611,1.297,1.62,1.297,2.809s-0.396,2.196-1.116,2.881c-0.937,0.882-2.323,1.278-3.943,1.278
				c-0.36,0-0.685-0.019-0.937-0.054v4.339h-2.719V301.892z M208.32,307.402c0.234,0.054,0.522,0.072,0.919,0.072
				c1.458,0,2.358-0.738,2.358-1.98c0-1.117-0.774-1.783-2.143-1.783c-0.559,0-0.937,0.055-1.135,0.108V307.402z"/>
			<path style="fill:#FFFFFF;" d="M216.06,301.73h2.754v9.831h4.826v2.305h-7.58V301.73z"/>
			<path style="fill:#FFFFFF;" d="M228.013,301.73v12.135h-2.755V301.73H228.013z"/>
			<path style="fill:#FFFFFF;" d="M230.388,301.73h7.418v2.251h-4.663v2.772h4.357v2.232h-4.357v4.879h-2.755V301.73z"/>
			<path style="fill:#FFFFFF;" d="M242.629,301.73v12.135h-2.756V301.73H242.629z"/>
			<path style="fill:#FFFFFF;" d="M253.916,313.524c-0.504,0.252-1.639,0.521-3.115,0.521c-4.195,0-6.355-2.61-6.355-6.067
				c0-4.142,2.953-6.446,6.626-6.446c1.423,0,2.503,0.288,2.989,0.54l-0.559,2.179c-0.559-0.233-1.332-0.45-2.305-0.45
				c-2.179,0-3.871,1.314-3.871,4.016c0,2.43,1.44,3.96,3.889,3.96c0.828,0,1.747-0.18,2.287-0.396L253.916,313.524z"/>
			<path style="fill:#FFFFFF;" d="M258.721,310.75l-0.865,3.115h-2.844l3.709-12.135h3.601l3.763,12.135h-2.952l-0.937-3.115
				H258.721z M261.799,308.698l-0.756-2.574c-0.216-0.721-0.432-1.62-0.612-2.341h-0.036c-0.18,0.721-0.359,1.639-0.559,2.341
				l-0.72,2.574H261.799z"/>
			<path style="fill:#FFFFFF;" d="M276.164,313.524c-0.486,0.233-1.531,0.504-2.899,0.521l-0.306,0.612
				c0.701,0.162,1.314,0.631,1.314,1.477c0,1.242-1.117,1.656-2.143,1.656c-0.541,0-1.135-0.107-1.549-0.342l0.359-1.116
				c0.271,0.144,0.685,0.252,1.009,0.252c0.36,0,0.648-0.126,0.648-0.432c0-0.379-0.414-0.576-1.423-0.685l0.685-1.494
				c-3.421-0.45-5.167-2.881-5.167-5.996c0-4.142,2.952-6.446,6.625-6.446c1.423,0,2.503,0.288,2.989,0.54l-0.558,2.179
				c-0.559-0.233-1.333-0.45-2.305-0.45c-2.18,0-3.871,1.314-3.871,4.016c0,2.43,1.439,3.96,3.889,3.96
				c0.828,0,1.746-0.18,2.287-0.396L276.164,313.524z"/>
			<path style="fill:#FFFFFF;" d="M280.968,310.75l-0.864,3.115h-2.845l3.709-12.135h3.601l3.764,12.135h-2.953l-0.936-3.115
				H280.968z M280.391,300.992c-0.054-1.513,0.522-2.286,1.387-2.286c0.485,0,0.81,0.162,1.152,0.359
				c0.288,0.181,0.558,0.343,0.792,0.343c0.307,0,0.414-0.181,0.486-0.774h1.225c0.054,1.62-0.469,2.251-1.423,2.251
				c-0.486,0-0.847-0.162-1.171-0.343c-0.306-0.162-0.521-0.324-0.756-0.324s-0.396,0.271-0.432,0.774H280.391z M284.047,308.698
				l-0.756-2.574c-0.217-0.721-0.433-1.62-0.613-2.341h-0.035c-0.18,0.721-0.36,1.639-0.559,2.341l-0.721,2.574H284.047z"/>
			<path style="fill:#FFFFFF;" d="M300.607,307.672c0,3.979-2.412,6.392-5.959,6.392c-3.602,0-5.708-2.719-5.708-6.175
				c0-3.638,2.322-6.356,5.905-6.356C298.573,301.532,300.607,304.323,300.607,307.672z M291.839,307.834
				c0,2.376,1.116,4.051,2.953,4.051c1.854,0,2.917-1.765,2.917-4.123c0-2.179-1.045-4.052-2.936-4.052
				C292.92,303.711,291.839,305.475,291.839,307.834z"/>
			<path style="fill:#FFFFFF;" d="M306.04,301.892c1.009-0.162,2.323-0.252,3.709-0.252c2.305,0,3.8,0.414,4.97,1.296
				c1.26,0.937,2.053,2.431,2.053,4.574c0,2.322-0.847,3.924-2.018,4.915c-1.277,1.062-3.223,1.566-5.6,1.566
				c-1.422,0-2.43-0.09-3.114-0.18V301.892z M308.795,311.795c0.234,0.054,0.611,0.054,0.954,0.054
				c2.485,0.018,4.105-1.351,4.105-4.249c0.018-2.521-1.458-3.854-3.817-3.854c-0.612,0-1.008,0.054-1.242,0.108V311.795z"/>
			<path style="fill:#FFFFFF;" d="M321.107,310.75l-0.865,3.115h-2.844l3.709-12.135h3.601l3.763,12.135h-2.952l-0.937-3.115
				H321.107z M324.185,308.698l-0.756-2.574c-0.216-0.721-0.432-1.62-0.612-2.341h-0.036c-0.18,0.721-0.359,1.639-0.559,2.341
				l-0.72,2.574H324.185z"/>
			<path style="fill:#FFFFFF;" d="M340.943,308.734h-4.465v2.88h4.987v2.251h-7.742V301.73h7.49v2.251h-4.735v2.521h4.465V308.734z"
				/>
			<path style="fill:#FFFFFF;" d="M349.726,313.865l-1.098-2.196c-0.45-0.847-0.738-1.477-1.08-2.179h-0.036
				c-0.252,0.702-0.558,1.332-0.937,2.179l-1.008,2.196h-3.133l3.511-6.139l-3.386-5.996h3.151l1.062,2.215
				c0.36,0.738,0.63,1.332,0.918,2.017h0.036c0.288-0.774,0.522-1.314,0.828-2.017l1.026-2.215h3.134l-3.422,5.924l3.602,6.211
				H349.726z"/>
			<path style="fill:#FFFFFF;" d="M354.369,301.892c0.846-0.144,2.035-0.252,3.709-0.252c1.692,0,2.898,0.324,3.709,0.973
				c0.774,0.611,1.297,1.62,1.297,2.809s-0.396,2.196-1.117,2.881c-0.936,0.882-2.322,1.278-3.943,1.278
				c-0.359,0-0.684-0.019-0.936-0.054v4.339h-2.719V301.892z M357.088,307.402c0.234,0.054,0.521,0.072,0.918,0.072
				c1.459,0,2.359-0.738,2.359-1.98c0-1.117-0.774-1.783-2.143-1.783c-0.559,0-0.937,0.055-1.135,0.108V307.402z"/>
			<path style="fill:#FFFFFF;" d="M372.047,308.734h-4.465v2.88h4.987v2.251h-7.742V301.73h7.49v2.251h-4.735v2.521h4.465V308.734z"
				/>
			<path style="fill:#FFFFFF;" d="M374.439,301.892c0.882-0.144,2.196-0.252,3.654-0.252c1.801,0,3.061,0.27,3.926,0.954
				c0.72,0.576,1.115,1.423,1.115,2.539c0,1.548-1.098,2.61-2.143,2.988v0.055c0.847,0.342,1.314,1.152,1.621,2.268
				c0.378,1.368,0.756,2.953,0.99,3.421h-2.809c-0.198-0.342-0.486-1.332-0.847-2.827c-0.323-1.512-0.847-1.925-1.962-1.944h-0.828
				v4.771h-2.719V301.892z M377.158,307.114h1.08c1.368,0,2.178-0.685,2.178-1.747c0-1.116-0.756-1.674-2.016-1.692
				c-0.666,0-1.045,0.055-1.242,0.091V307.114z"/>
			<path style="fill:#FFFFFF;" d="M387.867,301.73v12.135h-2.754V301.73H387.867z"/>
			<path style="fill:#FFFFFF;" d="M397.463,308.734h-4.465v2.88h4.986v2.251h-7.742V301.73h7.49v2.251h-4.734v2.521h4.465V308.734z
				 M395.086,298.868l1.836,2.214h-1.926l-0.918-1.116h-0.037l-0.899,1.116h-1.909l1.801-2.214H395.086z"/>
			<path style="fill:#FFFFFF;" d="M399.854,313.865V301.73h3.205l2.521,4.447c0.721,1.278,1.44,2.791,1.98,4.159h0.055
				c-0.181-1.602-0.234-3.241-0.234-5.059v-3.547h2.521v12.135h-2.881l-2.593-4.681c-0.721-1.296-1.513-2.862-2.106-4.285
				l-0.054,0.019c0.071,1.602,0.107,3.312,0.107,5.292v3.655H399.854z"/>
			<path style="fill:#FFFFFF;" d="M421.187,313.524c-0.505,0.252-1.639,0.521-3.115,0.521c-4.195,0-6.355-2.61-6.355-6.067
				c0-4.142,2.952-6.446,6.625-6.446c1.423,0,2.503,0.288,2.989,0.54l-0.558,2.179c-0.559-0.233-1.333-0.45-2.305-0.45
				c-2.18,0-3.871,1.314-3.871,4.016c0,2.43,1.439,3.96,3.889,3.96c0.828,0,1.746-0.18,2.287-0.396L421.187,313.524z"/>
			<path style="fill:#FFFFFF;" d="M425.739,301.73v12.135h-2.755V301.73H425.739z"/>
			<path style="fill:#FFFFFF;" d="M430.941,310.75l-0.865,3.115h-2.844l3.709-12.135h3.601l3.763,12.135h-2.952l-0.937-3.115
				H430.941z M434.019,308.698l-0.756-2.574c-0.216-0.721-0.432-1.62-0.612-2.341h-0.036c-0.18,0.721-0.359,1.639-0.559,2.341
				l-0.72,2.574H434.019z"/>
			<path style="fill:#FFFFFF;" d="M443.557,301.892c1.009-0.162,2.323-0.252,3.709-0.252c2.305,0,3.8,0.414,4.97,1.296
				c1.26,0.937,2.053,2.431,2.053,4.574c0,2.322-0.847,3.924-2.018,4.915c-1.277,1.062-3.223,1.566-5.6,1.566
				c-1.422,0-2.43-0.09-3.114-0.18V301.892z M446.312,311.795c0.234,0.054,0.611,0.054,0.954,0.054
				c2.485,0.018,4.105-1.351,4.105-4.249c0.018-2.521-1.458-3.854-3.817-3.854c-0.612,0-1.008,0.054-1.242,0.108V311.795z"/>
			<path style="fill:#FFFFFF;" d="M463.305,308.734h-4.466v2.88h4.988v2.251h-7.742V301.73h7.489v2.251h-4.735v2.521h4.466V308.734z
				"/>
			<path style="fill:#FFFFFF;" d="M120.879,323.329v6.986c0,2.089,0.791,3.15,2.196,3.15c1.44,0,2.232-1.008,2.232-3.15v-6.986
				h2.737v6.807c0,3.744-1.891,5.527-5.061,5.527c-3.061,0-4.861-1.692-4.861-5.563v-6.771H120.879z"/>
			<path style="fill:#FFFFFF;" d="M130.508,332.638c0.738,0.379,1.872,0.757,3.043,0.757c1.26,0,1.926-0.522,1.926-1.314
				c0-0.757-0.576-1.188-2.034-1.711c-2.017-0.702-3.331-1.818-3.331-3.583c0-2.07,1.729-3.655,4.592-3.655
				c1.368,0,2.376,0.288,3.097,0.612l-0.612,2.215c-0.486-0.234-1.351-0.576-2.539-0.576c-1.188,0-1.764,0.54-1.764,1.17
				c0,0.774,0.684,1.117,2.25,1.711c2.143,0.792,3.15,1.908,3.15,3.619c0,2.034-1.566,3.763-4.896,3.763
				c-1.387,0-2.756-0.359-3.439-0.738L130.508,332.638z"/>
			<path style="fill:#FFFFFF;" d="M151.246,329.271c0,3.979-2.412,6.393-5.959,6.393c-3.602,0-5.708-2.719-5.708-6.176
				c0-3.638,2.322-6.356,5.905-6.356C149.212,323.131,151.246,325.922,151.246,329.271z M142.477,329.433
				c0,2.377,1.116,4.052,2.953,4.052c1.854,0,2.917-1.765,2.917-4.123c0-2.179-1.045-4.052-2.936-4.052
				C143.558,325.31,142.477,327.074,142.477,329.433z"/>
			<path style="fill:#FFFFFF;" d="M156.679,323.491c1.009-0.162,2.323-0.252,3.709-0.252c2.305,0,3.8,0.414,4.97,1.296
				c1.26,0.937,2.053,2.431,2.053,4.574c0,2.322-0.847,3.925-2.018,4.915c-1.277,1.062-3.223,1.566-5.6,1.566
				c-1.422,0-2.43-0.09-3.114-0.18V323.491z M159.433,333.395c0.234,0.054,0.611,0.054,0.954,0.054
				c2.485,0.018,4.105-1.351,4.105-4.249c0.018-2.521-1.458-3.854-3.817-3.854c-0.612,0-1.008,0.054-1.242,0.108V333.395z"/>
			<path style="fill:#FFFFFF;" d="M180.316,329.271c0,3.979-2.414,6.393-5.961,6.393c-3.601,0-5.707-2.719-5.707-6.176
				c0-3.638,2.322-6.356,5.906-6.356C178.281,323.131,180.316,325.922,180.316,329.271z M171.547,329.433
				c0,2.377,1.117,4.052,2.953,4.052c1.854,0,2.917-1.765,2.917-4.123c0-2.179-1.044-4.052-2.935-4.052
				C172.627,325.31,171.547,327.074,171.547,329.433z"/>
			<path style="fill:#FFFFFF;" d="M182.202,332.638c0.738,0.379,1.872,0.757,3.043,0.757c1.261,0,1.927-0.522,1.927-1.314
				c0-0.757-0.576-1.188-2.035-1.711c-2.016-0.702-3.33-1.818-3.33-3.583c0-2.07,1.729-3.655,4.591-3.655
				c1.368,0,2.377,0.288,3.097,0.612l-0.611,2.215c-0.486-0.234-1.352-0.576-2.539-0.576c-1.188,0-1.765,0.54-1.765,1.17
				c0,0.774,0.685,1.117,2.251,1.711c2.143,0.792,3.15,1.908,3.15,3.619c0,2.034-1.566,3.763-4.897,3.763
				c-1.386,0-2.755-0.359-3.438-0.738L182.202,332.638z"/>
			<path style="fill:#FFFFFF;" d="M204.381,335.123c-0.505,0.252-1.639,0.521-3.115,0.521c-4.195,0-6.355-2.61-6.355-6.067
				c0-4.142,2.952-6.446,6.625-6.446c1.423,0,2.503,0.288,2.989,0.54l-0.558,2.179c-0.559-0.233-1.333-0.45-2.305-0.45
				c-2.18,0-3.871,1.314-3.871,4.016c0,2.431,1.439,3.961,3.889,3.961c0.828,0,1.746-0.18,2.287-0.396L204.381,335.123z"/>
			<path style="fill:#FFFFFF;" d="M206.178,323.329h2.755v9.831h4.825v2.305h-7.58V323.329z"/>
			<path style="fill:#FFFFFF;" d="M218.131,323.329v12.136h-2.756v-12.136H218.131z"/>
			<path style="fill:#FFFFFF;" d="M227.725,330.333h-4.466v2.881h4.988v2.251h-7.742v-12.136h7.49v2.251h-4.736v2.521h4.466V330.333
				z"/>
			<path style="fill:#FFFFFF;" d="M230.117,335.465v-12.136h3.205l2.521,4.447c0.72,1.278,1.44,2.791,1.98,4.159h0.054
				c-0.18-1.603-0.233-3.241-0.233-5.06v-3.547h2.521v12.136h-2.881l-2.593-4.682c-0.72-1.296-1.513-2.862-2.106-4.285l-0.055,0.019
				c0.072,1.602,0.108,3.312,0.108,5.293v3.655H230.117z"/>
			<path style="fill:#FFFFFF;" d="M244.878,325.634h-3.259v-2.305h9.326v2.305h-3.312v9.831h-2.755V325.634z"/>
			<path style="fill:#FFFFFF;" d="M259.621,330.333h-4.465v2.881h4.986v2.251H252.4v-12.136h7.49v2.251h-4.734v2.521h4.465V330.333z
				"/>
			<path style="fill:#FFFFFF;" d="M262.102,332.638c0.738,0.379,1.872,0.757,3.043,0.757c1.261,0,1.927-0.522,1.927-1.314
				c0-0.757-0.576-1.188-2.035-1.711c-2.016-0.702-3.33-1.818-3.33-3.583c0-2.07,1.729-3.655,4.591-3.655
				c1.368,0,2.377,0.288,3.097,0.612l-0.611,2.215c-0.486-0.234-1.352-0.576-2.539-0.576c-1.188,0-1.765,0.54-1.765,1.17
				c0,0.774,0.685,1.117,2.251,1.711c2.143,0.792,3.15,1.908,3.15,3.619c0,2.034-1.566,3.763-4.897,3.763
				c-1.386,0-2.755-0.359-3.438-0.738L262.102,332.638z"/>
			<path style="fill:#FFFFFF;" d="M275.368,335.465v-12.136h3.205l2.521,4.447c0.721,1.278,1.44,2.791,1.98,4.159h0.055
				c-0.181-1.603-0.234-3.241-0.234-5.06v-3.547h2.521v12.136h-2.881l-2.593-4.682c-0.721-1.296-1.513-2.862-2.106-4.285
				l-0.054,0.019c0.071,1.602,0.107,3.312,0.107,5.293v3.655H275.368z"/>
			<path style="fill:#FFFFFF;" d="M298.897,329.271c0,3.979-2.413,6.393-5.96,6.393c-3.602,0-5.707-2.719-5.707-6.176
				c0-3.638,2.322-6.356,5.905-6.356C296.863,323.131,298.897,325.922,298.897,329.271z M290.129,329.433
				c0,2.377,1.116,4.052,2.953,4.052c1.854,0,2.916-1.765,2.916-4.123c0-2.179-1.044-4.052-2.935-4.052
				C291.209,325.31,290.129,327.074,290.129,329.433z"/>
			<path style="fill:#FFFFFF;" d="M300.783,332.638c0.738,0.379,1.873,0.757,3.043,0.757c1.261,0,1.928-0.522,1.928-1.314
				c0-0.757-0.576-1.188-2.035-1.711c-2.017-0.702-3.331-1.818-3.331-3.583c0-2.07,1.729-3.655,4.591-3.655
				c1.369,0,2.377,0.288,3.098,0.612l-0.612,2.215c-0.486-0.234-1.351-0.576-2.539-0.576s-1.765,0.54-1.765,1.17
				c0,0.774,0.685,1.117,2.251,1.711c2.143,0.792,3.151,1.908,3.151,3.619c0,2.034-1.566,3.763-4.898,3.763
				c-1.386,0-2.754-0.359-3.438-0.738L300.783,332.638z"/>
			<path style="fill:#FFFFFF;" d="M322.962,335.123c-0.505,0.252-1.639,0.521-3.115,0.521c-4.194,0-6.355-2.61-6.355-6.067
				c0-4.142,2.952-6.446,6.626-6.446c1.422,0,2.502,0.288,2.988,0.54l-0.558,2.179c-0.558-0.233-1.333-0.45-2.305-0.45
				c-2.179,0-3.871,1.314-3.871,4.016c0,2.431,1.44,3.961,3.89,3.961c0.828,0,1.746-0.18,2.286-0.396L322.962,335.123z"/>
			<path style="fill:#FFFFFF;" d="M327.765,332.35l-0.864,3.115h-2.845l3.709-12.136h3.602l3.763,12.136h-2.953l-0.937-3.115
				H327.765z M330.845,330.297l-0.757-2.574c-0.216-0.721-0.432-1.62-0.611-2.341h-0.036c-0.181,0.721-0.36,1.639-0.559,2.341
				l-0.72,2.574H330.845z"/>
			<path style="fill:#FFFFFF;" d="M336.746,335.465v-12.136h3.205l2.521,4.447c0.72,1.278,1.439,2.791,1.98,4.159h0.054
				c-0.181-1.603-0.234-3.241-0.234-5.06v-3.547h2.521v12.136h-2.881l-2.592-4.682c-0.721-1.296-1.513-2.862-2.107-4.285
				l-0.054,0.019c0.072,1.602,0.108,3.312,0.108,5.293v3.655H336.746z"/>
			<path style="fill:#FFFFFF;" d="M351.993,332.35l-0.864,3.115h-2.845l3.709-12.136h3.601l3.764,12.136h-2.953l-0.936-3.115
				H351.993z M355.072,330.297l-0.756-2.574c-0.217-0.721-0.433-1.62-0.613-2.341h-0.035c-0.18,0.721-0.36,1.639-0.559,2.341
				l-0.721,2.574H355.072z"/>
			<path style="fill:#FFFFFF;" d="M363.728,323.329v12.136h-2.754v-12.136H363.728z"/>
			<path style="fill:#FFFFFF;" d="M366.193,332.638c0.738,0.379,1.873,0.757,3.043,0.757c1.261,0,1.928-0.522,1.928-1.314
				c0-0.757-0.576-1.188-2.035-1.711c-2.017-0.702-3.331-1.818-3.331-3.583c0-2.07,1.729-3.655,4.591-3.655
				c1.369,0,2.377,0.288,3.098,0.612l-0.612,2.215c-0.486-0.234-1.351-0.576-2.539-0.576s-1.765,0.54-1.765,1.17
				c0,0.774,0.685,1.117,2.251,1.711c2.143,0.792,3.151,1.908,3.151,3.619c0,2.034-1.566,3.763-4.898,3.763
				c-1.386,0-2.754-0.359-3.438-0.738L366.193,332.638z"/>
			<path style="fill:#FFFFFF;" d="M379.459,323.491c1.009-0.162,2.323-0.252,3.709-0.252c2.305,0,3.8,0.414,4.97,1.296
				c1.261,0.937,2.053,2.431,2.053,4.574c0,2.322-0.847,3.925-2.017,4.915c-1.278,1.062-3.223,1.566-5.6,1.566
				c-1.422,0-2.431-0.09-3.115-0.18V323.491z M382.215,333.395c0.233,0.054,0.611,0.054,0.953,0.054
				c2.485,0.018,4.105-1.351,4.105-4.249c0.018-2.521-1.458-3.854-3.816-3.854c-0.613,0-1.009,0.054-1.242,0.108V333.395z"/>
			<path style="fill:#FFFFFF;" d="M394.742,323.329v12.136h-2.755v-12.136H394.742z"/>
			<path style="fill:#FFFFFF;" d="M407.254,334.906c-0.846,0.288-2.449,0.685-4.051,0.685c-2.215,0-3.817-0.559-4.934-1.639
				c-1.116-1.044-1.729-2.629-1.711-4.411c0.019-4.033,2.953-6.338,6.933-6.338c1.566,0,2.772,0.306,3.366,0.595l-0.576,2.196
				c-0.666-0.288-1.494-0.522-2.826-0.522c-2.287,0-4.016,1.297-4.016,3.926c0,2.502,1.566,3.979,3.817,3.979
				c0.63,0,1.134-0.072,1.351-0.18v-2.539h-1.873v-2.143h4.52V334.906z"/>
			<path style="fill:#FFFFFF;" d="M412.148,323.329v12.136h-2.756v-12.136H412.148z"/>
			<path style="fill:#FFFFFF;" d="M416.863,325.634h-3.259v-2.305h9.327v2.305h-3.313v9.831h-2.755V325.634z"/>
			<path style="fill:#FFFFFF;" d="M425.918,332.35l-0.864,3.115h-2.845l3.709-12.136h3.602l3.763,12.136h-2.953l-0.937-3.115
				H425.918z M428.997,330.297l-0.757-2.574c-0.216-0.721-0.432-1.62-0.611-2.341h-0.036c-0.181,0.721-0.36,1.639-0.559,2.341
				l-0.72,2.574H428.997z"/>
			<path style="fill:#FFFFFF;" d="M437.654,323.329v12.136h-2.756v-12.136H437.654z"/>
			<path style="fill:#FFFFFF;" d="M440.119,332.638c0.738,0.379,1.872,0.757,3.043,0.757c1.26,0,1.926-0.522,1.926-1.314
				c0-0.757-0.576-1.188-2.034-1.711c-2.017-0.702-3.331-1.818-3.331-3.583c0-2.07,1.729-3.655,4.592-3.655
				c1.368,0,2.376,0.288,3.097,0.612l-0.612,2.215c-0.486-0.234-1.351-0.576-2.539-0.576c-1.188,0-1.764,0.54-1.764,1.17
				c0,0.774,0.684,1.117,2.25,1.711c2.143,0.792,3.15,1.908,3.15,3.619c0,2.034-1.566,3.763-4.896,3.763
				c-1.387,0-2.756-0.359-3.439-0.738L440.119,332.638z"/>
			<path style="fill:#FFFFFF;" d="M448.596,337.608c0.559-1.603,1.045-3.475,1.314-5.113l2.755-0.181
				c-0.594,1.837-1.404,3.728-2.269,5.132L448.596,337.608z M449.568,328.209c0-0.973,0.648-1.657,1.603-1.657
				s1.585,0.667,1.603,1.657c0,0.936-0.631,1.638-1.603,1.638C450.217,329.847,449.551,329.145,449.568,328.209z"/>
		</g>
	</g>
</g>
<g id="Layer_1">
</g>
</svg>
