<?xml version="1.0" encoding="iso-8859-1"?>
<!-- Generator: Adobe Illustrator 18.0.0, SVG Export Plug-In . SVG Version: 6.00 Build 0)  -->
<!DOCTYPE svg PUBLIC "-//W3C//DTD SVG 1.1//EN" "http://www.w3.org/Graphics/SVG/1.1/DTD/svg11.dtd">
<svg version="1.1" xmlns="http://www.w3.org/2000/svg" xmlns:xlink="http://www.w3.org/1999/xlink" x="0px" y="0px"
	 viewBox="0 0 531.453 494.191" style="enable-background:new 0 0 531.453 494.191;" xml:space="preserve">
<g id="page13-2">
	<g>
		
			<polygon style="fill:none;stroke:#000000;stroke-width:3.6793;stroke-linecap:round;stroke-linejoin:round;stroke-miterlimit:10;" points="
			43.446,14.904 69.635,406.333 475.632,438.052 529.613,82.648 		"/>
		<polygon style="opacity:0.8;fill:#E92325;" points="100.919,49.06 83.146,447.249 518.153,405.508 454.366,31.542 		"/>
		<polygon style="fill:#03B9DB;" points="23.262,106.379 387.98,82.648 390.61,211.407 20.388,285.052 		"/>
		
			<polyline style="fill:none;stroke:#000000;stroke-width:3.6793;stroke-linecap:round;stroke-linejoin:round;stroke-miterlimit:10;" points="
			45.65,296.379 1.84,305.543 4.782,122.591 		"/>
		<g>
			<g>
				<g>
					
						<line style="fill:none;stroke:#000000;stroke-width:3.6793;stroke-linecap:round;stroke-linejoin:round;stroke-miterlimit:10;" x1="20.388" y1="335.586" x2="43.803" y2="335.586"/>
					
						<line style="fill:none;stroke:#000000;stroke-width:3.6793;stroke-linecap:round;stroke-linejoin:round;stroke-miterlimit:10;" x1="32.095" y1="323.878" x2="32.095" y2="347.293"/>
				</g>
				<g>
					
						<line style="fill:none;stroke:#000000;stroke-width:3.6793;stroke-linecap:round;stroke-linejoin:round;stroke-miterlimit:10;" x1="274.822" y1="453.476" x2="298.237" y2="453.476"/>
					
						<line style="fill:none;stroke:#000000;stroke-width:3.6793;stroke-linecap:round;stroke-linejoin:round;stroke-miterlimit:10;" x1="286.53" y1="441.769" x2="286.53" y2="465.184"/>
				</g>
				
					<path style="fill:none;stroke:#000000;stroke-width:3.6793;stroke-linecap:round;stroke-linejoin:round;stroke-miterlimit:10;" d="
					M503.274,13.043c8.685,13.564-5.72,27.969-19.284,19.284c-0.931-0.596-1.73-1.395-2.325-2.326
					c-8.681-13.563,5.721-27.965,19.283-19.283C501.879,11.313,502.678,12.112,503.274,13.043z"/>
				<g>
					
						<line style="fill:none;stroke:#000000;stroke-width:3.6793;stroke-linecap:round;stroke-linejoin:round;stroke-miterlimit:10;" x1="211.98" y1="1.84" x2="298.237" y2="1.84"/>
					
						<line style="fill:none;stroke:#000000;stroke-width:3.6793;stroke-linecap:round;stroke-linejoin:round;stroke-miterlimit:10;" x1="264.348" y1="21.523" x2="319.935" y2="21.523"/>
				</g>
				
					<path style="fill:none;stroke:#000000;stroke-width:3.6793;stroke-linecap:round;stroke-linejoin:round;stroke-miterlimit:10;" d="
					M216.304,470.431c8.681,13.563-5.721,27.965-19.283,19.283c-0.931-0.596-1.73-1.395-2.326-2.325
					c-8.685-13.564,5.72-27.969,19.284-19.284C214.91,468.702,215.709,469.501,216.304,470.431z"/>
			</g>
		</g>
		<g>
			<path style="fill:#FFFFFF;" d="M73.212,153.383c2.039-0.684,5.119-1.452,8.584-2.019c4.276-0.699,7.375-0.546,9.693,0.743
				c1.935,1.089,3.204,2.946,3.638,5.597c0.601,3.678-1.595,6.626-3.93,7.931l0.021,0.129c2.144,0.484,3.569,2.227,4.73,4.759
				c1.429,3.103,2.942,6.72,3.681,7.741l-6.672,1.091c-0.604-0.735-1.672-2.976-3.107-6.386c-1.357-3.466-2.759-4.248-5.418-3.856
				l-1.967,0.321l1.854,11.333l-6.458,1.056L73.212,153.383z M81.698,164.73l2.565-0.419c3.251-0.531,4.909-2.471,4.497-4.994
				c-0.434-2.651-2.446-3.684-5.447-3.237c-1.582,0.259-2.46,0.534-2.915,0.696L81.698,164.73z"/>
			<path style="fill:#FFFFFF;" d="M118.378,162.685l-10.605,1.734l1.118,6.843l11.847-1.937l0.874,5.347l-18.39,3.006l-4.712-28.825
				l17.792-2.908l0.873,5.346l-11.248,1.839l0.979,5.987l10.606-1.734L118.378,162.685z"/>
			<path style="fill:#FFFFFF;" d="M131.565,165.448l-0.843,7.735l-6.758,1.104l4.098-30.266l8.554-1.398l13.65,27.364l-7.014,1.146
				l-3.434-7.036L131.565,165.448z M138.081,159.377l-2.796-5.822c-0.792-1.627-1.654-3.682-2.362-5.323l-0.085,0.014
				c-0.148,1.781-0.22,4.031-0.418,5.777l-0.711,6.395L138.081,159.377z"/>
			<path style="fill:#FFFFFF;" d="M149.404,140.534l6.543-1.07l3.816,23.351l11.461-1.874l0.896,5.475l-18.005,2.943
				L149.404,140.534z"/>
			<path style="fill:#FFFFFF;" d="M177.8,135.892l4.712,28.825l-6.544,1.07l-4.711-28.825L177.8,135.892z"/>
			<path style="fill:#FFFFFF;" d="M185.745,160.587l10.499-22.002l-0.028-0.172l-12.445,2.034l-0.881-5.388l20.913-3.418
				l0.615,3.763l-10.241,21.697l0.028,0.172l13.643-2.23l0.881,5.389l-22.41,3.664L185.745,160.587z"/>
			<path style="fill:#FFFFFF;" d="M218.681,151.208l-0.844,7.735l-6.758,1.104l4.099-30.265l8.554-1.398l13.65,27.364l-7.014,1.146
				l-3.434-7.036L218.681,151.208z M225.197,145.137l-2.796-5.822c-0.793-1.627-1.655-3.682-2.363-5.322l-0.085,0.014
				c-0.148,1.781-0.219,4.031-0.417,5.777l-0.711,6.395L225.197,145.137z"/>
			<path style="fill:#FFFFFF;" d="M261.199,151.02c-1.063,0.744-3.439,1.791-6.683,2.365l-0.489,1.572
				c1.73,0.113,3.367,0.988,3.695,2.998c0.482,2.95-2.008,4.368-4.445,4.766c-1.283,0.21-2.736,0.185-3.812-0.211l0.421-2.792
				c0.698,0.237,1.725,0.334,2.494,0.208c0.855-0.14,1.49-0.552,1.371-1.278c-0.146-0.898-1.207-1.207-3.645-1.073l1.046-3.816
				c-8.301,0.26-13.394-4.836-14.603-12.234c-1.607-9.836,4.511-16.458,13.235-17.883c3.379-0.553,6.056-0.287,7.31,0.122
				l-0.48,5.393c-1.416-0.339-3.34-0.552-5.648-0.175c-5.176,0.846-8.685,4.625-7.637,11.041c0.944,5.774,4.96,8.849,10.776,7.898
				c1.968-0.322,4.079-1.105,5.278-1.828L261.199,151.02z"/>
			<path style="fill:#FFFFFF;" d="M271.541,142.566l-0.844,7.735l-6.757,1.104l4.099-30.265l8.553-1.398l13.65,27.364l-7.014,1.146
				l-3.434-7.036L271.541,142.566z M266.382,119.61c-0.715-3.572,0.353-5.634,2.406-5.97c1.154-0.188,1.986,0.071,2.877,0.409
				c0.754,0.316,1.458,0.596,2.014,0.505c0.728-0.119,0.914-0.589,0.854-2.027l2.908-0.476c0.758,3.827-0.237,5.527-2.505,5.898
				c-1.154,0.189-2.072-0.057-2.913-0.359c-0.79-0.266-1.365-0.567-1.921-0.476c-0.557,0.091-0.837,0.795-0.727,2.007
				L266.382,119.61z M278.057,136.496l-2.796-5.821c-0.793-1.627-1.656-3.682-2.363-5.323l-0.086,0.014
				c-0.147,1.781-0.219,4.032-0.416,5.777l-0.712,6.395L278.057,136.496z"/>
			<path style="fill:#FFFFFF;" d="M317.004,127.626c1.546,9.451-3.249,16.119-11.675,17.496
				c-8.553,1.398-14.612-4.241-15.954-12.452c-1.413-8.64,3.049-16,11.56-17.391C309.789,113.833,315.705,119.671,317.004,127.626z
				 M296.24,131.415c0.923,5.646,4.225,9.19,8.587,8.478c4.405-0.72,6.243-5.324,5.327-10.927c-0.846-5.175-4.054-9.217-8.544-8.483
				C297.205,121.203,295.324,125.813,296.24,131.415z"/>
			<path style="fill:#FFFFFF;" d="M34.599,212.389c2.332-0.777,5.42-1.501,8.713-2.04c5.475-0.895,9.185-0.491,12.308,1.149
				c3.356,1.735,5.819,4.978,6.651,10.066c0.901,5.517-0.486,9.652-2.882,12.459c-2.624,3.019-7.047,4.972-12.692,5.895
				c-3.379,0.552-5.809,0.73-7.469,0.782L34.599,212.389z M44.988,234.841c0.578,0.037,1.477-0.11,2.289-0.243
				c5.908-0.922,9.227-4.801,8.101-11.687c-0.937-5.995-4.96-8.586-10.563-7.67c-1.453,0.238-2.373,0.52-2.908,0.738L44.988,234.841
				z"/>
			<path style="fill:#FFFFFF;" d="M84.173,220.971l-10.607,1.734l1.119,6.843l11.847-1.937l0.874,5.346l-18.39,3.006l-4.712-28.825
				l17.791-2.908l0.873,5.346l-11.248,1.839l0.979,5.988l10.606-1.734L84.173,220.971z"/>
			<path style="fill:#FFFFFF;" d="M95.779,201.992l17.621-2.88l0.874,5.346l-11.077,1.811l1.077,6.587l10.35-1.692l0.866,5.303
				l-10.35,1.692l1.896,11.59l-6.544,1.07L95.779,201.992z"/>
			<path style="fill:#FFFFFF;" d="M147.013,208.107c1.545,9.452-3.249,16.12-11.674,17.497c-8.554,1.398-14.613-4.242-15.955-12.454
				c-1.412-8.638,3.049-15.999,11.559-17.39C139.796,194.313,145.712,200.152,147.013,208.107z M126.249,211.897
				c0.923,5.646,4.225,9.189,8.587,8.477c4.404-0.72,6.243-5.324,5.327-10.927c-0.847-5.175-4.054-9.217-8.544-8.482
				C127.213,201.685,125.333,206.294,126.249,211.897z"/>
			<path style="fill:#FFFFFF;" d="M174.732,217.847c-1.1,0.794-3.689,1.876-7.196,2.45c-9.965,1.629-16.111-3.733-17.453-11.945
				c-1.608-9.836,4.511-16.457,13.235-17.883c3.379-0.552,6.057-0.287,7.309,0.123l-0.479,5.392c-1.417-0.34-3.34-0.553-5.649-0.175
				c-5.175,0.846-8.685,4.626-7.636,11.041c0.943,5.773,4.959,8.85,10.775,7.899c1.968-0.322,4.078-1.107,5.277-1.831
				L174.732,217.847z"/>
			<path style="fill:#FFFFFF;" d="M180.929,188.073l2.713,16.594c0.812,4.961,3.105,7.177,6.441,6.631
				c3.421-0.559,4.911-3.262,4.08-8.351l-2.713-16.594l6.5-1.062l2.643,16.166c1.454,8.896-2.344,13.864-9.871,15.094
				c-7.271,1.188-12.204-2.133-13.707-11.329l-2.629-16.08L180.929,188.073z"/>
			<path style="fill:#FFFFFF;" d="M207.424,206.443c1.899,0.612,4.741,1.07,7.521,0.615c2.994-0.489,4.374-1.988,4.066-3.87
				c-0.294-1.796-1.83-2.599-5.497-3.272c-5.062-0.886-8.618-3.027-9.304-7.218c-0.803-4.918,2.688-9.353,9.487-10.464
				c3.251-0.531,5.757-0.238,7.594,0.252l-0.595,5.498c-1.245-0.367-3.431-0.844-6.254-0.382c-2.822,0.461-3.981,1.967-3.736,3.464
				c0.301,1.84,2.059,2.387,6.01,3.189c5.397,1.05,8.226,3.31,8.89,7.373c0.79,4.833-2.259,9.546-10.171,10.84
				c-3.294,0.539-6.684,0.214-8.456-0.418L207.424,206.443z"/>
			<path style="fill:#FFFFFF;" d="M263.903,202.743c-1.898,1.013-5.551,2.577-9.357,3.199c-5.261,0.86-9.283,0.156-12.354-1.976
				c-3.057-2.047-5.127-5.573-5.775-9.814c-1.523-9.586,4.553-16.2,14.004-17.745c3.721-0.608,6.705-0.351,8.229,0.104l-0.516,5.441
				c-1.695-0.426-3.752-0.66-6.918-0.143c-5.431,0.888-9.033,4.638-8.013,10.882c0.972,5.944,5.267,8.844,10.612,7.97
				c1.496-0.245,2.666-0.612,3.137-0.953l-0.985-6.03l-4.448,0.727l-0.832-5.089l10.736-1.755L263.903,202.743z"/>
			<path style="fill:#FFFFFF;" d="M264.559,174.798c2.04-0.685,5.12-1.453,8.585-2.019c4.276-0.699,7.375-0.546,9.693,0.743
				c1.934,1.089,3.204,2.945,3.637,5.597c0.602,3.678-1.594,6.628-3.928,7.932l0.021,0.128c2.143,0.484,3.569,2.227,4.729,4.76
				c1.43,3.102,2.943,6.719,3.681,7.741l-6.672,1.09c-0.603-0.736-1.672-2.976-3.107-6.386c-1.357-3.466-2.758-4.247-5.417-3.856
				l-1.967,0.322l1.853,11.333l-6.458,1.056L264.559,174.798z M273.044,186.144l2.566-0.419c3.25-0.531,4.909-2.471,4.497-4.993
				c-0.434-2.651-2.446-3.684-5.447-3.238c-1.583,0.259-2.46,0.534-2.916,0.696L273.044,186.144z"/>
			<path style="fill:#FFFFFF;" d="M318.38,180.094c1.545,9.452-3.248,16.119-11.674,17.497c-8.553,1.398-14.613-4.242-15.955-12.454
				c-1.412-8.638,3.049-15.999,11.56-17.39C311.165,166.3,317.08,172.139,318.38,180.094z M297.616,183.884
				c0.923,5.646,4.226,9.189,8.587,8.477c4.405-0.72,6.243-5.324,5.328-10.927c-0.847-5.175-4.054-9.216-8.545-8.482
				C298.582,173.671,296.7,178.281,297.616,183.884z"/>
			<path style="fill:#FFFFFF;" d="M326.851,164.219l2.713,16.594c0.811,4.961,3.104,7.177,6.44,6.631
				c3.421-0.559,4.911-3.262,4.08-8.351l-2.713-16.594l6.501-1.062l2.643,16.166c1.454,8.896-2.344,13.864-9.871,15.094
				c-7.271,1.188-12.205-2.133-13.707-11.329l-2.629-16.08L326.851,164.219z"/>
			<path style="fill:#FFFFFF;" d="M349.58,160.9c1.955-0.671,4.736-1.39,8.713-2.04c4.021-0.657,7.012-0.356,9.188,0.87
				c2.077,1.153,3.709,3.345,4.17,6.168c0.462,2.822-0.088,5.372-1.533,7.276c-1.881,2.459-5.021,3.938-8.869,4.568
				c-0.855,0.14-1.633,0.222-2.244,0.235l1.685,10.307l-6.459,1.056L349.58,160.9z M358.177,172.93
				c0.577,0.038,1.27-0.031,2.209-0.185c3.465-0.566,5.316-2.671,4.834-5.62c-0.434-2.652-2.531-3.934-5.781-3.402
				c-1.326,0.217-2.203,0.491-2.652,0.697L358.177,172.93z"/>
		</g>
		<g>
			<path style="fill:#FFFFFF;" d="M118.141,301.892c0.847-0.144,2.035-0.252,3.709-0.252c1.692,0,2.899,0.324,3.709,0.973
				c0.774,0.611,1.297,1.62,1.297,2.809s-0.396,2.196-1.116,2.881c-0.937,0.882-2.323,1.278-3.943,1.278
				c-0.36,0-0.685-0.019-0.937-0.054v4.339h-2.719V301.892z M120.86,307.402c0.234,0.054,0.522,0.072,0.918,0.072
				c1.459,0,2.359-0.738,2.359-1.98c0-1.117-0.774-1.783-2.143-1.783c-0.559,0-0.937,0.055-1.135,0.108V307.402z"/>
			<path style="fill:#FFFFFF;" d="M130.346,310.75l-0.864,3.115h-2.845l3.709-12.136h3.601l3.764,12.136h-2.953l-0.937-3.115
				H130.346z M133.425,308.698l-0.757-2.574c-0.216-0.721-0.432-1.62-0.612-2.341h-0.036c-0.18,0.721-0.359,1.639-0.558,2.341
				l-0.721,2.574H133.425z"/>
			<path style="fill:#FFFFFF;" d="M139.327,301.892c0.883-0.144,2.196-0.252,3.655-0.252c1.801,0,3.061,0.27,3.925,0.954
				c0.721,0.576,1.116,1.423,1.116,2.539c0,1.548-1.098,2.61-2.143,2.988v0.055c0.847,0.342,1.314,1.152,1.621,2.269
				c0.378,1.368,0.756,2.953,0.99,3.421h-2.809c-0.198-0.342-0.486-1.332-0.847-2.827c-0.324-1.512-0.847-1.926-1.963-1.944h-0.828
				v4.771h-2.719V301.892z M142.045,307.114h1.08c1.369,0,2.179-0.685,2.179-1.747c0-1.116-0.756-1.674-2.017-1.692
				c-0.666,0-1.044,0.055-1.242,0.091V307.114z"/>
			<path style="fill:#FFFFFF;" d="M152.99,310.75l-0.864,3.115h-2.845l3.709-12.136h3.601l3.764,12.136h-2.953l-0.937-3.115H152.99z
				 M156.069,308.698l-0.757-2.574c-0.216-0.721-0.432-1.62-0.612-2.341h-0.036c-0.18,0.721-0.359,1.639-0.558,2.341l-0.721,2.574
				H156.069z"/>
			<path style="fill:#FFFFFF;" d="M165.606,301.892c0.883-0.144,2.196-0.252,3.655-0.252c1.801,0,3.061,0.27,3.925,0.954
				c0.721,0.576,1.116,1.423,1.116,2.539c0,1.548-1.098,2.61-2.143,2.988v0.055c0.847,0.342,1.314,1.152,1.621,2.269
				c0.378,1.368,0.756,2.953,0.99,3.421h-2.809c-0.198-0.342-0.486-1.332-0.847-2.827c-0.324-1.512-0.847-1.926-1.963-1.944h-0.828
				v4.771h-2.719V301.892z M168.325,307.114h1.08c1.369,0,2.179-0.685,2.179-1.747c0-1.116-0.756-1.674-2.017-1.692
				c-0.666,0-1.044,0.055-1.242,0.091V307.114z"/>
			<path style="fill:#FFFFFF;" d="M183.5,308.734h-4.466v2.881h4.987v2.251h-7.742V301.73h7.49v2.251h-4.735v2.521h4.466V308.734z"
				/>
			<path style="fill:#FFFFFF;" d="M188.718,310.75l-0.864,3.115h-2.845l3.709-12.136h3.602l3.763,12.136h-2.953l-0.936-3.115
				H188.718z M191.797,308.698l-0.756-2.574c-0.217-0.721-0.433-1.62-0.612-2.341h-0.036c-0.18,0.721-0.36,1.639-0.559,2.341
				l-0.72,2.574H191.797z"/>
			<path style="fill:#FFFFFF;" d="M197.7,301.73h2.755v9.831h4.825v2.305h-7.58V301.73z"/>
			<path style="fill:#FFFFFF;" d="M209.652,301.73v12.136h-2.755V301.73H209.652z"/>
			<path style="fill:#FFFFFF;" d="M211.252,312.389l5.78-8.318v-0.072h-5.24v-2.269h8.805v1.585l-5.653,8.21v0.072h5.744v2.269
				h-9.436V312.389z"/>
			<path style="fill:#FFFFFF;" d="M225.383,310.75l-0.864,3.115h-2.845l3.709-12.136h3.601l3.764,12.136h-2.953l-0.937-3.115
				H225.383z M228.462,308.698l-0.757-2.574c-0.216-0.721-0.432-1.62-0.612-2.341h-0.036c-0.18,0.721-0.359,1.639-0.558,2.341
				l-0.721,2.574H228.462z"/>
			<path style="fill:#FFFFFF;" d="M234.364,301.892c0.883-0.144,2.196-0.252,3.655-0.252c1.801,0,3.061,0.27,3.925,0.954
				c0.721,0.576,1.116,1.423,1.116,2.539c0,1.548-1.098,2.61-2.143,2.988v0.055c0.847,0.342,1.314,1.152,1.621,2.269
				c0.378,1.368,0.756,2.953,0.99,3.421h-2.809c-0.198-0.342-0.486-1.332-0.847-2.827c-0.324-1.512-0.847-1.926-1.963-1.944h-0.828
				v4.771h-2.719V301.892z M237.083,307.114h1.08c1.369,0,2.179-0.685,2.179-1.747c0-1.116-0.756-1.674-2.017-1.692
				c-0.666,0-1.044,0.055-1.242,0.091V307.114z"/>
			<path style="fill:#FFFFFF;" d="M251.5,310.75l-0.864,3.115h-2.845l3.709-12.136h3.601l3.764,12.136h-2.953l-0.937-3.115H251.5z
				 M254.58,308.698l-0.757-2.574c-0.216-0.721-0.432-1.62-0.612-2.341h-0.036c-0.18,0.721-0.359,1.639-0.558,2.341l-0.721,2.574
				H254.58z"/>
			<path style="fill:#FFFFFF;" d="M271.337,308.734h-4.466v2.881h4.987v2.251h-7.742V301.73h7.49v2.251h-4.735v2.521h4.466V308.734z
				"/>
			<path style="fill:#FFFFFF;" d="M273.819,311.039c0.738,0.379,1.872,0.757,3.043,0.757c1.26,0,1.927-0.522,1.927-1.314
				c0-0.757-0.576-1.188-2.035-1.711c-2.017-0.702-3.331-1.818-3.331-3.583c0-2.07,1.729-3.655,4.592-3.655
				c1.368,0,2.376,0.288,3.097,0.612l-0.612,2.215c-0.486-0.234-1.351-0.576-2.539-0.576c-1.188,0-1.764,0.54-1.764,1.17
				c0,0.774,0.684,1.117,2.25,1.711c2.143,0.792,3.151,1.908,3.151,3.619c0,2.034-1.566,3.763-4.897,3.763
				c-1.387,0-2.755-0.359-3.439-0.738L273.819,311.039z"/>
			<path style="fill:#FFFFFF;" d="M292.361,313.524c-0.504,0.252-1.639,0.521-3.115,0.521c-4.194,0-6.355-2.61-6.355-6.067
				c0-4.142,2.953-6.446,6.626-6.446c1.423,0,2.503,0.288,2.989,0.54l-0.559,2.179c-0.558-0.233-1.332-0.45-2.305-0.45
				c-2.179,0-3.871,1.314-3.871,4.016c0,2.431,1.44,3.961,3.89,3.961c0.828,0,1.746-0.18,2.286-0.396L292.361,313.524z"/>
			<path style="fill:#FFFFFF;" d="M296.895,301.73v6.986c0,2.089,0.792,3.15,2.196,3.15c1.44,0,2.233-1.008,2.233-3.15v-6.986h2.736
				v6.807c0,3.744-1.891,5.527-5.06,5.527c-3.061,0-4.861-1.692-4.861-5.563v-6.771H296.895z"/>
			<path style="fill:#FFFFFF;" d="M308.775,304.035h-3.259v-2.305h9.326v2.305h-3.312v9.831h-2.755V304.035z"/>
			<path style="fill:#FFFFFF;" d="M317.829,310.75l-0.864,3.115h-2.845l3.709-12.136h3.602l3.763,12.136h-2.953l-0.936-3.115
				H317.829z M320.908,308.698l-0.756-2.574c-0.217-0.721-0.433-1.62-0.612-2.341h-0.036c-0.18,0.721-0.36,1.639-0.559,2.341
				l-0.72,2.574H320.908z"/>
			<path style="fill:#FFFFFF;" d="M333.272,310.75l-0.864,3.115h-2.845l3.709-12.136h3.602l3.763,12.136h-2.953l-0.936-3.115
				H333.272z M336.351,308.698l-0.756-2.574c-0.217-0.721-0.433-1.62-0.612-2.341h-0.036c-0.18,0.721-0.36,1.639-0.559,2.341
				l-0.72,2.574H336.351z"/>
			<path style="fill:#FFFFFF;" d="M343.1,304.035h-3.259v-2.305h9.326v2.305h-3.312v9.831H343.1V304.035z"/>
			<path style="fill:#FFFFFF;" d="M353.378,301.73v12.136h-2.755V301.73H353.378z"/>
			<path style="fill:#FFFFFF;" d="M358.616,313.866l-3.889-12.136h3.007l1.477,5.132c0.414,1.44,0.792,2.827,1.08,4.339h0.054
				c0.307-1.458,0.685-2.898,1.099-4.285l1.548-5.186h2.917l-4.087,12.136H358.616z"/>
			<path style="fill:#FFFFFF;" d="M369.056,310.75l-0.864,3.115h-2.845l3.709-12.136h3.601l3.764,12.136h-2.953l-0.937-3.115
				H369.056z M372.135,308.698l-0.757-2.574c-0.216-0.721-0.432-1.62-0.612-2.341h-0.036c-0.18,0.721-0.359,1.639-0.558,2.341
				l-0.721,2.574H372.135z"/>
			<path style="fill:#FFFFFF;" d="M381.672,301.892c1.009-0.162,2.323-0.252,3.709-0.252c2.305,0,3.8,0.414,4.97,1.296
				c1.261,0.937,2.053,2.431,2.053,4.574c0,2.322-0.847,3.925-2.017,4.915c-1.278,1.062-3.223,1.566-5.6,1.566
				c-1.423,0-2.431-0.09-3.115-0.18V301.892z M384.427,311.795c0.234,0.054,0.612,0.054,0.954,0.054
				c2.485,0.018,4.105-1.351,4.105-4.249c0.018-2.521-1.458-3.854-3.817-3.854c-0.612,0-1.008,0.054-1.242,0.108V311.795z"/>
			<path style="fill:#FFFFFF;" d="M396.739,310.75l-0.864,3.115h-2.845l3.709-12.136h3.602l3.763,12.136h-2.953l-0.936-3.115
				H396.739z M399.818,308.698l-0.756-2.574c-0.217-0.721-0.433-1.62-0.612-2.341h-0.036c-0.18,0.721-0.36,1.639-0.559,2.341
				l-0.72,2.574H399.818z"/>
			<path style="fill:#FFFFFF;" d="M405.81,311.039c0.738,0.379,1.872,0.757,3.043,0.757c1.26,0,1.927-0.522,1.927-1.314
				c0-0.757-0.576-1.188-2.035-1.711c-2.017-0.702-3.331-1.818-3.331-3.583c0-2.07,1.729-3.655,4.592-3.655
				c1.368,0,2.376,0.288,3.097,0.612l-0.612,2.215c-0.486-0.234-1.351-0.576-2.539-0.576c-1.188,0-1.764,0.54-1.764,1.17
				c0,0.774,0.684,1.117,2.25,1.711c2.143,0.792,3.151,1.908,3.151,3.619c0,2.034-1.566,3.763-4.897,3.763
				c-1.387,0-2.755-0.359-3.439-0.738L405.81,311.039z"/>
			<path style="fill:#FFFFFF;" d="M118.141,335.465V323.33h3.205l2.521,4.447c0.721,1.278,1.44,2.791,1.98,4.159h0.055
				c-0.181-1.603-0.234-3.241-0.234-5.06v-3.547h2.521v12.136h-2.881l-2.593-4.682c-0.72-1.296-1.513-2.862-2.106-4.285
				l-0.054,0.019c0.071,1.602,0.107,3.312,0.107,5.293v3.655H118.141z"/>
			<path style="fill:#FFFFFF;" d="M137.782,330.333h-4.466v2.881h4.987v2.251h-7.742V323.33h7.49v2.251h-4.735v2.521h4.466V330.333z
				"/>
			<path style="fill:#FFFFFF;" d="M149.085,335.124c-0.504,0.252-1.639,0.521-3.115,0.521c-4.194,0-6.355-2.61-6.355-6.067
				c0-4.142,2.953-6.446,6.626-6.446c1.423,0,2.503,0.288,2.989,0.54l-0.559,2.179c-0.558-0.233-1.332-0.45-2.305-0.45
				c-2.179,0-3.871,1.314-3.871,4.016c0,2.431,1.44,3.961,3.89,3.961c0.828,0,1.746-0.18,2.286-0.396L149.085,335.124z"/>
			<path style="fill:#FFFFFF;" d="M158.103,330.333h-4.465v2.881h4.987v2.251h-7.742V323.33h7.49v2.251h-4.735v2.521h4.465V330.333z
				"/>
			<path style="fill:#FFFFFF;" d="M160.584,332.638c0.738,0.379,1.873,0.757,3.043,0.757c1.261,0,1.927-0.522,1.927-1.314
				c0-0.757-0.576-1.188-2.034-1.711c-2.017-0.702-3.331-1.818-3.331-3.583c0-2.07,1.729-3.655,4.591-3.655
				c1.368,0,2.377,0.288,3.097,0.612l-0.611,2.215c-0.486-0.234-1.351-0.576-2.539-0.576s-1.765,0.54-1.765,1.17
				c0,0.774,0.685,1.117,2.251,1.711c2.143,0.792,3.15,1.908,3.15,3.619c0,2.034-1.566,3.763-4.897,3.763
				c-1.386,0-2.755-0.359-3.438-0.738L160.584,332.638z"/>
			<path style="fill:#FFFFFF;" d="M170.304,332.638c0.738,0.379,1.873,0.757,3.043,0.757c1.261,0,1.927-0.522,1.927-1.314
				c0-0.757-0.576-1.188-2.034-1.711c-2.017-0.702-3.331-1.818-3.331-3.583c0-2.07,1.729-3.655,4.591-3.655
				c1.368,0,2.377,0.288,3.097,0.612l-0.611,2.215c-0.486-0.234-1.351-0.576-2.539-0.576s-1.765,0.54-1.765,1.17
				c0,0.774,0.685,1.117,2.251,1.711c2.143,0.792,3.15,1.908,3.15,3.619c0,2.034-1.566,3.763-4.897,3.763
				c-1.386,0-2.755-0.359-3.438-0.738L170.304,332.638z"/>
			<path style="fill:#FFFFFF;" d="M182.689,323.33v12.136h-2.755V323.33H182.689z"/>
			<path style="fill:#FFFFFF;" d="M185.064,323.492c1.009-0.162,2.323-0.252,3.709-0.252c2.305,0,3.8,0.414,4.97,1.296
				c1.261,0.937,2.053,2.431,2.053,4.574c0,2.322-0.847,3.925-2.017,4.915c-1.278,1.062-3.223,1.566-5.6,1.566
				c-1.423,0-2.431-0.09-3.115-0.18V323.492z M187.819,333.395c0.234,0.054,0.612,0.054,0.954,0.054
				c2.485,0.018,4.105-1.351,4.105-4.249c0.018-2.521-1.458-3.854-3.817-3.854c-0.612,0-1.008,0.054-1.242,0.108V333.395z"/>
			<path style="fill:#FFFFFF;" d="M200.131,332.35l-0.864,3.115h-2.845l3.709-12.136h3.601l3.764,12.136h-2.953l-0.937-3.115
				H200.131z M203.21,330.297l-0.757-2.574c-0.216-0.721-0.432-1.62-0.612-2.341h-0.036c-0.18,0.721-0.359,1.639-0.558,2.341
				l-0.721,2.574H203.21z"/>
			<path style="fill:#FFFFFF;" d="M209.112,323.492c1.009-0.162,2.323-0.252,3.709-0.252c2.305,0,3.8,0.414,4.97,1.296
				c1.261,0.937,2.053,2.431,2.053,4.574c0,2.322-0.847,3.925-2.017,4.915c-1.278,1.062-3.223,1.566-5.6,1.566
				c-1.423,0-2.431-0.09-3.115-0.18V323.492z M211.867,333.395c0.234,0.054,0.612,0.054,0.954,0.054
				c2.485,0.018,4.105-1.351,4.105-4.249c0.018-2.521-1.458-3.854-3.817-3.854c-0.612,0-1.008,0.054-1.242,0.108V333.395z"/>
			<path style="fill:#FFFFFF;" d="M228.86,330.333h-4.466v2.881h4.987v2.251h-7.742V323.33h7.49v2.251h-4.735v2.521h4.466V330.333z"
				/>
			<path style="fill:#FFFFFF;" d="M231.341,332.638c0.738,0.379,1.873,0.757,3.043,0.757c1.261,0,1.927-0.522,1.927-1.314
				c0-0.757-0.576-1.188-2.034-1.711c-2.017-0.702-3.331-1.818-3.331-3.583c0-2.07,1.729-3.655,4.591-3.655
				c1.368,0,2.377,0.288,3.097,0.612l-0.611,2.215c-0.486-0.234-1.351-0.576-2.539-0.576s-1.765,0.54-1.765,1.17
				c0,0.774,0.685,1.117,2.251,1.711c2.143,0.792,3.15,1.908,3.15,3.619c0,2.034-1.566,3.763-4.897,3.763
				c-1.386,0-2.755-0.359-3.438-0.738L231.341,332.638z"/>
			<path style="fill:#FFFFFF;" d="M251.828,330.333h-4.466v2.881h4.987v2.251h-7.742V323.33h7.49v2.251h-4.735v2.521h4.466V330.333z
				"/>
			<path style="fill:#FFFFFF;" d="M257.854,323.492c1.009-0.162,2.323-0.252,3.709-0.252c2.305,0,3.8,0.414,4.97,1.296
				c1.261,0.937,2.053,2.431,2.053,4.574c0,2.322-0.847,3.925-2.017,4.915c-1.278,1.062-3.223,1.566-5.6,1.566
				c-1.423,0-2.431-0.09-3.115-0.18V323.492z M260.609,333.395c0.234,0.054,0.612,0.054,0.954,0.054
				c2.485,0.018,4.105-1.351,4.105-4.249c0.018-2.521-1.458-3.854-3.817-3.854c-0.612,0-1.008,0.054-1.242,0.108V333.395z"/>
			<path style="fill:#FFFFFF;" d="M277.603,330.333h-4.466v2.881h4.987v2.251h-7.742V323.33h7.49v2.251h-4.735v2.521h4.466V330.333z
				"/>
			<path style="fill:#FFFFFF;" d="M280.083,332.638c0.738,0.379,1.873,0.757,3.043,0.757c1.261,0,1.927-0.522,1.927-1.314
				c0-0.757-0.576-1.188-2.034-1.711c-2.017-0.702-3.331-1.818-3.331-3.583c0-2.07,1.729-3.655,4.591-3.655
				c1.368,0,2.377,0.288,3.097,0.612l-0.611,2.215c-0.486-0.234-1.351-0.576-2.539-0.576s-1.765,0.54-1.765,1.17
				c0,0.774,0.685,1.117,2.251,1.711c2.143,0.792,3.15,1.908,3.15,3.619c0,2.034-1.566,3.763-4.897,3.763
				c-1.386,0-2.755-0.359-3.438-0.738L280.083,332.638z"/>
			<path style="fill:#FFFFFF;" d="M296.934,330.333h-4.466v2.881h4.987v2.251h-7.742V323.33h7.49v2.251h-4.735v2.521h4.466V330.333z
				"/>
			<path style="fill:#FFFFFF;" d="M302.098,323.33h2.736V331c0,3.457-1.656,4.664-4.321,4.664c-0.63,0-1.458-0.108-1.998-0.288
				l0.306-2.215c0.378,0.126,0.864,0.216,1.404,0.216c1.152,0,1.873-0.521,1.873-2.412V323.33z"/>
			<path style="fill:#FFFFFF;" d="M318.229,329.271c0,3.979-2.413,6.393-5.96,6.393c-3.602,0-5.708-2.719-5.708-6.176
				c0-3.638,2.322-6.356,5.906-6.356C316.194,323.131,318.229,325.922,318.229,329.271z M309.459,329.433
				c0,2.377,1.117,4.052,2.953,4.052c1.854,0,2.917-1.765,2.917-4.123c0-2.179-1.044-4.052-2.935-4.052
				C310.541,325.31,309.459,327.075,309.459,329.433z"/>
			<path style="fill:#FFFFFF;" d="M320.115,332.638c0.738,0.379,1.873,0.757,3.043,0.757c1.261,0,1.927-0.522,1.927-1.314
				c0-0.757-0.576-1.188-2.034-1.711c-2.017-0.702-3.331-1.818-3.331-3.583c0-2.07,1.729-3.655,4.591-3.655
				c1.368,0,2.377,0.288,3.097,0.612l-0.611,2.215c-0.486-0.234-1.351-0.576-2.539-0.576s-1.765,0.54-1.765,1.17
				c0,0.774,0.685,1.117,2.251,1.711c2.143,0.792,3.15,1.908,3.15,3.619c0,2.034-1.566,3.763-4.897,3.763
				c-1.386,0-2.755-0.359-3.438-0.738L320.115,332.638z"/>
			<path style="fill:#FFFFFF;" d="M333.38,323.492c1.009-0.162,2.323-0.252,3.709-0.252c2.305,0,3.8,0.414,4.97,1.296
				c1.261,0.937,2.053,2.431,2.053,4.574c0,2.322-0.847,3.925-2.017,4.915c-1.278,1.062-3.223,1.566-5.6,1.566
				c-1.423,0-2.431-0.09-3.115-0.18V323.492z M336.135,333.395c0.234,0.054,0.612,0.054,0.954,0.054
				c2.485,0.018,4.105-1.351,4.105-4.249c0.018-2.521-1.458-3.854-3.817-3.854c-0.612,0-1.008,0.054-1.242,0.108V333.395z"/>
			<path style="fill:#FFFFFF;" d="M357.018,329.271c0,3.979-2.413,6.393-5.96,6.393c-3.602,0-5.708-2.719-5.708-6.176
				c0-3.638,2.322-6.356,5.906-6.356C354.983,323.131,357.018,325.922,357.018,329.271z M348.249,329.433
				c0,2.377,1.117,4.052,2.953,4.052c1.854,0,2.917-1.765,2.917-4.123c0-2.179-1.044-4.052-2.935-4.052
				C349.33,325.31,348.249,327.075,348.249,329.433z"/>
			<path style="fill:#FFFFFF;" d="M358.904,332.638c0.738,0.379,1.873,0.757,3.043,0.757c1.261,0,1.927-0.522,1.927-1.314
				c0-0.757-0.576-1.188-2.034-1.711c-2.017-0.702-3.331-1.818-3.331-3.583c0-2.07,1.729-3.655,4.591-3.655
				c1.368,0,2.377,0.288,3.097,0.612l-0.611,2.215c-0.486-0.234-1.351-0.576-2.539-0.576s-1.765,0.54-1.765,1.17
				c0,0.774,0.685,1.117,2.251,1.711c2.143,0.792,3.15,1.908,3.15,3.619c0,2.034-1.566,3.763-4.897,3.763
				c-1.386,0-2.755-0.359-3.438-0.738L358.904,332.638z"/>
			<path style="fill:#FFFFFF;" d="M381.083,335.124c-0.505,0.252-1.639,0.521-3.115,0.521c-4.195,0-6.355-2.61-6.355-6.067
				c0-4.142,2.952-6.446,6.626-6.446c1.422,0,2.502,0.288,2.988,0.54l-0.558,2.179c-0.559-0.233-1.333-0.45-2.305-0.45
				c-2.179,0-3.871,1.314-3.871,4.016c0,2.431,1.44,3.961,3.889,3.961c0.828,0,1.746-0.18,2.287-0.396L381.083,335.124z"/>
			<path style="fill:#FFFFFF;" d="M382.879,323.33h2.755v9.831h4.825v2.305h-7.58V323.33z"/>
			<path style="fill:#FFFFFF;" d="M394.833,323.33v12.136h-2.755V323.33H394.833z"/>
			<path style="fill:#FFFFFF;" d="M404.427,330.333h-4.465v2.881h4.987v2.251h-7.742V323.33h7.49v2.251h-4.735v2.521h4.465V330.333z
				"/>
			<path style="fill:#FFFFFF;" d="M406.819,335.465V323.33h3.205l2.521,4.447c0.721,1.278,1.44,2.791,1.98,4.159h0.055
				c-0.181-1.603-0.234-3.241-0.234-5.06v-3.547h2.521v12.136h-2.881l-2.593-4.682c-0.72-1.296-1.513-2.862-2.106-4.285
				l-0.054,0.019c0.071,1.602,0.107,3.312,0.107,5.293v3.655H406.819z"/>
			<path style="fill:#FFFFFF;" d="M421.58,325.634h-3.259v-2.305h9.326v2.305h-3.312v9.831h-2.755V325.634z"/>
			<path style="fill:#FFFFFF;" d="M436.323,330.333h-4.465v2.881h4.987v2.251h-7.742V323.33h7.49v2.251h-4.735v2.521h4.465V330.333z
				"/>
			<path style="fill:#FFFFFF;" d="M438.804,332.638c0.738,0.379,1.873,0.757,3.043,0.757c1.261,0,1.927-0.522,1.927-1.314
				c0-0.757-0.576-1.188-2.034-1.711c-2.017-0.702-3.331-1.818-3.331-3.583c0-2.07,1.729-3.655,4.591-3.655
				c1.368,0,2.377,0.288,3.097,0.612l-0.611,2.215c-0.486-0.234-1.351-0.576-2.539-0.576s-1.765,0.54-1.765,1.17
				c0,0.774,0.685,1.117,2.251,1.711c2.143,0.792,3.15,1.908,3.15,3.619c0,2.034-1.566,3.763-4.897,3.763
				c-1.386,0-2.755-0.359-3.438-0.738L438.804,332.638z"/>
		</g>
	</g>
</g>
<g id="Layer_1">
</g>
</svg>
