<?xml version="1.0" encoding="iso-8859-1"?>
<!-- Generator: Adobe Illustrator 18.0.0, SVG Export Plug-In . SVG Version: 6.00 Build 0)  -->
<!DOCTYPE svg PUBLIC "-//W3C//DTD SVG 1.1//EN" "http://www.w3.org/Graphics/SVG/1.1/DTD/svg11.dtd">
<svg version="1.1" xmlns="http://www.w3.org/2000/svg" xmlns:xlink="http://www.w3.org/1999/xlink" x="0px" y="0px"
	 viewBox="0 0 531.453 494.191" style="enable-background:new 0 0 531.453 494.191;" xml:space="preserve">
<g id="page13-4">
	
		<polygon style="fill:none;stroke:#000000;stroke-width:3.6793;stroke-linecap:round;stroke-linejoin:round;stroke-miterlimit:10;" points="
		43.446,14.904 69.635,406.333 475.632,438.052 529.613,82.648 	"/>
	<polygon style="opacity:0.8;fill:#E92325;" points="100.919,49.06 83.146,447.249 518.153,405.508 454.366,31.542 	"/>
	<polygon style="fill:#03B9DB;" points="23.262,106.379 387.98,82.648 390.61,211.407 20.388,285.052 	"/>
	
		<polyline style="fill:none;stroke:#000000;stroke-width:3.6793;stroke-linecap:round;stroke-linejoin:round;stroke-miterlimit:10;" points="
		45.65,296.379 1.84,305.543 4.782,122.591 	"/>
	<g>
		<g>
			<g>
				
					<line style="fill:none;stroke:#000000;stroke-width:3.6793;stroke-linecap:round;stroke-linejoin:round;stroke-miterlimit:10;" x1="20.388" y1="335.586" x2="43.803" y2="335.586"/>
				
					<line style="fill:none;stroke:#000000;stroke-width:3.6793;stroke-linecap:round;stroke-linejoin:round;stroke-miterlimit:10;" x1="32.095" y1="323.878" x2="32.095" y2="347.293"/>
			</g>
			<g>
				
					<line style="fill:none;stroke:#000000;stroke-width:3.6793;stroke-linecap:round;stroke-linejoin:round;stroke-miterlimit:10;" x1="274.822" y1="453.476" x2="298.237" y2="453.476"/>
				
					<line style="fill:none;stroke:#000000;stroke-width:3.6793;stroke-linecap:round;stroke-linejoin:round;stroke-miterlimit:10;" x1="286.53" y1="441.769" x2="286.53" y2="465.184"/>
			</g>
			
				<path style="fill:none;stroke:#000000;stroke-width:3.6793;stroke-linecap:round;stroke-linejoin:round;stroke-miterlimit:10;" d="
				M503.274,13.043c8.685,13.564-5.72,27.969-19.284,19.284c-0.931-0.596-1.73-1.395-2.325-2.326
				c-8.681-13.563,5.721-27.965,19.283-19.283C501.879,11.313,502.678,12.112,503.274,13.043z"/>
			<g>
				
					<line style="fill:none;stroke:#000000;stroke-width:3.6793;stroke-linecap:round;stroke-linejoin:round;stroke-miterlimit:10;" x1="211.98" y1="1.84" x2="298.237" y2="1.84"/>
				
					<line style="fill:none;stroke:#000000;stroke-width:3.6793;stroke-linecap:round;stroke-linejoin:round;stroke-miterlimit:10;" x1="264.348" y1="21.523" x2="319.935" y2="21.523"/>
			</g>
			
				<path style="fill:none;stroke:#000000;stroke-width:3.6793;stroke-linecap:round;stroke-linejoin:round;stroke-miterlimit:10;" d="
				M216.304,470.431c8.681,13.563-5.721,27.965-19.283,19.283c-0.931-0.596-1.73-1.395-2.326-2.325
				c-8.685-13.564,5.72-27.969,19.284-19.284C214.91,468.702,215.709,469.501,216.304,470.431z"/>
		</g>
	</g>
	<g>
		<path style="fill:#FFFFFF;" d="M76.042,160.439l-2.841-15.926l4.206-0.75l4.349,5.246c1.244,1.509,2.544,3.326,3.573,4.995
			l0.071-0.013c-0.611-2.061-1.066-4.198-1.492-6.585l-0.83-4.654l3.308-0.59l2.841,15.926l-3.78,0.674l-4.498-5.537
			c-1.249-1.533-2.655-3.402-3.769-5.13l-0.066,0.037c0.47,2.086,0.918,4.322,1.381,6.921l0.856,4.797L76.042,160.439z"/>
		<path style="fill:#FFFFFF;" d="M100.618,149.105l-5.86,1.045l0.675,3.78l6.545-1.167l0.527,2.954l-10.161,1.812l-2.841-15.926
			l9.829-1.754l0.527,2.953l-6.215,1.109l0.591,3.308l5.86-1.045L100.618,149.105z"/>
		<path style="fill:#FFFFFF;" d="M105.849,141.808l-4.277,0.763l-0.539-3.024l12.239-2.184l0.54,3.024l-4.348,0.776l2.302,12.901
			l-3.615,0.645L105.849,141.808z"/>
		<path style="fill:#FFFFFF;" d="M119.995,136.383c1.077-0.387,2.611-0.807,4.81-1.199c2.221-0.396,3.88-0.254,5.095,0.407
			c1.159,0.623,2.08,1.824,2.358,3.383s-0.005,2.975-0.79,4.042c-1.022,1.376-2.749,2.222-4.876,2.601
			c-0.473,0.084-0.901,0.137-1.241,0.148l1.017,5.694l-3.568,0.637L119.995,136.383z M124.854,142.977
			c0.32,0.016,0.702-0.028,1.222-0.121c1.914-0.341,2.923-1.521,2.632-3.152c-0.262-1.464-1.434-2.158-3.229-1.837
			c-0.733,0.13-1.217,0.29-1.464,0.407L124.854,142.977z"/>
		<path style="fill:#FFFFFF;" d="M133.723,133.934c1.124-0.396,2.823-0.845,4.737-1.187c2.363-0.422,4.08-0.363,5.374,0.333
			c1.08,0.587,1.799,1.605,2.061,3.07c0.362,2.033-0.83,3.684-2.112,4.425l0.013,0.071c1.19,0.251,1.994,1.204,2.657,2.598
			c0.817,1.707,1.685,3.698,2.101,4.258l-3.687,0.658c-0.339-0.403-0.949-1.635-1.772-3.512c-0.779-1.909-1.561-2.33-3.03-2.092
			l-1.087,0.194l1.117,6.262l-3.568,0.636L133.723,133.934z M138.514,140.15l1.417-0.253c1.796-0.321,2.698-1.408,2.45-2.802
			c-0.262-1.464-1.385-2.02-3.043-1.749c-0.874,0.156-1.357,0.315-1.609,0.409L138.514,140.15z"/>
		<path style="fill:#FFFFFF;" d="M163.571,136.435c0.932,5.222-1.67,8.953-6.325,9.784c-4.726,0.843-8.127-2.231-8.936-6.769
			c-0.852-4.772,1.56-8.885,6.262-9.724C159.464,128.854,162.787,132.04,163.571,136.435z M152.103,138.701
			c0.556,3.119,2.413,5.055,4.823,4.625c2.434-0.434,3.414-2.998,2.862-6.094c-0.511-2.859-2.318-5.072-4.8-4.629
			C152.555,133.037,151.55,135.605,152.103,138.701z"/>
		<path style="fill:#FFFFFF;" d="M179.764,135.643c-0.413-1.901-0.896-4.204-1.31-6.52l-0.071,0.013
			c-0.133,2.121-0.391,4.507-0.672,6.483l-0.829,6.56l-2.812,0.502l-2.801-5.863c-0.854-1.774-1.802-3.946-2.551-5.958l-0.047,0.008
			c0.289,2.167,0.657,4.638,0.893,6.643l0.796,6.1l-3.332,0.594l-1.825-16.107l4.796-0.856l2.509,5.038
			c0.825,1.754,1.675,3.651,2.363,5.455l0.07-0.013c0.12-1.924,0.289-4.124,0.492-5.988l0.757-5.597l4.702-0.839l3.716,15.77
			l-3.521,0.628L179.764,135.643z"/>
		<path style="fill:#FFFFFF;" d="M200.5,129.846c0.932,5.222-1.67,8.953-6.325,9.784c-4.726,0.843-8.127-2.231-8.937-6.769
			c-0.852-4.772,1.561-8.885,6.263-9.724C196.392,122.265,199.716,125.451,200.5,129.846z M189.03,132.112
			c0.557,3.119,2.413,5.055,4.823,4.625c2.434-0.434,3.416-2.999,2.863-6.094c-0.51-2.859-2.319-5.072-4.801-4.629
			C189.482,126.448,188.479,129.017,189.03,132.112z"/>
		<path style="fill:#FFFFFF;" d="M204.419,124.222l-4.276,0.763l-0.54-3.024l12.24-2.184l0.539,3.024l-4.348,0.775l2.302,12.901
			l-3.615,0.646L204.419,124.222z"/>
		<path style="fill:#FFFFFF;" d="M224.871,126.937l-5.86,1.045l0.675,3.78l6.545-1.168l0.527,2.954l-10.161,1.813l-2.841-15.926
			l9.829-1.753l0.527,2.953l-6.215,1.108l0.591,3.308l5.859-1.045L224.871,126.937z"/>
		<path style="fill:#FFFFFF;" d="M226.41,117.397c1.123-0.396,2.823-0.845,4.737-1.187c2.363-0.421,4.08-0.362,5.374,0.333
			c1.08,0.588,1.799,1.606,2.061,3.07c0.362,2.033-0.831,3.684-2.113,4.425l0.013,0.07c1.191,0.251,1.995,1.205,2.658,2.598
			c0.817,1.708,1.685,3.699,2.101,4.258l-3.687,0.658c-0.34-0.403-0.949-1.636-1.772-3.512c-0.779-1.909-1.561-2.33-3.03-2.092
			l-1.087,0.194l1.117,6.262l-3.568,0.636L226.41,117.397z M231.2,123.613l1.417-0.253c1.797-0.321,2.699-1.408,2.451-2.802
			c-0.262-1.464-1.385-2.02-3.043-1.749c-0.874,0.156-1.357,0.315-1.609,0.409L231.2,123.613z"/>
		<path style="fill:#FFFFFF;" d="M247.451,126.028c1.059,0.324,2.635,0.554,4.171,0.28c1.654-0.295,2.406-1.136,2.221-2.176
			c-0.178-0.992-1.034-1.425-3.07-1.768c-2.812-0.449-4.797-1.607-5.21-3.922c-0.485-2.717,1.412-5.202,5.169-5.872
			c1.796-0.32,3.187-0.178,4.208,0.078l-0.285,3.05c-0.693-0.194-1.907-0.44-3.467-0.162c-1.56,0.278-2.189,1.122-2.041,1.949
			c0.181,1.016,1.159,1.305,3.354,1.718c2.998,0.538,4.582,1.767,4.982,4.012c0.477,2.67-1.174,5.305-5.546,6.085
			c-1.819,0.324-3.699,0.172-4.687-0.164L247.451,126.028z"/>
		<path style="fill:#FFFFFF;" d="M272.37,124.947c-0.603,0.449-2.028,1.069-3.966,1.415c-5.505,0.982-8.952-1.938-9.761-6.475
			c-0.97-5.435,2.366-9.151,7.187-10.011c1.866-0.333,3.352-0.208,4.048,0.009l-0.222,2.99c-0.788-0.176-1.854-0.279-3.13-0.051
			c-2.858,0.51-4.772,2.631-4.14,6.176c0.569,3.189,2.818,4.86,6.031,4.287c1.087-0.194,2.25-0.646,2.908-1.056L272.37,124.947z"/>
		<path style="fill:#FFFFFF;" d="M287.232,114.372c0.932,5.223-1.67,8.953-6.325,9.784c-4.726,0.843-8.127-2.231-8.937-6.769
			c-0.852-4.772,1.561-8.885,6.263-9.724C283.124,106.791,286.448,109.977,287.232,114.372z M275.762,116.638
			c0.557,3.119,2.413,5.055,4.823,4.625c2.434-0.435,3.416-2.999,2.863-6.095c-0.51-2.859-2.319-5.072-4.8-4.629
			C276.214,110.974,275.211,113.542,275.762,116.638z"/>
		<path style="fill:#FFFFFF;" d="M288.24,106.366c1.124-0.396,2.823-0.845,4.737-1.187c2.363-0.421,4.08-0.363,5.375,0.333
			c1.079,0.588,1.798,1.605,2.06,3.07c0.362,2.032-0.83,3.684-2.112,4.424l0.013,0.071c1.19,0.251,1.994,1.205,2.657,2.598
			c0.817,1.708,1.685,3.698,2.101,4.258l-3.686,0.658c-0.34-0.403-0.95-1.635-1.772-3.512c-0.78-1.909-1.562-2.331-3.031-2.092
			l-1.087,0.194l1.117,6.262l-3.567,0.637L288.24,106.366z M293.031,112.581l1.417-0.253c1.796-0.32,2.699-1.408,2.45-2.802
			c-0.261-1.464-1.384-2.02-3.043-1.749c-0.873,0.156-1.357,0.315-1.609,0.409L293.031,112.581z"/>
		<path style="fill:#FFFFFF;" d="M313.328,111.154l-5.86,1.045l0.675,3.78l6.546-1.167l0.526,2.954l-10.161,1.813l-2.841-15.926
			l9.829-1.754l0.527,2.953l-6.215,1.108l0.591,3.309l5.86-1.046L313.328,111.154z"/>
		<path style="fill:#FFFFFF;" d="M51.424,176.311c-0.959,2.414-1.434,5.766-0.679,9.995c0.742,4.159,2.365,7.112,4.085,9.097
			l-2.505,0.447c-1.604-1.615-3.583-4.505-4.393-9.042c-0.798-4.612,0.04-7.979,0.986-10.05L51.424,176.311z"/>
		<path style="fill:#FFFFFF;" d="M69.239,184.616c-0.412-1.901-0.896-4.204-1.31-6.521l-0.07,0.013
			c-0.134,2.121-0.391,4.507-0.672,6.484l-0.829,6.56l-2.812,0.502l-2.801-5.864c-0.854-1.774-1.802-3.945-2.551-5.958l-0.047,0.008
			c0.289,2.168,0.656,4.638,0.893,6.644l0.796,6.1l-3.332,0.594l-1.825-16.107l4.796-0.856l2.509,5.038
			c0.824,1.754,1.675,3.651,2.362,5.455l0.071-0.013c0.119-1.924,0.288-4.124,0.492-5.988l0.756-5.596l4.703-0.839l3.716,15.77
			l-3.521,0.628L69.239,184.616z"/>
		<path style="fill:#FFFFFF;" d="M85.121,181.124l-5.86,1.045l0.675,3.781l6.545-1.168l0.527,2.954l-10.161,1.813l-2.841-15.926
			l9.829-1.754l0.527,2.953l-6.215,1.109l0.591,3.308l5.859-1.045L85.121,181.124z"/>
		<path style="fill:#FFFFFF;" d="M90.352,173.828l-4.277,0.763l-0.539-3.024l12.239-2.184l0.54,3.024l-4.348,0.776l2.302,12.901
			l-3.615,0.645L90.352,173.828z"/>
		<path style="fill:#FFFFFF;" d="M114.973,174.359c0.932,5.223-1.67,8.954-6.324,9.784c-4.726,0.843-8.128-2.231-8.938-6.769
			c-0.852-4.772,1.561-8.885,6.264-9.724C110.865,166.779,114.189,169.965,114.973,174.359z M103.504,176.626
			c0.556,3.119,2.413,5.055,4.823,4.625c2.434-0.434,3.415-2.999,2.862-6.094c-0.51-2.859-2.319-5.072-4.8-4.629
			C103.955,170.962,102.951,173.53,103.504,176.626z"/>
		<path style="fill:#FFFFFF;" d="M115.981,166.354c1.285-0.449,2.989-0.875,4.809-1.199c3.024-0.54,5.083-0.346,6.825,0.538
			c1.874,0.933,3.263,2.709,3.765,5.521c0.544,3.048-0.191,5.35-1.495,6.923c-1.429,1.693-3.863,2.81-6.982,3.367
			c-1.866,0.333-3.211,0.451-4.13,0.494L115.981,166.354z M121.915,178.705c0.319,0.016,0.816-0.073,1.265-0.153
			c3.266-0.558,5.071-2.733,4.393-6.537c-0.566-3.312-2.816-4.715-5.912-4.163c-0.803,0.143-1.311,0.307-1.604,0.433
			L121.915,178.705z"/>
		<path style="fill:#FFFFFF;" d="M148.357,168.403c0.932,5.223-1.67,8.954-6.324,9.784c-4.726,0.843-8.128-2.231-8.938-6.769
			c-0.852-4.772,1.561-8.885,6.264-9.724C144.25,160.822,147.573,164.009,148.357,168.403z M136.889,170.67
			c0.556,3.119,2.413,5.055,4.823,4.625c2.434-0.434,3.415-2.998,2.862-6.094c-0.51-2.859-2.319-5.072-4.8-4.629
			C137.34,165.005,136.336,167.574,136.889,170.67z"/>
		<path style="fill:#FFFFFF;" d="M149.328,160.185l3.615-0.645l2.301,12.901l6.333-1.13l0.54,3.025l-9.948,1.775L149.328,160.185z"
			/>
		<path style="fill:#FFFFFF;" d="M176.474,163.387c0.932,5.223-1.67,8.954-6.324,9.784c-4.727,0.843-8.128-2.231-8.938-6.769
			c-0.852-4.772,1.561-8.885,6.263-9.724C172.365,155.806,175.69,158.992,176.474,163.387z M165.004,165.653
			c0.557,3.119,2.413,5.055,4.823,4.625c2.435-0.434,3.416-2.999,2.863-6.094c-0.51-2.859-2.319-5.072-4.801-4.629
			C165.456,159.989,164.452,162.558,165.004,165.653z"/>
		<path style="fill:#FFFFFF;" d="M193.457,167.988c-1.043,0.577-3.053,1.471-5.156,1.846c-2.906,0.519-5.14,0.161-6.857-0.995
			c-1.709-1.109-2.884-3.045-3.278-5.389c-0.92-5.297,2.392-9.009,7.614-9.94c2.055-0.367,3.71-0.248,4.558-0.008l-0.242,3.018
			c-0.942-0.223-2.083-0.336-3.832-0.023c-3.001,0.535-4.966,2.642-4.351,6.091c0.586,3.285,2.987,4.855,5.941,4.328
			c0.827-0.147,1.472-0.36,1.729-0.552l-0.595-3.332l-2.457,0.438l-0.501-2.812l5.931-1.058L193.457,167.988z"/>
		<path style="fill:#FFFFFF;" d="M197.172,151.649l2.842,15.926l-3.615,0.645l-2.842-15.926L197.172,151.649z"/>
		<path style="fill:#FFFFFF;" d="M206.112,162.269l-0.405,4.291l-3.732,0.666L204,150.431l4.726-0.843l7.78,15.045l-3.875,0.691
			l-1.958-3.869L206.112,162.269z M209.672,158.854l-1.596-3.202c-0.451-0.894-0.946-2.025-1.351-2.928l-0.048,0.008
			c-0.067,0.987-0.089,2.235-0.184,3.202l-0.343,3.548L209.672,158.854z"/>
		<path style="fill:#FFFFFF;" d="M220.599,147.689c1.286-0.449,2.989-0.875,4.81-1.199c3.024-0.54,5.082-0.346,6.825,0.538
			c1.873,0.934,3.263,2.709,3.764,5.521c0.544,3.048-0.191,5.35-1.495,6.923c-1.429,1.693-3.863,2.81-6.982,3.366
			c-1.866,0.333-3.211,0.451-4.13,0.494L220.599,147.689z M226.533,160.039c0.319,0.016,0.816-0.073,1.266-0.153
			c3.264-0.558,5.07-2.733,4.392-6.537c-0.566-3.312-2.816-4.715-5.911-4.163c-0.803,0.143-1.311,0.308-1.605,0.433L226.533,160.039
			z"/>
		<path style="fill:#FFFFFF;" d="M248.121,152.043l-5.86,1.045l0.675,3.781l6.545-1.168l0.527,2.954l-10.161,1.813l-2.841-15.926
			l9.829-1.754l0.527,2.953l-6.215,1.109l0.591,3.308l5.859-1.045L248.121,152.043z"/>
		<path style="fill:#FFFFFF;" d="M269.617,148.866c-0.412-1.902-0.896-4.205-1.31-6.521l-0.071,0.013
			c-0.133,2.122-0.391,4.508-0.672,6.484l-0.828,6.56l-2.812,0.501l-2.802-5.863c-0.854-1.774-1.801-3.946-2.551-5.958l-0.047,0.008
			c0.289,2.167,0.656,4.637,0.893,6.643l0.796,6.1l-3.332,0.594l-1.825-16.107l4.797-0.855l2.508,5.038
			c0.825,1.754,1.676,3.65,2.363,5.455l0.07-0.013c0.12-1.924,0.289-4.124,0.492-5.989l0.757-5.596l4.702-0.839l3.716,15.77
			l-3.521,0.628L269.617,148.866z"/>
		<path style="fill:#FFFFFF;" d="M285.498,145.374l-5.86,1.046l0.675,3.78l6.545-1.167l0.527,2.954l-10.16,1.813l-2.842-15.926
			l9.83-1.754l0.526,2.953l-6.214,1.108l0.59,3.309l5.86-1.046L285.498,145.374z"/>
		<path style="fill:#FFFFFF;" d="M287.037,135.835c1.285-0.448,2.989-0.874,4.809-1.199c3.025-0.54,5.083-0.346,6.826,0.538
			c1.873,0.934,3.262,2.709,3.764,5.521c0.544,3.048-0.191,5.349-1.495,6.923c-1.429,1.693-3.863,2.81-6.982,3.366
			c-1.866,0.333-3.211,0.451-4.13,0.493L287.037,135.835z M292.971,148.185c0.319,0.016,0.816-0.072,1.265-0.152
			c3.266-0.558,5.071-2.733,4.393-6.537c-0.566-3.312-2.816-4.715-5.912-4.163c-0.803,0.143-1.311,0.307-1.604,0.433
			L292.971,148.185z"/>
		<path style="fill:#FFFFFF;" d="M307.058,132.044l2.842,15.926l-3.615,0.645l-2.842-15.926L307.058,132.044z"/>
		<path style="fill:#FFFFFF;" d="M324.635,144.877c-0.584,0.421-1.892,1.02-3.683,1.364l-0.258,0.875
			c0.959,0.048,1.872,0.519,2.07,1.63c0.29,1.63-1.077,2.436-2.424,2.676c-0.709,0.126-1.515,0.123-2.112-0.087l0.211-1.549
			c0.389,0.126,0.957,0.171,1.382,0.095c0.473-0.084,0.821-0.318,0.75-0.719c-0.089-0.496-0.679-0.659-2.027-0.565l0.549-2.121
			c-4.595,0.21-7.457-2.571-8.186-6.659c-0.97-5.435,2.365-9.15,7.186-10.01c1.867-0.333,3.353-0.208,4.05,0.009l-0.224,2.99
			c-0.787-0.176-1.854-0.279-3.129-0.051c-2.859,0.51-4.772,2.631-4.141,6.175c0.569,3.19,2.818,4.861,6.031,4.288
			c1.087-0.194,2.25-0.646,2.908-1.056L324.635,144.877z"/>
		<path style="fill:#FFFFFF;" d="M330.293,140.113l-0.404,4.291l-3.733,0.666l2.026-16.794l4.725-0.843l7.78,15.044l-3.875,0.691
			l-1.958-3.869L330.293,140.113z M327.252,127.441c-0.425-1.973,0.149-3.124,1.284-3.326c0.638-0.113,1.102,0.023,1.597,0.204
			c0.42,0.168,0.812,0.318,1.12,0.263c0.401-0.071,0.501-0.333,0.456-1.13l1.607-0.287c0.449,2.114-0.088,3.063-1.34,3.287
			c-0.639,0.114-1.148-0.014-1.616-0.175c-0.44-0.141-0.761-0.302-1.068-0.248s-0.457,0.447-0.386,1.117L327.252,127.441z
			 M333.853,136.698l-1.596-3.202c-0.452-0.895-0.946-2.025-1.352-2.929l-0.047,0.008c-0.068,0.988-0.09,2.235-0.185,3.203
			l-0.343,3.547L333.853,136.698z"/>
		<path style="fill:#FFFFFF;" d="M355.349,131.473c0.932,5.223-1.67,8.954-6.324,9.784c-4.726,0.843-8.128-2.231-8.938-6.769
			c-0.852-4.772,1.561-8.885,6.264-9.724C351.242,123.892,354.565,127.078,355.349,131.473z M343.88,133.739
			c0.556,3.119,2.413,5.055,4.823,4.625c2.434-0.434,3.415-2.999,2.862-6.094c-0.51-2.859-2.319-5.072-4.8-4.629
			C344.332,128.075,343.328,130.644,343.88,133.739z"/>
		<path style="fill:#FFFFFF;" d="M51.246,207.158c1.286-0.449,2.989-0.875,4.81-1.2c3.024-0.54,5.082-0.346,6.825,0.538
			c1.873,0.934,3.262,2.709,3.764,5.521c0.544,3.048-0.191,5.349-1.495,6.922c-1.429,1.694-3.863,2.811-6.982,3.367
			c-1.866,0.333-3.211,0.451-4.13,0.494L51.246,207.158z M57.18,219.509c0.32,0.017,0.816-0.072,1.266-0.152
			c3.265-0.559,5.071-2.734,4.393-6.538c-0.566-3.312-2.816-4.715-5.911-4.163c-0.804,0.144-1.311,0.308-1.605,0.433L57.18,219.509z
			"/>
		<path style="fill:#FFFFFF;" d="M78.769,211.512l-5.86,1.046l0.674,3.78l6.546-1.167l0.526,2.954l-10.16,1.812l-2.842-15.925
			l9.83-1.754l0.527,2.953l-6.215,1.108l0.59,3.309l5.86-1.046L78.769,211.512z"/>
		<path style="fill:#FFFFFF;" d="M87.34,213.104c1.058,0.323,2.635,0.554,4.17,0.28c1.654-0.295,2.406-1.136,2.221-2.175
			c-0.177-0.993-1.034-1.425-3.07-1.769c-2.811-0.45-4.797-1.606-5.21-3.922c-0.485-2.718,1.412-5.202,5.169-5.872
			c1.796-0.32,3.187-0.179,4.208,0.078l-0.285,3.049c-0.692-0.193-1.907-0.439-3.467-0.161c-1.559,0.278-2.188,1.122-2.041,1.949
			c0.181,1.016,1.159,1.304,3.354,1.717c2.998,0.538,4.582,1.767,4.983,4.012c0.476,2.67-1.176,5.306-5.547,6.085
			c-1.819,0.325-3.699,0.172-4.686-0.164L87.34,213.104z"/>
		<path style="fill:#FFFFFF;" d="M103.622,209.809l-0.405,4.29l-3.732,0.666l2.025-16.794l4.726-0.843l7.78,15.044l-3.875,0.691
			l-1.958-3.868L103.622,209.809z M107.182,206.395l-1.595-3.202c-0.452-0.895-0.946-2.025-1.351-2.929l-0.048,0.009
			c-0.067,0.987-0.09,2.234-0.185,3.202l-0.343,3.548L107.182,206.395z"/>
		<path style="fill:#FFFFFF;" d="M114.95,198.694l-4.277,0.763l-0.54-3.024l12.24-2.184l0.539,3.024l-4.347,0.776l2.302,12.901
			l-3.615,0.645L114.95,198.694z"/>
		<path style="fill:#FFFFFF;" d="M127.9,193.263l2.842,15.925l-3.615,0.645l-2.842-15.925L127.9,193.263z"/>
		<path style="fill:#FFFFFF;" d="M133.317,204.901c1.057,0.324,2.634,0.554,4.17,0.28c1.653-0.295,2.406-1.137,2.221-2.176
			c-0.177-0.993-1.034-1.425-3.07-1.769c-2.812-0.449-4.797-1.606-5.21-3.922c-0.485-2.718,1.412-5.202,5.169-5.872
			c1.796-0.32,3.187-0.179,4.207,0.078l-0.284,3.05c-0.693-0.193-1.907-0.44-3.467-0.162s-2.189,1.122-2.041,1.949
			c0.181,1.016,1.159,1.304,3.354,1.717c2.997,0.538,4.582,1.767,4.982,4.012c0.477,2.67-1.175,5.306-5.546,6.085
			c-1.819,0.325-3.7,0.172-4.687-0.164L133.317,204.901z"/>
		<path style="fill:#FFFFFF;" d="M143.777,190.43l9.735-1.737l0.527,2.953l-6.12,1.092l0.649,3.639l5.718-1.02l0.523,2.93
			l-5.719,1.02l1.143,6.403l-3.615,0.645L143.777,190.43z"/>
		<path style="fill:#FFFFFF;" d="M160.468,199.667l-0.405,4.29l-3.732,0.666l2.025-16.794l4.726-0.843l7.78,15.044l-3.875,0.691
			l-1.958-3.868L160.468,199.667z M164.028,196.253l-1.596-3.202c-0.452-0.894-0.946-2.025-1.351-2.928l-0.048,0.008
			c-0.067,0.988-0.09,2.235-0.185,3.203l-0.343,3.547L164.028,196.253z"/>
		<path style="fill:#FFFFFF;" d="M184.013,199.221c-0.584,0.421-1.891,1.02-3.683,1.364l-0.258,0.875
			c0.959,0.048,1.872,0.519,2.07,1.629c0.291,1.63-1.077,2.435-2.424,2.675c-0.709,0.127-1.514,0.124-2.112-0.086l0.211-1.549
			c0.389,0.126,0.957,0.171,1.382,0.095c0.473-0.084,0.822-0.317,0.75-0.719c-0.088-0.496-0.678-0.659-2.027-0.565l0.548-2.121
			c-4.594,0.21-7.455-2.571-8.185-6.659c-0.97-5.435,2.365-9.15,7.186-10.01c1.867-0.333,3.353-0.208,4.049,0.009l-0.222,2.99
			c-0.787-0.177-1.854-0.279-3.13-0.051c-2.859,0.51-4.773,2.631-4.141,6.175c0.569,3.19,2.818,4.861,6.031,4.288
			c1.087-0.194,2.25-0.646,2.908-1.056L184.013,199.221z"/>
		<path style="fill:#FFFFFF;" d="M189.671,194.457l-0.405,4.29l-3.733,0.666l2.026-16.793l4.726-0.843l7.78,15.044l-3.876,0.691
			l-1.958-3.868L189.671,194.457z M186.629,181.785c-0.425-1.972,0.15-3.123,1.284-3.325c0.639-0.114,1.102,0.023,1.597,0.203
			c0.42,0.168,0.813,0.318,1.12,0.263c0.401-0.072,0.501-0.333,0.456-1.13l1.607-0.287c0.45,2.114-0.088,3.062-1.34,3.286
			c-0.639,0.114-1.148-0.014-1.616-0.175c-0.439-0.141-0.761-0.303-1.068-0.248c-0.308,0.055-0.456,0.447-0.386,1.117
			L186.629,181.785z M193.231,191.043l-1.596-3.202c-0.452-0.894-0.946-2.025-1.351-2.928l-0.048,0.008
			c-0.067,0.987-0.089,2.235-0.185,3.203l-0.343,3.547L193.231,191.043z"/>
		<path style="fill:#FFFFFF;" d="M214.727,185.817c0.932,5.222-1.67,8.954-6.324,9.784c-4.726,0.843-8.127-2.232-8.937-6.769
			c-0.852-4.772,1.56-8.885,6.262-9.724C210.619,178.236,213.943,181.422,214.727,185.817z M203.258,188.083
			c0.557,3.119,2.413,5.055,4.823,4.625c2.434-0.434,3.415-2.999,2.863-6.094c-0.511-2.859-2.32-5.072-4.801-4.629
			C203.71,182.419,202.705,184.988,203.258,188.083z"/>
		<path style="fill:#FFFFFF;" d="M220.507,176.96c1.285-0.448,2.989-0.875,4.809-1.199c3.024-0.54,5.083-0.346,6.825,0.538
			c1.874,0.934,3.263,2.709,3.765,5.521c0.544,3.048-0.191,5.349-1.495,6.922c-1.43,1.694-3.863,2.811-6.982,3.367
			c-1.866,0.333-3.211,0.451-4.13,0.493L220.507,176.96z M226.441,189.31c0.319,0.017,0.816-0.072,1.264-0.152
			c3.266-0.558,5.072-2.734,4.394-6.538c-0.567-3.312-2.816-4.715-5.912-4.163c-0.803,0.143-1.311,0.308-1.604,0.433L226.441,189.31
			z"/>
		<path style="fill:#FFFFFF;" d="M248.028,181.314l-5.859,1.045l0.674,3.781l6.546-1.168l0.527,2.954l-10.161,1.813l-2.842-15.925
			l9.83-1.754l0.526,2.953l-6.214,1.109l0.59,3.308l5.86-1.045L248.028,181.314z"/>
		<path style="fill:#FFFFFF;" d="M268.76,184.101c-0.604,0.449-2.028,1.069-3.965,1.415c-5.506,0.982-8.952-1.938-9.762-6.475
			c-0.97-5.435,2.366-9.15,7.187-10.011c1.866-0.333,3.353-0.208,4.049,0.009l-0.223,2.99c-0.787-0.177-1.854-0.279-3.13-0.051
			c-2.859,0.51-4.772,2.631-4.141,6.175c0.569,3.19,2.818,4.861,6.032,4.288c1.087-0.194,2.249-0.645,2.908-1.055L268.76,184.101z"
			/>
		<path style="fill:#FFFFFF;" d="M268.361,168.203l3.615-0.645l2.302,12.901l6.332-1.13l0.54,3.024l-9.947,1.775L268.361,168.203z"
			/>
		<path style="fill:#FFFFFF;" d="M284.048,165.404l2.842,15.925l-3.615,0.645l-2.842-15.925L284.048,165.404z"/>
		<path style="fill:#FFFFFF;" d="M298.283,172.348l-5.86,1.045l0.674,3.781l6.546-1.168l0.527,2.954l-10.161,1.813l-2.842-15.926
			l9.83-1.753l0.526,2.953l-6.214,1.109l0.59,3.308l5.86-1.045L298.283,172.348z"/>
		<path style="fill:#FFFFFF;" d="M302.625,178.522l-2.842-15.925l4.206-0.75l4.35,5.246c1.244,1.509,2.544,3.325,3.573,4.994
			l0.071-0.012c-0.612-2.061-1.066-4.198-1.492-6.585l-0.83-4.654l3.308-0.59l2.842,15.925l-3.781,0.675l-4.498-5.537
			c-1.249-1.532-2.655-3.402-3.769-5.13l-0.066,0.036c0.47,2.086,0.917,4.323,1.381,6.922l0.856,4.796L302.625,178.522z"/>
		<path style="fill:#FFFFFF;" d="M319.697,162.165l-4.277,0.763l-0.539-3.024l12.239-2.184l0.54,3.024l-4.348,0.775l2.302,12.901
			l-3.615,0.645L319.697,162.165z"/>
		<path style="fill:#FFFFFF;" d="M340.148,164.879l-5.859,1.045l0.674,3.781l6.546-1.168l0.526,2.954l-10.16,1.813l-2.842-15.925
			l9.83-1.754l0.527,2.953l-6.215,1.109l0.59,3.308l5.86-1.045L340.148,164.879z"/>
		<path style="fill:#FFFFFF;" d="M343.947,167.321c1.058,0.324,2.635,0.554,4.171,0.28c1.653-0.295,2.405-1.137,2.22-2.176
			c-0.177-0.993-1.034-1.425-3.07-1.768c-2.811-0.45-4.797-1.607-5.21-3.922c-0.484-2.717,1.412-5.202,5.17-5.872
			c1.795-0.32,3.187-0.178,4.207,0.078l-0.285,3.05c-0.692-0.193-1.906-0.44-3.466-0.162s-2.189,1.122-2.042,1.949
			c0.182,1.016,1.159,1.304,3.354,1.717c2.997,0.538,4.582,1.767,4.982,4.012c0.477,2.67-1.175,5.306-5.546,6.085
			c-1.819,0.325-3.7,0.172-4.687-0.164L343.947,167.321z"/>
		<path style="fill:#FFFFFF;" d="M356.849,170.774c0.908-2.429,1.426-5.813,0.68-9.995c-0.746-4.183-2.37-7.135-4.086-9.097
			l2.506-0.447c1.576,1.596,3.57,4.435,4.396,9.065c0.794,4.588-0.072,7.936-0.99,10.026L356.849,170.774z"/>
	</g>
	<g>
		<path style="fill:#FFFFFF;" d="M118.11,298.054l-0.672,2.423h-2.213l2.885-9.441h2.802l2.927,9.441h-2.297l-0.729-2.423H118.11z
			 M120.505,296.456l-0.588-2.003c-0.168-0.561-0.336-1.261-0.476-1.82h-0.028c-0.14,0.56-0.28,1.274-0.434,1.82l-0.561,2.003
			H120.505z"/>
		<path style="fill:#FFFFFF;" d="M131.679,300.21c-0.393,0.196-1.275,0.406-2.423,0.406c-3.264,0-4.945-2.03-4.945-4.72
			c0-3.222,2.297-5.015,5.155-5.015c1.106,0,1.947,0.224,2.325,0.42l-0.434,1.694c-0.434-0.182-1.037-0.35-1.793-0.35
			c-1.695,0-3.012,1.022-3.012,3.123c0,1.892,1.121,3.082,3.026,3.082c0.644,0,1.358-0.14,1.779-0.308L131.679,300.21z"/>
		<path style="fill:#FFFFFF;" d="M141.297,295.658c0,3.096-1.877,4.973-4.637,4.973c-2.801,0-4.44-2.115-4.44-4.805
			c0-2.83,1.807-4.944,4.595-4.944C139.714,290.882,141.297,293.053,141.297,295.658z M134.476,295.784
			c0,1.849,0.868,3.151,2.297,3.151c1.443,0,2.27-1.373,2.27-3.208c0-1.694-0.812-3.151-2.283-3.151
			C135.316,292.576,134.476,293.949,134.476,295.784z"/>
		<path style="fill:#FFFFFF;" d="M150.677,296.862c-0.042-1.135-0.084-2.507-0.084-3.88h-0.042c-0.294,1.205-0.687,2.55-1.051,3.656
			l-1.148,3.684h-1.667l-1.008-3.656c-0.308-1.106-0.63-2.451-0.854-3.684h-0.028c-0.056,1.274-0.098,2.731-0.168,3.908
			l-0.168,3.586h-1.975l0.603-9.441h2.843l0.925,3.152c0.294,1.092,0.588,2.269,0.798,3.375h0.042
			c0.266-1.092,0.588-2.339,0.896-3.39l1.008-3.138h2.788l0.519,9.441h-2.087L150.677,296.862z"/>
		<path style="fill:#FFFFFF;" d="M154.536,291.161c0.659-0.111,1.583-0.195,2.886-0.195c1.317,0,2.255,0.252,2.886,0.756
			c0.602,0.477,1.008,1.261,1.008,2.186c0,0.924-0.308,1.709-0.869,2.241c-0.728,0.687-1.807,0.994-3.067,0.994
			c-0.28,0-0.532-0.014-0.729-0.042v3.376h-2.115V291.161z M156.651,295.448c0.182,0.042,0.406,0.056,0.714,0.056
			c1.135,0,1.835-0.574,1.835-1.541c0-0.868-0.602-1.387-1.667-1.387c-0.435,0-0.729,0.042-0.883,0.084V295.448z"/>
		<path style="fill:#FFFFFF;" d="M164.029,298.054l-0.672,2.423h-2.213l2.885-9.441h2.802l2.928,9.441h-2.297l-0.729-2.423H164.029z
			 M166.425,296.456l-0.588-2.003c-0.168-0.561-0.336-1.261-0.476-1.82h-0.028c-0.14,0.56-0.28,1.274-0.434,1.82l-0.561,2.003
			H166.425z"/>
		<path style="fill:#FFFFFF;" d="M171.014,300.477v-9.441h2.494l1.961,3.46c0.561,0.995,1.121,2.171,1.541,3.236h0.042
			c-0.14-1.247-0.182-2.521-0.182-3.937v-2.76h1.961v9.441h-2.241l-2.017-3.642c-0.561-1.009-1.177-2.228-1.639-3.334l-0.042,0.014
			c0.056,1.247,0.084,2.577,0.084,4.118v2.844H171.014z"/>
		<path style="fill:#FFFFFF;" d="M182.817,291.035v3.628h3.516v-3.628h2.129v9.441h-2.129v-3.95h-3.516v3.95h-2.144v-9.441H182.817z
			"/>
		<path style="fill:#FFFFFF;" d="M192.519,298.054l-0.672,2.423h-2.213l2.885-9.441h2.802l2.927,9.441h-2.297l-0.729-2.423H192.519z
			 M194.915,296.456l-0.588-2.003c-0.168-0.561-0.336-1.261-0.476-1.82h-0.028c-0.14,0.56-0.28,1.274-0.434,1.82l-0.561,2.003
			H194.915z"/>
		<path style="fill:#FFFFFF;" d="M207.488,296.862c-0.042-1.135-0.084-2.507-0.084-3.88h-0.042c-0.294,1.205-0.687,2.55-1.051,3.656
			l-1.148,3.684h-1.667l-1.008-3.656c-0.308-1.106-0.63-2.451-0.854-3.684h-0.028c-0.056,1.274-0.098,2.731-0.168,3.908
			l-0.168,3.586h-1.975l0.603-9.441h2.843l0.925,3.152c0.294,1.092,0.588,2.269,0.798,3.375h0.042
			c0.266-1.092,0.588-2.339,0.896-3.39l1.008-3.138h2.788l0.519,9.441h-2.087L207.488,296.862z"/>
		<path style="fill:#FFFFFF;" d="M216.965,296.484h-3.474v2.241h3.88v1.751h-6.023v-9.441h5.827v1.751h-3.684v1.961h3.474V296.484z"
			/>
		<path style="fill:#FFFFFF;" d="M218.824,300.477v-9.441h2.494l1.961,3.46c0.561,0.995,1.121,2.171,1.541,3.236h0.042
			c-0.14-1.247-0.182-2.521-0.182-3.937v-2.76h1.961v9.441h-2.241l-2.017-3.642c-0.561-1.009-1.177-2.228-1.639-3.334l-0.042,0.014
			c0.056,1.247,0.084,2.577,0.084,4.118v2.844H218.824z"/>
		<path style="fill:#FFFFFF;" d="M230.305,292.828h-2.536v-1.793h7.256v1.793h-2.577v7.648h-2.143V292.828z"/>
		<path style="fill:#FFFFFF;" d="M244.393,295.658c0,3.096-1.877,4.973-4.637,4.973c-2.802,0-4.44-2.115-4.44-4.805
			c0-2.83,1.807-4.944,4.595-4.944C242.81,290.882,244.393,293.053,244.393,295.658z M237.571,295.784
			c0,1.849,0.868,3.151,2.297,3.151c1.442,0,2.269-1.373,2.269-3.208c0-1.694-0.812-3.151-2.283-3.151
			C238.411,292.576,237.571,293.949,237.571,295.784z"/>
		<path style="fill:#FFFFFF;" d="M248.616,291.161c0.785-0.126,1.807-0.195,2.886-0.195c1.793,0,2.956,0.321,3.866,1.008
			c0.98,0.729,1.597,1.892,1.597,3.559c0,1.807-0.658,3.054-1.569,3.823c-0.995,0.827-2.507,1.219-4.356,1.219
			c-1.106,0-1.891-0.069-2.423-0.14V291.161z M250.759,298.865c0.182,0.043,0.476,0.043,0.742,0.043
			c1.933,0.014,3.194-1.051,3.194-3.307c0.014-1.961-1.135-2.997-2.97-2.997c-0.476,0-0.784,0.042-0.966,0.084V298.865z"/>
		<path style="fill:#FFFFFF;" d="M267.003,295.658c0,3.096-1.878,4.973-4.637,4.973c-2.802,0-4.44-2.115-4.44-4.805
			c0-2.83,1.807-4.944,4.595-4.944C265.42,290.882,267.003,293.053,267.003,295.658z M260.181,295.784
			c0,1.849,0.868,3.151,2.297,3.151c1.442,0,2.269-1.373,2.269-3.208c0-1.694-0.812-3.151-2.283-3.151
			C261.022,292.576,260.181,293.949,260.181,295.784z"/>
		<path style="fill:#FFFFFF;" d="M271.227,300.477v-9.441h2.493l1.961,3.46c0.561,0.995,1.121,2.171,1.541,3.236h0.042
			c-0.141-1.247-0.183-2.521-0.183-3.937v-2.76h1.961v9.441h-2.24l-2.018-3.642c-0.561-1.009-1.177-2.228-1.639-3.334l-0.042,0.014
			c0.056,1.247,0.084,2.577,0.084,4.118v2.844H271.227z"/>
		<path style="fill:#FFFFFF;" d="M280.887,291.161c0.658-0.111,1.583-0.195,2.886-0.195c1.316,0,2.255,0.252,2.885,0.756
			c0.603,0.477,1.009,1.261,1.009,2.186c0,0.924-0.308,1.709-0.868,2.241c-0.729,0.687-1.808,0.994-3.068,0.994
			c-0.279,0-0.532-0.014-0.728-0.042v3.376h-2.115V291.161z M283.003,295.448c0.182,0.042,0.406,0.056,0.714,0.056
			c1.135,0,1.835-0.574,1.835-1.541c0-0.868-0.603-1.387-1.667-1.387c-0.434,0-0.729,0.042-0.882,0.084V295.448z"/>
		<path style="fill:#FFFFFF;" d="M289.09,298.277c0.575,0.294,1.457,0.588,2.368,0.588c0.98,0,1.498-0.406,1.498-1.022
			c0-0.588-0.448-0.924-1.583-1.33c-1.568-0.547-2.591-1.415-2.591-2.788c0-1.61,1.345-2.843,3.572-2.843
			c1.064,0,1.849,0.224,2.409,0.476l-0.477,1.723c-0.378-0.182-1.051-0.447-1.976-0.447c-0.924,0-1.372,0.42-1.372,0.91
			c0,0.603,0.532,0.868,1.751,1.33c1.667,0.617,2.451,1.485,2.451,2.816c0,1.582-1.219,2.927-3.811,2.927
			c-1.078,0-2.143-0.279-2.675-0.574L289.09,298.277z"/>
		<path style="fill:#FFFFFF;" d="M302.406,290.265c-0.798,1.289-1.414,3.166-1.414,5.674c0,2.465,0.63,4.328,1.414,5.645h-1.484
			c-0.757-1.093-1.597-2.955-1.597-5.645c0.014-2.731,0.84-4.581,1.597-5.674H302.406z"/>
		<path style="fill:#FFFFFF;" d="M303.804,300.477v-9.441h2.493l1.961,3.46c0.561,0.995,1.12,2.171,1.541,3.236h0.042
			c-0.141-1.247-0.183-2.521-0.183-3.937v-2.76h1.962v9.441h-2.242l-2.017-3.642c-0.561-1.009-1.177-2.228-1.639-3.334l-0.042,0.014
			c0.056,1.247,0.084,2.577,0.084,4.118v2.844H303.804z"/>
		<path style="fill:#FFFFFF;" d="M319.082,296.484h-3.475v2.241h3.881v1.751h-6.023v-9.441h5.827v1.751h-3.685v1.961h3.475V296.484z
			"/>
		<path style="fill:#FFFFFF;" d="M322.83,292.828h-2.535v-1.793h7.256v1.793h-2.577v7.648h-2.144V292.828z"/>
		<path style="fill:#FFFFFF;" d="M331.509,291.161c0.658-0.111,1.583-0.195,2.885-0.195c1.317,0,2.256,0.252,2.886,0.756
			c0.603,0.477,1.009,1.261,1.009,2.186c0,0.924-0.309,1.709-0.868,2.241c-0.729,0.687-1.808,0.994-3.068,0.994
			c-0.279,0-0.532-0.014-0.728-0.042v3.376h-2.115V291.161z M333.625,295.448c0.182,0.042,0.406,0.056,0.714,0.056
			c1.135,0,1.835-0.574,1.835-1.541c0-0.868-0.603-1.387-1.667-1.387c-0.434,0-0.729,0.042-0.882,0.084V295.448z"/>
		<path style="fill:#FFFFFF;" d="M339.643,291.161c0.687-0.111,1.709-0.195,2.843-0.195c1.401,0,2.382,0.21,3.054,0.742
			c0.561,0.448,0.869,1.106,0.869,1.975c0,1.205-0.854,2.031-1.667,2.325v0.042c0.658,0.267,1.022,0.896,1.261,1.766
			c0.294,1.064,0.588,2.297,0.771,2.661h-2.186c-0.154-0.267-0.378-1.036-0.658-2.199c-0.252-1.177-0.658-1.499-1.527-1.513h-0.644
			v3.712h-2.115V291.161z M341.758,295.224h0.84c1.064,0,1.695-0.532,1.695-1.358c0-0.869-0.589-1.303-1.569-1.317
			c-0.518,0-0.812,0.042-0.966,0.07V295.224z"/>
		<path style="fill:#FFFFFF;" d="M356.532,295.658c0,3.096-1.877,4.973-4.637,4.973c-2.802,0-4.44-2.115-4.44-4.805
			c0-2.83,1.807-4.944,4.595-4.944C354.949,290.882,356.532,293.053,356.532,295.658z M349.71,295.784
			c0,1.849,0.869,3.151,2.298,3.151c1.442,0,2.269-1.373,2.269-3.208c0-1.694-0.812-3.151-2.283-3.151
			C350.55,292.576,349.71,293.949,349.71,295.784z"/>
		<path style="fill:#FFFFFF;" d="M365.912,296.862c-0.042-1.135-0.084-2.507-0.084-3.88h-0.042c-0.295,1.205-0.687,2.55-1.051,3.656
			l-1.148,3.684h-1.667l-1.009-3.656c-0.309-1.106-0.631-2.451-0.854-3.684h-0.028c-0.056,1.274-0.098,2.731-0.168,3.908
			l-0.168,3.586h-1.975l0.602-9.441h2.844l0.925,3.152c0.294,1.092,0.588,2.269,0.798,3.375h0.042
			c0.267-1.092,0.589-2.339,0.896-3.39l1.009-3.138h2.788l0.518,9.441h-2.087L365.912,296.862z"/>
		<path style="fill:#FFFFFF;" d="M378.414,295.658c0,3.096-1.877,4.973-4.637,4.973c-2.802,0-4.44-2.115-4.44-4.805
			c0-2.83,1.807-4.944,4.595-4.944C376.831,290.882,378.414,293.053,378.414,295.658z M371.591,295.784
			c0,1.849,0.869,3.151,2.298,3.151c1.442,0,2.269-1.373,2.269-3.208c0-1.694-0.812-3.151-2.283-3.151
			C372.432,292.576,371.591,293.949,371.591,295.784z"/>
		<path style="fill:#FFFFFF;" d="M381.238,292.828h-2.535v-1.793h7.256v1.793h-2.577v7.648h-2.144V292.828z"/>
		<path style="fill:#FFFFFF;" d="M392.707,296.484h-3.475v2.241h3.881v1.751h-6.023v-9.441h5.827v1.751h-3.685v1.961h3.475V296.484z
			"/>
		<path style="fill:#FFFFFF;" d="M394.565,291.161c0.687-0.111,1.709-0.195,2.843-0.195c1.401,0,2.382,0.21,3.054,0.742
			c0.561,0.448,0.869,1.106,0.869,1.975c0,1.205-0.854,2.031-1.667,2.325v0.042c0.658,0.267,1.022,0.896,1.261,1.766
			c0.294,1.064,0.588,2.297,0.771,2.661h-2.186c-0.154-0.267-0.378-1.036-0.658-2.199c-0.252-1.177-0.658-1.499-1.527-1.513h-0.644
			v3.712h-2.115V291.161z M396.68,295.224h0.84c1.064,0,1.695-0.532,1.695-1.358c0-0.869-0.589-1.303-1.569-1.317
			c-0.518,0-0.812,0.042-0.966,0.07V295.224z"/>
		<path style="fill:#FFFFFF;" d="M115.981,315.078c0.574,0.294,1.457,0.588,2.367,0.588c0.98,0,1.499-0.406,1.499-1.022
			c0-0.588-0.448-0.924-1.583-1.33c-1.569-0.547-2.591-1.415-2.591-2.788c0-1.61,1.345-2.843,3.572-2.843
			c1.064,0,1.849,0.224,2.409,0.476l-0.476,1.723c-0.378-0.182-1.051-0.447-1.975-0.447s-1.373,0.42-1.373,0.91
			c0,0.603,0.532,0.868,1.751,1.33c1.667,0.617,2.451,1.485,2.451,2.816c0,1.582-1.219,2.927-3.81,2.927
			c-1.079,0-2.143-0.279-2.675-0.574L115.981,315.078z"/>
		<path style="fill:#FFFFFF;" d="M130.405,317.011c-0.393,0.196-1.275,0.406-2.423,0.406c-3.264,0-4.945-2.03-4.945-4.72
			c0-3.222,2.297-5.015,5.155-5.015c1.106,0,1.947,0.224,2.325,0.42l-0.434,1.694c-0.434-0.182-1.037-0.35-1.793-0.35
			c-1.695,0-3.012,1.022-3.012,3.123c0,1.892,1.121,3.082,3.026,3.082c0.644,0,1.358-0.14,1.779-0.308L130.405,317.011z"/>
		<path style="fill:#FFFFFF;" d="M140.023,312.459c0,3.096-1.877,4.973-4.637,4.973c-2.802,0-4.44-2.115-4.44-4.805
			c0-2.83,1.807-4.944,4.595-4.944C138.44,307.683,140.023,309.854,140.023,312.459z M133.202,312.585
			c0,1.849,0.868,3.151,2.297,3.151c1.442,0,2.269-1.373,2.269-3.208c0-1.694-0.812-3.151-2.283-3.151
			C134.042,309.377,133.202,310.75,133.202,312.585z"/>
		<path style="fill:#FFFFFF;" d="M141.419,307.962c0.687-0.111,1.709-0.195,2.844-0.195c1.401,0,2.381,0.21,3.054,0.742
			c0.56,0.448,0.868,1.106,0.868,1.975c0,1.205-0.854,2.031-1.667,2.325v0.042c0.658,0.267,1.022,0.896,1.261,1.766
			c0.294,1.064,0.588,2.297,0.77,2.661h-2.185c-0.154-0.267-0.378-1.036-0.658-2.199c-0.252-1.177-0.659-1.499-1.527-1.513h-0.645
			v3.712h-2.115V307.962z M143.534,312.025h0.84c1.065,0,1.695-0.532,1.695-1.358c0-0.869-0.588-1.303-1.569-1.317
			c-0.519,0-0.812,0.042-0.967,0.07V312.025z"/>
		<path style="fill:#FFFFFF;" d="M155.337,313.285h-3.474v2.241h3.88v1.751h-6.023v-9.441h5.827v1.751h-3.684v1.961h3.474V313.285z"
			/>
		<path style="fill:#FFFFFF;" d="M166.019,311.843v1.414h-3.67v-1.414H166.019z"/>
		<path style="fill:#FFFFFF;" d="M178.173,313.663c-0.042-1.135-0.084-2.507-0.084-3.88h-0.042c-0.294,1.205-0.687,2.55-1.051,3.656
			l-1.148,3.684h-1.667l-1.008-3.656c-0.308-1.106-0.63-2.451-0.854-3.684h-0.028c-0.056,1.274-0.098,2.731-0.168,3.908
			l-0.168,3.586h-1.975l0.603-9.441h2.843l0.925,3.152c0.294,1.092,0.588,2.269,0.798,3.375h0.042
			c0.266-1.092,0.588-2.339,0.896-3.39l1.008-3.138h2.788l0.519,9.441h-2.087L178.173,313.663z"/>
		<path style="fill:#FFFFFF;" d="M187.649,313.285h-3.474v2.241h3.88v1.751h-6.023v-9.441h5.827v1.751h-3.684v1.961h3.474V313.285z"
			/>
		<path style="fill:#FFFFFF;" d="M191.399,309.629h-2.536v-1.793h7.256v1.793h-2.577v7.648h-2.143V309.629z"/>
		<path style="fill:#FFFFFF;" d="M205.487,312.459c0,3.096-1.877,4.973-4.637,4.973c-2.802,0-4.44-2.115-4.44-4.805
			c0-2.83,1.807-4.944,4.595-4.944C203.904,307.683,205.487,309.854,205.487,312.459z M198.666,312.585
			c0,1.849,0.868,3.151,2.297,3.151c1.442,0,2.269-1.373,2.269-3.208c0-1.694-0.812-3.151-2.283-3.151
			C199.506,309.377,198.666,310.75,198.666,312.585z"/>
		<path style="fill:#FFFFFF;" d="M206.882,307.962c0.785-0.126,1.807-0.195,2.886-0.195c1.793,0,2.956,0.321,3.866,1.008
			c0.98,0.729,1.597,1.892,1.597,3.559c0,1.807-0.658,3.054-1.569,3.823c-0.995,0.827-2.507,1.219-4.356,1.219
			c-1.106,0-1.891-0.069-2.423-0.14V307.962z M209.026,315.666c0.182,0.043,0.476,0.043,0.742,0.043
			c1.933,0.014,3.194-1.051,3.194-3.307c0.014-1.961-1.135-2.997-2.97-2.997c-0.476,0-0.784,0.042-0.966,0.084V315.666z"/>
		<path style="fill:#FFFFFF;" d="M225.27,312.459c0,3.096-1.877,4.973-4.637,4.973c-2.802,0-4.44-2.115-4.44-4.805
			c0-2.83,1.807-4.944,4.595-4.944C223.687,307.683,225.27,309.854,225.27,312.459z M218.448,312.585
			c0,1.849,0.868,3.151,2.297,3.151c1.442,0,2.269-1.373,2.269-3.208c0-1.694-0.812-3.151-2.283-3.151
			C219.288,309.377,218.448,310.75,218.448,312.585z"/>
		<path style="fill:#FFFFFF;" d="M226.665,307.836h2.144v7.648h3.754v1.793h-5.897V307.836z"/>
		<path style="fill:#FFFFFF;" d="M241.929,312.459c0,3.096-1.877,4.973-4.637,4.973c-2.801,0-4.44-2.115-4.44-4.805
			c0-2.83,1.807-4.944,4.595-4.944C240.346,307.683,241.929,309.854,241.929,312.459z M235.107,312.585
			c0,1.849,0.868,3.151,2.297,3.151c1.443,0,2.27-1.373,2.27-3.208c0-1.694-0.812-3.151-2.283-3.151
			C235.948,309.377,235.107,310.75,235.107,312.585z"/>
		<path style="fill:#FFFFFF;" d="M251.211,316.843c-0.658,0.225-1.905,0.532-3.151,0.532c-1.723,0-2.97-0.434-3.838-1.274
			c-0.868-0.812-1.345-2.045-1.331-3.432c0.014-3.138,2.297-4.931,5.393-4.931c1.219,0,2.157,0.238,2.619,0.462l-0.448,1.709
			c-0.518-0.224-1.163-0.406-2.199-0.406c-1.779,0-3.124,1.009-3.124,3.054c0,1.947,1.219,3.096,2.97,3.096
			c0.49,0,0.882-0.056,1.05-0.14v-1.976h-1.457v-1.667h3.516V316.843z"/>
		<path style="fill:#FFFFFF;" d="M255.016,307.836v9.441h-2.144v-9.441H255.016z"/>
		<path style="fill:#FFFFFF;" d="M259.061,314.855l-0.672,2.423h-2.213l2.885-9.441h2.802l2.927,9.441h-2.297l-0.729-2.423H259.061z
			 M261.457,313.257l-0.588-2.003c-0.168-0.561-0.336-1.261-0.476-1.82h-0.028c-0.14,0.56-0.28,1.274-0.434,1.82l-0.561,2.003
			H261.457z"/>
		<path style="fill:#FFFFFF;" d="M268.875,307.962c0.784-0.126,1.807-0.195,2.885-0.195c1.793,0,2.956,0.321,3.866,1.008
			c0.98,0.729,1.598,1.892,1.598,3.559c0,1.807-0.659,3.054-1.569,3.823c-0.994,0.827-2.507,1.219-4.356,1.219
			c-1.106,0-1.891-0.069-2.423-0.14V307.962z M271.017,315.666c0.183,0.043,0.477,0.043,0.742,0.043
			c1.934,0.014,3.194-1.051,3.194-3.307c0.014-1.961-1.135-2.997-2.97-2.997c-0.477,0-0.784,0.042-0.967,0.084V315.666z"/>
		<path style="fill:#FFFFFF;" d="M284.236,313.285h-3.475v2.241h3.881v1.751h-6.023v-9.441h5.827v1.751h-3.685v1.961h3.475V313.285z
			"/>
		<path style="fill:#FFFFFF;" d="M296.907,313.663c-0.042-1.135-0.084-2.507-0.084-3.88h-0.042c-0.295,1.205-0.687,2.55-1.051,3.656
			l-1.148,3.684h-1.667l-1.009-3.656c-0.309-1.106-0.631-2.451-0.854-3.684h-0.028c-0.056,1.274-0.098,2.731-0.168,3.908
			l-0.168,3.586h-1.975l0.602-9.441h2.844l0.925,3.152c0.294,1.092,0.588,2.269,0.798,3.375h0.042
			c0.267-1.092,0.589-2.339,0.896-3.39l1.009-3.138h2.788l0.518,9.441h-2.087L296.907,313.663z"/>
		<path style="fill:#FFFFFF;" d="M306.383,313.285h-3.475v2.241h3.88v1.751h-6.022v-9.441h5.827v1.751h-3.685v1.961h3.475V313.285z"
			/>
		<path style="fill:#FFFFFF;" d="M308.242,307.962c0.784-0.126,1.807-0.195,2.885-0.195c1.793,0,2.956,0.321,3.866,1.008
			c0.98,0.729,1.598,1.892,1.598,3.559c0,1.807-0.659,3.054-1.569,3.823c-0.994,0.827-2.507,1.219-4.356,1.219
			c-1.106,0-1.891-0.069-2.423-0.14V307.962z M310.384,315.666c0.183,0.043,0.477,0.043,0.742,0.043
			c1.934,0.014,3.194-1.051,3.194-3.307c0.014-1.961-1.135-2.997-2.97-2.997c-0.477,0-0.784,0.042-0.967,0.084V315.666z"/>
		<path style="fill:#FFFFFF;" d="M320.128,307.836v9.441h-2.143v-9.441H320.128z"/>
		<path style="fill:#FFFFFF;" d="M328.91,317.011c-0.378,0.183-1.19,0.393-2.256,0.406l-0.237,0.477
			c0.546,0.126,1.022,0.49,1.022,1.148c0,0.967-0.869,1.289-1.667,1.289c-0.42,0-0.883-0.084-1.205-0.267l0.28-0.868
			c0.21,0.112,0.532,0.196,0.784,0.196c0.28,0,0.505-0.098,0.505-0.336c0-0.295-0.322-0.448-1.106-0.532l0.532-1.163
			c-2.662-0.351-4.021-2.241-4.021-4.664c0-3.222,2.297-5.015,5.155-5.015c1.106,0,1.946,0.224,2.325,0.42l-0.435,1.694
			c-0.435-0.182-1.037-0.35-1.793-0.35c-1.695,0-3.012,1.022-3.012,3.123c0,1.892,1.121,3.082,3.025,3.082
			c0.645,0,1.359-0.14,1.779-0.308L328.91,317.011z"/>
		<path style="fill:#FFFFFF;" d="M332.645,314.855l-0.673,2.423h-2.213l2.886-9.441h2.801l2.928,9.441h-2.297l-0.729-2.423H332.645z
			 M332.197,307.262c-0.042-1.177,0.406-1.778,1.078-1.778c0.378,0,0.631,0.126,0.896,0.279c0.225,0.141,0.435,0.267,0.616,0.267
			c0.238,0,0.322-0.14,0.379-0.603h0.952c0.042,1.261-0.364,1.751-1.106,1.751c-0.379,0-0.658-0.126-0.911-0.266
			c-0.237-0.126-0.406-0.253-0.588-0.253s-0.309,0.211-0.336,0.603H332.197z M335.04,313.257l-0.588-2.003
			c-0.168-0.561-0.336-1.261-0.477-1.82h-0.027c-0.141,0.56-0.28,1.274-0.435,1.82l-0.561,2.003H335.04z"/>
		<path style="fill:#FFFFFF;" d="M347.922,312.459c0,3.096-1.877,4.973-4.637,4.973c-2.802,0-4.44-2.115-4.44-4.805
			c0-2.83,1.807-4.944,4.595-4.944C346.339,307.683,347.922,309.854,347.922,312.459z M341.1,312.585
			c0,1.849,0.869,3.151,2.298,3.151c1.442,0,2.269-1.373,2.269-3.208c0-1.694-0.812-3.151-2.283-3.151
			C341.941,309.377,341.1,310.75,341.1,312.585z"/>
		<path style="fill:#FFFFFF;" d="M352.146,307.962c0.784-0.126,1.807-0.195,2.885-0.195c1.793,0,2.956,0.321,3.866,1.008
			c0.98,0.729,1.598,1.892,1.598,3.559c0,1.807-0.659,3.054-1.569,3.823c-0.994,0.827-2.507,1.219-4.356,1.219
			c-1.106,0-1.891-0.069-2.423-0.14V307.962z M354.289,315.666c0.183,0.043,0.477,0.043,0.742,0.043
			c1.934,0.014,3.194-1.051,3.194-3.307c0.014-1.961-1.135-2.997-2.97-2.997c-0.477,0-0.784,0.042-0.967,0.084V315.666z"/>
		<path style="fill:#FFFFFF;" d="M367.507,313.285h-3.475v2.241h3.881v1.751h-6.023v-9.441h5.827v1.751h-3.685v1.961h3.475V313.285z
			"/>
		<path style="fill:#FFFFFF;" d="M372.263,315.078c0.574,0.294,1.457,0.588,2.367,0.588c0.981,0,1.499-0.406,1.499-1.022
			c0-0.588-0.448-0.924-1.583-1.33c-1.568-0.547-2.591-1.415-2.591-2.788c0-1.61,1.345-2.843,3.571-2.843
			c1.065,0,1.85,0.224,2.41,0.476l-0.477,1.723c-0.378-0.182-1.051-0.447-1.976-0.447c-0.924,0-1.372,0.42-1.372,0.91
			c0,0.603,0.532,0.868,1.751,1.33c1.667,0.617,2.451,1.485,2.451,2.816c0,1.582-1.219,2.927-3.811,2.927
			c-1.078,0-2.143-0.279-2.675-0.574L372.263,315.078z"/>
		<path style="fill:#FFFFFF;" d="M381.953,314.855l-0.673,2.423h-2.213l2.886-9.441h2.801l2.928,9.441h-2.297l-0.729-2.423H381.953z
			 M384.347,313.257l-0.588-2.003c-0.168-0.561-0.336-1.261-0.477-1.82h-0.027c-0.141,0.56-0.28,1.274-0.435,1.82l-0.561,2.003
			H384.347z"/>
		<path style="fill:#FFFFFF;" d="M389.595,309.629h-2.535v-1.793h7.256v1.793h-2.577v7.648h-2.144V309.629z"/>
		<path style="fill:#FFFFFF;" d="M397.589,307.836v9.441h-2.143v-9.441H397.589z"/>
		<path style="fill:#FFFFFF;" d="M399.506,315.078c0.575,0.294,1.457,0.588,2.368,0.588c0.98,0,1.498-0.406,1.498-1.022
			c0-0.588-0.448-0.924-1.583-1.33c-1.568-0.547-2.591-1.415-2.591-2.788c0-1.61,1.345-2.843,3.572-2.843
			c1.064,0,1.849,0.224,2.409,0.476l-0.477,1.723c-0.378-0.182-1.051-0.447-1.976-0.447c-0.924,0-1.372,0.42-1.372,0.91
			c0,0.603,0.532,0.868,1.751,1.33c1.667,0.617,2.451,1.485,2.451,2.816c0,1.582-1.219,2.927-3.811,2.927
			c-1.078,0-2.143-0.279-2.675-0.574L399.506,315.078z"/>
		<path style="fill:#FFFFFF;" d="M406.997,307.836h5.771v1.751h-3.628v2.157h3.39v1.737h-3.39v3.796h-2.143V307.836z"/>
		<path style="fill:#FFFFFF;" d="M415.636,314.855l-0.673,2.423h-2.213l2.886-9.441h2.801l2.928,9.441h-2.297l-0.729-2.423H415.636z
			 M418.031,313.257l-0.588-2.003c-0.168-0.561-0.336-1.261-0.477-1.82h-0.027c-0.141,0.56-0.28,1.274-0.435,1.82l-0.561,2.003
			H418.031z"/>
		<path style="fill:#FFFFFF;" d="M429.205,317.011c-0.378,0.183-1.19,0.393-2.256,0.406l-0.237,0.477
			c0.546,0.126,1.022,0.49,1.022,1.148c0,0.967-0.869,1.289-1.667,1.289c-0.42,0-0.883-0.084-1.205-0.267l0.28-0.868
			c0.21,0.112,0.532,0.196,0.784,0.196c0.28,0,0.505-0.098,0.505-0.336c0-0.295-0.322-0.448-1.106-0.532l0.532-1.163
			c-2.662-0.351-4.021-2.241-4.021-4.664c0-3.222,2.297-5.015,5.155-5.015c1.106,0,1.946,0.224,2.325,0.42l-0.435,1.694
			c-0.435-0.182-1.037-0.35-1.793-0.35c-1.695,0-3.012,1.022-3.012,3.123c0,1.892,1.121,3.082,3.025,3.082
			c0.645,0,1.359-0.14,1.779-0.308L429.205,317.011z"/>
		<path style="fill:#FFFFFF;" d="M432.94,314.855l-0.673,2.423h-2.213l2.886-9.441h2.801l2.928,9.441h-2.297l-0.729-2.423H432.94z
			 M432.492,307.262c-0.042-1.177,0.406-1.778,1.078-1.778c0.378,0,0.631,0.126,0.896,0.279c0.225,0.141,0.435,0.267,0.616,0.267
			c0.238,0,0.322-0.14,0.379-0.603h0.952c0.042,1.261-0.364,1.751-1.106,1.751c-0.379,0-0.658-0.126-0.911-0.266
			c-0.237-0.126-0.406-0.253-0.588-0.253s-0.309,0.211-0.336,0.603H432.492z M435.335,313.257l-0.588-2.003
			c-0.168-0.561-0.336-1.261-0.477-1.82h-0.027c-0.141,0.56-0.28,1.274-0.435,1.82l-0.561,2.003H435.335z"/>
		<path style="fill:#FFFFFF;" d="M448.217,312.459c0,3.096-1.877,4.973-4.637,4.973c-2.802,0-4.44-2.115-4.44-4.805
			c0-2.83,1.807-4.944,4.595-4.944C446.634,307.683,448.217,309.854,448.217,312.459z M441.395,312.585
			c0,1.849,0.869,3.151,2.298,3.151c1.442,0,2.269-1.373,2.269-3.208c0-1.694-0.812-3.151-2.283-3.151
			C442.236,309.377,441.395,310.75,441.395,312.585z"/>
		<path style="fill:#FFFFFF;" d="M452.441,307.962c0.784-0.126,1.807-0.195,2.885-0.195c1.793,0,2.956,0.321,3.866,1.008
			c0.98,0.729,1.598,1.892,1.598,3.559c0,1.807-0.659,3.054-1.569,3.823c-0.994,0.827-2.507,1.219-4.356,1.219
			c-1.106,0-1.891-0.069-2.423-0.14V307.962z M454.584,315.666c0.183,0.043,0.477,0.043,0.742,0.043
			c1.934,0.014,3.194-1.051,3.194-3.307c0.014-1.961-1.135-2.997-2.97-2.997c-0.477,0-0.784,0.042-0.967,0.084V315.666z"/>
		<path style="fill:#FFFFFF;" d="M467.802,313.285h-3.475v2.241h3.881v1.751h-6.023v-9.441h5.827v1.751h-3.685v1.961h3.475V313.285z
			"/>
		<path style="fill:#FFFFFF;" d="M122.845,333.811c-0.393,0.196-1.275,0.406-2.423,0.406c-3.264,0-4.945-2.03-4.945-4.72
			c0-3.222,2.297-5.015,5.155-5.015c1.106,0,1.947,0.224,2.325,0.42l-0.434,1.694c-0.434-0.182-1.037-0.35-1.793-0.35
			c-1.695,0-3.012,1.022-3.012,3.124c0,1.891,1.121,3.081,3.026,3.081c0.644,0,1.358-0.14,1.779-0.308L122.845,333.811z"/>
		<path style="fill:#FFFFFF;" d="M124.24,324.636h2.144v7.648h3.754v1.793h-5.897V324.636z"/>
		<path style="fill:#FFFFFF;" d="M133.538,324.636v9.441h-2.144v-9.441H133.538z"/>
		<path style="fill:#FFFFFF;" d="M141.001,330.085h-3.474v2.241h3.88v1.751h-6.023v-9.441h5.827v1.751h-3.684v1.961h3.474V330.085z"
			/>
		<path style="fill:#FFFFFF;" d="M142.86,334.077v-9.441h2.494l1.961,3.46c0.561,0.995,1.121,2.172,1.541,3.236h0.042
			c-0.14-1.247-0.182-2.521-0.182-3.937v-2.76h1.961v9.441h-2.241l-2.017-3.642c-0.561-1.009-1.177-2.228-1.639-3.334l-0.042,0.014
			c0.056,1.247,0.084,2.577,0.084,4.118v2.844H142.86z"/>
		<path style="fill:#FFFFFF;" d="M154.341,326.429h-2.536v-1.793h7.256v1.793h-2.577v7.648h-2.143V326.429z"/>
		<path style="fill:#FFFFFF;" d="M165.809,330.085h-3.474v2.241h3.88v1.751h-6.023v-9.441h5.827v1.751h-3.684v1.961h3.474V330.085z"
			/>
		<path style="fill:#FFFFFF;" d="M167.738,331.878c0.574,0.294,1.457,0.588,2.367,0.588c0.98,0,1.499-0.405,1.499-1.022
			c0-0.588-0.448-0.924-1.583-1.33c-1.569-0.547-2.591-1.415-2.591-2.788c0-1.61,1.345-2.843,3.572-2.843
			c1.064,0,1.849,0.224,2.409,0.476l-0.476,1.724c-0.378-0.183-1.051-0.449-1.975-0.449s-1.373,0.421-1.373,0.911
			c0,0.603,0.532,0.868,1.751,1.331c1.667,0.616,2.451,1.484,2.451,2.815c0,1.582-1.219,2.927-3.81,2.927
			c-1.079,0-2.143-0.279-2.675-0.574L167.738,331.878z"/>
		<path style="fill:#FFFFFF;" d="M174.794,335.184c0.771-1.303,1.415-3.193,1.415-5.673s-0.63-4.343-1.415-5.646h1.485
			c0.742,1.079,1.597,2.914,1.597,5.659c-0.014,2.718-0.854,4.553-1.597,5.659H174.794z"/>
		<path style="fill:#FFFFFF;" d="M190.52,335.702c-1.345-0.393-2.465-0.799-3.726-1.331c-0.21-0.084-0.434-0.126-0.658-0.14
			c-2.129-0.141-4.118-1.709-4.118-4.791c0-2.829,1.793-4.958,4.608-4.958c2.886,0,4.469,2.185,4.469,4.762
			c0,2.144-0.995,3.656-2.241,4.217v0.056c0.728,0.21,1.541,0.379,2.283,0.532L190.52,335.702z M188.839,329.328
			c0-1.723-0.812-3.151-2.269-3.151c-1.457,0-2.297,1.429-2.297,3.194c-0.014,1.793,0.854,3.165,2.283,3.165
			C187.999,332.536,188.839,331.178,188.839,329.328z"/>
		<path style="fill:#FFFFFF;" d="M194.619,324.636v5.436c0,1.625,0.616,2.451,1.709,2.451c1.121,0,1.737-0.784,1.737-2.451v-5.436
			h2.129v5.295c0,2.914-1.471,4.301-3.937,4.301c-2.381,0-3.782-1.317-3.782-4.328v-5.268H194.619z"/>
		<path style="fill:#FFFFFF;" d="M207.655,330.085h-3.474v2.241h3.88v1.751h-6.023v-9.441h5.827v1.751h-3.684v1.961h3.474V330.085z"
			/>
		<path style="fill:#FFFFFF;" d="M214.485,324.636v9.441h-2.144v-9.441H214.485z"/>
		<path style="fill:#FFFFFF;" d="M216.332,334.077v-9.441h2.494l1.961,3.46c0.561,0.995,1.121,2.172,1.541,3.236h0.042
			c-0.14-1.247-0.182-2.521-0.182-3.937v-2.76h1.961v9.441h-2.241l-2.017-3.642c-0.561-1.009-1.177-2.228-1.639-3.334l-0.042,0.014
			c0.056,1.247,0.084,2.577,0.084,4.118v2.844H216.332z"/>
		<path style="fill:#FFFFFF;" d="M225.991,324.762c0.785-0.126,1.807-0.195,2.886-0.195c1.793,0,2.956,0.322,3.866,1.008
			c0.98,0.729,1.597,1.892,1.597,3.559c0,1.807-0.658,3.054-1.569,3.824c-0.995,0.826-2.507,1.218-4.356,1.218
			c-1.106,0-1.891-0.069-2.423-0.14V324.762z M228.135,332.466c0.182,0.042,0.476,0.042,0.742,0.042
			c1.933,0.015,3.194-1.05,3.194-3.306c0.014-1.961-1.135-2.997-2.97-2.997c-0.476,0-0.785,0.042-0.966,0.084V332.466z"/>
		<path style="fill:#FFFFFF;" d="M237.879,324.636v9.441h-2.144v-9.441H237.879z"/>
		<path style="fill:#FFFFFF;" d="M246.659,333.811c-0.393,0.196-1.275,0.406-2.423,0.406c-3.264,0-4.945-2.03-4.945-4.72
			c0-3.222,2.297-5.015,5.155-5.015c1.106,0,1.947,0.224,2.325,0.42l-0.434,1.694c-0.434-0.182-1.037-0.35-1.793-0.35
			c-1.695,0-3.012,1.022-3.012,3.124c0,1.891,1.121,3.081,3.026,3.081c0.644,0,1.358-0.14,1.779-0.308L246.659,333.811z"/>
		<path style="fill:#FFFFFF;" d="M250.394,331.654l-0.672,2.423h-2.213l2.885-9.441h2.802l2.927,9.441h-2.297l-0.729-2.423H250.394z
			 M252.79,330.057l-0.588-2.003c-0.168-0.561-0.336-1.261-0.476-1.821h-0.028c-0.14,0.561-0.28,1.275-0.434,1.821l-0.561,2.003
			H252.79z"/>
		<path style="fill:#FFFFFF;" d="M262.406,331.654l-0.672,2.423h-2.213l2.885-9.441h2.802l2.928,9.441h-2.298l-0.729-2.423H262.406z
			 M264.802,330.057l-0.588-2.003c-0.168-0.561-0.336-1.261-0.476-1.821h-0.028c-0.14,0.561-0.28,1.275-0.434,1.821l-0.561,2.003
			H264.802z"/>
		<path style="fill:#FFFFFF;" d="M274.362,324.636v9.441h-2.143v-9.441H274.362z"/>
		<path style="fill:#FFFFFF;" d="M276.21,334.077v-9.441h2.493l1.961,3.46c0.561,0.995,1.121,2.172,1.541,3.236h0.042
			c-0.141-1.247-0.183-2.521-0.183-3.937v-2.76h1.961v9.441h-2.24l-2.018-3.642c-0.561-1.009-1.177-2.228-1.639-3.334l-0.042,0.014
			c0.056,1.247,0.084,2.577,0.084,4.118v2.844H276.21z"/>
		<path style="fill:#FFFFFF;" d="M287.69,326.429h-2.535v-1.793h7.256v1.793h-2.577v7.648h-2.144V326.429z"/>
		<path style="fill:#FFFFFF;" d="M299.159,330.085h-3.475v2.241h3.88v1.751h-6.022v-9.441h5.827v1.751h-3.685v1.961h3.475V330.085z"
			/>
		<path style="fill:#FFFFFF;" d="M301.017,334.077v-9.441h2.493l1.961,3.46c0.561,0.995,1.12,2.172,1.541,3.236h0.042
			c-0.141-1.247-0.183-2.521-0.183-3.937v-2.76h1.962v9.441h-2.242l-2.017-3.642c-0.561-1.009-1.177-2.228-1.639-3.334l-0.042,0.014
			c0.056,1.247,0.084,2.577,0.084,4.118v2.844H301.017z"/>
		<path style="fill:#FFFFFF;" d="M317.611,333.811c-0.378,0.183-1.19,0.393-2.256,0.406l-0.237,0.477
			c0.546,0.126,1.022,0.49,1.022,1.148c0,0.967-0.869,1.289-1.667,1.289c-0.42,0-0.883-0.084-1.205-0.267l0.28-0.868
			c0.21,0.112,0.532,0.196,0.784,0.196c0.28,0,0.505-0.099,0.505-0.336c0-0.295-0.322-0.448-1.106-0.532l0.532-1.163
			c-2.662-0.351-4.021-2.241-4.021-4.664c0-3.222,2.297-5.015,5.155-5.015c1.106,0,1.946,0.224,2.325,0.42l-0.435,1.694
			c-0.435-0.182-1.037-0.35-1.793-0.35c-1.695,0-3.012,1.022-3.012,3.124c0,1.891,1.121,3.081,3.025,3.081
			c0.645,0,1.359-0.14,1.779-0.308L317.611,333.811z"/>
		<path style="fill:#FFFFFF;" d="M321.347,331.654l-0.673,2.423h-2.213l2.886-9.441h2.801l2.928,9.441h-2.297l-0.729-2.423H321.347z
			 M320.899,324.062c-0.042-1.177,0.406-1.778,1.078-1.778c0.378,0,0.631,0.126,0.896,0.279c0.225,0.141,0.435,0.267,0.616,0.267
			c0.238,0,0.322-0.14,0.379-0.603h0.952c0.042,1.261-0.364,1.751-1.106,1.751c-0.379,0-0.658-0.126-0.911-0.266
			c-0.237-0.126-0.406-0.253-0.588-0.253c-0.183,0-0.309,0.211-0.336,0.603H320.899z M323.742,330.057l-0.588-2.003
			c-0.168-0.561-0.336-1.261-0.477-1.821h-0.027c-0.141,0.561-0.28,1.275-0.435,1.821l-0.561,2.003H323.742z"/>
		<path style="fill:#FFFFFF;" d="M336.624,329.259c0,3.096-1.877,4.973-4.637,4.973c-2.802,0-4.44-2.115-4.44-4.805
			c0-2.83,1.807-4.944,4.595-4.944C335.041,324.483,336.624,326.653,336.624,329.259z M329.801,329.385
			c0,1.849,0.869,3.151,2.298,3.151c1.442,0,2.269-1.372,2.269-3.208c0-1.694-0.812-3.151-2.283-3.151
			C330.642,326.177,329.801,327.55,329.801,329.385z"/>
		<path style="fill:#FFFFFF;" d="M340.847,324.762c0.784-0.126,1.807-0.195,2.885-0.195c1.793,0,2.956,0.322,3.866,1.008
			c0.98,0.729,1.598,1.892,1.598,3.559c0,1.807-0.659,3.054-1.569,3.824c-0.994,0.826-2.507,1.218-4.356,1.218
			c-1.106,0-1.891-0.069-2.423-0.14V324.762z M342.99,332.466c0.183,0.042,0.477,0.042,0.742,0.042
			c1.934,0.015,3.194-1.05,3.194-3.306c0.014-1.961-1.135-2.997-2.97-2.997c-0.477,0-0.784,0.042-0.967,0.084V332.466z"/>
		<path style="fill:#FFFFFF;" d="M359.234,329.259c0,3.096-1.877,4.973-4.637,4.973c-2.802,0-4.44-2.115-4.44-4.805
			c0-2.83,1.807-4.944,4.595-4.944C357.651,324.483,359.234,326.653,359.234,329.259z M352.412,329.385
			c0,1.849,0.869,3.151,2.298,3.151c1.442,0,2.269-1.372,2.269-3.208c0-1.694-0.812-3.151-2.283-3.151
			C353.253,326.177,352.412,327.55,352.412,329.385z"/>
		<path style="fill:#FFFFFF;" d="M370.391,333.811c-0.393,0.196-1.274,0.406-2.424,0.406c-3.264,0-4.944-2.03-4.944-4.72
			c0-3.222,2.297-5.015,5.155-5.015c1.106,0,1.946,0.224,2.325,0.42l-0.435,1.694c-0.435-0.182-1.036-0.35-1.793-0.35
			c-1.695,0-3.012,1.022-3.012,3.124c0,1.891,1.121,3.081,3.025,3.081c0.645,0,1.359-0.14,1.779-0.308L370.391,333.811z"/>
		<path style="fill:#FFFFFF;" d="M371.788,324.636h2.143v7.648h3.754v1.793h-5.896V324.636z"/>
		<path style="fill:#FFFFFF;" d="M381.085,324.636v9.441h-2.143v-9.441H381.085z"/>
		<path style="fill:#FFFFFF;" d="M388.549,330.085h-3.475v2.241h3.88v1.751h-6.022v-9.441h5.827v1.751h-3.685v1.961h3.475V330.085z"
			/>
		<path style="fill:#FFFFFF;" d="M390.408,334.077v-9.441h2.493l1.961,3.46c0.561,0.995,1.12,2.172,1.541,3.236h0.042
			c-0.141-1.247-0.183-2.521-0.183-3.937v-2.76h1.962v9.441h-2.242l-2.017-3.642c-0.561-1.009-1.177-2.228-1.639-3.334l-0.042,0.014
			c0.056,1.247,0.084,2.577,0.084,4.118v2.844H390.408z"/>
		<path style="fill:#FFFFFF;" d="M401.888,326.429h-2.535v-1.793h7.256v1.793h-2.577v7.648h-2.144V326.429z"/>
		<path style="fill:#FFFFFF;" d="M413.357,330.085h-3.475v2.241h3.881v1.751h-6.023v-9.441h5.827v1.751h-3.685v1.961h3.475V330.085z
			"/>
		<path style="fill:#FFFFFF;" d="M423.661,330.085h-3.475v2.241h3.88v1.751h-6.022v-9.441h5.827v1.751h-3.685v1.961h3.475V330.085z"
			/>
		<path style="fill:#FFFFFF;" d="M433.503,330.463c-0.042-1.135-0.084-2.507-0.084-3.88h-0.042c-0.295,1.205-0.687,2.55-1.051,3.656
			l-1.148,3.684h-1.667l-1.009-3.655c-0.309-1.107-0.631-2.452-0.854-3.685h-0.028c-0.056,1.274-0.098,2.731-0.168,3.908
			l-0.168,3.586h-1.975l0.602-9.441h2.844l0.925,3.152c0.294,1.092,0.588,2.269,0.798,3.376h0.042
			c0.267-1.093,0.589-2.34,0.896-3.391l1.009-3.138h2.788l0.518,9.441h-2.087L433.503,330.463z"/>
		<path style="fill:#FFFFFF;" d="M115.911,341.562c0.687-0.111,1.709-0.195,2.844-0.195c1.401,0,2.381,0.21,3.054,0.742
			c0.56,0.448,0.868,1.106,0.868,1.975c0,1.205-0.854,2.031-1.667,2.325v0.042c0.658,0.267,1.022,0.896,1.261,1.766
			c0.294,1.064,0.588,2.297,0.77,2.661h-2.185c-0.154-0.267-0.378-1.036-0.658-2.199c-0.252-1.177-0.659-1.499-1.527-1.513h-0.645
			v3.712h-2.115V341.562z M118.026,345.624h0.84c1.065,0,1.695-0.532,1.695-1.358c0-0.869-0.588-1.303-1.569-1.317
			c-0.519,0-0.812,0.042-0.967,0.07V345.624z"/>
		<path style="fill:#FFFFFF;" d="M129.83,346.885h-3.474v2.241h3.88v1.751h-6.023v-9.441h5.827v1.751h-3.684v1.961h3.474V346.885z"
			/>
		<path style="fill:#FFFFFF;" d="M138.623,350.61c-0.393,0.196-1.275,0.406-2.423,0.406c-3.264,0-4.945-2.03-4.945-4.72
			c0-3.222,2.297-5.015,5.155-5.015c1.106,0,1.947,0.224,2.325,0.42l-0.434,1.694c-0.434-0.182-1.037-0.35-1.793-0.35
			c-1.695,0-3.012,1.022-3.012,3.123c0,1.892,1.121,3.082,3.026,3.082c0.644,0,1.358-0.14,1.779-0.308L138.623,350.61z"/>
		<path style="fill:#FFFFFF;" d="M148.241,346.059c0,3.096-1.877,4.973-4.637,4.973c-2.802,0-4.44-2.115-4.44-4.805
			c0-2.83,1.807-4.944,4.595-4.944C146.658,341.282,148.241,343.453,148.241,346.059z M141.419,346.185
			c0,1.849,0.868,3.151,2.297,3.151c1.442,0,2.269-1.373,2.269-3.208c0-1.694-0.812-3.151-2.283-3.151
			C142.26,342.977,141.419,344.35,141.419,346.185z"/>
		<path style="fill:#FFFFFF;" d="M157.621,347.263c-0.042-1.135-0.084-2.507-0.084-3.88h-0.042c-0.294,1.205-0.687,2.55-1.05,3.656
			l-1.149,3.684h-1.667l-1.008-3.656c-0.308-1.106-0.63-2.451-0.854-3.684h-0.028c-0.056,1.274-0.098,2.731-0.168,3.908
			l-0.168,3.586h-1.975l0.603-9.441h2.843l0.925,3.152c0.294,1.092,0.588,2.269,0.798,3.375h0.042
			c0.266-1.092,0.588-2.339,0.896-3.39l1.008-3.138h2.788l0.519,9.441h-2.087L157.621,347.263z"/>
		<path style="fill:#FFFFFF;" d="M167.097,346.885h-3.474v2.241h3.88v1.751h-6.023v-9.441h5.827v1.751h-3.684v1.961h3.474V346.885z"
			/>
		<path style="fill:#FFFFFF;" d="M168.956,350.877v-9.441h2.494l1.961,3.46c0.56,0.995,1.121,2.171,1.541,3.236h0.042
			c-0.14-1.247-0.182-2.521-0.182-3.937v-2.76h1.961v9.441h-2.241l-2.017-3.642c-0.56-1.009-1.177-2.228-1.639-3.334l-0.042,0.014
			c0.056,1.247,0.084,2.577,0.084,4.118v2.844H168.956z"/>
		<path style="fill:#FFFFFF;" d="M178.616,341.562c0.785-0.126,1.807-0.195,2.886-0.195c1.793,0,2.956,0.321,3.866,1.008
			c0.98,0.729,1.597,1.892,1.597,3.559c0,1.807-0.658,3.054-1.569,3.823c-0.995,0.827-2.507,1.219-4.356,1.219
			c-1.106,0-1.891-0.069-2.423-0.14V341.562z M180.759,349.266c0.182,0.043,0.476,0.043,0.742,0.043
			c1.933,0.014,3.194-1.051,3.194-3.307c0.014-1.961-1.135-2.997-2.97-2.997c-0.476,0-0.784,0.042-0.966,0.084V349.266z"/>
		<path style="fill:#FFFFFF;" d="M190.335,348.454l-0.672,2.423h-2.213l2.885-9.441h2.802l2.928,9.441h-2.297l-0.729-2.423H190.335z
			 M192.731,346.857l-0.588-2.003c-0.168-0.561-0.336-1.261-0.476-1.82h-0.028c-0.14,0.56-0.28,1.274-0.434,1.82l-0.561,2.003
			H192.731z"/>
		<path style="fill:#FFFFFF;" d="M197.32,341.562c0.687-0.111,1.709-0.195,2.844-0.195c1.401,0,2.381,0.21,3.054,0.742
			c0.56,0.448,0.868,1.106,0.868,1.975c0,1.205-0.854,2.031-1.667,2.325v0.042c0.658,0.267,1.022,0.896,1.261,1.766
			c0.294,1.064,0.588,2.297,0.77,2.661h-2.185c-0.154-0.267-0.378-1.036-0.658-2.199c-0.252-1.177-0.659-1.499-1.527-1.513h-0.645
			v3.712h-2.115V341.562z M199.435,345.624h0.84c1.065,0,1.695-0.532,1.695-1.358c0-0.869-0.588-1.303-1.569-1.317
			c-0.519,0-0.812,0.042-0.967,0.07V345.624z"/>
		<path style="fill:#FFFFFF;" d="M210.649,348.454l-0.672,2.423h-2.213l2.885-9.441h2.802l2.927,9.441h-2.297l-0.729-2.423H210.649z
			 M213.044,346.857l-0.588-2.003c-0.168-0.561-0.336-1.261-0.476-1.82h-0.028c-0.14,0.56-0.28,1.274-0.434,1.82l-0.561,2.003
			H213.044z"/>
		<path style="fill:#FFFFFF;" d="M228.446,347.263c-0.042-1.135-0.084-2.507-0.084-3.88h-0.042c-0.294,1.205-0.687,2.55-1.051,3.656
			l-1.148,3.684h-1.667l-1.008-3.656c-0.308-1.106-0.63-2.451-0.854-3.684h-0.028c-0.056,1.274-0.098,2.731-0.168,3.908
			l-0.168,3.586h-1.975l0.603-9.441h2.843l0.925,3.152c0.294,1.092,0.588,2.269,0.798,3.375h0.042
			c0.266-1.092,0.588-2.339,0.896-3.39l1.008-3.138h2.788l0.519,9.441h-2.087L228.446,347.263z"/>
		<path style="fill:#FFFFFF;" d="M234.463,348.454l-0.672,2.423h-2.213l2.885-9.441h2.802l2.927,9.441h-2.297l-0.729-2.423H234.463z
			 M236.859,346.857l-0.588-2.003c-0.168-0.561-0.336-1.261-0.476-1.82h-0.028c-0.14,0.56-0.28,1.274-0.434,1.82l-0.561,2.003
			H236.859z"/>
		<path style="fill:#FFFFFF;" d="M241.448,341.562c0.687-0.111,1.709-0.195,2.844-0.195c1.401,0,2.381,0.21,3.054,0.742
			c0.56,0.448,0.868,1.106,0.868,1.975c0,1.205-0.854,2.031-1.667,2.325v0.042c0.658,0.267,1.022,0.896,1.26,1.766
			c0.294,1.064,0.588,2.297,0.771,2.661h-2.185c-0.154-0.267-0.378-1.036-0.658-2.199c-0.252-1.177-0.659-1.499-1.527-1.513h-0.645
			v3.712h-2.115V341.562z M243.564,345.624h0.84c1.065,0,1.695-0.532,1.695-1.358c0-0.869-0.588-1.303-1.569-1.317
			c-0.519,0-0.812,0.042-0.967,0.07V345.624z"/>
		<path style="fill:#FFFFFF;" d="M256.628,350.61c-0.393,0.196-1.275,0.406-2.423,0.406c-3.264,0-4.945-2.03-4.945-4.72
			c0-3.222,2.297-5.015,5.155-5.015c1.106,0,1.947,0.224,2.325,0.42l-0.434,1.694c-0.434-0.182-1.037-0.35-1.793-0.35
			c-1.695,0-3.012,1.022-3.012,3.123c0,1.892,1.121,3.082,3.026,3.082c0.644,0,1.358-0.14,1.779-0.308L256.628,350.61z"/>
		<path style="fill:#FFFFFF;" d="M260.363,348.454l-0.672,2.423h-2.213l2.885-9.441h2.802l2.927,9.441h-2.297l-0.729-2.423H260.363z
			 M262.758,346.857l-0.588-2.003c-0.168-0.561-0.336-1.261-0.476-1.82h-0.028c-0.14,0.56-0.28,1.274-0.434,1.82l-0.561,2.003
			H262.758z"/>
		<path style="fill:#FFFFFF;" d="M271.451,343.229h-2.535v-1.793h7.256v1.793h-2.577v7.648h-2.144V343.229z"/>
		<path style="fill:#FFFFFF;" d="M279.445,341.436v9.441h-2.143v-9.441H279.445z"/>
		<path style="fill:#FFFFFF;" d="M289.277,347.263c-0.042-1.135-0.084-2.507-0.084-3.88h-0.042c-0.295,1.205-0.687,2.55-1.051,3.656
			l-1.148,3.684h-1.667l-1.009-3.656c-0.309-1.106-0.631-2.451-0.854-3.684h-0.028c-0.056,1.274-0.098,2.731-0.168,3.908
			l-0.168,3.586h-1.975l0.602-9.441h2.844l0.925,3.152c0.294,1.092,0.588,2.269,0.798,3.375h0.042
			c0.267-1.092,0.589-2.339,0.896-3.39l1.009-3.138h2.788l0.518,9.441h-2.087L289.277,347.263z"/>
		<path style="fill:#FFFFFF;" d="M292.912,349.742c0-0.756,0.519-1.303,1.261-1.303s1.247,0.532,1.247,1.303
			c0,0.742-0.505,1.289-1.261,1.289C293.43,351.031,292.912,350.484,292.912,349.742z"/>
	</g>
</g>
<g id="Layer_1">
</g>
</svg>
