<?xml version="1.0" encoding="iso-8859-1"?>
<!-- Generator: Adobe Illustrator 18.0.0, SVG Export Plug-In . SVG Version: 6.00 Build 0)  -->
<!DOCTYPE svg PUBLIC "-//W3C//DTD SVG 1.1//EN" "http://www.w3.org/Graphics/SVG/1.1/DTD/svg11.dtd">
<svg version="1.1" xmlns="http://www.w3.org/2000/svg" xmlns:xlink="http://www.w3.org/1999/xlink" x="0px" y="0px"
	 viewBox="0 0 531.453 494.191" style="enable-background:new 0 0 531.453 494.191;" xml:space="preserve">
<g id="page13-5">
	
		<polygon style="fill:none;stroke:#000000;stroke-width:3.6793;stroke-linecap:round;stroke-linejoin:round;stroke-miterlimit:10;" points="
		43.446,14.904 69.635,406.333 475.632,438.052 529.613,82.648 	"/>
	<polygon style="opacity:0.8;fill:#E92325;" points="100.919,49.06 83.146,447.249 518.153,405.508 454.366,31.542 	"/>
	<polygon style="fill:#03B9DB;" points="23.262,106.379 387.98,82.648 390.61,211.407 20.388,285.052 	"/>
	
		<polyline style="fill:none;stroke:#000000;stroke-width:3.6793;stroke-linecap:round;stroke-linejoin:round;stroke-miterlimit:10;" points="
		45.65,296.379 1.84,305.543 4.782,122.591 	"/>
	<g>
		<g>
			<g>
				
					<line style="fill:none;stroke:#000000;stroke-width:3.6793;stroke-linecap:round;stroke-linejoin:round;stroke-miterlimit:10;" x1="20.388" y1="335.586" x2="43.803" y2="335.586"/>
				
					<line style="fill:none;stroke:#000000;stroke-width:3.6793;stroke-linecap:round;stroke-linejoin:round;stroke-miterlimit:10;" x1="32.095" y1="323.878" x2="32.095" y2="347.293"/>
			</g>
			<g>
				
					<line style="fill:none;stroke:#000000;stroke-width:3.6793;stroke-linecap:round;stroke-linejoin:round;stroke-miterlimit:10;" x1="274.822" y1="453.476" x2="298.237" y2="453.476"/>
				
					<line style="fill:none;stroke:#000000;stroke-width:3.6793;stroke-linecap:round;stroke-linejoin:round;stroke-miterlimit:10;" x1="286.53" y1="441.769" x2="286.53" y2="465.184"/>
			</g>
			
				<path style="fill:none;stroke:#000000;stroke-width:3.6793;stroke-linecap:round;stroke-linejoin:round;stroke-miterlimit:10;" d="
				M503.274,13.043c8.685,13.564-5.72,27.969-19.284,19.284c-0.931-0.596-1.73-1.395-2.325-2.326
				c-8.681-13.563,5.721-27.965,19.283-19.283C501.879,11.313,502.678,12.112,503.274,13.043z"/>
			<g>
				
					<line style="fill:none;stroke:#000000;stroke-width:3.6793;stroke-linecap:round;stroke-linejoin:round;stroke-miterlimit:10;" x1="211.98" y1="1.84" x2="298.237" y2="1.84"/>
				
					<line style="fill:none;stroke:#000000;stroke-width:3.6793;stroke-linecap:round;stroke-linejoin:round;stroke-miterlimit:10;" x1="264.348" y1="21.523" x2="319.935" y2="21.523"/>
			</g>
			
				<path style="fill:none;stroke:#000000;stroke-width:3.6793;stroke-linecap:round;stroke-linejoin:round;stroke-miterlimit:10;" d="
				M216.304,470.431c8.681,13.563-5.721,27.965-19.283,19.283c-0.931-0.596-1.73-1.395-2.326-2.325
				c-8.685-13.564,5.72-27.969,19.284-19.284C214.91,468.702,215.709,469.501,216.304,470.431z"/>
		</g>
	</g>
	<g>
		<path style="fill:#FFFFFF;" d="M53.499,184.521l5.952-1.062l3.791,21.243l10.426-1.86l0.889,4.98l-16.379,2.922L53.499,184.521z"
			/>
		<path style="fill:#FFFFFF;" d="M98.193,189.795c1.534,8.598-2.749,14.741-10.414,16.109c-7.78,1.388-13.381-3.674-14.713-11.144
			c-1.402-7.859,2.568-14.629,10.31-16.01C91.429,177.312,96.902,182.558,98.193,189.795z M79.308,193.525
			c0.916,5.136,3.975,8.324,7.942,7.616c4.007-0.715,5.622-4.938,4.713-10.034c-0.84-4.707-3.818-8.351-7.903-7.622
			C80.053,184.199,78.399,188.428,79.308,193.525z"/>
		<path style="fill:#FFFFFF;" d="M104.923,175.346l5.913-1.055l2.957,16.574c1.333,7.47-1.781,10.715-7.54,11.742
			c-1.361,0.243-3.192,0.329-4.429,0.148l-0.192-4.903c0.865,0.127,1.95,0.134,3.117-0.074c2.49-0.444,3.846-1.851,3.117-5.936
			L104.923,175.346z"/>
		<path style="fill:#FFFFFF;" d="M125.361,191.812l-0.667,7.064l-6.147,1.097l3.336-27.653l7.781-1.388l12.811,24.772l-6.381,1.138
			l-3.224-6.37L125.361,191.812z M131.222,186.19l-2.627-5.272c-0.744-1.473-1.559-3.335-2.226-4.822l-0.077,0.014
			c-0.111,1.625-0.146,3.68-0.304,5.273l-0.563,5.841L131.222,186.19z"/>
		<path style="fill:#FFFFFF;" d="M149.212,167.806c2.115-0.739,4.921-1.441,7.917-1.975c4.979-0.889,8.368-0.57,11.237,0.886
			c3.084,1.537,5.373,4.461,6.199,9.09c0.896,5.02-0.315,8.808-2.463,11.399c-2.354,2.788-6.36,4.627-11.496,5.544
			c-3.073,0.548-5.287,0.742-6.8,0.811L149.212,167.806z M158.982,188.141c0.527,0.027,1.344-0.119,2.083-0.25
			c5.376-0.919,8.351-4.501,7.232-10.765c-0.933-5.454-4.637-7.764-9.733-6.854c-1.323,0.236-2.158,0.505-2.644,0.712
			L158.982,188.141z"/>
		<path style="fill:#FFFFFF;" d="M202.518,171.182c1.534,8.598-2.749,14.741-10.413,16.108c-7.781,1.388-13.382-3.674-14.715-11.144
			c-1.401-7.859,2.569-14.63,10.311-16.011C195.754,158.699,201.227,163.945,202.518,171.182z M183.633,174.912
			c0.916,5.136,3.974,8.323,7.942,7.615c4.008-0.715,5.622-4.937,4.713-10.034c-0.84-4.707-3.818-8.351-7.903-7.622
			C184.378,165.586,182.724,169.815,183.633,174.912z"/>
		<path style="fill:#FFFFFF;" d="M211.97,156.247l16.029-2.86l0.867,4.863l-10.076,1.798l1.068,5.992l9.416-1.68l0.86,4.824
			l-9.415,1.68l1.881,10.543l-5.952,1.062L211.97,156.247z"/>
		<path style="fill:#FFFFFF;" d="M238.382,151.535l2.693,15.096c0.806,4.513,2.928,6.502,5.962,5.961
			c3.112-0.556,4.436-3.04,3.61-7.669l-2.693-15.096l5.912-1.055l2.624,14.706c1.444,8.093-1.954,12.673-8.801,13.895
			c-6.614,1.18-11.157-1.783-12.649-10.147l-2.609-14.629L238.382,151.535z"/>
		<path style="fill:#FFFFFF;" d="M264.945,151.934l-7.043,1.256l-0.889-4.98l20.154-3.596l0.889,4.98l-7.159,1.277l3.79,21.243
			l-5.952,1.062L264.945,151.934z"/>
		<path style="fill:#FFFFFF;" d="M286.228,142.999l2.693,15.096c0.805,4.513,2.927,6.502,5.961,5.961
			c3.112-0.555,4.436-3.04,3.609-7.668l-2.693-15.096l5.914-1.055l2.624,14.706c1.443,8.093-1.954,12.673-8.802,13.895
			c-6.613,1.18-11.157-1.783-12.649-10.147l-2.61-14.629L286.228,142.999z"/>
		<path style="fill:#FFFFFF;" d="M306.906,139.671c1.851-0.651,4.648-1.392,7.801-1.955c3.891-0.694,6.718-0.596,8.85,0.549
			c1.777,0.967,2.96,2.643,3.391,5.055c0.597,3.346-1.367,6.065-3.479,7.285l0.021,0.116c1.96,0.413,3.285,1.984,4.376,4.278
			c1.345,2.811,2.772,6.089,3.459,7.01l-6.069,1.083c-0.561-0.663-1.564-2.691-2.919-5.782c-1.283-3.143-2.57-3.837-4.989-3.445
			l-1.79,0.319l1.839,10.311l-5.874,1.048L306.906,139.671z M314.794,149.905l2.334-0.417c2.957-0.527,4.444-2.318,4.034-4.613
			c-0.43-2.412-2.279-3.327-5.01-2.88c-1.439,0.257-2.235,0.519-2.649,0.674L314.794,149.905z"/>
		<path style="fill:#FFFFFF;" d="M356.049,143.789c1.534,8.598-2.749,14.741-10.413,16.109c-7.781,1.388-13.382-3.674-14.715-11.144
			c-1.401-7.859,2.569-14.629,10.312-16.011C349.286,131.307,354.758,136.553,356.049,143.789z M337.166,147.52
			c0.916,5.136,3.974,8.323,7.941,7.615c4.008-0.715,5.622-4.938,4.713-10.034c-0.84-4.707-3.818-8.351-7.902-7.622
			C337.91,138.193,336.255,142.423,337.166,147.52z"/>
	</g>
	<g>
		<path style="fill:#FFFFFF;" d="M115.911,291.035h2.144v7.648h3.754v1.793h-5.897V291.035z"/>
		<path style="fill:#FFFFFF;" d="M131.176,295.658c0,3.096-1.877,4.973-4.637,4.973c-2.802,0-4.44-2.115-4.44-4.805
			c0-2.83,1.807-4.944,4.595-4.944C129.593,290.882,131.176,293.053,131.176,295.658z M124.354,295.784
			c0,1.849,0.868,3.151,2.297,3.151c1.442,0,2.269-1.373,2.269-3.208c0-1.694-0.812-3.151-2.283-3.151
			C125.194,292.576,124.354,293.949,124.354,295.784z"/>
		<path style="fill:#FFFFFF;" d="M134.42,291.035h2.129v5.968c0,2.689-1.289,3.628-3.362,3.628c-0.49,0-1.135-0.084-1.555-0.225
			l0.238-1.723c0.294,0.098,0.672,0.168,1.093,0.168c0.896,0,1.457-0.406,1.457-1.877V291.035z"/>
		<path style="fill:#FFFFFF;" d="M140.524,298.054l-0.672,2.423h-2.213l2.885-9.441h2.802l2.927,9.441h-2.297l-0.729-2.423H140.524z
			 M142.919,296.456l-0.588-2.003c-0.168-0.561-0.336-1.261-0.476-1.82h-0.028c-0.14,0.56-0.28,1.274-0.434,1.82l-0.561,2.003
			H142.919z"/>
		<path style="fill:#FFFFFF;" d="M150.337,291.161c0.785-0.126,1.807-0.195,2.886-0.195c1.793,0,2.956,0.321,3.866,1.008
			c0.98,0.729,1.597,1.892,1.597,3.559c0,1.807-0.658,3.054-1.569,3.823c-0.995,0.827-2.507,1.219-4.356,1.219
			c-1.106,0-1.891-0.069-2.423-0.14V291.161z M152.481,298.865c0.182,0.043,0.476,0.043,0.742,0.043
			c1.933,0.014,3.194-1.051,3.194-3.307c0.014-1.961-1.135-2.997-2.97-2.997c-0.476,0-0.785,0.042-0.966,0.084V298.865z"/>
		<path style="fill:#FFFFFF;" d="M168.724,295.658c0,3.096-1.877,4.973-4.637,4.973c-2.801,0-4.44-2.115-4.44-4.805
			c0-2.83,1.807-4.944,4.595-4.944C167.141,290.882,168.724,293.053,168.724,295.658z M161.902,295.784
			c0,1.849,0.868,3.151,2.297,3.151c1.443,0,2.27-1.373,2.27-3.208c0-1.694-0.812-3.151-2.283-3.151
			C162.743,292.576,161.902,293.949,161.902,295.784z"/>
		<path style="fill:#FFFFFF;" d="M172.947,291.035h5.771v1.751h-3.628v2.157h3.39v1.737h-3.39v3.796h-2.144V291.035z"/>
		<path style="fill:#FFFFFF;" d="M182.455,291.035v5.436c0,1.625,0.616,2.451,1.709,2.451c1.121,0,1.737-0.784,1.737-2.451v-5.436
			h2.129v5.295c0,2.914-1.471,4.301-3.936,4.301c-2.381,0-3.782-1.317-3.782-4.328v-5.268H182.455z"/>
		<path style="fill:#FFFFFF;" d="M191.694,292.828h-2.536v-1.793h7.256v1.793h-2.577v7.648h-2.143V292.828z"/>
		<path style="fill:#FFFFFF;" d="M199.674,291.035v5.436c0,1.625,0.616,2.451,1.709,2.451c1.121,0,1.737-0.784,1.737-2.451v-5.436
			h2.129v5.295c0,2.914-1.471,4.301-3.936,4.301c-2.381,0-3.782-1.317-3.782-4.328v-5.268H199.674z"/>
		<path style="fill:#FFFFFF;" d="M207.093,291.161c0.687-0.111,1.709-0.195,2.844-0.195c1.401,0,2.381,0.21,3.054,0.742
			c0.56,0.448,0.868,1.106,0.868,1.975c0,1.205-0.854,2.031-1.667,2.325v0.042c0.658,0.267,1.022,0.896,1.26,1.766
			c0.294,1.064,0.588,2.297,0.771,2.661h-2.185c-0.154-0.267-0.378-1.036-0.658-2.199c-0.252-1.177-0.659-1.499-1.527-1.513h-0.645
			v3.712h-2.115V291.161z M209.208,295.224h0.84c1.065,0,1.695-0.532,1.695-1.358c0-0.869-0.588-1.303-1.569-1.317
			c-0.519,0-0.812,0.042-0.967,0.07V295.224z"/>
		<path style="fill:#FFFFFF;" d="M223.982,295.658c0,3.096-1.877,4.973-4.637,4.973c-2.802,0-4.44-2.115-4.44-4.805
			c0-2.83,1.807-4.944,4.595-4.944C222.398,290.882,223.982,293.053,223.982,295.658z M217.16,295.784
			c0,1.849,0.868,3.151,2.297,3.151c1.442,0,2.269-1.373,2.269-3.208c0-1.694-0.812-3.151-2.283-3.151
			C218,292.576,217.16,293.949,217.16,295.784z"/>
		<path style="fill:#FFFFFF;" d="M235.139,300.21c-0.393,0.196-1.275,0.406-2.423,0.406c-3.264,0-4.945-2.03-4.945-4.72
			c0-3.222,2.297-5.015,5.155-5.015c1.106,0,1.947,0.224,2.325,0.42l-0.434,1.694c-0.434-0.182-1.037-0.35-1.793-0.35
			c-1.695,0-3.012,1.022-3.012,3.123c0,1.892,1.121,3.082,3.026,3.082c0.644,0,1.358-0.14,1.779-0.308L235.139,300.21z"/>
		<path style="fill:#FFFFFF;" d="M244.757,295.658c0,3.096-1.877,4.973-4.637,4.973c-2.801,0-4.44-2.115-4.44-4.805
			c0-2.83,1.807-4.944,4.595-4.944C243.174,290.882,244.757,293.053,244.757,295.658z M237.936,295.784
			c0,1.849,0.868,3.151,2.297,3.151c1.443,0,2.27-1.373,2.27-3.208c0-1.694-0.812-3.151-2.283-3.151
			C238.776,292.576,237.936,293.949,237.936,295.784z"/>
		<path style="fill:#FFFFFF;" d="M254.137,296.862c-0.042-1.135-0.084-2.507-0.084-3.88h-0.042c-0.294,1.205-0.687,2.55-1.051,3.656
			l-1.148,3.684h-1.667l-1.008-3.656c-0.308-1.106-0.63-2.451-0.854-3.684h-0.028c-0.056,1.274-0.098,2.731-0.168,3.908
			l-0.168,3.586h-1.975l0.603-9.441h2.843l0.925,3.152c0.294,1.092,0.588,2.269,0.798,3.375h0.042
			c0.266-1.092,0.588-2.339,0.896-3.39l1.008-3.138h2.788l0.519,9.441h-2.087L254.137,296.862z"/>
		<path style="fill:#FFFFFF;" d="M262.968,291.035v9.441h-2.144v-9.441H262.968z"/>
		<path style="fill:#FFFFFF;" d="M264.814,300.477v-9.441h2.494l1.961,3.46c0.561,0.995,1.121,2.171,1.541,3.236h0.042
			c-0.141-1.247-0.183-2.521-0.183-3.937v-2.76h1.961v9.441h-2.24l-2.018-3.642c-0.561-1.009-1.177-2.228-1.639-3.334l-0.042,0.014
			c0.056,1.247,0.084,2.577,0.084,4.118v2.844H264.814z"/>
		<path style="fill:#FFFFFF;" d="M276.295,292.828h-2.535v-1.793h7.256v1.793h-2.577v7.648h-2.144V292.828z"/>
		<path style="fill:#FFFFFF;" d="M287.764,296.484h-3.475v2.241h3.88v1.751h-6.022v-9.441h5.827v1.751h-3.685v1.961h3.475V296.484z"
			/>
		<path style="fill:#FFFFFF;" d="M297.508,300.042c-0.658,0.225-1.905,0.532-3.151,0.532c-1.723,0-2.97-0.434-3.838-1.274
			c-0.869-0.812-1.345-2.045-1.331-3.432c0.014-3.138,2.297-4.931,5.393-4.931c1.219,0,2.157,0.238,2.62,0.462l-0.448,1.709
			c-0.519-0.224-1.163-0.406-2.199-0.406c-1.779,0-3.124,1.009-3.124,3.054c0,1.947,1.219,3.096,2.97,3.096
			c0.49,0,0.883-0.056,1.051-0.14v-1.976h-1.457v-1.667h3.516V300.042z"/>
		<path style="fill:#FFFFFF;" d="M299.17,291.161c0.687-0.111,1.709-0.195,2.843-0.195c1.401,0,2.382,0.21,3.054,0.742
			c0.561,0.448,0.869,1.106,0.869,1.975c0,1.205-0.854,2.031-1.667,2.325v0.042c0.658,0.267,1.022,0.896,1.261,1.766
			c0.294,1.064,0.588,2.297,0.771,2.661h-2.186c-0.154-0.267-0.378-1.036-0.658-2.199c-0.252-1.177-0.658-1.499-1.527-1.513h-0.644
			v3.712h-2.115V291.161z M301.286,295.224h0.84c1.064,0,1.695-0.532,1.695-1.358c0-0.869-0.589-1.303-1.569-1.317
			c-0.518,0-0.812,0.042-0.966,0.07V295.224z"/>
		<path style="fill:#FFFFFF;" d="M309.797,298.054l-0.673,2.423h-2.213l2.886-9.441h2.801l2.928,9.441h-2.297l-0.729-2.423H309.797z
			 M312.192,296.456l-0.588-2.003c-0.168-0.561-0.336-1.261-0.477-1.82H311.1c-0.141,0.56-0.28,1.274-0.435,1.82l-0.561,2.003
			H312.192z"/>
		<path style="fill:#FFFFFF;" d="M323.365,300.21c-0.378,0.183-1.19,0.393-2.256,0.406l-0.237,0.477
			c0.546,0.126,1.022,0.49,1.022,1.148c0,0.967-0.869,1.289-1.667,1.289c-0.42,0-0.883-0.084-1.205-0.267l0.28-0.868
			c0.21,0.112,0.532,0.196,0.784,0.196c0.28,0,0.505-0.098,0.505-0.336c0-0.295-0.322-0.448-1.106-0.532l0.532-1.163
			c-2.662-0.351-4.021-2.241-4.021-4.664c0-3.222,2.297-5.015,5.155-5.015c1.106,0,1.946,0.224,2.325,0.42l-0.435,1.694
			c-0.435-0.182-1.037-0.35-1.793-0.35c-1.695,0-3.012,1.022-3.012,3.123c0,1.892,1.121,3.082,3.025,3.082
			c0.645,0,1.359-0.14,1.779-0.308L323.365,300.21z"/>
		<path style="fill:#FFFFFF;" d="M327.101,298.054l-0.673,2.423h-2.213l2.886-9.441h2.801l2.928,9.441h-2.297l-0.729-2.423H327.101z
			 M326.653,290.461c-0.042-1.177,0.406-1.778,1.078-1.778c0.378,0,0.631,0.126,0.896,0.279c0.225,0.141,0.435,0.267,0.616,0.267
			c0.238,0,0.322-0.14,0.379-0.603h0.952c0.042,1.261-0.364,1.751-1.106,1.751c-0.379,0-0.658-0.126-0.911-0.266
			c-0.237-0.126-0.406-0.253-0.588-0.253c-0.183,0-0.309,0.211-0.336,0.603H326.653z M329.496,296.456l-0.588-2.003
			c-0.168-0.561-0.336-1.261-0.477-1.82h-0.027c-0.141,0.56-0.28,1.274-0.435,1.82l-0.561,2.003H329.496z"/>
		<path style="fill:#FFFFFF;" d="M342.378,295.658c0,3.096-1.877,4.973-4.637,4.973c-2.802,0-4.44-2.115-4.44-4.805
			c0-2.83,1.807-4.944,4.595-4.944C340.794,290.882,342.378,293.053,342.378,295.658z M335.555,295.784
			c0,1.849,0.869,3.151,2.298,3.151c1.442,0,2.269-1.373,2.269-3.208c0-1.694-0.812-3.151-2.283-3.151
			C336.396,292.576,335.555,293.949,335.555,295.784z"/>
		<path style="fill:#FFFFFF;" d="M346.601,291.161c0.784-0.126,1.807-0.195,2.885-0.195c1.793,0,2.956,0.321,3.866,1.008
			c0.98,0.729,1.598,1.892,1.598,3.559c0,1.807-0.659,3.054-1.569,3.823c-0.994,0.827-2.507,1.219-4.356,1.219
			c-1.106,0-1.891-0.069-2.423-0.14V291.161z M348.744,298.865c0.183,0.043,0.477,0.043,0.742,0.043
			c1.934,0.014,3.194-1.051,3.194-3.307c0.014-1.961-1.135-2.997-2.97-2.997c-0.477,0-0.784,0.042-0.967,0.084V298.865z"/>
		<path style="fill:#FFFFFF;" d="M361.962,296.484h-3.475v2.241h3.881v1.751h-6.023v-9.441h5.827v1.751h-3.685v1.961h3.475V296.484z
			"/>
		<path style="fill:#FFFFFF;" d="M366.718,298.277c0.574,0.294,1.457,0.588,2.367,0.588c0.981,0,1.499-0.406,1.499-1.022
			c0-0.588-0.448-0.924-1.583-1.33c-1.568-0.547-2.591-1.415-2.591-2.788c0-1.61,1.345-2.843,3.571-2.843
			c1.065,0,1.85,0.224,2.41,0.476l-0.477,1.723c-0.378-0.182-1.051-0.447-1.976-0.447c-0.924,0-1.372,0.42-1.372,0.91
			c0,0.603,0.532,0.868,1.751,1.33c1.667,0.617,2.451,1.485,2.451,2.816c0,1.582-1.219,2.927-3.811,2.927
			c-1.078,0-2.143-0.279-2.675-0.574L366.718,298.277z"/>
		<path style="fill:#FFFFFF;" d="M376.351,291.035v9.441h-2.143v-9.441H376.351z"/>
		<path style="fill:#FFFFFF;" d="M378.268,298.277c0.575,0.294,1.457,0.588,2.368,0.588c0.98,0,1.498-0.406,1.498-1.022
			c0-0.588-0.448-0.924-1.583-1.33c-1.568-0.547-2.591-1.415-2.591-2.788c0-1.61,1.345-2.843,3.572-2.843
			c1.064,0,1.849,0.224,2.409,0.476l-0.477,1.723c-0.378-0.182-1.051-0.447-1.976-0.447c-0.924,0-1.372,0.42-1.372,0.91
			c0,0.603,0.532,0.868,1.751,1.33c1.667,0.617,2.451,1.485,2.451,2.816c0,1.582-1.219,2.927-3.811,2.927
			c-1.078,0-2.143-0.279-2.675-0.574L378.268,298.277z"/>
		<path style="fill:#FFFFFF;" d="M387.579,292.828h-2.535v-1.793h7.256v1.793h-2.577v7.648h-2.144V292.828z"/>
		<path style="fill:#FFFFFF;" d="M399.047,296.484h-3.475v2.241h3.88v1.751h-6.022v-9.441h5.827v1.751h-3.685v1.961h3.475V296.484z"
			/>
		<path style="fill:#FFFFFF;" d="M408.89,296.862c-0.042-1.135-0.084-2.507-0.084-3.88h-0.042c-0.295,1.205-0.687,2.55-1.051,3.656
			l-1.148,3.684h-1.667l-1.009-3.656c-0.309-1.106-0.631-2.451-0.854-3.684h-0.028c-0.056,1.274-0.098,2.731-0.168,3.908
			l-0.168,3.586h-1.975l0.602-9.441h2.844l0.925,3.152c0.294,1.092,0.588,2.269,0.798,3.375h0.042
			c0.267-1.092,0.589-2.339,0.896-3.39l1.009-3.138h2.788l0.518,9.441h-2.087L408.89,296.862z"/>
		<path style="fill:#FFFFFF;" d="M414.908,298.054l-0.673,2.423h-2.213l2.886-9.441h2.801l2.928,9.441h-2.297l-0.729-2.423H414.908z
			 M417.302,296.456l-0.588-2.003c-0.168-0.561-0.336-1.261-0.477-1.82h-0.027c-0.141,0.56-0.28,1.274-0.435,1.82l-0.561,2.003
			H417.302z"/>
		<path style="fill:#FFFFFF;" d="M421.961,298.277c0.575,0.294,1.457,0.588,2.368,0.588c0.98,0,1.498-0.406,1.498-1.022
			c0-0.588-0.448-0.924-1.583-1.33c-1.568-0.547-2.591-1.415-2.591-2.788c0-1.61,1.345-2.843,3.572-2.843
			c1.064,0,1.849,0.224,2.409,0.476l-0.477,1.723c-0.378-0.182-1.051-0.447-1.976-0.447c-0.924,0-1.372,0.42-1.372,0.91
			c0,0.603,0.532,0.868,1.751,1.33c1.667,0.617,2.451,1.485,2.451,2.816c0,1.582-1.219,2.927-3.811,2.927
			c-1.078,0-2.143-0.279-2.675-0.574L421.961,298.277z"/>
		<path style="fill:#FFFFFF;" d="M123.895,313.663c-0.042-1.135-0.084-2.507-0.084-3.88h-0.042c-0.294,1.205-0.687,2.55-1.05,3.656
			l-1.149,3.684h-1.667l-1.008-3.656c-0.308-1.106-0.63-2.451-0.854-3.684h-0.028c-0.056,1.274-0.098,2.731-0.168,3.908
			l-0.168,3.586h-1.975l0.603-9.441h2.843l0.925,3.152c0.294,1.092,0.588,2.269,0.798,3.375h0.042
			c0.266-1.092,0.588-2.339,0.896-3.39l1.008-3.138h2.788l0.519,9.441h-2.087L123.895,313.663z"/>
		<path style="fill:#FFFFFF;" d="M133.372,313.285h-3.474v2.241h3.88v1.751h-6.023v-9.441h5.827v1.751h-3.684v1.961h3.474V313.285z"
			/>
		<path style="fill:#FFFFFF;" d="M135.231,307.836h2.144v7.648h3.754v1.793h-5.897V307.836z"/>
		<path style="fill:#FFFFFF;" d="M144.528,307.836v3.628h3.516v-3.628h2.129v9.441h-2.129v-3.95h-3.516v3.95h-2.144v-9.441H144.528z
			"/>
		<path style="fill:#FFFFFF;" d="M160.673,312.459c0,3.096-1.877,4.973-4.637,4.973c-2.801,0-4.44-2.115-4.44-4.805
			c0-2.83,1.807-4.944,4.595-4.944C159.09,307.683,160.673,309.854,160.673,312.459z M153.852,312.585
			c0,1.849,0.868,3.151,2.297,3.151c1.443,0,2.27-1.373,2.27-3.208c0-1.694-0.812-3.151-2.283-3.151
			C154.692,309.377,153.852,310.75,153.852,312.585z"/>
		<path style="fill:#FFFFFF;" d="M162.068,307.962c0.687-0.111,1.709-0.195,2.844-0.195c1.401,0,2.381,0.21,3.054,0.742
			c0.56,0.448,0.868,1.106,0.868,1.975c0,1.205-0.854,2.031-1.667,2.325v0.042c0.658,0.267,1.022,0.896,1.26,1.766
			c0.294,1.064,0.588,2.297,0.771,2.661h-2.185c-0.154-0.267-0.378-1.036-0.658-2.199c-0.252-1.177-0.659-1.499-1.527-1.513h-0.645
			v3.712h-2.115V307.962z M164.184,312.025h0.84c1.065,0,1.695-0.532,1.695-1.358c0-0.869-0.588-1.303-1.569-1.317
			c-0.519,0-0.812,0.042-0.967,0.07V312.025z"/>
		<path style="fill:#FFFFFF;" d="M172.695,314.855l-0.672,2.423h-2.213l2.885-9.441h2.802l2.928,9.441h-2.297l-0.729-2.423H172.695z
			 M175.091,313.257l-0.588-2.003c-0.168-0.561-0.336-1.261-0.476-1.82h-0.028c-0.14,0.56-0.28,1.274-0.434,1.82l-0.561,2.003
			H175.091z"/>
		<path style="fill:#FFFFFF;" d="M179.68,317.277v-9.441h2.494l1.961,3.46c0.561,0.995,1.121,2.171,1.541,3.236h0.042
			c-0.14-1.247-0.182-2.521-0.182-3.937v-2.76h1.961v9.441h-2.241l-2.017-3.642c-0.561-1.009-1.177-2.228-1.639-3.334l-0.042,0.014
			c0.056,1.247,0.084,2.577,0.084,4.118v2.844H179.68z"/>
		<path style="fill:#FFFFFF;" d="M189.34,307.962c0.785-0.126,1.807-0.195,2.886-0.195c1.793,0,2.956,0.321,3.866,1.008
			c0.98,0.729,1.597,1.892,1.597,3.559c0,1.807-0.658,3.054-1.569,3.823c-0.995,0.827-2.507,1.219-4.356,1.219
			c-1.106,0-1.891-0.069-2.423-0.14V307.962z M191.483,315.666c0.182,0.043,0.476,0.043,0.742,0.043
			c1.933,0.014,3.194-1.051,3.194-3.307c0.014-1.961-1.135-2.997-2.97-2.997c-0.476,0-0.785,0.042-0.966,0.084V315.666z"/>
		<path style="fill:#FFFFFF;" d="M207.727,312.459c0,3.096-1.877,4.973-4.637,4.973c-2.801,0-4.44-2.115-4.44-4.805
			c0-2.83,1.807-4.944,4.595-4.944C206.144,307.683,207.727,309.854,207.727,312.459z M200.905,312.585
			c0,1.849,0.868,3.151,2.297,3.151c1.443,0,2.27-1.373,2.27-3.208c0-1.694-0.812-3.151-2.283-3.151
			C201.746,309.377,200.905,310.75,200.905,312.585z"/>
		<path style="fill:#FFFFFF;" d="M214.149,314.855l-0.672,2.423h-2.213l2.885-9.441h2.802l2.928,9.441h-2.297l-0.729-2.423H214.149z
			 M216.545,313.257l-0.588-2.003c-0.168-0.561-0.336-1.261-0.476-1.82h-0.028c-0.14,0.56-0.28,1.274-0.434,1.82l-0.561,2.003
			H216.545z"/>
		<path style="fill:#FFFFFF;" d="M229.58,313.285h-3.474v2.241h3.88v1.751h-6.023v-9.441h5.827v1.751h-3.684v1.961h3.474V313.285z"
			/>
		<path style="fill:#FFFFFF;" d="M236.411,317.277l-0.854-1.709c-0.35-0.658-0.574-1.148-0.84-1.695h-0.028
			c-0.196,0.547-0.434,1.037-0.729,1.695l-0.784,1.709h-2.438l2.731-4.776l-2.633-4.665h2.451l0.827,1.724
			c0.28,0.574,0.49,1.036,0.714,1.568h0.028c0.224-0.603,0.406-1.022,0.645-1.568l0.798-1.724h2.438l-2.662,4.608l2.801,4.833
			H236.411z"/>
		<path style="fill:#FFFFFF;" d="M240.021,307.962c0.659-0.111,1.583-0.195,2.886-0.195c1.317,0,2.255,0.252,2.886,0.756
			c0.602,0.477,1.008,1.261,1.008,2.186c0,0.924-0.308,1.709-0.869,2.241c-0.728,0.687-1.807,0.994-3.067,0.994
			c-0.28,0-0.532-0.014-0.729-0.042v3.376h-2.115V307.962z M242.136,312.249c0.182,0.042,0.406,0.056,0.714,0.056
			c1.135,0,1.835-0.574,1.835-1.541c0-0.868-0.602-1.387-1.667-1.387c-0.435,0-0.729,0.042-0.883,0.084V312.249z"/>
		<path style="fill:#FFFFFF;" d="M253.772,313.285h-3.474v2.241h3.88v1.751h-6.023v-9.441h5.827v1.751h-3.684v1.961h3.474V313.285z"
			/>
		<path style="fill:#FFFFFF;" d="M255.63,307.962c0.687-0.111,1.709-0.195,2.844-0.195c1.401,0,2.381,0.21,3.054,0.742
			c0.56,0.448,0.868,1.106,0.868,1.975c0,1.205-0.854,2.031-1.667,2.325v0.042c0.658,0.267,1.022,0.896,1.261,1.766
			c0.294,1.064,0.588,2.297,0.77,2.661h-2.185c-0.154-0.267-0.378-1.036-0.658-2.199c-0.252-1.177-0.659-1.499-1.527-1.513h-0.645
			v3.712h-2.115V307.962z M257.746,312.025h0.84c1.065,0,1.695-0.532,1.695-1.358c0-0.869-0.588-1.303-1.569-1.317
			c-0.519,0-0.812,0.042-0.967,0.07V312.025z"/>
		<path style="fill:#FFFFFF;" d="M266.076,307.836v9.441h-2.144v-9.441H266.076z"/>
		<path style="fill:#FFFFFF;" d="M273.541,313.285h-3.475v2.241h3.881v1.751h-6.023v-9.441h5.827v1.751h-3.685v1.961h3.475V313.285z
			 M271.691,305.609l1.429,1.723h-1.499l-0.714-0.868h-0.028l-0.7,0.868h-1.484l1.4-1.723H271.691z"/>
		<path style="fill:#FFFFFF;" d="M275.399,317.277v-9.441h2.493l1.961,3.46c0.561,0.995,1.121,2.171,1.541,3.236h0.042
			c-0.141-1.247-0.183-2.521-0.183-3.937v-2.76h1.961v9.441h-2.24l-2.018-3.642c-0.561-1.009-1.177-2.228-1.639-3.334l-0.042,0.014
			c0.056,1.247,0.084,2.577,0.084,4.118v2.844H275.399z"/>
		<path style="fill:#FFFFFF;" d="M291.993,317.011c-0.393,0.196-1.274,0.406-2.424,0.406c-3.264,0-4.944-2.03-4.944-4.72
			c0-3.222,2.297-5.015,5.155-5.015c1.106,0,1.946,0.224,2.325,0.42l-0.435,1.694c-0.435-0.182-1.036-0.35-1.793-0.35
			c-1.695,0-3.012,1.022-3.012,3.123c0,1.892,1.121,3.082,3.025,3.082c0.645,0,1.359-0.14,1.779-0.308L291.993,317.011z"/>
		<path style="fill:#FFFFFF;" d="M295.532,307.836v9.441h-2.143v-9.441H295.532z"/>
		<path style="fill:#FFFFFF;" d="M299.579,314.855l-0.673,2.423h-2.213l2.886-9.441h2.801l2.928,9.441h-2.297l-0.729-2.423H299.579z
			 M301.973,313.257l-0.588-2.003c-0.168-0.561-0.336-1.261-0.477-1.82h-0.027c-0.141,0.56-0.28,1.274-0.435,1.82l-0.561,2.003
			H301.973z"/>
		<path style="fill:#FFFFFF;" d="M309.391,307.962c0.784-0.126,1.807-0.195,2.886-0.195c1.793,0,2.955,0.321,3.865,1.008
			c0.98,0.729,1.598,1.892,1.598,3.559c0,1.807-0.659,3.054-1.569,3.823c-0.994,0.827-2.507,1.219-4.356,1.219
			c-1.106,0-1.891-0.069-2.423-0.14V307.962z M311.534,315.666c0.183,0.043,0.477,0.043,0.743,0.043
			c1.933,0.014,3.193-1.051,3.193-3.307c0.014-1.961-1.135-2.997-2.97-2.997c-0.477,0-0.784,0.042-0.967,0.084V315.666z"/>
		<path style="fill:#FFFFFF;" d="M327.778,312.459c0,3.096-1.877,4.973-4.637,4.973c-2.802,0-4.44-2.115-4.44-4.805
			c0-2.83,1.807-4.944,4.595-4.944C326.195,307.683,327.778,309.854,327.778,312.459z M320.956,312.585
			c0,1.849,0.869,3.151,2.298,3.151c1.442,0,2.269-1.373,2.269-3.208c0-1.694-0.812-3.151-2.283-3.151
			C321.796,309.377,320.956,310.75,320.956,312.585z"/>
		<path style="fill:#FFFFFF;" d="M338.935,317.011c-0.393,0.196-1.274,0.406-2.424,0.406c-3.264,0-4.944-2.03-4.944-4.72
			c0-3.222,2.297-5.015,5.155-5.015c1.106,0,1.946,0.224,2.325,0.42l-0.435,1.694c-0.435-0.182-1.037-0.35-1.793-0.35
			c-1.695,0-3.012,1.022-3.012,3.123c0,1.892,1.121,3.082,3.025,3.082c0.645,0,1.359-0.14,1.779-0.308L338.935,317.011z"/>
		<path style="fill:#FFFFFF;" d="M348.554,312.459c0,3.096-1.877,4.973-4.637,4.973c-2.802,0-4.44-2.115-4.44-4.805
			c0-2.83,1.807-4.944,4.595-4.944C346.971,307.683,348.554,309.854,348.554,312.459z M341.732,312.585
			c0,1.849,0.869,3.151,2.298,3.151c1.442,0,2.269-1.373,2.269-3.208c0-1.694-0.812-3.151-2.283-3.151
			C342.573,309.377,341.732,310.75,341.732,312.585z"/>
		<path style="fill:#FFFFFF;" d="M349.95,307.836h2.143v7.648h3.754v1.793h-5.896V307.836z"/>
		<path style="fill:#FFFFFF;" d="M359.386,314.855l-0.673,2.423h-2.213l2.886-9.441h2.801l2.928,9.441h-2.297l-0.729-2.423H359.386z
			 M361.781,313.257l-0.588-2.003c-0.168-0.561-0.336-1.261-0.477-1.82h-0.027c-0.141,0.56-0.28,1.274-0.435,1.82l-0.561,2.003
			H361.781z"/>
		<path style="fill:#FFFFFF;" d="M366.371,307.962c0.56-0.111,1.694-0.195,2.759-0.195c1.303,0,2.102,0.126,2.788,0.532
			c0.658,0.35,1.135,0.994,1.135,1.849c0,0.841-0.49,1.625-1.555,2.018v0.027c1.078,0.294,1.877,1.106,1.877,2.325
			c0,0.854-0.393,1.527-0.98,2.003c-0.687,0.547-1.836,0.854-3.713,0.854c-1.05,0-1.835-0.069-2.311-0.14V307.962z M368.486,311.576
			h0.7c1.12,0,1.723-0.462,1.723-1.162c0-0.715-0.546-1.093-1.513-1.093c-0.462,0-0.729,0.027-0.91,0.056V311.576z M368.486,315.765
			c0.21,0.028,0.462,0.028,0.826,0.028c0.967,0,1.821-0.364,1.821-1.359c0-0.952-0.854-1.33-1.92-1.33h-0.728V315.765z"/>
		<path style="fill:#FFFFFF;" d="M383.469,312.459c0,3.096-1.877,4.973-4.637,4.973c-2.802,0-4.44-2.115-4.44-4.805
			c0-2.83,1.807-4.944,4.595-4.944C381.886,307.683,383.469,309.854,383.469,312.459z M376.647,312.585
			c0,1.849,0.869,3.151,2.298,3.151c1.442,0,2.269-1.373,2.269-3.208c0-1.694-0.812-3.151-2.283-3.151
			C377.488,309.377,376.647,310.75,376.647,312.585z"/>
		<path style="fill:#FFFFFF;" d="M384.865,307.962c0.687-0.111,1.709-0.195,2.843-0.195c1.401,0,2.382,0.21,3.054,0.742
			c0.561,0.448,0.869,1.106,0.869,1.975c0,1.205-0.854,2.031-1.667,2.325v0.042c0.658,0.267,1.022,0.896,1.261,1.766
			c0.294,1.064,0.588,2.297,0.771,2.661h-2.186c-0.154-0.267-0.378-1.036-0.658-2.199c-0.252-1.177-0.658-1.499-1.527-1.513h-0.644
			v3.712h-2.115V307.962z M386.98,312.025h0.84c1.064,0,1.695-0.532,1.695-1.358c0-0.869-0.589-1.303-1.569-1.317
			c-0.518,0-0.812,0.042-0.966,0.07V312.025z"/>
		<path style="fill:#FFFFFF;" d="M395.492,314.855l-0.673,2.423h-2.213l2.886-9.441h2.801l2.928,9.441h-2.297l-0.729-2.423H395.492z
			 M397.886,313.257l-0.588-2.003c-0.168-0.561-0.336-1.261-0.477-1.82h-0.027c-0.141,0.56-0.28,1.274-0.435,1.82l-0.561,2.003
			H397.886z"/>
		<path style="fill:#FFFFFF;" d="M402.476,307.962c0.784-0.126,1.807-0.195,2.885-0.195c1.793,0,2.956,0.321,3.866,1.008
			c0.98,0.729,1.598,1.892,1.598,3.559c0,1.807-0.659,3.054-1.569,3.823c-0.994,0.827-2.507,1.219-4.356,1.219
			c-1.106,0-1.891-0.069-2.423-0.14V307.962z M404.619,315.666c0.183,0.043,0.477,0.043,0.742,0.043
			c1.934,0.014,3.194-1.051,3.194-3.307c0.014-1.961-1.135-2.997-2.97-2.997c-0.477,0-0.784,0.042-0.967,0.084V315.666z"/>
		<path style="fill:#FFFFFF;" d="M420.863,312.459c0,3.096-1.877,4.973-4.637,4.973c-2.802,0-4.44-2.115-4.44-4.805
			c0-2.83,1.807-4.944,4.595-4.944C419.28,307.683,420.863,309.854,420.863,312.459z M414.041,312.585
			c0,1.849,0.869,3.151,2.298,3.151c1.442,0,2.269-1.373,2.269-3.208c0-1.694-0.812-3.151-2.283-3.151
			C414.881,309.377,414.041,310.75,414.041,312.585z"/>
		<path style="fill:#FFFFFF;" d="M422.258,307.962c0.687-0.111,1.709-0.195,2.843-0.195c1.401,0,2.382,0.21,3.054,0.742
			c0.561,0.448,0.869,1.106,0.869,1.975c0,1.205-0.854,2.031-1.667,2.325v0.042c0.658,0.267,1.022,0.896,1.261,1.766
			c0.294,1.064,0.588,2.297,0.771,2.661h-2.186c-0.154-0.267-0.378-1.036-0.658-2.199c-0.252-1.177-0.658-1.499-1.527-1.513h-0.644
			v3.712h-2.115V307.962z M424.374,312.025h0.84c1.064,0,1.695-0.532,1.695-1.358c0-0.869-0.589-1.303-1.569-1.317
			c-0.518,0-0.812,0.042-0.966,0.07V312.025z"/>
		<path style="fill:#FFFFFF;" d="M433.388,317.277v-9.441h2.493l1.961,3.46c0.561,0.995,1.12,2.171,1.541,3.236h0.042
			c-0.141-1.247-0.183-2.521-0.183-3.937v-2.76h1.962v9.441h-2.242l-2.017-3.642c-0.561-1.009-1.177-2.228-1.639-3.334l-0.042,0.014
			c0.056,1.247,0.084,2.577,0.084,4.118v2.844H433.388z"/>
		<path style="fill:#FFFFFF;" d="M451.691,312.459c0,3.096-1.877,4.973-4.637,4.973c-2.802,0-4.44-2.115-4.44-4.805
			c0-2.83,1.807-4.944,4.595-4.944C450.108,307.683,451.691,309.854,451.691,312.459z M444.869,312.585
			c0,1.849,0.869,3.151,2.298,3.151c1.442,0,2.269-1.373,2.269-3.208c0-1.694-0.812-3.151-2.283-3.151
			C445.71,309.377,444.869,310.75,444.869,312.585z"/>
		<path style="fill:#FFFFFF;" d="M118.11,331.654l-0.672,2.423h-2.213l2.885-9.441h2.802l2.927,9.441h-2.297l-0.729-2.423H118.11z
			 M120.505,330.057l-0.588-2.003c-0.168-0.561-0.336-1.261-0.476-1.821h-0.028c-0.14,0.561-0.28,1.275-0.434,1.821l-0.561,2.003
			H120.505z"/>
		<path style="fill:#FFFFFF;" d="M125.754,326.429h-2.536v-1.793h7.256v1.793h-2.577v7.648h-2.143V326.429z"/>
		<path style="fill:#FFFFFF;" d="M137.222,330.085h-3.474v2.241h3.88v1.751h-6.023v-9.441h5.827v1.751h-3.684v1.961h3.474V330.085z"
			/>
		<path style="fill:#FFFFFF;" d="M139.081,334.077v-9.441h2.494l1.961,3.46c0.561,0.995,1.121,2.172,1.541,3.236h0.042
			c-0.14-1.247-0.182-2.521-0.182-3.937v-2.76h1.961v9.441h-2.241l-2.017-3.642c-0.561-1.009-1.177-2.228-1.639-3.334l-0.042,0.014
			c0.056,1.247,0.084,2.577,0.084,4.118v2.844H139.081z"/>
		<path style="fill:#FFFFFF;" d="M148.74,324.762c0.785-0.126,1.807-0.195,2.886-0.195c1.793,0,2.956,0.322,3.866,1.008
			c0.98,0.729,1.597,1.892,1.597,3.559c0,1.807-0.658,3.054-1.569,3.824c-0.995,0.826-2.507,1.218-4.356,1.218
			c-1.106,0-1.891-0.069-2.423-0.14V324.762z M150.884,332.466c0.182,0.042,0.476,0.042,0.742,0.042
			c1.933,0.015,3.194-1.05,3.194-3.306c0.014-1.961-1.135-2.997-2.97-2.997c-0.476,0-0.785,0.042-0.966,0.084V332.466z"/>
		<path style="fill:#FFFFFF;" d="M160.628,324.636v9.441h-2.144v-9.441H160.628z"/>
		<path style="fill:#FFFFFF;" d="M170.459,330.463c-0.042-1.135-0.084-2.507-0.084-3.88h-0.042c-0.294,1.205-0.687,2.55-1.05,3.656
			l-1.149,3.684h-1.667l-1.008-3.655c-0.308-1.107-0.63-2.452-0.854-3.685h-0.028c-0.056,1.274-0.098,2.731-0.168,3.908
			l-0.168,3.586h-1.975l0.603-9.441h2.843l0.925,3.152c0.294,1.092,0.588,2.269,0.798,3.376h0.042
			c0.266-1.093,0.588-2.34,0.896-3.391l1.008-3.138h2.788l0.519,9.441h-2.087L170.459,330.463z"/>
		<path style="fill:#FFFFFF;" d="M179.935,330.085h-3.474v2.241h3.88v1.751h-6.023v-9.441h5.827v1.751h-3.684v1.961h3.474V330.085z"
			/>
		<path style="fill:#FFFFFF;" d="M181.794,334.077v-9.441h2.494l1.961,3.46c0.56,0.995,1.121,2.172,1.541,3.236h0.042
			c-0.14-1.247-0.182-2.521-0.182-3.937v-2.76h1.961v9.441h-2.241l-2.017-3.642c-0.56-1.009-1.177-2.228-1.639-3.334l-0.042,0.014
			c0.056,1.247,0.084,2.577,0.084,4.118v2.844H181.794z"/>
		<path style="fill:#FFFFFF;" d="M193.275,326.429h-2.536v-1.793h7.256v1.793h-2.577v7.648h-2.143V326.429z"/>
		<path style="fill:#FFFFFF;" d="M207.363,329.259c0,3.096-1.877,4.973-4.637,4.973c-2.801,0-4.44-2.115-4.44-4.805
			c0-2.83,1.807-4.944,4.595-4.944C205.78,324.483,207.363,326.653,207.363,329.259z M200.541,329.385
			c0,1.849,0.868,3.151,2.297,3.151c1.443,0,2.27-1.372,2.27-3.208c0-1.694-0.812-3.151-2.283-3.151
			C201.381,326.177,200.541,327.55,200.541,329.385z"/>
		<path style="fill:#FFFFFF;" d="M213.785,331.654l-0.672,2.423H210.9l2.885-9.441h2.802l2.928,9.441h-2.297l-0.729-2.423H213.785z
			 M216.181,330.057l-0.588-2.003c-0.168-0.561-0.336-1.261-0.476-1.821h-0.028c-0.14,0.561-0.28,1.275-0.434,1.821l-0.561,2.003
			H216.181z"/>
		<path style="fill:#FFFFFF;" d="M229.064,329.259c0,3.096-1.877,4.973-4.637,4.973c-2.802,0-4.44-2.115-4.44-4.805
			c0-2.83,1.807-4.944,4.595-4.944C227.481,324.483,229.064,326.653,229.064,329.259z M222.242,329.385
			c0,1.849,0.868,3.151,2.297,3.151c1.442,0,2.269-1.372,2.269-3.208c0-1.694-0.812-3.151-2.283-3.151
			C223.082,326.177,222.242,327.55,222.242,329.385z"/>
		<path style="fill:#FFFFFF;" d="M240.221,333.811c-0.393,0.196-1.275,0.406-2.423,0.406c-3.264,0-4.945-2.03-4.945-4.72
			c0-3.222,2.297-5.015,5.155-5.015c1.106,0,1.947,0.224,2.325,0.42l-0.434,1.694c-0.434-0.182-1.037-0.35-1.793-0.35
			c-1.695,0-3.012,1.022-3.012,3.124c0,1.891,1.121,3.081,3.026,3.081c0.644,0,1.358-0.14,1.779-0.308L240.221,333.811z"/>
		<path style="fill:#FFFFFF;" d="M241.616,324.636h2.144v7.648h3.754v1.793h-5.897V324.636z"/>
		<path style="fill:#FFFFFF;" d="M250.914,324.636v9.441h-2.144v-9.441H250.914z"/>
		<path style="fill:#FFFFFF;" d="M258.377,330.085h-3.474v2.241h3.88v1.751h-6.023v-9.441h5.827v1.751h-3.684v1.961h3.474V330.085z"
			/>
		<path style="fill:#FFFFFF;" d="M260.236,334.077v-9.441h2.494l1.961,3.46c0.561,0.995,1.121,2.172,1.541,3.236h0.042
			c-0.14-1.247-0.182-2.521-0.182-3.937v-2.76h1.961v9.441h-2.241l-2.017-3.642c-0.561-1.009-1.177-2.228-1.639-3.334l-0.042,0.014
			c0.056,1.247,0.084,2.577,0.084,4.118v2.844H260.236z"/>
		<path style="fill:#FFFFFF;" d="M271.716,326.429h-2.535v-1.793h7.256v1.793h-2.577v7.648h-2.144V326.429z"/>
		<path style="fill:#FFFFFF;" d="M283.185,330.085h-3.475v2.241h3.881v1.751h-6.023v-9.441h5.827v1.751h-3.685v1.961h3.475V330.085z
			"/>
		<path style="fill:#FFFFFF;" d="M284.708,332.942c0-0.756,0.519-1.303,1.261-1.303s1.247,0.532,1.247,1.303
			c0,0.742-0.505,1.289-1.261,1.289C285.226,334.232,284.708,333.685,284.708,332.942z"/>
	</g>
</g>
<g id="Layer_1">
</g>
</svg>
