<?xml version="1.0" encoding="iso-8859-1"?>
<!-- Generator: Adobe Illustrator 18.0.0, SVG Export Plug-In . SVG Version: 6.00 Build 0)  -->
<!DOCTYPE svg PUBLIC "-//W3C//DTD SVG 1.1//EN" "http://www.w3.org/Graphics/SVG/1.1/DTD/svg11.dtd">
<svg version="1.1" xmlns="http://www.w3.org/2000/svg" xmlns:xlink="http://www.w3.org/1999/xlink" x="0px" y="0px"
	 viewBox="0 0 531.453 494.191" style="enable-background:new 0 0 531.453 494.191;" xml:space="preserve">
<g id="page13-1">
	
		<polygon style="fill:none;stroke:#000000;stroke-width:3.6793;stroke-linecap:round;stroke-linejoin:round;stroke-miterlimit:10;" points="
		43.446,14.904 69.635,406.333 475.632,438.052 529.613,82.648 	"/>
	<polygon style="opacity:0.8;fill:#E92325;" points="100.919,49.06 83.146,447.249 518.153,405.508 454.366,31.542 	"/>
	<polygon style="fill:#03B9DB;" points="23.262,106.379 387.98,82.648 390.61,211.407 20.388,285.052 	"/>
	
		<polyline style="fill:none;stroke:#000000;stroke-width:3.6793;stroke-linecap:round;stroke-linejoin:round;stroke-miterlimit:10;" points="
		45.65,296.379 1.84,305.543 4.782,122.591 	"/>
	<g>
		<g>
			<g>
				
					<line style="fill:none;stroke:#000000;stroke-width:3.6793;stroke-linecap:round;stroke-linejoin:round;stroke-miterlimit:10;" x1="20.388" y1="335.586" x2="43.803" y2="335.586"/>
				
					<line style="fill:none;stroke:#000000;stroke-width:3.6793;stroke-linecap:round;stroke-linejoin:round;stroke-miterlimit:10;" x1="32.095" y1="323.878" x2="32.095" y2="347.293"/>
			</g>
			<g>
				
					<line style="fill:none;stroke:#000000;stroke-width:3.6793;stroke-linecap:round;stroke-linejoin:round;stroke-miterlimit:10;" x1="274.822" y1="453.476" x2="298.237" y2="453.476"/>
				
					<line style="fill:none;stroke:#000000;stroke-width:3.6793;stroke-linecap:round;stroke-linejoin:round;stroke-miterlimit:10;" x1="286.53" y1="441.769" x2="286.53" y2="465.184"/>
			</g>
			
				<path style="fill:none;stroke:#000000;stroke-width:3.6793;stroke-linecap:round;stroke-linejoin:round;stroke-miterlimit:10;" d="
				M503.274,13.043c8.685,13.564-5.72,27.969-19.284,19.284c-0.931-0.596-1.73-1.395-2.325-2.326
				c-8.681-13.563,5.721-27.965,19.283-19.283C501.879,11.313,502.678,12.112,503.274,13.043z"/>
			<g>
				
					<line style="fill:none;stroke:#000000;stroke-width:3.6793;stroke-linecap:round;stroke-linejoin:round;stroke-miterlimit:10;" x1="211.98" y1="1.84" x2="298.237" y2="1.84"/>
				
					<line style="fill:none;stroke:#000000;stroke-width:3.6793;stroke-linecap:round;stroke-linejoin:round;stroke-miterlimit:10;" x1="264.348" y1="21.523" x2="319.935" y2="21.523"/>
			</g>
			
				<path style="fill:none;stroke:#000000;stroke-width:3.6793;stroke-linecap:round;stroke-linejoin:round;stroke-miterlimit:10;" d="
				M216.304,470.431c8.681,13.563-5.721,27.965-19.283,19.283c-0.931-0.596-1.73-1.395-2.326-2.325
				c-8.685-13.564,5.72-27.969,19.284-19.284C214.91,468.702,215.709,469.501,216.304,470.431z"/>
		</g>
	</g>
	<g>
		<path style="fill:#FFFFFF;" d="M42.634,186.739c2.115-0.739,4.922-1.441,7.917-1.976c4.979-0.888,8.369-0.569,11.238,0.886
			c3.084,1.537,5.372,4.461,6.198,9.09c0.896,5.019-0.315,8.808-2.463,11.398c-2.353,2.789-6.359,4.628-11.495,5.544
			c-3.074,0.549-5.287,0.742-6.8,0.812L42.634,186.739z M52.404,207.075c0.527,0.027,1.344-0.119,2.083-0.25
			c5.376-0.919,8.351-4.501,7.232-10.765c-0.933-5.454-4.637-7.764-9.733-6.854c-1.322,0.236-2.157,0.505-2.643,0.712
			L52.404,207.075z"/>
		<path style="fill:#FFFFFF;" d="M75.597,180.496l4.679,26.223l-5.952,1.062l-4.679-26.223L75.597,180.496z"/>
		<path style="fill:#FFFFFF;" d="M80.794,179.931c1.851-0.652,4.649-1.392,7.8-1.955c3.891-0.694,6.719-0.596,8.85,0.549
			c1.778,0.967,2.961,2.643,3.391,5.055c0.598,3.346-1.366,6.065-3.478,7.284l0.021,0.117c1.96,0.413,3.284,1.984,4.376,4.278
			c1.344,2.811,2.772,6.089,3.459,7.01l-6.069,1.083c-0.561-0.663-1.564-2.692-2.919-5.782c-1.283-3.143-2.571-3.837-4.99-3.445
			l-1.79,0.32l1.84,10.31l-5.875,1.048L80.794,179.931z M88.68,190.165l2.335-0.417c2.957-0.527,4.443-2.318,4.034-4.613
			c-0.431-2.413-2.279-3.327-5.01-2.88c-1.439,0.257-2.235,0.52-2.65,0.674L88.68,190.165z"/>
		<path style="fill:#FFFFFF;" d="M122.098,187.816l-9.648,1.722l1.11,6.225l10.777-1.923l0.867,4.863l-16.729,2.985l-4.679-26.223
			l16.186-2.888l0.867,4.863l-10.232,1.826l0.972,5.447l9.649-1.722L122.098,187.816z"/>
		<path style="fill:#FFFFFF;" d="M130.71,175.802l-7.042,1.256l-0.889-4.98l20.153-3.596l0.889,4.98l-7.159,1.277l3.79,21.243
			l-5.952,1.062L130.71,175.802z"/>
		<path style="fill:#FFFFFF;" d="M146.142,168.272c1.851-0.652,4.648-1.392,7.801-1.955c3.891-0.694,6.718-0.596,8.849,0.549
			c1.778,0.967,2.961,2.643,3.392,5.055c0.597,3.346-1.367,6.065-3.479,7.284l0.021,0.117c1.96,0.413,3.284,1.983,4.376,4.277
			c1.345,2.811,2.772,6.089,3.459,7.01l-6.069,1.083c-0.561-0.663-1.564-2.692-2.919-5.782c-1.283-3.143-2.571-3.837-4.99-3.445
			l-1.79,0.319l1.84,10.31l-5.875,1.048L146.142,168.272z M154.029,178.506l2.335-0.416c2.957-0.528,4.443-2.319,4.034-4.614
			c-0.431-2.413-2.279-3.327-5.01-2.88c-1.439,0.257-2.236,0.52-2.65,0.674L154.029,178.506z"/>
		<path style="fill:#FFFFFF;" d="M175.097,162.744l4.679,26.223l-5.952,1.062l-4.678-26.223L175.097,162.744z"/>
		<path style="fill:#FFFFFF;" d="M182.668,185.159l9.282-20.203l-0.028-0.156l-11.321,2.02l-0.874-4.902l19.023-3.394l0.611,3.424
			l-9.051,19.92l0.028,0.156l12.41-2.214l0.875,4.902l-20.387,3.637L182.668,185.159z"/>
		<path style="fill:#FFFFFF;" d="M220.977,170.175l-9.648,1.721l1.11,6.225l10.776-1.923l0.868,4.863l-16.729,2.985l-4.679-26.223
			l16.186-2.888l0.867,4.863l-10.232,1.826l0.972,5.447l9.649-1.721L220.977,170.175z"/>
		<path style="fill:#FFFFFF;" d="M227.231,174.197c1.74,0.532,4.337,0.912,6.866,0.461c2.724-0.486,3.962-1.871,3.656-3.583
			c-0.291-1.634-1.703-2.346-5.056-2.911c-4.628-0.74-7.898-2.646-8.579-6.458c-0.798-4.474,2.326-8.564,8.512-9.667
			c2.957-0.528,5.247-0.294,6.929,0.129l-0.47,5.021c-1.141-0.318-3.14-0.725-5.708-0.266c-2.567,0.458-3.604,1.848-3.361,3.209
			c0.298,1.673,1.909,2.148,5.522,2.828c4.936,0.886,7.544,2.909,8.203,6.605c0.785,4.396-1.933,8.735-9.131,10.02
			c-2.996,0.534-6.092,0.284-7.716-0.269L227.231,174.197z"/>
		<path style="fill:#FFFFFF;" d="M252.373,149.319c2.115-0.739,4.92-1.441,7.917-1.975c4.979-0.889,8.368-0.569,11.237,0.886
			c3.085,1.537,5.372,4.461,6.198,9.091c0.896,5.019-0.315,8.808-2.462,11.398c-2.353,2.788-6.36,4.628-11.496,5.544
			c-3.073,0.548-5.287,0.742-6.8,0.811L252.373,149.319z M262.142,169.654c0.527,0.027,1.344-0.119,2.083-0.25
			c5.376-0.919,8.35-4.5,7.232-10.764c-0.933-5.455-4.638-7.764-9.733-6.855c-1.323,0.236-2.158,0.505-2.643,0.712L262.142,169.654z
			"/>
		<path style="fill:#FFFFFF;" d="M297.684,156.489l-9.648,1.722l1.11,6.225l10.777-1.923l0.868,4.863l-16.73,2.985l-4.679-26.223
			l16.186-2.888l0.867,4.863l-10.232,1.826l0.973,5.447l9.648-1.722L297.684,156.489z"/>
		<path style="fill:#FFFFFF;" d="M331.817,161.078c-0.992,0.739-3.34,1.76-6.529,2.329c-9.065,1.618-14.741-3.19-16.073-10.661
			c-1.597-8.948,3.895-15.066,11.832-16.482c3.073-0.548,5.52-0.342,6.667,0.015l-0.366,4.922c-1.296-0.291-3.053-0.459-5.154-0.084
			c-4.707,0.84-7.858,4.333-6.816,10.168c0.937,5.253,4.64,8.004,9.932,7.06c1.789-0.319,3.703-1.062,4.787-1.737L331.817,161.078z"
			/>
		<path style="fill:#FFFFFF;" d="M349.762,158.639l-3.22-4.323c-1.299-1.655-2.164-2.906-3.174-4.291l-0.078,0.014
			c-0.274,1.614-0.693,3.094-1.184,5.068l-1.332,5.135l-6.771,1.208l5.221-14.621l-9.626-11.65l6.809-1.215l3.148,4.376
			c1.063,1.457,1.876,2.636,2.762,4.003l0.078-0.014c0.324-1.784,0.622-3.041,1.013-4.677l1.364-5.181l6.77-1.208l-5.108,14.119
			l10.176,12.034L349.762,158.639z"/>
	</g>
	<g>
		<path style="fill:#FFFFFF;" d="M118.04,291.035v5.436c0,1.625,0.616,2.451,1.709,2.451c1.121,0,1.737-0.784,1.737-2.451v-5.436
			h2.129v5.295c0,2.914-1.471,4.301-3.937,4.301c-2.381,0-3.782-1.317-3.782-4.328v-5.268H118.04z"/>
		<path style="fill:#FFFFFF;" d="M133.443,296.862c-0.042-1.135-0.084-2.507-0.084-3.88h-0.042c-0.294,1.205-0.687,2.55-1.05,3.656
			l-1.149,3.684h-1.667l-1.008-3.656c-0.308-1.106-0.63-2.451-0.854-3.684h-0.028c-0.056,1.274-0.098,2.731-0.168,3.908
			l-0.168,3.586h-1.975l0.603-9.441h2.843l0.925,3.152c0.294,1.092,0.588,2.269,0.798,3.375h0.042
			c0.266-1.092,0.588-2.339,0.896-3.39l1.008-3.138h2.788l0.519,9.441h-2.087L133.443,296.862z"/>
		<path style="fill:#FFFFFF;" d="M148.017,300.042c-0.658,0.225-1.905,0.532-3.151,0.532c-1.723,0-2.97-0.434-3.838-1.274
			c-0.868-0.812-1.345-2.045-1.331-3.432c0.014-3.138,2.297-4.931,5.393-4.931c1.219,0,2.157,0.238,2.619,0.462l-0.448,1.709
			c-0.518-0.224-1.163-0.406-2.199-0.406c-1.779,0-3.124,1.009-3.124,3.054c0,1.947,1.219,3.096,2.97,3.096
			c0.49,0,0.882-0.056,1.05-0.14v-1.976h-1.457v-1.667h3.516V300.042z"/>
		<path style="fill:#FFFFFF;" d="M151.808,291.035v5.436c0,1.625,0.616,2.451,1.709,2.451c1.121,0,1.737-0.784,1.737-2.451v-5.436
			h2.129v5.295c0,2.914-1.471,4.301-3.937,4.301c-2.381,0-3.782-1.317-3.782-4.328v-5.268H151.808z"/>
		<path style="fill:#FFFFFF;" d="M161.37,291.035v9.441h-2.144v-9.441H161.37z"/>
		<path style="fill:#FFFFFF;" d="M165.415,298.054l-0.672,2.423h-2.213l2.885-9.441h2.802l2.928,9.441h-2.297l-0.729-2.423H165.415z
			 M167.811,296.456l-0.588-2.003c-0.168-0.561-0.336-1.261-0.476-1.82h-0.028c-0.14,0.56-0.28,1.274-0.434,1.82l-0.561,2.003
			H167.811z"/>
		<path style="fill:#FFFFFF;" d="M183.296,302.102c-1.345-0.393-2.465-0.799-3.726-1.331c-0.21-0.084-0.434-0.126-0.658-0.14
			c-2.129-0.141-4.118-1.709-4.118-4.791c0-2.829,1.793-4.958,4.608-4.958c2.886,0,4.469,2.185,4.469,4.762
			c0,2.144-0.995,3.656-2.241,4.217v0.056c0.728,0.21,1.541,0.379,2.283,0.532L183.296,302.102z M181.616,295.728
			c0-1.723-0.812-3.151-2.269-3.151c-1.457,0-2.297,1.429-2.297,3.193c-0.014,1.793,0.854,3.166,2.283,3.166
			C180.775,298.936,181.616,297.577,181.616,295.728z"/>
		<path style="fill:#FFFFFF;" d="M187.396,291.035v5.436c0,1.625,0.616,2.451,1.709,2.451c1.121,0,1.737-0.784,1.737-2.451v-5.436
			h2.129v5.295c0,2.914-1.471,4.301-3.937,4.301c-2.381,0-3.782-1.317-3.782-4.328v-5.268H187.396z"/>
		<path style="fill:#FFFFFF;" d="M200.431,296.484h-3.474v2.241h3.88v1.751h-6.023v-9.441h5.827v1.751h-3.684v1.961h3.474V296.484z"
			/>
		<path style="fill:#FFFFFF;" d="M207.262,291.035v9.441h-2.144v-9.441H207.262z"/>
		<path style="fill:#FFFFFF;" d="M209.108,300.477v-9.441h2.494l1.961,3.46c0.561,0.995,1.121,2.171,1.541,3.236h0.042
			c-0.14-1.247-0.182-2.521-0.182-3.937v-2.76h1.961v9.441h-2.241l-2.017-3.642c-0.561-1.009-1.177-2.228-1.639-3.334l-0.042,0.014
			c0.056,1.247,0.084,2.577,0.084,4.118v2.844H209.108z"/>
		<path style="fill:#FFFFFF;" d="M218.768,291.161c0.785-0.126,1.807-0.195,2.886-0.195c1.793,0,2.956,0.321,3.866,1.008
			c0.98,0.729,1.597,1.892,1.597,3.559c0,1.807-0.658,3.054-1.569,3.823c-0.995,0.827-2.507,1.219-4.356,1.219
			c-1.106,0-1.891-0.069-2.423-0.14V291.161z M220.911,298.865c0.182,0.043,0.476,0.043,0.742,0.043
			c1.933,0.014,3.194-1.051,3.194-3.307c0.014-1.961-1.135-2.997-2.97-2.997c-0.476,0-0.785,0.042-0.966,0.084V298.865z"/>
		<path style="fill:#FFFFFF;" d="M230.655,291.035v9.441h-2.144v-9.441H230.655z"/>
		<path style="fill:#FFFFFF;" d="M239.436,300.21c-0.393,0.196-1.275,0.406-2.423,0.406c-3.264,0-4.945-2.03-4.945-4.72
			c0-3.222,2.297-5.015,5.155-5.015c1.106,0,1.947,0.224,2.325,0.42l-0.434,1.694c-0.434-0.182-1.037-0.35-1.793-0.35
			c-1.695,0-3.012,1.022-3.012,3.123c0,1.892,1.121,3.082,3.026,3.082c0.644,0,1.358-0.14,1.779-0.308L239.436,300.21z"/>
		<path style="fill:#FFFFFF;" d="M243.17,298.054l-0.672,2.423h-2.213l2.885-9.441h2.802l2.927,9.441h-2.297l-0.729-2.423H243.17z
			 M245.566,296.456l-0.588-2.003c-0.168-0.561-0.336-1.261-0.476-1.82h-0.028c-0.14,0.56-0.28,1.274-0.434,1.82l-0.561,2.003
			H245.566z"/>
		<path style="fill:#FFFFFF;" d="M252.983,291.161c0.659-0.111,1.583-0.195,2.886-0.195c1.317,0,2.255,0.252,2.886,0.756
			c0.602,0.477,1.008,1.261,1.008,2.186c0,0.924-0.308,1.709-0.869,2.241c-0.728,0.687-1.807,0.994-3.067,0.994
			c-0.28,0-0.532-0.014-0.729-0.042v3.376h-2.115V291.161z M255.099,295.448c0.182,0.042,0.406,0.056,0.714,0.056
			c1.135,0,1.835-0.574,1.835-1.541c0-0.868-0.602-1.387-1.667-1.387c-0.435,0-0.729,0.042-0.883,0.084V295.448z"/>
		<path style="fill:#FFFFFF;" d="M263.261,291.035v9.441h-2.144v-9.441H263.261z"/>
		<path style="fill:#FFFFFF;" d="M265.107,291.035h2.144v7.648h3.754v1.793h-5.897V291.035z"/>
		<path style="fill:#FFFFFF;" d="M274.544,298.054l-0.673,2.423h-2.213l2.886-9.441h2.801l2.928,9.441h-2.297l-0.729-2.423H274.544z
			 M276.939,296.456l-0.588-2.003c-0.168-0.561-0.336-1.261-0.477-1.82h-0.027c-0.141,0.56-0.28,1.274-0.435,1.82l-0.561,2.003
			H276.939z"/>
		<path style="fill:#FFFFFF;" d="M281.529,291.161c0.687-0.111,1.709-0.195,2.843-0.195c1.401,0,2.382,0.21,3.054,0.742
			c0.561,0.448,0.869,1.106,0.869,1.975c0,1.205-0.854,2.031-1.667,2.325v0.042c0.658,0.267,1.022,0.896,1.261,1.766
			c0.294,1.064,0.588,2.297,0.771,2.661h-2.186c-0.154-0.267-0.378-1.036-0.658-2.199c-0.252-1.177-0.658-1.499-1.527-1.513h-0.644
			v3.712h-2.115V291.161z M283.644,295.224h0.84c1.064,0,1.695-0.532,1.695-1.358c0-0.869-0.589-1.303-1.569-1.317
			c-0.518,0-0.812,0.042-0.966,0.07V295.224z"/>
		<path style="fill:#FFFFFF;" d="M295.448,296.484h-3.475v2.241h3.88v1.751h-6.022v-9.441h5.827v1.751h-3.685v1.961h3.475V296.484z"
			/>
		<path style="fill:#FFFFFF;" d="M297.376,298.277c0.575,0.294,1.457,0.588,2.368,0.588c0.98,0,1.498-0.406,1.498-1.022
			c0-0.588-0.448-0.924-1.583-1.33c-1.568-0.547-2.591-1.415-2.591-2.788c0-1.61,1.345-2.843,3.572-2.843
			c1.064,0,1.849,0.224,2.409,0.476l-0.477,1.723c-0.378-0.182-1.051-0.447-1.976-0.447c-0.924,0-1.372,0.42-1.372,0.91
			c0,0.603,0.532,0.868,1.751,1.33c1.667,0.617,2.451,1.485,2.451,2.816c0,1.582-1.219,2.927-3.811,2.927
			c-1.078,0-2.143-0.279-2.675-0.574L297.376,298.277z"/>
		<path style="fill:#FFFFFF;" d="M315.762,302.102c-1.345-0.393-2.466-0.799-3.727-1.331c-0.21-0.084-0.434-0.126-0.658-0.14
			c-2.129-0.141-4.118-1.709-4.118-4.791c0-2.829,1.793-4.958,4.608-4.958c2.886,0,4.469,2.185,4.469,4.762
			c0,2.144-0.995,3.656-2.241,4.217v0.056c0.729,0.21,1.541,0.379,2.283,0.532L315.762,302.102z M314.081,295.728
			c0-1.723-0.812-3.151-2.269-3.151s-2.298,1.429-2.298,3.193c-0.014,1.793,0.854,3.166,2.283,3.166
			C313.241,298.936,314.081,297.577,314.081,295.728z"/>
		<path style="fill:#FFFFFF;" d="M319.861,291.035v5.436c0,1.625,0.616,2.451,1.709,2.451c1.12,0,1.736-0.784,1.736-2.451v-5.436
			h2.13v5.295c0,2.914-1.471,4.301-3.937,4.301c-2.381,0-3.782-1.317-3.782-4.328v-5.268H319.861z"/>
		<path style="fill:#FFFFFF;" d="M332.897,296.484h-3.475v2.241h3.88v1.751h-6.022v-9.441h5.827v1.751h-3.685v1.961h3.475V296.484z"
			/>
		<path style="fill:#FFFFFF;" d="M344.517,300.21c-0.393,0.196-1.274,0.406-2.424,0.406c-3.264,0-4.944-2.03-4.944-4.72
			c0-3.222,2.297-5.015,5.155-5.015c1.106,0,1.946,0.224,2.325,0.42l-0.435,1.694c-0.435-0.182-1.037-0.35-1.793-0.35
			c-1.695,0-3.012,1.022-3.012,3.123c0,1.892,1.121,3.082,3.025,3.082c0.645,0,1.359-0.14,1.779-0.308L344.517,300.21z"/>
		<path style="fill:#FFFFFF;" d="M354.136,295.658c0,3.096-1.877,4.973-4.637,4.973c-2.802,0-4.44-2.115-4.44-4.805
			c0-2.83,1.807-4.944,4.595-4.944C352.553,290.882,354.136,293.053,354.136,295.658z M347.314,295.784
			c0,1.849,0.869,3.151,2.298,3.151c1.442,0,2.269-1.373,2.269-3.208c0-1.694-0.812-3.151-2.283-3.151
			C348.155,292.576,347.314,293.949,347.314,295.784z"/>
		<path style="fill:#FFFFFF;" d="M355.532,291.035h2.143v7.648h3.754v1.793h-5.896V291.035z"/>
		<path style="fill:#FFFFFF;" d="M364.968,298.054l-0.673,2.423h-2.213l2.886-9.441h2.801l2.928,9.441H368.4l-0.729-2.423H364.968z
			 M367.363,296.456l-0.588-2.003c-0.168-0.561-0.336-1.261-0.477-1.82h-0.027c-0.141,0.56-0.28,1.274-0.435,1.82l-0.561,2.003
			H367.363z"/>
		<path style="fill:#FFFFFF;" d="M371.953,291.161c0.56-0.111,1.694-0.195,2.759-0.195c1.303,0,2.102,0.126,2.788,0.532
			c0.658,0.35,1.135,0.994,1.135,1.849c0,0.841-0.49,1.625-1.555,2.018v0.027c1.078,0.294,1.877,1.106,1.877,2.325
			c0,0.854-0.393,1.527-0.98,2.003c-0.687,0.547-1.836,0.854-3.713,0.854c-1.05,0-1.835-0.069-2.311-0.14V291.161z M374.068,294.775
			h0.7c1.12,0,1.723-0.462,1.723-1.162c0-0.715-0.546-1.093-1.513-1.093c-0.462,0-0.729,0.027-0.91,0.056V294.775z M374.068,298.964
			c0.21,0.028,0.462,0.028,0.826,0.028c0.967,0,1.821-0.364,1.821-1.359c0-0.952-0.854-1.33-1.92-1.33h-0.728V298.964z"/>
		<path style="fill:#FFFFFF;" d="M389.051,295.658c0,3.096-1.877,4.973-4.637,4.973c-2.802,0-4.44-2.115-4.44-4.805
			c0-2.83,1.807-4.944,4.595-4.944C387.468,290.882,389.051,293.053,389.051,295.658z M382.229,295.784
			c0,1.849,0.869,3.151,2.298,3.151c1.442,0,2.269-1.373,2.269-3.208c0-1.694-0.812-3.151-2.283-3.151
			C383.07,292.576,382.229,293.949,382.229,295.784z"/>
		<path style="fill:#FFFFFF;" d="M390.447,291.161c0.687-0.111,1.709-0.195,2.843-0.195c1.401,0,2.382,0.21,3.054,0.742
			c0.561,0.448,0.869,1.106,0.869,1.975c0,1.205-0.854,2.031-1.667,2.325v0.042c0.658,0.267,1.022,0.896,1.261,1.766
			c0.294,1.064,0.588,2.297,0.771,2.661h-2.186c-0.154-0.267-0.378-1.036-0.658-2.199c-0.252-1.177-0.658-1.499-1.527-1.513h-0.644
			v3.712h-2.115V291.161z M392.562,295.224h0.84c1.064,0,1.695-0.532,1.695-1.358c0-0.869-0.589-1.303-1.569-1.317
			c-0.518,0-0.812,0.042-0.966,0.07V295.224z"/>
		<path style="fill:#FFFFFF;" d="M401.074,298.054l-0.673,2.423h-2.213l2.886-9.441h2.801l2.928,9.441h-2.297l-0.729-2.423H401.074z
			 M403.468,296.456l-0.588-2.003c-0.168-0.561-0.336-1.261-0.477-1.82h-0.027c-0.141,0.56-0.28,1.274-0.435,1.82l-0.561,2.003
			H403.468z"/>
		<path style="fill:#FFFFFF;" d="M408.058,291.161c0.784-0.126,1.807-0.195,2.885-0.195c1.793,0,2.956,0.321,3.866,1.008
			c0.98,0.729,1.598,1.892,1.598,3.559c0,1.807-0.659,3.054-1.569,3.823c-0.994,0.827-2.507,1.219-4.356,1.219
			c-1.106,0-1.891-0.069-2.423-0.14V291.161z M410.201,298.865c0.183,0.043,0.477,0.043,0.742,0.043
			c1.934,0.014,3.194-1.051,3.194-3.307c0.014-1.961-1.135-2.997-2.97-2.997c-0.477,0-0.784,0.042-0.967,0.084V298.865z"/>
		<path style="fill:#FFFFFF;" d="M426.445,295.658c0,3.096-1.877,4.973-4.637,4.973c-2.802,0-4.44-2.115-4.44-4.805
			c0-2.83,1.807-4.944,4.595-4.944C424.862,290.882,426.445,293.053,426.445,295.658z M419.623,295.784
			c0,1.849,0.869,3.151,2.298,3.151c1.442,0,2.269-1.373,2.269-3.208c0-1.694-0.812-3.151-2.283-3.151
			C420.463,292.576,419.623,293.949,419.623,295.784z"/>
		<path style="fill:#FFFFFF;" d="M427.84,291.161c0.687-0.111,1.709-0.195,2.843-0.195c1.401,0,2.382,0.21,3.054,0.742
			c0.561,0.448,0.869,1.106,0.869,1.975c0,1.205-0.854,2.031-1.667,2.325v0.042c0.658,0.267,1.022,0.896,1.261,1.766
			c0.294,1.064,0.588,2.297,0.771,2.661h-2.186c-0.154-0.267-0.378-1.036-0.658-2.199c-0.252-1.177-0.658-1.499-1.527-1.513h-0.644
			v3.712h-2.115V291.161z M429.956,295.224h0.84c1.064,0,1.695-0.532,1.695-1.358c0-0.869-0.589-1.303-1.569-1.317
			c-0.518,0-0.812,0.042-0.966,0.07V295.224z"/>
		<path style="fill:#FFFFFF;" d="M441.759,296.484h-3.475v2.241h3.881v1.751h-6.023v-9.441h5.827v1.751h-3.685v1.961h3.475V296.484z
			"/>
		<path style="fill:#FFFFFF;" d="M443.687,298.277c0.574,0.294,1.457,0.588,2.367,0.588c0.981,0,1.499-0.406,1.499-1.022
			c0-0.588-0.448-0.924-1.583-1.33c-1.568-0.547-2.591-1.415-2.591-2.788c0-1.61,1.345-2.843,3.571-2.843
			c1.065,0,1.85,0.224,2.41,0.476l-0.477,1.723c-0.378-0.182-1.051-0.447-1.976-0.447c-0.924,0-1.372,0.42-1.372,0.91
			c0,0.603,0.532,0.868,1.751,1.33c1.667,0.617,2.451,1.485,2.451,2.816c0,1.582-1.219,2.927-3.811,2.927
			c-1.078,0-2.143-0.279-2.675-0.574L443.687,298.277z"/>
		<path style="fill:#FFFFFF;" d="M459.623,296.484h-3.475v2.241h3.881v1.751h-6.023v-9.441h5.827v1.751h-3.685v1.961h3.475V296.484z
			"/>
		<path style="fill:#FFFFFF;" d="M115.911,307.962c0.659-0.111,1.583-0.195,2.886-0.195c1.317,0,2.255,0.252,2.886,0.756
			c0.602,0.477,1.008,1.261,1.008,2.186c0,0.924-0.308,1.709-0.868,2.241c-0.729,0.687-1.807,0.994-3.068,0.994
			c-0.28,0-0.532-0.014-0.729-0.042v3.376h-2.115V307.962z M118.026,312.249c0.182,0.042,0.406,0.056,0.714,0.056
			c1.135,0,1.835-0.574,1.835-1.541c0-0.868-0.602-1.387-1.667-1.387c-0.434,0-0.728,0.042-0.882,0.084V312.249z"/>
		<path style="fill:#FFFFFF;" d="M124.044,307.962c0.687-0.111,1.709-0.195,2.844-0.195c1.401,0,2.381,0.21,3.054,0.742
			c0.56,0.448,0.868,1.106,0.868,1.975c0,1.205-0.854,2.031-1.667,2.325v0.042c0.658,0.267,1.022,0.896,1.261,1.766
			c0.294,1.064,0.588,2.297,0.77,2.661h-2.185c-0.154-0.267-0.378-1.036-0.658-2.199c-0.252-1.177-0.659-1.499-1.527-1.513h-0.645
			v3.712h-2.115V307.962z M126.16,312.025H127c1.065,0,1.695-0.532,1.695-1.358c0-0.869-0.588-1.303-1.569-1.317
			c-0.519,0-0.812,0.042-0.967,0.07V312.025z"/>
		<path style="fill:#FFFFFF;" d="M137.963,313.285h-3.474v2.241h3.88v1.751h-6.023v-9.441h5.827v1.751h-3.684v1.961h3.474V313.285z"
			/>
		<path style="fill:#FFFFFF;" d="M139.893,315.078c0.574,0.294,1.457,0.588,2.367,0.588c0.98,0,1.499-0.406,1.499-1.022
			c0-0.588-0.448-0.924-1.583-1.33c-1.569-0.547-2.591-1.415-2.591-2.788c0-1.61,1.345-2.843,3.572-2.843
			c1.064,0,1.849,0.224,2.409,0.476l-0.476,1.723c-0.378-0.182-1.051-0.447-1.975-0.447s-1.373,0.42-1.373,0.91
			c0,0.603,0.532,0.868,1.75,1.33c1.667,0.617,2.452,1.485,2.452,2.816c0,1.582-1.219,2.927-3.81,2.927
			c-1.079,0-2.143-0.279-2.676-0.574L139.893,315.078z"/>
		<path style="fill:#FFFFFF;" d="M149.204,309.629h-2.536v-1.793h7.256v1.793h-2.577v7.648h-2.143V309.629z"/>
		<path style="fill:#FFFFFF;" d="M156.246,314.855l-0.672,2.423h-2.213l2.885-9.441h2.802l2.927,9.441h-2.297l-0.729-2.423H156.246z
			 M158.641,313.257l-0.588-2.003c-0.168-0.561-0.336-1.261-0.476-1.82h-0.028c-0.14,0.56-0.28,1.274-0.434,1.82l-0.561,2.003
			H158.641z"/>
		<path style="fill:#FFFFFF;" d="M163.231,307.962c0.785-0.126,1.807-0.195,2.886-0.195c1.793,0,2.956,0.321,3.866,1.008
			c0.98,0.729,1.597,1.892,1.597,3.559c0,1.807-0.658,3.054-1.569,3.823c-0.995,0.827-2.507,1.219-4.356,1.219
			c-1.106,0-1.891-0.069-2.423-0.14V307.962z M165.374,315.666c0.182,0.043,0.476,0.043,0.742,0.043
			c1.933,0.014,3.194-1.051,3.194-3.307c0.014-1.961-1.135-2.997-2.97-2.997c-0.476,0-0.785,0.042-0.966,0.084V315.666z"/>
		<path style="fill:#FFFFFF;" d="M181.618,312.459c0,3.096-1.877,4.973-4.637,4.973c-2.801,0-4.44-2.115-4.44-4.805
			c0-2.83,1.807-4.944,4.595-4.944C180.035,307.683,181.618,309.854,181.618,312.459z M174.796,312.585
			c0,1.849,0.868,3.151,2.297,3.151c1.443,0,2.27-1.373,2.27-3.208c0-1.694-0.812-3.151-2.283-3.151
			C175.636,309.377,174.796,310.75,174.796,312.585z"/>
		<path style="fill:#FFFFFF;" d="M183.013,307.962c0.687-0.111,1.709-0.195,2.844-0.195c1.401,0,2.381,0.21,3.054,0.742
			c0.56,0.448,0.868,1.106,0.868,1.975c0,1.205-0.854,2.031-1.667,2.325v0.042c0.658,0.267,1.022,0.896,1.26,1.766
			c0.294,1.064,0.588,2.297,0.771,2.661h-2.185c-0.154-0.267-0.378-1.036-0.658-2.199c-0.252-1.177-0.659-1.499-1.527-1.513h-0.645
			v3.712h-2.115V307.962z M185.128,312.025h0.84c1.065,0,1.695-0.532,1.695-1.358c0-0.869-0.588-1.303-1.569-1.317
			c-0.519,0-0.812,0.042-0.967,0.07V312.025z"/>
		<path style="fill:#FFFFFF;" d="M196.932,313.285h-3.474v2.241h3.88v1.751h-6.023v-9.441h5.827v1.751h-3.684v1.961h3.474V313.285z"
			/>
		<path style="fill:#FFFFFF;" d="M198.861,315.078c0.574,0.294,1.457,0.588,2.367,0.588c0.98,0,1.499-0.406,1.499-1.022
			c0-0.588-0.448-0.924-1.583-1.33c-1.569-0.547-2.591-1.415-2.591-2.788c0-1.61,1.345-2.843,3.572-2.843
			c1.064,0,1.849,0.224,2.409,0.476l-0.476,1.723c-0.378-0.182-1.051-0.447-1.975-0.447s-1.373,0.42-1.373,0.91
			c0,0.603,0.532,0.868,1.751,1.33c1.667,0.617,2.451,1.485,2.451,2.816c0,1.582-1.219,2.927-3.81,2.927
			c-1.079,0-2.143-0.279-2.675-0.574L198.861,315.078z"/>
		<path style="fill:#FFFFFF;" d="M209.179,307.962c0.785-0.126,1.807-0.195,2.886-0.195c1.793,0,2.956,0.321,3.866,1.008
			c0.98,0.729,1.597,1.892,1.597,3.559c0,1.807-0.658,3.054-1.569,3.823c-0.995,0.827-2.507,1.219-4.356,1.219
			c-1.106,0-1.891-0.069-2.423-0.14V307.962z M211.322,315.666c0.182,0.043,0.476,0.043,0.742,0.043
			c1.933,0.014,3.194-1.051,3.194-3.307c0.014-1.961-1.135-2.997-2.97-2.997c-0.476,0-0.785,0.042-0.966,0.084V315.666z"/>
		<path style="fill:#FFFFFF;" d="M224.54,313.285h-3.474v2.241h3.88v1.751h-6.023v-9.441h5.827v1.751h-3.684v1.961h3.474V313.285z"
			/>
		<path style="fill:#FFFFFF;" d="M229.297,315.078c0.574,0.294,1.457,0.588,2.367,0.588c0.98,0,1.499-0.406,1.499-1.022
			c0-0.588-0.448-0.924-1.583-1.33c-1.569-0.547-2.591-1.415-2.591-2.788c0-1.61,1.345-2.843,3.572-2.843
			c1.064,0,1.849,0.224,2.409,0.476l-0.476,1.723c-0.378-0.182-1.051-0.447-1.975-0.447s-1.373,0.42-1.373,0.91
			c0,0.603,0.532,0.868,1.751,1.33c1.667,0.617,2.451,1.485,2.451,2.816c0,1.582-1.219,2.927-3.81,2.927
			c-1.079,0-2.143-0.279-2.675-0.574L229.297,315.078z"/>
		<path style="fill:#FFFFFF;" d="M242.404,313.285h-3.474v2.241h3.88v1.751h-6.023v-9.441h5.827v1.751h-3.684v1.961h3.474V313.285z"
			/>
		<path style="fill:#FFFFFF;" d="M244.263,307.962c0.687-0.111,1.709-0.195,2.844-0.195c1.401,0,2.381,0.21,3.054,0.742
			c0.56,0.448,0.868,1.106,0.868,1.975c0,1.205-0.854,2.031-1.667,2.325v0.042c0.658,0.267,1.022,0.896,1.261,1.766
			c0.294,1.064,0.588,2.297,0.77,2.661h-2.185c-0.154-0.267-0.378-1.036-0.658-2.199c-0.252-1.177-0.659-1.499-1.527-1.513h-0.645
			v3.712h-2.115V307.962z M246.378,312.025h0.84c1.065,0,1.695-0.532,1.695-1.358c0-0.869-0.588-1.303-1.569-1.317
			c-0.519,0-0.812,0.042-0.967,0.07V312.025z"/>
		<path style="fill:#FFFFFF;" d="M254.709,317.277l-3.026-9.441h2.339l1.148,3.992c0.322,1.121,0.617,2.199,0.841,3.376h0.042
			c0.238-1.135,0.532-2.255,0.854-3.334l1.205-4.034h2.269l-3.18,9.441H254.709z"/>
		<path style="fill:#FFFFFF;" d="M263.528,307.836v9.441h-2.144v-9.441H263.528z"/>
		<path style="fill:#FFFFFF;" d="M272.309,317.011c-0.378,0.183-1.19,0.393-2.255,0.406l-0.238,0.477
			c0.546,0.126,1.022,0.49,1.022,1.148c0,0.967-0.869,1.289-1.667,1.289c-0.42,0-0.883-0.084-1.205-0.267l0.28-0.868
			c0.21,0.112,0.532,0.196,0.784,0.196c0.28,0,0.505-0.098,0.505-0.336c0-0.295-0.322-0.448-1.106-0.532l0.532-1.163
			c-2.662-0.351-4.021-2.241-4.021-4.664c0-3.222,2.297-5.015,5.156-5.015c1.106,0,1.946,0.224,2.325,0.42l-0.435,1.694
			c-0.435-0.182-1.036-0.35-1.793-0.35c-1.695,0-3.012,1.022-3.012,3.123c0,1.892,1.121,3.082,3.025,3.082
			c0.645,0,1.359-0.14,1.779-0.308L272.309,317.011z"/>
		<path style="fill:#FFFFFF;" d="M281.928,312.459c0,3.096-1.877,4.973-4.637,4.973c-2.802,0-4.44-2.115-4.44-4.805
			c0-2.83,1.807-4.944,4.595-4.944C280.345,307.683,281.928,309.854,281.928,312.459z M275.106,312.585
			c0,1.849,0.869,3.151,2.298,3.151c1.442,0,2.269-1.373,2.269-3.208c0-1.694-0.812-3.151-2.283-3.151
			C275.947,309.377,275.106,310.75,275.106,312.585z"/>
		<path style="fill:#FFFFFF;" d="M286.152,307.962c0.784-0.126,1.807-0.195,2.885-0.195c1.793,0,2.956,0.321,3.866,1.008
			c0.98,0.729,1.598,1.892,1.598,3.559c0,1.807-0.659,3.054-1.569,3.823c-0.994,0.827-2.507,1.219-4.356,1.219
			c-1.106,0-1.891-0.069-2.423-0.14V307.962z M288.294,315.666c0.183,0.043,0.477,0.043,0.742,0.043
			c1.934,0.014,3.194-1.051,3.194-3.307c0.014-1.961-1.135-2.997-2.97-2.997c-0.477,0-0.784,0.042-0.967,0.084V315.666z"/>
		<path style="fill:#FFFFFF;" d="M297.872,314.855l-0.673,2.423h-2.213l2.886-9.441h2.801l2.928,9.441h-2.297l-0.729-2.423H297.872z
			 M300.266,313.257l-0.588-2.003c-0.168-0.561-0.336-1.261-0.477-1.82h-0.027c-0.141,0.56-0.28,1.274-0.435,1.82l-0.561,2.003
			H300.266z"/>
		<path style="fill:#FFFFFF;" d="M308.959,309.629h-2.535v-1.793h7.256v1.793h-2.577v7.648h-2.144V309.629z"/>
		<path style="fill:#FFFFFF;" d="M316.953,307.836v9.441h-2.143v-9.441H316.953z"/>
		<path style="fill:#FFFFFF;" d="M326.785,313.663c-0.042-1.135-0.084-2.507-0.084-3.88h-0.042c-0.295,1.205-0.687,2.55-1.051,3.656
			l-1.148,3.684h-1.667l-1.009-3.656c-0.309-1.106-0.631-2.451-0.854-3.684h-0.028c-0.056,1.274-0.098,2.731-0.168,3.908
			l-0.168,3.586h-1.975l0.602-9.441h2.844l0.925,3.152c0.294,1.092,0.588,2.269,0.798,3.375h0.042
			c0.267-1.092,0.589-2.339,0.896-3.39l1.009-3.138h2.788l0.518,9.441h-2.087L326.785,313.663z"/>
		<path style="fill:#FFFFFF;" d="M333.472,307.962c0.784-0.126,1.807-0.195,2.885-0.195c1.793,0,2.956,0.321,3.866,1.008
			c0.98,0.729,1.598,1.892,1.598,3.559c0,1.807-0.659,3.054-1.569,3.823c-0.994,0.827-2.507,1.219-4.356,1.219
			c-1.106,0-1.891-0.069-2.423-0.14V307.962z M335.615,315.666c0.183,0.043,0.477,0.043,0.742,0.043
			c1.934,0.014,3.194-1.051,3.194-3.307c0.014-1.961-1.135-2.997-2.97-2.997c-0.477,0-0.784,0.042-0.967,0.084V315.666z"/>
		<path style="fill:#FFFFFF;" d="M348.834,313.285h-3.475v2.241h3.881v1.751h-6.023v-9.441h5.827v1.751h-3.685v1.961h3.475V313.285z
			"/>
		<path style="fill:#FFFFFF;" d="M353.016,317.277l-3.025-9.441h2.339l1.149,3.992c0.322,1.121,0.616,2.199,0.84,3.376h0.042
			c0.238-1.135,0.532-2.255,0.854-3.334l1.205-4.034h2.27l-3.18,9.441H353.016z"/>
		<path style="fill:#FFFFFF;" d="M365.311,313.285h-3.475v2.241h3.88v1.751h-6.022v-9.441h5.827v1.751h-3.685v1.961h3.475V313.285z"
			/>
		<path style="fill:#FFFFFF;" d="M375.154,313.663c-0.042-1.135-0.084-2.507-0.084-3.88h-0.042c-0.295,1.205-0.687,2.55-1.051,3.656
			l-1.148,3.684h-1.667l-1.009-3.656c-0.309-1.106-0.631-2.451-0.854-3.684h-0.028c-0.056,1.274-0.098,2.731-0.168,3.908
			l-0.168,3.586h-1.975l0.602-9.441h2.844l0.925,3.152c0.294,1.092,0.588,2.269,0.798,3.375h0.042
			c0.267-1.092,0.589-2.339,0.896-3.39l1.009-3.138h2.788l0.518,9.441h-2.087L375.154,313.663z"/>
		<path style="fill:#FFFFFF;" d="M388.775,317.011c-0.393,0.196-1.274,0.406-2.424,0.406c-3.264,0-4.944-2.03-4.944-4.72
			c0-3.222,2.297-5.015,5.155-5.015c1.106,0,1.946,0.224,2.325,0.42l-0.435,1.694c-0.435-0.182-1.037-0.35-1.793-0.35
			c-1.695,0-3.012,1.022-3.012,3.123c0,1.892,1.121,3.082,3.025,3.082c0.645,0,1.359-0.14,1.779-0.308L388.775,317.011z"/>
		<path style="fill:#FFFFFF;" d="M398.394,312.459c0,3.096-1.877,4.973-4.637,4.973c-2.802,0-4.44-2.115-4.44-4.805
			c0-2.83,1.807-4.944,4.595-4.944C396.811,307.683,398.394,309.854,398.394,312.459z M391.572,312.585
			c0,1.849,0.869,3.151,2.298,3.151c1.442,0,2.269-1.373,2.269-3.208c0-1.694-0.812-3.151-2.283-3.151
			C392.413,309.377,391.572,310.75,391.572,312.585z"/>
		<path style="fill:#FFFFFF;" d="M399.79,307.836h2.143v7.648h3.754v1.793h-5.896V307.836z"/>
		<path style="fill:#FFFFFF;" d="M415.054,312.459c0,3.096-1.877,4.973-4.637,4.973c-2.802,0-4.44-2.115-4.44-4.805
			c0-2.83,1.807-4.944,4.595-4.944C413.471,307.683,415.054,309.854,415.054,312.459z M408.232,312.585
			c0,1.849,0.869,3.151,2.298,3.151c1.442,0,2.269-1.373,2.269-3.208c0-1.694-0.812-3.151-2.283-3.151
			C409.073,309.377,408.232,310.75,408.232,312.585z"/>
		<path style="fill:#FFFFFF;" d="M423.383,317.011c-0.393,0.196-1.274,0.406-2.424,0.406c-3.264,0-4.944-2.03-4.944-4.72
			c0-3.222,2.297-5.015,5.155-5.015c1.106,0,1.946,0.224,2.325,0.42l-0.435,1.694c-0.435-0.182-1.036-0.35-1.793-0.35
			c-1.695,0-3.012,1.022-3.012,3.123c0,1.892,1.121,3.082,3.025,3.082c0.645,0,1.359-0.14,1.779-0.308L423.383,317.011z"/>
		<path style="fill:#FFFFFF;" d="M427.119,314.855l-0.673,2.423h-2.213l2.886-9.441h2.801l2.928,9.441h-2.297l-0.729-2.423H427.119z
			 M429.513,313.257l-0.588-2.003c-0.168-0.561-0.336-1.261-0.477-1.82h-0.027c-0.141,0.56-0.28,1.274-0.435,1.82l-0.561,2.003
			H429.513z"/>
		<path style="fill:#FFFFFF;" d="M434.103,307.962c0.687-0.111,1.709-0.195,2.843-0.195c1.401,0,2.382,0.21,3.054,0.742
			c0.561,0.448,0.869,1.106,0.869,1.975c0,1.205-0.854,2.031-1.667,2.325v0.042c0.658,0.267,1.022,0.896,1.261,1.766
			c0.294,1.064,0.588,2.297,0.771,2.661h-2.186c-0.154-0.267-0.378-1.036-0.658-2.199c-0.252-1.177-0.658-1.499-1.527-1.513h-0.644
			v3.712h-2.115V307.962z M436.218,312.025h0.84c1.064,0,1.695-0.532,1.695-1.358c0-0.869-0.589-1.303-1.569-1.317
			c-0.518,0-0.812,0.042-0.966,0.07V312.025z"/>
		<path style="fill:#FFFFFF;" d="M450.85,313.285h-3.475v2.241h3.88v1.751h-6.022v-9.441h5.827v1.751h-3.685v1.961h3.475V313.285z"
			/>
		<path style="fill:#FFFFFF;" d="M460.693,313.663c-0.042-1.135-0.084-2.507-0.084-3.88h-0.042c-0.295,1.205-0.687,2.55-1.051,3.656
			l-1.148,3.684h-1.667l-1.009-3.656c-0.309-1.106-0.631-2.451-0.854-3.684h-0.028c-0.056,1.274-0.098,2.731-0.168,3.908
			l-0.168,3.586h-1.975l0.602-9.441h2.844l0.925,3.152c0.294,1.092,0.588,2.269,0.798,3.375h0.042
			c0.267-1.092,0.589-2.339,0.896-3.39l1.009-3.138h2.788l0.518,9.441h-2.087L460.693,313.663z"/>
		<path style="fill:#FFFFFF;" d="M115.911,324.762c0.659-0.111,1.583-0.195,2.886-0.195c1.317,0,2.255,0.252,2.886,0.756
			c0.602,0.477,1.008,1.261,1.008,2.186c0,0.924-0.308,1.709-0.868,2.241c-0.729,0.687-1.807,0.994-3.068,0.994
			c-0.28,0-0.532-0.014-0.729-0.042v3.376h-2.115V324.762z M118.026,329.049c0.182,0.042,0.406,0.056,0.714,0.056
			c1.135,0,1.835-0.574,1.835-1.541c0-0.868-0.602-1.387-1.667-1.387c-0.434,0-0.728,0.042-0.882,0.084V329.049z"/>
		<path style="fill:#FFFFFF;" d="M124.044,324.762c0.687-0.111,1.709-0.195,2.844-0.195c1.401,0,2.381,0.21,3.054,0.742
			c0.56,0.448,0.868,1.106,0.868,1.975c0,1.205-0.854,2.031-1.667,2.325v0.042c0.658,0.267,1.022,0.896,1.261,1.766
			c0.294,1.064,0.588,2.297,0.77,2.661h-2.185c-0.154-0.267-0.378-1.036-0.658-2.199c-0.252-1.177-0.659-1.499-1.527-1.513h-0.645
			v3.712h-2.115V324.762z M126.16,328.824H127c1.065,0,1.695-0.532,1.695-1.358c0-0.869-0.588-1.303-1.569-1.317
			c-0.519,0-0.812,0.042-0.967,0.07V328.824z"/>
		<path style="fill:#FFFFFF;" d="M134.671,331.654l-0.672,2.423h-2.213l2.885-9.441h2.802l2.927,9.441h-2.297l-0.729-2.423H134.671z
			 M137.067,330.057l-0.588-2.003c-0.168-0.561-0.336-1.261-0.476-1.821h-0.028c-0.14,0.561-0.28,1.275-0.434,1.821l-0.561,2.003
			H137.067z M138.51,322.409l-1.709,1.723h-1.709l1.177-1.723H138.51z"/>
		<path style="fill:#FFFFFF;" d="M142.315,326.429h-2.536v-1.793h7.256v1.793h-2.577v7.648h-2.143V326.429z"/>
		<path style="fill:#FFFFFF;" d="M150.31,324.636v9.441h-2.144v-9.441H150.31z"/>
		<path style="fill:#FFFFFF;" d="M159.09,333.811c-0.393,0.196-1.275,0.406-2.423,0.406c-3.264,0-4.945-2.03-4.945-4.72
			c0-3.222,2.297-5.015,5.155-5.015c1.106,0,1.947,0.224,2.325,0.42l-0.434,1.694c-0.434-0.182-1.037-0.35-1.793-0.35
			c-1.695,0-3.012,1.022-3.012,3.124c0,1.891,1.121,3.081,3.026,3.081c0.644,0,1.358-0.14,1.779-0.308L159.09,333.811z"/>
		<path style="fill:#FFFFFF;" d="M162.825,331.654l-0.672,2.423h-2.213l2.885-9.441h2.802l2.927,9.441h-2.297l-0.729-2.423H162.825z
			 M165.22,330.057l-0.588-2.003c-0.168-0.561-0.336-1.261-0.476-1.821h-0.028c-0.14,0.561-0.28,1.275-0.434,1.821l-0.561,2.003
			H165.22z"/>
		<path style="fill:#FFFFFF;" d="M168.913,335.744c0.435-1.247,0.812-2.703,1.009-3.979l2.171-0.14
			c-0.462,1.429-1.092,2.899-1.765,3.992L168.913,335.744z"/>
		<path style="fill:#FFFFFF;" d="M176.278,334.077v-9.441h2.494l1.961,3.46c0.561,0.995,1.121,2.172,1.541,3.236h0.042
			c-0.14-1.247-0.182-2.521-0.182-3.937v-2.76h1.961v9.441h-2.241l-2.017-3.642c-0.561-1.009-1.177-2.228-1.639-3.334l-0.042,0.014
			c0.056,1.247,0.084,2.577,0.084,4.118v2.844H176.278z"/>
		<path style="fill:#FFFFFF;" d="M194.581,329.259c0,3.096-1.877,4.973-4.637,4.973c-2.801,0-4.44-2.115-4.44-4.805
			c0-2.83,1.807-4.944,4.595-4.944C192.998,324.483,194.581,326.653,194.581,329.259z M187.759,329.385
			c0,1.849,0.868,3.151,2.297,3.151c1.443,0,2.27-1.372,2.27-3.208c0-1.694-0.812-3.151-2.283-3.151
			C188.599,326.177,187.759,327.55,187.759,329.385z"/>
		<path style="fill:#FFFFFF;" d="M198.804,324.762c0.785-0.126,1.807-0.195,2.886-0.195c1.793,0,2.956,0.322,3.866,1.008
			c0.98,0.729,1.597,1.892,1.597,3.559c0,1.807-0.658,3.054-1.569,3.824c-0.995,0.826-2.507,1.218-4.356,1.218
			c-1.106,0-1.891-0.069-2.423-0.14V324.762z M200.947,332.466c0.182,0.042,0.476,0.042,0.742,0.042
			c1.933,0.015,3.194-1.05,3.194-3.306c0.014-1.961-1.135-2.997-2.97-2.997c-0.476,0-0.785,0.042-0.966,0.084V332.466z"/>
		<path style="fill:#FFFFFF;" d="M210.691,324.636v9.441h-2.144v-9.441H210.691z"/>
		<path style="fill:#FFFFFF;" d="M214.737,331.654l-0.672,2.423h-2.213l2.885-9.441h2.802l2.927,9.441h-2.297l-0.729-2.423H214.737z
			 M217.132,330.057l-0.588-2.003c-0.168-0.561-0.336-1.261-0.476-1.821h-0.028c-0.14,0.561-0.28,1.275-0.434,1.821l-0.561,2.003
			H217.132z"/>
		<path style="fill:#FFFFFF;" d="M226.749,331.654l-0.672,2.423h-2.213l2.885-9.441h2.802l2.928,9.441h-2.297l-0.729-2.423H226.749z
			 M229.145,330.057l-0.588-2.003c-0.168-0.561-0.336-1.261-0.476-1.821h-0.028c-0.14,0.561-0.28,1.275-0.434,1.821l-0.561,2.003
			H229.145z"/>
		<path style="fill:#FFFFFF;" d="M236.562,324.762c0.785-0.126,1.807-0.195,2.886-0.195c1.793,0,2.956,0.322,3.866,1.008
			c0.98,0.729,1.597,1.892,1.597,3.559c0,1.807-0.658,3.054-1.569,3.824c-0.995,0.826-2.507,1.218-4.356,1.218
			c-1.106,0-1.891-0.069-2.423-0.14V324.762z M238.706,332.466c0.182,0.042,0.476,0.042,0.742,0.042
			c1.933,0.015,3.194-1.05,3.194-3.306c0.014-1.961-1.135-2.997-2.97-2.997c-0.476,0-0.784,0.042-0.966,0.084V332.466z"/>
		<path style="fill:#FFFFFF;" d="M248.45,324.636v9.441h-2.144v-9.441H248.45z"/>
		<path style="fill:#FFFFFF;" d="M252.495,331.654l-0.672,2.423h-2.213l2.885-9.441h2.802l2.928,9.441h-2.297l-0.729-2.423H252.495z
			 M254.891,330.057l-0.588-2.003c-0.168-0.561-0.336-1.261-0.476-1.821h-0.028c-0.14,0.561-0.28,1.275-0.434,1.821l-0.561,2.003
			H254.891z"/>
		<path style="fill:#FFFFFF;" d="M258.584,335.744c0.435-1.247,0.812-2.703,1.009-3.979l2.171-0.14
			c-0.462,1.429-1.092,2.899-1.765,3.992L258.584,335.744z"/>
		<path style="fill:#FFFFFF;" d="M265.948,324.762c0.658-0.111,1.583-0.195,2.886-0.195c1.316,0,2.255,0.252,2.886,0.756
			c0.603,0.477,1.009,1.261,1.009,2.186c0,0.924-0.309,1.709-0.869,2.241c-0.729,0.687-1.807,0.994-3.067,0.994
			c-0.28,0-0.532-0.014-0.729-0.042v3.376h-2.116V324.762z M268.064,329.049c0.183,0.042,0.406,0.056,0.715,0.056
			c1.134,0,1.835-0.574,1.835-1.541c0-0.868-0.603-1.387-1.667-1.387c-0.435,0-0.729,0.042-0.883,0.084V329.049z"/>
		<path style="fill:#FFFFFF;" d="M275.442,331.654l-0.673,2.423h-2.213l2.886-9.441h2.801l2.928,9.441h-2.297l-0.729-2.423H275.442z
			 M277.836,330.057l-0.588-2.003c-0.168-0.561-0.336-1.261-0.477-1.821h-0.027c-0.141,0.561-0.28,1.275-0.435,1.821l-0.561,2.003
			H277.836z"/>
		<path style="fill:#FFFFFF;" d="M282.426,324.762c0.687-0.111,1.709-0.195,2.843-0.195c1.401,0,2.382,0.21,3.054,0.742
			c0.561,0.448,0.869,1.106,0.869,1.975c0,1.205-0.854,2.031-1.667,2.325v0.042c0.658,0.267,1.022,0.896,1.261,1.766
			c0.294,1.064,0.588,2.297,0.771,2.661h-2.186c-0.154-0.267-0.378-1.036-0.658-2.199c-0.252-1.177-0.658-1.499-1.527-1.513h-0.644
			v3.712h-2.115V324.762z M284.542,328.824h0.84c1.064,0,1.695-0.532,1.695-1.358c0-0.869-0.589-1.303-1.569-1.317
			c-0.518,0-0.812,0.042-0.966,0.07V328.824z"/>
		<path style="fill:#FFFFFF;" d="M293.053,331.654l-0.673,2.423h-2.213l2.886-9.441h2.801l2.928,9.441h-2.297l-0.729-2.423H293.053z
			 M295.448,330.057l-0.588-2.003c-0.168-0.561-0.336-1.261-0.477-1.821h-0.027c-0.141,0.561-0.28,1.275-0.435,1.821l-0.561,2.003
			H295.448z"/>
		<path style="fill:#FFFFFF;" d="M310.752,333.643c-0.658,0.225-1.905,0.532-3.151,0.532c-1.723,0-2.97-0.434-3.838-1.274
			c-0.869-0.812-1.345-2.045-1.331-3.432c0.014-3.138,2.297-4.931,5.393-4.931c1.219,0,2.157,0.238,2.62,0.462l-0.448,1.709
			c-0.519-0.224-1.163-0.406-2.199-0.406c-1.779,0-3.124,1.009-3.124,3.054c0,1.947,1.219,3.096,2.97,3.096
			c0.49,0,0.883-0.056,1.051-0.14v-1.976h-1.457v-1.667h3.516V333.643z"/>
		<path style="fill:#FFFFFF;" d="M314.613,331.654l-0.673,2.423h-2.213l2.886-9.441h2.801l2.928,9.441h-2.297l-0.729-2.423H314.613z
			 M317.007,330.057l-0.588-2.003c-0.168-0.561-0.336-1.261-0.477-1.821h-0.027c-0.141,0.561-0.28,1.275-0.435,1.821l-0.561,2.003
			H317.007z"/>
		<path style="fill:#FFFFFF;" d="M321.597,324.762c0.687-0.111,1.709-0.195,2.843-0.195c1.401,0,2.382,0.21,3.054,0.742
			c0.561,0.448,0.869,1.106,0.869,1.975c0,1.205-0.854,2.031-1.667,2.325v0.042c0.658,0.267,1.022,0.896,1.261,1.766
			c0.294,1.064,0.588,2.297,0.771,2.661h-2.186c-0.154-0.267-0.378-1.036-0.658-2.199c-0.252-1.177-0.658-1.499-1.527-1.513h-0.644
			v3.712h-2.115V324.762z M323.712,328.824h0.84c1.064,0,1.695-0.532,1.695-1.358c0-0.869-0.589-1.303-1.569-1.317
			c-0.518,0-0.812,0.042-0.966,0.07V328.824z"/>
		<path style="fill:#FFFFFF;" d="M332.224,331.654l-0.673,2.423h-2.213l2.886-9.441h2.801l2.928,9.441h-2.297l-0.729-2.423H332.224z
			 M334.619,330.057l-0.588-2.003c-0.168-0.561-0.336-1.261-0.477-1.821h-0.027c-0.141,0.561-0.28,1.275-0.435,1.821l-0.561,2.003
			H334.619z"/>
		<path style="fill:#FFFFFF;" d="M339.209,334.077v-9.441h2.493l1.961,3.46c0.561,0.995,1.12,2.172,1.541,3.236h0.042
			c-0.141-1.247-0.183-2.521-0.183-3.937v-2.76h1.962v9.441h-2.242l-2.017-3.642c-0.561-1.009-1.177-2.228-1.639-3.334l-0.042,0.014
			c0.056,1.247,0.084,2.577,0.084,4.118v2.844H339.209z"/>
		<path style="fill:#FFFFFF;" d="M350.689,326.429h-2.535v-1.793h7.256v1.793h-2.577v7.648h-2.144V326.429z"/>
		<path style="fill:#FFFFFF;" d="M358.683,324.636v9.441h-2.143v-9.441H358.683z"/>
		<path style="fill:#FFFFFF;" d="M360.531,324.762c0.687-0.111,1.709-0.195,2.843-0.195c1.401,0,2.382,0.21,3.054,0.742
			c0.561,0.448,0.869,1.106,0.869,1.975c0,1.205-0.854,2.031-1.667,2.325v0.042c0.658,0.267,1.022,0.896,1.261,1.766
			c0.294,1.064,0.588,2.297,0.771,2.661h-2.186c-0.154-0.267-0.378-1.036-0.658-2.199c-0.252-1.177-0.658-1.499-1.527-1.513h-0.644
			v3.712h-2.115V324.762z M362.646,328.824h0.84c1.064,0,1.695-0.532,1.695-1.358c0-0.869-0.589-1.303-1.569-1.317
			c-0.518,0-0.812,0.042-0.966,0.07V328.824z"/>
		<path style="fill:#FFFFFF;" d="M373.86,331.654l-0.673,2.423h-2.213l2.886-9.441h2.801l2.928,9.441h-2.297l-0.729-2.423H373.86z
			 M376.254,330.057l-0.588-2.003c-0.168-0.561-0.336-1.261-0.477-1.821h-0.027c-0.141,0.561-0.28,1.275-0.435,1.821l-0.561,2.003
			H376.254z"/>
		<path style="fill:#FFFFFF;" d="M115.911,341.562c0.785-0.126,1.807-0.195,2.886-0.195c1.793,0,2.956,0.321,3.866,1.008
			c0.98,0.729,1.597,1.892,1.597,3.559c0,1.807-0.658,3.054-1.569,3.823c-0.995,0.827-2.507,1.219-4.356,1.219
			c-1.106,0-1.891-0.069-2.423-0.14V341.562z M118.054,349.266c0.182,0.043,0.476,0.043,0.742,0.043
			c1.933,0.014,3.194-1.051,3.194-3.307c0.014-1.961-1.135-2.997-2.97-2.997c-0.476,0-0.784,0.042-0.966,0.084V349.266z"/>
		<path style="fill:#FFFFFF;" d="M127.798,341.436v9.441h-2.144v-9.441H127.798z"/>
		<path style="fill:#FFFFFF;" d="M129.715,348.678c0.574,0.294,1.457,0.588,2.367,0.588c0.98,0,1.499-0.406,1.499-1.022
			c0-0.588-0.448-0.924-1.583-1.33c-1.569-0.547-2.591-1.415-2.591-2.788c0-1.61,1.345-2.843,3.572-2.843
			c1.064,0,1.849,0.224,2.409,0.476l-0.476,1.723c-0.378-0.182-1.051-0.447-1.975-0.447s-1.373,0.42-1.373,0.91
			c0,0.603,0.532,0.868,1.75,1.33c1.667,0.617,2.452,1.485,2.452,2.816c0,1.582-1.219,2.927-3.81,2.927
			c-1.079,0-2.143-0.279-2.676-0.574L129.715,348.678z"/>
		<path style="fill:#FFFFFF;" d="M137.275,348.678c0.574,0.294,1.457,0.588,2.367,0.588c0.98,0,1.499-0.406,1.499-1.022
			c0-0.588-0.448-0.924-1.583-1.33c-1.569-0.547-2.591-1.415-2.591-2.788c0-1.61,1.345-2.843,3.572-2.843
			c1.064,0,1.849,0.224,2.409,0.476l-0.476,1.723c-0.378-0.182-1.051-0.447-1.975-0.447s-1.373,0.42-1.373,0.91
			c0,0.603,0.532,0.868,1.751,1.33c1.667,0.617,2.451,1.485,2.451,2.816c0,1.582-1.219,2.927-3.81,2.927
			c-1.079,0-2.143-0.279-2.675-0.574L137.275,348.678z"/>
		<path style="fill:#FFFFFF;" d="M150.382,346.885h-3.474v2.241h3.88v1.751h-6.023v-9.441h5.827v1.751h-3.684v1.961h3.474V346.885z"
			/>
		<path style="fill:#FFFFFF;" d="M160.225,347.263c-0.042-1.135-0.084-2.507-0.084-3.88h-0.042c-0.294,1.205-0.687,2.55-1.05,3.656
			l-1.149,3.684h-1.667l-1.008-3.656c-0.308-1.106-0.63-2.451-0.854-3.684h-0.028c-0.056,1.274-0.098,2.731-0.168,3.908
			l-0.168,3.586h-1.975l0.603-9.441h2.843l0.925,3.152c0.294,1.092,0.588,2.269,0.798,3.375h0.042
			c0.266-1.092,0.588-2.339,0.896-3.39l1.008-3.138h2.788l0.519,9.441h-2.087L160.225,347.263z"/>
		<path style="fill:#FFFFFF;" d="M166.228,341.436v9.441h-2.144v-9.441H166.228z"/>
		<path style="fill:#FFFFFF;" d="M168.074,350.877v-9.441h2.494l1.961,3.46c0.56,0.995,1.121,2.171,1.541,3.236h0.042
			c-0.14-1.247-0.182-2.521-0.182-3.937v-2.76h1.961v9.441h-2.241l-2.017-3.642c-0.56-1.009-1.177-2.228-1.639-3.334l-0.042,0.014
			c0.056,1.247,0.084,2.577,0.084,4.118v2.844H168.074z"/>
		<path style="fill:#FFFFFF;" d="M179.933,348.454l-0.672,2.423h-2.213l2.885-9.441h2.802l2.927,9.441h-2.297l-0.729-2.423H179.933z
			 M182.329,346.857l-0.588-2.003c-0.168-0.561-0.336-1.261-0.476-1.82h-0.028c-0.14,0.56-0.28,1.274-0.434,1.82l-0.561,2.003
			H182.329z"/>
		<path style="fill:#FFFFFF;" d="M193.502,350.61c-0.378,0.183-1.191,0.393-2.255,0.406l-0.238,0.477
			c0.546,0.126,1.023,0.49,1.023,1.148c0,0.967-0.869,1.289-1.667,1.289c-0.42,0-0.883-0.084-1.205-0.267l0.28-0.868
			c0.21,0.112,0.532,0.196,0.785,0.196c0.28,0,0.504-0.098,0.504-0.336c0-0.295-0.322-0.448-1.107-0.532l0.532-1.163
			c-2.661-0.351-4.02-2.241-4.02-4.664c0-3.222,2.297-5.015,5.155-5.015c1.106,0,1.947,0.224,2.325,0.42l-0.434,1.694
			c-0.434-0.182-1.037-0.35-1.793-0.35c-1.695,0-3.012,1.022-3.012,3.123c0,1.892,1.121,3.082,3.026,3.082
			c0.644,0,1.358-0.14,1.779-0.308L193.502,350.61z"/>
		<path style="fill:#FFFFFF;" d="M197.237,348.454l-0.672,2.423h-2.213l2.885-9.441h2.802l2.927,9.441h-2.297l-0.729-2.423H197.237z
			 M196.789,340.861c-0.042-1.177,0.406-1.778,1.079-1.778c0.378,0,0.63,0.126,0.896,0.279c0.224,0.141,0.435,0.267,0.616,0.267
			c0.238,0,0.322-0.14,0.378-0.603h0.953c0.042,1.261-0.364,1.751-1.106,1.751c-0.378,0-0.659-0.126-0.911-0.266
			c-0.238-0.126-0.406-0.253-0.588-0.253s-0.308,0.211-0.336,0.603H196.789z M199.632,346.857l-0.588-2.003
			c-0.168-0.561-0.336-1.261-0.476-1.82h-0.028c-0.14,0.56-0.28,1.274-0.434,1.82l-0.561,2.003H199.632z"/>
		<path style="fill:#FFFFFF;" d="M212.515,346.059c0,3.096-1.877,4.973-4.637,4.973c-2.802,0-4.44-2.115-4.44-4.805
			c0-2.83,1.807-4.944,4.595-4.944C210.932,341.282,212.515,343.453,212.515,346.059z M205.693,346.185
			c0,1.849,0.868,3.151,2.297,3.151c1.442,0,2.269-1.373,2.269-3.208c0-1.694-0.812-3.151-2.283-3.151
			C206.533,342.977,205.693,344.35,205.693,346.185z"/>
		<path style="fill:#FFFFFF;" d="M216.738,341.562c0.785-0.126,1.807-0.195,2.886-0.195c1.793,0,2.956,0.321,3.866,1.008
			c0.98,0.729,1.597,1.892,1.597,3.559c0,1.807-0.658,3.054-1.569,3.823c-0.995,0.827-2.507,1.219-4.356,1.219
			c-1.106,0-1.891-0.069-2.423-0.14V341.562z M218.881,349.266c0.182,0.043,0.476,0.043,0.742,0.043
			c1.933,0.014,3.194-1.051,3.194-3.307c0.014-1.961-1.135-2.997-2.97-2.997c-0.476,0-0.784,0.042-0.966,0.084V349.266z"/>
		<path style="fill:#FFFFFF;" d="M235.125,346.059c0,3.096-1.877,4.973-4.637,4.973c-2.802,0-4.44-2.115-4.44-4.805
			c0-2.83,1.807-4.944,4.595-4.944C233.542,341.282,235.125,343.453,235.125,346.059z M228.303,346.185
			c0,1.849,0.868,3.151,2.297,3.151c1.442,0,2.269-1.373,2.269-3.208c0-1.694-0.812-3.151-2.283-3.151
			C229.144,342.977,228.303,344.35,228.303,346.185z"/>
		<path style="fill:#FFFFFF;" d="M237.725,345.19c0.434-1.372,1.037-2.745,1.681-3.796l1.289-0.111
			c-0.435,1.19-0.785,2.549-0.98,3.781L237.725,345.19z M240.456,345.19c0.434-1.372,1.037-2.745,1.681-3.796l1.289-0.111
			c-0.42,1.19-0.785,2.549-0.98,3.781L240.456,345.19z"/>
		<path style="fill:#FFFFFF;" d="M245.286,341.436h2.129v5.968c0,2.689-1.289,3.628-3.362,3.628c-0.49,0-1.135-0.084-1.555-0.225
			l0.238-1.723c0.294,0.098,0.672,0.168,1.093,0.168c0.896,0,1.457-0.406,1.457-1.877V341.436z"/>
		<path style="fill:#FFFFFF;" d="M254.808,346.885h-3.474v2.241h3.88v1.751h-6.023v-9.441h5.827v1.751h-3.684v1.961h3.474V346.885z"
			/>
		<path style="fill:#FFFFFF;" d="M258.81,341.436v9.441h-2.144v-9.441H258.81z"/>
		<path style="fill:#FFFFFF;" d="M262.478,343.229h-2.536v-1.793h7.257v1.793h-2.578v7.648h-2.143V343.229z"/>
		<path style="fill:#FFFFFF;" d="M276.566,346.059c0,3.096-1.877,4.973-4.637,4.973c-2.802,0-4.44-2.115-4.44-4.805
			c0-2.83,1.807-4.944,4.595-4.944C274.983,341.282,276.566,343.453,276.566,346.059z M269.744,346.185
			c0,1.849,0.869,3.151,2.298,3.151c1.442,0,2.269-1.373,2.269-3.208c0-1.694-0.812-3.151-2.283-3.151
			C270.585,342.977,269.744,344.35,269.744,346.185z"/>
		<path style="fill:#FFFFFF;" d="M280.79,341.562c0.784-0.126,1.807-0.195,2.886-0.195c1.793,0,2.955,0.321,3.865,1.008
			c0.98,0.729,1.598,1.892,1.598,3.559c0,1.807-0.659,3.054-1.569,3.823c-0.994,0.827-2.507,1.219-4.356,1.219
			c-1.106,0-1.891-0.069-2.423-0.14V341.562z M282.932,349.266c0.183,0.043,0.477,0.043,0.743,0.043
			c1.933,0.014,3.193-1.051,3.193-3.307c0.014-1.961-1.135-2.997-2.97-2.997c-0.477,0-0.784,0.042-0.967,0.084V349.266z"/>
		<path style="fill:#FFFFFF;" d="M296.151,346.885h-3.475v2.241h3.88v1.751h-6.022v-9.441h5.827v1.751h-3.685v1.961h3.475V346.885z"
			/>
		<path style="fill:#FFFFFF;" d="M300.837,341.562c0.658-0.111,1.583-0.195,2.885-0.195c1.317,0,2.256,0.252,2.886,0.756
			c0.603,0.477,1.009,1.261,1.009,2.186c0,0.924-0.309,1.709-0.868,2.241c-0.729,0.687-1.808,0.994-3.068,0.994
			c-0.279,0-0.532-0.014-0.728-0.042v3.376h-2.115V341.562z M302.953,345.849c0.182,0.042,0.406,0.056,0.714,0.056
			c1.135,0,1.835-0.574,1.835-1.541c0-0.868-0.603-1.387-1.667-1.387c-0.434,0-0.729,0.042-0.882,0.084V345.849z"/>
		<path style="fill:#FFFFFF;" d="M314.588,346.885h-3.475v2.241h3.88v1.751h-6.022v-9.441h5.827v1.751h-3.685v1.961h3.475V346.885z"
			/>
		<path style="fill:#FFFFFF;" d="M316.447,350.877v-9.441h2.493l1.961,3.46c0.561,0.995,1.12,2.171,1.541,3.236h0.042
			c-0.141-1.247-0.183-2.521-0.183-3.937v-2.76h1.962v9.441h-2.242l-2.017-3.642c-0.561-1.009-1.177-2.228-1.639-3.334l-0.042,0.014
			c0.056,1.247,0.084,2.577,0.084,4.118v2.844H316.447z"/>
		<path style="fill:#FFFFFF;" d="M326.176,348.678c0.575,0.294,1.457,0.588,2.368,0.588c0.98,0,1.498-0.406,1.498-1.022
			c0-0.588-0.448-0.924-1.583-1.33c-1.568-0.547-2.591-1.415-2.591-2.788c0-1.61,1.345-2.843,3.572-2.843
			c1.064,0,1.849,0.224,2.409,0.476l-0.477,1.723c-0.378-0.182-1.051-0.447-1.976-0.447c-0.924,0-1.372,0.42-1.372,0.91
			c0,0.603,0.532,0.868,1.751,1.33c1.667,0.617,2.451,1.485,2.451,2.816c0,1.582-1.219,2.927-3.811,2.927
			c-1.078,0-2.143-0.279-2.675-0.574L326.176,348.678z"/>
		<path style="fill:#FFFFFF;" d="M335.866,348.454l-0.673,2.423h-2.213l2.886-9.441h2.801l2.928,9.441h-2.297l-0.729-2.423H335.866z
			 M338.26,346.857l-0.588-2.003c-0.168-0.561-0.336-1.261-0.477-1.82h-0.027c-0.141,0.56-0.28,1.274-0.435,1.82l-0.561,2.003
			H338.26z"/>
		<path style="fill:#FFFFFF;" d="M342.85,341.562c0.687-0.111,1.709-0.195,2.843-0.195c1.401,0,2.382,0.21,3.054,0.742
			c0.561,0.448,0.869,1.106,0.869,1.975c0,1.205-0.854,2.031-1.667,2.325v0.042c0.658,0.267,1.022,0.896,1.261,1.766
			c0.294,1.064,0.588,2.297,0.771,2.661h-2.186c-0.154-0.267-0.378-1.036-0.658-2.199c-0.252-1.177-0.658-1.499-1.527-1.513h-0.644
			v3.712h-2.115V341.562z M344.965,345.624h0.84c1.064,0,1.695-0.532,1.695-1.358c0-0.869-0.589-1.303-1.569-1.317
			c-0.518,0-0.812,0.042-0.966,0.07V345.624z"/>
		<path style="fill:#FFFFFF;" d="M353.63,341.282c-0.434,1.372-1.05,2.745-1.681,3.796l-1.288,0.111
			c0.42-1.19,0.784-2.549,0.98-3.781L353.63,341.282z M356.363,341.282c-0.435,1.372-1.037,2.745-1.682,3.796l-1.288,0.111
			c0.42-1.19,0.784-2.549,0.98-3.781L356.363,341.282z"/>
		<path style="fill:#FFFFFF;" d="M359.467,341.436h5.771v1.751h-3.628v2.157H365v1.737h-3.39v3.796h-2.143V341.436z"/>
		<path style="fill:#FFFFFF;" d="M375.488,346.059c0,3.096-1.877,4.973-4.637,4.973c-2.802,0-4.44-2.115-4.44-4.805
			c0-2.83,1.807-4.944,4.595-4.944C373.905,341.282,375.488,343.453,375.488,346.059z M368.666,346.185
			c0,1.849,0.869,3.151,2.298,3.151c1.442,0,2.269-1.373,2.269-3.208c0-1.694-0.812-3.151-2.283-3.151
			C369.506,342.977,368.666,344.35,368.666,346.185z"/>
		<path style="fill:#FFFFFF;" d="M383.817,350.61c-0.393,0.196-1.274,0.406-2.424,0.406c-3.264,0-4.944-2.03-4.944-4.72
			c0-3.222,2.297-5.015,5.155-5.015c1.106,0,1.946,0.224,2.325,0.42l-0.435,1.694c-0.435-0.182-1.036-0.35-1.793-0.35
			c-1.695,0-3.012,1.022-3.012,3.123c0,1.892,1.121,3.082,3.025,3.082c0.645,0,1.359-0.14,1.779-0.308L383.817,350.61z"/>
		<path style="fill:#FFFFFF;" d="M387.552,348.454l-0.673,2.423h-2.213l2.886-9.441h2.801l2.928,9.441h-2.297l-0.729-2.423H387.552z
			 M389.947,346.857l-0.588-2.003c-0.168-0.561-0.336-1.261-0.477-1.82h-0.027c-0.141,0.56-0.28,1.274-0.435,1.82l-0.561,2.003
			H389.947z"/>
		<path style="fill:#FFFFFF;" d="M394.537,341.562c0.784-0.126,1.807-0.195,2.885-0.195c1.793,0,2.956,0.321,3.866,1.008
			c0.98,0.729,1.598,1.892,1.598,3.559c0,1.807-0.659,3.054-1.569,3.823c-0.994,0.827-2.507,1.219-4.356,1.219
			c-1.106,0-1.891-0.069-2.423-0.14V341.562z M396.679,349.266c0.183,0.043,0.477,0.043,0.742,0.043
			c1.934,0.014,3.194-1.051,3.194-3.307c0.014-1.961-1.135-2.997-2.97-2.997c-0.477,0-0.784,0.042-0.967,0.084V349.266z"/>
		<path style="fill:#FFFFFF;" d="M412.923,346.059c0,3.096-1.877,4.973-4.637,4.973c-2.802,0-4.44-2.115-4.44-4.805
			c0-2.83,1.807-4.944,4.595-4.944C411.34,341.282,412.923,343.453,412.923,346.059z M406.101,346.185
			c0,1.849,0.869,3.151,2.298,3.151c1.442,0,2.269-1.373,2.269-3.208c0-1.694-0.812-3.151-2.283-3.151
			C406.942,342.977,406.101,344.35,406.101,346.185z"/>
		<path style="fill:#FFFFFF;" d="M417.147,350.877v-9.441h2.493l1.961,3.46c0.561,0.995,1.121,2.171,1.541,3.236h0.042
			c-0.141-1.247-0.183-2.521-0.183-3.937v-2.76h1.961v9.441h-2.24l-2.018-3.642c-0.561-1.009-1.177-2.228-1.639-3.334l-0.042,0.014
			c0.056,1.247,0.084,2.577,0.084,4.118v2.844H417.147z"/>
		<path style="fill:#FFFFFF;" d="M429.006,348.454l-0.673,2.423h-2.213l2.886-9.441h2.801l2.928,9.441h-2.297l-0.729-2.423H429.006z
			 M431.401,346.857l-0.588-2.003c-0.168-0.561-0.336-1.261-0.477-1.82h-0.027c-0.141,0.56-0.28,1.274-0.435,1.82l-0.561,2.003
			H431.401z"/>
		<path style="fill:#FFFFFF;" d="M121.528,363.685h-3.474v2.241h3.88v1.751h-6.023v-9.441h5.827v1.751h-3.684v1.961h3.474V363.685z"
			/>
		<path style="fill:#FFFFFF;" d="M128.359,367.677l-0.854-1.709c-0.35-0.658-0.574-1.148-0.84-1.695h-0.028
			c-0.196,0.547-0.434,1.037-0.729,1.695l-0.784,1.709h-2.438l2.731-4.776l-2.633-4.665h2.451l0.827,1.724
			c0.28,0.574,0.49,1.036,0.714,1.568h0.028c0.224-0.603,0.406-1.022,0.645-1.568l0.798-1.724h2.438l-2.662,4.608l2.801,4.833
			H128.359z"/>
		<path style="fill:#FFFFFF;" d="M131.969,358.361c0.659-0.111,1.583-0.195,2.886-0.195c1.317,0,2.255,0.252,2.886,0.756
			c0.602,0.477,1.008,1.261,1.008,2.186c0,0.924-0.308,1.709-0.869,2.241c-0.728,0.687-1.807,0.994-3.067,0.994
			c-0.28,0-0.532-0.014-0.729-0.042v3.376h-2.115V358.361z M134.084,362.649c0.182,0.042,0.406,0.056,0.714,0.056
			c1.135,0,1.835-0.574,1.835-1.541c0-0.868-0.602-1.387-1.667-1.387c-0.435,0-0.729,0.042-0.883,0.084V362.649z"/>
		<path style="fill:#FFFFFF;" d="M145.72,363.685h-3.474v2.241h3.88v1.751h-6.023v-9.441h5.827v1.751h-3.684v1.961h3.474V363.685z"
			/>
		<path style="fill:#FFFFFF;" d="M147.579,358.361c0.687-0.111,1.709-0.195,2.844-0.195c1.401,0,2.381,0.21,3.054,0.742
			c0.56,0.448,0.868,1.106,0.868,1.975c0,1.205-0.854,2.031-1.667,2.325v0.042c0.658,0.267,1.022,0.896,1.261,1.766
			c0.294,1.064,0.588,2.297,0.77,2.661h-2.185c-0.154-0.267-0.378-1.036-0.658-2.199c-0.252-1.177-0.659-1.499-1.527-1.513h-0.645
			v3.712h-2.115V358.361z M149.694,362.424h0.84c1.065,0,1.695-0.532,1.695-1.358c0-0.869-0.588-1.303-1.569-1.317
			c-0.519,0-0.812,0.042-0.967,0.07V362.424z"/>
		<path style="fill:#FFFFFF;" d="M158.024,358.235v9.441h-2.144v-9.441H158.024z"/>
		<path style="fill:#FFFFFF;" d="M165.487,363.685h-3.474v2.241h3.88v1.751h-6.023v-9.441h5.827v1.751h-3.684v1.961h3.474V363.685z
			 M163.638,356.009l1.429,1.723h-1.499l-0.714-0.868h-0.028l-0.7,0.868h-1.485l1.401-1.723H163.638z"/>
		<path style="fill:#FFFFFF;" d="M167.346,367.677v-9.441h2.494l1.961,3.46c0.561,0.995,1.121,2.172,1.541,3.236h0.042
			c-0.14-1.247-0.182-2.521-0.182-3.937v-2.76h1.961v9.441h-2.241l-2.017-3.642c-0.561-1.009-1.177-2.228-1.639-3.334l-0.042,0.014
			c0.056,1.247,0.084,2.577,0.084,4.118v2.844H167.346z"/>
		<path style="fill:#FFFFFF;" d="M183.94,367.41c-0.393,0.196-1.275,0.406-2.423,0.406c-3.264,0-4.945-2.03-4.945-4.72
			c0-3.222,2.297-5.015,5.155-5.015c1.106,0,1.947,0.224,2.325,0.42l-0.434,1.694c-0.434-0.182-1.037-0.35-1.793-0.35
			c-1.695,0-3.012,1.022-3.012,3.124c0,1.891,1.121,3.081,3.026,3.081c0.644,0,1.358-0.14,1.779-0.308L183.94,367.41z"/>
		<path style="fill:#FFFFFF;" d="M187.479,358.235v9.441h-2.144v-9.441H187.479z"/>
		<path style="fill:#FFFFFF;" d="M191.524,365.254l-0.672,2.423h-2.213l2.885-9.441h2.802l2.928,9.441h-2.297l-0.729-2.423H191.524z
			 M193.92,363.656l-0.588-2.003c-0.168-0.561-0.336-1.261-0.476-1.821h-0.028c-0.14,0.561-0.28,1.275-0.434,1.821l-0.561,2.003
			H193.92z"/>
		<path style="fill:#FFFFFF;" d="M201.337,358.361c0.785-0.126,1.807-0.195,2.886-0.195c1.793,0,2.956,0.322,3.866,1.008
			c0.98,0.729,1.597,1.892,1.597,3.559c0,1.807-0.658,3.054-1.569,3.824c-0.995,0.826-2.507,1.218-4.356,1.218
			c-1.106,0-1.891-0.069-2.423-0.14V358.361z M203.481,366.066c0.182,0.042,0.476,0.042,0.742,0.042
			c1.933,0.015,3.194-1.05,3.194-3.306c0.014-1.961-1.135-2.997-2.97-2.997c-0.476,0-0.784,0.042-0.966,0.084V366.066z"/>
		<path style="fill:#FFFFFF;" d="M219.725,362.858c0,3.096-1.877,4.973-4.637,4.973c-2.802,0-4.44-2.115-4.44-4.805
			c0-2.83,1.807-4.944,4.595-4.944C218.142,358.082,219.725,360.253,219.725,362.858z M212.903,362.984
			c0,1.849,0.868,3.151,2.297,3.151c1.442,0,2.269-1.372,2.269-3.208c0-1.694-0.812-3.151-2.283-3.151
			C213.743,359.776,212.903,361.15,212.903,362.984z"/>
		<path style="fill:#FFFFFF;" d="M230.882,367.41c-0.393,0.196-1.275,0.406-2.423,0.406c-3.264,0-4.945-2.03-4.945-4.72
			c0-3.222,2.297-5.015,5.155-5.015c1.106,0,1.947,0.224,2.325,0.42l-0.434,1.694c-0.434-0.182-1.037-0.35-1.793-0.35
			c-1.695,0-3.012,1.022-3.012,3.124c0,1.891,1.121,3.081,3.026,3.081c0.644,0,1.358-0.14,1.779-0.308L230.882,367.41z"/>
		<path style="fill:#FFFFFF;" d="M232.277,358.235h2.144v7.648h3.754v1.793h-5.897V358.235z"/>
		<path style="fill:#FFFFFF;" d="M241.575,358.235v9.441h-2.144v-9.441H241.575z"/>
		<path style="fill:#FFFFFF;" d="M249.038,363.685h-3.474v2.241h3.88v1.751h-6.023v-9.441h5.827v1.751h-3.684v1.961h3.474V363.685z"
			/>
		<path style="fill:#FFFFFF;" d="M250.897,367.677v-9.441h2.494l1.961,3.46c0.561,0.995,1.121,2.172,1.541,3.236h0.042
			c-0.14-1.247-0.182-2.521-0.182-3.937v-2.76h1.961v9.441h-2.241l-2.017-3.642c-0.561-1.009-1.177-2.228-1.639-3.334l-0.042,0.014
			c0.056,1.247,0.084,2.577,0.084,4.118v2.844H250.897z"/>
		<path style="fill:#FFFFFF;" d="M262.378,360.028h-2.536v-1.793h7.257v1.793h-2.578v7.648h-2.143V360.028z"/>
		<path style="fill:#FFFFFF;" d="M273.846,363.685h-3.475v2.241h3.88v1.751h-6.022v-9.441h5.827v1.751h-3.685v1.961h3.475V363.685z"
			/>
		<path style="fill:#FFFFFF;" d="M275.368,366.542c0-0.756,0.519-1.303,1.261-1.303s1.247,0.532,1.247,1.303
			c0,0.742-0.505,1.289-1.261,1.289C275.886,367.831,275.368,367.284,275.368,366.542z"/>
	</g>
</g>
<g id="Layer_1">
</g>
</svg>
