<?xml version="1.0" encoding="iso-8859-1"?>
<!-- Generator: Adobe Illustrator 18.0.0, SVG Export Plug-In . SVG Version: 6.00 Build 0)  -->
<!DOCTYPE svg PUBLIC "-//W3C//DTD SVG 1.1//EN" "http://www.w3.org/Graphics/SVG/1.1/DTD/svg11.dtd">
<svg version="1.1" xmlns="http://www.w3.org/2000/svg" xmlns:xlink="http://www.w3.org/1999/xlink" x="0px" y="0px"
	 viewBox="0 0 531.453 494.191" style="enable-background:new 0 0 531.453 494.191;" xml:space="preserve">
<g id="page13-3">
	
		<polygon style="fill:none;stroke:#000000;stroke-width:3.6793;stroke-linecap:round;stroke-linejoin:round;stroke-miterlimit:10;" points="
		43.446,14.904 69.635,406.333 475.632,438.052 529.613,82.648 	"/>
	<polygon style="opacity:0.8;fill:#E92325;" points="100.919,49.06 83.146,447.249 518.153,405.508 454.366,31.542 	"/>
	<polygon style="fill:#03B9DB;" points="23.262,106.379 387.98,82.648 390.61,211.407 20.388,285.052 	"/>
	
		<polyline style="fill:none;stroke:#000000;stroke-width:3.6793;stroke-linecap:round;stroke-linejoin:round;stroke-miterlimit:10;" points="
		45.65,296.379 1.84,305.543 4.782,122.591 	"/>
	<g>
		<g>
			<g>
				
					<line style="fill:none;stroke:#000000;stroke-width:3.6793;stroke-linecap:round;stroke-linejoin:round;stroke-miterlimit:10;" x1="20.388" y1="335.586" x2="43.803" y2="335.586"/>
				
					<line style="fill:none;stroke:#000000;stroke-width:3.6793;stroke-linecap:round;stroke-linejoin:round;stroke-miterlimit:10;" x1="32.095" y1="323.878" x2="32.095" y2="347.293"/>
			</g>
			<g>
				
					<line style="fill:none;stroke:#000000;stroke-width:3.6793;stroke-linecap:round;stroke-linejoin:round;stroke-miterlimit:10;" x1="274.822" y1="453.476" x2="298.237" y2="453.476"/>
				
					<line style="fill:none;stroke:#000000;stroke-width:3.6793;stroke-linecap:round;stroke-linejoin:round;stroke-miterlimit:10;" x1="286.53" y1="441.769" x2="286.53" y2="465.184"/>
			</g>
			
				<path style="fill:none;stroke:#000000;stroke-width:3.6793;stroke-linecap:round;stroke-linejoin:round;stroke-miterlimit:10;" d="
				M503.274,13.043c8.685,13.564-5.72,27.969-19.284,19.284c-0.931-0.596-1.73-1.395-2.325-2.326
				c-8.681-13.563,5.721-27.965,19.283-19.283C501.879,11.313,502.678,12.112,503.274,13.043z"/>
			<g>
				
					<line style="fill:none;stroke:#000000;stroke-width:3.6793;stroke-linecap:round;stroke-linejoin:round;stroke-miterlimit:10;" x1="211.98" y1="1.84" x2="298.237" y2="1.84"/>
				
					<line style="fill:none;stroke:#000000;stroke-width:3.6793;stroke-linecap:round;stroke-linejoin:round;stroke-miterlimit:10;" x1="264.348" y1="21.523" x2="319.935" y2="21.523"/>
			</g>
			
				<path style="fill:none;stroke:#000000;stroke-width:3.6793;stroke-linecap:round;stroke-linejoin:round;stroke-miterlimit:10;" d="
				M216.304,470.431c8.681,13.563-5.721,27.965-19.283,19.283c-0.931-0.596-1.73-1.395-2.326-2.325
				c-8.685-13.564,5.72-27.969,19.284-19.284C214.91,468.702,215.709,469.501,216.304,470.431z"/>
		</g>
	</g>
	<g>
		<path style="fill:#FFFFFF;" d="M105.939,197.497c-1.718,0.949-5.027,2.423-8.49,3.041c-4.785,0.854-8.463,0.266-11.292-1.639
			c-2.814-1.826-4.748-5.014-5.396-8.872c-1.516-8.722,3.938-14.833,12.535-16.367c3.385-0.604,6.109-0.408,7.505-0.015
			l-0.398,4.969c-1.551-0.366-3.431-0.552-6.309-0.039c-4.941,0.881-8.177,4.349-7.164,10.029c0.965,5.408,4.919,7.994,9.782,7.126
			c1.361-0.243,2.424-0.592,2.849-0.91l-0.979-5.485l-4.047,0.722l-0.825-4.63l9.766-1.743L105.939,197.497z"/>
		<path style="fill:#FFFFFF;" d="M106.163,172.006c1.852-0.651,4.649-1.392,7.801-1.954c3.891-0.694,6.719-0.596,8.85,0.549
			c1.778,0.967,2.961,2.643,3.392,5.055c0.597,3.346-1.368,6.065-3.479,7.285l0.021,0.117c1.961,0.413,3.285,1.983,4.376,4.278
			c1.346,2.811,2.773,6.089,3.459,7.01l-6.069,1.083c-0.56-0.663-1.564-2.691-2.918-5.782c-1.283-3.143-2.571-3.837-4.99-3.445
			l-1.79,0.319l1.839,10.31l-5.874,1.048L106.163,172.006z M114.05,182.24l2.335-0.417c2.956-0.528,4.443-2.318,4.034-4.613
			c-0.431-2.413-2.28-3.327-5.01-2.88c-1.44,0.257-2.236,0.52-2.65,0.674L114.05,182.24z"/>
		<path style="fill:#FFFFFF;" d="M134.886,166.52l2.693,15.096c0.805,4.514,2.927,6.503,5.961,5.961
			c3.112-0.555,4.436-3.04,3.609-7.669l-2.693-15.096l5.914-1.055l2.623,14.706c1.444,8.093-1.953,12.673-8.801,13.895
			c-6.613,1.18-11.157-1.783-12.649-10.147l-2.61-14.629L134.886,166.52z"/>
		<path style="fill:#FFFFFF;" d="M155.564,163.192c1.772-0.638,4.299-1.33,7.917-1.976c3.657-0.652,6.389-0.417,8.39,0.671
			c1.908,1.025,3.426,3.001,3.884,5.569s-0.009,4.899-1.302,6.656c-1.683,2.267-4.525,3.657-8.027,4.282
			c-0.778,0.139-1.484,0.225-2.044,0.244l1.673,9.376l-5.875,1.048L155.564,163.192z M163.562,174.049
			c0.527,0.026,1.156-0.046,2.012-0.199c3.152-0.562,4.812-2.504,4.334-5.188c-0.431-2.412-2.36-3.553-5.317-3.025
			c-1.206,0.215-2.002,0.478-2.409,0.67L163.562,174.049z"/>
		<path style="fill:#FFFFFF;" d="M204.397,167.366c1.534,8.598-2.749,14.741-10.414,16.108c-7.781,1.389-13.381-3.674-14.714-11.144
			c-1.402-7.859,2.568-14.629,10.311-16.011C197.633,154.883,203.106,160.129,204.397,167.366z M185.512,171.096
			c0.916,5.136,3.974,8.324,7.942,7.616c4.008-0.715,5.622-4.938,4.713-10.034c-0.84-4.707-3.818-8.351-7.903-7.622
			C186.256,161.771,184.603,166,185.512,171.096z"/>
		<path style="fill:#FFFFFF;" d="M213.849,152.432l16.028-2.86l0.868,4.863l-10.077,1.798l1.069,5.992l9.415-1.68l0.861,4.824
			l-9.416,1.68l1.881,10.543l-5.952,1.062L213.849,152.432z"/>
		<path style="fill:#FFFFFF;" d="M260.643,157.331c1.534,8.598-2.749,14.741-10.413,16.108c-7.781,1.388-13.381-3.674-14.714-11.144
			c-1.402-7.859,2.568-14.63,10.311-16.011C253.879,144.848,259.352,150.094,260.643,157.331z M241.759,161.061
			c0.916,5.136,3.974,8.323,7.941,7.616c4.008-0.715,5.623-4.938,4.714-10.034c-0.84-4.707-3.818-8.351-7.903-7.622
			C242.503,151.735,240.849,155.964,241.759,161.061z"/>
		<path style="fill:#FFFFFF;" d="M286.043,165.846c-0.991,0.739-3.339,1.76-6.529,2.329c-9.065,1.617-14.74-3.191-16.072-10.661
			c-1.597-8.948,3.896-15.066,11.832-16.482c3.073-0.548,5.519-0.342,6.667,0.015l-0.367,4.923
			c-1.296-0.291-3.052-0.459-5.153-0.084c-4.707,0.84-7.857,4.332-6.816,10.168c0.938,5.252,4.64,8.004,9.931,7.06
			c1.789-0.319,3.704-1.062,4.788-1.737L286.043,165.846z"/>
		<path style="fill:#FFFFFF;" d="M295.358,158.002l-0.667,7.064l-6.147,1.097l3.337-27.652l7.78-1.388l12.81,24.772l-6.381,1.138
			l-3.223-6.37L295.358,158.002z M301.219,152.379l-2.627-5.272c-0.745-1.473-1.559-3.335-2.226-4.822l-0.077,0.014
			c-0.112,1.625-0.146,3.679-0.304,5.273l-0.563,5.841L301.219,152.379z"/>
		<path style="fill:#FFFFFF;" d="M311.289,135.047l5.953-1.062l3.789,21.243l10.427-1.86l0.889,4.98l-16.379,2.922L311.289,135.047z
			"/>
	</g>
	<g>
		<path style="fill:#FFFFFF;" d="M115.911,291.161c0.687-0.111,1.709-0.195,2.844-0.195c1.401,0,2.381,0.21,3.054,0.742
			c0.56,0.448,0.868,1.106,0.868,1.975c0,1.205-0.854,2.031-1.667,2.325v0.042c0.658,0.267,1.022,0.896,1.261,1.766
			c0.294,1.064,0.588,2.297,0.77,2.661h-2.185c-0.154-0.267-0.378-1.036-0.658-2.199c-0.252-1.177-0.659-1.499-1.527-1.513h-0.645
			v3.712h-2.115V291.161z M118.026,295.224h0.84c1.065,0,1.695-0.532,1.695-1.358c0-0.869-0.588-1.303-1.569-1.317
			c-0.519,0-0.812,0.042-0.967,0.07V295.224z"/>
		<path style="fill:#FFFFFF;" d="M129.83,296.484h-3.474v2.241h3.88v1.751h-6.023v-9.441h5.827v1.751h-3.684v1.961h3.474V296.484z"
			/>
		<path style="fill:#FFFFFF;" d="M133.888,298.054l-0.672,2.423h-2.213l2.885-9.441h2.802l2.928,9.441h-2.297l-0.729-2.423H133.888z
			 M136.283,296.456l-0.588-2.003c-0.168-0.561-0.336-1.261-0.476-1.82h-0.028c-0.14,0.56-0.28,1.274-0.434,1.82l-0.561,2.003
			H136.283z"/>
		<path style="fill:#FFFFFF;" d="M140.873,291.035h2.144v7.648h3.754v1.793h-5.897V291.035z"/>
		<path style="fill:#FFFFFF;" d="M150.17,291.035v9.441h-2.144v-9.441H150.17z"/>
		<path style="fill:#FFFFFF;" d="M151.414,299.328l4.496-6.472v-0.056h-4.076v-1.766h6.85v1.233l-4.398,6.387v0.057h4.468v1.765
			h-7.34V299.328z"/>
		<path style="fill:#FFFFFF;" d="M162.405,298.054l-0.672,2.423h-2.213l2.885-9.441h2.802l2.928,9.441h-2.297l-0.729-2.423H162.405z
			 M164.801,296.456l-0.588-2.003c-0.168-0.561-0.336-1.261-0.476-1.82h-0.028c-0.14,0.56-0.28,1.274-0.434,1.82l-0.561,2.003
			H164.801z"/>
		<path style="fill:#FFFFFF;" d="M175.975,300.21c-0.378,0.183-1.191,0.393-2.255,0.406l-0.238,0.477
			c0.546,0.126,1.023,0.49,1.023,1.148c0,0.967-0.869,1.289-1.667,1.289c-0.42,0-0.883-0.084-1.205-0.267l0.28-0.868
			c0.21,0.112,0.532,0.196,0.785,0.196c0.28,0,0.504-0.098,0.504-0.336c0-0.295-0.322-0.448-1.107-0.532l0.532-1.163
			c-2.661-0.351-4.02-2.241-4.02-4.664c0-3.222,2.297-5.015,5.155-5.015c1.106,0,1.947,0.224,2.325,0.42l-0.434,1.694
			c-0.434-0.182-1.037-0.35-1.793-0.35c-1.695,0-3.012,1.022-3.012,3.123c0,1.892,1.121,3.082,3.026,3.082
			c0.644,0,1.358-0.14,1.779-0.308L175.975,300.21z"/>
		<path style="fill:#FFFFFF;" d="M179.709,298.054l-0.672,2.423h-2.213l2.885-9.441h2.802l2.928,9.441h-2.297l-0.729-2.423H179.709z
			 M179.261,290.461c-0.042-1.177,0.406-1.778,1.079-1.778c0.378,0,0.63,0.126,0.896,0.279c0.224,0.141,0.435,0.267,0.617,0.267
			c0.238,0,0.322-0.14,0.378-0.603h0.953c0.042,1.261-0.364,1.751-1.107,1.751c-0.378,0-0.658-0.126-0.91-0.266
			c-0.238-0.126-0.406-0.253-0.588-0.253s-0.308,0.211-0.336,0.603H179.261z M182.105,296.456l-0.588-2.003
			c-0.168-0.561-0.336-1.261-0.476-1.82h-0.028c-0.14,0.56-0.28,1.274-0.434,1.82l-0.561,2.003H182.105z"/>
		<path style="fill:#FFFFFF;" d="M194.987,295.658c0,3.096-1.877,4.973-4.637,4.973c-2.802,0-4.44-2.115-4.44-4.805
			c0-2.83,1.807-4.944,4.595-4.944C193.404,290.882,194.987,293.053,194.987,295.658z M188.166,295.784
			c0,1.849,0.868,3.151,2.297,3.151c1.442,0,2.269-1.373,2.269-3.208c0-1.694-0.812-3.151-2.283-3.151
			C189.006,292.576,188.166,293.949,188.166,295.784z"/>
		<path style="fill:#FFFFFF;" d="M199.211,291.161c0.785-0.126,1.807-0.195,2.886-0.195c1.793,0,2.956,0.321,3.866,1.008
			c0.98,0.729,1.597,1.892,1.597,3.559c0,1.807-0.658,3.054-1.569,3.823c-0.995,0.827-2.507,1.219-4.356,1.219
			c-1.106,0-1.891-0.069-2.423-0.14V291.161z M201.354,298.865c0.182,0.043,0.476,0.043,0.742,0.043
			c1.933,0.014,3.194-1.051,3.194-3.307c0.014-1.961-1.135-2.997-2.97-2.997c-0.476,0-0.784,0.042-0.966,0.084V298.865z"/>
		<path style="fill:#FFFFFF;" d="M214.572,296.484h-3.474v2.241h3.88v1.751h-6.023v-9.441h5.827v1.751h-3.684v1.961h3.474V296.484z"
			/>
		<path style="fill:#FFFFFF;" d="M227.145,300.042c-0.658,0.225-1.905,0.532-3.151,0.532c-1.723,0-2.97-0.434-3.838-1.274
			c-0.868-0.812-1.345-2.045-1.331-3.432c0.014-3.138,2.297-4.931,5.393-4.931c1.219,0,2.157,0.238,2.619,0.462l-0.448,1.709
			c-0.518-0.224-1.163-0.406-2.199-0.406c-1.779,0-3.124,1.009-3.124,3.054c0,1.947,1.219,3.096,2.97,3.096
			c0.49,0,0.882-0.056,1.05-0.14v-1.976h-1.457v-1.667h3.516V300.042z"/>
		<path style="fill:#FFFFFF;" d="M228.807,291.161c0.687-0.111,1.709-0.195,2.844-0.195c1.401,0,2.381,0.21,3.054,0.742
			c0.56,0.448,0.868,1.106,0.868,1.975c0,1.205-0.854,2.031-1.667,2.325v0.042c0.658,0.267,1.022,0.896,1.26,1.766
			c0.294,1.064,0.588,2.297,0.771,2.661h-2.185c-0.154-0.267-0.378-1.036-0.658-2.199c-0.252-1.177-0.659-1.499-1.527-1.513h-0.645
			v3.712h-2.115V291.161z M230.922,295.224h0.84c1.065,0,1.695-0.532,1.695-1.358c0-0.869-0.588-1.303-1.569-1.317
			c-0.519,0-0.812,0.042-0.967,0.07V295.224z"/>
		<path style="fill:#FFFFFF;" d="M239.168,291.035v5.436c0,1.625,0.616,2.451,1.709,2.451c1.121,0,1.737-0.784,1.737-2.451v-5.436
			h2.129v5.295c0,2.914-1.471,4.301-3.937,4.301c-2.381,0-3.782-1.317-3.782-4.328v-5.268H239.168z"/>
		<path style="fill:#FFFFFF;" d="M246.586,291.161c0.659-0.111,1.583-0.195,2.886-0.195c1.317,0,2.255,0.252,2.886,0.756
			c0.602,0.477,1.008,1.261,1.008,2.186c0,0.924-0.308,1.709-0.868,2.241c-0.729,0.687-1.807,0.994-3.068,0.994
			c-0.28,0-0.532-0.014-0.729-0.042v3.376h-2.115V291.161z M248.702,295.448c0.182,0.042,0.406,0.056,0.714,0.056
			c1.135,0,1.835-0.574,1.835-1.541c0-0.868-0.602-1.387-1.667-1.387c-0.434,0-0.728,0.042-0.882,0.084V295.448z"/>
		<path style="fill:#FFFFFF;" d="M263.363,295.658c0,3.096-1.877,4.973-4.637,4.973c-2.802,0-4.44-2.115-4.44-4.805
			c0-2.83,1.807-4.944,4.595-4.944C261.78,290.882,263.363,293.053,263.363,295.658z M256.542,295.784
			c0,1.849,0.868,3.151,2.297,3.151c1.442,0,2.269-1.373,2.269-3.208c0-1.694-0.812-3.151-2.283-3.151
			C257.382,292.576,256.542,293.949,256.542,295.784z"/>
		<path style="fill:#FFFFFF;" d="M267.587,291.035h5.771v1.751h-3.628v2.157h3.39v1.737h-3.39v3.796h-2.143V291.035z"/>
		<path style="fill:#FFFFFF;" d="M283.608,295.658c0,3.096-1.877,4.973-4.637,4.973c-2.802,0-4.44-2.115-4.44-4.805
			c0-2.83,1.807-4.944,4.595-4.944C282.025,290.882,283.608,293.053,283.608,295.658z M276.786,295.784
			c0,1.849,0.869,3.151,2.298,3.151c1.442,0,2.269-1.373,2.269-3.208c0-1.694-0.812-3.151-2.283-3.151
			C277.627,292.576,276.786,293.949,276.786,295.784z"/>
		<path style="fill:#FFFFFF;" d="M291.937,300.21c-0.393,0.196-1.274,0.406-2.424,0.406c-3.264,0-4.944-2.03-4.944-4.72
			c0-3.222,2.297-5.015,5.155-5.015c1.106,0,1.946,0.224,2.325,0.42l-0.435,1.694c-0.435-0.182-1.037-0.35-1.793-0.35
			c-1.695,0-3.012,1.022-3.012,3.123c0,1.892,1.121,3.082,3.025,3.082c0.645,0,1.359-0.14,1.779-0.308L291.937,300.21z"/>
		<path style="fill:#FFFFFF;" d="M295.672,298.054L295,300.477h-2.213l2.886-9.441h2.801l2.928,9.441h-2.297l-0.729-2.423H295.672z
			 M298.067,296.456l-0.588-2.003c-0.168-0.561-0.336-1.261-0.477-1.82h-0.027c-0.141,0.56-0.28,1.274-0.435,1.82l-0.561,2.003
			H298.067z"/>
		<path style="fill:#FFFFFF;" d="M302.657,291.035h2.143v7.648h3.754v1.793h-5.896V291.035z"/>
		<path style="fill:#FFFFFF;" d="M312.638,291.161c0.658-0.111,1.583-0.195,2.885-0.195c1.317,0,2.256,0.252,2.886,0.756
			c0.603,0.477,1.009,1.261,1.009,2.186c0,0.924-0.309,1.709-0.868,2.241c-0.729,0.687-1.808,0.994-3.068,0.994
			c-0.279,0-0.532-0.014-0.728-0.042v3.376h-2.115V291.161z M314.753,295.448c0.182,0.042,0.406,0.056,0.714,0.056
			c1.135,0,1.835-0.574,1.835-1.541c0-0.868-0.603-1.387-1.667-1.387c-0.434,0-0.729,0.042-0.882,0.084V295.448z"/>
		<path style="fill:#FFFFFF;" d="M322.131,298.054l-0.673,2.423h-2.213l2.886-9.441h2.801l2.928,9.441h-2.297l-0.729-2.423H322.131z
			 M324.526,296.456l-0.588-2.003c-0.168-0.561-0.336-1.261-0.477-1.82h-0.027c-0.141,0.56-0.28,1.274-0.435,1.82l-0.561,2.003
			H324.526z"/>
		<path style="fill:#FFFFFF;" d="M329.116,291.161c0.687-0.111,1.709-0.195,2.843-0.195c1.401,0,2.382,0.21,3.054,0.742
			c0.561,0.448,0.869,1.106,0.869,1.975c0,1.205-0.854,2.031-1.667,2.325v0.042c0.658,0.267,1.022,0.896,1.261,1.766
			c0.294,1.064,0.588,2.297,0.771,2.661h-2.186c-0.154-0.267-0.378-1.036-0.658-2.199c-0.252-1.177-0.658-1.499-1.527-1.513h-0.644
			v3.712h-2.115V291.161z M331.231,295.224h0.84c1.064,0,1.695-0.532,1.695-1.358c0-0.869-0.589-1.303-1.569-1.317
			c-0.518,0-0.812,0.042-0.966,0.07V295.224z"/>
		<path style="fill:#FFFFFF;" d="M339.743,298.054l-0.673,2.423h-2.213l2.886-9.441h2.801l2.928,9.441h-2.297l-0.729-2.423H339.743z
			 M342.137,296.456l-0.588-2.003c-0.168-0.561-0.336-1.261-0.477-1.82h-0.027c-0.141,0.56-0.28,1.274-0.435,1.82l-0.561,2.003
			H342.137z"/>
		<path style="fill:#FFFFFF;" d="M358.198,295.658c0,3.096-1.877,4.973-4.637,4.973c-2.802,0-4.44-2.115-4.44-4.805
			c0-2.83,1.807-4.944,4.595-4.944C356.615,290.882,358.198,293.053,358.198,295.658z M351.376,295.784
			c0,1.849,0.869,3.151,2.298,3.151c1.442,0,2.269-1.373,2.269-3.208c0-1.694-0.812-3.151-2.283-3.151
			C352.216,292.576,351.376,293.949,351.376,295.784z"/>
		<path style="fill:#FFFFFF;" d="M359.593,291.161c0.56-0.111,1.694-0.195,2.759-0.195c1.303,0,2.102,0.126,2.788,0.532
			c0.658,0.35,1.135,0.994,1.135,1.849c0,0.841-0.49,1.625-1.555,2.018v0.027c1.078,0.294,1.877,1.106,1.877,2.325
			c0,0.854-0.393,1.527-0.98,2.003c-0.687,0.547-1.836,0.854-3.713,0.854c-1.05,0-1.835-0.069-2.311-0.14V291.161z M361.709,294.775
			h0.7c1.12,0,1.723-0.462,1.723-1.162c0-0.715-0.546-1.093-1.513-1.093c-0.462,0-0.729,0.027-0.91,0.056V294.775z M361.709,298.964
			c0.21,0.028,0.462,0.028,0.826,0.028c0.967,0,1.821-0.364,1.821-1.359c0-0.952-0.854-1.33-1.92-1.33h-0.728V298.964z"/>
		<path style="fill:#FFFFFF;" d="M369.618,292.828h-2.535v-1.793h7.256v1.793h-2.577v7.648h-2.144V292.828z"/>
		<path style="fill:#FFFFFF;" d="M381.086,296.484h-3.475v2.241h3.88v1.751h-6.022v-9.441h5.827v1.751h-3.685v1.961h3.475V296.484z"
			/>
		<path style="fill:#FFFFFF;" d="M382.945,291.161c0.687-0.111,1.709-0.195,2.843-0.195c1.401,0,2.382,0.21,3.054,0.742
			c0.561,0.448,0.869,1.106,0.869,1.975c0,1.205-0.854,2.031-1.667,2.325v0.042c0.658,0.267,1.022,0.896,1.261,1.766
			c0.294,1.064,0.588,2.297,0.771,2.661h-2.186c-0.154-0.267-0.378-1.036-0.658-2.199c-0.252-1.177-0.658-1.499-1.527-1.513h-0.644
			v3.712h-2.115V291.161z M385.06,295.224h0.84c1.064,0,1.695-0.532,1.695-1.358c0-0.869-0.589-1.303-1.569-1.317
			c-0.518,0-0.812,0.042-0.966,0.07V295.224z"/>
		<path style="fill:#FFFFFF;" d="M396.274,298.054l-0.673,2.423h-2.213l2.886-9.441h2.801l2.928,9.441h-2.297l-0.729-2.423H396.274z
			 M398.669,296.456l-0.588-2.003c-0.168-0.561-0.336-1.261-0.477-1.82h-0.027c-0.141,0.56-0.28,1.274-0.435,1.82l-0.561,2.003
			H398.669z"/>
		<path style="fill:#FFFFFF;" d="M411.704,296.484h-3.475v2.241h3.88v1.751h-6.022v-9.441h5.827v1.751h-3.685v1.961h3.475V296.484z"
			/>
		<path style="fill:#FFFFFF;" d="M413.631,298.277c0.575,0.294,1.457,0.588,2.368,0.588c0.98,0,1.498-0.406,1.498-1.022
			c0-0.588-0.448-0.924-1.583-1.33c-1.568-0.547-2.591-1.415-2.591-2.788c0-1.61,1.345-2.843,3.572-2.843
			c1.064,0,1.849,0.224,2.409,0.476l-0.477,1.723c-0.378-0.182-1.051-0.447-1.976-0.447c-0.924,0-1.372,0.42-1.372,0.91
			c0,0.603,0.532,0.868,1.751,1.33c1.667,0.617,2.451,1.485,2.451,2.816c0,1.582-1.219,2.927-3.811,2.927
			c-1.078,0-2.143-0.279-2.675-0.574L413.631,298.277z"/>
		<path style="fill:#FFFFFF;" d="M428.055,300.21c-0.393,0.196-1.274,0.406-2.424,0.406c-3.264,0-4.944-2.03-4.944-4.72
			c0-3.222,2.297-5.015,5.155-5.015c1.106,0,1.946,0.224,2.325,0.42l-0.435,1.694c-0.435-0.182-1.036-0.35-1.793-0.35
			c-1.695,0-3.012,1.022-3.012,3.123c0,1.892,1.121,3.082,3.025,3.082c0.645,0,1.359-0.14,1.779-0.308L428.055,300.21z"/>
		<path style="fill:#FFFFFF;" d="M431.581,291.035v5.436c0,1.625,0.616,2.451,1.709,2.451c1.12,0,1.737-0.784,1.737-2.451v-5.436
			h2.129v5.295c0,2.914-1.471,4.301-3.937,4.301c-2.381,0-3.782-1.317-3.782-4.328v-5.268H431.581z"/>
		<path style="fill:#FFFFFF;" d="M440.82,292.828h-2.535v-1.793h7.256v1.793h-2.577v7.648h-2.144V292.828z"/>
		<path style="fill:#FFFFFF;" d="M447.863,298.054l-0.673,2.423h-2.213l2.886-9.441h2.801l2.928,9.441h-2.297l-0.729-2.423H447.863z
			 M450.257,296.456l-0.588-2.003c-0.168-0.561-0.336-1.261-0.477-1.82h-0.027c-0.141,0.56-0.28,1.274-0.435,1.82l-0.561,2.003
			H450.257z"/>
		<path style="fill:#FFFFFF;" d="M118.11,314.855l-0.672,2.423h-2.213l2.885-9.441h2.802l2.927,9.441h-2.297l-0.729-2.423H118.11z
			 M120.505,313.257l-0.588-2.003c-0.168-0.561-0.336-1.261-0.476-1.82h-0.028c-0.14,0.56-0.28,1.274-0.434,1.82l-0.561,2.003
			H120.505z"/>
		<path style="fill:#FFFFFF;" d="M125.754,309.629h-2.536v-1.793h7.256v1.793h-2.577v7.648h-2.143V309.629z"/>
		<path style="fill:#FFFFFF;" d="M133.748,307.836v9.441h-2.144v-9.441H133.748z"/>
		<path style="fill:#FFFFFF;" d="M137.822,317.277l-3.026-9.441h2.339l1.148,3.992c0.322,1.121,0.617,2.199,0.841,3.376h0.042
			c0.238-1.135,0.532-2.255,0.854-3.334l1.205-4.034h2.269l-3.18,9.441H137.822z"/>
		<path style="fill:#FFFFFF;" d="M145.942,314.855l-0.672,2.423h-2.213l2.885-9.441h2.802l2.927,9.441h-2.297l-0.729-2.423H145.942z
			 M148.337,313.257l-0.588-2.003c-0.168-0.561-0.336-1.261-0.476-1.82h-0.028c-0.14,0.56-0.28,1.274-0.434,1.82l-0.561,2.003
			H148.337z"/>
		<path style="fill:#FFFFFF;" d="M155.755,307.962c0.785-0.126,1.807-0.195,2.886-0.195c1.793,0,2.956,0.321,3.866,1.008
			c0.98,0.729,1.597,1.892,1.597,3.559c0,1.807-0.658,3.054-1.569,3.823c-0.995,0.827-2.507,1.219-4.356,1.219
			c-1.106,0-1.891-0.069-2.423-0.14V307.962z M157.898,315.666c0.182,0.043,0.476,0.043,0.742,0.043
			c1.933,0.014,3.194-1.051,3.194-3.307c0.014-1.961-1.135-2.997-2.97-2.997c-0.476,0-0.785,0.042-0.966,0.084V315.666z"/>
		<path style="fill:#FFFFFF;" d="M167.474,314.855l-0.672,2.423h-2.213l2.885-9.441h2.802l2.927,9.441h-2.297l-0.729-2.423H167.474z
			 M169.87,313.257l-0.588-2.003c-0.168-0.561-0.336-1.261-0.476-1.82h-0.028c-0.14,0.56-0.28,1.274-0.434,1.82l-0.561,2.003H169.87
			z"/>
		<path style="fill:#FFFFFF;" d="M174.529,315.078c0.574,0.294,1.457,0.588,2.367,0.588c0.98,0,1.499-0.406,1.499-1.022
			c0-0.588-0.448-0.924-1.583-1.33c-1.569-0.547-2.591-1.415-2.591-2.788c0-1.61,1.345-2.843,3.572-2.843
			c1.064,0,1.849,0.224,2.409,0.476l-0.476,1.723c-0.378-0.182-1.051-0.447-1.975-0.447s-1.373,0.42-1.373,0.91
			c0,0.603,0.532,0.868,1.75,1.33c1.667,0.617,2.452,1.485,2.452,2.816c0,1.582-1.219,2.927-3.81,2.927
			c-1.079,0-2.143-0.279-2.676-0.574L174.529,315.078z"/>
		<path style="fill:#FFFFFF;" d="M184.847,317.277v-9.441h2.494l1.961,3.46c0.561,0.995,1.121,2.171,1.541,3.236h0.042
			c-0.14-1.247-0.182-2.521-0.182-3.937v-2.76h1.961v9.441h-2.241l-2.017-3.642c-0.561-1.009-1.177-2.228-1.639-3.334l-0.042,0.014
			c0.056,1.247,0.084,2.577,0.084,4.118v2.844H184.847z"/>
		<path style="fill:#FFFFFF;" d="M200.124,313.285h-3.474v2.241h3.88v1.751h-6.023v-9.441h5.827v1.751h-3.684v1.961h3.474V313.285z"
			/>
		<path style="fill:#FFFFFF;" d="M208.917,317.011c-0.393,0.196-1.275,0.406-2.423,0.406c-3.264,0-4.945-2.03-4.945-4.72
			c0-3.222,2.297-5.015,5.155-5.015c1.106,0,1.947,0.224,2.325,0.42l-0.434,1.694c-0.434-0.182-1.037-0.35-1.793-0.35
			c-1.695,0-3.012,1.022-3.012,3.123c0,1.892,1.121,3.082,3.026,3.082c0.644,0,1.358-0.14,1.779-0.308L208.917,317.011z"/>
		<path style="fill:#FFFFFF;" d="M215.93,313.285h-3.474v2.241h3.88v1.751h-6.023v-9.441h5.827v1.751h-3.684v1.961h3.474V313.285z"
			/>
		<path style="fill:#FFFFFF;" d="M217.859,315.078c0.574,0.294,1.457,0.588,2.367,0.588c0.98,0,1.499-0.406,1.499-1.022
			c0-0.588-0.448-0.924-1.583-1.33c-1.569-0.547-2.591-1.415-2.591-2.788c0-1.61,1.345-2.843,3.572-2.843
			c1.064,0,1.849,0.224,2.409,0.476l-0.476,1.723c-0.378-0.182-1.051-0.447-1.975-0.447s-1.373,0.42-1.373,0.91
			c0,0.603,0.532,0.868,1.751,1.33c1.667,0.617,2.451,1.485,2.451,2.816c0,1.582-1.219,2.927-3.81,2.927
			c-1.079,0-2.143-0.279-2.675-0.574L217.859,315.078z"/>
		<path style="fill:#FFFFFF;" d="M225.419,315.078c0.574,0.294,1.457,0.588,2.367,0.588c0.98,0,1.499-0.406,1.499-1.022
			c0-0.588-0.448-0.924-1.583-1.33c-1.569-0.547-2.591-1.415-2.591-2.788c0-1.61,1.345-2.843,3.572-2.843
			c1.064,0,1.849,0.224,2.409,0.476l-0.476,1.723c-0.378-0.182-1.051-0.447-1.975-0.447s-1.373,0.42-1.373,0.91
			c0,0.603,0.532,0.868,1.75,1.33c1.667,0.617,2.452,1.485,2.452,2.816c0,1.582-1.219,2.927-3.81,2.927
			c-1.079,0-2.143-0.279-2.676-0.574L225.419,315.078z"/>
		<path style="fill:#FFFFFF;" d="M235.052,307.836v9.441h-2.144v-9.441H235.052z"/>
		<path style="fill:#FFFFFF;" d="M236.898,307.962c0.785-0.126,1.807-0.195,2.886-0.195c1.793,0,2.956,0.321,3.866,1.008
			c0.98,0.729,1.597,1.892,1.597,3.559c0,1.807-0.658,3.054-1.569,3.823c-0.995,0.827-2.507,1.219-4.356,1.219
			c-1.106,0-1.891-0.069-2.423-0.14V307.962z M239.042,315.666c0.182,0.043,0.476,0.043,0.742,0.043
			c1.933,0.014,3.194-1.051,3.194-3.307c0.014-1.961-1.135-2.997-2.97-2.997c-0.476,0-0.785,0.042-0.966,0.084V315.666z"/>
		<path style="fill:#FFFFFF;" d="M248.618,314.855l-0.672,2.423h-2.213l2.885-9.441h2.802l2.928,9.441h-2.297l-0.729-2.423H248.618z
			 M251.014,313.257l-0.588-2.003c-0.168-0.561-0.336-1.261-0.476-1.82h-0.028c-0.14,0.56-0.28,1.274-0.434,1.82l-0.561,2.003
			H251.014z"/>
		<path style="fill:#FFFFFF;" d="M255.603,307.962c0.785-0.126,1.807-0.195,2.886-0.195c1.793,0,2.956,0.321,3.866,1.008
			c0.98,0.729,1.597,1.892,1.597,3.559c0,1.807-0.658,3.054-1.569,3.823c-0.995,0.827-2.507,1.219-4.356,1.219
			c-1.106,0-1.891-0.069-2.423-0.14V307.962z M257.747,315.666c0.182,0.043,0.476,0.043,0.742,0.043
			c1.933,0.014,3.194-1.051,3.194-3.307c0.014-1.961-1.135-2.997-2.97-2.997c-0.476,0-0.784,0.042-0.966,0.084V315.666z"/>
		<path style="fill:#FFFFFF;" d="M270.965,313.285h-3.475v2.241h3.88v1.751h-6.023v-9.441h5.828v1.751h-3.685v1.961h3.475V313.285z"
			/>
		<path style="fill:#FFFFFF;" d="M272.893,315.078c0.575,0.294,1.457,0.588,2.368,0.588c0.98,0,1.498-0.406,1.498-1.022
			c0-0.588-0.448-0.924-1.583-1.33c-1.568-0.547-2.591-1.415-2.591-2.788c0-1.61,1.345-2.843,3.572-2.843
			c1.064,0,1.849,0.224,2.409,0.476l-0.477,1.723c-0.378-0.182-1.051-0.447-1.976-0.447c-0.924,0-1.372,0.42-1.372,0.91
			c0,0.603,0.532,0.868,1.751,1.33c1.667,0.617,2.451,1.485,2.451,2.816c0,1.582-1.219,2.927-3.811,2.927
			c-1.078,0-2.143-0.279-2.675-0.574L272.893,315.078z"/>
		<path style="fill:#FFFFFF;" d="M288.829,313.285h-3.475v2.241h3.88v1.751h-6.022v-9.441h5.827v1.751h-3.685v1.961h3.475V313.285z"
			/>
		<path style="fill:#FFFFFF;" d="M293.515,307.962c0.784-0.126,1.807-0.195,2.885-0.195c1.793,0,2.956,0.321,3.866,1.008
			c0.98,0.729,1.598,1.892,1.598,3.559c0,1.807-0.659,3.054-1.569,3.823c-0.994,0.827-2.507,1.219-4.356,1.219
			c-1.106,0-1.891-0.069-2.423-0.14V307.962z M295.658,315.666c0.183,0.043,0.477,0.043,0.742,0.043
			c1.934,0.014,3.194-1.051,3.194-3.307c0.014-1.961-1.135-2.997-2.97-2.997c-0.477,0-0.784,0.042-0.967,0.084V315.666z"/>
		<path style="fill:#FFFFFF;" d="M308.877,313.285h-3.475v2.241h3.881v1.751h-6.023v-9.441h5.827v1.751h-3.685v1.961h3.475V313.285z
			"/>
		<path style="fill:#FFFFFF;" d="M310.804,315.078c0.574,0.294,1.457,0.588,2.367,0.588c0.981,0,1.499-0.406,1.499-1.022
			c0-0.588-0.448-0.924-1.583-1.33c-1.568-0.547-2.591-1.415-2.591-2.788c0-1.61,1.345-2.843,3.571-2.843
			c1.065,0,1.85,0.224,2.41,0.476l-0.477,1.723c-0.378-0.182-1.051-0.447-1.976-0.447c-0.924,0-1.372,0.42-1.372,0.91
			c0,0.603,0.532,0.868,1.751,1.33c1.667,0.617,2.451,1.485,2.451,2.816c0,1.582-1.219,2.927-3.811,2.927
			c-1.078,0-2.143-0.279-2.675-0.574L310.804,315.078z"/>
		<path style="fill:#FFFFFF;" d="M323.912,313.285h-3.475v2.241h3.881v1.751h-6.023v-9.441h5.827v1.751h-3.685v1.961h3.475V313.285z
			"/>
		<path style="fill:#FFFFFF;" d="M327.926,307.836h2.129v5.968c0,2.689-1.288,3.628-3.361,3.628c-0.49,0-1.135-0.084-1.555-0.225
			l0.237-1.723c0.295,0.098,0.673,0.168,1.093,0.168c0.896,0,1.457-0.406,1.457-1.877V307.836z"/>
		<path style="fill:#FFFFFF;" d="M340.474,312.459c0,3.096-1.877,4.973-4.637,4.973c-2.802,0-4.44-2.115-4.44-4.805
			c0-2.83,1.807-4.944,4.595-4.944C338.891,307.683,340.474,309.854,340.474,312.459z M333.652,312.585
			c0,1.849,0.869,3.151,2.298,3.151c1.442,0,2.269-1.373,2.269-3.208c0-1.694-0.812-3.151-2.283-3.151
			C334.493,309.377,333.652,310.75,333.652,312.585z"/>
		<path style="fill:#FFFFFF;" d="M341.939,315.078c0.574,0.294,1.457,0.588,2.367,0.588c0.981,0,1.499-0.406,1.499-1.022
			c0-0.588-0.448-0.924-1.583-1.33c-1.568-0.547-2.591-1.415-2.591-2.788c0-1.61,1.345-2.843,3.571-2.843
			c1.065,0,1.85,0.224,2.41,0.476l-0.477,1.723c-0.378-0.182-1.051-0.447-1.976-0.447c-0.924,0-1.372,0.42-1.372,0.91
			c0,0.603,0.532,0.868,1.751,1.33c1.667,0.617,2.451,1.485,2.451,2.816c0,1.582-1.219,2.927-3.811,2.927
			c-1.078,0-2.143-0.279-2.675-0.574L341.939,315.078z"/>
		<path style="fill:#FFFFFF;" d="M352.257,307.962c0.784-0.126,1.807-0.195,2.885-0.195c1.793,0,2.956,0.321,3.866,1.008
			c0.98,0.729,1.598,1.892,1.598,3.559c0,1.807-0.659,3.054-1.569,3.823c-0.994,0.827-2.507,1.219-4.356,1.219
			c-1.106,0-1.891-0.069-2.423-0.14V307.962z M354.4,315.666c0.183,0.043,0.477,0.043,0.742,0.043
			c1.934,0.014,3.194-1.051,3.194-3.307c0.014-1.961-1.135-2.997-2.97-2.997c-0.477,0-0.784,0.042-0.967,0.084V315.666z"/>
		<path style="fill:#FFFFFF;" d="M370.644,312.459c0,3.096-1.877,4.973-4.637,4.973c-2.802,0-4.44-2.115-4.44-4.805
			c0-2.83,1.807-4.944,4.595-4.944C369.061,307.683,370.644,309.854,370.644,312.459z M363.822,312.585
			c0,1.849,0.869,3.151,2.298,3.151c1.442,0,2.269-1.373,2.269-3.208c0-1.694-0.812-3.151-2.283-3.151
			C364.663,309.377,363.822,310.75,363.822,312.585z"/>
		<path style="fill:#FFFFFF;" d="M372.109,315.078c0.574,0.294,1.457,0.588,2.367,0.588c0.981,0,1.499-0.406,1.499-1.022
			c0-0.588-0.448-0.924-1.583-1.33c-1.568-0.547-2.591-1.415-2.591-2.788c0-1.61,1.345-2.843,3.571-2.843
			c1.065,0,1.85,0.224,2.41,0.476l-0.477,1.723c-0.378-0.182-1.051-0.447-1.976-0.447c-0.924,0-1.372,0.42-1.372,0.91
			c0,0.603,0.532,0.868,1.751,1.33c1.667,0.617,2.451,1.485,2.451,2.816c0,1.582-1.219,2.927-3.811,2.927
			c-1.078,0-2.143-0.279-2.675-0.574L372.109,315.078z"/>
		<path style="fill:#FFFFFF;" d="M389.361,317.011c-0.393,0.196-1.274,0.406-2.424,0.406c-3.264,0-4.944-2.03-4.944-4.72
			c0-3.222,2.297-5.015,5.155-5.015c1.106,0,1.946,0.224,2.325,0.42l-0.435,1.694c-0.435-0.182-1.037-0.35-1.793-0.35
			c-1.695,0-3.012,1.022-3.012,3.123c0,1.892,1.121,3.082,3.025,3.082c0.645,0,1.359-0.14,1.779-0.308L389.361,317.011z"/>
		<path style="fill:#FFFFFF;" d="M390.757,307.836h2.143v7.648h3.754v1.793h-5.896V307.836z"/>
		<path style="fill:#FFFFFF;" d="M400.054,307.836v9.441h-2.143v-9.441H400.054z"/>
		<path style="fill:#FFFFFF;" d="M407.519,313.285h-3.475v2.241h3.881v1.751h-6.023v-9.441h5.827v1.751h-3.685v1.961h3.475V313.285z
			"/>
		<path style="fill:#FFFFFF;" d="M409.378,317.277v-9.441h2.493l1.961,3.46c0.561,0.995,1.121,2.171,1.541,3.236h0.042
			c-0.141-1.247-0.183-2.521-0.183-3.937v-2.76h1.961v9.441h-2.24l-2.018-3.642c-0.561-1.009-1.177-2.228-1.639-3.334l-0.042,0.014
			c0.056,1.247,0.084,2.577,0.084,4.118v2.844H409.378z"/>
		<path style="fill:#FFFFFF;" d="M420.858,309.629h-2.535v-1.793h7.256v1.793h-2.577v7.648h-2.144V309.629z"/>
		<path style="fill:#FFFFFF;" d="M432.327,313.285h-3.475v2.241h3.88v1.751h-6.022v-9.441h5.827v1.751h-3.685v1.961h3.475V313.285z"
			/>
		<path style="fill:#FFFFFF;" d="M434.254,315.078c0.575,0.294,1.457,0.588,2.368,0.588c0.98,0,1.498-0.406,1.498-1.022
			c0-0.588-0.448-0.924-1.583-1.33c-1.568-0.547-2.591-1.415-2.591-2.788c0-1.61,1.345-2.843,3.572-2.843
			c1.064,0,1.849,0.224,2.409,0.476l-0.477,1.723c-0.378-0.182-1.051-0.447-1.976-0.447c-0.924,0-1.372,0.42-1.372,0.91
			c0,0.603,0.532,0.868,1.751,1.33c1.667,0.617,2.451,1.485,2.451,2.816c0,1.582-1.219,2.927-3.811,2.927
			c-1.078,0-2.143-0.279-2.675-0.574L434.254,315.078z"/>
		<path style="fill:#FFFFFF;" d="M441.52,316.143c0-0.756,0.519-1.303,1.261-1.303s1.247,0.532,1.247,1.303
			c0,0.742-0.505,1.289-1.261,1.289C442.039,317.432,441.52,316.885,441.52,316.143z"/>
	</g>
</g>
<g id="Layer_1">
</g>
</svg>
