<?xml version="1.0" encoding="iso-8859-1"?>
<!-- Generator: Adobe Illustrator 18.0.0, SVG Export Plug-In . SVG Version: 6.00 Build 0)  -->
<!DOCTYPE svg PUBLIC "-//W3C//DTD SVG 1.1//EN" "http://www.w3.org/Graphics/SVG/1.1/DTD/svg11.dtd">
<svg version="1.1" xmlns="http://www.w3.org/2000/svg" xmlns:xlink="http://www.w3.org/1999/xlink" x="0px" y="0px"
	 viewBox="0 0 531.453 494.191" style="enable-background:new 0 0 531.453 494.191;" xml:space="preserve">
<g id="page13-6">
	
		<polygon style="fill:none;stroke:#000000;stroke-width:3.6793;stroke-linecap:round;stroke-linejoin:round;stroke-miterlimit:10;" points="
		43.446,14.904 69.635,406.333 475.632,438.052 529.613,82.648 	"/>
	<polygon style="opacity:0.8;fill:#E92325;" points="100.919,49.06 83.146,447.249 518.153,405.508 454.366,31.542 	"/>
	<polygon style="fill:#03B9DB;" points="23.262,106.379 387.98,82.648 390.61,211.407 20.388,285.052 	"/>
	
		<polyline style="fill:none;stroke:#000000;stroke-width:3.6793;stroke-linecap:round;stroke-linejoin:round;stroke-miterlimit:10;" points="
		45.65,296.379 1.84,305.543 4.782,122.591 	"/>
	<g>
		<g>
			<g>
				
					<line style="fill:none;stroke:#000000;stroke-width:3.6793;stroke-linecap:round;stroke-linejoin:round;stroke-miterlimit:10;" x1="20.388" y1="335.586" x2="43.803" y2="335.586"/>
				
					<line style="fill:none;stroke:#000000;stroke-width:3.6793;stroke-linecap:round;stroke-linejoin:round;stroke-miterlimit:10;" x1="32.095" y1="323.878" x2="32.095" y2="347.293"/>
			</g>
			<g>
				
					<line style="fill:none;stroke:#000000;stroke-width:3.6793;stroke-linecap:round;stroke-linejoin:round;stroke-miterlimit:10;" x1="274.822" y1="453.476" x2="298.237" y2="453.476"/>
				
					<line style="fill:none;stroke:#000000;stroke-width:3.6793;stroke-linecap:round;stroke-linejoin:round;stroke-miterlimit:10;" x1="286.53" y1="441.769" x2="286.53" y2="465.184"/>
			</g>
			
				<path style="fill:none;stroke:#000000;stroke-width:3.6793;stroke-linecap:round;stroke-linejoin:round;stroke-miterlimit:10;" d="
				M503.274,13.043c8.685,13.564-5.72,27.969-19.284,19.284c-0.931-0.596-1.73-1.395-2.325-2.326
				c-8.681-13.563,5.721-27.965,19.283-19.283C501.879,11.313,502.678,12.112,503.274,13.043z"/>
			<g>
				
					<line style="fill:none;stroke:#000000;stroke-width:3.6793;stroke-linecap:round;stroke-linejoin:round;stroke-miterlimit:10;" x1="211.98" y1="1.84" x2="298.237" y2="1.84"/>
				
					<line style="fill:none;stroke:#000000;stroke-width:3.6793;stroke-linecap:round;stroke-linejoin:round;stroke-miterlimit:10;" x1="264.348" y1="21.523" x2="319.935" y2="21.523"/>
			</g>
			
				<path style="fill:none;stroke:#000000;stroke-width:3.6793;stroke-linecap:round;stroke-linejoin:round;stroke-miterlimit:10;" d="
				M216.304,470.431c8.681,13.563-5.721,27.965-19.283,19.283c-0.931-0.596-1.73-1.395-2.326-2.325
				c-8.685-13.564,5.72-27.969,19.284-19.284C214.91,468.702,215.709,469.501,216.304,470.431z"/>
		</g>
	</g>
	<g>
		<path style="fill:#FFFFFF;" d="M50.152,177.266l-7.042,1.257l-0.888-4.98l20.152-3.596l0.889,4.98l-7.158,1.277l3.79,21.242
			l-5.953,1.062L50.152,177.266z"/>
		<path style="fill:#FFFFFF;" d="M65.586,169.736c1.851-0.652,4.648-1.393,7.8-1.955c3.891-0.694,6.719-0.596,8.85,0.549
			c1.778,0.968,2.961,2.643,3.391,5.055c0.598,3.346-1.366,6.065-3.478,7.285l0.021,0.117c1.96,0.413,3.284,1.983,4.375,4.277
			c1.346,2.811,2.773,6.089,3.459,7.01l-6.069,1.083c-0.56-0.663-1.564-2.691-2.918-5.781c-1.283-3.144-2.571-3.837-4.99-3.445
			l-1.79,0.319l1.84,10.31l-5.875,1.048L65.586,169.736z M73.472,179.97l2.335-0.417c2.956-0.527,4.443-2.318,4.034-4.613
			c-0.431-2.413-2.279-3.327-5.01-2.88c-1.44,0.257-2.236,0.52-2.65,0.674L73.472,179.97z"/>
		<path style="fill:#FFFFFF;" d="M98.525,183.609l-0.667,7.064l-6.147,1.097l3.336-27.653l7.781-1.388l12.811,24.772l-6.381,1.139
			l-3.224-6.37L98.525,183.609z M104.386,177.987l-2.627-5.272c-0.744-1.473-1.559-3.335-2.226-4.821l-0.077,0.014
			c-0.111,1.625-0.146,3.679-0.304,5.273l-0.563,5.841L104.386,177.987z"/>
		<path style="fill:#FFFFFF;" d="M119.134,186.877l-4.679-26.223l6.925-1.235l7.162,8.638c2.049,2.484,4.188,5.475,5.883,8.224
			l0.117-0.021c-1.007-3.393-1.756-6.913-2.457-10.842l-1.367-7.665l5.447-0.972l4.678,26.223l-6.225,1.11l-7.407-9.116
			c-2.056-2.523-4.372-5.603-6.204-8.447l-0.11,0.059c0.773,3.436,1.512,7.118,2.274,11.397l1.409,7.897L119.134,186.877z"/>
		<path style="fill:#FFFFFF;" d="M145.079,175.946c1.741,0.532,4.338,0.912,6.866,0.46c2.724-0.485,3.962-1.871,3.656-3.582
			c-0.291-1.635-1.703-2.346-5.056-2.912c-4.628-0.74-7.898-2.646-8.579-6.458c-0.798-4.475,2.326-8.564,8.512-9.668
			c2.957-0.528,5.247-0.294,6.928,0.129l-0.469,5.021c-1.141-0.318-3.14-0.724-5.708-0.266c-2.567,0.458-3.604,1.848-3.361,3.209
			c0.299,1.673,1.909,2.148,5.522,2.828c4.936,0.886,7.545,2.909,8.204,6.605c0.784,4.396-1.934,8.735-9.132,10.019
			c-2.996,0.535-6.091,0.285-7.715-0.269L145.079,175.946z"/>
		<path style="fill:#FFFFFF;" d="M162.3,152.118l16.029-2.86l0.867,4.863l-10.076,1.798l1.069,5.992l9.415-1.68l0.861,4.824
			l-9.416,1.68l1.881,10.543l-5.952,1.062L162.3,152.118z"/>
		<path style="fill:#FFFFFF;" d="M209.095,157.017c1.534,8.598-2.748,14.741-10.413,16.109c-7.781,1.388-13.381-3.674-14.714-11.144
			c-1.402-7.859,2.568-14.629,10.311-16.011C202.332,144.534,207.804,149.78,209.095,157.017z M190.211,160.748
			c0.916,5.136,3.974,8.324,7.942,7.616c4.007-0.715,5.622-4.938,4.713-10.034c-0.84-4.708-3.818-8.352-7.903-7.623
			C190.956,151.421,189.302,155.65,190.211,160.748z"/>
		<path style="fill:#FFFFFF;" d="M210.753,143.835c1.851-0.651,4.648-1.392,7.8-1.954c3.891-0.694,6.719-0.596,8.85,0.549
			c1.778,0.968,2.961,2.643,3.391,5.055c0.598,3.346-1.366,6.065-3.478,7.285l0.021,0.117c1.96,0.413,3.284,1.983,4.376,4.277
			c1.345,2.812,2.772,6.089,3.458,7.01l-6.069,1.083c-0.56-0.663-1.563-2.691-2.918-5.782c-1.283-3.144-2.571-3.837-4.99-3.445
			l-1.79,0.319l1.84,10.31l-5.875,1.048L210.753,143.835z M218.64,154.069l2.335-0.417c2.956-0.528,4.443-2.318,4.034-4.614
			c-0.431-2.412-2.279-3.327-5.01-2.88c-1.44,0.257-2.236,0.52-2.65,0.674L218.64,154.069z"/>
		<path style="fill:#FFFFFF;" d="M258.821,151.598c-0.679-3.131-1.476-6.923-2.155-10.736l-0.117,0.021
			c-0.221,3.492-0.644,7.421-1.106,10.675l-1.364,10.801l-4.63,0.826l-4.612-9.655c-1.405-2.92-2.967-6.495-4.2-9.809l-0.077,0.014
			c0.476,3.569,1.081,7.636,1.47,10.938l1.31,10.043l-5.485,0.979l-3.006-26.521l7.897-1.409l4.13,8.296
			c1.358,2.889,2.759,6.011,3.891,8.98l0.117-0.021c0.197-3.167,0.475-6.789,0.811-9.86l1.245-9.215l7.743-1.381l6.117,25.966
			l-5.796,1.034L258.821,151.598z"/>
		<path style="fill:#FFFFFF;" d="M276.135,151.921l-0.667,7.063l-6.147,1.097l3.337-27.652l7.781-1.389l12.81,24.772l-6.381,1.139
			l-3.224-6.37L276.135,151.921z M281.996,146.298l-2.626-5.272c-0.745-1.473-1.559-3.335-2.226-4.822l-0.078,0.014
			c-0.11,1.625-0.146,3.679-0.304,5.272l-0.562,5.841L281.996,146.298z"/>
		<path style="fill:#FFFFFF;" d="M314.899,151.187c-0.96,0.693-3.113,1.679-6.062,2.246l-0.426,1.44
			c1.58,0.08,3.083,0.855,3.409,2.684c0.479,2.685-1.773,4.009-3.991,4.405c-1.167,0.208-2.492,0.204-3.478-0.142l0.348-2.552
			c0.639,0.208,1.576,0.281,2.276,0.156c0.778-0.139,1.353-0.522,1.234-1.184c-0.146-0.817-1.117-1.085-3.338-0.93l0.902-3.493
			c-7.565,0.346-12.276-4.232-13.478-10.964c-1.597-8.948,3.896-15.066,11.832-16.482c3.074-0.548,5.52-0.342,6.667,0.015
			l-0.366,4.923c-1.297-0.291-3.053-0.459-5.154-0.084c-4.707,0.84-7.857,4.333-6.815,10.168c0.937,5.252,4.639,8.004,9.93,7.06
			c1.79-0.319,3.705-1.062,4.788-1.737L314.899,151.187z"/>
		<path style="fill:#FFFFFF;" d="M324.213,143.343l-0.667,7.063l-6.147,1.097l3.337-27.652l7.781-1.388l12.809,24.772l-6.38,1.138
			l-3.224-6.37L324.213,143.343z M319.206,122.478c-0.7-3.248,0.246-5.142,2.114-5.476c1.051-0.188,1.812,0.038,2.629,0.333
			c0.691,0.278,1.338,0.524,1.844,0.434c0.661-0.118,0.825-0.549,0.752-1.86l2.646-0.472c0.74,3.48-0.145,5.043-2.207,5.411
			c-1.051,0.188-1.891-0.023-2.66-0.288c-0.725-0.231-1.254-0.499-1.76-0.408c-0.506,0.09-0.752,0.736-0.635,1.84L319.206,122.478z
			 M330.074,137.72l-2.626-5.272c-0.745-1.473-1.559-3.335-2.226-4.821l-0.077,0.014c-0.111,1.625-0.146,3.679-0.304,5.272
			l-0.563,5.841L330.074,137.72z"/>
		<path style="fill:#FFFFFF;" d="M365.467,129.118c1.534,8.598-2.749,14.741-10.413,16.108c-7.781,1.389-13.382-3.674-14.715-11.144
			c-1.401-7.859,2.569-14.629,10.312-16.011C358.704,116.635,364.176,121.881,365.467,129.118z M346.584,132.848
			c0.916,5.136,3.974,8.324,7.941,7.616c4.008-0.715,5.623-4.938,4.714-10.034c-0.84-4.708-3.818-8.352-7.903-7.623
			C347.328,123.522,345.673,127.751,346.584,132.848z"/>
		<path style="fill:#FFFFFF;" d="M140.254,204.578c2.116-0.739,4.922-1.44,7.918-1.975c4.979-0.889,8.368-0.57,11.237,0.885
			c3.084,1.538,5.373,4.461,6.199,9.091c0.895,5.019-0.316,8.808-2.463,11.399c-2.354,2.788-6.36,4.627-11.496,5.544
			c-3.073,0.548-5.287,0.742-6.8,0.811L140.254,204.578z M150.025,224.914c0.527,0.026,1.344-0.12,2.083-0.251
			c5.376-0.919,8.35-4.5,7.232-10.764c-0.933-5.454-4.637-7.764-9.733-6.854c-1.323,0.236-2.158,0.506-2.644,0.713L150.025,224.914z
			"/>
		<path style="fill:#FFFFFF;" d="M173.218,198.336l4.679,26.222l-5.953,1.062l-4.679-26.222L173.218,198.336z"/>
		<path style="fill:#FFFFFF;" d="M204.718,218.527c-1.717,0.949-5.027,2.423-8.489,3.041c-4.786,0.854-8.464,0.266-11.292-1.639
			c-2.815-1.826-4.749-5.014-5.396-8.872c-1.517-8.722,3.937-14.833,12.535-16.368c3.385-0.604,6.109-0.407,7.504-0.014
			l-0.398,4.969c-1.551-0.366-3.43-0.552-6.309-0.038c-4.941,0.881-8.177,4.349-7.163,10.029c0.965,5.408,4.919,7.994,9.782,7.127
			c1.361-0.243,2.424-0.593,2.848-0.91l-0.979-5.486l-4.046,0.722l-0.826-4.63l9.766-1.743L204.718,218.527z"/>
		<path style="fill:#FFFFFF;" d="M210.833,191.624l4.679,26.223l-5.952,1.062l-4.679-26.222L210.833,191.624z"/>
		<path style="fill:#FFFFFF;" d="M221.913,194.786l-7.042,1.256l-0.889-4.979l20.153-3.596l0.889,4.979l-7.159,1.277l3.79,21.243
			l-5.952,1.062L221.913,194.786z"/>
		<path style="fill:#FFFFFF;" d="M244.068,205.807l-0.667,7.063l-6.146,1.097l3.336-27.652l7.781-1.388l12.81,24.771l-6.38,1.138
			l-3.225-6.37L244.068,205.807z M249.929,200.185l-2.626-5.272c-0.745-1.473-1.56-3.335-2.226-4.822L245,190.105
			c-0.111,1.625-0.146,3.68-0.304,5.273l-0.563,5.841L249.929,200.185z"/>
		<path style="fill:#FFFFFF;" d="M259.999,182.852l5.953-1.062l3.79,21.243l10.427-1.86l0.889,4.979l-16.38,2.922L259.999,182.852z"
			/>
	</g>
	<g>
		<path style="fill:#FFFFFF;" d="M117.732,292.828h-2.536v-1.793h7.256v1.793h-2.577v7.648h-2.143V292.828z"/>
		<path style="fill:#FFFFFF;" d="M123.583,291.161c0.687-0.111,1.709-0.195,2.844-0.195c1.401,0,2.381,0.21,3.054,0.742
			c0.56,0.448,0.868,1.106,0.868,1.975c0,1.205-0.854,2.031-1.667,2.325v0.042c0.658,0.267,1.022,0.896,1.261,1.766
			c0.294,1.064,0.588,2.297,0.77,2.661h-2.185c-0.154-0.267-0.378-1.036-0.658-2.199c-0.252-1.177-0.659-1.499-1.527-1.513h-0.645
			v3.712h-2.115V291.161z M125.698,295.224h0.84c1.065,0,1.695-0.532,1.695-1.358c0-0.869-0.588-1.303-1.569-1.317
			c-0.519,0-0.812,0.042-0.967,0.07V295.224z"/>
		<path style="fill:#FFFFFF;" d="M134.21,298.054l-0.672,2.423h-2.213l2.885-9.441h2.802l2.927,9.441h-2.297l-0.729-2.423H134.21z
			 M136.605,296.456l-0.588-2.003c-0.168-0.561-0.336-1.261-0.476-1.82h-0.028c-0.14,0.56-0.28,1.274-0.434,1.82l-0.561,2.003
			H136.605z"/>
		<path style="fill:#FFFFFF;" d="M141.194,300.477v-9.441h2.494l1.961,3.46c0.56,0.995,1.121,2.171,1.541,3.236h0.042
			c-0.14-1.247-0.182-2.521-0.182-3.937v-2.76h1.961v9.441h-2.241l-2.017-3.642c-0.56-1.009-1.177-2.228-1.639-3.334l-0.042,0.014
			c0.056,1.247,0.084,2.577,0.084,4.118v2.844H141.194z"/>
		<path style="fill:#FFFFFF;" d="M150.924,298.277c0.574,0.294,1.457,0.588,2.367,0.588c0.98,0,1.499-0.406,1.499-1.022
			c0-0.588-0.448-0.924-1.583-1.33c-1.569-0.547-2.591-1.415-2.591-2.788c0-1.61,1.345-2.843,3.572-2.843
			c1.064,0,1.849,0.224,2.409,0.476l-0.476,1.723c-0.378-0.182-1.051-0.447-1.975-0.447s-1.373,0.42-1.373,0.91
			c0,0.603,0.532,0.868,1.751,1.33c1.667,0.617,2.451,1.485,2.451,2.816c0,1.582-1.219,2.927-3.81,2.927
			c-1.079,0-2.143-0.279-2.675-0.574L150.924,298.277z"/>
		<path style="fill:#FFFFFF;" d="M158.414,291.035h5.771v1.751h-3.628v2.157h3.39v1.737h-3.39v3.796h-2.144V291.035z"/>
		<path style="fill:#FFFFFF;" d="M174.435,295.658c0,3.096-1.877,4.973-4.637,4.973c-2.801,0-4.44-2.115-4.44-4.805
			c0-2.83,1.807-4.944,4.595-4.944C172.852,290.882,174.435,293.053,174.435,295.658z M167.613,295.784
			c0,1.849,0.868,3.151,2.297,3.151c1.443,0,2.27-1.373,2.27-3.208c0-1.694-0.812-3.151-2.283-3.151
			C168.454,292.576,167.613,293.949,167.613,295.784z"/>
		<path style="fill:#FFFFFF;" d="M175.83,291.161c0.687-0.111,1.709-0.195,2.844-0.195c1.401,0,2.381,0.21,3.054,0.742
			c0.56,0.448,0.868,1.106,0.868,1.975c0,1.205-0.854,2.031-1.667,2.325v0.042c0.658,0.267,1.022,0.896,1.26,1.766
			c0.294,1.064,0.588,2.297,0.771,2.661h-2.185c-0.154-0.267-0.378-1.036-0.658-2.199c-0.252-1.177-0.659-1.499-1.527-1.513h-0.645
			v3.712h-2.115V291.161z M177.945,295.224h0.84c1.065,0,1.695-0.532,1.695-1.358c0-0.869-0.588-1.303-1.569-1.317
			c-0.519,0-0.812,0.042-0.967,0.07V295.224z"/>
		<path style="fill:#FFFFFF;" d="M192.116,296.862c-0.042-1.135-0.084-2.507-0.084-3.88h-0.042c-0.294,1.205-0.687,2.55-1.051,3.656
			l-1.148,3.684h-1.667l-1.008-3.656c-0.308-1.106-0.63-2.451-0.854-3.684h-0.028c-0.056,1.274-0.098,2.731-0.168,3.908
			l-0.168,3.586h-1.975l0.603-9.441h2.843l0.925,3.152c0.294,1.092,0.588,2.269,0.798,3.375h0.042
			c0.266-1.092,0.588-2.339,0.896-3.39l1.008-3.138h2.788l0.519,9.441h-2.087L192.116,296.862z"/>
		<path style="fill:#FFFFFF;" d="M198.133,298.054l-0.672,2.423h-2.213l2.885-9.441h2.802l2.928,9.441h-2.297l-0.729-2.423H198.133z
			 M200.528,296.456l-0.588-2.003c-0.168-0.561-0.336-1.261-0.476-1.82h-0.028c-0.14,0.56-0.28,1.274-0.434,1.82l-0.561,2.003
			H200.528z"/>
		<path style="fill:#FFFFFF;" d="M211.702,300.21c-0.378,0.183-1.191,0.393-2.255,0.406l-0.238,0.477
			c0.546,0.126,1.022,0.49,1.022,1.148c0,0.967-0.868,1.289-1.667,1.289c-0.42,0-0.883-0.084-1.205-0.267l0.28-0.868
			c0.21,0.112,0.532,0.196,0.785,0.196c0.28,0,0.504-0.098,0.504-0.336c0-0.295-0.322-0.448-1.107-0.532l0.532-1.163
			c-2.661-0.351-4.02-2.241-4.02-4.664c0-3.222,2.297-5.015,5.155-5.015c1.106,0,1.947,0.224,2.325,0.42l-0.434,1.694
			c-0.434-0.182-1.037-0.35-1.793-0.35c-1.695,0-3.012,1.022-3.012,3.123c0,1.892,1.121,3.082,3.026,3.082
			c0.644,0,1.358-0.14,1.779-0.308L211.702,300.21z"/>
		<path style="fill:#FFFFFF;" d="M215.437,298.054l-0.672,2.423h-2.213l2.885-9.441h2.802l2.928,9.441h-2.297l-0.729-2.423H215.437z
			 M214.988,290.461c-0.042-1.177,0.406-1.778,1.079-1.778c0.378,0,0.63,0.126,0.896,0.279c0.224,0.141,0.435,0.267,0.617,0.267
			c0.238,0,0.322-0.14,0.378-0.603h0.953c0.042,1.261-0.364,1.751-1.107,1.751c-0.378,0-0.658-0.126-0.91-0.266
			c-0.238-0.126-0.406-0.253-0.588-0.253s-0.308,0.211-0.336,0.603H214.988z M217.832,296.456l-0.588-2.003
			c-0.168-0.561-0.336-1.261-0.476-1.82h-0.028c-0.14,0.56-0.28,1.274-0.434,1.82l-0.561,2.003H217.832z"/>
		<path style="fill:#FFFFFF;" d="M230.714,295.658c0,3.096-1.877,4.973-4.637,4.973c-2.801,0-4.44-2.115-4.44-4.805
			c0-2.83,1.807-4.944,4.595-4.944C229.131,290.882,230.714,293.053,230.714,295.658z M223.893,295.784
			c0,1.849,0.868,3.151,2.297,3.151c1.443,0,2.27-1.373,2.27-3.208c0-1.694-0.812-3.151-2.283-3.151
			C224.733,292.576,223.893,293.949,223.893,295.784z"/>
		<path style="fill:#FFFFFF;" d="M234.938,291.161c0.785-0.126,1.807-0.195,2.886-0.195c1.793,0,2.956,0.321,3.866,1.008
			c0.98,0.729,1.597,1.892,1.597,3.559c0,1.807-0.658,3.054-1.569,3.823c-0.995,0.827-2.507,1.219-4.356,1.219
			c-1.106,0-1.891-0.069-2.423-0.14V291.161z M237.081,298.865c0.182,0.043,0.476,0.043,0.742,0.043
			c1.933,0.014,3.194-1.051,3.194-3.307c0.014-1.961-1.135-2.997-2.97-2.997c-0.476,0-0.785,0.042-0.966,0.084V298.865z"/>
		<path style="fill:#FFFFFF;" d="M246.825,291.035v9.441h-2.144v-9.441H246.825z"/>
		<path style="fill:#FFFFFF;" d="M256.558,300.042c-0.658,0.225-1.905,0.532-3.151,0.532c-1.723,0-2.97-0.434-3.838-1.274
			c-0.868-0.812-1.345-2.045-1.331-3.432c0.014-3.138,2.297-4.931,5.393-4.931c1.219,0,2.157,0.238,2.619,0.462l-0.448,1.709
			c-0.518-0.224-1.163-0.406-2.199-0.406c-1.779,0-3.124,1.009-3.124,3.054c0,1.947,1.219,3.096,2.97,3.096
			c0.49,0,0.882-0.056,1.05-0.14v-1.976h-1.457v-1.667h3.516V300.042z"/>
		<path style="fill:#FFFFFF;" d="M260.363,291.035v9.441h-2.144v-9.441H260.363z"/>
		<path style="fill:#FFFFFF;" d="M264.03,292.828h-2.536v-1.793h7.257v1.793h-2.578v7.648h-2.143V292.828z"/>
		<path style="fill:#FFFFFF;" d="M271.074,298.054l-0.673,2.423h-2.213l2.886-9.441h2.801l2.928,9.441h-2.297l-0.729-2.423H271.074z
			 M273.468,296.456l-0.588-2.003c-0.168-0.561-0.336-1.261-0.477-1.82h-0.027c-0.141,0.56-0.28,1.274-0.435,1.82l-0.561,2.003
			H273.468z"/>
		<path style="fill:#FFFFFF;" d="M278.058,291.035h2.143v7.648h3.754v1.793h-5.896V291.035z"/>
		<path style="fill:#FFFFFF;" d="M294.974,300.21c-0.393,0.196-1.274,0.406-2.424,0.406c-3.264,0-4.944-2.03-4.944-4.72
			c0-3.222,2.297-5.015,5.155-5.015c1.106,0,1.946,0.224,2.325,0.42l-0.435,1.694c-0.435-0.182-1.037-0.35-1.793-0.35
			c-1.695,0-3.012,1.022-3.012,3.123c0,1.892,1.121,3.082,3.025,3.082c0.645,0,1.359-0.14,1.779-0.308L294.974,300.21z"/>
		<path style="fill:#FFFFFF;" d="M304.592,295.658c0,3.096-1.877,4.973-4.637,4.973c-2.802,0-4.44-2.115-4.44-4.805
			c0-2.83,1.807-4.944,4.595-4.944C303.009,290.882,304.592,293.053,304.592,295.658z M297.77,295.784
			c0,1.849,0.869,3.151,2.298,3.151c1.442,0,2.269-1.373,2.269-3.208c0-1.694-0.812-3.151-2.283-3.151
			C298.611,292.576,297.77,293.949,297.77,295.784z"/>
		<path style="fill:#FFFFFF;" d="M313.973,296.862c-0.042-1.135-0.084-2.507-0.084-3.88h-0.042c-0.295,1.205-0.687,2.55-1.051,3.656
			l-1.148,3.684h-1.667l-1.009-3.656c-0.309-1.106-0.631-2.451-0.854-3.684h-0.028c-0.056,1.274-0.098,2.731-0.168,3.908
			l-0.168,3.586h-1.975l0.602-9.441h2.844l0.925,3.152c0.294,1.092,0.588,2.269,0.798,3.375h0.042
			c0.267-1.092,0.589-2.339,0.896-3.39l1.009-3.138h2.788l0.518,9.441h-2.087L313.973,296.862z"/>
		<path style="fill:#FFFFFF;" d="M322.86,298.054l-0.673,2.423h-2.213l2.886-9.441h2.801l2.928,9.441h-2.297l-0.729-2.423H322.86z
			 M325.254,296.456l-0.588-2.003c-0.168-0.561-0.336-1.261-0.477-1.82h-0.027c-0.141,0.56-0.28,1.274-0.435,1.82l-0.561,2.003
			H325.254z"/>
		<path style="fill:#FFFFFF;" d="M332.742,298.277c0.574,0.294,1.457,0.588,2.367,0.588c0.981,0,1.499-0.406,1.499-1.022
			c0-0.588-0.448-0.924-1.583-1.33c-1.568-0.547-2.591-1.415-2.591-2.788c0-1.61,1.345-2.843,3.571-2.843
			c1.065,0,1.85,0.224,2.41,0.476l-0.477,1.723c-0.378-0.182-1.051-0.447-1.976-0.447c-0.924,0-1.372,0.42-1.372,0.91
			c0,0.603,0.532,0.868,1.751,1.33c1.667,0.617,2.451,1.485,2.451,2.816c0,1.582-1.219,2.927-3.811,2.927
			c-1.078,0-2.143-0.279-2.675-0.574L332.742,298.277z"/>
		<path style="fill:#FFFFFF;" d="M342.374,291.035v9.441h-2.143v-9.441H342.374z"/>
		<path style="fill:#FFFFFF;" d="M352.206,296.862c-0.042-1.135-0.084-2.507-0.084-3.88h-0.042c-0.295,1.205-0.687,2.55-1.051,3.656
			l-1.148,3.684h-1.667l-1.009-3.656c-0.309-1.106-0.631-2.451-0.854-3.684h-0.028c-0.056,1.274-0.098,2.731-0.168,3.908
			l-0.168,3.586h-1.975l0.602-9.441h2.844l0.925,3.152c0.294,1.092,0.588,2.269,0.798,3.375h0.042
			c0.267-1.092,0.589-2.339,0.896-3.39l1.009-3.138h2.788l0.518,9.441h-2.087L352.206,296.862z"/>
		<path style="fill:#FFFFFF;" d="M356.065,291.161c0.658-0.111,1.583-0.195,2.886-0.195c1.316,0,2.255,0.252,2.885,0.756
			c0.603,0.477,1.009,1.261,1.009,2.186c0,0.924-0.308,1.709-0.868,2.241c-0.729,0.687-1.808,0.994-3.068,0.994
			c-0.279,0-0.532-0.014-0.728-0.042v3.376h-2.115V291.161z M358.18,295.448c0.182,0.042,0.406,0.056,0.714,0.056
			c1.135,0,1.835-0.574,1.835-1.541c0-0.868-0.603-1.387-1.667-1.387c-0.434,0-0.729,0.042-0.882,0.084V295.448z"/>
		<path style="fill:#FFFFFF;" d="M364.2,291.035h2.143v7.648h3.754v1.793H364.2V291.035z"/>
		<path style="fill:#FFFFFF;" d="M373.495,291.035v9.441h-2.143v-9.441H373.495z"/>
		<path style="fill:#FFFFFF;" d="M375.342,291.035h5.771v1.751h-3.628v2.157h3.39v1.737h-3.39v3.796h-2.143V291.035z"/>
		<path style="fill:#FFFFFF;" d="M384.864,291.035v9.441h-2.143v-9.441H384.864z"/>
		<path style="fill:#FFFFFF;" d="M393.645,300.21c-0.393,0.196-1.274,0.406-2.424,0.406c-3.264,0-4.944-2.03-4.944-4.72
			c0-3.222,2.297-5.015,5.155-5.015c1.106,0,1.946,0.224,2.325,0.42l-0.435,1.694c-0.435-0.182-1.036-0.35-1.793-0.35
			c-1.695,0-3.012,1.022-3.012,3.123c0,1.892,1.121,3.082,3.025,3.082c0.645,0,1.359-0.14,1.779-0.308L393.645,300.21z"/>
		<path style="fill:#FFFFFF;" d="M397.38,298.054l-0.673,2.423h-2.213l2.886-9.441h2.801l2.928,9.441h-2.297l-0.729-2.423H397.38z
			 M399.775,296.456l-0.588-2.003c-0.168-0.561-0.336-1.261-0.477-1.82h-0.027c-0.141,0.56-0.28,1.274-0.435,1.82l-0.561,2.003
			H399.775z"/>
		<path style="fill:#FFFFFF;" d="M410.948,300.21c-0.378,0.183-1.19,0.393-2.255,0.406l-0.238,0.477
			c0.546,0.126,1.022,0.49,1.022,1.148c0,0.967-0.869,1.289-1.667,1.289c-0.42,0-0.883-0.084-1.205-0.267l0.28-0.868
			c0.21,0.112,0.532,0.196,0.784,0.196c0.28,0,0.505-0.098,0.505-0.336c0-0.295-0.322-0.448-1.106-0.532l0.532-1.163
			c-2.662-0.351-4.021-2.241-4.021-4.664c0-3.222,2.297-5.015,5.155-5.015c1.106,0,1.946,0.224,2.325,0.42l-0.435,1.694
			c-0.435-0.182-1.036-0.35-1.793-0.35c-1.695,0-3.012,1.022-3.012,3.123c0,1.892,1.121,3.082,3.025,3.082
			c0.645,0,1.359-0.14,1.779-0.308L410.948,300.21z"/>
		<path style="fill:#FFFFFF;" d="M414.684,298.054l-0.673,2.423h-2.213l2.886-9.441h2.801l2.928,9.441h-2.297l-0.729-2.423H414.684z
			 M414.236,290.461c-0.042-1.177,0.406-1.778,1.078-1.778c0.378,0,0.631,0.126,0.896,0.279c0.225,0.141,0.435,0.267,0.616,0.267
			c0.238,0,0.322-0.14,0.379-0.603h0.952c0.042,1.261-0.364,1.751-1.106,1.751c-0.379,0-0.658-0.126-0.911-0.266
			c-0.237-0.126-0.406-0.253-0.588-0.253s-0.309,0.211-0.336,0.603H414.236z M417.079,296.456l-0.588-2.003
			c-0.168-0.561-0.336-1.261-0.477-1.82h-0.027c-0.141,0.56-0.28,1.274-0.435,1.82l-0.561,2.003H417.079z"/>
		<path style="fill:#FFFFFF;" d="M429.961,295.658c0,3.096-1.877,4.973-4.637,4.973c-2.802,0-4.44-2.115-4.44-4.805
			c0-2.83,1.807-4.944,4.595-4.944C428.378,290.882,429.961,293.053,429.961,295.658z M423.138,295.784
			c0,1.849,0.869,3.151,2.298,3.151c1.442,0,2.269-1.373,2.269-3.208c0-1.694-0.812-3.151-2.283-3.151
			C423.979,292.576,423.138,293.949,423.138,295.784z"/>
		<path style="fill:#FFFFFF;" d="M434.184,291.161c0.784-0.126,1.807-0.195,2.886-0.195c1.793,0,2.955,0.321,3.865,1.008
			c0.98,0.729,1.598,1.892,1.598,3.559c0,1.807-0.659,3.054-1.569,3.823c-0.994,0.827-2.507,1.219-4.356,1.219
			c-1.106,0-1.891-0.069-2.423-0.14V291.161z M436.327,298.865c0.183,0.043,0.477,0.043,0.743,0.043
			c1.933,0.014,3.193-1.051,3.193-3.307c0.014-1.961-1.135-2.997-2.97-2.997c-0.477,0-0.784,0.042-0.967,0.084V298.865z"/>
		<path style="fill:#FFFFFF;" d="M445.904,298.054l-0.673,2.423h-2.213l2.886-9.441h2.801l2.928,9.441h-2.297l-0.729-2.423H445.904z
			 M448.298,296.456l-0.588-2.003c-0.168-0.561-0.336-1.261-0.477-1.82h-0.027c-0.141,0.56-0.28,1.274-0.435,1.82l-0.561,2.003
			H448.298z"/>
		<path style="fill:#FFFFFF;" d="M121.528,313.285h-3.474v2.241h3.88v1.751h-6.023v-9.441h5.827v1.751h-3.684v1.961h3.474V313.285z"
			/>
		<path style="fill:#FFFFFF;" d="M128.359,317.277l-0.854-1.709c-0.35-0.658-0.574-1.148-0.84-1.695h-0.028
			c-0.196,0.547-0.434,1.037-0.729,1.695l-0.784,1.709h-2.438l2.731-4.776l-2.633-4.665h2.451l0.827,1.724
			c0.28,0.574,0.49,1.036,0.714,1.568h0.028c0.224-0.603,0.406-1.022,0.645-1.568l0.798-1.724h2.438l-2.662,4.608l2.801,4.833
			H128.359z"/>
		<path style="fill:#FFFFFF;" d="M131.969,307.962c0.659-0.111,1.583-0.195,2.886-0.195c1.317,0,2.255,0.252,2.886,0.756
			c0.602,0.477,1.008,1.261,1.008,2.186c0,0.924-0.308,1.709-0.869,2.241c-0.728,0.687-1.807,0.994-3.067,0.994
			c-0.28,0-0.532-0.014-0.729-0.042v3.376h-2.115V307.962z M134.084,312.249c0.182,0.042,0.406,0.056,0.714,0.056
			c1.135,0,1.835-0.574,1.835-1.541c0-0.868-0.602-1.387-1.667-1.387c-0.435,0-0.729,0.042-0.883,0.084V312.249z"/>
		<path style="fill:#FFFFFF;" d="M145.72,313.285h-3.474v2.241h3.88v1.751h-6.023v-9.441h5.827v1.751h-3.684v1.961h3.474V313.285z"
			/>
		<path style="fill:#FFFFFF;" d="M147.579,307.962c0.687-0.111,1.709-0.195,2.844-0.195c1.401,0,2.381,0.21,3.054,0.742
			c0.56,0.448,0.868,1.106,0.868,1.975c0,1.205-0.854,2.031-1.667,2.325v0.042c0.658,0.267,1.022,0.896,1.261,1.766
			c0.294,1.064,0.588,2.297,0.77,2.661h-2.185c-0.154-0.267-0.378-1.036-0.658-2.199c-0.252-1.177-0.659-1.499-1.527-1.513h-0.645
			v3.712h-2.115V307.962z M149.694,312.025h0.84c1.065,0,1.695-0.532,1.695-1.358c0-0.869-0.588-1.303-1.569-1.317
			c-0.519,0-0.812,0.042-0.967,0.07V312.025z"/>
		<path style="fill:#FFFFFF;" d="M158.024,307.836v9.441h-2.144v-9.441H158.024z"/>
		<path style="fill:#FFFFFF;" d="M165.487,313.285h-3.474v2.241h3.88v1.751h-6.023v-9.441h5.827v1.751h-3.684v1.961h3.474V313.285z
			 M163.638,305.609l1.429,1.723h-1.499l-0.714-0.868h-0.028l-0.7,0.868h-1.485l1.401-1.723H163.638z"/>
		<path style="fill:#FFFFFF;" d="M167.346,317.277v-9.441h2.494l1.961,3.46c0.561,0.995,1.121,2.171,1.541,3.236h0.042
			c-0.14-1.247-0.182-2.521-0.182-3.937v-2.76h1.961v9.441h-2.241l-2.017-3.642c-0.561-1.009-1.177-2.228-1.639-3.334l-0.042,0.014
			c0.056,1.247,0.084,2.577,0.084,4.118v2.844H167.346z"/>
		<path style="fill:#FFFFFF;" d="M183.94,317.011c-0.393,0.196-1.275,0.406-2.423,0.406c-3.264,0-4.945-2.03-4.945-4.72
			c0-3.222,2.297-5.015,5.155-5.015c1.106,0,1.947,0.224,2.325,0.42l-0.434,1.694c-0.434-0.182-1.037-0.35-1.793-0.35
			c-1.695,0-3.012,1.022-3.012,3.123c0,1.892,1.121,3.082,3.026,3.082c0.644,0,1.358-0.14,1.779-0.308L183.94,317.011z"/>
		<path style="fill:#FFFFFF;" d="M187.479,307.836v9.441h-2.144v-9.441H187.479z"/>
		<path style="fill:#FFFFFF;" d="M191.524,314.855l-0.672,2.423h-2.213l2.885-9.441h2.802l2.928,9.441h-2.297l-0.729-2.423H191.524z
			 M193.92,313.257l-0.588-2.003c-0.168-0.561-0.336-1.261-0.476-1.82h-0.028c-0.14,0.56-0.28,1.274-0.434,1.82l-0.561,2.003H193.92
			z"/>
		<path style="fill:#FFFFFF;" d="M201.337,307.962c0.785-0.126,1.807-0.195,2.886-0.195c1.793,0,2.956,0.321,3.866,1.008
			c0.98,0.729,1.597,1.892,1.597,3.559c0,1.807-0.658,3.054-1.569,3.823c-0.995,0.827-2.507,1.219-4.356,1.219
			c-1.106,0-1.891-0.069-2.423-0.14V307.962z M203.481,315.666c0.182,0.043,0.476,0.043,0.742,0.043
			c1.933,0.014,3.194-1.051,3.194-3.307c0.014-1.961-1.135-2.997-2.97-2.997c-0.476,0-0.784,0.042-0.966,0.084V315.666z"/>
		<path style="fill:#FFFFFF;" d="M216.699,313.285h-3.474v2.241h3.88v1.751h-6.023v-9.441h5.827v1.751h-3.684v1.961h3.474V313.285z"
			/>
		<path style="fill:#FFFFFF;" d="M223.515,307.836v5.436c0,1.625,0.616,2.451,1.709,2.451c1.121,0,1.737-0.784,1.737-2.451v-5.436
			h2.129v5.295c0,2.914-1.471,4.301-3.936,4.301c-2.381,0-3.782-1.317-3.782-4.328v-5.268H223.515z"/>
		<path style="fill:#FFFFFF;" d="M231.004,315.078c0.574,0.294,1.457,0.588,2.367,0.588c0.98,0,1.499-0.406,1.499-1.022
			c0-0.588-0.448-0.924-1.583-1.33c-1.569-0.547-2.591-1.415-2.591-2.788c0-1.61,1.345-2.843,3.572-2.843
			c1.064,0,1.849,0.224,2.409,0.476l-0.476,1.723c-0.378-0.182-1.051-0.447-1.975-0.447s-1.373,0.42-1.373,0.91
			c0,0.603,0.532,0.868,1.75,1.33c1.667,0.617,2.452,1.485,2.452,2.816c0,1.582-1.219,2.927-3.81,2.927
			c-1.079,0-2.143-0.279-2.676-0.574L231.004,315.078z"/>
		<path style="fill:#FFFFFF;" d="M247.137,312.459c0,3.096-1.877,4.973-4.637,4.973c-2.802,0-4.44-2.115-4.44-4.805
			c0-2.83,1.807-4.944,4.595-4.944C245.554,307.683,247.137,309.854,247.137,312.459z M240.315,312.585
			c0,1.849,0.868,3.151,2.297,3.151c1.442,0,2.269-1.373,2.269-3.208c0-1.694-0.812-3.151-2.283-3.151
			C241.155,309.377,240.315,310.75,240.315,312.585z"/>
		<path style="fill:#FFFFFF;" d="M251.36,307.962c0.785-0.126,1.807-0.195,2.886-0.195c1.793,0,2.956,0.321,3.866,1.008
			c0.98,0.729,1.597,1.892,1.597,3.559c0,1.807-0.658,3.054-1.569,3.823c-0.995,0.827-2.507,1.219-4.356,1.219
			c-1.106,0-1.891-0.069-2.423-0.14V307.962z M253.503,315.666c0.182,0.043,0.476,0.043,0.742,0.043
			c1.933,0.014,3.194-1.051,3.194-3.307c0.014-1.961-1.135-2.997-2.97-2.997c-0.476,0-0.784,0.042-0.966,0.084V315.666z"/>
		<path style="fill:#FFFFFF;" d="M269.748,312.459c0,3.096-1.877,4.973-4.637,4.973c-2.802,0-4.44-2.115-4.44-4.805
			c0-2.83,1.807-4.944,4.595-4.944C268.165,307.683,269.748,309.854,269.748,312.459z M262.925,312.585
			c0,1.849,0.868,3.151,2.297,3.151c1.442,0,2.269-1.373,2.269-3.208c0-1.694-0.813-3.151-2.283-3.151
			C263.766,309.377,262.925,310.75,262.925,312.585z"/>
		<path style="fill:#FFFFFF;" d="M271.212,315.078c0.574,0.294,1.457,0.588,2.367,0.588c0.981,0,1.499-0.406,1.499-1.022
			c0-0.588-0.448-0.924-1.583-1.33c-1.568-0.547-2.591-1.415-2.591-2.788c0-1.61,1.345-2.843,3.571-2.843
			c1.065,0,1.85,0.224,2.41,0.476l-0.477,1.723c-0.378-0.182-1.051-0.447-1.976-0.447c-0.924,0-1.372,0.42-1.372,0.91
			c0,0.603,0.532,0.868,1.751,1.33c1.667,0.617,2.451,1.485,2.451,2.816c0,1.582-1.219,2.927-3.811,2.927
			c-1.078,0-2.143-0.279-2.675-0.574L271.212,315.078z"/>
		<path style="fill:#FFFFFF;" d="M288.464,317.011c-0.393,0.196-1.274,0.406-2.424,0.406c-3.264,0-4.944-2.03-4.944-4.72
			c0-3.222,2.297-5.015,5.155-5.015c1.106,0,1.946,0.224,2.325,0.42l-0.435,1.694c-0.435-0.182-1.037-0.35-1.793-0.35
			c-1.695,0-3.012,1.022-3.012,3.123c0,1.892,1.121,3.082,3.025,3.082c0.645,0,1.359-0.14,1.779-0.308L288.464,317.011z"/>
		<path style="fill:#FFFFFF;" d="M289.861,307.836h2.143v7.648h3.754v1.793h-5.896V307.836z"/>
		<path style="fill:#FFFFFF;" d="M299.157,307.836v9.441h-2.143v-9.441H299.157z"/>
		<path style="fill:#FFFFFF;" d="M306.622,313.285h-3.475v2.241h3.88v1.751h-6.022v-9.441h5.827v1.751h-3.685v1.961h3.475V313.285z"
			/>
		<path style="fill:#FFFFFF;" d="M308.48,317.277v-9.441h2.493l1.961,3.46c0.561,0.995,1.12,2.171,1.541,3.236h0.042
			c-0.141-1.247-0.183-2.521-0.183-3.937v-2.76h1.962v9.441h-2.242l-2.017-3.642c-0.561-1.009-1.177-2.228-1.639-3.334l-0.042,0.014
			c0.056,1.247,0.084,2.577,0.084,4.118v2.844H308.48z"/>
		<path style="fill:#FFFFFF;" d="M319.961,309.629h-2.535v-1.793h7.256v1.793h-2.577v7.648h-2.144V309.629z"/>
		<path style="fill:#FFFFFF;" d="M331.429,313.285h-3.475v2.241h3.881v1.751h-6.023v-9.441h5.827v1.751h-3.685v1.961h3.475V313.285z
			"/>
		<path style="fill:#FFFFFF;" d="M333.357,315.078c0.574,0.294,1.457,0.588,2.367,0.588c0.981,0,1.499-0.406,1.499-1.022
			c0-0.588-0.448-0.924-1.583-1.33c-1.568-0.547-2.591-1.415-2.591-2.788c0-1.61,1.345-2.843,3.571-2.843
			c1.065,0,1.85,0.224,2.41,0.476l-0.477,1.723c-0.378-0.182-1.051-0.447-1.976-0.447c-0.924,0-1.372,0.42-1.372,0.91
			c0,0.603,0.532,0.868,1.751,1.33c1.667,0.617,2.451,1.485,2.451,2.816c0,1.582-1.219,2.927-3.811,2.927
			c-1.078,0-2.143-0.279-2.675-0.574L333.357,315.078z"/>
		<path style="fill:#FFFFFF;" d="M343.675,317.277v-9.441h2.493l1.961,3.46c0.561,0.995,1.12,2.171,1.541,3.236h0.042
			c-0.141-1.247-0.183-2.521-0.183-3.937v-2.76h1.962v9.441h-2.242l-2.017-3.642c-0.561-1.009-1.177-2.228-1.639-3.334l-0.042,0.014
			c0.056,1.247,0.084,2.577,0.084,4.118v2.844H343.675z"/>
		<path style="fill:#FFFFFF;" d="M361.978,312.459c0,3.096-1.877,4.973-4.637,4.973c-2.802,0-4.44-2.115-4.44-4.805
			c0-2.83,1.807-4.944,4.595-4.944C360.395,307.683,361.978,309.854,361.978,312.459z M355.156,312.585
			c0,1.849,0.869,3.151,2.298,3.151c1.442,0,2.269-1.373,2.269-3.208c0-1.694-0.812-3.151-2.283-3.151
			C355.997,309.377,355.156,310.75,355.156,312.585z"/>
		<path style="fill:#FFFFFF;" d="M363.443,315.078c0.574,0.294,1.457,0.588,2.367,0.588c0.981,0,1.499-0.406,1.499-1.022
			c0-0.588-0.448-0.924-1.583-1.33c-1.568-0.547-2.591-1.415-2.591-2.788c0-1.61,1.345-2.843,3.571-2.843
			c1.065,0,1.85,0.224,2.41,0.476l-0.477,1.723c-0.378-0.182-1.051-0.447-1.976-0.447c-0.924,0-1.372,0.42-1.372,0.91
			c0,0.603,0.532,0.868,1.751,1.33c1.667,0.617,2.451,1.485,2.451,2.816c0,1.582-1.219,2.927-3.811,2.927
			c-1.078,0-2.143-0.279-2.675-0.574L363.443,315.078z"/>
		<path style="fill:#FFFFFF;" d="M122.845,333.811c-0.393,0.196-1.275,0.406-2.423,0.406c-3.264,0-4.945-2.03-4.945-4.72
			c0-3.222,2.297-5.015,5.155-5.015c1.106,0,1.947,0.224,2.325,0.42l-0.434,1.694c-0.434-0.182-1.037-0.35-1.793-0.35
			c-1.695,0-3.012,1.022-3.012,3.124c0,1.891,1.121,3.081,3.026,3.081c0.644,0,1.358-0.14,1.779-0.308L122.845,333.811z"/>
		<path style="fill:#FFFFFF;" d="M126.58,331.654l-0.672,2.423h-2.213l2.885-9.441h2.802l2.927,9.441h-2.297l-0.729-2.423H126.58z
			 M128.975,330.057l-0.588-2.003c-0.168-0.561-0.336-1.261-0.476-1.821h-0.028c-0.14,0.561-0.28,1.275-0.434,1.821l-0.561,2.003
			H128.975z"/>
		<path style="fill:#FFFFFF;" d="M133.565,334.077v-9.441h2.494l1.961,3.46c0.56,0.995,1.121,2.172,1.541,3.236h0.042
			c-0.14-1.247-0.182-2.521-0.182-3.937v-2.76h1.961v9.441h-2.241l-2.017-3.642c-0.56-1.009-1.177-2.228-1.639-3.334l-0.042,0.014
			c0.056,1.247,0.084,2.577,0.084,4.118v2.844H133.565z"/>
		<path style="fill:#FFFFFF;" d="M145.423,331.654l-0.672,2.423h-2.213l2.885-9.441h2.802l2.927,9.441h-2.297l-0.729-2.423H145.423z
			 M147.819,330.057l-0.588-2.003c-0.168-0.561-0.336-1.261-0.476-1.821h-0.028c-0.14,0.561-0.28,1.275-0.434,1.821l-0.561,2.003
			H147.819z"/>
		<path style="fill:#FFFFFF;" d="M154.552,324.636v9.441h-2.144v-9.441H154.552z"/>
		<path style="fill:#FFFFFF;" d="M156.468,331.878c0.574,0.294,1.457,0.588,2.367,0.588c0.98,0,1.499-0.405,1.499-1.022
			c0-0.588-0.448-0.924-1.583-1.33c-1.569-0.547-2.591-1.415-2.591-2.788c0-1.61,1.345-2.843,3.572-2.843
			c1.064,0,1.849,0.224,2.409,0.476l-0.476,1.724c-0.378-0.183-1.051-0.449-1.975-0.449s-1.373,0.421-1.373,0.911
			c0,0.603,0.532,0.868,1.751,1.331c1.667,0.616,2.451,1.484,2.451,2.815c0,1.582-1.219,2.927-3.81,2.927
			c-1.079,0-2.143-0.279-2.675-0.574L156.468,331.878z"/>
		<path style="fill:#FFFFFF;" d="M166.786,324.762c0.785-0.126,1.807-0.195,2.886-0.195c1.793,0,2.956,0.322,3.866,1.008
			c0.98,0.729,1.597,1.892,1.597,3.559c0,1.807-0.658,3.054-1.569,3.824c-0.995,0.826-2.507,1.218-4.356,1.218
			c-1.106,0-1.891-0.069-2.423-0.14V324.762z M168.93,332.466c0.182,0.042,0.476,0.042,0.742,0.042
			c1.933,0.015,3.194-1.05,3.194-3.306c0.014-1.961-1.135-2.997-2.97-2.997c-0.476,0-0.785,0.042-0.966,0.084V332.466z"/>
		<path style="fill:#FFFFFF;" d="M178.674,324.636v9.441h-2.144v-9.441H178.674z"/>
		<path style="fill:#FFFFFF;" d="M188.406,333.643c-0.658,0.225-1.905,0.532-3.151,0.532c-1.723,0-2.97-0.434-3.838-1.274
			c-0.868-0.812-1.345-2.045-1.331-3.432c0.014-3.138,2.297-4.931,5.393-4.931c1.219,0,2.157,0.238,2.619,0.462l-0.448,1.709
			c-0.518-0.224-1.163-0.406-2.199-0.406c-1.779,0-3.124,1.009-3.124,3.054c0,1.947,1.219,3.096,2.97,3.096
			c0.49,0,0.882-0.056,1.05-0.14v-1.976h-1.457v-1.667h3.516V333.643z"/>
		<path style="fill:#FFFFFF;" d="M192.211,324.636v9.441h-2.144v-9.441H192.211z"/>
		<path style="fill:#FFFFFF;" d="M195.879,326.429h-2.536v-1.793h7.256v1.793h-2.577v7.648h-2.143V326.429z"/>
		<path style="fill:#FFFFFF;" d="M202.92,331.654l-0.672,2.423h-2.213l2.885-9.441h2.802l2.927,9.441h-2.297l-0.729-2.423H202.92z
			 M205.316,330.057l-0.588-2.003c-0.168-0.561-0.336-1.261-0.476-1.821h-0.028c-0.14,0.561-0.28,1.275-0.434,1.821l-0.561,2.003
			H205.316z"/>
		<path style="fill:#FFFFFF;" d="M212.049,324.636v9.441h-2.144v-9.441H212.049z"/>
		<path style="fill:#FFFFFF;" d="M213.965,331.878c0.574,0.294,1.457,0.588,2.367,0.588c0.98,0,1.499-0.405,1.499-1.022
			c0-0.588-0.448-0.924-1.583-1.33c-1.569-0.547-2.591-1.415-2.591-2.788c0-1.61,1.345-2.843,3.572-2.843
			c1.064,0,1.849,0.224,2.409,0.476l-0.476,1.724c-0.378-0.183-1.051-0.449-1.975-0.449s-1.373,0.421-1.373,0.911
			c0,0.603,0.532,0.868,1.751,1.331c1.667,0.616,2.451,1.484,2.451,2.815c0,1.582-1.219,2.927-3.81,2.927
			c-1.079,0-2.143-0.279-2.675-0.574L213.965,331.878z"/>
		<path style="fill:#FFFFFF;" d="M220.559,335.744c0.435-1.247,0.812-2.703,1.023-3.979l2.143-0.14
			c-0.462,1.429-1.093,2.899-1.765,3.992L220.559,335.744z M221.315,328.432c0-0.756,0.504-1.288,1.247-1.288
			c0.742,0,1.232,0.519,1.247,1.288c0,0.729-0.49,1.275-1.247,1.275C221.819,329.707,221.301,329.16,221.315,328.432z"/>
	</g>
</g>
<g id="Layer_1">
</g>
</svg>
