<?xml version="1.0" encoding="iso-8859-1"?>
<!-- Generator: Adobe Illustrator 18.0.0, SVG Export Plug-In . SVG Version: 6.00 Build 0)  -->
<!DOCTYPE svg PUBLIC "-//W3C//DTD SVG 1.1//EN" "http://www.w3.org/Graphics/SVG/1.1/DTD/svg11.dtd">
<svg version="1.1" xmlns="http://www.w3.org/2000/svg" xmlns:xlink="http://www.w3.org/1999/xlink" x="0px" y="0px"
	 viewBox="0 0 531.453 494.191" style="enable-background:new 0 0 531.453 494.191;" xml:space="preserve">
<g id="page13-1">
	
		<polygon style="fill:none;stroke:#000000;stroke-width:3.6793;stroke-linecap:round;stroke-linejoin:round;stroke-miterlimit:10;" points="
		43.446,14.904 69.635,406.333 475.632,438.052 529.613,82.648 	"/>
	<polygon style="opacity:0.8;fill:#E92325;" points="100.919,49.06 83.146,447.249 518.153,405.508 454.366,31.542 	"/>
	<polygon style="fill:#03B9DB;" points="23.262,106.379 387.98,82.648 390.61,211.407 20.388,285.052 	"/>
	
		<polyline style="fill:none;stroke:#000000;stroke-width:3.6793;stroke-linecap:round;stroke-linejoin:round;stroke-miterlimit:10;" points="
		45.65,296.379 1.84,305.543 4.782,122.591 	"/>
	<g>
		<g>
			<g>
				
					<line style="fill:none;stroke:#000000;stroke-width:3.6793;stroke-linecap:round;stroke-linejoin:round;stroke-miterlimit:10;" x1="20.388" y1="335.586" x2="43.803" y2="335.586"/>
				
					<line style="fill:none;stroke:#000000;stroke-width:3.6793;stroke-linecap:round;stroke-linejoin:round;stroke-miterlimit:10;" x1="32.095" y1="323.878" x2="32.095" y2="347.293"/>
			</g>
			<g>
				
					<line style="fill:none;stroke:#000000;stroke-width:3.6793;stroke-linecap:round;stroke-linejoin:round;stroke-miterlimit:10;" x1="274.822" y1="453.476" x2="298.237" y2="453.476"/>
				
					<line style="fill:none;stroke:#000000;stroke-width:3.6793;stroke-linecap:round;stroke-linejoin:round;stroke-miterlimit:10;" x1="286.53" y1="441.769" x2="286.53" y2="465.184"/>
			</g>
			
				<path style="fill:none;stroke:#000000;stroke-width:3.6793;stroke-linecap:round;stroke-linejoin:round;stroke-miterlimit:10;" d="
				M503.274,13.043c8.685,13.564-5.72,27.969-19.284,19.284c-0.931-0.596-1.73-1.395-2.325-2.326
				c-8.681-13.563,5.721-27.965,19.283-19.283C501.879,11.313,502.678,12.112,503.274,13.043z"/>
			<g>
				
					<line style="fill:none;stroke:#000000;stroke-width:3.6793;stroke-linecap:round;stroke-linejoin:round;stroke-miterlimit:10;" x1="211.98" y1="1.84" x2="298.237" y2="1.84"/>
				
					<line style="fill:none;stroke:#000000;stroke-width:3.6793;stroke-linecap:round;stroke-linejoin:round;stroke-miterlimit:10;" x1="264.348" y1="21.523" x2="319.935" y2="21.523"/>
			</g>
			
				<path style="fill:none;stroke:#000000;stroke-width:3.6793;stroke-linecap:round;stroke-linejoin:round;stroke-miterlimit:10;" d="
				M216.304,470.431c8.681,13.563-5.721,27.965-19.283,19.283c-0.931-0.596-1.73-1.395-2.326-2.325
				c-8.685-13.564,5.72-27.969,19.284-19.284C214.91,468.702,215.709,469.501,216.304,470.431z"/>
		</g>
	</g>
	<g>
		<path style="fill:#FFFFFF;" d="M68.939,207.497c-1.718,0.949-5.027,2.423-8.49,3.041c-4.785,0.854-8.463,0.266-11.292-1.639
			c-2.814-1.826-4.748-5.014-5.396-8.872c-1.516-8.722,3.938-14.833,12.535-16.367c3.385-0.604,6.109-0.408,7.505-0.015
			l-0.398,4.969c-1.551-0.366-3.431-0.552-6.309-0.039c-4.941,0.881-8.177,4.349-7.164,10.029c0.965,5.408,4.919,7.994,9.782,7.126
			c1.361-0.243,2.424-0.592,2.849-0.91l-0.979-5.485l-4.047,0.722l-0.825-4.63l9.766-1.743L68.939,207.497z"/>
		<path style="fill:#FFFFFF;" d="M75.013,180.601l2.693,15.096c0.806,4.513,2.928,6.502,5.962,5.961
			c3.112-0.555,4.436-3.039,3.61-7.669l-2.693-15.096l5.912-1.055l2.624,14.706c1.444,8.093-1.954,12.673-8.801,13.895
			c-6.614,1.18-11.157-1.783-12.649-10.147l-2.609-14.629L75.013,180.601z"/>
		<path style="fill:#FFFFFF;" d="M101.582,175.86l4.679,26.223l-5.953,1.062l-4.679-26.223L101.582,175.86z"/>
		<path style="fill:#FFFFFF;" d="M106.778,175.295c2.115-0.739,4.921-1.44,7.917-1.975c4.979-0.888,8.369-0.57,11.237,0.886
			c3.085,1.537,5.373,4.461,6.199,9.09c0.896,5.019-0.315,8.808-2.463,11.398c-2.353,2.789-6.36,4.628-11.496,5.544
			c-3.073,0.548-5.286,0.742-6.8,0.811L106.778,175.295z M116.547,195.631c0.527,0.026,1.344-0.119,2.083-0.251
			c5.376-0.919,8.35-4.5,7.232-10.764c-0.933-5.455-4.637-7.764-9.733-6.855c-1.323,0.236-2.157,0.506-2.644,0.713L116.547,195.631z
			"/>
		<path style="fill:#FFFFFF;" d="M152.089,182.465l-9.648,1.722l1.11,6.225l10.777-1.923l0.867,4.863l-16.729,2.985l-4.678-26.223
			l16.184-2.888l0.868,4.863l-10.232,1.826l0.972,5.447l9.649-1.722L152.089,182.465z"/>
		<path style="fill:#FFFFFF;" d="M154.56,166.408l5.952-1.062l3.79,21.243l10.428-1.86l0.888,4.98l-16.379,2.922L154.56,166.408z"/>
		<path style="fill:#FFFFFF;" d="M180.389,161.8l4.679,26.223l-5.952,1.062l-4.679-26.223L180.389,161.8z"/>
		<path style="fill:#FFFFFF;" d="M190.201,187.107l-4.678-26.223l6.925-1.236l7.161,8.638c2.05,2.484,4.188,5.475,5.884,8.223
			l0.116-0.021c-1.007-3.393-1.755-6.912-2.456-10.842l-1.368-7.665l5.447-0.972l4.679,26.223l-6.226,1.111l-7.406-9.116
			c-2.057-2.523-4.372-5.603-6.205-8.448l-0.108,0.06c0.772,3.435,1.51,7.118,2.273,11.397l1.409,7.897L190.201,187.107z"/>
		<path style="fill:#FFFFFF;" d="M230.664,168.446l-9.648,1.722l1.11,6.225l10.777-1.923l0.867,4.863l-16.729,2.985l-4.678-26.223
			l16.184-2.888l0.868,4.863l-10.232,1.826l0.972,5.447l9.649-1.722L230.664,168.446z"/>
		<path style="fill:#FFFFFF;" d="M236.918,172.469c1.741,0.533,4.338,0.912,6.866,0.461c2.724-0.486,3.962-1.871,3.656-3.583
			c-0.292-1.634-1.703-2.346-5.056-2.912c-4.628-0.74-7.898-2.646-8.579-6.458c-0.798-4.475,2.326-8.564,8.512-9.668
			c2.958-0.527,5.247-0.293,6.929,0.129l-0.469,5.021c-1.141-0.318-3.141-0.725-5.708-0.267c-2.568,0.458-3.604,1.848-3.361,3.209
			c0.298,1.673,1.908,2.148,5.521,2.828c4.936,0.886,7.544,2.91,8.204,6.605c0.784,4.396-1.934,8.735-9.132,10.02
			c-2.995,0.534-6.091,0.284-7.716-0.269L236.918,172.469z"/>
		<path style="fill:#FFFFFF;" d="M262.059,147.591c2.116-0.739,4.921-1.441,7.917-1.976c4.98-0.889,8.369-0.569,11.238,0.886
			c3.084,1.537,5.371,4.461,6.197,9.09c0.896,5.019-0.315,8.808-2.462,11.398c-2.353,2.788-6.36,4.628-11.495,5.544
			c-3.074,0.549-5.287,0.742-6.801,0.812L262.059,147.591z M271.83,167.926c0.526,0.027,1.344-0.119,2.083-0.251
			c5.375-0.919,8.349-4.5,7.231-10.764c-0.933-5.454-4.637-7.764-9.733-6.854c-1.322,0.236-2.157,0.505-2.643,0.712L271.83,167.926z
			"/>
		<path style="fill:#FFFFFF;" d="M307.372,154.761l-9.648,1.721l1.11,6.225l10.776-1.923l0.868,4.863l-16.729,2.985l-4.679-26.223
			l16.185-2.887l0.868,4.863l-10.232,1.825l0.972,5.447l9.648-1.721L307.372,154.761z"/>
		<path style="fill:#FFFFFF;" d="M341.503,159.35c-0.992,0.739-3.34,1.76-6.529,2.329c-9.065,1.617-14.741-3.191-16.074-10.661
			c-1.596-8.948,3.896-15.066,11.833-16.482c3.074-0.548,5.52-0.342,6.667,0.015l-0.366,4.923c-1.296-0.291-3.052-0.459-5.153-0.084
			c-4.708,0.84-7.858,4.332-6.817,10.168c0.938,5.252,4.64,8.003,9.932,7.06c1.789-0.319,3.704-1.062,4.788-1.737L341.503,159.35z"
			/>
		<path style="fill:#FFFFFF;" d="M359.449,156.911l-3.22-4.323c-1.299-1.655-2.164-2.906-3.174-4.291l-0.078,0.014
			c-0.274,1.615-0.692,3.094-1.184,5.069l-1.332,5.135l-6.77,1.208l5.22-14.621l-9.625-11.651l6.809-1.214l3.148,4.375
			c1.062,1.457,1.876,2.637,2.761,4.003l0.078-0.014c0.325-1.784,0.622-3.042,1.013-4.677l1.364-5.181l6.769-1.208l-5.107,14.119
			l10.176,12.034L359.449,156.911z"/>
	</g>
	<g>
		<path style="fill:#FFFFFF;" d="M118.04,291.035v5.436c0,1.625,0.616,2.451,1.709,2.451c1.121,0,1.737-0.784,1.737-2.451v-5.436
			h2.129v5.295c0,2.914-1.471,4.301-3.937,4.301c-2.381,0-3.782-1.317-3.782-4.328v-5.268H118.04z"/>
		<path style="fill:#FFFFFF;" d="M133.443,296.862c-0.042-1.135-0.084-2.507-0.084-3.88h-0.042c-0.294,1.205-0.687,2.55-1.05,3.656
			l-1.149,3.684h-1.667l-1.008-3.656c-0.308-1.106-0.63-2.451-0.854-3.684h-0.028c-0.056,1.274-0.098,2.731-0.168,3.908
			l-0.168,3.586h-1.975l0.603-9.441h2.843l0.925,3.152c0.294,1.092,0.588,2.269,0.798,3.375h0.042
			c0.266-1.092,0.588-2.339,0.896-3.39l1.008-3.138h2.788l0.519,9.441h-2.087L133.443,296.862z"/>
		<path style="fill:#FFFFFF;" d="M148.017,300.042c-0.658,0.225-1.905,0.532-3.151,0.532c-1.723,0-2.97-0.434-3.838-1.274
			c-0.868-0.812-1.345-2.045-1.331-3.432c0.014-3.138,2.297-4.931,5.393-4.931c1.219,0,2.157,0.238,2.619,0.462l-0.448,1.709
			c-0.518-0.224-1.163-0.406-2.199-0.406c-1.779,0-3.124,1.009-3.124,3.054c0,1.947,1.219,3.096,2.97,3.096
			c0.49,0,0.882-0.056,1.05-0.14v-1.976h-1.457v-1.667h3.516V300.042z"/>
		<path style="fill:#FFFFFF;" d="M151.808,291.035v5.436c0,1.625,0.616,2.451,1.709,2.451c1.121,0,1.737-0.784,1.737-2.451v-5.436
			h2.129v5.295c0,2.914-1.471,4.301-3.937,4.301c-2.381,0-3.782-1.317-3.782-4.328v-5.268H151.808z"/>
		<path style="fill:#FFFFFF;" d="M161.37,291.035v9.441h-2.144v-9.441H161.37z"/>
		<path style="fill:#FFFFFF;" d="M165.415,298.054l-0.672,2.423h-2.213l2.885-9.441h2.802l2.928,9.441h-2.297l-0.729-2.423H165.415z
			 M167.811,296.456l-0.588-2.003c-0.168-0.561-0.336-1.261-0.476-1.82h-0.028c-0.14,0.56-0.28,1.274-0.434,1.82l-0.561,2.003
			H167.811z"/>
		<path style="fill:#FFFFFF;" d="M183.296,302.102c-1.345-0.393-2.465-0.799-3.726-1.331c-0.21-0.084-0.434-0.126-0.658-0.14
			c-2.129-0.141-4.118-1.709-4.118-4.791c0-2.829,1.793-4.958,4.608-4.958c2.886,0,4.469,2.185,4.469,4.762
			c0,2.144-0.995,3.656-2.241,4.217v0.056c0.728,0.21,1.541,0.379,2.283,0.532L183.296,302.102z M181.616,295.728
			c0-1.723-0.812-3.151-2.269-3.151c-1.457,0-2.297,1.429-2.297,3.193c-0.014,1.793,0.854,3.166,2.283,3.166
			C180.775,298.936,181.616,297.577,181.616,295.728z"/>
		<path style="fill:#FFFFFF;" d="M187.396,291.035v5.436c0,1.625,0.616,2.451,1.709,2.451c1.121,0,1.737-0.784,1.737-2.451v-5.436
			h2.129v5.295c0,2.914-1.471,4.301-3.937,4.301c-2.381,0-3.782-1.317-3.782-4.328v-5.268H187.396z"/>
		<path style="fill:#FFFFFF;" d="M200.431,296.484h-3.474v2.241h3.88v1.751h-6.023v-9.441h5.827v1.751h-3.684v1.961h3.474V296.484z"
			/>
		<path style="fill:#FFFFFF;" d="M207.262,291.035v9.441h-2.144v-9.441H207.262z"/>
		<path style="fill:#FFFFFF;" d="M209.108,300.477v-9.441h2.494l1.961,3.46c0.561,0.995,1.121,2.171,1.541,3.236h0.042
			c-0.14-1.247-0.182-2.521-0.182-3.937v-2.76h1.961v9.441h-2.241l-2.017-3.642c-0.561-1.009-1.177-2.228-1.639-3.334l-0.042,0.014
			c0.056,1.247,0.084,2.577,0.084,4.118v2.844H209.108z"/>
		<path style="fill:#FFFFFF;" d="M218.768,291.161c0.785-0.126,1.807-0.195,2.886-0.195c1.793,0,2.956,0.321,3.866,1.008
			c0.98,0.729,1.597,1.892,1.597,3.559c0,1.807-0.658,3.054-1.569,3.823c-0.995,0.827-2.507,1.219-4.356,1.219
			c-1.106,0-1.891-0.069-2.423-0.14V291.161z M220.911,298.865c0.182,0.043,0.476,0.043,0.742,0.043
			c1.933,0.014,3.194-1.051,3.194-3.307c0.014-1.961-1.135-2.997-2.97-2.997c-0.476,0-0.785,0.042-0.966,0.084V298.865z"/>
		<path style="fill:#FFFFFF;" d="M230.655,291.035v9.441h-2.144v-9.441H230.655z"/>
		<path style="fill:#FFFFFF;" d="M239.436,300.21c-0.393,0.196-1.275,0.406-2.423,0.406c-3.264,0-4.945-2.03-4.945-4.72
			c0-3.222,2.297-5.015,5.155-5.015c1.106,0,1.947,0.224,2.325,0.42l-0.434,1.694c-0.434-0.182-1.037-0.35-1.793-0.35
			c-1.695,0-3.012,1.022-3.012,3.123c0,1.892,1.121,3.082,3.026,3.082c0.644,0,1.358-0.14,1.779-0.308L239.436,300.21z"/>
		<path style="fill:#FFFFFF;" d="M243.17,298.054l-0.672,2.423h-2.213l2.885-9.441h2.802l2.927,9.441h-2.297l-0.729-2.423H243.17z
			 M245.566,296.456l-0.588-2.003c-0.168-0.561-0.336-1.261-0.476-1.82h-0.028c-0.14,0.56-0.28,1.274-0.434,1.82l-0.561,2.003
			H245.566z"/>
		<path style="fill:#FFFFFF;" d="M252.983,291.161c0.659-0.111,1.583-0.195,2.886-0.195c1.317,0,2.255,0.252,2.886,0.756
			c0.602,0.477,1.008,1.261,1.008,2.186c0,0.924-0.308,1.709-0.869,2.241c-0.728,0.687-1.807,0.994-3.067,0.994
			c-0.28,0-0.532-0.014-0.729-0.042v3.376h-2.115V291.161z M255.099,295.448c0.182,0.042,0.406,0.056,0.714,0.056
			c1.135,0,1.835-0.574,1.835-1.541c0-0.868-0.602-1.387-1.667-1.387c-0.435,0-0.729,0.042-0.883,0.084V295.448z"/>
		<path style="fill:#FFFFFF;" d="M263.261,291.035v9.441h-2.144v-9.441H263.261z"/>
		<path style="fill:#FFFFFF;" d="M265.107,291.035h2.144v7.648h3.754v1.793h-5.897V291.035z"/>
		<path style="fill:#FFFFFF;" d="M274.544,298.054l-0.673,2.423h-2.213l2.886-9.441h2.801l2.928,9.441h-2.297l-0.729-2.423H274.544z
			 M276.939,296.456l-0.588-2.003c-0.168-0.561-0.336-1.261-0.477-1.82h-0.027c-0.141,0.56-0.28,1.274-0.435,1.82l-0.561,2.003
			H276.939z"/>
		<path style="fill:#FFFFFF;" d="M281.529,291.161c0.687-0.111,1.709-0.195,2.843-0.195c1.401,0,2.382,0.21,3.054,0.742
			c0.561,0.448,0.869,1.106,0.869,1.975c0,1.205-0.854,2.031-1.667,2.325v0.042c0.658,0.267,1.022,0.896,1.261,1.766
			c0.294,1.064,0.588,2.297,0.771,2.661h-2.186c-0.154-0.267-0.378-1.036-0.658-2.199c-0.252-1.177-0.658-1.499-1.527-1.513h-0.644
			v3.712h-2.115V291.161z M283.644,295.224h0.84c1.064,0,1.695-0.532,1.695-1.358c0-0.869-0.589-1.303-1.569-1.317
			c-0.518,0-0.812,0.042-0.966,0.07V295.224z"/>
		<path style="fill:#FFFFFF;" d="M295.448,296.484h-3.475v2.241h3.88v1.751h-6.022v-9.441h5.827v1.751h-3.685v1.961h3.475V296.484z"
			/>
		<path style="fill:#FFFFFF;" d="M297.376,298.277c0.575,0.294,1.457,0.588,2.368,0.588c0.98,0,1.498-0.406,1.498-1.022
			c0-0.588-0.448-0.924-1.583-1.33c-1.568-0.547-2.591-1.415-2.591-2.788c0-1.61,1.345-2.843,3.572-2.843
			c1.064,0,1.849,0.224,2.409,0.476l-0.477,1.723c-0.378-0.182-1.051-0.447-1.976-0.447c-0.924,0-1.372,0.42-1.372,0.91
			c0,0.603,0.532,0.868,1.751,1.33c1.667,0.617,2.451,1.485,2.451,2.816c0,1.582-1.219,2.927-3.811,2.927
			c-1.078,0-2.143-0.279-2.675-0.574L297.376,298.277z"/>
		<path style="fill:#FFFFFF;" d="M315.762,302.102c-1.345-0.393-2.466-0.799-3.727-1.331c-0.21-0.084-0.434-0.126-0.658-0.14
			c-2.129-0.141-4.118-1.709-4.118-4.791c0-2.829,1.793-4.958,4.608-4.958c2.886,0,4.469,2.185,4.469,4.762
			c0,2.144-0.995,3.656-2.241,4.217v0.056c0.729,0.21,1.541,0.379,2.283,0.532L315.762,302.102z M314.081,295.728
			c0-1.723-0.812-3.151-2.269-3.151s-2.298,1.429-2.298,3.193c-0.014,1.793,0.854,3.166,2.283,3.166
			C313.241,298.936,314.081,297.577,314.081,295.728z"/>
		<path style="fill:#FFFFFF;" d="M319.861,291.035v5.436c0,1.625,0.616,2.451,1.709,2.451c1.12,0,1.736-0.784,1.736-2.451v-5.436
			h2.13v5.295c0,2.914-1.471,4.301-3.937,4.301c-2.381,0-3.782-1.317-3.782-4.328v-5.268H319.861z"/>
		<path style="fill:#FFFFFF;" d="M332.897,296.484h-3.475v2.241h3.88v1.751h-6.022v-9.441h5.827v1.751h-3.685v1.961h3.475V296.484z"
			/>
		<path style="fill:#FFFFFF;" d="M338.858,292.828h-2.535v-1.793h7.256v1.793h-2.577v7.648h-2.144V292.828z"/>
		<path style="fill:#FFFFFF;" d="M352.947,295.658c0,3.096-1.877,4.973-4.637,4.973c-2.802,0-4.44-2.115-4.44-4.805
			c0-2.83,1.807-4.944,4.595-4.944C351.364,290.882,352.947,293.053,352.947,295.658z M346.125,295.784
			c0,1.849,0.869,3.151,2.298,3.151c1.442,0,2.269-1.373,2.269-3.208c0-1.694-0.812-3.151-2.283-3.151
			C346.965,292.576,346.125,293.949,346.125,295.784z"/>
		<path style="fill:#FFFFFF;" d="M354.342,291.161c0.784-0.126,1.807-0.195,2.886-0.195c1.793,0,2.955,0.321,3.865,1.008
			c0.98,0.729,1.598,1.892,1.598,3.559c0,1.807-0.659,3.054-1.569,3.823c-0.994,0.827-2.507,1.219-4.356,1.219
			c-1.106,0-1.891-0.069-2.423-0.14V291.161z M356.485,298.865c0.183,0.043,0.477,0.043,0.743,0.043
			c1.933,0.014,3.193-1.051,3.193-3.307c0.014-1.961-1.135-2.997-2.97-2.997c-0.477,0-0.784,0.042-0.967,0.084V298.865z"/>
		<path style="fill:#FFFFFF;" d="M372.729,295.658c0,3.096-1.877,4.973-4.637,4.973c-2.802,0-4.44-2.115-4.44-4.805
			c0-2.83,1.807-4.944,4.595-4.944C371.146,290.882,372.729,293.053,372.729,295.658z M365.907,295.784
			c0,1.849,0.869,3.151,2.298,3.151c1.442,0,2.269-1.373,2.269-3.208c0-1.694-0.812-3.151-2.283-3.151
			C366.748,292.576,365.907,293.949,365.907,295.784z"/>
		<path style="fill:#FFFFFF;" d="M374.194,298.277c0.575,0.294,1.457,0.588,2.368,0.588c0.98,0,1.498-0.406,1.498-1.022
			c0-0.588-0.448-0.924-1.583-1.33c-1.568-0.547-2.591-1.415-2.591-2.788c0-1.61,1.345-2.843,3.572-2.843
			c1.064,0,1.849,0.224,2.409,0.476l-0.477,1.723c-0.378-0.182-1.051-0.447-1.976-0.447c-0.924,0-1.372,0.42-1.372,0.91
			c0,0.603,0.532,0.868,1.751,1.33c1.667,0.617,2.451,1.485,2.451,2.816c0,1.582-1.219,2.927-3.811,2.927
			c-1.078,0-2.143-0.279-2.675-0.574L374.194,298.277z"/>
		<path style="fill:#FFFFFF;" d="M393.155,295.658c0,3.096-1.877,4.973-4.637,4.973c-2.802,0-4.44-2.115-4.44-4.805
			c0-2.83,1.807-4.944,4.595-4.944C391.572,290.882,393.155,293.053,393.155,295.658z M386.333,295.784
			c0,1.849,0.869,3.151,2.298,3.151c1.442,0,2.269-1.373,2.269-3.208c0-1.694-0.812-3.151-2.283-3.151
			C387.173,292.576,386.333,293.949,386.333,295.784z"/>
		<path style="fill:#FFFFFF;" d="M394.62,298.277c0.575,0.294,1.457,0.588,2.368,0.588c0.98,0,1.498-0.406,1.498-1.022
			c0-0.588-0.448-0.924-1.583-1.33c-1.568-0.547-2.591-1.415-2.591-2.788c0-1.61,1.345-2.843,3.572-2.843
			c1.064,0,1.849,0.224,2.409,0.476l-0.477,1.723c-0.378-0.182-1.051-0.447-1.976-0.447c-0.924,0-1.372,0.42-1.372,0.91
			c0,0.603,0.532,0.868,1.751,1.33c1.667,0.617,2.451,1.485,2.451,2.816c0,1.582-1.219,2.927-3.811,2.927
			c-1.078,0-2.143-0.279-2.675-0.574L394.62,298.277z"/>
		<path style="fill:#FFFFFF;" d="M122.845,317.011c-0.393,0.196-1.275,0.406-2.423,0.406c-3.264,0-4.945-2.03-4.945-4.72
			c0-3.222,2.297-5.015,5.155-5.015c1.106,0,1.947,0.224,2.325,0.42l-0.434,1.694c-0.434-0.182-1.037-0.35-1.793-0.35
			c-1.695,0-3.012,1.022-3.012,3.123c0,1.892,1.121,3.082,3.026,3.082c0.644,0,1.358-0.14,1.779-0.308L122.845,317.011z"/>
		<path style="fill:#FFFFFF;" d="M132.463,312.459c0,3.096-1.877,4.973-4.637,4.973c-2.801,0-4.44-2.115-4.44-4.805
			c0-2.83,1.807-4.944,4.595-4.944C130.88,307.683,132.463,309.854,132.463,312.459z M125.642,312.585
			c0,1.849,0.868,3.151,2.297,3.151c1.443,0,2.27-1.373,2.27-3.208c0-1.694-0.812-3.151-2.283-3.151
			C126.482,309.377,125.642,310.75,125.642,312.585z"/>
		<path style="fill:#FFFFFF;" d="M133.858,307.836h2.144v7.648h3.754v1.793h-5.897V307.836z"/>
		<path style="fill:#FFFFFF;" d="M143.295,314.855l-0.672,2.423h-2.213l2.885-9.441h2.802l2.927,9.441h-2.297l-0.729-2.423H143.295z
			 M145.691,313.257l-0.588-2.003c-0.168-0.561-0.336-1.261-0.476-1.82h-0.028c-0.14,0.56-0.28,1.274-0.434,1.82l-0.561,2.003
			H145.691z"/>
		<path style="fill:#FFFFFF;" d="M150.28,307.962c0.561-0.111,1.695-0.195,2.76-0.195c1.303,0,2.101,0.126,2.788,0.532
			c0.658,0.35,1.134,0.994,1.134,1.849c0,0.841-0.49,1.625-1.555,2.018v0.027c1.079,0.294,1.877,1.106,1.877,2.325
			c0,0.854-0.392,1.527-0.98,2.003c-0.687,0.547-1.835,0.854-3.712,0.854c-1.051,0-1.835-0.069-2.312-0.14V307.962z
			 M152.396,311.576h0.701c1.121,0,1.723-0.462,1.723-1.162c0-0.715-0.546-1.093-1.513-1.093c-0.462,0-0.729,0.027-0.911,0.056
			V311.576z M152.396,315.765c0.21,0.028,0.462,0.028,0.827,0.028c0.966,0,1.821-0.364,1.821-1.359c0-0.952-0.854-1.33-1.919-1.33
			h-0.729V315.765z"/>
		<path style="fill:#FFFFFF;" d="M167.379,312.459c0,3.096-1.877,4.973-4.637,4.973c-2.801,0-4.44-2.115-4.44-4.805
			c0-2.83,1.807-4.944,4.595-4.944C165.796,307.683,167.379,309.854,167.379,312.459z M160.558,312.585
			c0,1.849,0.868,3.151,2.297,3.151c1.443,0,2.27-1.373,2.27-3.208c0-1.694-0.812-3.151-2.283-3.151
			C161.398,309.377,160.558,310.75,160.558,312.585z"/>
		<path style="fill:#FFFFFF;" d="M168.774,307.962c0.687-0.111,1.709-0.195,2.844-0.195c1.401,0,2.381,0.21,3.054,0.742
			c0.56,0.448,0.868,1.106,0.868,1.975c0,1.205-0.854,2.031-1.667,2.325v0.042c0.658,0.267,1.022,0.896,1.26,1.766
			c0.294,1.064,0.588,2.297,0.771,2.661h-2.185c-0.154-0.267-0.378-1.036-0.658-2.199c-0.252-1.177-0.659-1.499-1.527-1.513h-0.645
			v3.712h-2.115V307.962z M170.89,312.025h0.84c1.065,0,1.695-0.532,1.695-1.358c0-0.869-0.588-1.303-1.569-1.317
			c-0.519,0-0.812,0.042-0.967,0.07V312.025z"/>
		<path style="fill:#FFFFFF;" d="M179.401,314.855l-0.672,2.423h-2.213l2.885-9.441h2.802l2.927,9.441h-2.297l-0.729-2.423H179.401z
			 M181.796,313.257l-0.588-2.003c-0.168-0.561-0.336-1.261-0.476-1.82h-0.028c-0.14,0.56-0.28,1.274-0.434,1.82l-0.561,2.003
			H181.796z"/>
		<path style="fill:#FFFFFF;" d="M186.386,307.962c0.785-0.126,1.807-0.195,2.886-0.195c1.793,0,2.956,0.321,3.866,1.008
			c0.98,0.729,1.597,1.892,1.597,3.559c0,1.807-0.658,3.054-1.569,3.823c-0.995,0.827-2.507,1.219-4.356,1.219
			c-1.106,0-1.891-0.069-2.423-0.14V307.962z M188.53,315.666c0.182,0.043,0.476,0.043,0.742,0.043
			c1.933,0.014,3.194-1.051,3.194-3.307c0.014-1.961-1.135-2.997-2.97-2.997c-0.476,0-0.784,0.042-0.966,0.084V315.666z"/>
		<path style="fill:#FFFFFF;" d="M204.773,312.459c0,3.096-1.877,4.973-4.637,4.973c-2.802,0-4.44-2.115-4.44-4.805
			c0-2.83,1.807-4.944,4.595-4.944C203.19,307.683,204.773,309.854,204.773,312.459z M197.952,312.585
			c0,1.849,0.868,3.151,2.297,3.151c1.442,0,2.269-1.373,2.269-3.208c0-1.694-0.812-3.151-2.283-3.151
			C198.792,309.377,197.952,310.75,197.952,312.585z"/>
		<path style="fill:#FFFFFF;" d="M206.169,307.962c0.687-0.111,1.709-0.195,2.844-0.195c1.401,0,2.381,0.21,3.054,0.742
			c0.56,0.448,0.868,1.106,0.868,1.975c0,1.205-0.854,2.031-1.667,2.325v0.042c0.658,0.267,1.022,0.896,1.261,1.766
			c0.294,1.064,0.588,2.297,0.77,2.661h-2.185c-0.154-0.267-0.378-1.036-0.658-2.199c-0.252-1.177-0.659-1.499-1.527-1.513h-0.645
			v3.712h-2.115V307.962z M208.284,312.025h0.84c1.065,0,1.695-0.532,1.695-1.358c0-0.869-0.588-1.303-1.569-1.317
			c-0.519,0-0.812,0.042-0.967,0.07V312.025z"/>
		<path style="fill:#FFFFFF;" d="M220.087,313.285h-3.474v2.241h3.88v1.751h-6.023v-9.441h5.827v1.751h-3.684v1.961h3.474V313.285z"
			/>
		<path style="fill:#FFFFFF;" d="M222.016,315.078c0.574,0.294,1.457,0.588,2.367,0.588c0.98,0,1.499-0.406,1.499-1.022
			c0-0.588-0.448-0.924-1.583-1.33c-1.569-0.547-2.591-1.415-2.591-2.788c0-1.61,1.345-2.843,3.572-2.843
			c1.064,0,1.849,0.224,2.409,0.476l-0.476,1.723c-0.378-0.182-1.051-0.447-1.975-0.447s-1.373,0.42-1.373,0.91
			c0,0.603,0.532,0.868,1.751,1.33c1.667,0.617,2.451,1.485,2.451,2.816c0,1.582-1.219,2.927-3.81,2.927
			c-1.079,0-2.143-0.279-2.675-0.574L222.016,315.078z"/>
		<path style="fill:#FFFFFF;" d="M232.335,307.962c0.785-0.126,1.807-0.195,2.886-0.195c1.793,0,2.956,0.321,3.866,1.008
			c0.98,0.729,1.597,1.892,1.597,3.559c0,1.807-0.658,3.054-1.569,3.823c-0.995,0.827-2.507,1.219-4.356,1.219
			c-1.106,0-1.891-0.069-2.423-0.14V307.962z M234.478,315.666c0.182,0.043,0.476,0.043,0.742,0.043
			c1.933,0.014,3.194-1.051,3.194-3.307c0.014-1.961-1.135-2.997-2.97-2.997c-0.476,0-0.784,0.042-0.966,0.084V315.666z"/>
		<path style="fill:#FFFFFF;" d="M244.054,314.855l-0.672,2.423h-2.213l2.885-9.441h2.802l2.928,9.441h-2.297l-0.729-2.423H244.054z
			 M246.449,313.257l-0.588-2.003c-0.168-0.561-0.336-1.261-0.476-1.82h-0.028c-0.14,0.56-0.28,1.274-0.434,1.82l-0.561,2.003
			H246.449z"/>
		<path style="fill:#FFFFFF;" d="M255.142,309.629h-2.536v-1.793h7.256v1.793h-2.577v7.648h-2.143V309.629z"/>
		<path style="fill:#FFFFFF;" d="M263.136,307.836v9.441h-2.144v-9.441H263.136z"/>
		<path style="fill:#FFFFFF;" d="M272.967,313.663c-0.042-1.135-0.084-2.507-0.084-3.88h-0.042c-0.294,1.205-0.687,2.55-1.051,3.656
			l-1.148,3.684h-1.667l-1.009-3.656c-0.308-1.106-0.63-2.451-0.854-3.684h-0.027c-0.057,1.274-0.099,2.731-0.168,3.908
			l-0.169,3.586h-1.975l0.603-9.441h2.844l0.924,3.152c0.294,1.092,0.589,2.269,0.799,3.375h0.042
			c0.266-1.092,0.588-2.339,0.896-3.39l1.009-3.138h2.787l0.519,9.441h-2.087L272.967,313.663z"/>
		<path style="fill:#FFFFFF;" d="M279.656,307.962c0.784-0.126,1.807-0.195,2.885-0.195c1.793,0,2.956,0.321,3.866,1.008
			c0.98,0.729,1.598,1.892,1.598,3.559c0,1.807-0.659,3.054-1.569,3.823c-0.994,0.827-2.507,1.219-4.356,1.219
			c-1.106,0-1.891-0.069-2.423-0.14V307.962z M281.798,315.666c0.183,0.043,0.477,0.043,0.742,0.043
			c1.934,0.014,3.194-1.051,3.194-3.307c0.014-1.961-1.135-2.997-2.97-2.997c-0.477,0-0.784,0.042-0.967,0.084V315.666z"/>
		<path style="fill:#FFFFFF;" d="M295.017,313.285h-3.475v2.241h3.881v1.751H289.4v-9.441h5.827v1.751h-3.685v1.961h3.475V313.285z"
			/>
		<path style="fill:#FFFFFF;" d="M299.2,317.277l-3.025-9.441h2.339l1.149,3.992c0.322,1.121,0.616,2.199,0.84,3.376h0.042
			c0.238-1.135,0.532-2.255,0.854-3.334l1.205-4.034h2.27l-3.18,9.441H299.2z"/>
		<path style="fill:#FFFFFF;" d="M311.494,313.285h-3.475v2.241h3.881v1.751h-6.023v-9.441h5.827v1.751h-3.685v1.961h3.475V313.285z
			"/>
		<path style="fill:#FFFFFF;" d="M321.336,313.663c-0.042-1.135-0.084-2.507-0.084-3.88h-0.042c-0.295,1.205-0.687,2.55-1.051,3.656
			l-1.148,3.684h-1.667l-1.009-3.656c-0.309-1.106-0.631-2.451-0.854-3.684h-0.028c-0.056,1.274-0.098,2.731-0.168,3.908
			l-0.168,3.586h-1.975l0.602-9.441h2.844l0.925,3.152c0.294,1.092,0.588,2.269,0.798,3.375h0.042
			c0.267-1.092,0.589-2.339,0.896-3.39l1.009-3.138h2.788l0.518,9.441h-2.087L321.336,313.663z"/>
		<path style="fill:#FFFFFF;" d="M334.958,317.011c-0.393,0.196-1.274,0.406-2.424,0.406c-3.264,0-4.944-2.03-4.944-4.72
			c0-3.222,2.297-5.015,5.155-5.015c1.106,0,1.946,0.224,2.325,0.42l-0.435,1.694c-0.435-0.182-1.036-0.35-1.793-0.35
			c-1.695,0-3.012,1.022-3.012,3.123c0,1.892,1.121,3.082,3.025,3.082c0.645,0,1.359-0.14,1.779-0.308L334.958,317.011z"/>
		<path style="fill:#FFFFFF;" d="M344.577,312.459c0,3.096-1.877,4.973-4.637,4.973c-2.802,0-4.44-2.115-4.44-4.805
			c0-2.83,1.807-4.944,4.595-4.944C342.994,307.683,344.577,309.854,344.577,312.459z M337.754,312.585
			c0,1.849,0.869,3.151,2.298,3.151c1.442,0,2.269-1.373,2.269-3.208c0-1.694-0.812-3.151-2.283-3.151
			C338.595,309.377,337.754,310.75,337.754,312.585z"/>
		<path style="fill:#FFFFFF;" d="M345.972,307.836h2.143v7.648h3.754v1.793h-5.896V307.836z"/>
		<path style="fill:#FFFFFF;" d="M361.237,312.459c0,3.096-1.877,4.973-4.637,4.973c-2.802,0-4.44-2.115-4.44-4.805
			c0-2.83,1.807-4.944,4.595-4.944C359.654,307.683,361.237,309.854,361.237,312.459z M354.415,312.585
			c0,1.849,0.869,3.151,2.298,3.151c1.442,0,2.269-1.373,2.269-3.208c0-1.694-0.812-3.151-2.283-3.151
			C355.255,309.377,354.415,310.75,354.415,312.585z"/>
		<path style="fill:#FFFFFF;" d="M369.566,317.011c-0.393,0.196-1.274,0.406-2.424,0.406c-3.264,0-4.944-2.03-4.944-4.72
			c0-3.222,2.297-5.015,5.155-5.015c1.106,0,1.946,0.224,2.325,0.42l-0.435,1.694c-0.435-0.182-1.037-0.35-1.793-0.35
			c-1.695,0-3.012,1.022-3.012,3.123c0,1.892,1.121,3.082,3.025,3.082c0.645,0,1.359-0.14,1.779-0.308L369.566,317.011z"/>
		<path style="fill:#FFFFFF;" d="M373.301,314.855l-0.673,2.423h-2.213l2.886-9.441h2.801l2.928,9.441h-2.297l-0.729-2.423H373.301z
			 M375.696,313.257l-0.588-2.003c-0.168-0.561-0.336-1.261-0.477-1.82h-0.027c-0.141,0.56-0.28,1.274-0.435,1.82l-0.561,2.003
			H375.696z"/>
		<path style="fill:#FFFFFF;" d="M380.286,307.962c0.687-0.111,1.709-0.195,2.843-0.195c1.401,0,2.382,0.21,3.054,0.742
			c0.561,0.448,0.869,1.106,0.869,1.975c0,1.205-0.854,2.031-1.667,2.325v0.042c0.658,0.267,1.022,0.896,1.261,1.766
			c0.294,1.064,0.588,2.297,0.771,2.661h-2.186c-0.154-0.267-0.378-1.036-0.658-2.199c-0.252-1.177-0.658-1.499-1.527-1.513h-0.644
			v3.712h-2.115V307.962z M382.401,312.025h0.84c1.064,0,1.695-0.532,1.695-1.358c0-0.869-0.589-1.303-1.569-1.317
			c-0.518,0-0.812,0.042-0.966,0.07V312.025z"/>
		<path style="fill:#FFFFFF;" d="M397.033,313.285h-3.475v2.241h3.881v1.751h-6.023v-9.441h5.827v1.751h-3.685v1.961h3.475V313.285z
			"/>
		<path style="fill:#FFFFFF;" d="M406.876,313.663c-0.042-1.135-0.084-2.507-0.084-3.88h-0.042c-0.295,1.205-0.687,2.55-1.051,3.656
			l-1.148,3.684h-1.667l-1.009-3.656c-0.309-1.106-0.631-2.451-0.854-3.684h-0.028c-0.056,1.274-0.098,2.731-0.168,3.908
			l-0.168,3.586h-1.975l0.602-9.441h2.844l0.925,3.152c0.294,1.092,0.588,2.269,0.798,3.375h0.042
			c0.267-1.092,0.589-2.339,0.896-3.39l1.009-3.138h2.788l0.518,9.441h-2.087L406.876,313.663z"/>
		<path style="fill:#FFFFFF;" d="M413.563,307.962c0.658-0.111,1.583-0.195,2.886-0.195c1.316,0,2.255,0.252,2.885,0.756
			c0.603,0.477,1.009,1.261,1.009,2.186c0,0.924-0.308,1.709-0.868,2.241c-0.729,0.687-1.808,0.994-3.068,0.994
			c-0.279,0-0.532-0.014-0.728-0.042v3.376h-2.115V307.962z M415.678,312.249c0.182,0.042,0.406,0.056,0.714,0.056
			c1.135,0,1.835-0.574,1.835-1.541c0-0.868-0.603-1.387-1.667-1.387c-0.434,0-0.729,0.042-0.882,0.084V312.249z"/>
		<path style="fill:#FFFFFF;" d="M421.697,307.962c0.687-0.111,1.709-0.195,2.843-0.195c1.401,0,2.382,0.21,3.054,0.742
			c0.561,0.448,0.869,1.106,0.869,1.975c0,1.205-0.854,2.031-1.667,2.325v0.042c0.658,0.267,1.022,0.896,1.261,1.766
			c0.294,1.064,0.588,2.297,0.771,2.661h-2.186c-0.154-0.267-0.378-1.036-0.658-2.199c-0.252-1.177-0.658-1.499-1.527-1.513h-0.644
			v3.712h-2.115V307.962z M423.812,312.025h0.84c1.064,0,1.695-0.532,1.695-1.358c0-0.869-0.589-1.303-1.569-1.317
			c-0.518,0-0.812,0.042-0.966,0.07V312.025z"/>
		<path style="fill:#FFFFFF;" d="M432.324,314.855l-0.673,2.423h-2.213l2.886-9.441h2.801l2.928,9.441h-2.297l-0.729-2.423H432.324z
			 M434.718,313.257l-0.588-2.003c-0.168-0.561-0.336-1.261-0.477-1.82h-0.027c-0.141,0.56-0.28,1.274-0.435,1.82l-0.561,2.003
			H434.718z M436.162,305.609l-1.709,1.723h-1.709l1.177-1.723H436.162z"/>
		<path style="fill:#FFFFFF;" d="M439.966,309.629h-2.535v-1.793h7.256v1.793h-2.577v7.648h-2.144V309.629z"/>
		<path style="fill:#FFFFFF;" d="M447.961,307.836v9.441h-2.143v-9.441H447.961z"/>
		<path style="fill:#FFFFFF;" d="M456.742,317.011c-0.393,0.196-1.274,0.406-2.424,0.406c-3.264,0-4.944-2.03-4.944-4.72
			c0-3.222,2.297-5.015,5.155-5.015c1.106,0,1.946,0.224,2.325,0.42l-0.435,1.694c-0.435-0.182-1.037-0.35-1.793-0.35
			c-1.695,0-3.012,1.022-3.012,3.123c0,1.892,1.121,3.082,3.025,3.082c0.645,0,1.359-0.14,1.779-0.308L456.742,317.011z"/>
		<path style="fill:#FFFFFF;" d="M460.478,314.855l-0.673,2.423h-2.213l2.886-9.441h2.801l2.928,9.441h-2.297l-0.729-2.423H460.478z
			 M462.873,313.257l-0.588-2.003c-0.168-0.561-0.336-1.261-0.477-1.82h-0.027c-0.141,0.56-0.28,1.274-0.435,1.82l-0.561,2.003
			H462.873z"/>
		<path style="fill:#FFFFFF;" d="M115.911,334.077v-9.441h2.494l1.961,3.46c0.561,0.995,1.121,2.172,1.541,3.236h0.042
			c-0.14-1.247-0.182-2.521-0.182-3.937v-2.76h1.961v9.441h-2.241l-2.017-3.642c-0.561-1.009-1.177-2.228-1.639-3.334l-0.042,0.014
			c0.056,1.247,0.084,2.577,0.084,4.118v2.844H115.911z"/>
		<path style="fill:#FFFFFF;" d="M134.213,329.259c0,3.096-1.877,4.973-4.637,4.973c-2.801,0-4.44-2.115-4.44-4.805
			c0-2.83,1.807-4.944,4.595-4.944C132.63,324.483,134.213,326.653,134.213,329.259z M127.392,329.385
			c0,1.849,0.868,3.151,2.297,3.151c1.443,0,2.27-1.372,2.27-3.208c0-1.694-0.812-3.151-2.283-3.151
			C128.232,326.177,127.392,327.55,127.392,329.385z"/>
		<path style="fill:#FFFFFF;" d="M138.437,324.762c0.785-0.126,1.807-0.195,2.886-0.195c1.793,0,2.956,0.322,3.866,1.008
			c0.98,0.729,1.597,1.892,1.597,3.559c0,1.807-0.658,3.054-1.569,3.824c-0.995,0.826-2.507,1.218-4.356,1.218
			c-1.106,0-1.891-0.069-2.423-0.14V324.762z M140.58,332.466c0.182,0.042,0.476,0.042,0.742,0.042
			c1.933,0.015,3.194-1.05,3.194-3.306c0.014-1.961-1.135-2.997-2.97-2.997c-0.476,0-0.785,0.042-0.966,0.084V332.466z"/>
		<path style="fill:#FFFFFF;" d="M150.324,324.636v9.441h-2.144v-9.441H150.324z"/>
		<path style="fill:#FFFFFF;" d="M154.37,331.654l-0.672,2.423h-2.213l2.885-9.441h2.802l2.927,9.441h-2.297l-0.729-2.423H154.37z
			 M156.765,330.057l-0.588-2.003c-0.168-0.561-0.336-1.261-0.476-1.821h-0.028c-0.14,0.561-0.28,1.275-0.434,1.821l-0.561,2.003
			H156.765z"/>
		<path style="fill:#FFFFFF;" d="M166.382,331.654l-0.672,2.423h-2.213l2.885-9.441h2.802l2.928,9.441h-2.297l-0.729-2.423H166.382z
			 M168.777,330.057l-0.588-2.003c-0.168-0.561-0.336-1.261-0.476-1.821h-0.028c-0.14,0.561-0.28,1.275-0.434,1.821l-0.561,2.003
			H168.777z"/>
		<path style="fill:#FFFFFF;" d="M176.195,324.762c0.785-0.126,1.807-0.195,2.886-0.195c1.793,0,2.956,0.322,3.866,1.008
			c0.98,0.729,1.597,1.892,1.597,3.559c0,1.807-0.658,3.054-1.569,3.824c-0.995,0.826-2.507,1.218-4.356,1.218
			c-1.106,0-1.891-0.069-2.423-0.14V324.762z M178.338,332.466c0.182,0.042,0.476,0.042,0.742,0.042
			c1.933,0.015,3.194-1.05,3.194-3.306c0.014-1.961-1.135-2.997-2.97-2.997c-0.476,0-0.784,0.042-0.966,0.084V332.466z"/>
		<path style="fill:#FFFFFF;" d="M188.083,324.636v9.441h-2.144v-9.441H188.083z"/>
		<path style="fill:#FFFFFF;" d="M192.128,331.654l-0.672,2.423h-2.213l2.885-9.441h2.802l2.928,9.441h-2.297l-0.729-2.423H192.128z
			 M194.523,330.057l-0.588-2.003c-0.168-0.561-0.336-1.261-0.476-1.821h-0.028c-0.14,0.561-0.28,1.275-0.434,1.821l-0.561,2.003
			H194.523z"/>
		<path style="fill:#FFFFFF;" d="M201.941,324.762c0.659-0.111,1.583-0.195,2.886-0.195c1.317,0,2.255,0.252,2.886,0.756
			c0.602,0.477,1.008,1.261,1.008,2.186c0,0.924-0.308,1.709-0.868,2.241c-0.729,0.687-1.807,0.994-3.068,0.994
			c-0.28,0-0.532-0.014-0.729-0.042v3.376h-2.115V324.762z M204.056,329.049c0.182,0.042,0.406,0.056,0.714,0.056
			c1.135,0,1.835-0.574,1.835-1.541c0-0.868-0.602-1.387-1.667-1.387c-0.434,0-0.728,0.042-0.882,0.084V329.049z"/>
		<path style="fill:#FFFFFF;" d="M211.434,331.654l-0.672,2.423h-2.213l2.885-9.441h2.802l2.927,9.441h-2.297l-0.729-2.423H211.434z
			 M213.83,330.057l-0.588-2.003c-0.168-0.561-0.336-1.261-0.476-1.821h-0.028c-0.14,0.561-0.28,1.275-0.434,1.821l-0.561,2.003
			H213.83z"/>
		<path style="fill:#FFFFFF;" d="M218.419,324.762c0.687-0.111,1.709-0.195,2.844-0.195c1.401,0,2.381,0.21,3.054,0.742
			c0.56,0.448,0.868,1.106,0.868,1.975c0,1.205-0.854,2.031-1.667,2.325v0.042c0.658,0.267,1.022,0.896,1.26,1.766
			c0.294,1.064,0.588,2.297,0.771,2.661h-2.185c-0.154-0.267-0.378-1.036-0.658-2.199c-0.252-1.177-0.659-1.499-1.527-1.513h-0.645
			v3.712h-2.115V324.762z M220.534,328.824h0.84c1.065,0,1.695-0.532,1.695-1.358c0-0.869-0.588-1.303-1.569-1.317
			c-0.519,0-0.812,0.042-0.967,0.07V328.824z"/>
		<path style="fill:#FFFFFF;" d="M229.045,331.654l-0.672,2.423h-2.213l2.885-9.441h2.802l2.927,9.441h-2.297l-0.729-2.423H229.045z
			 M231.441,330.057l-0.588-2.003c-0.168-0.561-0.336-1.261-0.476-1.821h-0.028c-0.14,0.561-0.28,1.275-0.434,1.821l-0.561,2.003
			H231.441z"/>
		<path style="fill:#FFFFFF;" d="M246.745,333.643c-0.658,0.225-1.905,0.532-3.151,0.532c-1.723,0-2.97-0.434-3.838-1.274
			c-0.868-0.812-1.345-2.045-1.331-3.432c0.014-3.138,2.297-4.931,5.393-4.931c1.219,0,2.157,0.238,2.619,0.462l-0.448,1.709
			c-0.518-0.224-1.163-0.406-2.199-0.406c-1.779,0-3.124,1.009-3.124,3.054c0,1.947,1.219,3.096,2.97,3.096
			c0.49,0,0.882-0.056,1.05-0.14v-1.976h-1.457v-1.667h3.516V333.643z"/>
		<path style="fill:#FFFFFF;" d="M250.606,331.654l-0.672,2.423h-2.213l2.885-9.441h2.802l2.928,9.441h-2.297l-0.729-2.423H250.606z
			 M253.001,330.057l-0.588-2.003c-0.168-0.561-0.336-1.261-0.476-1.821h-0.028c-0.14,0.561-0.28,1.275-0.434,1.821l-0.561,2.003
			H253.001z"/>
		<path style="fill:#FFFFFF;" d="M257.59,324.762c0.687-0.111,1.709-0.195,2.844-0.195c1.401,0,2.381,0.21,3.054,0.742
			c0.56,0.448,0.868,1.106,0.868,1.975c0,1.205-0.854,2.031-1.667,2.325v0.042c0.658,0.267,1.022,0.896,1.261,1.766
			c0.294,1.064,0.588,2.297,0.77,2.661h-2.185c-0.154-0.267-0.378-1.036-0.658-2.199c-0.252-1.177-0.659-1.499-1.527-1.513h-0.645
			v3.712h-2.115V324.762z M259.706,328.824h0.84c1.065,0,1.695-0.532,1.695-1.358c0-0.869-0.588-1.303-1.569-1.317
			c-0.519,0-0.812,0.042-0.967,0.07V328.824z"/>
		<path style="fill:#FFFFFF;" d="M268.218,331.654l-0.673,2.423h-2.213l2.886-9.441h2.801l2.928,9.441h-2.297l-0.729-2.423H268.218z
			 M270.613,330.057l-0.588-2.003c-0.168-0.561-0.336-1.261-0.477-1.821h-0.027c-0.141,0.561-0.28,1.275-0.435,1.821l-0.561,2.003
			H270.613z"/>
		<path style="fill:#FFFFFF;" d="M275.204,334.077v-9.441h2.493l1.961,3.46c0.561,0.995,1.121,2.172,1.541,3.236h0.042
			c-0.141-1.247-0.183-2.521-0.183-3.937v-2.76h1.961v9.441h-2.24l-2.018-3.642c-0.561-1.009-1.177-2.228-1.639-3.334l-0.042,0.014
			c0.056,1.247,0.084,2.577,0.084,4.118v2.844H275.204z"/>
		<path style="fill:#FFFFFF;" d="M286.684,326.429h-2.535v-1.793h7.256v1.793h-2.577v7.648h-2.144V326.429z"/>
		<path style="fill:#FFFFFF;" d="M294.678,324.636v9.441h-2.143v-9.441H294.678z"/>
		<path style="fill:#FFFFFF;" d="M296.526,324.762c0.687-0.111,1.709-0.195,2.843-0.195c1.401,0,2.382,0.21,3.054,0.742
			c0.561,0.448,0.869,1.106,0.869,1.975c0,1.205-0.854,2.031-1.667,2.325v0.042c0.658,0.267,1.022,0.896,1.261,1.766
			c0.294,1.064,0.588,2.297,0.771,2.661h-2.186c-0.154-0.267-0.378-1.036-0.658-2.199c-0.252-1.177-0.658-1.499-1.527-1.513h-0.644
			v3.712h-2.115V324.762z M298.641,328.824h0.84c1.064,0,1.695-0.532,1.695-1.358c0-0.869-0.589-1.303-1.569-1.317
			c-0.518,0-0.812,0.042-0.966,0.07V328.824z"/>
		<path style="fill:#FFFFFF;" d="M309.855,331.654l-0.673,2.423h-2.213l2.886-9.441h2.801l2.928,9.441h-2.297l-0.729-2.423H309.855z
			 M312.25,330.057l-0.588-2.003c-0.168-0.561-0.336-1.261-0.477-1.821h-0.027c-0.141,0.561-0.28,1.275-0.435,1.821l-0.561,2.003
			H312.25z"/>
		<path style="fill:#FFFFFF;" d="M319.668,324.762c0.784-0.126,1.807-0.195,2.885-0.195c1.793,0,2.956,0.322,3.866,1.008
			c0.98,0.729,1.598,1.892,1.598,3.559c0,1.807-0.659,3.054-1.569,3.824c-0.994,0.826-2.507,1.218-4.356,1.218
			c-1.106,0-1.891-0.069-2.423-0.14V324.762z M321.81,332.466c0.183,0.042,0.477,0.042,0.742,0.042
			c1.934,0.015,3.194-1.05,3.194-3.306c0.014-1.961-1.135-2.997-2.97-2.997c-0.477,0-0.784,0.042-0.967,0.084V332.466z"/>
		<path style="fill:#FFFFFF;" d="M331.554,324.636v9.441h-2.143v-9.441H331.554z"/>
		<path style="fill:#FFFFFF;" d="M333.471,331.878c0.575,0.294,1.457,0.588,2.368,0.588c0.98,0,1.498-0.405,1.498-1.022
			c0-0.588-0.448-0.924-1.583-1.33c-1.568-0.547-2.591-1.415-2.591-2.788c0-1.61,1.345-2.843,3.572-2.843
			c1.064,0,1.849,0.224,2.409,0.476l-0.477,1.724c-0.378-0.183-1.051-0.449-1.976-0.449c-0.924,0-1.372,0.421-1.372,0.911
			c0,0.603,0.532,0.868,1.751,1.331c1.667,0.616,2.451,1.484,2.451,2.815c0,1.582-1.219,2.927-3.811,2.927
			c-1.078,0-2.143-0.279-2.675-0.574L333.471,331.878z"/>
		<path style="fill:#FFFFFF;" d="M346.579,330.085h-3.475v2.241h3.88v1.751h-6.022v-9.441h5.827v1.751h-3.685v1.961h3.475V330.085z"
			/>
		<path style="fill:#FFFFFF;" d="M356.421,330.463c-0.042-1.135-0.084-2.507-0.084-3.88h-0.042c-0.295,1.205-0.687,2.55-1.051,3.656
			l-1.148,3.684h-1.667l-1.009-3.655c-0.309-1.107-0.631-2.452-0.854-3.685h-0.028c-0.056,1.274-0.098,2.731-0.168,3.908
			l-0.168,3.586h-1.975l0.602-9.441h2.844l0.925,3.152c0.294,1.092,0.588,2.269,0.798,3.376h0.042
			c0.267-1.093,0.589-2.34,0.896-3.391l1.009-3.138h2.788l0.518,9.441h-2.087L356.421,330.463z"/>
		<path style="fill:#FFFFFF;" d="M362.423,324.636v9.441h-2.143v-9.441H362.423z"/>
		<path style="fill:#FFFFFF;" d="M364.271,334.077v-9.441h2.493l1.961,3.46c0.561,0.995,1.12,2.172,1.541,3.236h0.042
			c-0.141-1.247-0.183-2.521-0.183-3.937v-2.76h1.962v9.441h-2.242l-2.017-3.642c-0.561-1.009-1.177-2.228-1.639-3.334l-0.042,0.014
			c0.056,1.247,0.084,2.577,0.084,4.118v2.844H364.271z"/>
		<path style="fill:#FFFFFF;" d="M376.13,331.654l-0.673,2.423h-2.213l2.886-9.441h2.801l2.928,9.441h-2.297l-0.729-2.423H376.13z
			 M378.525,330.057l-0.588-2.003c-0.168-0.561-0.336-1.261-0.477-1.821h-0.027c-0.141,0.561-0.28,1.275-0.435,1.821l-0.561,2.003
			H378.525z"/>
		<path style="fill:#FFFFFF;" d="M389.698,333.811c-0.378,0.183-1.19,0.393-2.255,0.406l-0.238,0.477
			c0.546,0.126,1.022,0.49,1.022,1.148c0,0.967-0.869,1.289-1.667,1.289c-0.42,0-0.883-0.084-1.205-0.267l0.28-0.868
			c0.21,0.112,0.532,0.196,0.784,0.196c0.28,0,0.505-0.099,0.505-0.336c0-0.295-0.322-0.448-1.106-0.532l0.532-1.163
			c-2.662-0.351-4.021-2.241-4.021-4.664c0-3.222,2.297-5.015,5.155-5.015c1.106,0,1.946,0.224,2.325,0.42l-0.435,1.694
			c-0.435-0.182-1.036-0.35-1.793-0.35c-1.695,0-3.012,1.022-3.012,3.124c0,1.891,1.121,3.081,3.025,3.081
			c0.645,0,1.359-0.14,1.779-0.308L389.698,333.811z"/>
		<path style="fill:#FFFFFF;" d="M393.434,331.654l-0.673,2.423h-2.213l2.886-9.441h2.801l2.928,9.441h-2.297l-0.729-2.423H393.434z
			 M392.986,324.062c-0.042-1.177,0.406-1.778,1.078-1.778c0.378,0,0.631,0.126,0.896,0.279c0.225,0.141,0.435,0.267,0.616,0.267
			c0.238,0,0.322-0.14,0.379-0.603h0.952c0.042,1.261-0.364,1.751-1.106,1.751c-0.379,0-0.658-0.126-0.911-0.266
			c-0.237-0.126-0.406-0.253-0.588-0.253s-0.309,0.211-0.336,0.603H392.986z M395.829,330.057l-0.588-2.003
			c-0.168-0.561-0.336-1.261-0.477-1.821h-0.027c-0.141,0.561-0.28,1.275-0.435,1.821l-0.561,2.003H395.829z"/>
		<path style="fill:#FFFFFF;" d="M408.711,329.259c0,3.096-1.877,4.973-4.637,4.973c-2.802,0-4.44-2.115-4.44-4.805
			c0-2.83,1.807-4.944,4.595-4.944C407.128,324.483,408.711,326.653,408.711,329.259z M401.888,329.385
			c0,1.849,0.869,3.151,2.298,3.151c1.442,0,2.269-1.372,2.269-3.208c0-1.694-0.812-3.151-2.283-3.151
			C402.729,326.177,401.888,327.55,401.888,329.385z"/>
		<path style="fill:#FFFFFF;" d="M412.934,324.762c0.784-0.126,1.807-0.195,2.886-0.195c1.793,0,2.955,0.322,3.865,1.008
			c0.98,0.729,1.598,1.892,1.598,3.559c0,1.807-0.659,3.054-1.569,3.824c-0.994,0.826-2.507,1.218-4.356,1.218
			c-1.106,0-1.891-0.069-2.423-0.14V324.762z M415.077,332.466c0.183,0.042,0.477,0.042,0.743,0.042
			c1.933,0.015,3.193-1.05,3.193-3.306c0.014-1.961-1.135-2.997-2.97-2.997c-0.477,0-0.784,0.042-0.967,0.084V332.466z"/>
		<path style="fill:#FFFFFF;" d="M431.321,329.259c0,3.096-1.877,4.973-4.637,4.973c-2.802,0-4.44-2.115-4.44-4.805
			c0-2.83,1.807-4.944,4.595-4.944C429.738,324.483,431.321,326.653,431.321,329.259z M424.499,329.385
			c0,1.849,0.869,3.151,2.298,3.151c1.442,0,2.269-1.372,2.269-3.208c0-1.694-0.812-3.151-2.283-3.151
			C425.339,326.177,424.499,327.55,424.499,329.385z"/>
		<path style="fill:#FFFFFF;" d="M115.351,345.19c0.434-1.372,1.037-2.745,1.681-3.796l1.289-0.111
			c-0.435,1.19-0.785,2.549-0.98,3.781L115.351,345.19z M118.082,345.19c0.434-1.372,1.037-2.745,1.681-3.796l1.289-0.111
			c-0.42,1.19-0.785,2.549-0.98,3.781L118.082,345.19z"/>
		<path style="fill:#FFFFFF;" d="M122.912,341.436h2.129v5.968c0,2.689-1.289,3.628-3.362,3.628c-0.49,0-1.135-0.084-1.555-0.225
			l0.238-1.723c0.294,0.098,0.672,0.168,1.093,0.168c0.896,0,1.457-0.406,1.457-1.877V341.436z"/>
		<path style="fill:#FFFFFF;" d="M132.434,346.885h-3.474v2.241h3.88v1.751h-6.023v-9.441h5.827v1.751h-3.684v1.961h3.474V346.885z"
			/>
		<path style="fill:#FFFFFF;" d="M136.436,341.436v9.441h-2.144v-9.441H136.436z"/>
		<path style="fill:#FFFFFF;" d="M140.104,343.229h-2.536v-1.793h7.256v1.793h-2.577v7.648h-2.143V343.229z"/>
		<path style="fill:#FFFFFF;" d="M154.191,346.059c0,3.096-1.877,4.973-4.637,4.973c-2.802,0-4.44-2.115-4.44-4.805
			c0-2.83,1.807-4.944,4.595-4.944C152.608,341.282,154.191,343.453,154.191,346.059z M147.37,346.185
			c0,1.849,0.868,3.151,2.297,3.151c1.442,0,2.269-1.373,2.269-3.208c0-1.694-0.812-3.151-2.283-3.151
			C148.21,342.977,147.37,344.35,147.37,346.185z"/>
		<path style="fill:#FFFFFF;" d="M158.415,341.562c0.785-0.126,1.807-0.195,2.886-0.195c1.793,0,2.956,0.321,3.866,1.008
			c0.98,0.729,1.597,1.892,1.597,3.559c0,1.807-0.658,3.054-1.569,3.823c-0.995,0.827-2.507,1.219-4.356,1.219
			c-1.106,0-1.891-0.069-2.423-0.14V341.562z M160.558,349.266c0.182,0.043,0.476,0.043,0.742,0.043
			c1.933,0.014,3.194-1.051,3.194-3.307c0.014-1.961-1.135-2.997-2.97-2.997c-0.476,0-0.784,0.042-0.966,0.084V349.266z"/>
		<path style="fill:#FFFFFF;" d="M173.776,346.885h-3.474v2.241h3.88v1.751h-6.023v-9.441h5.827v1.751h-3.684v1.961h3.474V346.885z"
			/>
		<path style="fill:#FFFFFF;" d="M178.463,341.562c0.659-0.111,1.583-0.195,2.886-0.195c1.317,0,2.255,0.252,2.886,0.756
			c0.602,0.477,1.008,1.261,1.008,2.186c0,0.924-0.308,1.709-0.869,2.241c-0.728,0.687-1.807,0.994-3.067,0.994
			c-0.28,0-0.532-0.014-0.729-0.042v3.376h-2.115V341.562z M180.578,345.849c0.182,0.042,0.406,0.056,0.714,0.056
			c1.135,0,1.835-0.574,1.835-1.541c0-0.868-0.602-1.387-1.667-1.387c-0.435,0-0.729,0.042-0.883,0.084V345.849z"/>
		<path style="fill:#FFFFFF;" d="M192.214,346.885h-3.474v2.241h3.88v1.751h-6.023v-9.441h5.827v1.751h-3.684v1.961h3.474V346.885z"
			/>
		<path style="fill:#FFFFFF;" d="M194.073,350.877v-9.441h2.494l1.961,3.46c0.561,0.995,1.121,2.171,1.541,3.236h0.042
			c-0.14-1.247-0.182-2.521-0.182-3.937v-2.76h1.961v9.441h-2.241l-2.017-3.642c-0.561-1.009-1.177-2.228-1.639-3.334l-0.042,0.014
			c0.056,1.247,0.084,2.577,0.084,4.118v2.844H194.073z"/>
		<path style="fill:#FFFFFF;" d="M203.803,348.678c0.574,0.294,1.457,0.588,2.367,0.588c0.98,0,1.499-0.406,1.499-1.022
			c0-0.588-0.448-0.924-1.583-1.33c-1.569-0.547-2.591-1.415-2.591-2.788c0-1.61,1.345-2.843,3.572-2.843
			c1.064,0,1.849,0.224,2.409,0.476L209,343.481c-0.378-0.182-1.051-0.447-1.975-0.447s-1.373,0.42-1.373,0.91
			c0,0.603,0.532,0.868,1.75,1.33c1.667,0.617,2.452,1.485,2.452,2.816c0,1.582-1.219,2.927-3.81,2.927
			c-1.079,0-2.143-0.279-2.676-0.574L203.803,348.678z"/>
		<path style="fill:#FFFFFF;" d="M213.492,348.454l-0.672,2.423h-2.213l2.885-9.441h2.802l2.927,9.441h-2.297l-0.729-2.423H213.492z
			 M215.887,346.857l-0.588-2.003c-0.168-0.561-0.336-1.261-0.476-1.82h-0.028c-0.14,0.56-0.28,1.274-0.434,1.82l-0.561,2.003
			H215.887z"/>
		<path style="fill:#FFFFFF;" d="M220.477,341.562c0.687-0.111,1.709-0.195,2.844-0.195c1.401,0,2.381,0.21,3.054,0.742
			c0.56,0.448,0.868,1.106,0.868,1.975c0,1.205-0.854,2.031-1.667,2.325v0.042c0.658,0.267,1.022,0.896,1.26,1.766
			c0.294,1.064,0.588,2.297,0.771,2.661h-2.185c-0.154-0.267-0.378-1.036-0.658-2.199c-0.252-1.177-0.659-1.499-1.527-1.513h-0.645
			v3.712h-2.115V341.562z M222.592,345.624h0.84c1.065,0,1.695-0.532,1.695-1.358c0-0.869-0.588-1.303-1.569-1.317
			c-0.519,0-0.812,0.042-0.967,0.07V345.624z"/>
		<path style="fill:#FFFFFF;" d="M231.258,341.282c-0.434,1.372-1.051,2.745-1.681,3.796l-1.289,0.111
			c0.42-1.19,0.785-2.549,0.98-3.781L231.258,341.282z M233.989,341.282c-0.434,1.372-1.037,2.745-1.681,3.796l-1.289,0.111
			c0.42-1.19,0.785-2.549,0.98-3.781L233.989,341.282z"/>
		<path style="fill:#FFFFFF;" d="M237.094,341.436h5.771v1.751h-3.628v2.157h3.39v1.737h-3.39v3.796h-2.144V341.436z"/>
		<path style="fill:#FFFFFF;" d="M253.115,346.059c0,3.096-1.877,4.973-4.637,4.973c-2.802,0-4.44-2.115-4.44-4.805
			c0-2.83,1.807-4.944,4.595-4.944C251.532,341.282,253.115,343.453,253.115,346.059z M246.294,346.185
			c0,1.849,0.868,3.151,2.297,3.151c1.442,0,2.269-1.373,2.269-3.208c0-1.694-0.812-3.151-2.283-3.151
			C247.134,342.977,246.294,344.35,246.294,346.185z"/>
		<path style="fill:#FFFFFF;" d="M261.444,350.61c-0.393,0.196-1.275,0.406-2.423,0.406c-3.264,0-4.945-2.03-4.945-4.72
			c0-3.222,2.297-5.015,5.155-5.015c1.106,0,1.947,0.224,2.325,0.42l-0.434,1.694c-0.434-0.182-1.037-0.35-1.793-0.35
			c-1.695,0-3.012,1.022-3.012,3.123c0,1.892,1.121,3.082,3.026,3.082c0.644,0,1.358-0.14,1.779-0.308L261.444,350.61z"/>
		<path style="fill:#FFFFFF;" d="M265.179,348.454l-0.672,2.423h-2.213l2.885-9.441h2.802l2.928,9.441h-2.297l-0.729-2.423H265.179z
			 M267.575,346.857l-0.588-2.003c-0.168-0.561-0.336-1.261-0.477-1.82h-0.028c-0.14,0.56-0.28,1.274-0.434,1.82l-0.561,2.003
			H267.575z"/>
		<path style="fill:#FFFFFF;" d="M272.165,341.562c0.784-0.126,1.807-0.195,2.886-0.195c1.793,0,2.955,0.321,3.865,1.008
			c0.98,0.729,1.598,1.892,1.598,3.559c0,1.807-0.659,3.054-1.569,3.823c-0.994,0.827-2.507,1.219-4.356,1.219
			c-1.106,0-1.891-0.069-2.423-0.14V341.562z M274.307,349.266c0.183,0.043,0.477,0.043,0.743,0.043
			c1.933,0.014,3.193-1.051,3.193-3.307c0.014-1.961-1.135-2.997-2.97-2.997c-0.477,0-0.784,0.042-0.967,0.084V349.266z"/>
		<path style="fill:#FFFFFF;" d="M290.551,346.059c0,3.096-1.877,4.973-4.637,4.973c-2.802,0-4.44-2.115-4.44-4.805
			c0-2.83,1.807-4.944,4.595-4.944C288.968,341.282,290.551,343.453,290.551,346.059z M283.729,346.185
			c0,1.849,0.869,3.151,2.298,3.151c1.442,0,2.269-1.373,2.269-3.208c0-1.694-0.812-3.151-2.283-3.151
			C284.57,342.977,283.729,344.35,283.729,346.185z"/>
		<path style="fill:#FFFFFF;" d="M294.775,350.877v-9.441h2.493l1.961,3.46c0.561,0.995,1.12,2.171,1.541,3.236h0.042
			c-0.141-1.247-0.183-2.521-0.183-3.937v-2.76h1.962v9.441h-2.242l-2.017-3.642c-0.561-1.009-1.177-2.228-1.639-3.334l-0.042,0.014
			c0.056,1.247,0.084,2.577,0.084,4.118v2.844H294.775z"/>
		<path style="fill:#FFFFFF;" d="M306.634,348.454l-0.673,2.423h-2.213l2.886-9.441h2.801l2.928,9.441h-2.297l-0.729-2.423H306.634z
			 M309.029,346.857l-0.588-2.003c-0.168-0.561-0.336-1.261-0.477-1.82h-0.027c-0.141,0.56-0.28,1.274-0.435,1.82l-0.561,2.003
			H309.029z"/>
		<path style="fill:#FFFFFF;" d="M322.064,346.885h-3.475v2.241h3.881v1.751h-6.023v-9.441h5.827v1.751h-3.685v1.961h3.475V346.885z
			"/>
		<path style="fill:#FFFFFF;" d="M328.895,350.877l-0.854-1.709c-0.351-0.658-0.574-1.148-0.841-1.695h-0.028
			c-0.195,0.547-0.434,1.037-0.728,1.695l-0.785,1.709h-2.437l2.731-4.776l-2.634-4.665h2.451l0.826,1.724
			c0.28,0.574,0.49,1.036,0.715,1.568h0.028c0.224-0.603,0.406-1.022,0.644-1.568l0.799-1.724h2.438l-2.662,4.608l2.802,4.833
			H328.895z"/>
		<path style="fill:#FFFFFF;" d="M332.504,341.562c0.658-0.111,1.583-0.195,2.886-0.195c1.316,0,2.255,0.252,2.885,0.756
			c0.603,0.477,1.009,1.261,1.009,2.186c0,0.924-0.308,1.709-0.868,2.241c-0.729,0.687-1.808,0.994-3.068,0.994
			c-0.279,0-0.532-0.014-0.728-0.042v3.376h-2.115V341.562z M334.62,345.849c0.182,0.042,0.406,0.056,0.714,0.056
			c1.135,0,1.835-0.574,1.835-1.541c0-0.868-0.603-1.387-1.667-1.387c-0.434,0-0.729,0.042-0.882,0.084V345.849z"/>
		<path style="fill:#FFFFFF;" d="M346.255,346.885h-3.475v2.241h3.881v1.751h-6.023v-9.441h5.827v1.751h-3.685v1.961h3.475V346.885z
			"/>
		<path style="fill:#FFFFFF;" d="M348.114,341.562c0.687-0.111,1.709-0.195,2.843-0.195c1.401,0,2.382,0.21,3.054,0.742
			c0.561,0.448,0.869,1.106,0.869,1.975c0,1.205-0.854,2.031-1.667,2.325v0.042c0.658,0.267,1.022,0.896,1.261,1.766
			c0.294,1.064,0.588,2.297,0.771,2.661h-2.186c-0.154-0.267-0.378-1.036-0.658-2.199c-0.252-1.177-0.658-1.499-1.527-1.513h-0.644
			v3.712h-2.115V341.562z M350.229,345.624h0.84c1.064,0,1.695-0.532,1.695-1.358c0-0.869-0.589-1.303-1.569-1.317
			c-0.518,0-0.812,0.042-0.966,0.07V345.624z"/>
		<path style="fill:#FFFFFF;" d="M358.558,341.436v9.441h-2.143v-9.441H358.558z"/>
		<path style="fill:#FFFFFF;" d="M366.023,346.885h-3.475v2.241h3.881v1.751h-6.023v-9.441h5.827v1.751h-3.685v1.961h3.475V346.885z
			 M364.173,339.209l1.429,1.723h-1.499l-0.714-0.868h-0.028l-0.7,0.868h-1.484l1.4-1.723H364.173z"/>
		<path style="fill:#FFFFFF;" d="M367.881,350.877v-9.441h2.493l1.961,3.46c0.561,0.995,1.121,2.171,1.541,3.236h0.042
			c-0.141-1.247-0.183-2.521-0.183-3.937v-2.76h1.961v9.441h-2.24l-2.018-3.642c-0.561-1.009-1.177-2.228-1.639-3.334l-0.042,0.014
			c0.056,1.247,0.084,2.577,0.084,4.118v2.844H367.881z"/>
		<path style="fill:#FFFFFF;" d="M384.475,350.61c-0.393,0.196-1.274,0.406-2.424,0.406c-3.264,0-4.944-2.03-4.944-4.72
			c0-3.222,2.297-5.015,5.155-5.015c1.106,0,1.946,0.224,2.325,0.42l-0.435,1.694c-0.435-0.182-1.036-0.35-1.793-0.35
			c-1.695,0-3.012,1.022-3.012,3.123c0,1.892,1.121,3.082,3.025,3.082c0.645,0,1.359-0.14,1.779-0.308L384.475,350.61z"/>
		<path style="fill:#FFFFFF;" d="M388.014,341.436v9.441h-2.143v-9.441H388.014z"/>
		<path style="fill:#FFFFFF;" d="M392.061,348.454l-0.673,2.423h-2.213l2.886-9.441h2.801l2.928,9.441h-2.297l-0.729-2.423H392.061z
			 M394.456,346.857l-0.588-2.003c-0.168-0.561-0.336-1.261-0.477-1.82h-0.027c-0.141,0.56-0.28,1.274-0.435,1.82l-0.561,2.003
			H394.456z"/>
		<path style="fill:#FFFFFF;" d="M115.911,358.361c0.785-0.126,1.807-0.195,2.886-0.195c1.793,0,2.956,0.322,3.866,1.008
			c0.98,0.729,1.597,1.892,1.597,3.559c0,1.807-0.658,3.054-1.569,3.824c-0.995,0.826-2.507,1.218-4.356,1.218
			c-1.106,0-1.891-0.069-2.423-0.14V358.361z M118.054,366.066c0.182,0.042,0.476,0.042,0.742,0.042
			c1.933,0.015,3.194-1.05,3.194-3.306c0.014-1.961-1.135-2.997-2.97-2.997c-0.476,0-0.784,0.042-0.966,0.084V366.066z"/>
		<path style="fill:#FFFFFF;" d="M134.298,362.858c0,3.096-1.877,4.973-4.637,4.973c-2.802,0-4.44-2.115-4.44-4.805
			c0-2.83,1.807-4.944,4.595-4.944C132.715,358.082,134.298,360.253,134.298,362.858z M127.476,362.984
			c0,1.849,0.868,3.151,2.297,3.151c1.442,0,2.269-1.372,2.269-3.208c0-1.694-0.812-3.151-2.283-3.151
			C128.316,359.776,127.476,361.15,127.476,362.984z"/>
		<path style="fill:#FFFFFF;" d="M145.455,367.41c-0.393,0.196-1.275,0.406-2.423,0.406c-3.264,0-4.945-2.03-4.945-4.72
			c0-3.222,2.297-5.015,5.155-5.015c1.106,0,1.947,0.224,2.325,0.42l-0.434,1.694c-0.434-0.182-1.037-0.35-1.793-0.35
			c-1.695,0-3.012,1.022-3.012,3.124c0,1.891,1.121,3.081,3.026,3.081c0.644,0,1.358-0.14,1.779-0.308L145.455,367.41z"/>
		<path style="fill:#FFFFFF;" d="M146.851,358.235h2.144v7.648h3.754v1.793h-5.897V358.235z"/>
		<path style="fill:#FFFFFF;" d="M156.148,358.235v9.441h-2.144v-9.441H156.148z"/>
		<path style="fill:#FFFFFF;" d="M163.611,363.685h-3.474v2.241h3.88v1.751h-6.023v-9.441h5.827v1.751h-3.684v1.961h3.474V363.685z"
			/>
		<path style="fill:#FFFFFF;" d="M165.47,367.677v-9.441h2.494l1.961,3.46c0.561,0.995,1.121,2.172,1.541,3.236h0.042
			c-0.14-1.247-0.182-2.521-0.182-3.937v-2.76h1.961v9.441h-2.241l-2.017-3.642c-0.561-1.009-1.177-2.228-1.639-3.334l-0.042,0.014
			c0.056,1.247,0.084,2.577,0.084,4.118v2.844H165.47z"/>
		<path style="fill:#FFFFFF;" d="M176.951,360.028h-2.536v-1.793h7.256v1.793h-2.577v7.648h-2.143V360.028z"/>
		<path style="fill:#FFFFFF;" d="M188.419,363.685h-3.474v2.241h3.88v1.751h-6.023v-9.441h5.827v1.751h-3.684v1.961h3.474V363.685z"
			/>
		<path style="fill:#FFFFFF;" d="M189.942,366.542c0-0.756,0.519-1.303,1.261-1.303c0.743,0,1.247,0.532,1.247,1.303
			c0,0.742-0.504,1.289-1.26,1.289C190.461,367.831,189.942,367.284,189.942,366.542z"/>
	</g>
</g>
<g id="Layer_1">
</g>
</svg>
