<?xml version="1.0" encoding="iso-8859-1"?>
<!-- Generator: Adobe Illustrator 18.0.0, SVG Export Plug-In . SVG Version: 6.00 Build 0)  -->
<!DOCTYPE svg PUBLIC "-//W3C//DTD SVG 1.1//EN" "http://www.w3.org/Graphics/SVG/1.1/DTD/svg11.dtd">
<svg version="1.1" xmlns="http://www.w3.org/2000/svg" xmlns:xlink="http://www.w3.org/1999/xlink" x="0px" y="0px"
	 viewBox="0 0 531.453 494.191" style="enable-background:new 0 0 531.453 494.191;" xml:space="preserve">
<g id="page13-7">
	<g>
		
			<polygon style="fill:none;stroke:#000000;stroke-width:3.6793;stroke-linecap:round;stroke-linejoin:round;stroke-miterlimit:10;" points="
			43.446,14.904 69.635,406.333 475.632,438.052 529.613,82.648 		"/>
		<polygon style="opacity:0.8;fill:#E92325;" points="100.919,49.06 83.146,447.249 518.153,405.508 454.366,31.542 		"/>
		<polygon style="fill:#03B9DB;" points="23.262,106.379 387.98,82.648 390.61,211.407 20.388,285.052 		"/>
		
			<polyline style="fill:none;stroke:#000000;stroke-width:3.6793;stroke-linecap:round;stroke-linejoin:round;stroke-miterlimit:10;" points="
			45.65,296.379 1.84,305.543 4.782,122.591 		"/>
		<g>
			<g>
				<g>
					
						<line style="fill:none;stroke:#000000;stroke-width:3.6793;stroke-linecap:round;stroke-linejoin:round;stroke-miterlimit:10;" x1="20.388" y1="335.586" x2="43.803" y2="335.586"/>
					
						<line style="fill:none;stroke:#000000;stroke-width:3.6793;stroke-linecap:round;stroke-linejoin:round;stroke-miterlimit:10;" x1="32.095" y1="323.878" x2="32.095" y2="347.293"/>
				</g>
				<g>
					
						<line style="fill:none;stroke:#000000;stroke-width:3.6793;stroke-linecap:round;stroke-linejoin:round;stroke-miterlimit:10;" x1="274.822" y1="453.476" x2="298.237" y2="453.476"/>
					
						<line style="fill:none;stroke:#000000;stroke-width:3.6793;stroke-linecap:round;stroke-linejoin:round;stroke-miterlimit:10;" x1="286.53" y1="441.769" x2="286.53" y2="465.184"/>
				</g>
				
					<path style="fill:none;stroke:#000000;stroke-width:3.6793;stroke-linecap:round;stroke-linejoin:round;stroke-miterlimit:10;" d="
					M503.274,13.043c8.685,13.564-5.72,27.969-19.284,19.284c-0.931-0.596-1.73-1.395-2.325-2.326
					c-8.681-13.563,5.721-27.965,19.283-19.283C501.879,11.313,502.678,12.112,503.274,13.043z"/>
				<g>
					
						<line style="fill:none;stroke:#000000;stroke-width:3.6793;stroke-linecap:round;stroke-linejoin:round;stroke-miterlimit:10;" x1="211.98" y1="1.84" x2="298.237" y2="1.84"/>
					
						<line style="fill:none;stroke:#000000;stroke-width:3.6793;stroke-linecap:round;stroke-linejoin:round;stroke-miterlimit:10;" x1="264.348" y1="21.523" x2="319.935" y2="21.523"/>
				</g>
				
					<path style="fill:none;stroke:#000000;stroke-width:3.6793;stroke-linecap:round;stroke-linejoin:round;stroke-miterlimit:10;" d="
					M216.304,470.431c8.681,13.563-5.721,27.965-19.283,19.283c-0.931-0.596-1.73-1.395-2.326-2.325
					c-8.685-13.564,5.72-27.969,19.284-19.284C214.91,468.702,215.709,469.501,216.304,470.431z"/>
			</g>
		</g>
		<g>
			<path style="fill:#FFFFFF;" d="M38.951,182.347c1.656-0.557,4.156-1.18,6.967-1.639c3.471-0.567,5.986-0.443,7.867,0.603
				c1.57,0.884,2.602,2.39,2.953,4.542c0.488,2.985-1.295,5.379-3.189,6.438l0.018,0.104c1.738,0.393,2.896,1.808,3.84,3.863
				c1.16,2.519,2.389,5.454,2.986,6.283l-5.414,0.885c-0.49-0.597-1.357-2.415-2.523-5.183c-1.102-2.814-2.238-3.447-4.396-3.13
				l-1.596,0.261l1.504,9.198l-5.242,0.857L38.951,182.347z M45.838,191.556l2.084-0.34c2.637-0.431,3.984-2.005,3.648-4.053
				c-0.352-2.152-1.984-2.99-4.42-2.628c-1.285,0.21-1.998,0.434-2.367,0.565L45.838,191.556z"/>
			<path style="fill:#FFFFFF;" d="M75.611,189.897l-8.609,1.407l0.908,5.553l9.615-1.572l0.709,4.339l-14.926,2.44l-3.824-23.396
				l14.439-2.361l0.709,4.339l-9.129,1.493l0.795,4.86l8.609-1.407L75.611,189.897z"/>
			<path style="fill:#FFFFFF;" d="M86.314,192.138l-0.686,6.277l-5.484,0.896l3.326-24.564l6.941-1.135l11.08,22.21l-5.693,0.93
				l-2.785-5.709L86.314,192.138z M91.601,187.211l-2.268-4.725c-0.645-1.32-1.344-2.988-1.918-4.32l-0.07,0.012
				c-0.119,1.445-0.178,3.272-0.338,4.688l-0.576,5.191L91.601,187.211z"/>
			<path style="fill:#FFFFFF;" d="M100.793,171.916l5.311-0.868L109.201,190l9.305-1.521l0.727,4.443l-14.615,2.389L100.793,171.916
				z"/>
			<path style="fill:#FFFFFF;" d="M129.428,171.797l-6.281,1.027l-0.727-4.443l17.979-2.939l0.727,4.443l-6.387,1.044l3.1,18.952
				l-5.311,0.868L129.428,171.797z"/>
			<path style="fill:#FFFFFF;" d="M148.521,164.114l3.824,23.396l-5.309,0.868l-3.826-23.396L148.521,164.114z"/>
			<path style="fill:#FFFFFF;" d="M175.25,174.571c-0.562-2.794-1.223-6.18-1.779-9.581l-0.104,0.017
				c-0.242,3.104-0.668,6.595-1.123,9.485l-1.354,9.595l-4.131,0.675l-3.98-8.651c-1.211-2.616-2.555-5.819-3.609-8.783l-0.07,0.011
				c0.377,3.182,0.863,6.808,1.168,9.752l1.035,8.954l-4.895,0.8l-2.332-23.639l7.047-1.152l3.568,7.436
				c1.17,2.588,2.377,5.385,3.346,8.042l0.104-0.017c0.217-2.815,0.51-6.035,0.85-8.764l1.227-8.184l6.908-1.129l5.107,23.186
				l-5.17,0.845L175.25,174.571z"/>
			<path style="fill:#FFFFFF;" d="M198.597,169.793l-8.607,1.407l0.906,5.553l9.617-1.572l0.709,4.339l-14.926,2.44l-3.824-23.396
				l14.439-2.361l0.709,4.339l-9.129,1.493l0.793,4.86l8.609-1.407L198.597,169.793z"/>
			<path style="fill:#FFFFFF;" d="M208.072,154.702c1.893-0.632,4.398-1.22,7.07-1.656c4.443-0.727,7.455-0.397,9.988,0.934
				c2.725,1.408,4.723,4.04,5.398,8.17c0.732,4.478-0.393,7.834-2.338,10.112c-2.131,2.451-5.719,4.035-10.301,4.784
				c-2.742,0.448-4.715,0.592-6.062,0.634L208.072,154.702z M216.502,172.923c0.469,0.03,1.197-0.089,1.857-0.196
				c4.795-0.749,7.49-3.897,6.576-9.485c-0.76-4.866-4.025-6.969-8.572-6.226c-1.182,0.193-1.928,0.422-2.363,0.6L216.502,172.923z"
				/>
			<path style="fill:#FFFFFF;" d="M248.306,161.667l-8.609,1.407l0.908,5.553l9.615-1.572l0.709,4.339l-14.926,2.44l-3.824-23.396
				l14.441-2.36l0.709,4.339l-9.131,1.492l0.795,4.86l8.609-1.407L248.306,161.667z"/>
			<path style="fill:#FFFFFF;" d="M271.617,167.336c-0.895,0.644-2.996,1.522-5.842,1.988c-8.088,1.322-13.074-3.03-14.164-9.695
				c-1.305-7.983,3.66-13.357,10.74-14.515c2.744-0.448,4.916-0.232,5.934,0.1l-0.391,4.376c-1.148-0.276-2.711-0.448-4.584-0.142
				c-4.199,0.687-7.049,3.753-6.197,8.961c0.766,4.686,4.025,7.182,8.744,6.41c1.598-0.261,3.312-0.897,4.285-1.484L271.617,167.336
				z"/>
			<path style="fill:#FFFFFF;" d="M276.681,143.164l3.824,23.396l-5.311,0.868l-3.824-23.396L276.681,143.164z"/>
			<path style="fill:#FFFFFF;" d="M284.371,160.333c1.543,0.496,3.85,0.867,6.105,0.498c2.43-0.397,3.547-1.612,3.299-3.14
				c-0.238-1.458-1.484-2.11-4.461-2.656c-4.109-0.719-6.994-2.457-7.551-5.859c-0.652-3.99,2.18-7.59,7.699-8.493
				c2.639-0.431,4.672-0.192,6.164,0.205l-0.482,4.462c-1.012-0.298-2.785-0.686-5.076-0.311s-3.232,1.598-3.033,2.813
				c0.244,1.492,1.67,1.936,4.877,2.588c4.381,0.851,6.678,2.686,7.217,5.983c0.641,3.923-1.836,7.748-8.256,8.797
				c-2.674,0.437-5.426,0.175-6.863-0.338L284.371,160.333z"/>
			<path style="fill:#FFFFFF;" d="M305.318,138.483l3.824,23.396l-5.311,0.868l-3.824-23.396L305.318,138.483z"/>
			<path style="fill:#FFFFFF;" d="M333.191,145.688c1.254,7.671-2.637,13.083-9.475,14.201c-6.943,1.135-11.861-3.442-12.951-10.106
				c-1.146-7.012,2.477-12.986,9.383-14.115C327.334,134.492,332.137,139.231,333.191,145.688z M316.338,148.764
				c0.748,4.582,3.428,7.458,6.969,6.879c3.576-0.584,5.068-4.321,4.324-8.868c-0.688-4.2-3.291-7.481-6.934-6.886
				C317.121,140.474,315.594,144.217,316.338,148.764z"/>
			<path style="fill:#FFFFFF;" d="M338.615,157.061l-3.824-23.396l6.18-1.01l6.26,7.78c1.793,2.236,3.656,4.926,5.129,7.394
				l0.104-0.017c-0.852-3.032-1.473-6.175-2.045-9.68l-1.117-6.839l4.859-0.794l3.824,23.396l-5.555,0.908l-6.473-8.208
				c-1.797-2.272-3.818-5.043-5.412-7.598l-0.1,0.052c0.645,3.067,1.254,6.353,1.879,10.171l1.15,7.046L338.615,157.061z"/>
		</g>
		<g>
			<path style="fill:#FFFFFF;" d="M118.141,301.892c0.847-0.144,2.034-0.252,3.709-0.252c1.692,0,2.899,0.324,3.709,0.973
				c0.774,0.611,1.296,1.62,1.296,2.809s-0.396,2.196-1.115,2.881c-0.937,0.882-2.323,1.278-3.943,1.278
				c-0.36,0-0.685-0.019-0.937-0.054v4.339h-2.719V301.892z M120.86,307.402c0.233,0.054,0.522,0.072,0.918,0.072
				c1.458,0,2.358-0.738,2.358-1.98c0-1.117-0.773-1.783-2.143-1.783c-0.558,0-0.936,0.055-1.134,0.108V307.402z"/>
			<path style="fill:#FFFFFF;" d="M128.599,301.73h2.755v9.831h4.825v2.305h-7.58V301.73z"/>
			<path style="fill:#FFFFFF;" d="M140.732,310.75l-0.865,3.115h-2.844l3.709-12.136h3.601l3.763,12.136h-2.952l-0.937-3.115
				H140.732z M143.81,308.698l-0.756-2.574c-0.216-0.721-0.432-1.62-0.612-2.341h-0.036c-0.18,0.721-0.359,1.639-0.559,2.341
				l-0.72,2.574H143.81z"/>
			<path style="fill:#FFFFFF;" d="M150.559,304.035h-3.259v-2.305h9.326v2.305h-3.312v9.831h-2.755V304.035z"/>
			<path style="fill:#FFFFFF;" d="M159.613,310.75l-0.863,3.115h-2.846l3.709-12.136h3.602l3.764,12.136h-2.953l-0.937-3.115
				H159.613z M162.693,308.698l-0.757-2.574c-0.216-0.721-0.433-1.62-0.612-2.341h-0.036c-0.18,0.721-0.36,1.639-0.558,2.341
				l-0.721,2.574H162.693z"/>
			<path style="fill:#FFFFFF;" d="M168.595,301.73h7.418v2.251h-4.663v2.772h4.357v2.232h-4.357v4.88h-2.755V301.73z"/>
			<path style="fill:#FFFFFF;" d="M189.189,307.671c0,3.979-2.412,6.393-5.959,6.393c-3.602,0-5.708-2.719-5.708-6.176
				c0-3.638,2.322-6.356,5.905-6.356C187.155,301.532,189.189,304.323,189.189,307.671z M180.421,307.833
				c0,2.377,1.116,4.052,2.953,4.052c1.854,0,2.917-1.765,2.917-4.123c0-2.179-1.045-4.052-2.936-4.052
				C181.502,303.71,180.421,305.475,180.421,307.833z"/>
			<path style="fill:#FFFFFF;" d="M190.986,301.892c0.883-0.144,2.196-0.252,3.654-0.252c1.801,0,3.062,0.27,3.926,0.954
				c0.721,0.576,1.116,1.423,1.116,2.539c0,1.548-1.099,2.61-2.143,2.988v0.055c0.847,0.342,1.314,1.152,1.62,2.269
				c0.379,1.368,0.757,2.953,0.99,3.421h-2.809c-0.197-0.342-0.486-1.332-0.846-2.827c-0.324-1.512-0.847-1.926-1.963-1.944h-0.828
				v4.771h-2.719V301.892z M193.705,307.114h1.08c1.369,0,2.179-0.685,2.179-1.747c0-1.116-0.756-1.674-2.017-1.692
				c-0.666,0-1.044,0.055-1.242,0.091V307.114z"/>
			<path style="fill:#FFFFFF;" d="M211.923,309.22c-0.054-1.458-0.108-3.223-0.108-4.987h-0.053
				c-0.379,1.549-0.883,3.277-1.352,4.699l-1.477,4.735h-2.143l-1.296-4.699c-0.396-1.423-0.81-3.151-1.099-4.735h-0.035
				c-0.072,1.639-0.127,3.511-0.217,5.023l-0.216,4.609h-2.538l0.773-12.136h3.655l1.188,4.052c0.378,1.404,0.756,2.916,1.026,4.339
				h0.054c0.342-1.404,0.756-3.007,1.152-4.357l1.297-4.033h3.582l0.667,12.136h-2.683L211.923,309.22z"/>
			<path style="fill:#FFFFFF;" d="M219.66,310.75l-0.863,3.115h-2.846l3.709-12.136h3.602l3.764,12.136h-2.953l-0.937-3.115H219.66z
				 M222.74,308.698l-0.757-2.574c-0.216-0.721-0.433-1.62-0.612-2.341h-0.036c-0.18,0.721-0.36,1.639-0.558,2.341l-0.721,2.574
				H222.74z"/>
			<path style="fill:#FFFFFF;" d="M242.648,315.955c-1.729-0.504-3.169-1.026-4.789-1.711c-0.271-0.107-0.559-0.162-0.847-0.18
				c-2.737-0.181-5.294-2.197-5.294-6.158c0-3.637,2.305-6.374,5.924-6.374c3.709,0,5.744,2.81,5.744,6.122
				c0,2.755-1.278,4.699-2.881,5.42v0.072c0.936,0.27,1.98,0.485,2.935,0.684L242.648,315.955z M240.488,307.762
				c0-2.215-1.045-4.052-2.918-4.052c-1.872,0-2.952,1.837-2.952,4.105c-0.019,2.305,1.099,4.069,2.935,4.069
				C239.407,311.885,240.488,310.138,240.488,307.762z"/>
			<path style="fill:#FFFFFF;" d="M247.92,301.73v6.986c0,2.089,0.793,3.15,2.197,3.15c1.44,0,2.232-1.008,2.232-3.15v-6.986h2.736
				v6.807c0,3.744-1.891,5.527-5.059,5.527c-3.062,0-4.861-1.692-4.861-5.563v-6.771H247.92z"/>
			<path style="fill:#FFFFFF;" d="M264.68,308.734h-4.466v2.881h4.987v2.251h-7.742V301.73h7.49v2.251h-4.735v2.521h4.466V308.734z"
				/>
			<path style="fill:#FFFFFF;" d="M272.904,313.866l-3.89-12.136h3.007l1.477,5.132c0.414,1.44,0.792,2.827,1.08,4.339h0.055
				c0.306-1.458,0.684-2.898,1.098-4.285l1.549-5.186h2.916l-4.086,12.136H272.904z"/>
			<path style="fill:#FFFFFF;" d="M283.344,310.75l-0.864,3.115h-2.845l3.709-12.136h3.602l3.763,12.136h-2.953l-0.937-3.115
				H283.344z M286.423,308.698l-0.757-2.574c-0.216-0.721-0.432-1.62-0.611-2.341h-0.036c-0.181,0.721-0.36,1.639-0.559,2.341
				l-0.72,2.574H286.423z"/>
			<path style="fill:#FFFFFF;" d="M295.08,301.73v12.136h-2.756V301.73H295.08z"/>
			<path style="fill:#FFFFFF;" d="M301.09,301.892c0.847-0.144,2.035-0.252,3.709-0.252c1.693,0,2.899,0.324,3.709,0.973
				c0.775,0.611,1.297,1.62,1.297,2.809s-0.396,2.196-1.116,2.881c-0.937,0.882-2.323,1.278-3.943,1.278
				c-0.36,0-0.685-0.019-0.937-0.054v4.339h-2.719V301.892z M303.808,307.402c0.234,0.054,0.522,0.072,0.919,0.072
				c1.458,0,2.358-0.738,2.358-1.98c0-1.117-0.774-1.783-2.143-1.783c-0.559,0-0.937,0.055-1.135,0.108V307.402z"/>
			<path style="fill:#FFFFFF;" d="M318.768,308.734h-4.466v2.881h4.988v2.251h-7.742V301.73h7.49v2.251h-4.736v2.521h4.466V308.734z
				"/>
			<path style="fill:#FFFFFF;" d="M321.16,301.892c0.883-0.144,2.196-0.252,3.654-0.252c1.801,0,3.062,0.27,3.926,0.954
				c0.721,0.576,1.116,1.423,1.116,2.539c0,1.548-1.099,2.61-2.143,2.988v0.055c0.847,0.342,1.314,1.152,1.62,2.269
				c0.379,1.368,0.757,2.953,0.99,3.421h-2.809c-0.197-0.342-0.486-1.332-0.846-2.827c-0.324-1.512-0.847-1.926-1.963-1.944h-0.828
				v4.771h-2.719V301.892z M323.879,307.114h1.08c1.369,0,2.179-0.685,2.179-1.747c0-1.116-0.756-1.674-2.017-1.692
				c-0.666,0-1.044,0.055-1.242,0.091V307.114z"/>
			<path style="fill:#FFFFFF;" d="M342.096,309.22c-0.054-1.458-0.108-3.223-0.108-4.987h-0.053
				c-0.379,1.549-0.883,3.277-1.352,4.699l-1.477,4.735h-2.143l-1.296-4.699c-0.396-1.423-0.81-3.151-1.099-4.735h-0.035
				c-0.072,1.639-0.127,3.511-0.217,5.023l-0.216,4.609h-2.538l0.773-12.136h3.655l1.188,4.052c0.378,1.404,0.756,2.916,1.026,4.339
				h0.054c0.342-1.404,0.756-3.007,1.152-4.357l1.297-4.033h3.582l0.667,12.136h-2.683L342.096,309.22z"/>
			<path style="fill:#FFFFFF;" d="M349.816,301.73v12.136h-2.754V301.73H349.816z"/>
			<path style="fill:#FFFFFF;" d="M354.532,304.035h-3.259v-2.305h9.326v2.305h-3.312v9.831h-2.755V304.035z"/>
			<path style="fill:#FFFFFF;" d="M364.81,301.73v12.136h-2.755V301.73H364.81z"/>
			<path style="fill:#FFFFFF;" d="M367.185,301.892c0.883-0.144,2.196-0.252,3.654-0.252c1.801,0,3.062,0.27,3.926,0.954
				c0.721,0.576,1.116,1.423,1.116,2.539c0,1.548-1.099,2.61-2.143,2.988v0.055c0.847,0.342,1.314,1.152,1.62,2.269
				c0.379,1.368,0.757,2.953,0.99,3.421h-2.809c-0.197-0.342-0.486-1.332-0.846-2.827c-0.324-1.512-0.847-1.926-1.963-1.944h-0.828
				v4.771h-2.719V301.892z M369.904,307.114h1.08c1.369,0,2.179-0.685,2.179-1.747c0-1.116-0.756-1.674-2.017-1.692
				c-0.666,0-1.044,0.055-1.242,0.091V307.114z"/>
			<path style="fill:#FFFFFF;" d="M384.322,310.75l-0.865,3.115h-2.844l3.709-12.136h3.601l3.763,12.136h-2.952l-0.937-3.115
				H384.322z M387.4,308.698l-0.756-2.574c-0.216-0.721-0.432-1.62-0.612-2.341h-0.036c-0.18,0.721-0.359,1.639-0.559,2.341
				l-0.72,2.574H387.4z"/>
			<path style="fill:#FFFFFF;" d="M393.303,301.892c0.721-0.144,2.179-0.252,3.547-0.252c1.675,0,2.701,0.162,3.583,0.685
				c0.847,0.45,1.458,1.278,1.458,2.376c0,1.081-0.63,2.089-1.998,2.593v0.036c1.387,0.378,2.412,1.423,2.412,2.989
				c0,1.099-0.504,1.962-1.26,2.574c-0.883,0.702-2.359,1.099-4.771,1.099c-1.351,0-2.358-0.09-2.971-0.18V301.892z
				 M396.021,306.538h0.9c1.44,0,2.215-0.595,2.215-1.494c0-0.919-0.703-1.405-1.945-1.405c-0.594,0-0.936,0.036-1.17,0.072V306.538
				z M396.021,311.921c0.27,0.036,0.594,0.036,1.062,0.036c1.242,0,2.34-0.469,2.34-1.747c0-1.225-1.098-1.71-2.467-1.71h-0.936
				V311.921z"/>
			<path style="fill:#FFFFFF;" d="M415.283,307.671c0,3.979-2.412,6.393-5.959,6.393c-3.602,0-5.708-2.719-5.708-6.176
				c0-3.638,2.322-6.356,5.905-6.356C413.249,301.532,415.283,304.323,415.283,307.671z M406.514,307.833
				c0,2.377,1.116,4.052,2.953,4.052c1.854,0,2.917-1.765,2.917-4.123c0-2.179-1.045-4.052-2.936-4.052
				C407.596,303.71,406.514,305.475,406.514,307.833z"/>
			<path style="fill:#FFFFFF;" d="M417.08,301.892c0.883-0.144,2.196-0.252,3.654-0.252c1.801,0,3.062,0.27,3.926,0.954
				c0.721,0.576,1.116,1.423,1.116,2.539c0,1.548-1.099,2.61-2.143,2.988v0.055c0.847,0.342,1.314,1.152,1.62,2.269
				c0.379,1.368,0.757,2.953,0.99,3.421h-2.809c-0.197-0.342-0.486-1.332-0.846-2.827c-0.324-1.512-0.847-1.926-1.963-1.944h-0.828
				v4.771h-2.719V301.892z M419.799,307.114h1.08c1.369,0,2.179-0.685,2.179-1.747c0-1.116-0.756-1.674-2.017-1.692
				c-0.666,0-1.044,0.055-1.242,0.091V307.114z"/>
			<path style="fill:#FFFFFF;" d="M427.754,301.892c1.008-0.162,2.322-0.252,3.709-0.252c2.305,0,3.799,0.414,4.97,1.296
				c1.261,0.937,2.052,2.431,2.052,4.574c0,2.322-0.846,3.925-2.016,4.915c-1.279,1.062-3.223,1.566-5.6,1.566
				c-1.423,0-2.432-0.09-3.115-0.18V301.892z M430.509,311.795c0.233,0.054,0.612,0.054,0.954,0.054
				c2.484,0.018,4.105-1.351,4.105-4.249c0.018-2.521-1.459-3.854-3.817-3.854c-0.612,0-1.009,0.054-1.242,0.108V311.795z"/>
			<path style="fill:#FFFFFF;" d="M442.82,310.75l-0.864,3.115h-2.845l3.709-12.136h3.602l3.763,12.136h-2.953l-0.937-3.115H442.82z
				 M445.899,308.698l-0.757-2.574c-0.216-0.721-0.432-1.62-0.611-2.341h-0.036c-0.181,0.721-0.36,1.639-0.559,2.341l-0.72,2.574
				H445.899z"/>
			<path style="fill:#FFFFFF;" d="M451.801,301.892c0.883-0.144,2.197-0.252,3.655-0.252c1.801,0,3.062,0.27,3.925,0.954
				c0.721,0.576,1.117,1.423,1.117,2.539c0,1.548-1.099,2.61-2.143,2.988v0.055c0.846,0.342,1.314,1.152,1.62,2.269
				c0.378,1.368,0.756,2.953,0.99,3.421h-2.809c-0.198-0.342-0.486-1.332-0.847-2.827c-0.324-1.512-0.846-1.926-1.963-1.944h-0.828
				v4.771h-2.719V301.892z M454.519,307.114h1.08c1.369,0,2.18-0.685,2.18-1.747c0-1.116-0.757-1.674-2.018-1.692
				c-0.666,0-1.044,0.055-1.242,0.091V307.114z"/>
			<path style="fill:#FFFFFF;" d="M477.22,307.671c0,3.979-2.413,6.393-5.96,6.393c-3.602,0-5.708-2.719-5.708-6.176
				c0-3.638,2.323-6.356,5.906-6.356C475.184,301.532,477.22,304.323,477.22,307.671z M468.451,307.833
				c0,2.377,1.116,4.052,2.953,4.052c1.854,0,2.916-1.765,2.916-4.123c0-2.179-1.044-4.052-2.935-4.052
				C469.531,303.71,468.451,305.475,468.451,307.833z"/>
			<path style="fill:#FFFFFF;" d="M127.055,335.124c-0.505,0.252-1.639,0.521-3.115,0.521c-4.195,0-6.355-2.61-6.355-6.067
				c0-4.142,2.952-6.446,6.625-6.446c1.423,0,2.503,0.288,2.989,0.54l-0.558,2.179c-0.559-0.233-1.333-0.45-2.305-0.45
				c-2.18,0-3.871,1.314-3.871,4.016c0,2.431,1.439,3.961,3.889,3.961c0.828,0,1.746-0.18,2.287-0.396L127.055,335.124z"/>
			<path style="fill:#FFFFFF;" d="M128.851,323.33h2.755v9.831h4.825v2.305h-7.58V323.33z"/>
			<path style="fill:#FFFFFF;" d="M140.805,323.33v12.136h-2.756V323.33H140.805z"/>
			<path style="fill:#FFFFFF;" d="M150.399,330.333h-4.466v2.881h4.988v2.251h-7.742V323.33h7.49v2.251h-4.736v2.521h4.466V330.333z
				"/>
			<path style="fill:#FFFFFF;" d="M152.791,335.465V323.33h3.205l2.521,4.447c0.72,1.278,1.44,2.791,1.98,4.159h0.054
				c-0.18-1.603-0.233-3.241-0.233-5.06v-3.547h2.521v12.136h-2.881l-2.593-4.682c-0.72-1.296-1.513-2.862-2.106-4.285l-0.055,0.019
				c0.072,1.602,0.108,3.312,0.108,5.293v3.655H152.791z"/>
			<path style="fill:#FFFFFF;" d="M167.552,325.634h-3.259v-2.305h9.326v2.305h-3.312v9.831h-2.755V325.634z"/>
			<path style="fill:#FFFFFF;" d="M182.295,330.333h-4.465v2.881h4.986v2.251h-7.742V323.33h7.49v2.251h-4.734v2.521h4.465V330.333z
				"/>
			<path style="fill:#FFFFFF;" d="M197.234,335.124c-0.504,0.252-1.639,0.521-3.114,0.521c-4.195,0-6.356-2.61-6.356-6.067
				c0-4.142,2.953-6.446,6.627-6.446c1.422,0,2.502,0.288,2.988,0.54l-0.559,2.179c-0.558-0.233-1.332-0.45-2.305-0.45
				c-2.178,0-3.871,1.314-3.871,4.016c0,2.431,1.441,3.961,3.89,3.961c0.828,0,1.746-0.18,2.286-0.396L197.234,335.124z"/>
			<path style="fill:#FFFFFF;" d="M209.601,329.271c0,3.979-2.413,6.393-5.96,6.393c-3.601,0-5.708-2.719-5.708-6.176
				c0-3.638,2.323-6.356,5.906-6.356C207.566,323.131,209.601,325.922,209.601,329.271z M200.833,329.433
				c0,2.377,1.116,4.052,2.952,4.052c1.855,0,2.918-1.765,2.918-4.123c0-2.179-1.045-4.052-2.936-4.052
				C201.913,325.31,200.833,327.075,200.833,329.433z"/>
			<path style="fill:#FFFFFF;" d="M221.661,330.82c-0.054-1.458-0.108-3.223-0.108-4.987h-0.054
				c-0.378,1.549-0.882,3.277-1.351,4.699l-1.477,4.735h-2.143l-1.297-4.699c-0.396-1.423-0.81-3.151-1.098-4.735h-0.036
				c-0.072,1.639-0.126,3.511-0.216,5.023l-0.217,4.609h-2.538l0.774-12.136h3.654l1.189,4.052c0.377,1.404,0.756,2.916,1.025,4.339
				h0.055c0.342-1.404,0.756-3.007,1.152-4.357l1.296-4.033h3.583l0.666,12.136h-2.683L221.661,330.82z"/>
			<path style="fill:#FFFFFF;" d="M241.371,329.271c0,3.979-2.413,6.393-5.96,6.393c-3.601,0-5.708-2.719-5.708-6.176
				c0-3.638,2.323-6.356,5.906-6.356C239.336,323.131,241.371,325.922,241.371,329.271z M232.602,329.433
				c0,2.377,1.116,4.052,2.952,4.052c1.855,0,2.918-1.765,2.918-4.123c0-2.179-1.045-4.052-2.936-4.052
				C233.682,325.31,232.602,327.075,232.602,329.433z"/>
			<path style="fill:#FFFFFF;" d="M243.168,323.33h7.418v2.251h-4.664v2.772h4.357v2.232h-4.357v4.88h-2.754V323.33z"/>
			<path style="fill:#FFFFFF;" d="M259.873,330.333h-4.465v2.881h4.987v2.251h-7.742V323.33h7.49v2.251h-4.735v2.521h4.465V330.333z
				"/>
			<path style="fill:#FFFFFF;" d="M262.265,323.492c0.882-0.144,2.196-0.252,3.654-0.252c1.801,0,3.061,0.27,3.926,0.954
				c0.72,0.576,1.115,1.423,1.115,2.539c0,1.548-1.098,2.61-2.143,2.988v0.055c0.847,0.342,1.314,1.152,1.621,2.269
				c0.378,1.368,0.756,2.953,0.99,3.421h-2.809c-0.198-0.342-0.486-1.332-0.847-2.827c-0.323-1.512-0.847-1.926-1.962-1.944h-0.828
				v4.771h-2.719V323.492z M264.984,328.713h1.08c1.368,0,2.178-0.685,2.178-1.747c0-1.116-0.756-1.674-2.016-1.692
				c-0.666,0-1.045,0.055-1.242,0.091V328.713z"/>
			<path style="fill:#FFFFFF;" d="M275.279,325.634h-3.259v-2.305h9.327v2.305h-3.313v9.831h-2.755V325.634z"/>
			<path style="fill:#FFFFFF;" d="M284.334,332.35l-0.865,3.115h-2.844l3.709-12.136h3.601l3.763,12.136h-2.952l-0.937-3.115
				H284.334z M287.412,330.297l-0.756-2.574c-0.216-0.721-0.432-1.62-0.612-2.341h-0.036c-0.18,0.721-0.359,1.639-0.559,2.341
				l-0.72,2.574H287.412z"/>
			<path style="fill:#FFFFFF;" d="M293.404,332.638c0.738,0.379,1.873,0.757,3.043,0.757c1.26,0,1.927-0.522,1.927-1.314
				c0-0.757-0.576-1.188-2.034-1.711c-2.018-0.702-3.332-1.818-3.332-3.583c0-2.07,1.729-3.655,4.592-3.655
				c1.368,0,2.377,0.288,3.097,0.612l-0.612,2.215c-0.486-0.234-1.35-0.576-2.539-0.576c-1.188,0-1.764,0.54-1.764,1.17
				c0,0.774,0.684,1.117,2.25,1.711c2.143,0.792,3.151,1.908,3.151,3.619c0,2.034-1.566,3.763-4.897,3.763
				c-1.387,0-2.755-0.359-3.439-0.738L293.404,332.638z"/>
			<path style="fill:#FFFFFF;" d="M313.89,330.333h-4.466v2.881h4.987v2.251h-7.742V323.33h7.49v2.251h-4.735v2.521h4.466V330.333z"
				/>
			<path style="fill:#FFFFFF;" d="M322.744,332.35l-0.864,3.115h-2.845l3.709-12.136h3.602l3.763,12.136h-2.953l-0.937-3.115
				H322.744z M325.823,330.297l-0.757-2.574c-0.216-0.721-0.432-1.62-0.611-2.341h-0.036c-0.181,0.721-0.36,1.639-0.559,2.341
				l-0.72,2.574H325.823z"/>
			<path style="fill:#FFFFFF;" d="M340.187,335.124c-0.486,0.233-1.53,0.504-2.898,0.521l-0.307,0.612
				c0.703,0.162,1.314,0.631,1.314,1.477c0,1.242-1.115,1.656-2.143,1.656c-0.539,0-1.134-0.107-1.548-0.342l0.36-1.116
				c0.27,0.144,0.684,0.252,1.008,0.252c0.36,0,0.648-0.126,0.648-0.432c0-0.379-0.414-0.576-1.423-0.685l0.685-1.494
				c-3.421-0.45-5.168-2.881-5.168-5.996c0-4.142,2.953-6.446,6.627-6.446c1.422,0,2.502,0.288,2.988,0.54l-0.559,2.179
				c-0.558-0.233-1.332-0.45-2.305-0.45c-2.178,0-3.871,1.314-3.871,4.016c0,2.431,1.441,3.961,3.89,3.961
				c0.828,0,1.746-0.18,2.286-0.396L340.187,335.124z"/>
			<path style="fill:#FFFFFF;" d="M352.555,329.271c0,3.979-2.413,6.393-5.96,6.393c-3.601,0-5.708-2.719-5.708-6.176
				c0-3.638,2.323-6.356,5.906-6.356C350.519,323.131,352.555,325.922,352.555,329.271z M343.786,329.433
				c0,2.377,1.116,4.052,2.952,4.052c1.855,0,2.918-1.765,2.918-4.123c0-2.179-1.045-4.052-2.936-4.052
				C344.866,325.31,343.786,327.075,343.786,329.433z M344.2,322.61c-0.054-1.531,0.522-2.305,1.386-2.305
				c0.486,0,0.811,0.18,1.152,0.359c0.289,0.181,0.559,0.343,0.793,0.343c0.288,0,0.414-0.162,0.486-0.757h1.225
				c0.053,1.603-0.469,2.233-1.423,2.233c-0.486,0-0.847-0.162-1.171-0.324c-0.306-0.181-0.521-0.324-0.756-0.324
				s-0.396,0.252-0.432,0.774H344.2z"/>
			<path style="fill:#FFFFFF;" d="M361.571,330.333h-4.466v2.881h4.988v2.251h-7.742V323.33h7.49v2.251h-4.736v2.521h4.466V330.333z
				"/>
			<path style="fill:#FFFFFF;" d="M364.053,332.638c0.738,0.379,1.873,0.757,3.043,0.757c1.26,0,1.927-0.522,1.927-1.314
				c0-0.757-0.576-1.188-2.034-1.711c-2.018-0.702-3.332-1.818-3.332-3.583c0-2.07,1.729-3.655,4.592-3.655
				c1.368,0,2.377,0.288,3.097,0.612l-0.612,2.215c-0.486-0.234-1.35-0.576-2.539-0.576c-1.188,0-1.764,0.54-1.764,1.17
				c0,0.774,0.684,1.117,2.25,1.711c2.143,0.792,3.151,1.908,3.151,3.619c0,2.034-1.566,3.763-4.897,3.763
				c-1.387,0-2.755-0.359-3.439-0.738L364.053,332.638z"/>
			<path style="fill:#FFFFFF;" d="M377.318,323.492c1.008-0.162,2.322-0.252,3.709-0.252c2.305,0,3.799,0.414,4.97,1.296
				c1.261,0.937,2.052,2.431,2.052,4.574c0,2.322-0.846,3.925-2.016,4.915c-1.279,1.062-3.223,1.566-5.6,1.566
				c-1.423,0-2.432-0.09-3.115-0.18V323.492z M380.073,333.395c0.233,0.054,0.612,0.054,0.954,0.054
				c2.484,0.018,4.105-1.351,4.105-4.249c0.018-2.521-1.459-3.854-3.817-3.854c-0.612,0-1.009,0.054-1.242,0.108V333.395z"/>
			<path style="fill:#FFFFFF;" d="M397.066,330.333h-4.465v2.881h4.986v2.251h-7.742V323.33h7.49v2.251h-4.734v2.521h4.465V330.333z
				"/>
			<path style="fill:#FFFFFF;" d="M405.848,323.33v12.136h-2.755V323.33H405.848z"/>
			<path style="fill:#FFFFFF;" d="M408.223,335.465V323.33h3.205l2.521,4.447c0.721,1.278,1.44,2.791,1.98,4.159h0.055
				c-0.181-1.603-0.234-3.241-0.234-5.06v-3.547h2.521v12.136h-2.881l-2.593-4.682c-0.721-1.296-1.513-2.862-2.106-4.285
				l-0.054,0.019c0.071,1.602,0.107,3.312,0.107,5.293v3.655H408.223z"/>
			<path style="fill:#FFFFFF;" d="M429.556,335.124c-0.505,0.252-1.639,0.521-3.115,0.521c-4.195,0-6.355-2.61-6.355-6.067
				c0-4.142,2.952-6.446,6.625-6.446c1.423,0,2.503,0.288,2.989,0.54l-0.558,2.179c-0.559-0.233-1.333-0.45-2.305-0.45
				c-2.18,0-3.871,1.314-3.871,4.016c0,2.431,1.439,3.961,3.889,3.961c0.828,0,1.746-0.18,2.287-0.396L429.556,335.124z"/>
			<path style="fill:#FFFFFF;" d="M438.574,330.333h-4.466v2.881h4.987v2.251h-7.742V323.33h7.49v2.251h-4.735v2.521h4.466V330.333z
				"/>
			<path style="fill:#FFFFFF;" d="M440.965,335.465V323.33h3.205l2.521,4.447c0.72,1.278,1.439,2.791,1.98,4.159h0.054
				c-0.181-1.603-0.234-3.241-0.234-5.06v-3.547h2.521v12.136h-2.881l-2.592-4.682c-0.721-1.296-1.513-2.862-2.107-4.285
				l-0.054,0.019c0.072,1.602,0.108,3.312,0.108,5.293v3.655H440.965z"/>
			<path style="fill:#FFFFFF;" d="M455.725,325.634h-3.259v-2.305h9.327v2.305h-3.313v9.831h-2.755V325.634z"/>
			<path style="fill:#FFFFFF;" d="M466.004,323.33v12.136h-2.755V323.33H466.004z"/>
			<path style="fill:#FFFFFF;" d="M472.449,328.479v1.818h-4.718v-1.818H472.449z"/>
			<path style="fill:#FFFFFF;" d="M121.004,357.065l-3.889-12.136h3.007l1.477,5.132c0.414,1.44,0.792,2.827,1.08,4.339h0.054
				c0.307-1.458,0.685-2.898,1.099-4.285l1.549-5.186h2.917l-4.088,12.136H121.004z"/>
			<path style="fill:#FFFFFF;" d="M140.555,350.871c0,3.979-2.413,6.393-5.96,6.393c-3.601,0-5.708-2.719-5.708-6.176
				c0-3.638,2.323-6.356,5.906-6.356C138.519,344.731,140.555,347.522,140.555,350.871z M131.786,351.033
				c0,2.377,1.116,4.052,2.952,4.052c1.855,0,2.918-1.765,2.918-4.123c0-2.179-1.045-4.052-2.936-4.052
				C132.866,346.91,131.786,348.674,131.786,351.033z"/>
			<path style="fill:#FFFFFF;" d="M148.813,353.95l-0.864,3.115h-2.845l3.709-12.136h3.601l3.764,12.136h-2.953l-0.936-3.115
				H148.813z M151.892,351.897l-0.756-2.574c-0.217-0.721-0.433-1.62-0.613-2.341h-0.035c-0.18,0.721-0.36,1.639-0.559,2.341
				l-0.721,2.574H151.892z"/>
			<path style="fill:#FFFFFF;" d="M157.795,345.091c1.008-0.162,2.322-0.252,3.709-0.252c2.305,0,3.799,0.414,4.969,1.296
				c1.261,0.937,2.053,2.431,2.053,4.574c0,2.322-0.846,3.925-2.017,4.915c-1.278,1.062-3.223,1.566-5.6,1.566
				c-1.423,0-2.431-0.09-3.114-0.18V345.091z M160.549,354.995c0.234,0.054,0.612,0.054,0.955,0.054
				c2.484,0.018,4.104-1.351,4.104-4.249c0.019-2.521-1.458-3.854-3.817-3.854c-0.611,0-1.008,0.054-1.242,0.108V354.995z"/>
			<path style="fill:#FFFFFF;" d="M177.543,351.933h-4.466v2.881h4.987v2.251h-7.742v-12.136h7.49v2.251h-4.735v2.521h4.466V351.933
				z"/>
			<path style="fill:#FFFFFF;" d="M179.933,345.091c0.883-0.144,2.197-0.252,3.655-0.252c1.801,0,3.062,0.27,3.925,0.954
				c0.721,0.576,1.117,1.423,1.117,2.539c0,1.548-1.099,2.61-2.143,2.988v0.055c0.846,0.342,1.314,1.152,1.62,2.269
				c0.378,1.368,0.757,2.953,0.99,3.421h-2.809c-0.198-0.342-0.486-1.332-0.847-2.827c-0.324-1.512-0.846-1.926-1.963-1.944h-0.828
				v4.771h-2.719V345.091z M182.652,350.313h1.08c1.369,0,2.18-0.685,2.18-1.747c0-1.116-0.757-1.674-2.018-1.692
				c-0.666,0-1.044,0.055-1.242,0.091V350.313z"/>
			<path style="fill:#FFFFFF;" d="M197.828,351.933h-4.465v2.881h4.986v2.251h-7.742v-12.136h7.49v2.251h-4.734v2.521h4.465V351.933
				z"/>
			<path style="fill:#FFFFFF;" d="M200.22,357.065v-12.136h3.205l2.521,4.447c0.721,1.278,1.44,2.791,1.98,4.159h0.055
				c-0.181-1.603-0.234-3.241-0.234-5.06v-3.547h2.521v12.136h-2.881l-2.593-4.682c-0.721-1.296-1.513-2.862-2.106-4.285
				l-0.054,0.019c0.071,1.602,0.107,3.312,0.107,5.293v3.655H200.22z"/>
			<path style="fill:#FFFFFF;" d="M214.98,347.234h-3.26v-2.305h9.327v2.305h-3.313v9.831h-2.754V347.234z"/>
			<path style="fill:#FFFFFF;" d="M229.723,351.933h-4.466v2.881h4.988v2.251h-7.742v-12.136h7.49v2.251h-4.736v2.521h4.466V351.933
				z"/>
			<path style="fill:#FFFFFF;" d="M232.205,354.238c0.738,0.379,1.873,0.757,3.043,0.757c1.26,0,1.927-0.522,1.927-1.314
				c0-0.757-0.576-1.188-2.034-1.711c-2.018-0.702-3.332-1.818-3.332-3.583c0-2.07,1.729-3.655,4.592-3.655
				c1.368,0,2.377,0.288,3.097,0.612l-0.612,2.215c-0.486-0.234-1.35-0.576-2.539-0.576c-1.188,0-1.764,0.54-1.764,1.17
				c0,0.774,0.684,1.117,2.25,1.711c2.143,0.792,3.151,1.908,3.151,3.619c0,2.034-1.566,3.763-4.897,3.763
				c-1.387,0-2.755-0.359-3.439-0.738L232.205,354.238z"/>
			<path style="fill:#FFFFFF;" d="M248.297,353.95l-0.863,3.115h-2.846l3.709-12.136h3.602l3.764,12.136h-2.953l-0.937-3.115
				H248.297z M251.377,351.897l-0.757-2.574c-0.216-0.721-0.433-1.62-0.612-2.341h-0.036c-0.18,0.721-0.36,1.639-0.558,2.341
				l-0.721,2.574H251.377z"/>
			<path style="fill:#FFFFFF;" d="M257.368,354.238c0.738,0.379,1.872,0.757,3.043,0.757c1.261,0,1.927-0.522,1.927-1.314
				c0-0.757-0.576-1.188-2.035-1.711c-2.016-0.702-3.33-1.818-3.33-3.583c0-2.07,1.729-3.655,4.591-3.655
				c1.368,0,2.377,0.288,3.097,0.612l-0.611,2.215c-0.486-0.234-1.352-0.576-2.539-0.576c-1.188,0-1.765,0.54-1.765,1.17
				c0,0.774,0.685,1.117,2.251,1.711c2.143,0.792,3.15,1.908,3.15,3.619c0,2.034-1.566,3.763-4.897,3.763
				c-1.386,0-2.755-0.359-3.438-0.738L257.368,354.238z"/>
			<path style="fill:#FFFFFF;" d="M270.723,354.238c0.738,0.379,1.872,0.757,3.043,0.757c1.261,0,1.927-0.522,1.927-1.314
				c0-0.757-0.576-1.188-2.035-1.711c-2.016-0.702-3.33-1.818-3.33-3.583c0-2.07,1.729-3.655,4.591-3.655
				c1.368,0,2.377,0.288,3.097,0.612l-0.611,2.215c-0.486-0.234-1.352-0.576-2.539-0.576c-1.188,0-1.765,0.54-1.765,1.17
				c0,0.774,0.685,1.117,2.251,1.711c2.143,0.792,3.15,1.908,3.15,3.619c0,2.034-1.566,3.763-4.897,3.763
				c-1.386,0-2.755-0.359-3.438-0.738L270.723,354.238z"/>
			<path style="fill:#FFFFFF;" d="M283.09,344.929v6.986c0,2.089,0.793,3.15,2.197,3.15c1.44,0,2.232-1.008,2.232-3.15v-6.986h2.736
				v6.807c0,3.744-1.891,5.527-5.059,5.527c-3.062,0-4.861-1.692-4.861-5.563v-6.771H283.09z"/>
			<path style="fill:#FFFFFF;" d="M294.916,353.95l-0.864,3.115h-2.845l3.709-12.136h3.602l3.763,12.136h-2.953l-0.937-3.115
				H294.916z M297.995,351.897l-0.757-2.574c-0.216-0.721-0.432-1.62-0.611-2.341h-0.036c-0.181,0.721-0.36,1.639-0.559,2.341
				l-0.72,2.574H297.995z"/>
			<path style="fill:#FFFFFF;" d="M303.986,354.238c0.738,0.379,1.873,0.757,3.043,0.757c1.261,0,1.928-0.522,1.928-1.314
				c0-0.757-0.576-1.188-2.035-1.711c-2.017-0.702-3.331-1.818-3.331-3.583c0-2.07,1.729-3.655,4.591-3.655
				c1.369,0,2.377,0.288,3.098,0.612l-0.612,2.215c-0.486-0.234-1.351-0.576-2.539-0.576s-1.765,0.54-1.765,1.17
				c0,0.774,0.685,1.117,2.251,1.711c2.143,0.792,3.151,1.908,3.151,3.619c0,2.034-1.566,3.763-4.898,3.763
				c-1.386,0-2.754-0.359-3.438-0.738L303.986,354.238z"/>
			<path style="fill:#FFFFFF;" d="M317.252,357.065v-12.136h3.205l2.521,4.447c0.72,1.278,1.439,2.791,1.98,4.159h0.054
				c-0.181-1.603-0.234-3.241-0.234-5.06v-3.547h2.521v12.136h-2.881l-2.592-4.682c-0.721-1.296-1.513-2.862-2.107-4.285
				l-0.054,0.019c0.072,1.602,0.108,3.312,0.108,5.293v3.655H317.252z"/>
			<path style="fill:#FFFFFF;" d="M336.892,351.933h-4.465v2.881h4.986v2.251h-7.742v-12.136h7.49v2.251h-4.734v2.521h4.465V351.933
				z"/>
			<path style="fill:#FFFFFF;" d="M348.197,356.723c-0.505,0.252-1.639,0.521-3.115,0.521c-4.195,0-6.355-2.61-6.355-6.067
				c0-4.142,2.952-6.446,6.625-6.446c1.423,0,2.503,0.288,2.989,0.54l-0.558,2.179c-0.559-0.233-1.333-0.45-2.305-0.45
				c-2.18,0-3.871,1.314-3.871,4.016c0,2.431,1.439,3.961,3.889,3.961c0.828,0,1.746-0.18,2.287-0.396L348.197,356.723z"/>
			<path style="fill:#FFFFFF;" d="M357.215,351.933h-4.466v2.881h4.987v2.251h-7.742v-12.136h7.49v2.251h-4.735v2.521h4.466V351.933
				z"/>
			<path style="fill:#FFFFFF;" d="M359.695,354.238c0.738,0.379,1.873,0.757,3.043,0.757c1.261,0,1.928-0.522,1.928-1.314
				c0-0.757-0.576-1.188-2.035-1.711c-2.017-0.702-3.331-1.818-3.331-3.583c0-2.07,1.729-3.655,4.591-3.655
				c1.369,0,2.377,0.288,3.098,0.612l-0.612,2.215c-0.486-0.234-1.351-0.576-2.539-0.576s-1.765,0.54-1.765,1.17
				c0,0.774,0.685,1.117,2.251,1.711c2.143,0.792,3.151,1.908,3.151,3.619c0,2.034-1.566,3.763-4.898,3.763
				c-1.386,0-2.754-0.359-3.438-0.738L359.695,354.238z"/>
			<path style="fill:#FFFFFF;" d="M369.416,354.238c0.738,0.379,1.872,0.757,3.043,0.757c1.26,0,1.926-0.522,1.926-1.314
				c0-0.757-0.576-1.188-2.034-1.711c-2.017-0.702-3.331-1.818-3.331-3.583c0-2.07,1.729-3.655,4.592-3.655
				c1.368,0,2.376,0.288,3.097,0.612l-0.612,2.215c-0.486-0.234-1.351-0.576-2.539-0.576c-1.188,0-1.764,0.54-1.764,1.17
				c0,0.774,0.684,1.117,2.25,1.711c2.143,0.792,3.15,1.908,3.15,3.619c0,2.034-1.566,3.763-4.896,3.763
				c-1.387,0-2.756-0.359-3.439-0.738L369.416,354.238z"/>
			<path style="fill:#FFFFFF;" d="M381.801,344.929v12.136h-2.756v-12.136H381.801z"/>
			<path style="fill:#FFFFFF;" d="M384.176,345.091c1.008-0.162,2.322-0.252,3.709-0.252c2.305,0,3.799,0.414,4.969,1.296
				c1.261,0.937,2.053,2.431,2.053,4.574c0,2.322-0.846,3.925-2.017,4.915c-1.278,1.062-3.223,1.566-5.6,1.566
				c-1.423,0-2.431-0.09-3.114-0.18V345.091z M386.93,354.995c0.234,0.054,0.612,0.054,0.955,0.054
				c2.484,0.018,4.104-1.351,4.104-4.249c0.019-2.521-1.458-3.854-3.817-3.854c-0.611,0-1.008,0.054-1.242,0.108V354.995z"/>
			<path style="fill:#FFFFFF;" d="M399.242,353.95l-0.864,3.115h-2.845l3.709-12.136h3.602l3.763,12.136h-2.953l-0.937-3.115
				H399.242z M402.321,351.897l-0.757-2.574c-0.216-0.721-0.432-1.62-0.611-2.341h-0.036c-0.181,0.721-0.36,1.639-0.559,2.341
				l-0.72,2.574H402.321z"/>
			<path style="fill:#FFFFFF;" d="M408.222,345.091c1.009-0.162,2.323-0.252,3.709-0.252c2.305,0,3.8,0.414,4.97,1.296
				c1.261,0.937,2.053,2.431,2.053,4.574c0,2.322-0.847,3.925-2.017,4.915c-1.278,1.062-3.223,1.566-5.6,1.566
				c-1.422,0-2.431-0.09-3.115-0.18V345.091z M410.978,354.995c0.233,0.054,0.611,0.054,0.953,0.054
				c2.485,0.018,4.105-1.351,4.105-4.249c0.018-2.521-1.458-3.854-3.816-3.854c-0.613,0-1.009,0.054-1.242,0.108V354.995z"/>
			<path style="fill:#FFFFFF;" d="M427.971,351.933h-4.465v2.881h4.987v2.251h-7.742v-12.136h7.49v2.251h-4.735v2.521h4.465V351.933
				z"/>
			<path style="fill:#FFFFFF;" d="M430.453,354.238c0.738,0.379,1.872,0.757,3.043,0.757c1.26,0,1.926-0.522,1.926-1.314
				c0-0.757-0.576-1.188-2.034-1.711c-2.017-0.702-3.331-1.818-3.331-3.583c0-2.07,1.729-3.655,4.592-3.655
				c1.368,0,2.376,0.288,3.097,0.612l-0.612,2.215c-0.486-0.234-1.351-0.576-2.539-0.576c-1.188,0-1.764,0.54-1.764,1.17
				c0,0.774,0.684,1.117,2.25,1.711c2.143,0.792,3.15,1.908,3.15,3.619c0,2.034-1.566,3.763-4.896,3.763
				c-1.387,0-2.756-0.359-3.439-0.738L430.453,354.238z"/>
			<path style="fill:#FFFFFF;" d="M443.719,345.091c1.008-0.162,2.322-0.252,3.709-0.252c2.305,0,3.799,0.414,4.969,1.296
				c1.261,0.937,2.053,2.431,2.053,4.574c0,2.322-0.846,3.925-2.017,4.915c-1.278,1.062-3.223,1.566-5.6,1.566
				c-1.423,0-2.431-0.09-3.114-0.18V345.091z M446.472,354.995c0.234,0.054,0.612,0.054,0.955,0.054
				c2.484,0.018,4.104-1.351,4.104-4.249c0.019-2.521-1.458-3.854-3.817-3.854c-0.611,0-1.008,0.054-1.242,0.108V354.995z"/>
			<path style="fill:#FFFFFF;" d="M458.982,344.929v6.986c0,2.089,0.793,3.15,2.197,3.15c1.44,0,2.232-1.008,2.232-3.15v-6.986
				h2.736v6.807c0,3.744-1.89,5.527-5.059,5.527c-3.062,0-4.861-1.692-4.861-5.563v-6.771H458.982z"/>
			<path style="fill:#FFFFFF;" d="M472.591,350.079v1.818h-4.718v-1.818H472.591z"/>
			<path style="fill:#FFFFFF;" d="M118.141,366.692c0.882-0.144,2.196-0.252,3.655-0.252c1.801,0,3.061,0.271,3.925,0.954
				c0.72,0.576,1.116,1.423,1.116,2.539c0,1.548-1.098,2.61-2.143,2.988v0.055c0.846,0.342,1.314,1.152,1.621,2.269
				c0.377,1.368,0.756,2.953,0.99,3.421h-2.809c-0.199-0.342-0.486-1.332-0.847-2.827c-0.324-1.512-0.847-1.927-1.963-1.944h-0.828
				v4.771h-2.719V366.692z M120.86,371.914h1.08c1.368,0,2.179-0.685,2.179-1.746c0-1.117-0.756-1.675-2.017-1.693
				c-0.666,0-1.044,0.055-1.242,0.091V371.914z"/>
			<path style="fill:#FFFFFF;" d="M131.804,375.55l-0.864,3.115h-2.845l3.709-12.136h3.601l3.764,12.136h-2.953l-0.936-3.115
				H131.804z M134.883,373.498l-0.756-2.574c-0.217-0.721-0.433-1.621-0.613-2.341h-0.035c-0.18,0.72-0.36,1.639-0.559,2.341
				l-0.721,2.574H134.883z"/>
			<path style="fill:#FFFFFF;" d="M140.785,378.666V366.53h3.204l2.521,4.447c0.721,1.278,1.441,2.791,1.98,4.159h0.055
				c-0.18-1.603-0.234-3.24-0.234-5.06v-3.547h2.521v12.136h-2.881l-2.594-4.682c-0.72-1.296-1.512-2.862-2.105-4.285l-0.055,0.019
				c0.072,1.603,0.107,3.312,0.107,5.293v3.655H140.785z"/>
			<path style="fill:#FFFFFF;" d="M155.545,368.834h-3.259v-2.305h9.327v2.305H158.3v9.831h-2.755V368.834z"/>
			<path style="fill:#FFFFFF;" d="M170.289,373.534h-4.466v2.881h4.987v2.251h-7.742V366.53h7.49v2.251h-4.735v2.521h4.466V373.534z
				"/>
			<path style="fill:#FFFFFF;" d="M176.406,375.838c0.738,0.378,1.872,0.757,3.043,0.757c1.26,0,1.926-0.522,1.926-1.314
				c0-0.757-0.576-1.188-2.034-1.711c-2.017-0.702-3.331-1.818-3.331-3.583c0-2.07,1.729-3.655,4.592-3.655
				c1.368,0,2.376,0.288,3.097,0.612l-0.612,2.215c-0.486-0.234-1.351-0.576-2.539-0.576c-1.188,0-1.764,0.54-1.764,1.17
				c0,0.774,0.684,1.117,2.25,1.711c2.143,0.792,3.15,1.908,3.15,3.619c0,2.034-1.566,3.763-4.896,3.763
				c-1.387,0-2.756-0.359-3.439-0.738L176.406,375.838z"/>
			<path style="fill:#FFFFFF;" d="M193.256,373.534h-4.465v2.881h4.986v2.251h-7.742V366.53h7.49v2.251h-4.734v2.521h4.465V373.534z
				"/>
			<path style="fill:#FFFFFF;" d="M198.385,366.53v6.986c0,2.089,0.791,3.15,2.196,3.15c1.44,0,2.232-1.008,2.232-3.15v-6.986h2.737
				v6.806c0,3.746-1.891,5.528-5.061,5.528c-3.061,0-4.861-1.692-4.861-5.563v-6.771H198.385z"/>
			<path style="fill:#FFFFFF;" d="M220.471,378.324c-0.505,0.252-1.639,0.521-3.115,0.521c-4.194,0-6.355-2.61-6.355-6.067
				c0-4.142,2.952-6.446,6.626-6.446c1.422,0,2.502,0.288,2.988,0.54l-0.558,2.179c-0.558-0.233-1.333-0.45-2.305-0.45
				c-2.179,0-3.871,1.314-3.871,4.016c0,2.431,1.44,3.961,3.89,3.961c0.828,0,1.746-0.18,2.286-0.396L220.471,378.324z"/>
			<path style="fill:#FFFFFF;" d="M225.023,366.53v12.136h-2.754V366.53H225.023z"/>
			<path style="fill:#FFFFFF;" d="M236.311,378.324c-0.505,0.252-1.639,0.521-3.115,0.521c-4.194,0-6.355-2.61-6.355-6.067
				c0-4.142,2.952-6.446,6.626-6.446c1.422,0,2.502,0.288,2.988,0.54l-0.558,2.179c-0.558-0.233-1.333-0.45-2.305-0.45
				c-2.179,0-3.871,1.314-3.871,4.016c0,2.431,1.44,3.961,3.89,3.961c0.828,0,1.746-0.18,2.286-0.396L236.311,378.324z"/>
			<path style="fill:#FFFFFF;" d="M238.109,366.53h2.754v9.831h4.826v2.305h-7.58V366.53z"/>
			<path style="fill:#FFFFFF;" d="M257.732,372.472c0,3.979-2.413,6.392-5.96,6.392c-3.601,0-5.708-2.719-5.708-6.176
				c0-3.638,2.323-6.356,5.906-6.356C255.697,366.332,257.732,369.123,257.732,372.472z M248.964,372.633
				c0,2.377,1.116,4.052,2.952,4.052c1.855,0,2.918-1.765,2.918-4.123c0-2.179-1.045-4.052-2.936-4.052
				C250.044,368.51,248.964,370.275,248.964,372.633z"/>
			<path style="fill:#FFFFFF;" d="M263.164,366.692c1.009-0.162,2.323-0.252,3.709-0.252c2.305,0,3.8,0.414,4.97,1.296
				c1.261,0.937,2.053,2.432,2.053,4.574c0,2.322-0.847,3.925-2.017,4.915c-1.278,1.062-3.223,1.566-5.6,1.566
				c-1.422,0-2.431-0.09-3.115-0.18V366.692z M265.92,376.595c0.233,0.054,0.611,0.054,0.953,0.054
				c2.485,0.018,4.105-1.351,4.105-4.249c0.018-2.521-1.458-3.854-3.816-3.854c-0.613,0-1.009,0.054-1.242,0.108V376.595z"/>
			<path style="fill:#FFFFFF;" d="M282.912,373.534h-4.465v2.881h4.987v2.251h-7.742V366.53h7.49v2.251h-4.735v2.521h4.465V373.534z
				"/>
			<path style="fill:#FFFFFF;" d="M291.137,378.666l-3.889-12.136h3.006l1.477,5.132c0.414,1.44,0.793,2.826,1.08,4.339h0.055
				c0.307-1.458,0.684-2.898,1.098-4.285l1.549-5.186h2.917l-4.087,12.136H291.137z"/>
			<path style="fill:#FFFFFF;" d="M302.476,366.53v12.136h-2.755V366.53H302.476z"/>
			<path style="fill:#FFFFFF;" d="M304.851,366.692c1.008-0.162,2.322-0.252,3.709-0.252c2.305,0,3.799,0.414,4.97,1.296
				c1.261,0.937,2.052,2.432,2.052,4.574c0,2.322-0.846,3.925-2.016,4.915c-1.279,1.062-3.223,1.566-5.6,1.566
				c-1.423,0-2.432-0.09-3.115-0.18V366.692z M307.606,376.595c0.233,0.054,0.612,0.054,0.954,0.054
				c2.484,0.018,4.105-1.351,4.105-4.249c0.018-2.521-1.459-3.854-3.817-3.854c-0.612,0-1.009,0.054-1.242,0.108V376.595z"/>
			<path style="fill:#FFFFFF;" d="M319.918,375.55l-0.863,3.115h-2.846l3.709-12.136h3.602l3.764,12.136h-2.953l-0.937-3.115
				H319.918z M322.998,373.498l-0.757-2.574c-0.216-0.721-0.433-1.621-0.612-2.341h-0.036c-0.18,0.72-0.36,1.639-0.558,2.341
				l-0.721,2.574H322.998z"/>
			<path style="fill:#FFFFFF;" d="M341.447,378.324c-0.504,0.252-1.639,0.521-3.114,0.521c-4.195,0-6.356-2.61-6.356-6.067
				c0-4.142,2.953-6.446,6.627-6.446c1.422,0,2.502,0.288,2.988,0.54l-0.559,2.179c-0.558-0.233-1.332-0.45-2.305-0.45
				c-2.178,0-3.871,1.314-3.871,4.016c0,2.431,1.441,3.961,3.89,3.961c0.828,0,1.746-0.18,2.286-0.396L341.447,378.324z"/>
			<path style="fill:#FFFFFF;" d="M353.814,372.472c0,3.979-2.413,6.392-5.96,6.392c-3.601,0-5.708-2.719-5.708-6.176
				c0-3.638,2.323-6.356,5.906-6.356C351.779,366.332,353.814,369.123,353.814,372.472z M345.046,372.633
				c0,2.377,1.116,4.052,2.952,4.052c1.855,0,2.918-1.765,2.918-4.123c0-2.179-1.045-4.052-2.936-4.052
				C346.126,368.51,345.046,370.275,345.046,372.633z"/>
			<path style="fill:#FFFFFF;" d="M365.874,374.02c-0.054-1.458-0.108-3.223-0.108-4.987h-0.054
				c-0.378,1.549-0.882,3.277-1.351,4.699l-1.477,4.735h-2.143l-1.297-4.699c-0.396-1.423-0.81-3.151-1.098-4.735h-0.036
				c-0.072,1.639-0.126,3.511-0.216,5.023l-0.217,4.609h-2.538l0.774-12.136h3.654l1.189,4.052c0.377,1.404,0.756,2.916,1.025,4.339
				h0.055c0.342-1.404,0.756-3.007,1.152-4.357l1.296-4.033h3.583l0.666,12.136h-2.683L365.874,374.02z"/>
			<path style="fill:#FFFFFF;" d="M377.301,375.55l-0.863,3.115h-2.846l3.709-12.136h3.602l3.764,12.136h-2.953l-0.937-3.115
				H377.301z M380.381,373.498l-0.757-2.574c-0.216-0.721-0.433-1.621-0.612-2.341h-0.036c-0.18,0.72-0.36,1.639-0.558,2.341
				l-0.721,2.574H380.381z"/>
			<path style="fill:#FFFFFF;" d="M391.556,368.834h-3.259v-2.305h9.327v2.305h-3.313v9.831h-2.755V368.834z"/>
			<path style="fill:#FFFFFF;" d="M401.835,366.53v12.136h-2.755V366.53H401.835z"/>
			<path style="fill:#FFFFFF;" d="M414.472,374.02c-0.054-1.458-0.107-3.223-0.107-4.987h-0.055
				c-0.378,1.549-0.882,3.277-1.35,4.699l-1.477,4.735h-2.143l-1.297-4.699c-0.396-1.423-0.811-3.151-1.098-4.735h-0.037
				c-0.071,1.639-0.125,3.511-0.216,5.023l-0.216,4.609h-2.539l0.774-12.136h3.655l1.188,4.052c0.378,1.404,0.756,2.916,1.026,4.339
				h0.054c0.343-1.404,0.757-3.007,1.152-4.357l1.296-4.033h3.584l0.666,12.136h-2.684L414.472,374.02z"/>
			<path style="fill:#FFFFFF;" d="M419.15,377.208c0-0.973,0.666-1.675,1.62-1.675s1.603,0.684,1.603,1.675
				c0,0.954-0.648,1.656-1.621,1.656C419.816,378.864,419.15,378.162,419.15,377.208z"/>
		</g>
	</g>
</g>
<g id="Layer_1">
</g>
</svg>
