<?xml version="1.0" encoding="iso-8859-1"?>
<!-- Generator: Adobe Illustrator 18.0.0, SVG Export Plug-In . SVG Version: 6.00 Build 0)  -->
<!DOCTYPE svg PUBLIC "-//W3C//DTD SVG 1.1//EN" "http://www.w3.org/Graphics/SVG/1.1/DTD/svg11.dtd">
<svg version="1.1" xmlns="http://www.w3.org/2000/svg" xmlns:xlink="http://www.w3.org/1999/xlink" x="0px" y="0px"
	 viewBox="0 0 531.453 494.191" style="enable-background:new 0 0 531.453 494.191;" xml:space="preserve">
<g id="page13-1">
	<g>
		
			<polygon style="fill:none;stroke:#000000;stroke-width:3.6793;stroke-linecap:round;stroke-linejoin:round;stroke-miterlimit:10;" points="
			43.446,14.904 69.635,406.333 475.632,438.052 529.613,82.648 		"/>
		<polygon style="opacity:0.8;fill:#E92325;" points="100.919,49.06 83.146,447.249 518.153,405.508 454.366,31.542 		"/>
		<polygon style="fill:#03B9DB;" points="23.262,106.379 387.98,82.648 390.61,211.407 20.388,285.052 		"/>
		
			<polyline style="fill:none;stroke:#000000;stroke-width:3.6793;stroke-linecap:round;stroke-linejoin:round;stroke-miterlimit:10;" points="
			45.65,296.379 1.84,305.543 4.782,122.591 		"/>
		<g>
			<g>
				<g>
					
						<line style="fill:none;stroke:#000000;stroke-width:3.6793;stroke-linecap:round;stroke-linejoin:round;stroke-miterlimit:10;" x1="20.388" y1="335.586" x2="43.803" y2="335.586"/>
					
						<line style="fill:none;stroke:#000000;stroke-width:3.6793;stroke-linecap:round;stroke-linejoin:round;stroke-miterlimit:10;" x1="32.095" y1="323.878" x2="32.095" y2="347.293"/>
				</g>
				<g>
					
						<line style="fill:none;stroke:#000000;stroke-width:3.6793;stroke-linecap:round;stroke-linejoin:round;stroke-miterlimit:10;" x1="274.822" y1="453.476" x2="298.237" y2="453.476"/>
					
						<line style="fill:none;stroke:#000000;stroke-width:3.6793;stroke-linecap:round;stroke-linejoin:round;stroke-miterlimit:10;" x1="286.53" y1="441.769" x2="286.53" y2="465.184"/>
				</g>
				
					<path style="fill:none;stroke:#000000;stroke-width:3.6793;stroke-linecap:round;stroke-linejoin:round;stroke-miterlimit:10;" d="
					M503.274,13.043c8.685,13.564-5.72,27.969-19.284,19.284c-0.931-0.596-1.73-1.395-2.325-2.326
					c-8.681-13.563,5.721-27.965,19.283-19.283C501.879,11.313,502.678,12.112,503.274,13.043z"/>
				<g>
					
						<line style="fill:none;stroke:#000000;stroke-width:3.6793;stroke-linecap:round;stroke-linejoin:round;stroke-miterlimit:10;" x1="211.98" y1="1.84" x2="298.237" y2="1.84"/>
					
						<line style="fill:none;stroke:#000000;stroke-width:3.6793;stroke-linecap:round;stroke-linejoin:round;stroke-miterlimit:10;" x1="264.348" y1="21.523" x2="319.935" y2="21.523"/>
				</g>
				
					<path style="fill:none;stroke:#000000;stroke-width:3.6793;stroke-linecap:round;stroke-linejoin:round;stroke-miterlimit:10;" d="
					M216.304,470.431c8.681,13.563-5.721,27.965-19.283,19.283c-0.931-0.596-1.73-1.395-2.326-2.325
					c-8.685-13.564,5.72-27.969,19.284-19.284C214.91,468.702,215.709,469.501,216.304,470.431z"/>
			</g>
		</g>
		<g>
			<path style="fill:#FFFFFF;" d="M47.774,214.732l-4.712-28.825l7.612-1.244l7.714,9.584c2.207,2.757,4.505,6.07,6.319,9.11
				l0.129-0.021c-1.05-3.736-1.814-7.607-2.521-11.927l-1.377-8.425l5.988-0.979l4.712,28.825l-6.843,1.119l-7.977-10.114
				c-2.214-2.798-4.704-6.212-6.668-9.36l-0.121,0.065c0.793,3.778,1.542,7.827,2.312,12.531l1.419,8.682L47.774,214.732z"/>
			<path style="fill:#FFFFFF;" d="M101.265,190.883c1.545,9.451-3.249,16.118-11.674,17.496
				c-8.554,1.398-14.613-4.241-15.955-12.452c-1.413-8.64,3.049-16,11.56-17.391C94.048,177.089,99.965,182.927,101.265,190.883z
				 M80.5,194.671c0.923,5.646,4.225,9.19,8.587,8.478c4.405-0.72,6.243-5.324,5.327-10.927c-0.846-5.175-4.053-9.217-8.544-8.483
				C81.465,184.459,79.585,189.07,80.5,194.671z"/>
			<path style="fill:#FFFFFF;" d="M114.449,203.833l-13.95-27.315l7.142-1.167l5.499,11.615c1.543,3.26,2.979,6.407,4.251,9.887
				l0.128-0.021c0.161-3.583,0.5-7.151,0.945-10.605l1.665-12.918l6.928-1.132l-4.997,30.412L114.449,203.833z"/>
			<path style="fill:#FFFFFF;" d="M158.489,181.529c1.545,9.451-3.25,16.118-11.675,17.496c-8.553,1.398-14.612-4.241-15.955-12.452
				c-1.412-8.64,3.049-16,11.56-17.391C151.271,167.735,157.188,173.573,158.489,181.529z M137.723,185.317
				c0.923,5.646,4.225,9.19,8.587,8.478c4.405-0.72,6.243-5.324,5.327-10.927c-0.846-5.175-4.053-9.218-8.544-8.483
				C138.689,175.104,136.808,179.716,137.723,185.317z"/>
			<path style="fill:#FFFFFF;" d="M169.16,165.689c1.955-0.67,4.735-1.39,8.712-2.04c4.021-0.657,7.012-0.355,9.188,0.871
				c2.077,1.152,3.709,3.345,4.17,6.167c0.461,2.823-0.088,5.372-1.533,7.276c-1.882,2.459-5.021,3.939-8.87,4.568
				c-0.855,0.14-1.632,0.223-2.245,0.236l1.685,10.307l-6.458,1.056L169.16,165.689z M177.758,177.719
				c0.577,0.038,1.268-0.031,2.209-0.185c3.464-0.566,5.315-2.668,4.833-5.62c-0.434-2.652-2.531-3.934-5.781-3.402
				c-1.326,0.216-2.203,0.492-2.652,0.697L177.758,177.719z"/>
			<path style="fill:#FFFFFF;" d="M194.008,161.627c2.039-0.684,5.119-1.452,8.583-2.019c4.277-0.699,7.375-0.546,9.694,0.743
				c1.934,1.089,3.204,2.946,3.637,5.597c0.601,3.678-1.595,6.626-3.929,7.931l0.021,0.129c2.143,0.484,3.569,2.227,4.729,4.759
				c1.43,3.103,2.943,6.72,3.681,7.741l-6.671,1.091c-0.604-0.735-1.672-2.976-3.108-6.386c-1.356-3.466-2.758-4.248-5.417-3.856
				l-1.967,0.321l1.853,11.333l-6.458,1.056L194.008,161.627z M202.492,172.973l2.566-0.419c3.25-0.531,4.909-2.471,4.497-4.994
				c-0.434-2.651-2.446-3.684-5.447-3.237c-1.582,0.259-2.459,0.534-2.916,0.696L202.492,172.973z"/>
			<path style="fill:#FFFFFF;" d="M247.829,166.924c1.545,9.451-3.249,16.119-11.674,17.496
				c-8.554,1.398-14.613-4.241-15.956-12.452c-1.412-8.64,3.049-16,11.56-17.391C240.613,153.13,246.529,158.969,247.829,166.924z
				 M227.064,170.713c0.923,5.646,4.225,9.19,8.587,8.478c4.405-0.72,6.244-5.324,5.328-10.927
				c-0.846-5.175-4.054-9.218-8.544-8.483C228.03,160.5,226.149,165.111,227.064,170.713z"/>
			<path style="fill:#FFFFFF;" d="M275.549,176.664c-1.1,0.794-3.689,1.876-7.196,2.45c-9.965,1.629-16.111-3.734-17.453-11.945
				c-1.608-9.836,4.511-16.457,13.236-17.883c3.379-0.552,6.056-0.287,7.309,0.122l-0.479,5.393
				c-1.417-0.339-3.34-0.552-5.649-0.174c-5.176,0.846-8.686,4.625-7.637,11.04c0.944,5.774,4.959,8.849,10.776,7.898
				c1.968-0.322,4.079-1.105,5.278-1.829L275.549,176.664z"/>
			<path style="fill:#FFFFFF;" d="M295.115,161.784l-10.606,1.734l1.118,6.843l11.847-1.937l0.874,5.347l-18.391,3.006
				l-4.712-28.825l17.791-2.908l0.874,5.346l-11.247,1.839l0.979,5.987l10.606-1.734L295.115,161.784z"/>
			<path style="fill:#FFFFFF;" d="M301.912,166.294c1.9,0.612,4.741,1.07,7.521,0.615c2.993-0.489,4.373-1.989,4.065-3.87
				c-0.294-1.797-1.83-2.599-5.497-3.273c-5.062-0.885-8.618-3.026-9.303-7.217c-0.804-4.918,2.687-9.353,9.486-10.464
				c3.25-0.531,5.757-0.238,7.594,0.251l-0.594,5.499c-1.246-0.368-3.432-0.845-6.254-0.383c-2.823,0.461-3.982,1.968-3.737,3.464
				c0.3,1.839,2.059,2.387,6.01,3.189c5.396,1.05,8.226,3.311,8.89,7.373c0.79,4.834-2.26,9.547-10.172,10.841
				c-3.292,0.538-6.684,0.214-8.455-0.418L301.912,166.294z"/>
			<path style="fill:#FFFFFF;" d="M325.006,162.519c1.9,0.611,4.742,1.069,7.521,0.615c2.994-0.49,4.374-1.989,4.066-3.87
				c-0.294-1.797-1.83-2.6-5.498-3.273c-5.062-0.885-8.617-3.026-9.303-7.218c-0.804-4.918,2.688-9.353,9.487-10.464
				c3.25-0.531,5.757-0.238,7.593,0.252l-0.594,5.499c-1.246-0.368-3.432-0.845-6.254-0.384s-3.981,1.969-3.737,3.465
				c0.301,1.839,2.06,2.386,6.011,3.189c5.396,1.05,8.225,3.311,8.889,7.372c0.79,4.834-2.259,9.548-10.171,10.841
				c-3.293,0.539-6.683,0.214-8.455-0.418L325.006,162.519z"/>
			<path style="fill:#FFFFFF;" d="M372.967,146.468c1.545,9.451-3.249,16.119-11.674,17.496
				c-8.554,1.398-14.613-4.241-15.955-12.452c-1.412-8.64,3.049-16,11.56-17.391C365.751,132.674,371.666,138.513,372.967,146.468z
				 M352.202,150.257c0.923,5.646,4.225,9.19,8.587,8.478c4.404-0.72,6.243-5.324,5.328-10.927
				c-0.846-5.175-4.055-9.217-8.545-8.483C353.167,140.044,351.286,144.655,352.202,150.257z"/>
		</g>
		<g>
			<path style="fill:#FFFFFF;" d="M118.141,301.892c1.008-0.162,2.323-0.252,3.709-0.252c2.305,0,3.799,0.414,4.97,1.296
				c1.26,0.937,2.052,2.431,2.052,4.574c0,2.322-0.846,3.924-2.017,4.915c-1.278,1.062-3.223,1.566-5.6,1.566
				c-1.422,0-2.431-0.09-3.115-0.18V301.892z M120.896,311.795c0.234,0.054,0.612,0.054,0.954,0.054
				c2.485,0.018,4.105-1.351,4.105-4.249c0.018-2.521-1.458-3.854-3.817-3.854c-0.612,0-1.008,0.054-1.242,0.108V311.795z"/>
			<path style="fill:#FFFFFF;" d="M137.889,308.734h-4.465v2.88h4.987v2.251h-7.742V301.73h7.49v2.251h-4.735v2.521h4.465V308.734z"
				/>
			<path style="fill:#FFFFFF;" d="M143.916,301.73h2.755v9.831h4.825v2.305h-7.58V301.73z"/>
			<path style="fill:#FFFFFF;" d="M156.049,310.75l-0.864,3.115h-2.845l3.709-12.135h3.601l3.763,12.135h-2.953l-0.937-3.115
				H156.049z M159.128,308.698l-0.756-2.574c-0.216-0.721-0.432-1.62-0.612-2.341h-0.036c-0.18,0.721-0.36,1.639-0.558,2.341
				l-0.72,2.574H159.128z"/>
			<path style="fill:#FFFFFF;" d="M165.03,313.865V301.73h3.205l2.521,4.447c0.72,1.278,1.44,2.791,1.98,4.159h0.054
				c-0.18-1.602-0.234-3.241-0.234-5.059v-3.547h2.521v12.135h-2.881l-2.593-4.681c-0.72-1.296-1.513-2.862-2.106-4.285
				l-0.054,0.019c0.072,1.602,0.108,3.312,0.108,5.292v3.655H165.03z"/>
			<path style="fill:#FFFFFF;" d="M186.362,313.524c-0.486,0.233-1.531,0.504-2.899,0.521l-0.306,0.612
				c0.702,0.162,1.314,0.631,1.314,1.477c0,1.242-1.116,1.656-2.143,1.656c-0.54,0-1.134-0.107-1.548-0.342l0.36-1.116
				c0.27,0.144,0.684,0.252,1.008,0.252c0.36,0,0.648-0.126,0.648-0.432c0-0.379-0.414-0.576-1.423-0.685l0.685-1.494
				c-3.421-0.45-5.167-2.881-5.167-5.996c0-4.142,2.953-6.446,6.626-6.446c1.422,0,2.502,0.288,2.989,0.54l-0.558,2.179
				c-0.558-0.233-1.333-0.45-2.305-0.45c-2.179,0-3.871,1.314-3.871,4.016c0,2.43,1.44,3.96,3.889,3.96
				c0.828,0,1.746-0.18,2.287-0.396L186.362,313.524z"/>
			<path style="fill:#FFFFFF;" d="M191.166,310.75l-0.864,3.115h-2.845l3.709-12.135h3.601l3.763,12.135h-2.953l-0.937-3.115
				H191.166z M194.245,308.698l-0.756-2.574c-0.216-0.721-0.432-1.62-0.612-2.341h-0.036c-0.18,0.721-0.36,1.639-0.558,2.341
				l-0.72,2.574H194.245z"/>
			<path style="fill:#FFFFFF;" d="M210.409,309.22c-0.054-1.458-0.108-3.223-0.108-4.987h-0.054
				c-0.378,1.549-0.882,3.277-1.351,4.699l-1.477,4.735h-2.143l-1.296-4.699c-0.396-1.423-0.81-3.151-1.098-4.735h-0.036
				c-0.072,1.639-0.126,3.511-0.216,5.023l-0.216,4.609h-2.539l0.774-12.135h3.655l1.188,4.052c0.378,1.404,0.756,2.916,1.026,4.338
				h0.054c0.342-1.404,0.756-3.006,1.152-4.357l1.296-4.033h3.583l0.667,12.135h-2.683L210.409,309.22z"/>
			<path style="fill:#FFFFFF;" d="M222.596,308.734h-4.465v2.88h4.987v2.251h-7.742V301.73h7.49v2.251h-4.735v2.521h4.465V308.734z"
				/>
			<path style="fill:#FFFFFF;" d="M224.987,313.865V301.73h3.205l2.521,4.447c0.72,1.278,1.44,2.791,1.98,4.159h0.054
				c-0.18-1.602-0.234-3.241-0.234-5.059v-3.547h2.521v12.135h-2.881l-2.593-4.681c-0.72-1.296-1.513-2.862-2.106-4.285
				l-0.054,0.019c0.072,1.602,0.108,3.312,0.108,5.292v3.655H224.987z"/>
			<path style="fill:#FFFFFF;" d="M239.747,304.035h-3.259v-2.305h9.327v2.305h-3.313v9.831h-2.754V304.035z"/>
			<path style="fill:#FFFFFF;" d="M257.858,307.672c0,3.979-2.413,6.392-5.96,6.392c-3.601,0-5.708-2.719-5.708-6.175
				c0-3.638,2.322-6.356,5.906-6.356C255.824,301.532,257.858,304.323,257.858,307.672z M249.089,307.834
				c0,2.376,1.117,4.051,2.953,4.051c1.854,0,2.917-1.765,2.917-4.123c0-2.179-1.044-4.052-2.935-4.052
				C250.17,303.711,249.089,305.475,249.089,307.834z"/>
			<path style="fill:#FFFFFF;" d="M263.29,301.892c1.008-0.162,2.323-0.252,3.709-0.252c2.305,0,3.799,0.414,4.97,1.296
				c1.26,0.937,2.052,2.431,2.052,4.574c0,2.322-0.846,3.924-2.017,4.915c-1.278,1.062-3.223,1.566-5.6,1.566
				c-1.422,0-2.431-0.09-3.115-0.18V301.892z M266.045,311.795c0.234,0.054,0.612,0.054,0.954,0.054
				c2.485,0.018,4.106-1.351,4.106-4.249c0.018-2.521-1.459-3.854-3.817-3.854c-0.613,0-1.009,0.054-1.243,0.108V311.795z"/>
			<path style="fill:#FFFFFF;" d="M283.039,308.734h-4.466v2.88h4.987v2.251h-7.742V301.73h7.49v2.251h-4.735v2.521h4.466V308.734z"
				/>
			<path style="fill:#FFFFFF;" d="M289.066,301.892c0.846-0.144,2.034-0.252,3.709-0.252c1.692,0,2.898,0.324,3.709,0.973
				c0.774,0.611,1.296,1.62,1.296,2.809s-0.396,2.196-1.116,2.881c-0.936,0.882-2.322,1.278-3.943,1.278
				c-0.359,0-0.684-0.019-0.936-0.054v4.339h-2.719V301.892z M291.785,307.402c0.233,0.054,0.521,0.072,0.918,0.072
				c1.458,0,2.358-0.738,2.358-1.98c0-1.117-0.773-1.783-2.143-1.783c-0.558,0-0.936,0.055-1.134,0.108V307.402z"/>
			<path style="fill:#FFFFFF;" d="M299.524,301.892c0.882-0.144,2.196-0.252,3.654-0.252c1.801,0,3.062,0.27,3.926,0.954
				c0.72,0.576,1.116,1.423,1.116,2.539c0,1.548-1.099,2.61-2.143,2.988v0.055c0.846,0.342,1.314,1.152,1.62,2.268
				c0.378,1.368,0.757,2.953,0.99,3.421h-2.809c-0.198-0.342-0.486-1.332-0.846-2.827c-0.324-1.512-0.847-1.925-1.963-1.944h-0.828
				v4.771h-2.719V301.892z M302.243,307.114h1.08c1.368,0,2.179-0.685,2.179-1.747c0-1.116-0.756-1.674-2.017-1.692
				c-0.666,0-1.044,0.055-1.242,0.091V307.114z"/>
			<path style="fill:#FFFFFF;" d="M321.235,307.672c0,3.979-2.413,6.392-5.96,6.392c-3.602,0-5.708-2.719-5.708-6.175
				c0-3.638,2.323-6.356,5.906-6.356C319.2,301.532,321.235,304.323,321.235,307.672z M312.467,307.834
				c0,2.376,1.116,4.051,2.952,4.051c1.854,0,2.917-1.765,2.917-4.123c0-2.179-1.044-4.052-2.935-4.052
				C313.547,303.711,312.467,305.475,312.467,307.834z"/>
			<path style="fill:#FFFFFF;" d="M323.031,301.892c1.009-0.162,2.323-0.252,3.709-0.252c2.305,0,3.8,0.414,4.97,1.296
				c1.261,0.937,2.053,2.431,2.053,4.574c0,2.322-0.847,3.924-2.017,4.915c-1.278,1.062-3.223,1.566-5.6,1.566
				c-1.423,0-2.431-0.09-3.115-0.18V301.892z M325.786,311.795c0.234,0.054,0.612,0.054,0.954,0.054
				c2.485,0.018,4.105-1.351,4.105-4.249c0.018-2.521-1.458-3.854-3.817-3.854c-0.612,0-1.008,0.054-1.242,0.108V311.795z"/>
			<path style="fill:#FFFFFF;" d="M338.296,301.73v6.986c0,2.088,0.792,3.15,2.197,3.15c1.44,0,2.232-1.008,2.232-3.15v-6.986h2.736
				v6.807c0,3.744-1.891,5.527-5.06,5.527c-3.061,0-4.861-1.692-4.861-5.563v-6.771H338.296z"/>
			<path style="fill:#FFFFFF;" d="M350.176,304.035h-3.259v-2.305h9.326v2.305h-3.312v9.831h-2.755V304.035z"/>
			<path style="fill:#FFFFFF;" d="M368.287,307.672c0,3.979-2.413,6.392-5.96,6.392c-3.602,0-5.708-2.719-5.708-6.175
				c0-3.638,2.323-6.356,5.906-6.356C366.252,301.532,368.287,304.323,368.287,307.672z M359.518,307.834
				c0,2.376,1.116,4.051,2.952,4.051c1.854,0,2.917-1.765,2.917-4.123c0-2.179-1.044-4.052-2.935-4.052
				C360.598,303.711,359.518,305.475,359.518,307.834z"/>
			<path style="fill:#FFFFFF;" d="M370.173,311.038c0.738,0.379,1.873,0.757,3.043,0.757c1.261,0,1.927-0.522,1.927-1.314
				c0-0.757-0.576-1.188-2.034-1.71c-2.017-0.702-3.331-1.818-3.331-3.583c0-2.07,1.729-3.655,4.591-3.655
				c1.369,0,2.377,0.288,3.098,0.612l-0.612,2.215c-0.486-0.234-1.351-0.576-2.539-0.576s-1.765,0.54-1.765,1.17
				c0,0.774,0.685,1.117,2.251,1.711c2.143,0.792,3.15,1.908,3.15,3.619c0,2.034-1.566,3.763-4.897,3.763
				c-1.386,0-2.755-0.359-3.438-0.738L370.173,311.038z"/>
			<path style="fill:#FFFFFF;" d="M378.65,316.008c0.559-1.603,1.045-3.475,1.297-5.113l2.79-0.181
				c-0.594,1.837-1.404,3.728-2.269,5.132L378.65,316.008z"/>
			<path style="fill:#FFFFFF;" d="M388.208,311.038c0.738,0.379,1.873,0.757,3.043,0.757c1.261,0,1.927-0.522,1.927-1.314
				c0-0.757-0.576-1.188-2.034-1.71c-2.017-0.702-3.331-1.818-3.331-3.583c0-2.07,1.729-3.655,4.591-3.655
				c1.369,0,2.377,0.288,3.098,0.612l-0.612,2.215c-0.486-0.234-1.351-0.576-2.539-0.576s-1.765,0.54-1.765,1.17
				c0,0.774,0.685,1.117,2.251,1.711c2.143,0.792,3.15,1.908,3.15,3.619c0,2.034-1.566,3.763-4.897,3.763
				c-1.386,0-2.755-0.359-3.438-0.738L388.208,311.038z"/>
			<path style="fill:#FFFFFF;" d="M405.058,308.734h-4.466v2.88h4.987v2.251h-7.742V301.73h7.49v2.251h-4.735v2.521h4.466V308.734z"
				/>
			<path style="fill:#FFFFFF;" d="M407.45,301.892c0.882-0.144,2.196-0.252,3.654-0.252c1.801,0,3.062,0.27,3.926,0.954
				c0.72,0.576,1.116,1.423,1.116,2.539c0,1.548-1.099,2.61-2.143,2.988v0.055c0.846,0.342,1.314,1.152,1.62,2.268
				c0.378,1.368,0.757,2.953,0.99,3.421h-2.809c-0.198-0.342-0.486-1.332-0.846-2.827c-0.324-1.512-0.847-1.925-1.963-1.944h-0.828
				v4.771h-2.719V301.892z M410.169,307.114h1.08c1.368,0,2.179-0.685,2.179-1.747c0-1.116-0.756-1.674-2.017-1.692
				c-0.666,0-1.044,0.055-1.242,0.091V307.114z"/>
			<path style="fill:#FFFFFF;" d="M420.879,313.865l-3.89-12.135h3.007l1.477,5.132c0.414,1.44,0.792,2.827,1.08,4.338h0.055
				c0.306-1.458,0.684-2.898,1.098-4.285l1.549-5.186h2.917l-4.087,12.135H420.879z"/>
			<path style="fill:#FFFFFF;" d="M432.219,301.73v12.135h-2.755V301.73H432.219z"/>
			<path style="fill:#FFFFFF;" d="M443.506,313.524c-0.486,0.233-1.53,0.504-2.898,0.521l-0.307,0.612
				c0.702,0.162,1.314,0.631,1.314,1.477c0,1.242-1.116,1.656-2.143,1.656c-0.54,0-1.134-0.107-1.548-0.342l0.359-1.116
				c0.271,0.144,0.685,0.252,1.009,0.252c0.36,0,0.648-0.126,0.648-0.432c0-0.379-0.414-0.576-1.423-0.685l0.685-1.494
				c-3.421-0.45-5.168-2.881-5.168-5.996c0-4.142,2.953-6.446,6.626-6.446c1.423,0,2.503,0.288,2.989,0.54l-0.559,2.179
				c-0.558-0.233-1.332-0.45-2.305-0.45c-2.179,0-3.871,1.314-3.871,4.016c0,2.43,1.44,3.96,3.89,3.96
				c0.828,0,1.746-0.18,2.286-0.396L443.506,313.524z"/>
			<path style="fill:#FFFFFF;" d="M455.873,307.672c0,3.979-2.413,6.392-5.96,6.392c-3.602,0-5.708-2.719-5.708-6.175
				c0-3.638,2.323-6.356,5.906-6.356C453.838,301.532,455.873,304.323,455.873,307.672z M447.104,307.834
				c0,2.376,1.116,4.051,2.952,4.051c1.854,0,2.917-1.765,2.917-4.123c0-2.179-1.044-4.052-2.935-4.052
				C448.184,303.711,447.104,305.475,447.104,307.834z"/>
			<path style="fill:#FFFFFF;" d="M457.759,311.038c0.738,0.379,1.873,0.757,3.044,0.757c1.26,0,1.926-0.522,1.926-1.314
				c0-0.757-0.576-1.188-2.034-1.71c-2.017-0.702-3.331-1.818-3.331-3.583c0-2.07,1.729-3.655,4.592-3.655
				c1.368,0,2.376,0.288,3.097,0.612l-0.612,2.215c-0.486-0.234-1.351-0.576-2.539-0.576s-1.765,0.54-1.765,1.17
				c0,0.774,0.685,1.117,2.251,1.711c2.143,0.792,3.151,1.908,3.151,3.619c0,2.034-1.567,3.763-4.897,3.763
				c-1.387,0-2.756-0.359-3.439-0.738L457.759,311.038z"/>
			<path style="fill:#FFFFFF;" d="M125.361,330.333h-4.465v2.881h4.987v2.251h-7.742v-12.136h7.49v2.251h-4.735v2.521h4.465V330.333
				z"/>
			<path style="fill:#FFFFFF;" d="M142.498,329.271c0,3.979-2.413,6.393-5.96,6.393c-3.601,0-5.708-2.719-5.708-6.176
				c0-3.638,2.322-6.356,5.906-6.356C140.463,323.131,142.498,325.922,142.498,329.271z M133.729,329.433
				c0,2.377,1.117,4.052,2.953,4.052c1.854,0,2.917-1.765,2.917-4.123c0-2.179-1.044-4.052-2.935-4.052
				C134.809,325.31,133.729,327.074,133.729,329.433z"/>
			<path style="fill:#FFFFFF;" d="M144.294,323.329h7.418v2.251h-4.663v2.772h4.357v2.232h-4.357v4.88h-2.755V323.329z"/>
			<path style="fill:#FFFFFF;" d="M161,330.333h-4.465v2.881h4.987v2.251h-7.742v-12.136h7.49v2.251h-4.735v2.521H161V330.333z"/>
			<path style="fill:#FFFFFF;" d="M163.392,323.491c0.882-0.144,2.196-0.252,3.655-0.252c1.801,0,3.061,0.27,3.925,0.954
				c0.72,0.576,1.116,1.423,1.116,2.539c0,1.548-1.098,2.61-2.143,2.988v0.055c0.846,0.342,1.314,1.152,1.621,2.269
				c0.378,1.368,0.756,2.953,0.99,3.421h-2.809c-0.198-0.342-0.486-1.332-0.846-2.827c-0.324-1.512-0.847-1.926-1.963-1.944h-0.828
				v4.771h-2.719V323.491z M166.111,328.713h1.08c1.369,0,2.179-0.685,2.179-1.747c0-1.116-0.756-1.674-2.017-1.692
				c-0.666,0-1.044,0.055-1.242,0.091V328.713z"/>
			<path style="fill:#FFFFFF;" d="M176.407,325.634h-3.259v-2.305h9.327v2.305h-3.313v9.831h-2.754V325.634z"/>
			<path style="fill:#FFFFFF;" d="M185.46,332.35l-0.864,3.115h-2.845l3.709-12.136h3.601l3.763,12.136h-2.953l-0.936-3.115H185.46z
				 M188.539,330.297l-0.756-2.574c-0.216-0.721-0.432-1.62-0.612-2.341h-0.036c-0.18,0.721-0.36,1.639-0.559,2.341l-0.72,2.574
				H188.539z"/>
			<path style="fill:#FFFFFF;" d="M194.531,332.638c0.738,0.379,1.873,0.757,3.043,0.757c1.26,0,1.927-0.522,1.927-1.314
				c0-0.757-0.576-1.188-2.035-1.711c-2.017-0.702-3.331-1.818-3.331-3.583c0-2.07,1.729-3.655,4.591-3.655
				c1.369,0,2.376,0.288,3.097,0.612l-0.612,2.215c-0.486-0.234-1.351-0.576-2.539-0.576c-1.188,0-1.764,0.54-1.764,1.17
				c0,0.774,0.684,1.117,2.25,1.711c2.143,0.792,3.151,1.908,3.151,3.619c0,2.034-1.566,3.763-4.897,3.763
				c-1.386,0-2.755-0.359-3.439-0.738L194.531,332.638z"/>
			<path style="fill:#FFFFFF;" d="M217.933,334.906c-0.846,0.288-2.449,0.685-4.051,0.685c-2.214,0-3.817-0.559-4.933-1.639
				c-1.117-1.044-1.729-2.629-1.71-4.411c0.018-4.033,2.953-6.338,6.932-6.338c1.567,0,2.773,0.306,3.367,0.595l-0.576,2.196
				c-0.666-0.288-1.494-0.522-2.827-0.522c-2.287,0-4.015,1.297-4.015,3.926c0,2.502,1.566,3.979,3.817,3.979
				c0.63,0,1.134-0.072,1.351-0.18v-2.539h-1.873v-2.143h4.519V334.906z"/>
			<path style="fill:#FFFFFF;" d="M222.899,332.35l-0.864,3.115h-2.845l3.709-12.136h3.601l3.763,12.136h-2.953l-0.937-3.115
				H222.899z M225.978,330.297l-0.756-2.574c-0.216-0.721-0.432-1.62-0.612-2.341h-0.036c-0.18,0.721-0.36,1.639-0.558,2.341
				l-0.72,2.574H225.978z"/>
			<path style="fill:#FFFFFF;" d="M231.88,323.491c0.882-0.144,2.196-0.252,3.655-0.252c1.801,0,3.061,0.27,3.925,0.954
				c0.72,0.576,1.116,1.423,1.116,2.539c0,1.548-1.098,2.61-2.143,2.988v0.055c0.846,0.342,1.314,1.152,1.621,2.269
				c0.378,1.368,0.756,2.953,0.99,3.421h-2.809c-0.198-0.342-0.486-1.332-0.846-2.827c-0.324-1.512-0.847-1.926-1.963-1.944h-0.828
				v4.771h-2.719V323.491z M234.599,328.713h1.08c1.369,0,2.179-0.685,2.179-1.747c0-1.116-0.756-1.674-2.017-1.692
				c-0.666,0-1.044,0.055-1.242,0.091V328.713z"/>
			<path style="fill:#FFFFFF;" d="M245.542,332.35l-0.864,3.115h-2.845l3.709-12.136h3.601l3.763,12.136h-2.953l-0.936-3.115
				H245.542z M248.621,330.297l-0.756-2.574c-0.216-0.721-0.432-1.62-0.612-2.341h-0.036c-0.18,0.721-0.36,1.639-0.559,2.341
				l-0.72,2.574H248.621z"/>
			<path style="fill:#FFFFFF;" d="M254.523,335.465v-12.136h3.205l2.521,4.447c0.72,1.278,1.44,2.791,1.98,4.159h0.054
				c-0.18-1.603-0.234-3.241-0.234-5.06v-3.547h2.521v12.136h-2.881l-2.593-4.682c-0.72-1.296-1.512-2.862-2.106-4.285l-0.054,0.019
				c0.072,1.602,0.108,3.312,0.108,5.293v3.655H254.523z"/>
			<path style="fill:#FFFFFF;" d="M269.284,325.634h-3.259v-2.305h9.327v2.305h-3.312v9.831h-2.755V325.634z"/>
			<path style="fill:#FFFFFF;" d="M279.562,323.329v12.136h-2.755v-12.136H279.562z"/>
			<path style="fill:#FFFFFF;" d="M281.937,335.465v-12.136h3.205l2.521,4.447c0.72,1.278,1.44,2.791,1.98,4.159h0.054
				c-0.18-1.603-0.233-3.241-0.233-5.06v-3.547h2.521v12.136h-2.881l-2.593-4.682c-0.721-1.296-1.513-2.862-2.106-4.285
				l-0.055,0.019c0.072,1.602,0.108,3.312,0.108,5.293v3.655H281.937z"/>
			<path style="fill:#FFFFFF;" d="M294.357,323.491c1.008-0.162,2.322-0.252,3.709-0.252c2.305,0,3.799,0.414,4.97,1.296
				c1.26,0.937,2.052,2.431,2.052,4.574c0,2.322-0.846,3.925-2.017,4.915c-1.278,1.062-3.223,1.566-5.6,1.566
				c-1.422,0-2.431-0.09-3.114-0.18V323.491z M297.112,333.395c0.233,0.054,0.611,0.054,0.954,0.054
				c2.484,0.018,4.105-1.351,4.105-4.249c0.018-2.521-1.459-3.854-3.817-3.854c-0.612,0-1.009,0.054-1.242,0.108V333.395z"/>
			<path style="fill:#FFFFFF;" d="M317.994,329.271c0,3.979-2.413,6.393-5.96,6.393c-3.601,0-5.707-2.719-5.707-6.176
				c0-3.638,2.322-6.356,5.905-6.356C315.96,323.131,317.994,325.922,317.994,329.271z M309.225,329.433
				c0,2.377,1.116,4.052,2.953,4.052c1.854,0,2.917-1.765,2.917-4.123c0-2.179-1.045-4.052-2.936-4.052
				C310.305,325.31,309.225,327.074,309.225,329.433z"/>
			<path style="fill:#FFFFFF;" d="M334.536,329.271c0,3.979-2.413,6.393-5.96,6.393c-3.602,0-5.708-2.719-5.708-6.176
				c0-3.638,2.323-6.356,5.906-6.356C332.501,323.131,334.536,325.922,334.536,329.271z M325.767,329.433
				c0,2.377,1.116,4.052,2.952,4.052c1.854,0,2.917-1.765,2.917-4.123c0-2.179-1.044-4.052-2.935-4.052
				C326.847,325.31,325.767,327.074,325.767,329.433z"/>
			<path style="fill:#FFFFFF;" d="M339.968,323.329h7.418v2.251h-4.663v2.772h4.357v2.232h-4.357v4.88h-2.755V323.329z"/>
			<path style="fill:#FFFFFF;" d="M360.563,329.271c0,3.979-2.413,6.393-5.96,6.393c-3.602,0-5.708-2.719-5.708-6.176
				c0-3.638,2.323-6.356,5.906-6.356C358.528,323.131,360.563,325.922,360.563,329.271z M351.795,329.433
				c0,2.377,1.116,4.052,2.952,4.052c1.854,0,2.917-1.765,2.917-4.123c0-2.179-1.044-4.052-2.935-4.052
				C352.875,325.31,351.795,327.074,351.795,329.433z"/>
			<path style="fill:#FFFFFF;" d="M371.272,335.123c-0.505,0.252-1.639,0.521-3.115,0.521c-4.195,0-6.355-2.61-6.355-6.067
				c0-4.142,2.952-6.446,6.626-6.446c1.422,0,2.502,0.288,2.988,0.54l-0.558,2.179c-0.559-0.233-1.333-0.45-2.305-0.45
				c-2.179,0-3.871,1.314-3.871,4.016c0,2.431,1.44,3.961,3.889,3.961c0.828,0,1.747-0.18,2.287-0.396L371.272,335.123z"/>
			<path style="fill:#FFFFFF;" d="M383.639,329.271c0,3.979-2.413,6.393-5.96,6.393c-3.602,0-5.708-2.719-5.708-6.176
				c0-3.638,2.323-6.356,5.906-6.356C381.604,323.131,383.639,325.922,383.639,329.271z M374.871,329.433
				c0,2.377,1.116,4.052,2.952,4.052c1.854,0,2.917-1.765,2.917-4.123c0-2.179-1.044-4.052-2.935-4.052
				C375.951,325.31,374.871,327.074,374.871,329.433z"/>
			<path style="fill:#FFFFFF;" d="M389.071,335.465v-12.136h3.205l2.521,4.447c0.721,1.278,1.44,2.791,1.98,4.159h0.055
				c-0.181-1.603-0.234-3.241-0.234-5.06v-3.547h2.521v12.136h-2.881l-2.593-4.682c-0.72-1.296-1.512-2.862-2.106-4.285
				l-0.054,0.019c0.072,1.602,0.107,3.312,0.107,5.293v3.655H389.071z"/>
			<path style="fill:#FFFFFF;" d="M404.318,332.35l-0.864,3.115h-2.845l3.709-12.136h3.601l3.764,12.136h-2.953l-0.937-3.115
				H404.318z M407.397,330.297l-0.757-2.574c-0.216-0.721-0.432-1.62-0.612-2.341h-0.035c-0.181,0.721-0.36,1.639-0.559,2.341
				l-0.721,2.574H407.397z"/>
			<path style="fill:#FFFFFF;" d="M128.404,352.419c-0.054-1.458-0.108-3.223-0.108-4.987h-0.054
				c-0.378,1.549-0.882,3.277-1.351,4.699l-1.477,4.735h-2.143l-1.296-4.699c-0.396-1.423-0.81-3.151-1.098-4.735h-0.036
				c-0.072,1.639-0.126,3.511-0.216,5.023l-0.216,4.609h-2.539l0.774-12.136h3.655l1.188,4.052c0.378,1.404,0.756,2.916,1.026,4.339
				h0.054c0.342-1.404,0.756-3.007,1.152-4.357l1.296-4.033h3.583l0.667,12.136h-2.683L128.404,352.419z"/>
			<path style="fill:#FFFFFF;" d="M140.589,351.933h-4.465v2.881h4.987v2.251h-7.742v-12.136h7.49v2.251h-4.735v2.521h4.465V351.933
				z"/>
			<path style="fill:#FFFFFF;" d="M142.981,344.929h2.755v9.831h4.825v2.305h-7.58V344.929z"/>
			<path style="fill:#FFFFFF;" d="M154.933,344.929v4.663h4.519v-4.663h2.737v12.136h-2.737v-5.077h-4.519v5.077h-2.755v-12.136
				H154.933z"/>
			<path style="fill:#FFFFFF;" d="M175.69,350.87c0,3.979-2.413,6.393-5.96,6.393c-3.601,0-5.708-2.719-5.708-6.176
				c0-3.638,2.323-6.356,5.906-6.356C173.655,344.731,175.69,347.522,175.69,350.87z M166.921,351.032
				c0,2.377,1.116,4.052,2.953,4.052c1.854,0,2.917-1.765,2.917-4.123c0-2.179-1.044-4.052-2.935-4.052
				C168.001,346.909,166.921,348.674,166.921,351.032z"/>
			<path style="fill:#FFFFFF;" d="M177.486,345.091c0.882-0.144,2.197-0.252,3.655-0.252c1.801,0,3.061,0.27,3.925,0.954
				c0.72,0.576,1.116,1.423,1.116,2.539c0,1.548-1.098,2.61-2.143,2.988v0.055c0.846,0.342,1.314,1.152,1.621,2.269
				c0.378,1.368,0.756,2.953,0.99,3.421h-2.809c-0.198-0.342-0.486-1.332-0.847-2.827c-0.324-1.512-0.846-1.926-1.962-1.944h-0.828
				v4.771h-2.719V345.091z M180.205,350.313h1.08c1.369,0,2.179-0.685,2.179-1.747c0-1.116-0.756-1.674-2.017-1.692
				c-0.666,0-1.044,0.055-1.242,0.091V350.313z"/>
			<path style="fill:#FFFFFF;" d="M199.016,351.933h-4.465v2.881h4.987v2.251h-7.742v-12.136h7.49v2.251h-4.735v2.521h4.465V351.933
				z"/>
			<path style="fill:#FFFFFF;" d="M207.799,357.065l-1.098-2.196c-0.45-0.847-0.738-1.477-1.081-2.179h-0.036
				c-0.252,0.702-0.558,1.332-0.937,2.179l-1.008,2.196h-3.133l3.511-6.14l-3.385-5.996h3.151l1.062,2.215
				c0.36,0.738,0.63,1.332,0.918,2.017h0.036c0.288-0.774,0.522-1.314,0.829-2.017l1.026-2.215h3.133l-3.421,5.924l3.601,6.212
				H207.799z"/>
			<path style="fill:#FFFFFF;" d="M212.441,345.091c0.846-0.144,2.035-0.252,3.709-0.252c1.692,0,2.899,0.324,3.709,0.973
				c0.774,0.611,1.296,1.62,1.296,2.809s-0.396,2.196-1.116,2.881c-0.937,0.882-2.323,1.278-3.943,1.278
				c-0.36,0-0.684-0.019-0.936-0.054v4.339h-2.719V345.091z M215.16,350.601c0.234,0.054,0.522,0.072,0.918,0.072
				c1.458,0,2.358-0.738,2.358-1.98c0-1.117-0.774-1.783-2.143-1.783c-0.558,0-0.937,0.055-1.134,0.108V350.601z"/>
			<path style="fill:#FFFFFF;" d="M230.119,351.933h-4.465v2.881h4.987v2.251h-7.742v-12.136h7.49v2.251h-4.735v2.521h4.465V351.933
				z"/>
			<path style="fill:#FFFFFF;" d="M232.511,345.091c0.882-0.144,2.196-0.252,3.655-0.252c1.801,0,3.061,0.27,3.925,0.954
				c0.72,0.576,1.116,1.423,1.116,2.539c0,1.548-1.098,2.61-2.143,2.988v0.055c0.846,0.342,1.314,1.152,1.621,2.269
				c0.378,1.368,0.756,2.953,0.99,3.421h-2.809c-0.198-0.342-0.486-1.332-0.846-2.827c-0.324-1.512-0.847-1.926-1.963-1.944h-0.828
				v4.771h-2.719V345.091z M235.23,350.313h1.08c1.369,0,2.179-0.685,2.179-1.747c0-1.116-0.756-1.674-2.017-1.692
				c-0.666,0-1.044,0.055-1.242,0.091V350.313z"/>
			<path style="fill:#FFFFFF;" d="M245.94,344.929v12.136h-2.755v-12.136H245.94z"/>
			<path style="fill:#FFFFFF;" d="M255.535,351.933h-4.465v2.881h4.987v2.251h-7.742v-12.136h7.49v2.251h-4.735v2.521h4.465V351.933
				z M253.158,342.067l1.836,2.214h-1.926l-0.918-1.116h-0.036l-0.9,1.116h-1.909l1.8-2.214H253.158z"/>
			<path style="fill:#FFFFFF;" d="M257.927,357.065v-12.136h3.205l2.521,4.447c0.72,1.278,1.44,2.791,1.98,4.159h0.054
				c-0.18-1.603-0.234-3.241-0.234-5.06v-3.547h2.521v12.136h-2.881l-2.593-4.682c-0.72-1.296-1.512-2.862-2.106-4.285l-0.054,0.019
				c0.072,1.602,0.108,3.312,0.108,5.293v3.655H257.927z"/>
			<path style="fill:#FFFFFF;" d="M279.26,356.723c-0.505,0.252-1.639,0.521-3.115,0.521c-4.195,0-6.355-2.61-6.355-6.067
				c0-4.142,2.952-6.446,6.626-6.446c1.422,0,2.502,0.288,2.988,0.54l-0.558,2.179c-0.559-0.233-1.333-0.45-2.305-0.45
				c-2.179,0-3.871,1.314-3.871,4.016c0,2.431,1.44,3.961,3.889,3.961c0.828,0,1.747-0.18,2.287-0.396L279.26,356.723z"/>
			<path style="fill:#FFFFFF;" d="M283.811,344.929v12.136h-2.755v-12.136H283.811z"/>
			<path style="fill:#FFFFFF;" d="M289.013,353.949l-0.864,3.115h-2.845l3.709-12.136h3.601l3.764,12.136h-2.953l-0.937-3.115
				H289.013z M292.093,351.897l-0.757-2.574c-0.216-0.721-0.432-1.62-0.612-2.341h-0.035c-0.181,0.721-0.36,1.639-0.559,2.341
				l-0.721,2.574H292.093z"/>
			<path style="fill:#FFFFFF;" d="M301.63,345.091c0.847-0.144,2.035-0.252,3.709-0.252c1.692,0,2.899,0.324,3.709,0.973
				c0.774,0.611,1.297,1.62,1.297,2.809s-0.396,2.196-1.116,2.881c-0.937,0.882-2.323,1.278-3.943,1.278
				c-0.36,0-0.685-0.019-0.937-0.054v4.339h-2.719V345.091z M304.348,350.601c0.234,0.054,0.522,0.072,0.919,0.072
				c1.458,0,2.358-0.738,2.358-1.98c0-1.117-0.774-1.783-2.143-1.783c-0.559,0-0.937,0.055-1.135,0.108V350.601z"/>
			<path style="fill:#FFFFFF;" d="M313.835,353.949l-0.864,3.115h-2.845l3.709-12.136h3.601l3.764,12.136h-2.953l-0.937-3.115
				H313.835z M316.914,351.897l-0.757-2.574c-0.216-0.721-0.432-1.62-0.612-2.341h-0.035c-0.181,0.721-0.36,1.639-0.559,2.341
				l-0.721,2.574H316.914z"/>
			<path style="fill:#FFFFFF;" d="M322.815,345.091c0.883-0.144,2.197-0.252,3.655-0.252c1.801,0,3.061,0.27,3.925,0.954
				c0.721,0.576,1.116,1.423,1.116,2.539c0,1.548-1.098,2.61-2.143,2.988v0.055c0.847,0.342,1.314,1.152,1.621,2.269
				c0.378,1.368,0.756,2.953,0.99,3.421h-2.809c-0.198-0.342-0.486-1.332-0.847-2.827c-0.324-1.512-0.847-1.926-1.963-1.944h-0.828
				v4.771h-2.719V345.091z M325.534,350.313h1.08c1.369,0,2.179-0.685,2.179-1.747c0-1.116-0.756-1.674-2.017-1.692
				c-0.666,0-1.044,0.055-1.242,0.091V350.313z"/>
			<path style="fill:#FFFFFF;" d="M336.478,353.949l-0.864,3.115h-2.845l3.709-12.136h3.601l3.764,12.136h-2.953l-0.937-3.115
				H336.478z M339.557,351.897l-0.757-2.574c-0.216-0.721-0.432-1.62-0.612-2.341h-0.035c-0.181,0.721-0.36,1.639-0.559,2.341
				l-0.721,2.574H339.557z"/>
			<path style="fill:#FFFFFF;" d="M360.204,350.87c0,3.979-2.413,6.393-5.96,6.393c-3.601,0-5.707-2.719-5.707-6.176
				c0-3.638,2.322-6.356,5.905-6.356C358.17,344.731,360.204,347.522,360.204,350.87z M351.435,351.032
				c0,2.377,1.116,4.052,2.953,4.052c1.854,0,2.917-1.765,2.917-4.123c0-2.179-1.045-4.052-2.936-4.052
				C352.515,346.909,351.435,348.674,351.435,351.032z"/>
			<path style="fill:#FFFFFF;" d="M374.549,356.723c-0.504,0.252-1.639,0.521-3.114,0.521c-4.195,0-6.356-2.61-6.356-6.067
				c0-4.142,2.953-6.446,6.626-6.446c1.423,0,2.503,0.288,2.989,0.54l-0.559,2.179c-0.558-0.233-1.332-0.45-2.305-0.45
				c-2.179,0-3.871,1.314-3.871,4.016c0,2.431,1.44,3.961,3.89,3.961c0.828,0,1.746-0.18,2.286-0.396L374.549,356.723z"/>
			<path style="fill:#FFFFFF;" d="M376.346,344.929h2.755v9.831h4.825v2.305h-7.58V344.929z"/>
			<path style="fill:#FFFFFF;" d="M388.299,344.929v12.136h-2.755v-12.136H388.299z"/>
			<path style="fill:#FFFFFF;" d="M397.894,351.933h-4.466v2.881h4.987v2.251h-7.742v-12.136h7.49v2.251h-4.735v2.521h4.466V351.933
				z"/>
			<path style="fill:#FFFFFF;" d="M400.286,357.065v-12.136h3.205l2.521,4.447c0.72,1.278,1.44,2.791,1.98,4.159h0.054
				c-0.18-1.603-0.233-3.241-0.233-5.06v-3.547h2.521v12.136h-2.881l-2.593-4.682c-0.721-1.296-1.513-2.862-2.106-4.285
				l-0.055,0.019c0.072,1.602,0.108,3.312,0.108,5.293v3.655H400.286z"/>
			<path style="fill:#FFFFFF;" d="M415.047,347.234h-3.26v-2.305h9.327v2.305h-3.313v9.831h-2.754V347.234z"/>
			<path style="fill:#FFFFFF;" d="M429.79,351.933h-4.466v2.881h4.987v2.251h-7.742v-12.136h7.49v2.251h-4.735v2.521h4.466V351.933z
				"/>
		</g>
	</g>
</g>
<g id="Layer_1">
</g>
</svg>
