<?xml version="1.0" encoding="iso-8859-1"?>
<!-- Generator: Adobe Illustrator 18.0.0, SVG Export Plug-In . SVG Version: 6.00 Build 0)  -->
<!DOCTYPE svg PUBLIC "-//W3C//DTD SVG 1.1//EN" "http://www.w3.org/Graphics/SVG/1.1/DTD/svg11.dtd">
<svg version="1.1" xmlns="http://www.w3.org/2000/svg" xmlns:xlink="http://www.w3.org/1999/xlink" x="0px" y="0px"
	 viewBox="0 0 531.453 494.191" style="enable-background:new 0 0 531.453 494.191;" xml:space="preserve">
<g id="page13-3">
	<g>
		
			<polygon style="fill:none;stroke:#000000;stroke-width:3.6793;stroke-linecap:round;stroke-linejoin:round;stroke-miterlimit:10;" points="
			43.446,14.904 69.635,406.333 475.632,438.052 529.613,82.648 		"/>
		<polygon style="opacity:0.8;fill:#E92325;" points="100.919,49.06 83.146,447.249 518.153,405.508 454.366,31.542 		"/>
		<polygon style="fill:#03B9DB;" points="23.262,106.379 387.98,82.648 390.61,211.407 20.388,285.052 		"/>
		
			<polyline style="fill:none;stroke:#000000;stroke-width:3.6793;stroke-linecap:round;stroke-linejoin:round;stroke-miterlimit:10;" points="
			45.65,296.379 1.84,305.543 4.782,122.591 		"/>
		<g>
			<g>
				<g>
					
						<line style="fill:none;stroke:#000000;stroke-width:3.6793;stroke-linecap:round;stroke-linejoin:round;stroke-miterlimit:10;" x1="20.388" y1="335.586" x2="43.803" y2="335.586"/>
					
						<line style="fill:none;stroke:#000000;stroke-width:3.6793;stroke-linecap:round;stroke-linejoin:round;stroke-miterlimit:10;" x1="32.095" y1="323.878" x2="32.095" y2="347.293"/>
				</g>
				<g>
					
						<line style="fill:none;stroke:#000000;stroke-width:3.6793;stroke-linecap:round;stroke-linejoin:round;stroke-miterlimit:10;" x1="274.822" y1="453.476" x2="298.237" y2="453.476"/>
					
						<line style="fill:none;stroke:#000000;stroke-width:3.6793;stroke-linecap:round;stroke-linejoin:round;stroke-miterlimit:10;" x1="286.53" y1="441.769" x2="286.53" y2="465.184"/>
				</g>
				
					<path style="fill:none;stroke:#000000;stroke-width:3.6793;stroke-linecap:round;stroke-linejoin:round;stroke-miterlimit:10;" d="
					M503.274,13.043c8.685,13.564-5.72,27.969-19.284,19.284c-0.931-0.596-1.73-1.395-2.325-2.326
					c-8.681-13.563,5.721-27.965,19.283-19.283C501.879,11.313,502.678,12.112,503.274,13.043z"/>
				<g>
					
						<line style="fill:none;stroke:#000000;stroke-width:3.6793;stroke-linecap:round;stroke-linejoin:round;stroke-miterlimit:10;" x1="211.98" y1="1.84" x2="298.237" y2="1.84"/>
					
						<line style="fill:none;stroke:#000000;stroke-width:3.6793;stroke-linecap:round;stroke-linejoin:round;stroke-miterlimit:10;" x1="264.348" y1="21.523" x2="319.935" y2="21.523"/>
				</g>
				
					<path style="fill:none;stroke:#000000;stroke-width:3.6793;stroke-linecap:round;stroke-linejoin:round;stroke-miterlimit:10;" d="
					M216.304,470.431c8.681,13.563-5.721,27.965-19.283,19.283c-0.931-0.596-1.73-1.395-2.326-2.325
					c-8.685-13.564,5.72-27.969,19.284-19.284C214.91,468.702,215.709,469.501,216.304,470.431z"/>
			</g>
		</g>
		<g>
			<path style="fill:#FFFFFF;" d="M44.098,183.713l-0.685,6.277l-5.484,0.896l3.326-24.564l6.942-1.135l11.079,22.209l-5.692,0.931
				l-2.787-5.71L44.098,183.713z M49.388,178.785l-2.27-4.726c-0.644-1.32-1.344-2.988-1.918-4.32l-0.069,0.011
				c-0.12,1.445-0.178,3.273-0.338,4.688l-0.577,5.191L49.388,178.785z"/>
			<path style="fill:#FFFFFF;" d="M78.609,183.56c-0.893,0.644-2.994,1.522-5.841,1.987c-8.087,1.322-13.075-3.029-14.165-9.694
				c-1.305-7.983,3.661-13.357,10.742-14.515c2.742-0.448,4.916-0.232,5.933,0.1l-0.39,4.376c-1.15-0.276-2.711-0.448-4.585-0.142
				c-4.2,0.687-7.049,3.753-6.197,8.961c0.766,4.686,4.024,7.182,8.745,6.41c1.598-0.261,3.311-0.897,4.284-1.484L78.609,183.56z"/>
			<path style="fill:#FFFFFF;" d="M100.612,168.38c1.254,7.671-2.638,13.083-9.476,14.201c-6.942,1.135-11.859-3.442-12.949-10.106
				c-1.146-7.012,2.475-12.986,9.382-14.115C94.755,157.184,99.556,161.924,100.612,168.38z M83.759,171.456
				c0.749,4.582,3.429,7.458,6.969,6.879c3.575-0.584,5.067-4.321,4.324-8.868c-0.687-4.2-3.29-7.481-6.935-6.886
				C84.542,163.166,83.015,166.909,83.759,171.456z"/>
			<path style="fill:#FFFFFF;" d="M124.357,167.564c-0.563-2.794-1.224-6.18-1.779-9.581L122.474,158
				c-0.242,3.104-0.669,6.595-1.123,9.485l-1.354,9.594l-4.131,0.675l-3.979-8.651c-1.212-2.617-2.555-5.819-3.61-8.783
				l-0.069,0.012c0.378,3.182,0.864,6.808,1.167,9.752l1.036,8.954l-4.895,0.8l-2.332-23.639l7.047-1.152l3.568,7.436
				c1.171,2.588,2.376,5.385,3.346,8.042l0.104-0.017c0.217-2.814,0.51-6.035,0.849-8.764l1.229-8.184l6.907-1.129l5.107,23.186
				l-5.171,0.845L124.357,167.564z"/>
			<path style="fill:#FFFFFF;" d="M131.631,151.87c1.586-0.545,3.843-1.128,7.07-1.656c3.264-0.534,5.691-0.288,7.457,0.706
				c1.686,0.937,3.011,2.715,3.385,5.006c0.375,2.291-0.072,4.36-1.244,5.905c-1.527,1.997-4.075,3.196-7.199,3.707
				c-0.694,0.113-1.324,0.182-1.822,0.191l1.367,8.365l-5.24,0.857L131.631,151.87z M138.607,161.633
				c0.469,0.031,1.03-0.024,1.793-0.149c2.812-0.459,4.314-2.166,3.923-4.562c-0.352-2.151-2.054-3.193-4.692-2.762
				c-1.075,0.176-1.787,0.399-2.152,0.565L138.607,161.633z"/>
			<path style="fill:#FFFFFF;" d="M157.956,165.1l-0.684,6.277l-5.485,0.896l3.326-24.564l6.943-1.135l11.078,22.209l-5.692,0.931
				l-2.787-5.709L157.956,165.1z M163.246,160.173l-2.27-4.726c-0.645-1.319-1.344-2.988-1.918-4.32l-0.069,0.012
				c-0.12,1.445-0.178,3.272-0.339,4.688l-0.576,5.19L163.246,160.173z"/>
			<path style="fill:#FFFFFF;" d="M176.26,168.274l-3.824-23.396l6.179-1.01l6.261,7.78c1.791,2.237,3.656,4.926,5.129,7.395
				l0.104-0.017c-0.852-3.032-1.473-6.175-2.045-9.68l-1.118-6.839l4.859-0.794l3.824,23.396l-5.555,0.908l-6.474-8.207
				c-1.797-2.272-3.817-5.043-5.411-7.598l-0.099,0.052c0.644,3.067,1.252,6.353,1.877,10.171l1.151,7.046L176.26,168.274z"/>
			<path style="fill:#FFFFFF;" d="M201.697,140.095l1.47,8.991l8.713-1.424l-1.47-8.991l5.276-0.862l3.824,23.396l-5.276,0.862
				l-1.6-9.788l-8.713,1.424l1.6,9.788l-5.311,0.868l-3.824-23.396L201.697,140.095z"/>
			<path style="fill:#FFFFFF;" d="M228.596,153.553l-0.684,6.277l-5.484,0.897l3.325-24.564l6.943-1.135l11.078,22.209l-5.692,0.931
				l-2.787-5.71L228.596,153.553z M233.887,148.626l-2.27-4.726c-0.645-1.319-1.344-2.988-1.918-4.32l-0.07,0.011
				c-0.119,1.445-0.177,3.272-0.338,4.688l-0.576,5.191L233.887,148.626z"/>
			<path style="fill:#FFFFFF;" d="M265.221,144.537c-0.564-2.794-1.224-6.18-1.779-9.581l-0.104,0.017
				c-0.242,3.104-0.669,6.595-1.122,9.485l-1.355,9.595l-4.131,0.675l-3.979-8.651c-1.211-2.617-2.554-5.819-3.609-8.783
				l-0.069,0.011c0.377,3.182,0.863,6.808,1.167,9.752l1.035,8.954l-4.894,0.8l-2.332-23.639l7.047-1.152l3.567,7.436
				c1.171,2.588,2.377,5.385,3.346,8.042l0.104-0.017c0.218-2.814,0.511-6.035,0.849-8.763l1.229-8.184l6.907-1.129l5.108,23.186
				l-5.172,0.845L265.221,144.537z"/>
			<path style="fill:#FFFFFF;" d="M288.569,139.759l-8.608,1.407l0.908,5.553l9.615-1.571l0.709,4.339l-14.926,2.439l-3.824-23.396
				l14.44-2.36l0.709,4.339l-9.13,1.492l0.795,4.86l8.608-1.407L288.569,139.759z"/>
			<path style="fill:#FFFFFF;" d="M294.805,148.895L290.98,125.5l6.179-1.01l6.261,7.78c1.791,2.237,3.656,4.926,5.129,7.395
				l0.104-0.017c-0.852-3.032-1.472-6.175-2.044-9.68l-1.118-6.839l4.859-0.794l3.824,23.396l-5.555,0.908l-6.474-8.208
				c-1.797-2.272-3.817-5.043-5.411-7.598l-0.099,0.053c0.644,3.067,1.252,6.353,1.877,10.171l1.151,7.046L294.805,148.895z"/>
			<path style="fill:#FFFFFF;" d="M320.17,125.29l-6.283,1.027l-0.726-4.443l17.98-2.939l0.726,4.443l-6.387,1.044l3.099,18.952
				l-5.311,0.868L320.17,125.29z"/>
			<path style="fill:#FFFFFF;" d="M356.236,126.593c1.254,7.671-2.636,13.083-9.475,14.201c-6.942,1.135-11.859-3.442-12.949-10.106
				c-1.146-7.012,2.475-12.986,9.382-14.115C350.38,115.398,355.181,120.137,356.236,126.593z M339.384,129.67
				c0.749,4.582,3.429,7.458,6.97,6.879c3.574-0.584,5.066-4.32,4.322-8.867c-0.687-4.2-3.289-7.481-6.934-6.886
				C340.167,121.38,338.64,125.123,339.384,129.67z"/>
			<path style="fill:#FFFFFF;" d="M144.22,192.582c1.893-0.631,4.398-1.219,7.07-1.656c4.443-0.726,7.455-0.398,9.99,0.934
				c2.725,1.408,4.722,4.04,5.396,8.168c0.732,4.479-0.394,7.835-2.337,10.113c-2.131,2.451-5.72,4.035-10.302,4.784
				c-2.743,0.448-4.714,0.592-6.062,0.634L144.22,192.582z M152.65,210.803c0.47,0.031,1.198-0.088,1.857-0.196
				c4.795-0.749,7.488-3.897,6.575-9.485c-0.76-4.866-4.026-6.969-8.573-6.226c-1.18,0.193-1.927,0.422-2.361,0.6L152.65,210.803z"
				/>
			<path style="fill:#FFFFFF;" d="M191.619,196.273c1.254,7.671-2.638,13.083-9.477,14.2c-6.941,1.135-11.859-3.442-12.948-10.106
				c-1.146-7.012,2.475-12.986,9.382-14.115C185.761,185.077,190.563,189.817,191.619,196.273z M174.765,199.349
				c0.748,4.582,3.429,7.458,6.969,6.879c3.575-0.584,5.066-4.32,4.323-8.867c-0.687-4.2-3.29-7.481-6.934-6.886
				C175.548,191.059,174.021,194.802,174.765,199.349z"/>
			<path style="fill:#FFFFFF;" d="M204.055,206.5l-3.824-23.396l6.179-1.01l6.261,7.779c1.791,2.238,3.656,4.927,5.129,7.395
				l0.104-0.017c-0.852-3.032-1.472-6.174-2.045-9.679l-1.117-6.839l4.859-0.794l3.824,23.396l-5.555,0.908l-6.474-8.208
				c-1.797-2.272-3.817-5.043-5.412-7.598l-0.098,0.051c0.644,3.067,1.252,6.354,1.876,10.172l1.151,7.046L204.055,206.5z"/>
			<path style="fill:#FFFFFF;" d="M224.232,179.502c1.586-0.546,3.844-1.128,7.071-1.656c3.264-0.534,5.69-0.288,7.456,0.706
				c1.687,0.937,3.012,2.715,3.386,5.006s-0.072,4.36-1.245,5.905c-1.526,1.997-4.074,3.196-7.199,3.707
				c-0.693,0.113-1.324,0.182-1.821,0.191l1.367,8.365l-5.241,0.857L224.232,179.502z M231.21,189.265
				c0.469,0.031,1.029-0.025,1.793-0.15c2.812-0.459,4.314-2.165,3.923-4.561c-0.352-2.151-2.054-3.193-4.692-2.762
				c-1.075,0.176-1.787,0.399-2.152,0.565L231.21,189.265z"/>
			<path style="fill:#FFFFFF;" d="M247.457,193.81c1.542,0.496,3.849,0.867,6.104,0.498c2.43-0.397,3.549-1.613,3.3-3.14
				c-0.238-1.459-1.485-2.109-4.461-2.657c-4.109-0.718-6.995-2.456-7.552-5.858c-0.652-3.99,2.181-7.59,7.7-8.493
				c2.638-0.432,4.673-0.192,6.162,0.205l-0.481,4.462c-1.011-0.298-2.785-0.686-5.076-0.312c-2.291,0.375-3.231,1.598-3.032,2.812
				c0.244,1.493,1.671,1.937,4.878,2.59c4.379,0.851,6.676,2.686,7.215,5.983c0.641,3.922-1.834,7.748-8.256,8.797
				c-2.673,0.437-5.425,0.175-6.862-0.338L247.457,193.81z"/>
		</g>
		<g>
			<path style="fill:#FFFFFF;" d="M121.994,300.74c-1.026,1.656-1.818,4.069-1.818,7.292c0,3.168,0.811,5.563,1.818,7.256h-1.908
				c-0.973-1.405-2.053-3.8-2.053-7.256c0.018-3.511,1.08-5.888,2.053-7.292H121.994z"/>
			<path style="fill:#FFFFFF;" d="M127.429,313.865V301.73h3.205l2.521,4.447c0.721,1.278,1.44,2.791,1.98,4.159h0.055
				c-0.181-1.602-0.234-3.241-0.234-5.059v-3.547h2.521v12.135h-2.881l-2.593-4.681c-0.72-1.296-1.512-2.862-2.106-4.285
				l-0.054,0.019c0.072,1.602,0.107,3.312,0.107,5.292v3.655H127.429z"/>
			<path style="fill:#FFFFFF;" d="M147.069,308.734h-4.466v2.88h4.987v2.251h-7.742V301.73h7.49v2.251h-4.735v2.521h4.466V308.734z"
				/>
			<path style="fill:#FFFFFF;" d="M151.891,304.035h-3.26v-2.305h9.327v2.305h-3.313v9.831h-2.754V304.035z"/>
			<path style="fill:#FFFFFF;" d="M163.05,301.892c0.847-0.144,2.035-0.252,3.709-0.252c1.692,0,2.899,0.324,3.709,0.973
				c0.774,0.611,1.297,1.62,1.297,2.809s-0.396,2.196-1.116,2.881c-0.937,0.882-2.323,1.278-3.943,1.278
				c-0.36,0-0.685-0.019-0.937-0.054v4.339h-2.719V301.892z M165.768,307.402c0.234,0.054,0.522,0.072,0.919,0.072
				c1.458,0,2.358-0.738,2.358-1.98c0-1.117-0.774-1.783-2.143-1.783c-0.559,0-0.937,0.055-1.135,0.108V307.402z"/>
			<path style="fill:#FFFFFF;" d="M173.508,301.892c0.883-0.144,2.197-0.252,3.655-0.252c1.801,0,3.061,0.27,3.925,0.954
				c0.721,0.576,1.116,1.423,1.116,2.539c0,1.548-1.098,2.61-2.143,2.988v0.055c0.847,0.342,1.314,1.152,1.621,2.268
				c0.378,1.368,0.756,2.953,0.99,3.421h-2.809c-0.198-0.342-0.486-1.332-0.847-2.827c-0.324-1.512-0.847-1.925-1.963-1.944h-0.828
				v4.771h-2.719V301.892z M176.226,307.114h1.08c1.369,0,2.179-0.685,2.179-1.747c0-1.116-0.756-1.674-2.017-1.692
				c-0.666,0-1.044,0.055-1.242,0.091V307.114z"/>
			<path style="fill:#FFFFFF;" d="M195.22,307.672c0,3.979-2.413,6.392-5.96,6.392c-3.602,0-5.708-2.719-5.708-6.175
				c0-3.638,2.323-6.356,5.906-6.356C193.184,301.532,195.22,304.323,195.22,307.672z M186.451,307.834
				c0,2.376,1.116,4.051,2.952,4.051c1.854,0,2.917-1.765,2.917-4.123c0-2.179-1.044-4.052-2.935-4.052
				C187.531,303.711,186.451,305.475,186.451,307.834z"/>
			<path style="fill:#FFFFFF;" d="M207.279,309.22c-0.055-1.458-0.108-3.223-0.108-4.987h-0.054
				c-0.379,1.549-0.883,3.277-1.351,4.699l-1.477,4.735h-2.143l-1.297-4.699c-0.396-1.423-0.81-3.151-1.098-4.735h-0.036
				c-0.072,1.639-0.126,3.511-0.216,5.023l-0.217,4.609h-2.538l0.773-12.135h3.655l1.188,4.052c0.378,1.404,0.756,2.916,1.026,4.338
				h0.054c0.343-1.404,0.757-3.006,1.152-4.357l1.297-4.033h3.583l0.666,12.135h-2.683L207.279,309.22z"/>
			<path style="fill:#FFFFFF;" d="M223.353,307.672c0,3.979-2.413,6.392-5.96,6.392c-3.602,0-5.708-2.719-5.708-6.175
				c0-3.638,2.323-6.356,5.906-6.356C221.318,301.532,223.353,304.323,223.353,307.672z M214.585,307.834
				c0,2.376,1.116,4.051,2.952,4.051c1.854,0,2.917-1.765,2.917-4.123c0-2.179-1.044-4.052-2.935-4.052
				C215.665,303.711,214.585,305.475,214.585,307.834z"/>
			<path style="fill:#FFFFFF;" d="M226.986,304.035h-3.26v-2.305h9.327v2.305h-3.313v9.831h-2.754V304.035z"/>
			<path style="fill:#FFFFFF;" d="M241.729,308.734h-4.466v2.88h4.987v2.251h-7.742V301.73h7.49v2.251h-4.735v2.521h4.466V308.734z"
				/>
			<path style="fill:#FFFFFF;" d="M244.121,301.892c0.882-0.144,2.196-0.252,3.654-0.252c1.801,0,3.062,0.27,3.926,0.954
				c0.72,0.576,1.116,1.423,1.116,2.539c0,1.548-1.099,2.61-2.143,2.988v0.055c0.846,0.342,1.314,1.152,1.62,2.268
				c0.378,1.368,0.757,2.953,0.99,3.421h-2.809c-0.198-0.342-0.486-1.332-0.846-2.827c-0.324-1.512-0.847-1.925-1.963-1.944h-0.828
				v4.771h-2.719V301.892z M246.84,307.114h1.08c1.368,0,2.179-0.685,2.179-1.747c0-1.116-0.756-1.674-2.017-1.692
				c-0.666,0-1.044,0.055-1.242,0.091V307.114z"/>
			<path style="fill:#FFFFFF;" d="M258.52,311.038c0.738,0.379,1.872,0.757,3.043,0.757c1.26,0,1.927-0.522,1.927-1.314
				c0-0.757-0.576-1.188-2.035-1.71c-2.017-0.702-3.331-1.818-3.331-3.583c0-2.07,1.729-3.655,4.592-3.655
				c1.368,0,2.377,0.288,3.097,0.612l-0.612,2.215c-0.486-0.234-1.351-0.576-2.539-0.576c-1.188,0-1.764,0.54-1.764,1.17
				c0,0.774,0.684,1.117,2.25,1.711c2.143,0.792,3.151,1.908,3.151,3.619c0,2.034-1.566,3.763-4.897,3.763
				c-1.387,0-2.755-0.359-3.439-0.738L258.52,311.038z"/>
			<path style="fill:#FFFFFF;" d="M277.062,313.524c-0.504,0.252-1.639,0.521-3.114,0.521c-4.195,0-6.356-2.61-6.356-6.067
				c0-4.142,2.953-6.446,6.626-6.446c1.423,0,2.503,0.288,2.989,0.54l-0.559,2.179c-0.558-0.233-1.332-0.45-2.305-0.45
				c-2.179,0-3.871,1.314-3.871,4.016c0,2.43,1.44,3.96,3.89,3.96c0.828,0,1.746-0.18,2.286-0.396L277.062,313.524z"/>
			<path style="fill:#FFFFFF;" d="M289.43,307.672c0,3.979-2.413,6.392-5.96,6.392c-3.602,0-5.708-2.719-5.708-6.175
				c0-3.638,2.323-6.356,5.906-6.356C287.394,301.532,289.43,304.323,289.43,307.672z M280.661,307.834
				c0,2.376,1.116,4.051,2.952,4.051c1.854,0,2.917-1.765,2.917-4.123c0-2.179-1.044-4.052-2.935-4.052
				C281.741,303.711,280.661,305.475,280.661,307.834z"/>
			<path style="fill:#FFFFFF;" d="M291.226,301.892c0.882-0.144,2.196-0.252,3.654-0.252c1.801,0,3.062,0.27,3.926,0.954
				c0.72,0.576,1.116,1.423,1.116,2.539c0,1.548-1.099,2.61-2.143,2.988v0.055c0.846,0.342,1.314,1.152,1.62,2.268
				c0.378,1.368,0.757,2.953,0.99,3.421h-2.809c-0.198-0.342-0.486-1.332-0.846-2.827c-0.324-1.512-0.847-1.925-1.963-1.944h-0.828
				v4.771h-2.719V301.892z M293.945,307.114h1.08c1.368,0,2.179-0.685,2.179-1.747c0-1.116-0.756-1.674-2.017-1.692
				c-0.666,0-1.044,0.055-1.242,0.091V307.114z"/>
			<path style="fill:#FFFFFF;" d="M309.12,308.734h-4.465v2.88h4.987v2.251H301.9V301.73h7.49v2.251h-4.735v2.521h4.465V308.734z"/>
			<path style="fill:#FFFFFF;" d="M310.953,315.288c0.99-1.675,1.818-4.105,1.818-7.292c0-3.187-0.81-5.581-1.818-7.256h1.908
				c0.955,1.387,2.053,3.745,2.053,7.274c-0.018,3.493-1.098,5.851-2.053,7.274H310.953z"/>
			<path style="fill:#FFFFFF;" d="M331.171,315.954c-1.729-0.504-3.169-1.026-4.79-1.711c-0.27-0.107-0.558-0.162-0.846-0.18
				c-2.737-0.181-5.294-2.197-5.294-6.158c0-3.637,2.305-6.374,5.924-6.374c3.709,0,5.744,2.81,5.744,6.122
				c0,2.754-1.278,4.699-2.881,5.419v0.072c0.936,0.27,1.98,0.485,2.935,0.684L331.171,315.954z M329.01,307.762
				c0-2.215-1.044-4.052-2.917-4.052c-1.872,0-2.952,1.837-2.952,4.105c-0.019,2.304,1.098,4.069,2.935,4.069
				C327.93,311.885,329.01,310.138,329.01,307.762z"/>
			<path style="fill:#FFFFFF;" d="M336.441,301.73v6.986c0,2.088,0.792,3.15,2.197,3.15c1.44,0,2.232-1.008,2.232-3.15v-6.986h2.736
				v6.807c0,3.744-1.891,5.527-5.06,5.527c-3.061,0-4.861-1.692-4.861-5.563v-6.771H336.441z"/>
			<path style="fill:#FFFFFF;" d="M353.201,308.734h-4.465v2.88h4.987v2.251h-7.742V301.73h7.49v2.251h-4.735v2.521h4.465V308.734z"
				/>
			<path style="fill:#FFFFFF;" d="M361.983,301.73v12.135h-2.755V301.73H361.983z"/>
			<path style="fill:#FFFFFF;" d="M364.358,313.865V301.73h3.205l2.521,4.447c0.72,1.278,1.44,2.791,1.98,4.159h0.054
				c-0.18-1.602-0.233-3.241-0.233-5.059v-3.547h2.521v12.135h-2.881l-2.593-4.681c-0.721-1.296-1.513-2.862-2.106-4.285
				l-0.055,0.019c0.072,1.602,0.108,3.312,0.108,5.292v3.655H364.358z"/>
			<path style="fill:#FFFFFF;" d="M376.778,301.892c1.008-0.162,2.322-0.252,3.709-0.252c2.305,0,3.799,0.414,4.97,1.296
				c1.26,0.937,2.052,2.431,2.052,4.574c0,2.322-0.846,3.924-2.017,4.915c-1.278,1.062-3.223,1.566-5.6,1.566
				c-1.422,0-2.431-0.09-3.114-0.18V301.892z M379.533,311.795c0.233,0.054,0.611,0.054,0.954,0.054
				c2.484,0.018,4.105-1.351,4.105-4.249c0.018-2.521-1.459-3.854-3.817-3.854c-0.612,0-1.009,0.054-1.242,0.108V311.795z"/>
			<path style="fill:#FFFFFF;" d="M392.061,301.73v12.135h-2.755V301.73H392.061z"/>
			<path style="fill:#FFFFFF;" d="M403.348,313.524c-0.504,0.252-1.639,0.521-3.114,0.521c-4.195,0-6.356-2.61-6.356-6.067
				c0-4.142,2.953-6.446,6.626-6.446c1.423,0,2.503,0.288,2.989,0.54l-0.559,2.179c-0.558-0.233-1.332-0.45-2.305-0.45
				c-2.179,0-3.871,1.314-3.871,4.016c0,2.43,1.44,3.96,3.89,3.96c0.828,0,1.746-0.18,2.286-0.396L403.348,313.524z"/>
			<path style="fill:#FFFFFF;" d="M408.152,310.75l-0.864,3.115h-2.845l3.709-12.135h3.602l3.763,12.135h-2.952l-0.937-3.115
				H408.152z M411.231,308.698l-0.756-2.574c-0.216-0.721-0.433-1.62-0.612-2.341h-0.036c-0.18,0.721-0.36,1.639-0.559,2.341
				l-0.72,2.574H411.231z"/>
			<path style="fill:#FFFFFF;" d="M423.596,310.75l-0.864,3.115h-2.845l3.709-12.135h3.602l3.763,12.135h-2.952l-0.937-3.115
				H423.596z M426.675,308.698l-0.756-2.574c-0.216-0.721-0.433-1.62-0.612-2.341h-0.036c-0.18,0.721-0.36,1.639-0.559,2.341
				l-0.72,2.574H426.675z"/>
			<path style="fill:#FFFFFF;" d="M120.896,323.329v12.136h-2.755v-12.136H120.896z"/>
			<path style="fill:#FFFFFF;" d="M123.271,335.465v-12.136h3.205l2.521,4.447c0.72,1.278,1.44,2.791,1.98,4.159h0.054
				c-0.18-1.603-0.233-3.241-0.233-5.06v-3.547h2.521v12.136h-2.881l-2.593-4.682c-0.721-1.296-1.513-2.862-2.106-4.285
				l-0.055,0.019c0.072,1.602,0.108,3.312,0.108,5.293v3.655H123.271z"/>
			<path style="fill:#FFFFFF;" d="M138.032,325.634h-3.26v-2.305h9.327v2.305h-3.313v9.831h-2.754V325.634z"/>
			<path style="fill:#FFFFFF;" d="M152.775,330.333h-4.466v2.881h4.987v2.251h-7.742v-12.136h7.49v2.251h-4.735v2.521h4.466V330.333
				z"/>
			<path style="fill:#FFFFFF;" d="M155.167,335.465v-12.136h3.205l2.521,4.447c0.72,1.278,1.44,2.791,1.98,4.159h0.054
				c-0.18-1.603-0.233-3.241-0.233-5.06v-3.547h2.521v12.136h-2.881l-2.593-4.682c-0.721-1.296-1.513-2.862-2.106-4.285
				l-0.055,0.019c0.072,1.602,0.108,3.312,0.108,5.293v3.655H155.167z"/>
			<path style="fill:#FFFFFF;" d="M176.499,335.123c-0.486,0.233-1.53,0.504-2.898,0.521l-0.307,0.612
				c0.702,0.162,1.314,0.631,1.314,1.477c0,1.242-1.116,1.656-2.143,1.656c-0.54,0-1.134-0.107-1.548-0.342l0.359-1.116
				c0.271,0.144,0.685,0.252,1.009,0.252c0.36,0,0.648-0.126,0.648-0.432c0-0.379-0.414-0.576-1.423-0.685l0.685-1.494
				c-3.421-0.45-5.168-2.881-5.168-5.996c0-4.142,2.953-6.446,6.626-6.446c1.423,0,2.503,0.288,2.989,0.54l-0.559,2.179
				c-0.558-0.233-1.332-0.45-2.305-0.45c-2.179,0-3.871,1.314-3.871,4.016c0,2.431,1.44,3.961,3.89,3.961
				c0.828,0,1.746-0.18,2.286-0.396L176.499,335.123z"/>
			<path style="fill:#FFFFFF;" d="M181.303,332.35l-0.864,3.115h-2.845l3.709-12.136h3.602l3.763,12.136h-2.952l-0.937-3.115
				H181.303z M180.726,322.591c-0.054-1.513,0.522-2.286,1.387-2.286c0.486,0,0.811,0.162,1.152,0.359
				c0.288,0.181,0.559,0.343,0.792,0.343c0.307,0,0.414-0.181,0.486-0.774h1.225c0.054,1.62-0.469,2.251-1.423,2.251
				c-0.486,0-0.846-0.162-1.17-0.343c-0.307-0.162-0.522-0.324-0.757-0.324c-0.233,0-0.396,0.271-0.432,0.774H180.726z
				 M184.382,330.297l-0.756-2.574c-0.216-0.721-0.433-1.62-0.612-2.341h-0.036c-0.18,0.721-0.36,1.639-0.559,2.341l-0.72,2.574
				H184.382z"/>
			<path style="fill:#FFFFFF;" d="M200.943,329.271c0,3.979-2.413,6.393-5.96,6.393c-3.601,0-5.707-2.719-5.707-6.176
				c0-3.638,2.322-6.356,5.905-6.356C198.909,323.131,200.943,325.922,200.943,329.271z M192.175,329.433
				c0,2.377,1.116,4.052,2.953,4.052c1.854,0,2.917-1.765,2.917-4.123c0-2.179-1.045-4.052-2.936-4.052
				C193.255,325.31,192.175,327.074,192.175,329.433z"/>
			<path style="fill:#FFFFFF;" d="M206.376,323.491c1.008-0.162,2.322-0.252,3.709-0.252c2.305,0,3.799,0.414,4.97,1.296
				c1.26,0.937,2.052,2.431,2.052,4.574c0,2.322-0.846,3.925-2.017,4.915c-1.278,1.062-3.223,1.566-5.6,1.566
				c-1.422,0-2.431-0.09-3.114-0.18V323.491z M209.131,333.395c0.233,0.054,0.611,0.054,0.954,0.054
				c2.484,0.018,4.105-1.351,4.105-4.249c0.018-2.521-1.459-3.854-3.817-3.854c-0.612,0-1.009,0.054-1.242,0.108V333.395z"/>
			<path style="fill:#FFFFFF;" d="M230.013,329.271c0,3.979-2.413,6.393-5.96,6.393c-3.601,0-5.707-2.719-5.707-6.176
				c0-3.638,2.322-6.356,5.905-6.356C227.978,323.131,230.013,325.922,230.013,329.271z M221.244,329.433
				c0,2.377,1.116,4.052,2.953,4.052c1.854,0,2.917-1.765,2.917-4.123c0-2.179-1.045-4.052-2.936-4.052
				C222.324,325.31,221.244,327.074,221.244,329.433z"/>
			<path style="fill:#FFFFFF;" d="M244.357,335.123c-0.504,0.252-1.639,0.521-3.114,0.521c-4.195,0-6.356-2.61-6.356-6.067
				c0-4.142,2.953-6.446,6.626-6.446c1.423,0,2.503,0.288,2.989,0.54l-0.559,2.179c-0.558-0.233-1.332-0.45-2.305-0.45
				c-2.179,0-3.871,1.314-3.871,4.016c0,2.431,1.44,3.961,3.89,3.961c0.828,0,1.746-0.18,2.286-0.396L244.357,335.123z"/>
			<path style="fill:#FFFFFF;" d="M246.155,323.329h2.755v9.831h4.825v2.305h-7.58V323.329z"/>
			<path style="fill:#FFFFFF;" d="M258.107,323.329v12.136h-2.755v-12.136H258.107z"/>
			<path style="fill:#FFFFFF;" d="M267.703,330.333h-4.466v2.881h4.987v2.251h-7.742v-12.136h7.49v2.251h-4.735v2.521h4.466V330.333
				z"/>
			<path style="fill:#FFFFFF;" d="M270.095,335.465v-12.136h3.205l2.521,4.447c0.72,1.278,1.44,2.791,1.98,4.159h0.054
				c-0.18-1.603-0.233-3.241-0.233-5.06v-3.547h2.521v12.136h-2.881l-2.593-4.682c-0.721-1.296-1.513-2.862-2.106-4.285
				l-0.055,0.019c0.072,1.602,0.108,3.312,0.108,5.293v3.655H270.095z"/>
			<path style="fill:#FFFFFF;" d="M284.855,325.634h-3.26v-2.305h9.327v2.305h-3.313v9.831h-2.754V325.634z"/>
			<path style="fill:#FFFFFF;" d="M299.598,330.333h-4.466v2.881h4.987v2.251h-7.742v-12.136h7.49v2.251h-4.735v2.521h4.466V330.333
				z"/>
			<path style="fill:#FFFFFF;" d="M312.846,330.333h-4.465v2.881h4.987v2.251h-7.742v-12.136h7.49v2.251h-4.735v2.521h4.465V330.333
				z"/>
			<path style="fill:#FFFFFF;" d="M325.501,330.82c-0.055-1.458-0.108-3.223-0.108-4.987h-0.054
				c-0.379,1.549-0.883,3.277-1.351,4.699l-1.477,4.735h-2.143l-1.297-4.699c-0.396-1.423-0.81-3.151-1.098-4.735h-0.036
				c-0.072,1.639-0.126,3.511-0.216,5.023l-0.217,4.609h-2.538l0.773-12.136h3.655l1.188,4.052c0.378,1.404,0.756,2.916,1.026,4.339
				h0.054c0.343-1.404,0.757-3.007,1.152-4.357l1.297-4.033h3.583l0.666,12.136h-2.683L325.501,330.82z"/>
			<path style="fill:#FFFFFF;" d="M334.101,323.491c0.882-0.144,2.196-0.252,3.654-0.252c1.801,0,3.062,0.27,3.926,0.954
				c0.72,0.576,1.116,1.423,1.116,2.539c0,1.548-1.099,2.61-2.143,2.988v0.055c0.846,0.342,1.314,1.152,1.62,2.269
				c0.378,1.368,0.757,2.953,0.99,3.421h-2.809c-0.198-0.342-0.486-1.332-0.846-2.827c-0.324-1.512-0.847-1.926-1.963-1.944h-0.828
				v4.771h-2.719V323.491z M336.82,328.713h1.08c1.368,0,2.179-0.685,2.179-1.747c0-1.116-0.756-1.674-2.017-1.692
				c-0.666,0-1.044,0.055-1.242,0.091V328.713z"/>
			<path style="fill:#FFFFFF;" d="M351.995,330.333h-4.465v2.881h4.987v2.251h-7.742v-12.136h7.49v2.251h-4.735v2.521h4.465V330.333
				z"/>
			<path style="fill:#FFFFFF;" d="M363.3,335.123c-0.505,0.252-1.639,0.521-3.115,0.521c-4.195,0-6.355-2.61-6.355-6.067
				c0-4.142,2.952-6.446,6.626-6.446c1.422,0,2.502,0.288,2.988,0.54l-0.558,2.179c-0.559-0.233-1.333-0.45-2.305-0.45
				c-2.179,0-3.871,1.314-3.871,4.016c0,2.431,1.44,3.961,3.889,3.961c0.828,0,1.747-0.18,2.287-0.396L363.3,335.123z"/>
			<path style="fill:#FFFFFF;" d="M375.666,329.271c0,3.979-2.413,6.393-5.96,6.393c-3.601,0-5.707-2.719-5.707-6.176
				c0-3.638,2.322-6.356,5.905-6.356C373.632,323.131,375.666,325.922,375.666,329.271z M366.897,329.433
				c0,2.377,1.116,4.052,2.953,4.052c1.854,0,2.917-1.765,2.917-4.123c0-2.179-1.045-4.052-2.936-4.052
				C367.977,325.31,366.897,327.074,366.897,329.433z"/>
			<path style="fill:#FFFFFF;" d="M387.725,330.82c-0.054-1.458-0.108-3.223-0.108-4.987h-0.054
				c-0.378,1.549-0.882,3.277-1.351,4.699l-1.477,4.735h-2.143l-1.296-4.699c-0.396-1.423-0.811-3.151-1.099-4.735h-0.036
				c-0.071,1.639-0.126,3.511-0.216,5.023l-0.216,4.609h-2.539l0.774-12.136h3.655l1.188,4.052c0.378,1.404,0.756,2.916,1.026,4.339
				h0.054c0.342-1.404,0.756-3.007,1.152-4.357l1.296-4.033h3.583l0.667,12.136h-2.684L387.725,330.82z"/>
			<path style="fill:#FFFFFF;" d="M399.911,330.333h-4.466v2.881h4.987v2.251h-7.742v-12.136h7.49v2.251h-4.735v2.521h4.466V330.333
				z"/>
			<path style="fill:#FFFFFF;" d="M402.303,335.465v-12.136h3.205l2.521,4.447c0.72,1.278,1.44,2.791,1.98,4.159h0.054
				c-0.18-1.603-0.233-3.241-0.233-5.06v-3.547h2.521v12.136h-2.881l-2.593-4.682c-0.721-1.296-1.513-2.862-2.106-4.285
				l-0.055,0.019c0.072,1.602,0.108,3.312,0.108,5.293v3.655H402.303z"/>
			<path style="fill:#FFFFFF;" d="M414.722,323.491c1.008-0.162,2.322-0.252,3.709-0.252c2.305,0,3.799,0.414,4.97,1.296
				c1.26,0.937,2.052,2.431,2.052,4.574c0,2.322-0.846,3.925-2.017,4.915c-1.278,1.062-3.223,1.566-5.6,1.566
				c-1.422,0-2.431-0.09-3.114-0.18V323.491z M417.477,333.395c0.233,0.054,0.611,0.054,0.954,0.054
				c2.484,0.018,4.105-1.351,4.105-4.249c0.018-2.521-1.459-3.854-3.817-3.854c-0.612,0-1.009,0.054-1.242,0.108V333.395z"/>
			<path style="fill:#FFFFFF;" d="M429.789,332.35l-0.864,3.115h-2.845l3.709-12.136h3.602l3.763,12.136h-2.952l-0.937-3.115
				H429.789z M432.868,330.297l-0.756-2.574c-0.216-0.721-0.433-1.62-0.612-2.341h-0.036c-0.18,0.721-0.36,1.639-0.559,2.341
				l-0.72,2.574H432.868z"/>
			<path style="fill:#FFFFFF;" d="M438.77,323.491c0.882-0.144,2.196-0.252,3.654-0.252c1.801,0,3.062,0.27,3.926,0.954
				c0.72,0.576,1.116,1.423,1.116,2.539c0,1.548-1.099,2.61-2.143,2.988v0.055c0.846,0.342,1.314,1.152,1.62,2.269
				c0.378,1.368,0.757,2.953,0.99,3.421h-2.809c-0.198-0.342-0.486-1.332-0.846-2.827c-0.324-1.512-0.847-1.926-1.963-1.944h-0.828
				v4.771h-2.719V323.491z M441.489,328.713h1.08c1.368,0,2.179-0.685,2.179-1.747c0-1.116-0.756-1.674-2.017-1.692
				c-0.666,0-1.044,0.055-1.242,0.091V328.713z"/>
			<path style="fill:#FFFFFF;" d="M120.968,353.949l-0.864,3.115h-2.845l3.709-12.136h3.602l3.763,12.136h-2.952l-0.937-3.115
				H120.968z M124.047,351.897l-0.756-2.574c-0.216-0.721-0.433-1.62-0.612-2.341h-0.036c-0.18,0.721-0.36,1.639-0.559,2.341
				l-0.72,2.574H124.047z"/>
			<path style="fill:#FFFFFF;" d="M133.585,357.065v-12.136h3.205l2.521,4.447c0.72,1.278,1.44,2.791,1.98,4.159h0.054
				c-0.18-1.603-0.233-3.241-0.233-5.06v-3.547h2.521v12.136h-2.881l-2.593-4.682c-0.721-1.296-1.513-2.862-2.106-4.285
				l-0.055,0.019c0.072,1.602,0.108,3.312,0.108,5.293v3.655H133.585z"/>
			<path style="fill:#FFFFFF;" d="M157.114,350.87c0,3.979-2.413,6.393-5.96,6.393c-3.602,0-5.708-2.719-5.708-6.176
				c0-3.638,2.323-6.356,5.906-6.356C155.079,344.731,157.114,347.522,157.114,350.87z M148.346,351.032
				c0,2.377,1.116,4.052,2.952,4.052c1.854,0,2.917-1.765,2.917-4.123c0-2.179-1.044-4.052-2.935-4.052
				C149.426,346.909,148.346,348.674,148.346,351.032z"/>
			<path style="fill:#FFFFFF;" d="M159,354.237c0.738,0.379,1.873,0.757,3.043,0.757c1.261,0,1.927-0.522,1.927-1.314
				c0-0.757-0.576-1.188-2.034-1.711c-2.017-0.702-3.331-1.818-3.331-3.583c0-2.07,1.729-3.655,4.591-3.655
				c1.369,0,2.377,0.288,3.098,0.612l-0.612,2.215c-0.486-0.234-1.351-0.576-2.539-0.576s-1.765,0.54-1.765,1.17
				c0,0.774,0.685,1.117,2.251,1.711c2.143,0.792,3.15,1.908,3.15,3.619c0,2.034-1.566,3.763-4.897,3.763
				c-1.386,0-2.755-0.359-3.438-0.738L159,354.237z"/>
			<path style="fill:#FFFFFF;" d="M168.72,354.237c0.738,0.379,1.873,0.757,3.043,0.757c1.261,0,1.927-0.522,1.927-1.314
				c0-0.757-0.576-1.188-2.034-1.711c-2.017-0.702-3.331-1.818-3.331-3.583c0-2.07,1.729-3.655,4.591-3.655
				c1.369,0,2.377,0.288,3.098,0.612l-0.612,2.215c-0.486-0.234-1.351-0.576-2.539-0.576s-1.765,0.54-1.765,1.17
				c0,0.774,0.685,1.117,2.251,1.711c2.143,0.792,3.15,1.908,3.15,3.619c0,2.034-1.566,3.763-4.897,3.763
				c-1.386,0-2.755-0.359-3.438-0.738L168.72,354.237z"/>
			<path style="fill:#FFFFFF;" d="M181.177,353.949l-0.864,3.115h-2.845l3.709-12.136h3.601l3.764,12.136h-2.953l-0.937-3.115
				H181.177z M184.256,351.897l-0.757-2.574c-0.216-0.721-0.432-1.62-0.612-2.341h-0.035c-0.181,0.721-0.36,1.639-0.559,2.341
				l-0.721,2.574H184.256z"/>
			<path style="fill:#FFFFFF;" d="M204.056,352.419c-0.055-1.458-0.108-3.223-0.108-4.987h-0.054
				c-0.379,1.549-0.883,3.277-1.351,4.699l-1.477,4.735h-2.143l-1.297-4.699c-0.396-1.423-0.81-3.151-1.098-4.735h-0.036
				c-0.072,1.639-0.126,3.511-0.216,5.023l-0.217,4.609h-2.538l0.773-12.136h3.655l1.188,4.052c0.378,1.404,0.756,2.916,1.026,4.339
				h0.054c0.343-1.404,0.757-3.007,1.152-4.357l1.297-4.033h3.583l0.666,12.136h-2.683L204.056,352.419z"/>
			<path style="fill:#FFFFFF;" d="M211.794,353.949l-0.864,3.115h-2.845l3.709-12.136h3.602l3.763,12.136h-2.952l-0.937-3.115
				H211.794z M214.873,351.897l-0.756-2.574c-0.216-0.721-0.433-1.62-0.612-2.341h-0.036c-0.18,0.721-0.36,1.639-0.559,2.341
				l-0.72,2.574H214.873z"/>
			<path style="fill:#FFFFFF;" d="M220.775,345.091c0.882-0.144,2.196-0.252,3.654-0.252c1.801,0,3.062,0.27,3.926,0.954
				c0.72,0.576,1.116,1.423,1.116,2.539c0,1.548-1.099,2.61-2.143,2.988v0.055c0.846,0.342,1.314,1.152,1.62,2.269
				c0.378,1.368,0.757,2.953,0.99,3.421h-2.809c-0.198-0.342-0.486-1.332-0.846-2.827c-0.324-1.512-0.847-1.926-1.963-1.944h-0.828
				v4.771h-2.719V345.091z M223.494,350.313h1.08c1.368,0,2.179-0.685,2.179-1.747c0-1.116-0.756-1.674-2.017-1.692
				c-0.666,0-1.044,0.055-1.242,0.091V350.313z"/>
			<path style="fill:#FFFFFF;" d="M240.289,356.723c-0.504,0.252-1.639,0.521-3.114,0.521c-4.195,0-6.356-2.61-6.356-6.067
				c0-4.142,2.953-6.446,6.626-6.446c1.423,0,2.503,0.288,2.989,0.54l-0.559,2.179c-0.558-0.233-1.332-0.45-2.305-0.45
				c-2.179,0-3.871,1.314-3.871,4.016c0,2.431,1.44,3.961,3.89,3.961c0.828,0,1.746-0.18,2.286-0.396L240.289,356.723z"/>
			<path style="fill:#FFFFFF;" d="M245.094,353.949l-0.864,3.115h-2.845l3.709-12.136h3.601l3.764,12.136h-2.953l-0.937-3.115
				H245.094z M248.173,351.897l-0.757-2.574c-0.216-0.721-0.432-1.62-0.612-2.341h-0.035c-0.181,0.721-0.36,1.639-0.559,2.341
				l-0.721,2.574H248.173z"/>
		</g>
	</g>
</g>
<g id="Layer_1">
</g>
</svg>
