<?xml version="1.0" encoding="iso-8859-1"?>
<!-- Generator: Adobe Illustrator 18.0.0, SVG Export Plug-In . SVG Version: 6.00 Build 0)  -->
<!DOCTYPE svg PUBLIC "-//W3C//DTD SVG 1.1//EN" "http://www.w3.org/Graphics/SVG/1.1/DTD/svg11.dtd">
<svg version="1.1" xmlns="http://www.w3.org/2000/svg" xmlns:xlink="http://www.w3.org/1999/xlink" x="0px" y="0px"
	 viewBox="0 0 676.617 695.189" style="enable-background:new 0 0 676.617 695.189;" xml:space="preserve">
<g id="people-page36">
	<g id="XMLID_445_">
		<g id="XMLID_468_">
			<g>
				<path id="XMLID_146_" style="fill:#329AA5;" d="M146.492,260.39c-0.513-2.172-1.366-4.212-2.507-6.058
					c1.207-2.382,1.777-5.518,0.287-7.007c-1.49-1.489-4.625-0.922-7.008,0.287c-1.846-1.14-3.885-1.995-6.058-2.509
					c-0.827-2.539-2.643-5.159-4.751-5.159c-2.108,0-3.923,2.619-4.753,5.159c-2.172,0.514-4.21,1.369-6.055,2.509
					c-2.383-1.21-5.518-1.777-7.009-0.287c-1.489,1.489-0.92,4.625,0.289,7.007c-1.141,1.846-1.996,3.886-2.509,6.058
					c-2.539,0.83-5.159,2.645-5.159,4.752c0,2.107,2.62,3.922,5.159,4.752c0.513,2.172,1.368,4.212,2.509,6.058
					c-1.21,2.381-1.778,5.516-0.289,7.006c1.492,1.489,4.627,0.922,7.009-0.288c1.844,1.14,3.884,1.996,6.055,2.509
					c0.83,2.539,2.645,5.159,4.753,5.159c2.107,0,3.923-2.62,4.751-5.159c2.173-0.513,4.213-1.367,6.058-2.509
					c2.383,1.21,5.517,1.777,7.008,0.288c1.489-1.49,0.92-4.625-0.287-7.006c1.141-1.847,1.994-3.887,2.507-6.058
					c2.541-0.829,5.161-2.645,5.161-4.752C151.652,263.035,149.033,261.22,146.492,260.39z M126.456,279.172
					c-7.748,0-14.029-6.282-14.029-14.03c0-7.748,6.281-14.029,14.029-14.029c7.748,0,14.03,6.281,14.03,14.029
					C140.486,272.89,134.205,279.172,126.456,279.172z"/>
				<circle id="XMLID_145_" style="fill:#329AA5;" cx="126.456" cy="265.142" r="5.884"/>
			</g>
		</g>
		<g id="XMLID_457_">
			<g>
				<path id="XMLID_141_" style="fill:#F0F8FF;" d="M178.396,288.007c-0.403-1.705-1.072-3.308-1.969-4.756
					c0.949-1.871,1.396-4.333,0.226-5.502c-1.17-1.17-3.63-0.724-5.501,0.226c-1.45-0.895-3.051-1.566-4.757-1.97
					c-0.651-1.994-2.076-4.05-3.73-4.05c-1.656,0-3.08,2.056-3.732,4.05c-1.706,0.404-3.307,1.074-4.755,1.97
					c-1.871-0.95-4.333-1.396-5.504-0.226c-1.169,1.169-0.722,3.631,0.228,5.502c-0.896,1.448-1.567,3.05-1.97,4.756
					c-1.994,0.651-4.051,2.077-4.051,3.731c0,1.654,2.057,3.079,4.051,3.73c0.403,1.705,1.074,3.307,1.97,4.758
					c-0.95,1.869-1.397,4.331-0.228,5.5c1.171,1.17,3.633,0.724,5.504-0.226c1.448,0.896,3.049,1.567,4.755,1.97
					c0.652,1.994,2.076,4.051,3.732,4.051c1.654,0,3.079-2.057,3.73-4.051c1.706-0.403,3.307-1.073,4.757-1.97
					c1.871,0.95,4.331,1.396,5.501,0.226c1.169-1.168,0.723-3.631-0.226-5.5c0.896-1.45,1.566-3.052,1.969-4.758
					c1.995-0.651,4.052-2.076,4.052-3.73C182.448,290.083,180.391,288.658,178.396,288.007z M162.665,302.753
					c-6.083,0-11.015-4.933-11.015-11.016c0-6.084,4.932-11.015,11.015-11.015c6.083,0,11.015,4.931,11.015,11.015
					C173.68,297.821,168.748,302.753,162.665,302.753z"/>
				<circle id="XMLID_140_" style="fill:#F0F8FF;" cx="162.665" cy="291.737" r="4.62"/>
			</g>
		</g>
		<g id="XMLID_446_">
			<g>
				<path id="XMLID_92_" style="fill:#ED7076;" d="M182.328,247.122c-0.64-1.632-1.53-3.122-2.621-4.43
					c0.673-1.987,0.767-4.487-0.556-5.478c-1.324-0.992-3.697-0.204-5.414,1.003c-1.562-0.681-3.242-1.118-4.987-1.276
					c-0.926-1.882-2.628-3.716-4.266-3.481c-1.639,0.234-2.758,2.471-3.121,4.538c-1.631,0.641-3.12,1.532-4.428,2.623
					c-1.986-0.675-4.487-0.766-5.479,0.557c-0.992,1.323-0.202,3.697,1.004,5.414c-0.682,1.562-1.118,3.242-1.276,4.988
					c-1.883,0.926-3.716,2.63-3.483,4.267c0.236,1.637,2.473,2.757,4.54,3.12c0.64,1.631,1.532,3.121,2.623,4.429
					c-0.676,1.986-0.768,4.486,0.555,5.477c1.324,0.992,3.699,0.202,5.415-1.004c1.56,0.682,3.241,1.121,4.986,1.277
					c0.928,1.883,2.631,3.717,4.268,3.481c1.638-0.235,2.758-2.472,3.12-4.538c1.631-0.64,3.122-1.531,4.43-2.625
					c1.986,0.676,4.485,0.769,5.478-0.555c0.992-1.323,0.201-3.697-1.003-5.413c0.681-1.563,1.117-3.243,1.275-4.988
					c1.883-0.927,3.717-2.63,3.482-4.267C186.633,248.604,184.397,247.483,182.328,247.122z M168.846,263.948
					c-6.023,0.862-11.604-3.323-12.465-9.344c-0.861-6.022,3.321-11.604,9.344-12.466c6.022-0.862,11.603,3.323,12.465,9.344
					C179.051,257.505,174.867,263.086,168.846,263.948z"/>
				<circle id="XMLID_91_" style="fill:#ED7076;" cx="167.285" cy="253.043" r="4.619"/>
			</g>
		</g>
	</g>
	<g id="XMLID_265_">
		<g id="XMLID_281_" style="opacity:0.4;">
			<path id="XMLID_293_" style="fill:#329AA5;" d="M613.28,51.777h-56.087c-5.208,0-9.433,4.224-9.433,9.431v31.716
				c0,5.21,4.225,9.433,9.433,9.433h21.909l6.446,13.861l6.193-13.861h21.539c5.209,0,9.431-4.223,9.431-9.433V61.208
				C622.711,56.001,618.489,51.777,613.28,51.777z"/>
		</g>
		<g id="XMLID_269_">
			<path id="XMLID_279_" style="fill:#329AA5;" d="M609.632,45.393h-56.087c-5.208,0-9.433,4.224-9.433,9.431V86.54
				c0,5.21,4.225,9.433,9.433,9.433h21.909l6.446,13.862l6.193-13.862h21.539c5.209,0,9.431-4.223,9.431-9.433V54.824
				C619.063,49.617,614.841,45.393,609.632,45.393z"/>
		</g>
		<g id="XMLID_8_">
			<path id="XMLID_373_" style="fill:#ADECC0;" d="M576.767,84.157c0,2.032-1.647,3.679-3.679,3.679h-3.474
				c-2.032,0-3.679-1.647-3.679-3.679V66.426c0-2.032,1.647-3.679,3.679-3.679h3.474c2.032,0,3.679,1.647,3.679,3.679V84.157z"/>
			<path id="XMLID_356_" style="fill:#FFFFFF;" d="M605.027,66.239c0-1.839-1.491-3.329-3.33-3.329h-9.793v-7.691
				c0-1.88-1.524-3.403-3.404-3.403c-1.879,0-3.404,1.524-3.404,3.403v4.233c-0.127,1.942-1.738,3.479-3.713,3.479v0.001
				c-2.59,0.229-4.618,2.33-4.618,4.891v13.26c0,2.713,2.278,4.913,5.087,4.913h0.698h7.491h7.583c1.461,0,2.645-1.184,2.645-2.644
				c0-0.938-0.49-1.761-1.228-2.231c1.609-0.101,2.883-1.435,2.883-3.07c0-1.143-0.624-2.138-1.549-2.67
				c1.707-0.143,3.048-1.571,3.048-3.315c0-1.022-0.461-1.934-1.185-2.545C603.821,69.261,605.027,67.893,605.027,66.239z"/>
			<circle id="XMLID_352_" style="fill:#FFFFFF;" cx="571.351" cy="69.117" r="1.907"/>
		</g>
	</g>
	<g id="XMLID_385_">
		<circle id="XMLID_375_" style="fill:#FFFFFF;" cx="151.846" cy="488.225" r="26.5"/>
		<path id="XMLID_363_" style="fill:#ED7076;" d="M151.846,480.619c-6.649-11.258-19.414-8.935-16.564,3.808
			c2.256,10.082,16.564,18.646,16.564,18.646s14.307-8.565,16.562-18.646C171.261,471.683,158.494,469.361,151.846,480.619z"/>
	</g>
	<path id="XMLID_61_" style="fill:#FFFFFF;" d="M617.965,238.449c-0.249-0.765-0.91-1.324-1.707-1.439l-7.898-1.147l-3.533-7.157
		c-0.357-0.723-1.091-1.179-1.897-1.179c-0.804,0-1.54,0.457-1.896,1.179l-3.531,7.157l-7.898,1.147
		c-0.796,0.116-1.458,0.673-1.706,1.439c-0.249,0.766-0.042,1.606,0.534,2.168l5.715,5.571l-1.349,7.866
		c-0.136,0.793,0.19,1.596,0.841,2.069c0.651,0.473,1.514,0.535,2.227,0.161l7.064-3.714l7.065,3.714
		c0.31,0.163,0.648,0.242,0.985,0.242c0.438,0,0.875-0.136,1.244-0.404c0.651-0.473,0.977-1.275,0.84-2.069l-1.349-7.866
		l5.717-5.571C618.007,240.056,618.215,239.215,617.965,238.449z"/>
	<g id="XMLID_377_">
		<path id="XMLID_399_" style="fill:#42428E;" d="M288.855,399.919c-0.513-5.728-5.32-10.219-11.182-10.219
			c-2.201,0-4.249,0.644-5.982,1.738c-3.456-5.43-9.523-9.035-16.437-9.035c-10.454,0-18.983,8.24-19.452,18.578
			c-4.938,2.227-8.378,7.189-8.378,12.958c0,7.848,6.363,14.211,14.212,14.211h44.906c7.848,0,14.211-6.363,14.211-14.211
			C300.753,406.879,295.603,401.024,288.855,399.919z"/>
		<g id="XMLID_383_">
			<polygon id="XMLID_384_" style="fill:#FFFFFF;" points="273.558,413.683 264.088,397.283 254.618,413.683 260.653,413.681 
				260.654,418.921 267.526,418.919 267.524,413.683 			"/>
		</g>
	</g>
	<g id="XMLID_87_" style="opacity:0.2;">
		<path id="XMLID_113_" style="fill:#329AA5;" d="M346.417,224.264c-0.086,0-0.171-0.013-0.254-0.039
			c-0.266-0.084-0.474-0.294-0.555-0.562L294.704,55.405c-0.098-0.322,0.006-0.672,0.263-0.89c0.257-0.218,0.62-0.261,0.921-0.112
			l162.609,80.606c0.261,0.129,0.437,0.382,0.466,0.671c0.03,0.289-0.091,0.572-0.319,0.751l-111.706,87.651
			C346.788,224.202,346.604,224.264,346.417,224.264z M296.888,56.786l49.98,165.205l109.679-86.061L296.888,56.786z"/>
		<path id="XMLID_112_" style="fill:#329AA5;" d="M308.591,332.948c-0.205,0-0.408-0.075-0.566-0.218
			c-0.253-0.228-0.344-0.584-0.232-0.905l37.826-108.685c0.053-0.153,0.149-0.287,0.276-0.387l111.706-87.651
			c0.263-0.206,0.622-0.239,0.919-0.081c0.295,0.157,0.47,0.474,0.445,0.807l-9.503,130.973c-0.021,0.306-0.208,0.575-0.485,0.705
			l-140.029,65.363C308.835,332.922,308.712,332.948,308.591,332.948z M347.134,223.931l-37.086,106.56l137.765-64.306
			l9.329-128.572L347.134,223.931z"/>
		<path id="XMLID_111_" style="fill:#329AA5;" d="M346.417,224.264c-0.021,0-0.041-0.001-0.062-0.002L62.863,203.404
			c-0.364-0.027-0.669-0.284-0.758-0.638c-0.089-0.354,0.059-0.725,0.367-0.92l232.588-147.4c0.224-0.142,0.501-0.169,0.747-0.079
			c0.248,0.092,0.438,0.295,0.515,0.548l50.904,168.258c0.081,0.267,0.025,0.556-0.15,0.773
			C346.916,224.148,346.672,224.264,346.417,224.264z M65.538,201.906l279.713,20.579L295.026,56.47L65.538,201.906z"/>
		<path id="XMLID_110_" style="fill:#329AA5;" d="M98.343,432.493c-0.28,0-0.552-0.14-0.712-0.39
			c-0.229-0.357-0.158-0.83,0.168-1.103l248.075-208.229c0.291-0.245,0.71-0.265,1.023-0.048c0.313,0.216,0.443,0.614,0.318,0.974
			L309.39,332.381c-0.074,0.214-0.232,0.389-0.436,0.486L98.704,432.411C98.588,432.466,98.464,432.493,98.343,432.493z
			 M344.61,226.039L103.915,428.074l203.995-96.583L344.61,226.039z"/>
		<path id="XMLID_109_" style="fill:#329AA5;" d="M98.342,432.493c-0.1,0-0.201-0.018-0.297-0.055
			c-0.286-0.107-0.491-0.36-0.538-0.662L62.089,202.69c-0.04-0.255,0.04-0.514,0.214-0.703c0.175-0.189,0.424-0.288,0.683-0.27
			l283.492,20.857c0.343,0.025,0.637,0.256,0.743,0.583c0.105,0.327,0.002,0.686-0.261,0.907L98.886,432.294
			C98.731,432.424,98.538,432.493,98.342,432.493z M63.923,203.482l35.025,226.553L344.28,224.109L63.923,203.482z"/>
		<path id="XMLID_108_" style="fill:#329AA5;" d="M351.08,508.928c-0.021,0-0.042-0.001-0.062-0.003
			c-0.367-0.026-0.673-0.287-0.76-0.645L307.77,332.301c-0.094-0.391,0.1-0.794,0.464-0.964l140.029-65.363
			c0.314-0.146,0.686-0.086,0.939,0.153c0.252,0.239,0.332,0.608,0.202,0.93l-97.542,241.342
			C351.733,508.72,351.422,508.928,351.08,508.928z M309.575,332.577l41.707,172.746l95.749-236.908L309.575,332.577z"/>
		<path id="XMLID_107_" style="fill:#329AA5;" d="M351.079,508.928c-0.082,0-0.164-0.012-0.245-0.036L98.098,432.456
			c-0.334-0.102-0.572-0.398-0.598-0.747c-0.026-0.349,0.165-0.677,0.481-0.826l210.249-99.544c0.23-0.109,0.497-0.108,0.727,0.001
			c0.229,0.11,0.397,0.317,0.457,0.564l42.488,175.979c0.071,0.295-0.021,0.604-0.241,0.812
			C351.501,508.847,351.292,508.928,351.079,508.928z M100.686,431.472l249.225,75.374l-41.897-173.534L100.686,431.472z"/>
		<path id="XMLID_106_" style="fill:#329AA5;" d="M351.079,508.928c-0.208,0-0.415-0.078-0.575-0.226
			c-0.257-0.239-0.34-0.611-0.209-0.936l97.54-241.343c0.134-0.33,0.467-0.534,0.815-0.528c0.355,0.013,0.665,0.248,0.773,0.587
			l53.401,166.747c0.128,0.398-0.055,0.83-0.43,1.016L351.454,508.84C351.335,508.899,351.207,508.928,351.079,508.928z
			 M448.528,269.224l-95.833,237.117l148.299-73.289L448.528,269.224z"/>
		<path id="XMLID_105_" style="fill:#329AA5;" d="M448.62,267.585c-0.19,0-0.379-0.064-0.531-0.188
			c-0.215-0.174-0.332-0.442-0.312-0.719l9.503-130.973c0.017-0.235,0.132-0.453,0.315-0.6c0.185-0.147,0.427-0.212,0.655-0.174
			l167.495,25.742c0.326,0.05,0.593,0.284,0.684,0.6c0.092,0.316-0.008,0.657-0.257,0.873l-92.391,80.43
			c-0.092,0.08-0.2,0.139-0.317,0.173l-84.607,24.801C448.779,267.574,448.699,267.585,448.62,267.585z M458.9,136.742
			l-9.349,128.845l83.261-24.406l90.876-79.112L458.9,136.742z"/>
		<path id="XMLID_115_" style="fill:#329AA5;" d="M502.022,434.333c-0.087,0-0.174-0.014-0.259-0.041
			c-0.257-0.082-0.459-0.283-0.544-0.539l-34.366-103.894c-0.084-0.254-0.043-0.533,0.111-0.751
			c0.153-0.219,0.401-0.352,0.669-0.359l183.505-4.825c0.008,0,0.016,0,0.022,0c0.361,0,0.684,0.229,0.8,0.573
			c0.12,0.351-0.003,0.738-0.302,0.956L502.52,434.171C502.373,434.278,502.198,434.333,502.022,434.333z M468.815,330.409
			l33.645,101.713l146.008-106.437L468.815,330.409z"/>
		<path id="XMLID_116_" style="fill:#329AA5;" d="M651.16,325.614c-0.17,0-0.341-0.051-0.486-0.153l-117.933-82.829
			c-0.212-0.149-0.345-0.388-0.357-0.648c-0.014-0.26,0.093-0.511,0.289-0.682l92.391-80.43c0.232-0.203,0.556-0.261,0.845-0.157
			c0.289,0.105,0.498,0.36,0.545,0.664l25.542,163.259c0.053,0.335-0.101,0.669-0.389,0.849
			C651.47,325.571,651.314,325.614,651.16,325.614z M534.597,241.868l115.421,81.065L625.02,163.151L534.597,241.868z"/>
		<circle id="XMLID_103_" style="fill:#329AA5;" cx="346.417" cy="223.418" r="5.918"/>
		<circle id="XMLID_102_" style="fill:#329AA5;" cx="458.123" cy="135.768" r="5.918"/>
		<path id="XMLID_101_" style="fill:#329AA5;" d="M453.473,263.355c1.873,2.681,1.215,6.368-1.467,8.24
			c-2.68,1.87-6.367,1.213-8.237-1.467c-1.872-2.681-1.216-6.369,1.464-8.24C447.914,260.018,451.604,260.674,453.473,263.355z"/>
		<circle id="XMLID_100_" style="fill:#329AA5;" cx="533.227" cy="241.94" r="5.918"/>
		<circle id="XMLID_99_" style="fill:#329AA5;" cx="625.619" cy="161.509" r="5.918"/>
		<circle id="XMLID_98_" style="fill:#329AA5;" cx="651.159" cy="324.768" r="5.917"/>
		<circle id="XMLID_97_" style="fill:#329AA5;" cx="502.021" cy="433.489" r="5.918"/>
		<circle id="XMLID_96_" style="fill:#329AA5;" cx="468.728" cy="329.875" r="5.918"/>
		<circle id="XMLID_95_" style="fill:#329AA5;" cx="351.078" cy="508.082" r="5.918"/>
		<circle id="XMLID_94_" style="fill:#329AA5;" cx="308.592" cy="332.102" r="5.917"/>
		<path id="XMLID_93_" style="fill:#329AA5;" d="M103.195,428.261c1.87,2.68,1.213,6.368-1.468,8.238
			c-2.68,1.873-6.368,1.216-8.238-1.467c-1.87-2.678-1.214-6.367,1.466-8.236C97.637,424.924,101.325,425.581,103.195,428.261z"/>
		<circle id="XMLID_90_" style="fill:#329AA5;" cx="62.925" cy="202.56" r="5.916"/>
		<path id="XMLID_89_" style="fill:#329AA5;" d="M300.366,51.775c1.87,2.68,1.214,6.369-1.466,8.239
			c-2.682,1.871-6.372,1.214-8.241-1.466c-1.868-2.681-1.213-6.368,1.467-8.238C294.806,48.437,298.496,49.094,300.366,51.775z"/>
	</g>
	<g id="XMLID_329_">
		
			<polygon id="XMLID_248_" style="fill:none;stroke:#FFFFFF;stroke-width:1.6907;stroke-linecap:round;stroke-linejoin:round;stroke-miterlimit:10;" points="
			455.123,130.767 292.513,50.16 343.417,218.418 		"/>
		
			<polygon id="XMLID_247_" style="fill:none;stroke:#FFFFFF;stroke-width:1.6907;stroke-linecap:round;stroke-linejoin:round;stroke-miterlimit:10;" points="
			445.621,261.74 455.123,130.767 343.417,218.418 305.591,327.103 		"/>
		
			<polygon id="XMLID_246_" style="fill:none;stroke:#FFFFFF;stroke-width:1.6907;stroke-linecap:round;stroke-linejoin:round;stroke-miterlimit:10;" points="
			292.513,50.16 59.925,197.561 343.417,218.418 		"/>
		
			<polygon id="XMLID_245_" style="fill:none;stroke:#FFFFFF;stroke-width:1.6907;stroke-linecap:round;stroke-linejoin:round;stroke-miterlimit:10;" points="
			305.591,327.103 95.343,426.647 343.417,218.418 		"/>
		
			<polygon id="XMLID_244_" style="fill:none;stroke:#FFFFFF;stroke-width:1.6907;stroke-linecap:round;stroke-linejoin:round;stroke-miterlimit:10;" points="
			59.925,197.561 95.343,426.647 343.417,218.418 		"/>
		
			<polygon id="XMLID_242_" style="fill:none;stroke:#FFFFFF;stroke-width:1.6907;stroke-linecap:round;stroke-linejoin:round;stroke-miterlimit:10;" points="
			445.621,261.74 348.079,503.082 305.591,327.103 		"/>
		
			<polygon id="XMLID_240_" style="fill:none;stroke:#FFFFFF;stroke-width:1.6907;stroke-linecap:round;stroke-linejoin:round;stroke-miterlimit:10;" points="
			95.343,426.647 348.079,503.082 305.591,327.103 		"/>
		
			<polygon id="XMLID_231_" style="fill:none;stroke:#FFFFFF;stroke-width:1.6907;stroke-linecap:round;stroke-linejoin:round;stroke-miterlimit:10;" points="
			445.621,261.74 499.021,428.488 348.079,503.082 		"/>
		
			<polygon id="XMLID_230_" style="fill:none;stroke:#FFFFFF;stroke-width:1.6907;stroke-linecap:round;stroke-linejoin:round;stroke-miterlimit:10;" points="
			455.123,130.767 622.618,156.509 530.228,236.939 445.621,261.74 		"/>
		
			<polygon id="XMLID_226_" style="fill:none;stroke:#FFFFFF;stroke-width:1.6907;stroke-linecap:round;stroke-linejoin:round;stroke-miterlimit:10;" points="
			499.021,428.488 648.16,319.768 464.656,324.594 		"/>
		
			<polygon id="XMLID_225_" style="fill:none;stroke:#FFFFFF;stroke-width:1.6907;stroke-linecap:round;stroke-linejoin:round;stroke-miterlimit:10;" points="
			622.618,156.509 648.16,319.768 530.228,236.939 		"/>
		<circle id="XMLID_187_" style="fill:#FFFFFF;" cx="343.417" cy="218.418" r="5.918"/>
		<circle id="XMLID_186_" style="fill:#FFFFFF;" cx="455.123" cy="130.768" r="5.918"/>
		<path id="XMLID_183_" style="fill:#FFFFFF;" d="M450.473,258.355c1.873,2.681,1.215,6.368-1.467,8.24
			c-2.68,1.87-6.367,1.213-8.237-1.467c-1.872-2.681-1.216-6.369,1.464-8.24C444.914,255.018,448.604,255.674,450.473,258.355z"/>
		<circle id="XMLID_7_" style="fill:#FFFFFF;" cx="530.227" cy="236.94" r="5.918"/>
		<circle id="XMLID_6_" style="fill:#FFFFFF;" cx="622.619" cy="156.509" r="5.918"/>
		<circle id="XMLID_5_" style="fill:#FFFFFF;" cx="648.159" cy="319.768" r="5.917"/>
		<circle id="XMLID_4_" style="fill:#FFFFFF;" cx="499.021" cy="428.489" r="5.918"/>
		<circle id="XMLID_3_" style="fill:#FFFFFF;" cx="465.728" cy="324.875" r="5.918"/>
		<circle id="XMLID_2_" style="fill:#FFFFFF;" cx="348.078" cy="503.082" r="5.918"/>
		<circle id="XMLID_1_" style="fill:#FFFFFF;" cx="305.592" cy="327.102" r="5.917"/>
		<path id="XMLID_154_" style="fill:#FFFFFF;" d="M100.195,423.261c1.87,2.68,1.213,6.368-1.468,8.238
			c-2.68,1.873-6.368,1.216-8.238-1.467c-1.87-2.678-1.214-6.367,1.466-8.236C94.637,419.924,98.325,420.581,100.195,423.261z"/>
		<circle id="XMLID_147_" style="fill:#FFFFFF;" cx="59.925" cy="197.56" r="5.916"/>
		<path id="XMLID_130_" style="fill:#FFFFFF;" d="M297.366,46.775c1.87,2.68,1.214,6.369-1.466,8.239
			c-2.682,1.871-6.372,1.214-8.241-1.466c-1.868-2.681-1.213-6.368,1.467-8.238C291.806,43.437,295.496,44.094,297.366,46.775z"/>
	</g>
	<g id="XMLID_283_">
		<circle id="XMLID_333_" style="opacity:0.1;" cx="63.12" cy="201.13" r="52.571"/>
		<g id="XMLID_260_">
			<circle id="XMLID_332_" style="fill:#FFFFFF;" cx="63.12" cy="201.13" r="48.123"/>
			<g id="XMLID_261_">
				<defs>
					<circle id="XMLID_262_" cx="63.12" cy="201.13" r="48.123"/>
				</defs>
				<clipPath id="XMLID_21_">
					<use xlink:href="#XMLID_262_"  style="overflow:visible;"/>
				</clipPath>
				<g id="XMLID_1012_" style="clip-path:url(#XMLID_21_);">
					<g id="XMLID_1013_">
						<path id="XMLID_1036_" style="fill:#212121;" d="M47.781,171.343c-12.921,9.588-8.827,23.492-6.935,35.16
							c0.48,2.959,1.185,5.914,1.079,8.91c-0.107,2.996-1.168,6.13-3.564,7.931c3.192,0.492,6.586-0.57,8.929-2.793
							c-0.122,1.899-0.245,3.797-0.367,5.696c1.951-0.781,3.902-1.563,5.853-2.344c0.803,2.27,1.607,4.54,2.41,6.81
							c4.349-3.076,5.156-9.138,5.128-14.465c-0.075-13.98-3.272-27.935-9.29-40.554"/>
						<path id="XMLID_1035_" style="fill:#212121;" d="M78.068,171.343c12.922,9.588,8.827,23.492,6.935,35.16
							c-0.48,2.959-1.185,5.914-1.079,8.91c0.107,2.996,1.168,6.13,3.564,7.931c-3.191,0.492-6.586-0.57-8.929-2.793
							c0.122,1.899,0.245,3.797,0.367,5.696c-1.951-0.781-3.902-1.563-5.853-2.344c-0.803,2.27-1.607,4.54-2.41,6.81
							c-4.349-3.076-5.156-9.138-5.128-14.465c0.075-13.98,3.272-27.935,9.29-40.554"/>
						<path id="XMLID_1034_" style="fill:#F7D9B5;" d="M98.753,240.635c-1.607-1.137-3.46-1.972-5.421-2.515l-2.065-0.549
							c0.013-0.004,0.028-0.008,0.041-0.012l-16.27-5.288c-1.311-0.353-2.039-1.424-2.273-2.624
							c-0.661-3.393-0.582-11.555-0.565-13.011c0.001-0.114-0.103-0.202-0.231-0.202h-0.779H55.05h-0.778
							c-0.129,0-0.233,0.088-0.231,0.202c0.015,1.442,0.082,9.439-0.565,13.011c-0.218,1.202-0.962,2.271-2.273,2.624l-16.27,5.288
							c0.014,0.004,0.029,0.008,0.042,0.012l-2.116,0.563c-1.688,0.468-3.308,1.136-4.732,2.067
							c-7.441,4.867-7.654,12.831-7.963,14.314c-0.026,0.127,0.083,0.241,0.228,0.241H63.12h42.729c0.145,0,0.254-0.115,0.228-0.241
							C105.778,253.076,105.668,245.528,98.753,240.635z"/>
						<g id="XMLID_1016_">
							<g id="XMLID_1032_">
								<path id="XMLID_1033_" style="fill:#EFBC8B;" d="M72.409,226.58c-0.077-3.801-0.218-7.372-0.209-8.338
									c0.001-0.142-0.103-0.251-0.231-0.251H54.271c-0.129,0-0.233,0.109-0.231,0.251c0.008,0.964-0.142,4.552-0.222,8.365
									c1.264,1.318,5.953,3.192,9.1,3.213C66.197,229.841,71.045,227.621,72.409,226.58z"/>
							</g>
							<g id="XMLID_1029_">
								<path id="XMLID_1031_" style="fill:#F7D9B5;" d="M46.415,199.143c1.247,3.358,0.536,8.607-1.586,9.62
									c-2.123,1.014-4.855-2.592-6.101-5.95s-0.537-6.902,1.586-7.915C42.436,193.885,45.168,195.785,46.415,199.143z"/>
								<path id="XMLID_1030_" style="fill:#F7D9B5;" d="M79.826,199.143c-1.247,3.358-0.536,8.607,1.586,9.62
									c2.123,1.014,4.854-2.592,6.101-5.95c1.247-3.358,0.536-6.902-1.586-7.915C83.804,193.885,81.073,195.785,79.826,199.143z"
									/>
							</g>
							<path id="XMLID_1028_" style="fill:#F7D9B5;" d="M62.924,169.368c-21.054-0.698-21.364,19.464-21.048,26.109
								c0.23,4.839,1.38,11.874,2.404,15.366c0.589,2.006,1.655,5.361,3.184,6.819c4.107,3.919,9.208,7.392,12.363,8.596
								c0.569,0.217,1.814,0.315,3.097,0.307c1.283,0.008,2.528-0.089,3.097-0.307c3.155-1.205,8.256-4.678,12.363-8.596
								c1.528-1.458,2.595-4.813,3.184-6.819c1.025-3.492,2.174-10.527,2.404-15.366C84.289,188.832,83.978,168.67,62.924,169.368z"
								/>
							<g id="XMLID_1025_">
								<path id="XMLID_1027_" style="fill:#332113;" d="M52.477,194.387c1.634,0,2.959,1.249,2.959,2.789
									c0,1.54-1.325,2.789-2.959,2.789s-2.959-1.969-2.959-3.509S50.843,194.387,52.477,194.387z"/>
								<path id="XMLID_1026_" style="fill:#332113;" d="M73.717,194.387c1.634,0,2.959,0.529,2.959,2.069s-1.325,3.509-2.959,3.509
									c-1.634,0-2.959-1.249-2.959-2.789C70.758,195.636,72.083,194.387,73.717,194.387z"/>
							</g>
							<g id="XMLID_1018_">
								<path id="XMLID_1024_" style="fill:#BFD8E3;" d="M98.753,240.547c-1.607-1.137-3.46-1.972-5.421-2.515l-2.065-0.549
									c0.013-0.004,0.028-0.008,0.041-0.012l-14.626-4.754l-1.644-0.535c-0.408-0.11-0.754-0.296-1.052-0.528
									c-3.193,1.195-6.684,1.796-10.474,1.796c1.503,0,2.254,0,3.757,0.751c-5.481,0.609-11.948,1.71-15.403-2.293
									c-0.204,0.111-0.422,0.208-0.665,0.274l-1.644,0.535l-14.626,4.754c0.014,0.004,0.029,0.008,0.042,0.012l-2.116,0.563
									c-1.688,0.468-3.308,1.136-4.732,2.067c-7.441,4.867-7.654,12.832-7.963,14.314c-0.026,0.127,0.083,0.241,0.228,0.241H63.12
									h42.729c0.145,0,0.254-0.115,0.228-0.241C105.778,252.988,105.668,245.44,98.753,240.547z"/>
								<path id="XMLID_1023_" style="fill:#C94331;" d="M59.774,241.038l-3.339-7.287h13.371l-3.339,7.287
									C64.979,243.614,61.261,243.614,59.774,241.038z"/>
								<path id="XMLID_1022_" style="fill:#C94331;" d="M66.278,243.709l3.339,11.046H56.246l3.339-11.046
									C61.072,241.133,64.79,241.133,66.278,243.709z"/>
								<g id="XMLID_1019_">
									<path id="XMLID_1021_" style="fill:#EAEAEA;" d="M53.231,228.732l-3.346,2.295l7.173,10.751l6.653-8.196
										C63.711,233.582,53.723,231.027,53.231,228.732z"/>
									<path id="XMLID_1020_" style="fill:#EAEAEA;" d="M73.023,228.732l3.346,2.295l-7.173,10.751l-6.653-8.196
										C62.543,233.582,72.531,231.027,73.023,228.732z"/>
								</g>
							</g>
							
								<path id="XMLID_1017_" style="fill:none;stroke:#D6925F;stroke-width:0.9656;stroke-linecap:round;stroke-linejoin:round;stroke-miterlimit:10;" d="
								M57.504,212.522c0.935,1.328,3.008,2.254,5.42,2.254c2.413,0,4.486-0.926,5.421-2.254"/>
						</g>
						<path id="XMLID_1015_" style="fill:#474747;" d="M81.888,204.391c0.401-6.88-1.566-13.877-5.494-19.54
							c-1.047-1.509-2.238-2.945-2.958-4.634c-0.72-1.689-0.9-3.74,0.076-5.296c5.057-8.051,11.388,1.951,12.461,6.507
							C87.809,189.224,86.453,197.754,81.888,204.391z"/>
						<path id="XMLID_1014_" style="fill:#212121;" d="M73.73,166.584c-3.377-1.942-7.613-2.373-11.593-1.929
							c-6.433,0.719-12.526,3.661-16.74,8.083c-4.213,4.422-6.506,10.281-6.299,16.096c0.658-0.576,1.336-1.136,2.031-1.681
							c-0.203,6.071,1.244,12.2,4.357,17.238c-0.36-6.88,0.863-13.877,4.391-19.54c0.843-1.354,2.332-2.65,2.985-4.122
							c0.421-0.136-2.442,4.122-2.415,10.105c-0.003-0.626,6.598-4.531,7.447-5.258c1.942-1.664,3.752-3.484,5.411-5.43
							c-0.892,1.436-1.68,2.947-2.379,4.455c-0.446,0.962-1.972,7.214-2.595,7.476c4.705-1.983,19.771-9.64,20.427-16.351
							C79.109,172.133,77.107,168.526,73.73,166.584z"/>
					</g>
				</g>
			</g>
		</g>
	</g>
	<circle id="XMLID_594_" style="opacity:0.1;" cx="103.243" cy="418.02" r="67.719"/>
	<g id="XMLID_285_">
		<circle id="XMLID_593_" style="fill:#FFFFFF;" cx="103.243" cy="418.02" r="61.991"/>
	</g>
	<g id="XMLID_288_">
		<defs>
			<circle id="XMLID_289_" cx="103.243" cy="418.02" r="61.991"/>
		</defs>
		<clipPath id="XMLID_22_">
			<use xlink:href="#XMLID_289_"  style="overflow:visible;"/>
		</clipPath>
		<g id="XMLID_290_" style="clip-path:url(#XMLID_22_);">
			<g id="XMLID_613_">
				<g id="XMLID_893_">
					<path id="XMLID_896_" style="fill:#F9D5B4;" d="M82.705,411.873c1.563,3.712,0.673,9.515-1.989,10.636
						c-2.661,1.121-6.086-2.865-7.649-6.577c-1.563-3.712-0.673-7.63,1.989-8.751C77.717,406.06,81.142,408.161,82.705,411.873z"/>
					<path id="XMLID_895_" style="fill:#F9D5B4;" d="M124.592,411.873c-1.563,3.712-0.673,9.515,1.989,10.636
						c2.662,1.121,6.086-2.865,7.649-6.577c1.563-3.712,0.673-7.63-1.989-8.751C129.58,406.06,126.155,408.161,124.592,411.873z"/>
				</g>
				<path id="XMLID_892_" style="fill:#F9D5B4;" d="M140.759,463.402c-1.73-1.377-3.724-2.388-5.835-3.046l-19.691-6.14l0,0
					c-1.411-0.427-2.195-1.725-2.447-3.177c-0.711-4.108-0.627-14.934-0.608-16.697c0.002-0.139-0.11-0.244-0.249-0.244H94.556
					c-0.139,0-0.25,0.106-0.249,0.245c0.017,1.746,0.088,12.372-0.608,16.697c-0.234,1.455-1.036,2.75-2.447,3.177l0,0
					l-19.745,6.157c-1.816,0.566-3.561,1.375-5.093,2.503c-8.009,5.893-8.239,15.537-8.571,17.331
					c-0.028,0.154,0.089,0.292,0.245,0.292h45.154h45.154c0.156,0,0.274-0.139,0.245-0.292
					C148.32,478.465,148.202,469.326,140.759,463.402z"/>
				<g id="XMLID_887_">
					<path id="XMLID_891_" style="fill:#F9D5B4;" d="M89.849,470.469c7.587,2.191,11.684,5.949,13.789,8.713
						c2.098-2.767,6.198-6.542,13.81-8.741c9.473-2.736,12.176-8.526,12.947-11.497l-15.161-4.727
						c-1.411-0.428-2.195-1.725-2.447-3.177c-0.711-4.108-0.627-14.934-0.608-16.697c0.002-0.139-0.11-0.244-0.249-0.244H94.556
						c-0.139,0-0.25,0.106-0.249,0.245c0.017,1.746,0.088,12.372-0.608,16.697c-0.234,1.455-1.036,2.75-2.447,3.177l-14.414,4.494
						C77.516,461.59,80.088,467.65,89.849,470.469z"/>
					<path id="XMLID_890_" style="fill:#588193;" d="M140.759,463.402c-1.73-1.377-3.724-2.388-5.835-3.046l-1.687-0.526v20.47
						h-29.589H74.06v-20.723l-2.552,0.796c-1.816,0.566-3.561,1.375-5.093,2.503c-8.009,5.893-8.239,15.537-8.571,17.331
						c-0.028,0.154,0.089,0.292,0.245,0.292h45.154h45.154c0.156,0,0.274-0.139,0.245-0.292
						C148.32,478.465,148.202,469.326,140.759,463.402z"/>
					<path id="XMLID_889_" style="fill:#F94831;" d="M76.822,458.643l-2.762,0.861v0.073l2.778-0.866
						C76.833,458.689,76.827,458.665,76.822,458.643z"/>
					<path id="XMLID_888_" style="fill:#588193;" d="M103.649,480.301h29.589v-20.47l-2.842-0.886
						c-0.771,2.971-3.474,8.761-12.947,11.497c-7.612,2.199-11.712,5.974-13.81,8.741c-2.105-2.764-6.202-6.521-13.789-8.713
						c-9.761-2.82-12.333-8.879-13.011-11.758l-2.778,0.866v20.723H103.649z"/>
				</g>
				<g id="XMLID_885_">
					<path id="XMLID_886_" style="fill:#F2B78B;" d="M112.224,443.435c-0.083-3.698-0.056-7.211-0.046-8.15
						c0.002-0.138-0.11-0.244-0.249-0.244H94.556c-0.139,0-0.25,0.106-0.249,0.245c0.009,0.937,0.033,4.438-0.054,8.147
						C100.063,445.422,106.413,445.423,112.224,443.435z"/>
				</g>
				<path id="XMLID_884_" style="fill:#F9D5B4;" d="M103.243,375.216c-26.645-1.044-27.031,24.373-26.633,32.73
					c0.289,6.067,2.672,14.886,3.957,19.264c0.738,2.515,2.075,4.835,3.992,6.663c6.955,6.637,18.685,8.892,18.685,8.892
					s11.73-2.255,18.685-8.892c1.916-1.828,3.254-4.149,3.992-6.663c1.285-4.378,3.668-13.197,3.957-19.264
					C130.26,399.885,137.443,373.875,103.243,375.216z"/>
				<g id="XMLID_877_">
					<circle id="XMLID_881_" style="fill:#ED9D85;" cx="86.598" cy="419.886" r="3.859"/>
					<circle id="XMLID_878_" style="fill:#ED9D85;" cx="120.7" cy="419.886" r="3.859"/>
				</g>
				<g id="XMLID_813_">
					<g id="XMLID_874_">
						<ellipse id="XMLID_876_" style="fill:#332113;" cx="90.261" cy="409.908" rx="3.467" ry="4.086"/>
						<ellipse id="XMLID_875_" style="fill:#332113;" cx="117.037" cy="409.908" rx="3.467" ry="4.086"/>
					</g>
					<g id="XMLID_816_">
						<polygon id="XMLID_871_" style="fill:#332113;" points="117.857,409.318 122.025,408.133 120.412,410.319 						"/>
						<polygon id="XMLID_868_" style="fill:#332113;" points="89.441,409.318 85.272,408.133 86.885,410.319 						"/>
					</g>
				</g>
				<g id="XMLID_614_">
					<g>
						<path id="XMLID_41_" style="fill:#FFFFFF;stroke:#FF8080;stroke-width:0.942;stroke-miterlimit:10;" d="M96.84,427.71
							c1.174,2.592,3.778,4.399,6.809,4.399s5.635-1.807,6.809-4.399H96.84z"/>
					</g>
				</g>
			</g>
			<path id="XMLID_612_" style="fill:#970000;" d="M133.281,389.887c-0.122-4.36-1.775-8.696-4.8-12.353
				c-4.081-4.934-10.607-8.58-17.874-9.984c-6.73-1.3-13.197,1.386-16.505,5.971c-0.229-0.153-0.475-0.287-0.756-0.372
				c-4.345-1.326-9.109,0.058-12.649,3.673c-3.54,3.616-7.393,9.391-7.397,15.34c0,0.602,0.012,1.175,0.03,1.733
				c1.068,3.636,1.962,7.34,3.108,10.865c0.838,2.577,1.776,5.508,3.065,8.228c0.086-0.129,0.169-0.267,0.252-0.405
				c-0.01-0.065-0.019-0.131-0.029-0.197c-0.609-2.148-0.761-4.336-0.519-6.465c-0.036-6.949,1.819-14.097,8.608-16.366
				c0.261-0.087,3.42-1.732,5.303-3.63c3.57,7.771,12.78,13.12,22.016,12.649c-1.51-1.894-2.479-4.075-3.329-6.298
				c2.227,2.064,5.022,3.523,7.54,5.273c3.102,2.156,6.037,5.286,6.03,9.064c1.501-3.097,2.017-6.631,1.59-10.043
				c0.106,0.453,0.195,0.891,0.249,1.304c0.736,5.563,0.39,11.28-1.079,16.699c2.605-4.123,5.117-8.374,6.525-13.043
				C133.766,397.864,134.199,393.689,133.281,389.887z"/>
		</g>
	</g>
	<g id="XMLID_517_">
		<circle id="XMLID_675_" style="opacity:0.1;" cx="293.405" cy="55.543" r="55.543"/>
		<g id="XMLID_518_">
			<circle id="XMLID_674_" style="fill:#FFFFFF;" cx="293.405" cy="55.543" r="50.844"/>
			<g id="XMLID_520_">
				<defs>
					<circle id="XMLID_523_" cx="293.405" cy="55.543" r="50.844"/>
				</defs>
				<clipPath id="XMLID_33_">
					<use xlink:href="#XMLID_523_"  style="overflow:visible;"/>
				</clipPath>
				<g id="XMLID_956_" style="clip-path:url(#XMLID_33_);">
					<g id="XMLID_962_">
						<path id="XMLID_976_" style="fill:#F9D5B4;" d="M329.022,93.999c-1.606-1.136-3.459-1.971-5.418-2.514l-2.064-0.549
							c0.013-0.004,0.028-0.008,0.041-0.012l-16.263-5.286c-1.31-0.353-2.038-1.424-2.272-2.623
							c-0.661-3.391-0.582-11.55-0.565-13.006c0.001-0.114-0.103-0.202-0.231-0.202h-0.778h-16.134h-0.778
							c-0.129,0-0.232,0.088-0.231,0.202c0.016,1.441,0.082,9.435-0.565,13.006c-0.217,1.202-0.962,2.27-2.272,2.623l-16.263,5.286
							c0.014,0.004,0.029,0.008,0.042,0.012l-2.116,0.562c-1.687,0.468-3.307,1.135-4.73,2.066
							c-7.437,4.865-7.651,12.826-7.959,14.308c-0.026,0.127,0.083,0.241,0.228,0.241h42.711h42.711
							c0.145,0,0.254-0.115,0.228-0.241C336.044,106.434,335.935,98.889,329.022,93.999z"/>
						<g id="XMLID_974_">
							<g>
								<path id="XMLID_36_" style="fill:#ED7076;" d="M329.022,93.999c-1.606-1.136-3.459-1.971-5.418-2.514l-2.064-0.549
									c0.013-0.004,0.028-0.008,0.041-0.012l-13.99-4.547c-4.375,1.661-9.163,2.584-14.186,2.584
									c-5.023,0-9.811-0.922-14.186-2.584l-13.99,4.547c0.014,0.004,0.029,0.008,0.042,0.012l-2.116,0.562
									c-1.687,0.468-3.307,1.135-4.73,2.066c-7.437,4.865-7.651,12.826-7.959,14.308c-0.026,0.127,0.083,0.241,0.228,0.241h42.711
									h42.711c0.145,0,0.254-0.115,0.228-0.241C336.044,106.434,335.935,98.889,329.022,93.999z"/>
							</g>
						</g>
						<g id="XMLID_972_">
							<path id="XMLID_973_" style="fill:#F2B78B;" d="M302.69,79.949c-0.077-3.8-0.218-7.369-0.209-8.334
								c0.001-0.142-0.103-0.251-0.231-0.251h-17.69c-0.129,0-0.232,0.109-0.231,0.251c0.008,0.963-0.141,4.55-0.222,8.361
								c1.264,1.317,5.95,3.19,9.097,3.211C296.481,83.209,301.326,80.99,302.69,79.949z"/>
						</g>
						<g id="XMLID_969_">
							<path id="XMLID_971_" style="fill:#F9D5B4;" d="M276.707,52.524c1.246,3.356,0.536,8.603-1.586,9.616
								c-2.122,1.013-4.852-2.591-6.099-5.947c-1.246-3.356-0.536-6.899,1.586-7.912C272.73,47.268,275.46,49.168,276.707,52.524z"
								/>
							<path id="XMLID_970_" style="fill:#F9D5B4;" d="M310.103,52.524c-1.246,3.356-0.536,8.603,1.586,9.616
								c2.122,1.013,4.853-2.591,6.099-5.947c1.246-3.356,0.536-6.899-1.586-7.912C314.08,47.268,311.35,49.168,310.103,52.524z"/>
						</g>
						<path id="XMLID_968_" style="fill:#F9D5B4;" d="M293.209,22.761c-21.045-0.697-21.355,19.456-21.039,26.098
							c0.23,4.837,1.379,11.869,2.403,15.359c0.588,2.005,1.655,5.358,3.182,6.816c4.105,3.917,9.204,7.389,12.358,8.593
							c0.568,0.217,1.814,0.315,3.096,0.306c1.282,0.008,2.527-0.089,3.096-0.306c3.153-1.204,8.253-4.676,12.358-8.593
							c1.528-1.458,2.594-4.811,3.182-6.816c1.024-3.49,2.173-10.522,2.403-15.359C314.564,42.217,314.254,22.064,293.209,22.761z"
							/>
						<g id="XMLID_965_">
							<ellipse id="XMLID_967_" style="fill:#332113;" cx="282.31" cy="50.558" rx="2.629" ry="2.986"/>
							<ellipse id="XMLID_966_" style="fill:#332113;" cx="303.659" cy="50.558" rx="2.629" ry="2.986"/>
						</g>
						<path id="XMLID_964_" style="fill:#EDC885;" d="M313.225,31.524c-0.054-0.358-0.17-0.709-0.368-1.028
							c-3.299-5.311-10.3-9.192-19.404-8.839c-9.104-0.352-16.105,3.529-19.404,8.839c-0.198,0.319-0.314,0.671-0.369,1.028
							c-2.368,4.535-1.449,9.798-1.515,13.602c0.157,2.508,0.57,4.968,1.346,7.187c0.629-3.414,0.408-6.924,1.19-10.366
							c0.574-2.524,1.384-4.993,2.417-7.366c4.45,1.772,10.128,2.844,16.333,2.844c6.206,0,11.884-1.072,16.333-2.844
							c1.033,2.373,1.844,4.843,2.418,7.366c0.782,3.442,0.562,6.952,1.19,10.366c0.776-2.219,1.189-4.678,1.346-7.187
							C314.673,41.322,315.593,36.059,313.225,31.524z"/>
						<path id="XMLID_963_" style="fill:#FFF07E;" d="M283.975,36.543c-4.912-1.923,0.787-9.972,1.71-10.853
							c3.852-3.678,10.483-4.576,11.556-11.035c5.281,1.971,9.477,6.631,10.885,12.089c0.605,2.346-1.571,8.026-3.534,9.445
							C304.593,36.188,293.066,40.101,283.975,36.543z"/>
					</g>
					<g id="XMLID_957_">
						<g>
							<path id="XMLID_35_" style="fill:#FFFFFF;" d="M287.976,66.114c0.936,2.067,3.012,3.507,5.429,3.507
								c2.417,0,4.493-1.44,5.429-3.507H287.976z"/>
						</g>
					</g>
				</g>
			</g>
		</g>
	</g>
	<g id="XMLID_622_">
		<circle id="XMLID_739_" style="opacity:0.1;" cx="622.882" cy="155.393" r="47.204"/>
		<g id="XMLID_623_">
			<circle id="XMLID_738_" style="fill:#FFFFFF;" cx="622.882" cy="155.393" r="43.211"/>
			<g id="XMLID_624_">
				<defs>
					<circle id="XMLID_627_" cx="622.882" cy="155.393" r="43.211"/>
				</defs>
				<clipPath id="XMLID_43_">
					<use xlink:href="#XMLID_627_"  style="overflow:visible;"/>
				</clipPath>
				<g id="XMLID_628_" style="clip-path:url(#XMLID_43_);">
					<g id="XMLID_682_">
						<g id="XMLID_683_">
							<g id="XMLID_716_">
								<path id="XMLID_737_" style="fill:#C68458;" d="M652.793,188.838c-1.349-0.954-2.904-1.655-4.55-2.111l-1.733-0.461
									c0.011-0.004,0.023-0.007,0.035-0.01l-13.657-4.439c-1.1-0.296-1.712-1.196-1.908-2.203
									c-0.555-2.848-0.489-9.7-0.474-10.922c0.001-0.096-0.086-0.17-0.194-0.17h-0.653h-13.549h-0.654
									c-0.108,0-0.195,0.074-0.194,0.17c0.013,1.21,0.069,7.924-0.474,10.922c-0.183,1.009-0.808,1.906-1.908,2.203l-13.657,4.439
									c0.011,0.004,0.024,0.007,0.035,0.01l-1.777,0.473c-1.417,0.393-2.777,0.953-3.972,1.735
									c-6.246,4.085-6.425,10.771-6.684,12.015c-0.022,0.106,0.07,0.203,0.191,0.203h35.868h35.868
									c0.122,0,0.213-0.096,0.191-0.203C658.69,199.281,658.598,192.945,652.793,188.838z"/>
								<g id="XMLID_735_">
									<path id="XMLID_736_" style="fill:#E0D94D;" d="M652.793,188.838c-1.349-0.954-2.904-1.655-4.55-2.111l-1.733-0.461
										c0.011-0.004,0.023-0.007,0.035-0.01l-11.748-3.819c-3.674,1.395-7.695,2.17-11.913,2.17c-4.219,0-8.24-0.775-11.913-2.17
										l-11.748,3.819c0.011,0.004,0.024,0.007,0.035,0.01l-1.777,0.473c-1.417,0.393-2.777,0.953-3.972,1.735
										c-6.246,4.085-6.425,10.771-6.684,12.015c-0.022,0.106,0.07,0.203,0.191,0.203h35.868h35.868
										c0.122,0,0.213-0.096,0.191-0.203C658.69,199.281,658.598,192.945,652.793,188.838z"/>
								</g>
								<g id="XMLID_733_">
									<path id="XMLID_734_" style="fill:#A56A42;" d="M630.679,177.039c-0.065-3.191-0.183-6.188-0.175-6.999
										c0.001-0.119-0.086-0.211-0.194-0.211h-14.856c-0.108,0-0.195,0.091-0.194,0.211c0.007,0.809-0.119,3.821-0.186,7.021
										c1.061,1.106,4.997,2.679,7.639,2.697C625.465,179.777,629.534,177.914,630.679,177.039z"/>
								</g>
								<g id="XMLID_730_">
									<path id="XMLID_732_" style="fill:#C68458;" d="M608.859,154.009c1.047,2.819,0.45,7.225-1.332,8.076
										c-1.782,0.851-4.075-2.176-5.122-4.994c-1.047-2.819-0.45-5.793,1.332-6.644
										C605.519,149.595,607.812,151.19,608.859,154.009z"/>
									<path id="XMLID_731_" style="fill:#C68458;" d="M636.905,154.009c-1.047,2.819-0.45,7.225,1.332,8.076
										c1.782,0.851,4.075-2.176,5.122-4.994c1.047-2.819,0.45-5.793-1.332-6.644C640.245,149.595,637.951,151.19,636.905,154.009
										z"/>
								</g>
								<path id="XMLID_729_" style="fill:#C68458;" d="M622.717,129.014c-17.673-0.586-17.934,16.339-17.668,21.916
									c0.193,4.062,1.158,9.967,2.018,12.898c0.494,1.684,1.39,4.5,2.673,5.724c3.447,3.289,7.73,6.205,10.378,7.216
									c0.477,0.182,1.523,0.264,2.6,0.257c1.077,0.007,2.122-0.075,2.6-0.257c2.648-1.011,6.93-3.927,10.378-7.216
									c1.283-1.224,2.178-4.04,2.673-5.724c0.86-2.931,1.825-8.836,2.018-12.898C640.651,145.353,640.391,128.429,622.717,129.014
									z"/>
								<g id="XMLID_725_">
									<path id="XMLID_726_" style="fill:#3A1E0B;" d="M626.24,172.72c-1.716-0.311-3.114-2.128-3.358-3.192
										c-0.244,1.064-1.641,2.882-3.358,3.192c-4.25,0.769-8.474-2.876-11.574-6.678c0.497,1.348,1.149,2.743,1.954,3.511
										c3.447,3.289,7.73,6.205,10.378,7.216c0.477,0.182,1.523,0.264,2.6,0.257c1.077,0.007,2.122-0.075,2.6-0.257
										c2.648-1.011,6.931-3.927,10.378-7.216c0.805-0.768,1.457-2.162,1.953-3.511C634.714,169.844,630.49,173.489,626.24,172.72
										z"/>
								</g>
								<g id="XMLID_722_">
									<ellipse id="XMLID_724_" style="fill:#332113;" cx="613.565" cy="152.358" rx="2.208" ry="2.508"/>
									<ellipse id="XMLID_723_" style="fill:#332113;" cx="631.493" cy="152.358" rx="2.208" ry="2.508"/>
								</g>
								<g id="XMLID_717_">
									<g>
										<path id="XMLID_31_" style="fill:#FFFFFF;" d="M617.236,164.386c0.974,2.418,3.133,4.103,5.646,4.103
											c2.513,0,4.672-1.685,5.646-4.103H617.236z"/>
									</g>
								</g>
							</g>
							<g id="XMLID_694_">
								<g id="XMLID_711_">
									<g>
										<path id="XMLID_29_" style="fill:#3A1E0B;" d="M607.135,145.654c0.751-3.303,1.979-6.499,3.657-9.443
											c-0.525-0.756-1.507-0.953-2.417-0.738c-2.696,4.085-3.307,9.248-3.37,12.851c0.132,2.107,0.478,4.172,1.13,6.035
											C606.663,151.492,606.478,148.544,607.135,145.654z"/>
									</g>
								</g>
								<g id="XMLID_695_">
									<g>
										<path id="XMLID_27_" style="fill:#3A1E0B;" d="M638.629,145.654c-0.751-3.303-1.979-6.499-3.657-9.443
											c0.525-0.756,1.507-0.953,2.417-0.738c2.696,4.085,3.307,9.248,3.37,12.851c-0.132,2.107-0.479,4.172-1.13,6.035
											C639.1,151.492,639.286,148.544,638.629,145.654z"/>
									</g>
								</g>
							</g>
							<path id="XMLID_693_" style="fill:#572721;" d="M639.487,136.27c-0.046-0.3-0.143-0.596-0.31-0.864
								c-0.671-1.079-1.527-2.086-2.542-2.991c0.009-1.007-0.417-2.117-0.929-3.021c-2.42-4.283-6.165-7.806-10.588-9.96
								c-0.031,2.408-1.922,4.41-4,5.627c-2.078,1.217-4.437,1.913-6.458,3.22c-0.522,0.313-1.441,1.031-2.19,1.858
								c-2.56,1.323-4.573,3.158-5.884,5.267c-0.166,0.268-0.264,0.563-0.31,0.864c-1.988,3.809-1.673,8.228-1.728,11.422
								c0.132,2.106,0.935,7.959,1.587,9.822c0.528-2.867,0.343-9.602,1-12.492c0.482-2.12,1.163-4.193,2.03-6.186
								c4.4-4.604,22.681-4.397,27.433,0c0.867,1.993,1.548,4.067,2.03,6.186c0.657,2.89,0.472,9.625,1,12.492
								c0.652-1.864,1.455-7.716,1.586-9.822C641.159,144.498,641.475,140.079,639.487,136.27z"/>
						</g>
					</g>
					<g id="XMLID_629_">
						<g id="XMLID_634_">
							<path id="XMLID_678_" style="fill:#8ECDC7;" d="M620.844,149.174c-3.231-3.938-15.411-1.145-15.424-1.147
								c0.224,0.89,0.418,1.768,0.593,2.636c0.905,0.094,0.958,2.125,1.048,2.869c0.438,3.591,2.84,6.237,7.898,6.112
								c5.069-0.264,6.253-3.932,6.462-6.242C621.649,150.882,620.842,149.182,620.844,149.174z M620.266,153.584
								c-0.261,3.217-2.236,5.1-5.43,5.255c-0.323,0.018-0.639,0.02-0.938,0.007c-5.034-0.009-5.894-4.414-5.994-7.2
								c-0.064-1.595,1.075-2.96,2.682-3.118c0.924-0.09,1.964-0.091,3.166-0.09c3.761,0,5.398,0.897,5.834,1.617
								C619.841,150.483,620.412,151.837,620.266,153.584z"/>
							<path id="XMLID_649_" style="fill:#8ECDC7;" d="M624.41,153.401c0.209,2.31,1.394,5.978,6.462,6.242
								c5.058,0.125,7.46-2.521,7.898-6.112c0.09-0.743,0.143-2.775,1.048-2.869c0.176-0.868,0.369-1.746,0.593-2.636
								c-0.013,0.002-12.193-2.791-15.424,1.147C624.989,149.182,624.182,150.882,624.41,153.401z M626.246,150.055
								c0.435-0.72,2.072-1.617,5.834-1.617c1.202,0,2.242,0,3.166,0.09c1.607,0.159,2.745,1.524,2.682,3.118
								c-0.099,2.786-0.961,7.191-5.994,7.2c-0.299,0.012-0.615,0.01-0.938-0.007c-3.195-0.155-5.17-2.038-5.43-5.255
								C625.419,151.837,625.99,150.483,626.246,150.055z"/>
						</g>
						<path id="XMLID_633_" style="fill:#8ECDC7;" d="M625.101,152.268c-0.001-0.001-0.826-0.652-2.271-0.651
							c-1.354-0.001-2.099,0.651-2.1,0.651c-0.22-0.611-0.441-1.22-0.663-1.829c1.899,0.001,3.798,0.001,5.697,0
							C625.542,151.048,625.321,151.657,625.101,152.268z"/>
					</g>
				</g>
			</g>
		</g>
	</g>
	<g id="XMLID_707_">
		<circle id="XMLID_791_" style="opacity:0.1;" cx="439.238" cy="255.337" r="65.189"/>
		<g id="XMLID_708_">
			<circle id="XMLID_790_" style="fill:#FFFFFF;" cx="439.238" cy="255.337" r="59.675"/>
			<g id="XMLID_709_">
				<defs>
					<circle id="XMLID_712_" cx="439.238" cy="255.337" r="59.675"/>
				</defs>
				<clipPath id="XMLID_46_">
					<use xlink:href="#XMLID_712_"  style="overflow:visible;"/>
				</clipPath>
				<g id="XMLID_548_" style="clip-path:url(#XMLID_46_);">
					<g id="XMLID_937_">
						<g id="XMLID_938_">
							<path id="XMLID_955_" style="fill:#D8AA8B;" d="M479.179,300.32c-1.829-1.294-3.937-2.243-6.168-2.862l-2.35-0.625
								c0.015-0.005,0.032-0.009,0.047-0.014l-18.512-6.017c-1.491-0.402-2.32-1.621-2.586-2.986
								c-0.752-3.86-0.663-13.148-0.643-14.805c0.002-0.13-0.117-0.23-0.263-0.23h-0.886h-18.365h-0.886
								c-0.146,0-0.265,0.1-0.263,0.23c0.018,1.64,0.093,10.74-0.643,14.804c-0.248,1.368-1.095,2.584-2.586,2.986l-18.512,6.017
								c0.016,0.005,0.032,0.009,0.048,0.014l-2.408,0.64c-1.92,0.532-3.764,1.292-5.384,2.352c-8.466,5.538-8.709,14.6-9.06,16.286
								c-0.03,0.144,0.094,0.275,0.259,0.275h48.618h48.618c0.165,0,0.289-0.13,0.259-0.275
								C487.172,314.475,487.048,305.887,479.179,300.32z"/>
							<g id="XMLID_953_">
								<path id="XMLID_954_" style="fill:#C1977A;" d="M449.212,284.327c-0.088-4.325-0.248-8.388-0.238-9.487
									c0.002-0.162-0.117-0.286-0.263-0.286h-20.137c-0.146,0-0.265,0.124-0.263,0.286c0.009,1.097-0.161,5.179-0.253,9.517
									c1.439,1.499,6.773,3.632,10.355,3.656C442.145,288.038,447.66,285.512,449.212,284.327z"/>
							</g>
							<g id="XMLID_950_">
								<path id="XMLID_952_" style="fill:#D8AA8B;" d="M419.635,253.11c1.419,3.82,0.61,9.793-1.805,10.946
									c-2.415,1.153-5.524-2.949-6.942-6.77c-1.419-3.821-0.61-7.853,1.805-9.006C415.109,247.127,418.217,249.289,419.635,253.11
									z"/>
								<path id="XMLID_951_" style="fill:#D8AA8B;" d="M457.651,253.11c-1.419,3.82-0.61,9.793,1.805,10.946
									c2.415,1.153,5.524-2.949,6.942-6.77c1.419-3.821,0.611-7.853-1.805-9.006S459.07,249.289,457.651,253.11z"/>
							</g>
							<path id="XMLID_949_" style="fill:#D8AA8B;" d="M438.421,219.23c-23.955-0.794-24.309,22.147-23.949,29.707
								c0.262,5.506,1.57,13.51,2.736,17.483c0.67,2.282,1.883,6.099,3.622,7.759c4.673,4.458,10.478,8.41,14.067,9.781
								c0.647,0.247,2.064,0.359,3.524,0.349c1.46,0.01,2.877-0.102,3.524-0.349c3.589-1.371,9.394-5.322,14.067-9.781
								c1.739-1.659,2.953-5.476,3.623-7.759c1.166-3.973,2.474-11.977,2.736-17.483
								C462.729,241.377,462.376,218.437,438.421,219.23z"/>
							<g id="XMLID_946_">
								<ellipse id="XMLID_948_" style="fill:#332113;" cx="426.014" cy="250.872" rx="2.992" ry="3.399"/>
								<ellipse id="XMLID_947_" style="fill:#332113;" cx="450.316" cy="250.872" rx="2.992" ry="3.399"/>
							</g>
							<g id="XMLID_944_">
								<path id="XMLID_945_" style="fill:#42428E;" d="M470.661,296.834c0.015-0.005,0.032-0.009,0.047-0.014l-15.925-5.176
									c-3.203,3.786-10.43,9.125-16.148,9.125c-5.718,0-12.625-4.793-16.148-9.125l-15.925,5.176
									c0.016,0.005,0.032,0.009,0.048,0.014l-1.118,0.297v19.256h33.142h33.143V297.13L470.661,296.834z"/>
							</g>
							<g id="XMLID_939_">
								<g>
									<path id="XMLID_25_" style="fill:#FFFFFF;" d="M430.767,267.397c1.32,2.913,4.247,4.944,7.653,4.944
										c3.407,0,6.333-2.031,7.653-4.944H430.767z"/>
								</g>
							</g>
						</g>
					</g>
					<path id="XMLID_581_" style="fill:#5A2D24;" d="M465.212,235.732c-0.924-3.924-5.275-11.389-9.83-10.821
						c-0.86-2.843-2.739-5.393-5.103-7.022c-3.689-2.542-8.316-3.107-12.664-2.525c-7.028,0.941-15.539,3.501-20.141,9.29
						c-4.603,5.789-8.962,14.078-8.736,21.691c1.095-1.575,2.306-2.96,3.599-4.184c-0.247,6.934,1.397,13.941,4.953,19.696
						c-0.235-4.487,0.329-9.016,1.605-13.279c0.029,2.088,0.34,4.182,0.944,6.196c-0.195-0.649,4.454-6.337,5.625-8.034
						c-0.025,0.309-0.045,0.619-0.056,0.929c0.025-0.712,7.508-5.155,8.473-5.982c2.08-1.783,4.025-3.725,5.821-5.794
						c-0.633,1.133-1.217,2.291-1.753,3.448c-0.507,1.095-2.243,8.208-2.953,8.507c5.353-2.256,10.036-6.076,13.322-10.867
						c0.769-1.122,1.268-2.262,1.541-3.338c0.278-0.025,0.545-0.044,0.801-0.058c0.084,0.261,0.179,0.518,0.285,0.768
						c0.82,1.922,2.175,3.555,3.366,5.272c4.469,6.444,6.708,14.404,6.251,22.233C465.758,254.307,467.301,244.602,465.212,235.732z
						"/>
				</g>
			</g>
		</g>
	</g>
	<g id="XMLID_759_">
		<circle id="XMLID_843_" style="opacity:0.1;" cx="516.534" cy="436.51" r="81.777"/>
		<circle id="XMLID_842_" style="fill:#FFFFFF;" cx="516.534" cy="436.51" r="74.859"/>
		<g id="XMLID_761_">
			<defs>
				<circle id="XMLID_764_" cx="516.534" cy="436.51" r="74.859"/>
			</defs>
			<clipPath id="XMLID_47_">
				<use xlink:href="#XMLID_764_"  style="overflow:visible;"/>
			</clipPath>
		</g>
		<g id="XMLID_295_">
			<defs>
				<circle id="XMLID_294_" cx="516.534" cy="436.51" r="74.859"/>
			</defs>
			<clipPath id="XMLID_48_">
				<use xlink:href="#XMLID_294_"  style="overflow:visible;"/>
			</clipPath>
			<g id="XMLID_897_" style="clip-path:url(#XMLID_48_);">
				<g id="XMLID_898_">
					<path id="XMLID_936_" style="fill:#563220;" d="M537.588,494.327c7.259,1.322,3.738,10.574,9.486,5.831
						c5.747-4.743,8.885-71.8,8.329-80.662c-0.557-8.862-2.696-17.795-7.438-25.122c-7-10.816-19.642-16.152-32.026-16.152
						c-12.385,0-25.027,5.336-32.026,16.152c-4.743,7.328-6.881,16.26-7.438,25.122c-0.557,8.862,5.971,75.918,11.718,80.662
						c5.747,4.743-1.163-4.509,6.096-5.831H537.588z"/>
					<g id="XMLID_933_">
						<path id="XMLID_935_" style="fill:#E5B295;" d="M516.534,501.5c10.449,0,20.14-5.533,28.14-14.963l-13.769-4.293
							c-1.691-0.512-2.631-2.067-2.932-3.808c-0.853-4.924-0.752-17.899-0.729-20.012c0.002-0.166-0.132-0.293-0.298-0.293h-20.823
							c-0.166,0-0.3,0.127-0.298,0.293c0.02,2.092,0.105,14.829-0.729,20.012c-0.281,1.744-1.242,3.296-2.932,3.808l-13.769,4.293
							C496.395,495.967,506.085,501.5,516.534,501.5z"/>
						<path id="XMLID_934_" style="fill:#E5B295;" d="M462.121,513.395L462.121,513.395c-0.026,0.138,0.047,0.266,0.164,0.321
							C462.168,513.661,462.095,513.533,462.121,513.395z"/>
					</g>
					<g id="XMLID_931_">
						<path id="XMLID_932_" style="fill:#D39E7A;" d="M527.299,469.321c-0.099-4.432-0.067-8.643-0.055-9.768
							c0.002-0.166-0.132-0.293-0.298-0.293h-20.823c-0.166,0-0.3,0.127-0.298,0.293c0.011,1.124,0.039,5.32-0.065,9.765
							C512.723,471.702,520.334,471.704,527.299,469.321z"/>
					</g>
					<g id="XMLID_928_">
						<path id="XMLID_930_" style="fill:#E5B295;" d="M491.433,431.493c1.873,4.449,0.806,11.404-2.384,12.747
							c-3.19,1.343-7.294-3.434-9.168-7.884c-1.874-4.449-0.806-9.145,2.384-10.488
							C485.455,424.525,489.559,427.043,491.433,431.493z"/>
						<path id="XMLID_929_" style="fill:#E5B295;" d="M541.636,431.493c-1.873,4.449-0.806,11.404,2.384,12.747
							c3.19,1.343,7.295-3.434,9.168-7.884c1.873-4.449,0.806-9.145-2.384-10.488C547.614,424.525,543.51,427.043,541.636,431.493z"
							/>
					</g>
					<path id="XMLID_927_" style="fill:#E5B295;" d="M516.534,395.723c-31.935-1.252-32.398,21.047-31.921,31.062
						c0.346,7.271,3.203,17.841,4.742,23.089c0.885,3.014,2.488,5.795,4.784,7.987c8.336,7.954,22.395,10.657,22.395,10.657
						s14.059-2.703,22.395-10.657c2.297-2.191,3.9-4.973,4.784-7.987c1.54-5.247,4.397-15.817,4.743-23.089
						C548.932,416.769,548.47,394.471,516.534,395.723z"/>
					<g id="XMLID_924_">
						<polygon id="XMLID_926_" style="fill:#332113;" points="532.932,427.936 537.928,426.517 535.995,429.137 						"/>
						<polygon id="XMLID_925_" style="fill:#332113;" points="498.874,427.936 493.877,426.517 495.811,429.137 						"/>
					</g>
					<g id="XMLID_921_">
						<ellipse id="XMLID_923_" style="fill:#332113;" cx="499.857" cy="429.339" rx="4.156" ry="4.897"/>
						<ellipse id="XMLID_922_" style="fill:#332113;" cx="531.949" cy="429.339" rx="4.156" ry="4.897"/>
					</g>
					<g id="XMLID_916_">
						<g>
							<path id="XMLID_24_" style="fill:#FFFFFF;stroke:#D6702B;stroke-width:1.5731;stroke-miterlimit:10;" d="M505.164,449.423
								c1.961,4.328,6.309,7.345,11.37,7.345c5.061,0,9.409-3.017,11.37-7.345H505.164z"/>
						</g>
					</g>
					<circle id="XMLID_915_" style="fill:#E29E83;" cx="495.232" cy="441.097" r="4.625"/>
					<circle id="XMLID_914_" style="fill:#E29E83;" cx="536.105" cy="441.097" r="4.625"/>
					<g id="XMLID_912_">
						<path id="XMLID_913_" style="fill:#FFF68C;" d="M516.691,387.872c-18.573,0-33.63,14.557-33.63,32.513
							c0,1.923,1.111,5.233,1.183,4.951c4.102-15.956,22.865-19.493,32.457-19.493c9.592,0,28.158,2.531,32.457,19.493
							c0.07,0.278,1.163-3.03,1.163-4.951C550.321,402.429,535.265,387.872,516.691,387.872z"/>
					</g>
					<path id="XMLID_911_" style="fill:#BEC2F5;" d="M505.102,478.393c-0.002,0.013-0.004,0.028-0.006,0.042
						c-0.281,1.745-1.242,3.296-2.932,3.808l-23.665,7.379c-2.177,0.679-4.268,1.648-6.105,3
						c-9.599,7.063-9.875,18.622-10.273,20.773c-0.034,0.184,0.107,0.35,0.294,0.35h54.12h54.12c0.187,0,0.328-0.166,0.294-0.35
						c-0.386-2.088-0.527-13.042-9.449-20.142c-2.073-1.65-4.464-2.861-6.993-3.65l-23.6-7.359
						c-1.691-0.512-2.631-2.067-2.932-3.808c-0.002-0.013-0.004-0.028-0.007-0.042c-3.712,0.118-7.528,0.183-11.432,0.183
						C512.63,478.576,508.814,478.511,505.102,478.393z"/>
					
						<line id="XMLID_910_" style="fill:none;stroke:#FFF68C;stroke-width:1.6323;stroke-miterlimit:10;" x1="516.534" y1="476.426" x2="516.534" y2="513.395"/>
					<g id="XMLID_908_">
						<path id="XMLID_909_" style="fill:#FFF68C;" d="M516.534,476.426c-3.779,0-7.494-0.168-11.15-0.46
							c-0.08,0.91-0.172,1.737-0.282,2.427c3.712,0.118,7.528,0.183,11.432,0.183c3.904,0,7.72-0.065,11.432-0.183
							c-0.115-0.675-0.211-1.504-0.294-2.426C524.021,476.258,520.309,476.426,516.534,476.426z"/>
					</g>
					<g id="XMLID_899_">
						<g id="XMLID_903_">
							<g id="XMLID_905_">
								<path id="XMLID_907_" style="fill:none;stroke:#FFFFFF;stroke-width:0.8161;stroke-miterlimit:10;" d="M486.612,433.797
									c-3.923,16.822,1.361,35.498,13.515,47.772c3.167,3.198,6.762,5.988,9.587,9.492c2.825,3.503,7.315,7.979,6.629,12.427"/>
								<path id="XMLID_906_" style="fill:none;stroke:#FFFFFF;stroke-width:0.8161;stroke-miterlimit:10;" d="M546.629,433.797
									c3.923,16.822-1.361,35.498-13.515,47.772c-3.167,3.198-6.762,5.988-9.587,9.492c-2.825,3.503-7.314,7.979-6.629,12.427"/>
							</g>
							
								<line id="XMLID_904_" style="fill:none;stroke:#FFFFFF;stroke-width:0.8161;stroke-miterlimit:10;" x1="516.621" y1="501.64" x2="516.621" y2="513.866"/>
						</g>
						<g id="XMLID_900_">
							<path id="XMLID_902_" style="fill:#FFFFFF;" d="M550.652,434.393c0,1.689-1.377,3.058-3.076,3.058
								c-1.699,0-2.259-1.369-2.259-3.058c0-1.689,0.56-3.058,2.259-3.058C549.275,431.335,550.652,432.704,550.652,434.393z"/>
							<path id="XMLID_901_" style="fill:#FFFFFF;" d="M482.417,434.393c0,1.689,1.377,3.058,3.076,3.058s2.259-1.369,2.259-3.058
								c0-1.689-0.56-3.058-2.259-3.058S482.417,432.704,482.417,434.393z"/>
						</g>
					</g>
				</g>
			</g>
		</g>
	</g>
	<g id="XMLID_263_">
		<path id="XMLID_276_" style="opacity:0.4;fill:#329AA5;" d="M587.09,298.429h-55.421c-6.175,0-11.182,5.008-11.182,11.181v22.462
			c0,6.176,5.007,11.182,11.182,11.182h20.439l7.639,16.432l7.343-16.432h20c6.176,0,11.182-5.006,11.182-11.182v-22.462
			C598.272,303.437,593.266,298.429,587.09,298.429z"/>
		<path id="XMLID_275_" style="fill:#FFFFFF;" d="M581.146,291.687h-55.42c-6.174,0-11.182,5.007-11.182,11.181v22.463
			c0,6.176,5.007,11.182,11.182,11.182h20.438l7.641,16.432l7.342-16.432h20c6.177,0,11.182-5.006,11.182-11.182v-22.463
			C592.328,296.694,587.323,291.687,581.146,291.687z"/>
		<g id="XMLID_264_">
			<g>
				<circle id="XMLID_40_" style="fill:#329AA5;" cx="539.993" cy="315.411" r="3.452"/>
				<circle id="XMLID_39_" style="fill:#329AA5;" cx="553.436" cy="315.411" r="3.45"/>
				<path id="XMLID_38_" style="fill:#329AA5;" d="M570.331,315.411c0,1.906-1.544,3.451-3.453,3.451
					c-1.903,0-3.451-1.546-3.451-3.451c0-1.906,1.548-3.453,3.451-3.453C568.787,311.958,570.331,313.505,570.331,315.411z"/>
			</g>
		</g>
	</g>
	<g id="XMLID_502_">
		<path id="XMLID_508_" style="fill:#329AA5;" d="M234.014,181.591h67.294c6.248,0,11.317-5.068,11.317-11.317v-22.734
			c0-6.251-5.069-11.318-11.317-11.318H275.02l-7.732-16.631l-7.43,16.631h-25.844c-6.251,0-11.317,5.066-11.317,11.318v22.734
			C222.697,176.522,227.763,181.591,234.014,181.591z"/>
		<g id="XMLID_503_">
			<path id="XMLID_504_" style="fill:#ED7076;" d="M246.115,153.365c-5.769-9.768-16.845-7.753-14.372,3.304
				c1.957,8.748,14.372,16.179,14.372,16.179s12.414-7.432,14.371-16.179C262.961,145.612,251.883,143.597,246.115,153.365z"/>
		</g>
	</g>
	<g id="XMLID_235_">
		<circle id="XMLID_346_" style="fill:#ED7076;" cx="25.524" cy="249.783" r="25.525"/>
		<polygon id="XMLID_237_" style="fill:#FFFFFF;" points="16.912,264.333 16.912,235.232 42.116,249.783 		"/>
	</g>
	<g id="XMLID_241_">
		<circle id="XMLID_238_" style="fill:#329AA5;" cx="612.221" cy="406.835" r="37.031"/>
		<g id="XMLID_222_">
			<rect id="XMLID_234_" x="589.07" y="391.379" style="fill:#9EC0CC;" width="46.302" height="30.913"/>
			<polygon id="XMLID_229_" style="fill:#BFD8E3;" points="635.372,422.292 618.093,391.379 606.351,391.379 589.07,422.292 			"/>
			<polygon id="XMLID_223_" style="fill:#FFFFFF;" points="635.372,391.379 612.221,409.277 589.07,391.379 			"/>
		</g>
	</g>
	<g id="XMLID_525_">
		<g id="XMLID_258_">
			<g id="XMLID_259_">
				<g style="opacity:0.05;">
					<path id="XMLID_344_" style="stroke:#000000;stroke-width:2.3633;stroke-miterlimit:10;" d="M409.791,675.282
						c0.025,10.224-8.242,18.533-18.467,18.558l-67.355,0.166c-10.224,0.025-18.533-8.243-18.558-18.467l-0.429-173.705
						c-0.025-10.224,8.242-18.533,18.467-18.558l67.355-0.166c10.224-0.025,18.533,8.242,18.558,18.467L409.791,675.282z"/>
					
						<rect id="XMLID_343_" x="311.5" y="509.191" transform="matrix(1 -0.0025 0.0025 1 -1.4537 0.8832)" width="91.383" height="160.707"/>
					<path d="M378.493,582.973c-9.752-3.79-18.958-4.335-15.169-11.377c3.795-7.04,6.5-7.583,5.417-17.873
						c-1.082-10.292-11.553-10.292-11.553-10.292s-10.472,0-11.554,10.292c-1.083,10.29,1.625,10.832,5.418,17.873
						c3.79,7.042-5.418,7.587-15.168,11.377c-9.746,3.789-5.953,12.458-5.953,12.458h25.511h1.745h27.264
						C384.453,595.431,388.242,586.762,378.493,582.973z"/>
					
						<circle id="XMLID_342_" style="stroke:#000000;stroke-width:1.1817;stroke-miterlimit:10;" cx="358.206" cy="681.319" r="7.878"/>
					
						<line id="XMLID_341_" style="fill:none;stroke:#000000;stroke-width:1.1817;stroke-linecap:round;stroke-miterlimit:10;" x1="349.875" y1="497.787" x2="365.631" y2="497.748"/>
					<circle id="XMLID_340_" cx="341.011" cy="497.218" r="2.166"/>
					<circle id="XMLID_339_" cx="357.737" cy="491.072" r="1.317"/>
					<path id="XMLID_337_" d="M372.035,563.153"/>
					<path id="XMLID_336_" style="opacity:0.1;" d="M390.799,481.93l-34.402,0.085l0.526,213.094l34.402-0.085
						c10.861-0.027,19.673-8.883,19.646-19.741l-0.429-173.707C410.516,490.716,401.66,481.903,390.799,481.93z"/>
				</g>
				<g>
					<g>
						<path id="XMLID_282_" style="fill:#F9F8F7;stroke:#DDDDDD;stroke-width:2.3633;stroke-miterlimit:10;" d="M400.755,666.247
							c0.025,10.224-8.242,18.533-18.467,18.558l-67.355,0.166c-10.224,0.025-18.533-8.243-18.558-18.467L295.946,492.8
							c-0.025-10.224,8.242-18.533,18.467-18.558l67.355-0.166c10.224-0.025,18.533,8.242,18.558,18.467L400.755,666.247z"/>
						
							<rect id="XMLID_280_" x="302.464" y="500.156" transform="matrix(1 -0.0025 0.0025 1 -1.4314 0.8609)" style="fill:#E0D94D;" width="91.383" height="160.707"/>
						<g id="XMLID_278_">
							<path style="fill:#FFFFFF;" d="M369.458,573.937c-9.752-3.79-18.958-4.335-15.169-11.377c3.795-7.04,6.5-7.583,5.417-17.873
								c-1.082-10.292-11.553-10.292-11.553-10.292s-10.472,0-11.554,10.292c-1.083,10.29,1.625,10.832,5.418,17.873
								c3.79,7.042-5.418,7.587-15.168,11.377c-9.746,3.789-5.953,12.458-5.953,12.458h25.511h1.745h27.264
								C375.417,586.395,379.206,577.726,369.458,573.937z"/>
						</g>
						
							<circle id="XMLID_277_" style="fill:#F9F8F7;stroke:#DDDDDD;stroke-width:1.1817;stroke-miterlimit:10;" cx="349.17" cy="672.283" r="7.878"/>
						
							<line id="XMLID_273_" style="fill:none;stroke:#353434;stroke-width:1.1817;stroke-linecap:round;stroke-miterlimit:10;" x1="340.839" y1="488.751" x2="356.595" y2="488.713"/>
						<circle id="XMLID_271_" style="fill:#353434;" cx="331.975" cy="488.182" r="2.166"/>
						<circle id="XMLID_268_" style="fill:#353434;" cx="348.701" cy="482.036" r="1.317"/>
						<g id="XMLID_256_">
							<g id="XMLID_257_">
								<path id="XMLID_266_" style="fill:#EFEFED;" d="M362.999,554.117"/>
							</g>
						</g>
						<path id="XMLID_255_" style="opacity:0.1;" d="M381.764,472.894l-34.402,0.085l0.526,213.094l34.402-0.085
							c10.861-0.027,19.673-8.883,19.646-19.741l-0.429-173.707C401.48,481.68,392.625,472.867,381.764,472.894z"/>
					</g>
				</g>
			</g>
		</g>
	</g>
	<g id="XMLID_64_">
		<path id="XMLID_67_" style="fill:#42428E;" d="M359.058,375.983c0,2.032-1.647,3.679-3.679,3.679h-3.474
			c-2.032,0-3.679-1.647-3.679-3.679v-17.731c0-2.032,1.647-3.679,3.679-3.679h3.474c2.032,0,3.679,1.647,3.679,3.679V375.983z"/>
		<path id="XMLID_66_" style="fill:#FFFFFF;" d="M387.318,358.065c0-1.839-1.491-3.329-3.33-3.329h-9.793v-7.691
			c0-1.88-1.524-3.403-3.404-3.403c-1.879,0-3.404,1.523-3.404,3.403v4.233c-0.127,1.942-1.738,3.479-3.712,3.479v0.001
			c-2.59,0.229-4.618,2.33-4.618,4.891v13.26c0,2.714,2.278,4.913,5.087,4.913h0.698h7.491h7.583c1.461,0,2.645-1.184,2.645-2.644
			c0-0.938-0.49-1.761-1.227-2.231c1.609-0.101,2.882-1.435,2.882-3.07c0-1.143-0.624-2.139-1.549-2.67
			c1.707-0.143,3.048-1.571,3.048-3.315c0-1.022-0.461-1.934-1.185-2.545C386.112,361.088,387.318,359.719,387.318,358.065z"/>
		<circle id="XMLID_65_" style="fill:#FFFFFF;" cx="353.642" cy="360.944" r="1.907"/>
	</g>
	<g id="XMLID_218_">
		<g id="XMLID_364_" style="opacity:0.4;">
			<path id="XMLID_372_" style="fill:#329AA5;" d="M328.597,257.248v36.087c0,5.208,4.224,9.433,9.431,9.433h31.716
				c5.21,0,9.433-4.225,9.433-9.433v-11.909l13.862-6.446l-13.862-6.193v-11.54c0-5.209-4.223-9.431-9.433-9.431h-31.716
				C332.821,247.817,328.597,252.039,328.597,257.248z"/>
		</g>
		<g id="XMLID_217_">
			<g>
				<path id="XMLID_18_" style="fill:#ED7076;" d="M322.213,250.896v36.087c0,5.208,4.224,9.433,9.431,9.433h31.715
					c5.21,0,9.433-4.225,9.433-9.433v-11.909l13.861-6.446l-13.861-6.193v-11.539c0-5.209-4.223-9.431-9.433-9.431h-31.715
					C326.437,241.465,322.213,245.687,322.213,250.896z"/>
			</g>
		</g>
		<path id="XMLID_357_" style="fill:#FFFFFF;" d="M362.799,264.387c-0.232-0.713-0.848-1.233-1.589-1.34l-7.354-1.068l-3.289-6.663
			c-0.332-0.673-1.016-1.098-1.766-1.098c-0.748,0-1.434,0.425-1.766,1.098l-3.288,6.663l-7.354,1.068
			c-0.741,0.108-1.358,0.627-1.588,1.34c-0.232,0.713-0.039,1.496,0.497,2.019l5.321,5.187l-1.256,7.324
			c-0.127,0.738,0.177,1.485,0.783,1.926c0.606,0.44,1.409,0.498,2.074,0.15l6.577-3.458l6.577,3.458
			c0.289,0.151,0.603,0.226,0.917,0.226c0.407,0,0.815-0.126,1.158-0.376c0.606-0.441,0.91-1.188,0.782-1.926l-1.256-7.324
			l5.322-5.187C362.838,265.883,363.031,265.1,362.799,264.387z"/>
	</g>
	<circle id="XMLID_69_" style="fill:#FFFFFF;" cx="249.971" cy="250.759" r="2.942"/>
	<circle id="XMLID_77_" style="fill:#FFFFFF;" cx="478.092" cy="167.106" r="4.679"/>
	<circle id="XMLID_82_" style="fill:#FFFFFF;" cx="186.31" cy="422.784" r="3.863"/>
	<circle id="XMLID_83_" style="fill:#FFFFFF;" cx="230.97" cy="508.755" r="11.591"/>
	<g id="XMLID_75_">
		<circle id="XMLID_68_" style="opacity:0.2;fill:#FFFFFF;" cx="180.284" cy="178.389" r="6.604"/>
		<circle id="XMLID_71_" style="opacity:0.5;fill:#FFFFFF;" cx="274.867" cy="307.144" r="4.376"/>
		<circle id="XMLID_73_" style="opacity:0.5;fill:#FFFFFF;" cx="291.344" cy="360.846" r="6.272"/>
		<circle id="XMLID_78_" style="opacity:0.5;fill:#FFFFFF;" cx="671.355" cy="253.079" r="5.262"/>
		<circle id="XMLID_80_" style="opacity:0.5;fill:#FFFFFF;" cx="30.524" cy="312.144" r="5"/>
		<circle id="XMLID_84_" style="opacity:0.5;fill:#FFFFFF;" cx="209.369" cy="59.513" r="7.698"/>
		<circle id="XMLID_85_" style="opacity:0.2;fill:#FFFFFF;" cx="504.465" cy="100.353" r="6.034"/>
		<circle id="XMLID_86_" style="opacity:0.5;fill:#FFFFFF;" cx="120.296" cy="115.768" r="6.5"/>
	</g>
</g>
<g id="Layer_1">
</g>
</svg>
