<?xml version="1.0" encoding="iso-8859-1"?>
<!-- Generator: Adobe Illustrator 18.0.0, SVG Export Plug-In . SVG Version: 6.00 Build 0)  -->
<!DOCTYPE svg PUBLIC "-//W3C//DTD SVG 1.1//EN" "http://www.w3.org/Graphics/SVG/1.1/DTD/svg11.dtd">
<svg version="1.1" xmlns="http://www.w3.org/2000/svg" xmlns:xlink="http://www.w3.org/1999/xlink" x="0px" y="0px"
	 viewBox="0 0 521.4 367.262" style="enable-background:new 0 0 521.4 367.262;" xml:space="preserve">
<g id="server_x5F_page36">
	<g>
		<g style="opacity:0.3;">
			<path style="opacity:0.7;fill:#FFFFFF;" d="M463.651,162.556c0,89.775-72.777,162.554-162.553,162.554
				c-89.781,0-162.554-72.779-162.554-162.554C138.544,72.779,211.317,0,301.098,0C390.874,0,463.651,72.779,463.651,162.556z"/>
			<path style="opacity:0.7;fill:#FFFFFF;" d="M221.553,283.459c0,45.844-37.164,83.011-83.009,83.011
				c-45.848,0-83.01-37.167-83.01-83.011s37.161-83.01,83.01-83.01C184.389,200.449,221.553,237.615,221.553,283.459z"/>
		</g>
		<g>
			<g>
				<rect x="92.24" y="235.64" style="fill:#BCBEC0;" width="14.013" height="84.072"/>
				<rect x="39.929" y="305.701" style="fill:#BCBEC0;" width="127.975" height="14.011"/>
				<g>
					<path style="fill:#231F20;" d="M160.155,314.951h-8.889v-3.555h8.889V314.951z M142.377,314.951h-8.889v-3.555h8.889V314.951z
						 M124.6,314.951h-8.889v-3.555h8.889V314.951z M106.822,314.951h-8.889v-3.555h8.889V314.951z M89.044,314.951h-8.889v-3.555
						h8.889V314.951z M71.266,314.951h-8.889v-3.555h8.889V314.951z M53.488,314.951H44.6v-3.555h8.889V314.951z"/>
				</g>
				<g>
					<path style="fill:#231F20;" d="M101.491,305.701h-3.556v-8.889h3.556V305.701z M101.491,287.923h-3.556v-8.889h3.556V287.923z
						 M101.491,270.145h-3.556v-8.889h3.556V270.145z M101.491,252.368h-3.556v-8.889h3.556V252.368z"/>
				</g>
			</g>
			<g>
				<rect x="215.547" y="101.125" style="fill:#BCBEC0;" width="14.012" height="85.007"/>
				<rect x="163.235" y="171.185" style="fill:#FFFFFF;" width="127.976" height="14.947"/>
				<g>
					<path style="fill:#231F20;" d="M283.46,180.435h-8.889v-3.555h8.889V180.435z M265.682,180.435h-8.889v-3.555h8.889V180.435z
						 M247.905,180.435h-8.889v-3.555h8.889V180.435z M230.127,180.435h-8.889v-3.555h8.889V180.435z M212.349,180.435h-8.889
						v-3.555h8.889V180.435z M194.571,180.435h-8.889v-3.555h8.889V180.435z M176.794,180.435h-8.889v-3.555h8.889V180.435z"/>
				</g>
				<g>
					<path style="fill:#231F20;" d="M224.796,171.185h-3.556v-8.889h3.556V171.185z M224.796,153.407h-3.556v-8.889h3.556V153.407z
						 M224.796,135.629h-3.556v-8.889h3.556V135.629z M224.796,117.852h-3.556v-8.889h3.556V117.852z"/>
				</g>
			</g>
			<g>
				<rect x="393.965" y="210.419" style="fill:#BCBEC0;" width="14.946" height="84.072"/>
				<rect x="341.654" y="280.478" style="fill:#BCBEC0;" width="127.976" height="14.013"/>
				<g>
					<g>
						<rect x="346.325" y="286.175" style="fill:#231F20;" width="4.444" height="3.555"/>
					</g>
					<g>
						<path style="fill:#231F20;" d="M452.935,289.73h-8.513v-3.555h8.513V289.73z M435.908,289.73h-8.514v-3.555h8.514V289.73z
							 M418.88,289.73h-8.513v-3.555h8.513V289.73z M401.853,289.73h-8.514v-3.555h8.514V289.73z M384.825,289.73h-8.513v-3.555
							h8.513V289.73z M367.797,289.73h-8.513v-3.555h8.513V289.73z"/>
					</g>
					<g>
						<rect x="461.448" y="286.175" style="fill:#231F20;" width="4.444" height="3.555"/>
					</g>
				</g>
				<g>
					<path style="fill:#231F20;" d="M403.216,280.478h-3.555v-8.889h3.555V280.478z M403.216,262.701h-3.555v-8.889h3.555V262.701z
						 M403.216,244.923h-3.555v-8.889h3.555V244.923z M403.216,227.145h-3.555v-8.889h3.555V227.145z"/>
				</g>
			</g>
			<g>
				<path style="fill:#18AFFE;" d="M203.52,199.229c-10.232,0-19.724,2.715-27.564,8.13c-5.314-6.045-12.619-10.49-20.913-11.867
					c0.344-2.329,0.525-4.808,0.525-7.231c0-26.831-21.756-48.636-48.585-48.636c-26.832,0-48.587,21.72-48.587,48.556
					c0,3.957,0.489,7.781,1.379,11.463c-3.591-0.852-7.339-0.406-11.194-0.406C21.748,199.237,0,218.827,0,248.719h252.106
					C252.106,218.827,230.358,199.229,203.52,199.229z"/>
				<g>
					<path style="fill:#D1D3D4;stroke:#231F20;stroke-width:3.2;stroke-linejoin:round;stroke-miterlimit:10;" d="M0.781,246.903"/>
				</g>
				<g>
					<path style="fill:#D1D3D4;" d="M59.775,199.631c0,0,5.938,4.759,7.884,5.773"/>
					<path style="fill:#231F20;" d="M66.838,206.98c-2.041-1.063-7.553-5.463-8.174-5.961l2.223-2.776
						c2.333,1.87,6.28,4.899,7.594,5.584L66.838,206.98z"/>
				</g>
				<g>
					<path style="fill:#D1D3D4;" d="M175.956,206.904c0,0-2.679,4.589-2.793,8.117"/>
					<path style="fill:#231F20;" d="M174.94,215.079l-3.553-0.115c0.127-3.933,2.915-8.753,3.034-8.956l3.071,1.791
						C176.809,208.972,175.021,212.565,174.94,215.079z"/>
				</g>
			</g>
			<g>
				<path style="fill:#18AFFE;" d="M298.618,73.073c-10.235,0-19.726,2.692-27.564,8.106c-5.315-6.045-12.62-10.502-20.914-11.879
					c0.345-2.327,0.525-4.814,0.525-7.237c0-26.829-21.756-48.638-48.584-48.638c-26.833,0-48.588,21.718-48.588,48.555
					c0,3.956,0.489,7.781,1.38,11.463c-3.59-0.853-7.34-0.36-11.196-0.36c-26.833,0-48.58,19.636-48.58,49.529h252.106
					C347.204,92.718,325.455,73.073,298.618,73.073z"/>
				<g>
					<path style="fill:#D1D3D4;stroke:#231F20;stroke-width:3.2;stroke-linejoin:round;stroke-miterlimit:10;" d="M95.878,120.7"/>
				</g>
				<g>
					<path style="fill:#D1D3D4;" d="M154.873,73.427c0,0,5.939,4.761,7.883,5.775"/>
					<path style="fill:#231F20;" d="M161.934,80.778c-2.04-1.063-7.551-5.465-8.173-5.965l2.224-2.773
						c2.333,1.869,6.28,4.901,7.593,5.585L161.934,80.778z"/>
				</g>
				<g>
					<path style="fill:#D1D3D4;" d="M271.054,80.701c0,0-2.681,4.589-2.795,8.116"/>
					<path style="fill:#231F20;" d="M270.036,88.875l-3.555-0.115c0.128-3.932,2.919-8.752,3.037-8.956l3.071,1.794
						C271.906,82.769,270.116,86.363,270.036,88.875z"/>
				</g>
			</g>
			<g>
				<path style="fill:#18AFFE;" d="M472.812,183.091c-10.233,0-19.725,2.586-27.564,8.001c-5.313-6.045-12.618-10.555-20.913-11.932
					c0.345-2.327,0.525-4.839,0.525-7.262c0-26.831-21.755-48.652-48.584-48.652c-26.834,0-48.589,21.711-48.589,48.548
					c0,3.957,0.49,7.778,1.381,11.459c-3.59-0.853-7.339-0.152-11.195-0.152c-26.833,0-48.581,19.845-48.581,49.737H521.4
					C521.4,202.946,499.649,183.091,472.812,183.091z"/>
				<g>
					<path style="fill:#D1D3D4;stroke:#231F20;stroke-width:3.2;stroke-linejoin:round;stroke-miterlimit:10;" d="M270.074,230.508"
						/>
				</g>
				<g>
					<path style="fill:#D1D3D4;" d="M329.069,183.236c0,0,5.939,4.76,7.883,5.774"/>
					<path style="fill:#231F20;" d="M336.131,190.586c-2.04-1.064-7.552-5.464-8.174-5.964l2.224-2.773
						c2.333,1.87,6.281,4.9,7.592,5.584L336.131,190.586z"/>
				</g>
				<g>
					<path style="fill:#D1D3D4;" d="M445.248,190.508c0,0-2.679,4.59-2.792,8.118"/>
					<path style="fill:#231F20;" d="M444.234,198.683l-3.555-0.113c0.126-3.935,2.916-8.756,3.034-8.958l3.072,1.792
						C446.102,192.576,444.314,196.17,444.234,198.683z"/>
				</g>
			</g>
			<g>
				<rect x="170.707" y="205.748" style="fill:#58595B;" width="188.696" height="17.75"/>
				<rect x="168.839" y="275.808" style="fill:#58595B;" width="188.696" height="18.683"/>
				<rect x="167.905" y="346.802" style="fill:#58595B;" width="188.696" height="18.683"/>
				<g>
					<rect x="155.762" y="151.569" style="fill:#939598;" width="218.587" height="53.245"/>
					<path style="fill:#231F20;" d="M374.349,206.592H155.762c-0.982,0-1.778-0.795-1.778-1.777v-53.245
						c0-0.982,0.796-1.777,1.778-1.777h218.587c0.982,0,1.777,0.795,1.777,1.777v53.245
						C376.126,205.796,375.331,206.592,374.349,206.592z M157.54,203.037h215.032v-49.691H157.54V203.037z"/>
				</g>
				<g>
					<rect x="154.827" y="223.497" style="fill:#939598;" width="218.587" height="52.311"/>
					<path style="fill:#231F20;" d="M373.415,277.586H154.827c-0.982,0-1.778-0.795-1.778-1.777v-52.311
						c0-0.982,0.796-1.777,1.778-1.777h218.587c0.982,0,1.777,0.795,1.777,1.777v52.311
						C375.192,276.79,374.397,277.586,373.415,277.586z M156.605,274.031h215.032v-48.757H156.605V274.031z"/>
				</g>
				<g>
					<rect x="153.893" y="294.491" style="fill:#939598;" width="218.587" height="52.311"/>
					<path style="fill:#231F20;" d="M372.48,348.58H153.893c-0.982,0-1.778-0.795-1.778-1.777v-52.311
						c0-0.982,0.796-1.777,1.778-1.777H372.48c0.982,0,1.777,0.795,1.777,1.777v52.311
						C374.258,347.784,373.462,348.58,372.48,348.58z M155.671,345.025h215.032v-48.757H155.671V345.025z"/>
				</g>
				<g>
					<rect x="143.618" y="363.708" style="fill:#231F20;" width="241.941" height="3.555"/>
				</g>
				<g>
					<rect x="168.929" y="162.778" style="fill:#231F20;" width="3.556" height="27.091"/>
				</g>
				<g>
					<rect x="180.139" y="162.778" style="fill:#231F20;" width="3.556" height="27.091"/>
				</g>
				<g>
					<rect x="191.348" y="162.778" style="fill:#231F20;" width="3.556" height="27.091"/>
				</g>
				<g>
					<rect x="203.492" y="162.778" style="fill:#231F20;" width="3.556" height="27.091"/>
				</g>
				<g>
					<rect x="214.702" y="162.778" style="fill:#231F20;" width="3.556" height="27.091"/>
				</g>
				<rect x="227.69" y="162.778" style="fill:#E6E7E8;" width="130.779" height="14.012"/>
				<circle style="fill:#FFFFFF;" cx="335.49" cy="180.64" r="13.396"/>
				<g>
					<rect x="331.379" y="178.749" style="fill:#231F20;" width="9.34" height="3.555"/>
				</g>
				<circle style="fill:#FFFFFF;" cx="183.514" cy="249.074" r="13.396"/>
				<g>
					<rect x="179.115" y="246.941" style="fill:#231F20;" width="10.276" height="3.555"/>
				</g>
				<circle style="fill:#FFFFFF;" cx="227.063" cy="249.074" r="13.397"/>
				<g>
					<rect x="223.019" y="246.941" style="fill:#231F20;" width="9.341" height="3.555"/>
				</g>
				<circle style="fill:#FFFFFF;" cx="268.834" cy="249.074" r="13.396"/>
				<g>
					<rect x="265.054" y="246.941" style="fill:#231F20;" width="9.341" height="3.555"/>
				</g>
				<g>
					<rect x="227.69" y="184.354" style="fill:#231F20;" width="70.06" height="3.555"/>
				</g>
				<g>
					<rect x="303.354" y="184.354" style="fill:#231F20;" width="9.341" height="3.555"/>
				</g>
				<rect x="231.426" y="165.58" style="fill:#FFA432;" width="3.737" height="8.407"/>
				<rect x="240.767" y="165.58" style="fill:#FFA432;" width="3.737" height="8.407"/>
				<rect x="249.175" y="165.58" style="fill:#FFA432;" width="3.736" height="8.407"/>
				<rect x="258.517" y="165.58" style="fill:#FFA432;" width="3.736" height="8.407"/>
				<rect x="266.923" y="165.58" style="fill:#FFA432;" width="3.737" height="8.407"/>
				<rect x="276.264" y="165.58" style="fill:#58595B;" width="3.737" height="8.407"/>
				<rect x="284.672" y="165.58" style="fill:#58595B;" width="3.736" height="8.407"/>
				<rect x="294.013" y="165.58" style="fill:#58595B;" width="3.737" height="8.407"/>
				<rect x="302.421" y="165.58" style="fill:#58595B;" width="3.736" height="8.407"/>
				<rect x="312.695" y="165.58" style="fill:#58595B;" width="3.738" height="8.407"/>
				<rect x="295.881" y="235.64" style="fill:#F1F2F2;" width="10.276" height="15.881"/>
				<rect x="313.629" y="235.64" style="fill:#FFA432;" width="10.276" height="15.881"/>
				<rect x="331.379" y="235.64" style="fill:#F1F2F2;" width="10.275" height="15.881"/>
				<rect x="349.126" y="235.64" style="fill:#FFA432;" width="10.277" height="15.881"/>
				<g>
					<rect x="299.709" y="243.113" style="fill:#231F20;" width="3.555" height="18.684"/>
				</g>
				<g>
					<rect x="317.458" y="243.113" style="fill:#231F20;" width="3.555" height="18.684"/>
				</g>
				<g>
					<rect x="335.205" y="243.113" style="fill:#231F20;" width="3.555" height="18.684"/>
				</g>
				<g>
					<rect x="352.955" y="243.113" style="fill:#231F20;" width="3.555" height="18.684"/>
				</g>
				<g>
					<rect x="295.881" y="241.336" style="fill:#231F20;" width="10.276" height="3.555"/>
				</g>
				<g>
					<rect x="313.629" y="241.336" style="fill:#231F20;" width="10.276" height="3.555"/>
				</g>
				<g>
					<rect x="331.379" y="241.336" style="fill:#231F20;" width="10.275" height="3.555"/>
				</g>
				<g>
					<rect x="349.126" y="241.336" style="fill:#231F20;" width="10.277" height="3.555"/>
				</g>
				<rect x="284.672" y="305.701" style="fill:#FFA432;" width="72.862" height="28.024"/>
				<circle style="fill:#FFFFFF;" cx="181.736" cy="320.174" r="13.396"/>
				<g>
					<rect x="177.247" y="317.935" style="fill:#231F20;" width="10.274" height="3.555"/>
				</g>
				<g>
					<rect x="295.038" y="305.701" style="fill:#231F20;" width="3.555" height="28.024"/>
				</g>
				<g>
					<rect x="291.211" y="303.924" style="fill:#231F20;" width="10.276" height="3.555"/>
				</g>
				<g>
					<rect x="309.984" y="305.701" style="fill:#231F20;" width="3.555" height="28.024"/>
				</g>
				<g>
					<rect x="306.157" y="331.948" style="fill:#231F20;" width="11.211" height="3.555"/>
				</g>
				<g>
					<rect x="330.535" y="305.701" style="fill:#231F20;" width="3.555" height="28.024"/>
				</g>
				<g>
					<rect x="326.708" y="303.924" style="fill:#231F20;" width="11.209" height="3.555"/>
				</g>
				<g>
					<rect x="345.481" y="305.701" style="fill:#231F20;" width="3.555" height="28.024"/>
				</g>
				<g>
					<rect x="341.654" y="331.948" style="fill:#231F20;" width="11.21" height="3.555"/>
				</g>
				<g>
					<rect x="207.138" y="309.528" style="fill:#231F20;" width="68.192" height="3.555"/>
				</g>
				<g>
					<rect x="207.138" y="317.935" style="fill:#231F20;" width="68.192" height="3.555"/>
				</g>
				<g>
					<rect x="207.138" y="327.276" style="fill:#231F20;" width="68.192" height="3.555"/>
				</g>
			</g>
			<g>
				<rect x="393.965" y="363.708" style="fill:#231F20;" width="21.485" height="3.555"/>
			</g>
			<g>
				<rect x="125.869" y="363.708" style="fill:#231F20;" width="10.274" height="3.555"/>
			</g>
		</g>
	</g>
</g>
<g id="Layer_1">
</g>
</svg>
