<?xml version="1.0" encoding="iso-8859-1"?>
<!-- Generator: Adobe Illustrator 18.0.0, SVG Export Plug-In . SVG Version: 6.00 Build 0)  -->
<!DOCTYPE svg PUBLIC "-//W3C//DTD SVG 1.1//EN" "http://www.w3.org/Graphics/SVG/1.1/DTD/svg11.dtd">
<svg version="1.1" id="Layer_1" xmlns="http://www.w3.org/2000/svg" xmlns:xlink="http://www.w3.org/1999/xlink" x="0px" y="0px"
	 viewBox="0 0 502.413 471.437" style="enable-background:new 0 0 502.413 471.437;" xml:space="preserve">
<g id="worldMap">
	<g>
		<g>
			<g>
				<path style="fill:#75C7C3;" d="M473.418,339.714c1.785,0.282,5.204,1.481,5.048,1.837
					c-27.224,61.359-80.188,109.04-143.975,129.887C334.425,471.458,428.107,439.626,473.418,339.714z"/>
				<path style="fill:#238C87;" d="M483.043,311.156l-2.471,7.94l-4.367,1.5l0.715-1.972c0.201-0.554-0.089-1.172-0.643-1.373
					l-0.126-0.046c-0.554-0.201-1.172,0.089-1.373,0.643l-1.094,3.022c-0.072,0.201-0.081,0.409-0.036,0.604l-14.768,5.074
					l-0.707,1.951l15.399-1.616l3.336,1.208c0,0-1.671,4.024-1.898,5.438c-0.227,1.413-0.431,2.763-0.431,2.763l-9.367,2.661
					l-0.912,2.518l9.143,0.688c-0.08,0.629-0.229,2.13,0.091,2.589c0.001,0.041,0.005,0.071,0.018,0.075
					c0.022,0.008,0.044,0.013,0.067,0.015c0.019,0.013,0.039,0.024,0.061,0.031c0.014,0.005,0.037-0.015,0.063-0.044
					c0.54-0.149,1.386-1.397,1.728-1.931l7.464,5.327l0.911-2.519l-5.49-8.041c0,0,0.707-1.168,1.438-2.399
					c0.731-1.23,2.024-5.391,2.024-5.391l3.337,1.208l10.792,11.102l0.707-1.952l-8.095-13.353c0.159-0.121,0.286-0.287,0.359-0.487
					l1.094-3.022c0.201-0.554-0.088-1.171-0.643-1.373l-0.126-0.046c-0.554-0.201-1.172,0.089-1.373,0.643l-0.715,1.973
					l-2.393-3.949l3.187-7.681c0.463-1.114,0.535-5.996-0.47-6.366l0,0l0,0h-0.001l0,0
					C486.471,306.206,483.4,310.003,483.043,311.156z"/>
			</g>
			<g>
				<path style="fill:#CBFA6C;" d="M306.27,22.81c-0.106-1.804,0.335-5.4,0.716-5.324c65.757,13.493,123.648,55.053,157.637,112.917
					C464.657,130.462,413.553,45.74,306.27,22.81z"/>
				<path style="fill:#8BC90C;" d="M276.315,19.506l8.285,0.718l2.398,3.946l-2.08-0.278c-0.584-0.078-1.125,0.337-1.203,0.921
					l-0.017,0.133c-0.078,0.584,0.336,1.126,0.92,1.203l3.186,0.424c0.212,0.028,0.417-0.008,0.597-0.094l8.11,13.344l2.058,0.273
					l-4.867-14.698l0.469-3.517c0,0,4.288,0.773,5.717,0.692c1.429-0.08,2.792-0.169,2.792-0.169l4.6,8.583l2.655,0.354l-1.281-9.08
					c0.632-0.056,2.13-0.231,2.509-0.641c0.04-0.009,0.068-0.02,0.069-0.035c0.003-0.022,0.003-0.046,0-0.069
					c0.009-0.021,0.015-0.044,0.018-0.065c0.002-0.015-0.022-0.033-0.058-0.052c-0.26-0.496-1.659-1.056-2.254-1.275l3.611-8.429
					l-2.655-0.354l-6.684,7.082c0,0-1.292-0.443-2.651-0.893c-1.358-0.451-5.699-0.826-5.699-0.826l0.469-3.518l8.541-12.915
					L301.81,0l-11.317,10.76c-0.152-0.13-0.341-0.218-0.552-0.247l-3.186-0.424c-0.584-0.078-1.126,0.337-1.204,0.921l-0.018,0.133
					c-0.077,0.584,0.337,1.126,0.921,1.203l2.079,0.277l-3.346,3.181l-8.184-1.473c-1.187-0.214-5.972,0.757-6.119,1.819v0.001l0,0
					v0.001l0,0C270.747,17.213,275.112,19.402,276.315,19.506z"/>
			</g>
			<g>
				<path style="fill:#E68392;" d="M95.773,404.327c-0.944,1.541-3.362,4.239-3.63,3.959
					c-46.246-48.655-69.997-115.845-64.815-182.752C27.333,225.465,20.844,324.195,95.773,404.327z"/>
				<path style="fill:#DF314A;" d="M118.465,424.16l-6.388-5.325l0.287-4.608l1.548,1.415c0.435,0.398,1.116,0.367,1.513-0.069
					l0.09-0.098c0.398-0.435,0.367-1.116-0.068-1.514l-2.372-2.169c-0.157-0.144-0.348-0.232-0.544-0.265l0.972-15.585l-1.532-1.401
					l-4.407,14.843l-2.394,2.62c0,0-3.077-3.085-4.296-3.837c-1.218-0.751-2.388-1.458-2.388-1.458l1.132-9.672l-1.977-1.807
					l-4.138,8.183c-0.551-0.315-1.88-1.028-2.426-0.909c-0.038-0.015-0.067-0.022-0.077-0.011c-0.016,0.016-0.029,0.035-0.039,0.056
					c-0.02,0.012-0.038,0.027-0.052,0.043c-0.01,0.012-0.001,0.039,0.018,0.075c-0.07,0.556,0.758,1.815,1.121,2.336l-7.78,4.853
					l1.977,1.807l9.533-1.991c0,0,0.807,1.101,1.665,2.247c0.857,1.147,4.204,3.936,4.204,3.936l-2.395,2.62l-14.389,5.715
					l1.532,1.401l15.436-2.361c0.05,0.193,0.154,0.374,0.312,0.518l2.372,2.169c0.435,0.397,1.116,0.367,1.514-0.069l0.09-0.099
					c0.397-0.435,0.367-1.116-0.068-1.514l-1.548-1.416l4.564-0.699l5.874,5.887c0.852,0.855,5.334,2.792,6.061,2.005h0.001
					l0.001-0.001v-0.001h0.001C121.722,429.223,119.392,424.932,118.465,424.16z"/>
			</g>
			<path style="fill:#8BC90C;" d="M308.467,387.241l0.17,2.135l-1.473,0.118l-0.071,5.597c0,0-1.534,0.189-1.961,0.179
				c-0.428-0.011-0.674,0.278-1.227,0.098c-0.554-0.18-0.667,0.076-1.341,0.084c-0.673,0.009-0.569-2.335-0.569-2.335l-1.416,1.393
				l-0.924,0.231l0.066,0.826l0.275,45.447l-0.131,0.617l0.135,0.281l0.639,0.712l2.215,0.745l0.088,1.384l-4.053,3.243
				l-0.011,0.428l-1.781,1.871l-1.284,0.237l-0.203,1.97l-1.163,0.633c0,0-0.935,0.097-1.56-0.416
				c-0.624-0.511-0.822-0.181-1.569-0.525c-0.546-0.252-1.578-0.43-2.237-0.645v-9.856l3.09,0.801l1.019-0.658l-1.442-22.164
				l-2.667-0.427v-3.603l2.422,0.251l-1.331-20.471l-1.091,0.043v-6.676L308.467,387.241z M289.087,451.545
				c-0.241-0.079-0.432-0.163-0.53-0.258c-0.365-0.352-0.758-0.209-0.758-0.209l-1.02-0.413l-0.626,0.027l-0.952-0.396l-0.411-0.371
				l-0.48,0.173l-2.351-0.859v-16.603l0.315,5.992l2.605,0.771l0.044,1.209l4.165,1.08L289.087,451.545L289.087,451.545z
				 M281.957,389.353l7.13-0.569v6.676l-2.422,0.098l0.131,18.339l0.828,1.589l1.461,0.152v3.603l-3.121-0.5
				c0,0-1.069-0.476-2.279-0.38c-0.808,0.064-1.416,0.029-1.73-0.001v-3.46l1.231,0.128l0.701-1.178l-1.8-18.106l-0.132,0.006
				V389.353z M281.957,449.24l-1.534-0.56l-2.332-3.048l-0.061-0.49l-0.958-0.193l-1.739,0.161l-1.977-0.853
				c0,0-0.431-0.616-0.731-0.436c-0.3,0.182-0.439,0.125-0.439,0.125l-0.096-0.047v-6.619l4.288,1.111l-1.987-21.017l-2.301-0.301
				v-3.52l0.249,0.35l1.741,0.18l-1.696-17.949l-0.294,0.012v-6.008l9.867-0.786v6.395l-1.932,0.078l0.996,18.976l0.937,0.097v3.46
				c-0.156-0.015-0.239-0.029-0.239-0.029l-0.516-0.067l0.755,14.374V449.24z M272.091,443.9l-1.492-0.724
				c0,0,0.028-0.497-0.617-0.422c-0.645,0.073-1.084-0.071-1.084-0.071l-1.423-0.673l-0.103-0.441l-0.441,0.044v-29.35l0.09,1.09
				l0.931,0.097l0.279-0.975l-1.3-12.912v-9.011l5.161-0.411v6.008l-1.991,0.08l1.116,16.102l0.875,1.225v3.52l-1.069-0.139
				c0,0-1.009,0.268-1.941,0.342c-0.235,0.018-0.888,0.059-1.731,0.108l1.361,16.601l1.824,1.839l0.119,1.084l1.437,0.373
				L272.091,443.9L272.091,443.9z M266.93,441.614l-0.672,0.067l-1.535-0.665l-1.341,0.084l-3.548-1.131
				c0,0-0.014-0.034-0.039-0.089v-5.8l3.594,0.944l-2.363-17.285l-0.339,0.018l-0.892,0.138v-2.842l0.839-0.176l-0.535-3.914
				l-0.305,0.065v-1.923l0.052,0.007l-0.052-0.378V391.12l7.133-0.569v9.011l-0.322-3.194l-0.978,0.039l1.299,15.856v29.351H266.93z
				 M259.796,439.881c-0.119-0.259-0.509-0.985-1.089-0.809c-0.331,0.101-0.526,0.156-0.639,0.185v-7.493l1.245,0.797l0.113,1.422
				l0.37,0.097L259.796,439.881L259.796,439.881z M258.068,391.256l1.728-0.137v17.615l-0.565-4.139l-1.073,0.137l0.52,4.221
				l1.118,0.151v1.923l-0.839,0.179l0.484,3.922l0.356-0.075v2.842l-1.606,0.248l-0.122,0.058v-15.715l0.895,0.15l-0.81-5.928
				l-0.085,0.003L258.068,391.256L258.068,391.256z M258.068,439.256c-0.126,0.033-0.151,0.035-0.151,0.035l-1.585-0.436
				c0,0-0.588-0.626-0.759-0.523c-0.171,0.103-0.351,0.118-0.351,0.118s-1.346-0.836-1.542-0.753
				c-0.195,0.083-0.699-0.326-0.699-0.326l-1.047,0.105l-1.765-0.735c0,0-0.169-0.998-0.626-0.803
				c-0.456,0.193-0.748,0.194-0.748,0.194l-0.989-0.343v-6.782l1.622,0.885l0.122,1.533l2.759,0.724l-2.172-13.663l-2.33-0.523
				v-0.973l0.675-0.792l-0.675-3.746v-20.381l10.262-0.818v5.456l-0.895,0.036l0.704,5.708l0.191,0.032v15.715l-2.324,1.107
				l1.224,11.749l1.1,0.704L258.068,439.256L258.068,439.256z M247.806,435.791l-0.857-0.297l-0.509,0.086l-1.841-0.551
				c0,0-0.131-0.528-0.615-0.4c-0.483,0.129-0.622,0.095-0.622,0.095s-0.725-0.369-1.254-0.529c-0.53-0.16-1.271-0.438-1.271-0.438
				s-0.144-0.685-0.605-0.558c-0.462,0.126-0.977,0.145-0.977,0.145l-0.391-0.188v-8.154l0.255,1.721l2.099,1.291l0.104,1.303
				l1.592,0.397l-4.051-22.399v-14.529l8.942-0.713v20.381l-2.742-15.22l-1.76,0.071l4.038,31.448l0.465,0.254L247.806,435.791
				L247.806,435.791z M247.806,416.993l-0.696,0.816l0.696,0.156V416.993z M238.864,433.157l-0.286-0.138
				c0,0-0.134-0.843-0.711-0.752c-0.577,0.091-1.194,0.23-1.194,0.23l-1.591-0.534v-4.281l0.269,0.072l-0.269-1.325v-26.967
				l3.783,25.542L238.864,433.157L238.864,433.157z M235.081,393.088v4.55l2.018-0.081l1.764,9.759v-14.529L235.081,393.088z
				 M235.081,431.962l-0.463-0.155c0,0-0.66-0.958-1.258-0.866c-0.599,0.093-1.064,0.175-1.064,0.175l-0.812-0.307v-9.826
				l0.657,3.918l1.775,1.087l0.113,1.411l1.052,0.283L235.081,431.962L235.081,431.962z M231.485,393.375v15.288l3.597,17.765
				V399.46l-0.268-1.811l0.268-0.011v-4.55L231.485,393.375z M231.485,430.809l-1.295-0.49c0,0-0.29-0.538-0.792-0.364
				c-0.356,0.124-0.948-0.182-1.263-0.373v-3.695l0.515,0.129l-0.515-2.358v-22.651l3.351,19.975L231.485,430.809L231.485,430.809z
				 M228.134,393.642v4.276l1.166-0.047l2.184,10.791v-15.288L228.134,393.642z M228.134,429.581
				c-0.131-0.079-0.215-0.137-0.215-0.137s-0.322-0.379-0.676-0.305c-0.353,0.073-1.339-0.477-1.339-0.477l-0.447-0.526
				l-0.344,0.391v-9.856l0.868,5.031l1.681,0.865l0.098,1.227l0.373,0.094L228.134,429.581L228.134,429.581z M225.113,393.883
				v15.936l3.021,13.84v-22.651l-0.514-3.068l0.514-0.02v-4.276L225.113,393.883z M225.113,428.526l-0.314,0.357l-1.505-0.576
				c0,0-0.006-0.358-0.358-0.264c-0.352,0.096-0.641,0.12-0.641,0.12l-0.346-0.095v-5.314l0.37,0.241l-0.37-1.636v-21.032
				l3.166,18.343L225.113,428.526L225.113,428.526z M221.948,394.135v4.032l0.617-0.025l2.549,11.676v-15.936L221.948,394.135z
				 M221.948,428.069l-0.549-0.149c0,0-0.458-0.391-0.784-0.252c-0.326,0.138-0.689-0.192-0.689-0.192l-0.078-0.982
				c0,0-0.036-1.007-0.427-1.133c-0.059-0.019-0.108-0.043-0.15-0.071v-10.332l1.265,6.876l1.412,0.922L221.948,428.069
				L221.948,428.069z M219.27,394.348v15.168l2.677,11.843v-21.032l-0.37-2.145l0.37-0.015v-4.032L219.27,394.348z M219.27,425.289
				c-0.243-0.159-0.249-0.435-0.249-0.435l-1.303-0.009l-0.191-0.704l0.069-0.836l-0.096-0.914l-5.823-23.394l-0.523-0.395
				l-0.205-1.413l-0.641,0.051l-0.68-1.006l-0.088-1.111l9.73-0.775v15.168l-2.518-11.139l-0.529,0.022l3.047,16.558L219.27,425.289
				L219.27,425.289z"/>
			<path style="fill:#DF314A;" d="M100.911,27.721l3.818-4.544l-5.132,3.925c-0.379-0.146-0.784-0.278-1.201-0.38l1.46-5.202
				l-2.881,4.992c-0.228-0.01-0.455-0.006-0.679,0.014c-0.313,0.027-0.665,0.084-1.036,0.173l-1.635-3.421v2.33l0.263,1.54
				c-0.087,0.036-0.175,0.074-0.263,0.114v8.552c0.235,0.268,0.456,0.51,0.616,0.661c0.558,0.529,0.877,0.787,1.161,0.626
				c0.284-0.16,0.349-0.562,0.349-0.562l0.395,0.424c0,0,0.2,0.831,0.29,1.388c0.09,0.556,0.285,1.258,0.285,1.258
				s-1.488,0.273-2.119,0.197c-0.543-0.067-0.626-0.038-0.977-0.265v10.636c0.251,0.265,0.701,0.925,1.32,1.037
				c0.864,0.156,0.747-0.269,2.097,1.121c1.351,1.39,1.321,1.573,2.609,2.391c1.288,0.818,1.645,1.018,1.645,1.018
				s-0.142,3.083,1.112,6.128c1.254,3.045,3.041,5.302,3.846,5.636c0.804,0.334,1.453,0.564,1.453,0.564s1.075,2.61,2.475,4.367
				c1.401,1.757,2.383,2.884,3.217,3.613c0.835,0.729,1.439,1.136,1.439,1.136s0.626,0.746,1.222,1.204
				c0.596,0.457,1.159,1.116,1.159,1.116s2.88,3.998,4.132,5.181c1.251,1.183,1.813,1.841,2.662,2.649
				c0.848,0.808,2.069,1.702,3.33,2.654c1.262,0.952,2.798,1.975,2.798,1.975s0.563,0.659,1.687,2.465
				c1.124,1.806,4.374,7.179,4.44,8.994c0.065,1.814-0.805,3.683-1.217,5.265c-0.038,0.148-0.06,0.284-0.067,0.412l-4.234,3.685
				l1.987,2.758l-0.798,2.305l1.979,0.851l2.252,3.126l35.734-25.745l-1.707-2.243l-0.086-2.396l-2.198,0.49l-1.797-2.622l-5.159,2
				c-0.199-0.092-0.418-0.197-0.66-0.32c-2.644-1.332-5.325-3.7-5.325-3.7s0.832,0.109-0.597-1.566
				c-1.428-1.675-3.287-3.394-4.104-4.403c-0.815-1.009-1.578-2.498-1.578-2.498s0.523-0.997-0.375-1.813
				c-0.898-0.816-2.785-3.004-2.785-3.004s0.572-0.19-0.562-1.457c-1.134-1.267-12.547-14.769-12.547-14.769
				s0.965-0.384,1.605-0.358c0.64,0.027,2.42-1.256,2.152-3.413c-0.269-2.157-0.83-3.614-1.339-4.444
				c-0.509-0.831-0.642-2.552-1.268-3.298c-0.626-0.746-1.591-2.578-2.479-2.826c-0.888-0.248-1.376-1.048-1.942-1.526
				c-0.567-0.479-0.593-0.638-1.007-0.782c-0.414-0.144-1.093-0.409-1.093-0.409l-0.958-4.098l-2.811-1.256l-1.444,0.641
				l0.633,3.401c0,0-0.627,0.053-0.987,0.046c-0.359-0.006-3.909-1.794-4.998-2.384c-1.09-0.589-2.169-0.919-3.086-1.146
				c-0.918-0.226-1.198-0.246-1.862-0.122c-0.665,0.124-0.169-0.543-1.339-0.32c-1.17,0.222-2.392,0.127-3.209-0.392
				c-0.818-0.519-0.633-0.386-0.633-0.386s0.543-0.17,0.345-0.692c-0.199-0.522-1.334-0.99-1.334-0.99s-0.457-1.311-1.003-1.76
				c-0.546-0.45-1.193-0.426-1.193-0.426l-0.806-0.749c0,0,0.427,0.224,0.395-0.374c-0.031-0.597-0.3-0.848-1.143-1.526
				C101.444,28.049,101.202,27.887,100.911,27.721z M93.626,23.278l-0.616-1.291l0.616,3.621V23.278L93.626,23.278z M93.626,27.262
				c-0.414,0.188-0.82,0.411-1.195,0.669l-0.942-0.346v6.294c0.453,0.391,0.888,0.437,0.888,0.437l0.069,0.086l-0.958,1.294v0.802
				l1.598-1.318c0.173,0.207,0.361,0.427,0.54,0.633L93.626,27.262L93.626,27.262z M91.489,50.716
				c0.229,0.161,0.453,0.167,0.704-0.042c0.722-0.601,1.108-0.288,1.231-0.565c0.035-0.079,0.103-0.036,0.202,0.069V39.541
				c-0.056-0.037-0.121-0.08-0.196-0.132c-0.532-0.37-0.626-0.746-1.204-0.994c-0.275-0.118-0.497-0.316-0.738-0.52L91.489,50.716
				L91.489,50.716z M91.489,27.585l-1.543-0.567v0.977l1.43,0.864c-0.39,0.452-0.68,0.967-0.811,1.546l-0.618,0.104v0.997
				l0.556-0.007c0.041,0.571,0.152,1.027,0.301,1.391l-0.858,0.822v0.964l1.404-0.929c0.046,0.048,0.093,0.091,0.139,0.131
				L91.489,27.585L91.489,27.585z M89.946,48.599c0.673,0.986,1.118,1.818,1.543,2.117V37.895c-0.264-0.224-0.552-0.458-0.958-0.605
				l0.958-0.79v-0.802l-1.13,1.526c-0.142-0.058-0.281-0.122-0.414-0.186C89.946,37.037,89.946,48.599,89.946,48.599z
				 M89.946,27.018l-4.125-1.516l4.125,2.493V27.018L89.946,27.018z M89.946,30.509l-6.36,1.07l6.36-0.073V30.509L89.946,30.509z
				 M89.946,33.713v0.964l-2.5,1.655c0.558,0.544,1.024,0.495,1.304,0.333c0.231-0.134,0.669,0.119,1.196,0.373V48.6l-0.018-0.027
				c-1.048-1.528-1.648-4.077-1.762-4.719c-0.114-0.643-0.843-1.245-1.69-1.898c-0.846-0.653-1.769-1.411-3.626-2.572
				c-1.856-1.16-4.649-3.955-5.484-4.778c-0.835-0.822-2.051-2.176-1.91-1.981c0.14,0.195,0.084,0.826-0.234,1.054
				c-0.318,0.229-1.374-0.379-1.374-0.379s-0.15,0.054-0.601-0.535c-0.451-0.588-0.68-0.424-1.069-0.626
				c-0.388-0.203-0.202-0.58-0.202-0.58s-0.278-0.31-0.386-0.796c-0.107-0.486-1.209-1.492-1.209-1.492s-0.382,0.141-1.003-0.163
				c-0.622-0.305-0.272-0.825-0.272-0.825s-0.567,0.033-0.86-0.373c-0.292-0.407-0.058-0.603-0.058-0.603s-0.613-0.069-0.822-0.508
				c-0.21-0.44,0.265-0.675,0.265-0.675l-0.369-0.512c0,0-0.337-0.243-0.596-0.362c-0.693,0.101-1.254-0.018-1.137-0.402
				c-0.218,0.061-0.45,0.129-0.641,0.19c-0.543,0.177-1.005-0.054-1.358-0.096c-0.352-0.041-0.452-0.292-0.395-0.548
				c0.057-0.256-0.318-0.926-0.352-1.197c-0.355-0.422-1.229-0.28-1.229-0.28l0.517-0.329l-0.44-0.303l0.626-0.362l-0.127-0.484
				l0.901-0.472l0.038-0.87l0.679-0.172c-0.163-0.195-0.367-0.337-0.799-0.524c-0.832-0.261-2.062-0.959-2.036-2.079
				c0.027-1.12,0.582-0.982,0.649-1.784c0.068-0.801,0.107-1.715,0.72-1.834c0.613-0.119,1.039,1.48,1.291,0.897
				c0.251-0.583,0.778-0.373,1.026-1.035c0.248-0.662,0.067-1.66,0.373-1.53c0.307,0.128,0.433,0.601,0.712,1.099
				c0.278,0.498-0.256,2.441-0.134,3.132c0.122,0.691,0.212,1.002,0.063,1.244c-0.086,0.141,0.091,0.318,0.309,0.52v0.001
				c0.157,0.144,0.335,0.3,0.452,0.462l0.983-0.994l0.433,0.354l0.674-0.663l0.148,0.514l0.567-0.32c0,0-0.119,0.573-0.041,1.05
				c0.078,0.477,0.608,0.537,1.178,0.836c0.57,0.299,0.163,0.903,0.373,1.194c0.211,0.292-1.288,1.903-1.288,1.903
				s0.451,0.073,0.57,0.299c0.118,0.225-0.144,0.724-0.144,0.724l0.724,1.251c0,0,0.137-0.055,1.025,0.193
				c0.888,0.247,1.848,0.841,2.905,1.631c1.057,0.79,1.313,1.27,2.916,2.509c1.603,1.239,1.129,1.137,3.699,2.611
				c2.569,1.474,5.497,3.753,6.145,4.529c0.031,0.037,0.063,0.073,0.093,0.107L89.946,33.713z"/>
			<path style="fill:#238C87;" d="M268.544,99.597V59.593l0.097-0.013l-0.097-0.932V25.27c0.095,0.007,0.187,0.015,0.275,0.026
				l-0.235-1.796c-0.01-0.078-0.024-0.152-0.042-0.218v-2.022l0.127,0.037l0.064,0.494l1.113,0.318l-0.673,0.766l-0.456,0.12
				l0.368,2.34c0.665,0.117,1.108,0.361,1.151,0.691l0.08,0.618l-0.889,0.877l1.516,9.64c0.58,0.124,0.963,0.345,1.001,0.639
				l0.081,0.618l-0.76,0.797l1.323,8.418c0.663,0.114,1.101,0.331,1.14,0.627l0.081,0.619l-0.892,0.85l1.43,9.108l1.295-0.169
				L280.778,98L268.544,99.597z M268.544,21.259v2.022c-0.048-0.187-0.119-0.314-0.18-0.306l0,0c-0.034,0.004-0.06,0.048-0.076,0.12
				v-2.309c0.068,0.139,0.119,0.287,0.151,0.443L268.544,21.259L268.544,21.259z M268.544,25.27v33.379l-0.256-2.458V25.258
				l0.02,0.001l-0.02-0.154v-1.537l0.222,1.699L268.544,25.27L268.544,25.27z M268.544,59.593v40.004l-0.256,0.033V59.626
				L268.544,59.593z M268.288,20.786v2.309c-0.024,0.104-0.027,0.266-0.004,0.443l0.004,0.029v1.537l-0.223-1.707
				c-0.031-0.234-0.206-0.414-0.424-0.464v-2.89C267.914,20.228,268.14,20.483,268.288,20.786L268.288,20.786z M268.288,25.258
				V56.19l-0.602-5.781l-0.046-0.025V25.271C267.865,25.257,268.081,25.253,268.288,25.258L268.288,25.258z M268.288,59.626V99.63
				l-0.648,0.084V59.71L268.288,59.626z M267.64,20.044v2.89c-0.061-0.014-0.125-0.017-0.19-0.009l0,0
				c-0.299,0.039-0.512,0.316-0.472,0.614l0.231,1.769c0.146-0.017,0.29-0.029,0.432-0.038v25.113l-1.035-0.566l-0.081-0.619
				c-0.005-0.037-0.003-0.076,0.003-0.112v-0.001h0.001c0.051-0.271,0.391-0.551,0.936-0.799l-0.881-8.463l-0.309-0.189v-1.842
				c0.03-0.016,0.061-0.033,0.092-0.048l-0.092-0.886V25.469c0.21-0.049,0.433-0.092,0.662-0.125l-0.231-1.769
				c-0.031-0.235-0.21-0.418-0.431-0.465V19.37l0.02-0.003c-0.007,0.001-0.014,0.001-0.02,0v-0.144h0.001h-0.001v-0.374
				c0.105,0.005,0.191,0.069,0.203,0.158c0.014,0.102-0.077,0.199-0.202,0.215c0.04-0.005,0.077,0.023,0.082,0.063
				c0.006,0.039-0.023,0.076-0.063,0.081c0.103-0.014,0.198,0.059,0.21,0.16l0.001,0.014c0.266,0.006,0.488,0.101,0.58,0.246
				C267.285,19.843,267.472,19.93,267.64,20.044L267.64,20.044z M267.64,59.71v40.004l-1.366,0.178V59.889L267.64,59.71
				L267.64,59.71z M266.274,18.826v-0.09c0.009,0.01,0.014,0.022,0.016,0.036C266.293,18.792,266.287,18.811,266.274,18.826
				L266.274,18.826z M266.274,18.688v-0.327c0.051,0.027,0.088,0.078,0.097,0.139C266.381,18.579,266.34,18.652,266.274,18.688z
				 M266.274,18.362v0.327c-0.02,0.011-0.042,0.018-0.066,0.021c0.026-0.003,0.05,0.007,0.066,0.026v0.09
				c-0.012,0.014-0.028,0.024-0.047,0.027c0.016-0.002,0.032-0.003,0.047-0.002v0.374c-0.04,0.005-0.067,0.041-0.062,0.081
				c0.004,0.033,0.031,0.057,0.062,0.062v-0.144c-0.124,0.016-0.236-0.054-0.249-0.156c-0.014-0.102,0.077-0.199,0.202-0.215
				c-0.04,0.005-0.076-0.022-0.082-0.063c-0.005-0.039,0.023-0.075,0.063-0.081c-0.103,0.014-0.198-0.058-0.212-0.161
				c-0.012-0.101,0.06-0.195,0.163-0.209c-0.04,0.005-0.076-0.022-0.081-0.062c-0.006-0.04,0.022-0.076,0.063-0.082
				c-0.275,0.036-0.084-0.65-0.084-0.65s0.359,0.614,0.084,0.65c0.041-0.005,0.077,0.022,0.082,0.062
				c0.005,0.039-0.024,0.076-0.064,0.082C266.201,18.335,266.241,18.343,266.274,18.362L266.274,18.362z M266.274,19.371v3.739
				c-0.059-0.013-0.121-0.016-0.184-0.007l0,0c-0.215,0.028-0.385,0.18-0.45,0.373v-3.509c0.056-0.161,0.243-0.305,0.494-0.378
				l-0.003-0.014C266.119,19.481,266.183,19.393,266.274,19.371L266.274,19.371z M266.274,25.469v11.389l-0.634-6.089v-5.121
				l0.027-0.01l-0.027-0.21V23.89l0.22,1.688C265.993,25.539,266.132,25.503,266.274,25.469L266.274,25.469z M266.274,37.793v1.843
				l-0.63-0.385l-0.004-0.031v-0.897C265.75,38.14,265.969,37.959,266.274,37.793L266.274,37.793z M266.274,59.889v40.004
				l-0.634,0.083V59.972L266.274,59.889z M265.64,19.968v3.509c-0.024,0.076-0.033,0.157-0.022,0.241l0.022,0.173v1.539
				l-0.198-1.519c-0.012-0.085-0.027-0.164-0.046-0.234v-3.53c0.075-0.062,0.155-0.118,0.24-0.168L265.64,19.968L265.64,19.968z
				 M265.64,25.648v5.121l-0.243-2.345v-2.687C265.475,25.707,265.556,25.677,265.64,25.648L265.64,25.648z M265.64,38.323v0.897
				l-0.076-0.588c-0.005-0.037-0.004-0.075,0.002-0.112v-0.001l0,0C265.576,38.454,265.602,38.388,265.64,38.323L265.64,38.323z
				 M265.64,59.972v40.004l-0.243,0.032V60.004L265.64,59.972z M265.397,20.145v3.53c-0.048-0.178-0.116-0.297-0.176-0.29l0,0
				c-0.083,0.011-0.119,0.265-0.08,0.563l0.235,1.796l0.021-0.008v2.687l-0.039-0.372l-1.084-0.619l-0.081-0.618
				c-0.005-0.037-0.005-0.075,0.001-0.112l0,0l0,0c0.042-0.297,0.391-0.599,0.935-0.852l-0.245-2.356l-0.471,0.001l-0.848-0.568
				l0.994-0.593l-0.065-0.494l0.207-0.125C264.665,21.097,264.939,20.518,265.397,20.145L265.397,20.145z M265.397,60.004v40.004
				l-13.428,1.752V42.806c0.058,0.003,0.115,0.009,0.17,0.015l-0.144-1.105c-0.007-0.048-0.015-0.094-0.026-0.135v-1.244
				l0.078,0.023l0.04,0.304l0.685,0.197l-0.414,0.471l-0.281,0.073l0.227,1.44c0.409,0.072,0.682,0.222,0.708,0.425l0.05,0.381
				l-0.547,0.54l0.932,5.933c0.357,0.076,0.593,0.212,0.617,0.393l0.049,0.381l-0.468,0.49l0.814,5.181
				c0.409,0.071,0.677,0.203,0.701,0.386l0.05,0.381l-0.549,0.523l0.546,3.475L265.397,60.004z M251.969,40.337v1.244
				c-0.03-0.115-0.073-0.193-0.111-0.188l0,0c-0.02,0.002-0.037,0.03-0.047,0.073v-1.422c0.041,0.085,0.073,0.177,0.094,0.273
				L251.969,40.337L251.969,40.337z M251.969,42.806v58.953l-0.158,0.021V42.799h0.012l-0.012-0.095v-0.949l0.137,1.049
				L251.969,42.806z M251.81,40.045v1.422c-0.015,0.064-0.016,0.164-0.002,0.273l0.002,0.016v0.949l-0.137-1.051
				c-0.018-0.144-0.127-0.255-0.261-0.286v-1.779C251.581,39.702,251.719,39.859,251.81,40.045L251.81,40.045z M251.81,42.799
				v58.982l-0.398,0.052V61.829l0.392-0.051l-0.364-3.498l-0.028-0.016V42.806C251.551,42.798,251.685,42.796,251.81,42.799z
				 M250.978,42.851c-0.141,0.02-0.277,0.046-0.407,0.077v7.009l0.056,0.546l-0.056,0.03v1.135l0.19,0.116l0.542,5.208
				c-0.335,0.153-0.544,0.326-0.576,0.492v0.001l0,0c-0.005,0.023-0.005,0.046-0.002,0.069l0.05,0.38l0.636,0.349V42.806
				c-0.087,0.005-0.176,0.013-0.266,0.023l-0.142-1.088c-0.024-0.184,0.107-0.354,0.291-0.378l0,0
				c0.04-0.005,0.079-0.003,0.117,0.005v-1.779c-0.104-0.07-0.219-0.123-0.341-0.157c-0.056-0.089-0.193-0.148-0.356-0.152
				l-0.001-0.009c-0.008-0.063-0.066-0.107-0.129-0.098c0.024-0.003,0.042-0.026,0.039-0.05c-0.003-0.024-0.025-0.041-0.05-0.038
				c0.076-0.01,0.132-0.069,0.124-0.133c-0.007-0.055-0.061-0.095-0.125-0.097v0.23h0.001h-0.001v0.088
				c0.004,0.001,0.008,0.001,0.012,0l-0.012,0.002v2.301c0.136,0.029,0.246,0.141,0.265,0.286L250.978,42.851L250.978,42.851z
				 M251.412,61.829v40.004l-0.84,0.11V61.939L251.412,61.829L251.412,61.829z M250.572,38.839v-0.056
				c0.005,0.006,0.008,0.014,0.01,0.022C250.583,38.818,250.58,38.831,250.572,38.839L250.572,38.839z M250.572,38.754v-0.201
				c0.031,0.017,0.054,0.048,0.059,0.085C250.638,38.688,250.613,38.732,250.572,38.754z M250.572,42.928
				c-0.088,0.02-0.173,0.043-0.254,0.067l-0.136-1.039v0.948l0.016,0.129l-0.016,0.005v3.151l0.39,3.747V42.928L250.572,42.928z
				 M250.182,41.702c0.039-0.12,0.144-0.213,0.277-0.23l0,0c0.039-0.005,0.077-0.003,0.114,0.005v-2.301
				c-0.057,0.013-0.096,0.067-0.088,0.126l0.001,0.008c-0.153,0.044-0.269,0.134-0.303,0.233V41.702L250.182,41.702z
				 M250.572,38.554v0.201c-0.013,0.007-0.026,0.012-0.041,0.014c0.016-0.002,0.031,0.004,0.041,0.016v0.056
				c-0.007,0.009-0.017,0.015-0.029,0.016c0.01-0.001,0.019-0.001,0.029-0.001v0.23c-0.077,0.01-0.146-0.033-0.154-0.096
				c-0.009-0.063,0.047-0.123,0.124-0.133c-0.024,0.003-0.047-0.014-0.05-0.038c-0.003-0.024,0.014-0.047,0.039-0.05
				c-0.064,0.008-0.122-0.036-0.13-0.099c-0.008-0.063,0.037-0.12,0.1-0.128c-0.025,0.003-0.047-0.014-0.051-0.039
				c-0.003-0.024,0.015-0.046,0.04-0.05c-0.17,0.022-0.052-0.4-0.052-0.4s0.222,0.378,0.052,0.4c0.024-0.003,0.047,0.014,0.05,0.038
				c0.003,0.024-0.014,0.047-0.039,0.05C250.527,38.537,250.551,38.543,250.572,38.554L250.572,38.554z M250.572,39.085
				c-0.024,0.003-0.042,0.026-0.039,0.05c0.002,0.02,0.018,0.036,0.039,0.039V39.085L250.572,39.085z M250.572,50.513v1.135
				l-0.388-0.237l-0.003-0.02v-0.55C250.249,50.727,250.384,50.615,250.572,50.513L250.572,50.513z M250.572,61.939v40.004
				l-0.39,0.051V61.991L250.572,61.939z M250.182,41.956l-0.014-0.106c-0.007-0.051-0.001-0.101,0.014-0.148v-2.16l-0.002,0.005
				c-0.368,0.216-0.602,0.626-0.577,1.071l-0.128,0.077l0.04,0.303l-0.612,0.365l0.522,0.349l0.291-0.001l0.151,1.45
				c-0.334,0.155-0.55,0.341-0.575,0.524l0,0l0,0c-0.003,0.023-0.003,0.046-0.001,0.069l0.05,0.38l0.667,0.382l0.174,1.671v-3.151
				c-0.056,0.018-0.111,0.039-0.163,0.06l-0.144-1.105c-0.024-0.184-0.002-0.34,0.048-0.347l0,0
				c0.051-0.007,0.112,0.139,0.137,0.322l0.122,0.936V41.956L250.182,41.956z M250.182,50.84v0.55l-0.047-0.36
				c-0.003-0.023-0.003-0.046,0.001-0.069h0.001l0,0C250.142,50.921,250.157,50.88,250.182,50.84L250.182,50.84z M250.182,61.989
				v40.003l-6.37,0.832v-59.11l0.102,0.007l-0.036-0.273l-0.066,0.102V41.47l1.012-0.133l-0.309-2.37
				c-0.05-0.018-0.082-0.045-0.086-0.078c-0.005-0.041,0.032-0.084,0.097-0.118c-0.075-0.028-0.096-0.089-0.114-0.169
				c-0.093-0.405-0.305-0.162-0.323-0.307c-0.006-0.046,0.088-0.1,0.237-0.145c-0.002-0.008-0.003-0.016-0.004-0.025
				c-0.022-0.166,0.08-0.32,0.233-0.369c-0.003-0.029,0.003-0.056,0.018-0.073c-0.02-0.01-0.036-0.029-0.039-0.054
				c-0.003-0.02,0.003-0.039,0.016-0.054c-0.042-0.005-0.074-0.026-0.078-0.055c-0.004-0.029,0.02-0.056,0.057-0.072
				c-0.014-0.011-0.022-0.026-0.024-0.044c-0.003-0.022,0.004-0.043,0.018-0.057c-0.033-0.005-0.059-0.023-0.062-0.047
				c-0.003-0.027,0.022-0.052,0.059-0.065c-0.018-0.008-0.03-0.024-0.033-0.045c-0.002-0.018,0.003-0.034,0.014-0.046
				c-0.014-0.009-0.023-0.024-0.026-0.041c-0.005-0.031-0.015-0.316,0.016-0.32s0.094,0.273,0.099,0.305
				c0.002,0.017-0.004,0.034-0.015,0.046c0.014,0.01,0.024,0.024,0.027,0.041c0.003,0.02-0.006,0.04-0.02,0.052
				c0.039,0.003,0.07,0.022,0.073,0.048c0.003,0.024-0.016,0.047-0.048,0.061c0.017,0.011,0.03,0.029,0.033,0.05
				c0.003,0.018-0.003,0.035-0.012,0.049c0.041,0.006,0.071,0.027,0.074,0.055c0.003,0.029-0.022,0.058-0.062,0.074
				c0.016,0.011,0.027,0.028,0.03,0.048c0.003,0.024-0.007,0.048-0.024,0.062c0.018,0.013,0.031,0.037,0.035,0.067
				c0.161,0.008,0.299,0.131,0.32,0.297c0.001,0.009,0.003,0.017,0.003,0.025c0.156,0.005,0.261,0.033,0.267,0.08
				c0.02,0.154-0.261-0.042-0.246,0.377c0.002,0.082-0.003,0.147-0.065,0.193c0.076,0.016,0.128,0.048,0.134,0.091
				c0.004,0.033-0.02,0.067-0.063,0.097l0.646,4.945l0.843,0.059l-0.34-2.604c-0.049-0.018-0.082-0.045-0.086-0.078
				c-0.005-0.041,0.032-0.084,0.097-0.118c-0.075-0.028-0.096-0.09-0.114-0.169c-0.093-0.405-0.305-0.162-0.323-0.306
				c-0.006-0.046,0.088-0.101,0.237-0.145c-0.002-0.008-0.003-0.016-0.004-0.024c-0.022-0.166,0.08-0.32,0.233-0.369
				c-0.003-0.029,0.004-0.056,0.017-0.073c-0.02-0.009-0.037-0.029-0.04-0.053c-0.002-0.02,0.004-0.04,0.016-0.054
				c-0.042-0.005-0.074-0.027-0.078-0.056c-0.004-0.029,0.02-0.056,0.058-0.071c-0.013-0.011-0.022-0.027-0.025-0.044
				c-0.003-0.022,0.005-0.041,0.019-0.056c-0.035-0.005-0.059-0.022-0.063-0.046c-0.003-0.027,0.021-0.052,0.059-0.065
				c-0.018-0.008-0.031-0.024-0.033-0.045c-0.001-0.017,0.003-0.034,0.014-0.046c-0.014-0.009-0.023-0.023-0.027-0.041
				c-0.004-0.032-0.015-0.316,0.017-0.32c0.031-0.004,0.094,0.273,0.098,0.305c0.003,0.017-0.003,0.034-0.014,0.046
				c0.014,0.008,0.024,0.023,0.027,0.041c0.003,0.02-0.006,0.04-0.02,0.052c0.039,0.002,0.07,0.021,0.073,0.048
				c0.003,0.024-0.017,0.047-0.048,0.061c0.017,0.01,0.03,0.029,0.033,0.05c0.002,0.018-0.002,0.035-0.012,0.049
				c0.04,0.006,0.071,0.027,0.073,0.055c0.004,0.029-0.022,0.058-0.061,0.074c0.016,0.01,0.027,0.028,0.029,0.048
				c0.003,0.024-0.007,0.047-0.024,0.062c0.018,0.014,0.031,0.037,0.035,0.067c0.162,0.008,0.299,0.131,0.321,0.297
				c0.001,0.008,0.001,0.017,0.002,0.024c0.155,0.005,0.261,0.033,0.267,0.08c0.02,0.154-0.261-0.042-0.246,0.377
				c0.003,0.082-0.003,0.146-0.065,0.193c0.076,0.016,0.128,0.048,0.133,0.091c0.004,0.033-0.02,0.067-0.063,0.097l0.355,2.722
				l0.008,0.001l2.366,18.135L250.182,61.989z M243.812,41.469v2.081l-0.102,0.157l0.102,0.007v59.111l-0.324,0.042l-3.394,0.443
				V43.708l1.033-0.135l-0.35-2.681c-0.05-0.018-0.082-0.044-0.086-0.078c-0.005-0.041,0.032-0.084,0.097-0.118
				c-0.076-0.028-0.096-0.089-0.115-0.169c-0.076-0.327-0.228-0.231-0.293-0.258l-0.285,0.573V39.97l0.356,0.158l0,0
				c0.037-0.018,0.083-0.035,0.137-0.051c-0.002-0.007-0.003-0.016-0.004-0.024c-0.022-0.166,0.08-0.32,0.233-0.369
				c-0.003-0.029,0.004-0.056,0.018-0.073c-0.021-0.01-0.037-0.029-0.039-0.054c-0.003-0.02,0.003-0.039,0.016-0.054
				c-0.042-0.005-0.074-0.027-0.078-0.056c-0.003-0.028,0.02-0.056,0.058-0.072c-0.014-0.011-0.022-0.027-0.025-0.044
				c-0.003-0.022,0.005-0.042,0.018-0.056c-0.033-0.005-0.058-0.023-0.062-0.047c-0.003-0.026,0.021-0.052,0.059-0.065
				c-0.017-0.007-0.03-0.024-0.033-0.045c-0.002-0.018,0.004-0.035,0.014-0.046c-0.014-0.009-0.024-0.023-0.026-0.041
				c-0.004-0.031-0.015-0.316,0.016-0.32s0.094,0.273,0.098,0.305c0.002,0.017-0.003,0.033-0.014,0.046
				c0.014,0.009,0.024,0.023,0.026,0.041c0.003,0.02-0.005,0.039-0.02,0.052c0.04,0.003,0.071,0.021,0.073,0.048
				c0.003,0.024-0.016,0.047-0.048,0.061c0.017,0.01,0.03,0.029,0.033,0.05c0.002,0.018-0.003,0.035-0.013,0.049
				c0.04,0.006,0.07,0.027,0.074,0.055c0.003,0.029-0.022,0.058-0.062,0.074c0.016,0.01,0.027,0.028,0.03,0.048
				c0.003,0.025-0.007,0.047-0.025,0.062c0.018,0.014,0.031,0.037,0.035,0.066c0.161,0.009,0.299,0.131,0.321,0.297
				c0.001,0.009,0.002,0.017,0.001,0.025c0.156,0.005,0.261,0.033,0.267,0.08c0.02,0.154-0.261-0.042-0.246,0.376
				c0.003,0.082-0.003,0.147-0.065,0.193c0.076,0.016,0.129,0.048,0.133,0.091c0.004,0.033-0.019,0.067-0.063,0.097l0.357,2.735
				l0.745,0.052l0.25-0.413l-0.117-0.899c-0.037-0.014-0.061-0.033-0.065-0.058c-0.003-0.031,0.024-0.063,0.072-0.088
				c-0.057-0.021-0.072-0.067-0.086-0.127c-0.069-0.304-0.229-0.122-0.243-0.23c-0.005-0.035,0.066-0.076,0.178-0.11
				c-0.001-0.006-0.001-0.012-0.003-0.018c-0.016-0.124,0.059-0.24,0.175-0.278c-0.002-0.022,0.003-0.042,0.014-0.055
				c-0.016-0.007-0.027-0.022-0.03-0.04c-0.002-0.016,0.003-0.03,0.013-0.041c-0.032-0.004-0.056-0.02-0.059-0.041
				c-0.002-0.021,0.015-0.042,0.043-0.055c-0.01-0.007-0.016-0.019-0.018-0.033c-0.002-0.016,0.003-0.031,0.014-0.042
				c-0.026-0.004-0.044-0.017-0.047-0.035c-0.002-0.02,0.016-0.039,0.044-0.05c-0.012-0.005-0.022-0.018-0.024-0.033
				c-0.001-0.013,0.003-0.026,0.011-0.035c-0.011-0.007-0.018-0.018-0.02-0.031c-0.003-0.024-0.011-0.237,0.013-0.241
				s0.071,0.205,0.073,0.229c0.002,0.014-0.002,0.026-0.011,0.035c0.01,0.006,0.018,0.017,0.02,0.031
				c0.001,0.015-0.004,0.03-0.016,0.039c0.03,0.002,0.053,0.016,0.056,0.036c0.002,0.018-0.013,0.035-0.037,0.046
				c0.014,0.007,0.022,0.022,0.025,0.037c0.001,0.014-0.002,0.027-0.01,0.037c0.03,0.005,0.052,0.02,0.056,0.041
				c0.003,0.022-0.016,0.044-0.047,0.056c0.012,0.007,0.02,0.02,0.022,0.036c0.003,0.018-0.005,0.035-0.018,0.047
				c0.014,0.01,0.024,0.028,0.027,0.05c0.121,0.006,0.224,0.099,0.241,0.223c0.001,0.007,0.002,0.013,0.002,0.019
				c0.116,0.003,0.196,0.024,0.2,0.059c0.015,0.116-0.197-0.031-0.186,0.284c0.003,0.061-0.001,0.11-0.049,0.145
				c0.058,0.012,0.097,0.036,0.101,0.069c0.003,0.025-0.015,0.05-0.048,0.072l0.055,0.418l0.716-1.184L243.812,41.469z
				 M240.093,39.97v0.873l-0.217,0.437l-0.816,0.203l0.411,2.307l0.622-0.081v59.601l-1.459,0.19V43.899l0.382-0.05l-0.202-1.548
				c-0.034-0.263-0.101-0.495-0.18-0.648v-3.005l0.38,0.096l0.104,0.796L240.093,39.97z M238.635,38.648v3.005
				c-0.065-0.128-0.137-0.201-0.204-0.192l0,0c-0.148,0.019-0.217,0.429-0.154,0.91l0.202,1.548l0.156-0.02V103.5l-1.599,0.209
				V44.108l1.091-0.142l-0.237-1.815c-0.054-0.411-0.418-0.718-0.854-0.755v-4.747c0.792,0.416,1.382,1.127,1.569,1.992
				L238.635,38.648z M237.035,36.648v4.747c-0.075-0.006-0.152-0.005-0.229,0.005h-0.001c-0.533,0.07-0.918,0.522-0.855,1.003
				l0.237,1.815l0.848-0.11v59.602l-2.426,0.316V44.425l1.091-0.143l-0.237-1.815c-0.054-0.411-0.418-0.717-0.854-0.755v-5.92
				c0.053-0.057,0.129-0.098,0.216-0.11c-0.071,0.01-0.136-0.035-0.144-0.099c-0.008-0.064,0.043-0.123,0.114-0.133
				c-0.065,0.009-0.128,0.005-0.186-0.009v-0.565c0.034-0.012,0.07-0.02,0.108-0.026c-0.041,0.005-0.081-0.007-0.108-0.031v-0.163
				c0.02-0.019,0.047-0.032,0.078-0.036c-0.026,0.003-0.052,0.004-0.078,0.002v-0.597v-0.231c0.059,0.004,0.107,0.044,0.115,0.099
				c0.008,0.065-0.043,0.124-0.115,0.133c0.184-0.024,0.351,0.089,0.372,0.254c0.021,0.164-0.111,0.317-0.295,0.341
				c0.071-0.01,0.137,0.035,0.145,0.099c0.009,0.063-0.043,0.123-0.114,0.132c0.222-0.029,0.421,0.082,0.443,0.247
				c0.022,0.166-0.142,0.322-0.365,0.352c0.071-0.01,0.137,0.035,0.145,0.099c0.009,0.064-0.043,0.122-0.114,0.132
				c0.184-0.024,0.35,0.09,0.372,0.254l0.002,0.022c0.473,0.004,0.865,0.152,1.026,0.386
				C236.512,36.413,236.784,36.515,237.035,36.648L237.035,36.648z M234.61,33.791v-0.74
				C234.748,33.336,234.881,33.728,234.61,33.791z M234.61,33.051v0.74c-0.01,0.002-0.019,0.004-0.03,0.005
				c0.01-0.001,0.02-0.001,0.03-0.001v0.231c-0.071,0.01-0.136-0.035-0.144-0.099c-0.008-0.064,0.043-0.123,0.114-0.133
				c-0.49,0.064-0.137-1.048-0.137-1.048S234.527,32.88,234.61,33.051L234.61,33.051z M234.61,34.028
				c-0.183,0.024-0.316,0.176-0.294,0.341c0.018,0.141,0.144,0.244,0.294,0.256V34.028L234.61,34.028z M234.61,34.658v0.163
				c-0.02-0.017-0.033-0.04-0.037-0.067C234.568,34.719,234.583,34.683,234.61,34.658L234.61,34.658z M234.61,34.878v0.565
				c-0.137-0.032-0.241-0.122-0.256-0.238C234.335,35.068,234.445,34.936,234.61,34.878L234.61,34.878z M234.61,35.791v5.92
				c-0.074-0.006-0.151-0.005-0.229,0.005l0,0c-0.533,0.07-0.918,0.522-0.855,1.003l0.237,1.815l0.848-0.111v59.602l-1.581,0.206
				v-59.6l0.382-0.05l-0.202-1.547c-0.034-0.263-0.101-0.495-0.18-0.648v-5.283c0.186-0.159,0.392-0.301,0.614-0.42
				c0.096-0.267,0.437-0.511,0.893-0.636l-0.004-0.022C234.52,35.937,234.551,35.855,234.61,35.791z M233.029,37.102v5.283
				c-0.065-0.128-0.137-0.201-0.204-0.193l0,0c-0.148,0.019-0.217,0.429-0.154,0.911l0.202,1.548l0.156-0.02v59.602l-16.095,2.1
				l-5.478,0.715V47.447l0.382-0.05l-0.202-1.547c-0.034-0.264-0.101-0.497-0.179-0.65V30.851c0.867-1.79,2.214-3.322,3.897-4.411
				c-0.046-0.046-0.078-0.106-0.09-0.174c0.066,0.035,0.146,0.005,0.186-0.024c-0.093-0.025-0.205-0.168-0.21-0.309
				c0.099,0.03,0.215,0.015,0.329-0.056c-0.082-0.036-0.192-0.123-0.184-0.294c0.095,0.067,0.405,0.031,0.512-0.055
				c-0.07-0.044-0.155-0.174-0.09-0.309c0.101,0.061,0.429,0.073,0.614-0.023c-0.083-0.064-0.08-0.23,0.032-0.327
				c0.644,0.106,0.923-0.552,1.133-0.853c0.18-0.259,0.579-0.767,0.871-0.992l-0.003-0.004c-0.117-0.22,0.102-0.371,0.189-0.418
				c0.086-0.047,0.13-0.291,0.178-0.465c0.041-0.148,0.207-0.357,0.427-0.439c-0.05-0.008-0.085-0.027-0.092-0.05
				c-0.192-0.054-0.341-0.212-0.367-0.417c-0.031-0.231,0.107-0.447,0.322-0.533c-0.049-0.009-0.082-0.028-0.085-0.053
				c-0.003-0.025,0.026-0.053,0.072-0.074c-0.27-0.016-0.529-0.195-0.579-0.575c-0.057-0.441,0.372-0.797,0.379-1.008
				c0.001-0.016,0.001-0.031,0.001-0.044c-0.038-0.008-0.063-0.023-0.066-0.042c-0.002-0.02,0.016-0.04,0.05-0.057
				c-0.027-0.077-0.084-0.095-0.138-0.143c-0.081-0.071-0.014-0.127,0.094-0.158l-0.001-0.003c-0.001-0.011,0.001-0.022,0.006-0.032
				c-0.039-0.005-0.064-0.017-0.067-0.033c-0.002-0.018,0.024-0.038,0.065-0.053c-0.014-0.01-0.023-0.024-0.025-0.04v-0.002
				c-0.171-0.029-0.31-0.162-0.333-0.338c-0.023-0.176,0.078-0.341,0.237-0.412c-0.035-0.008-0.058-0.023-0.06-0.042
				c-0.004-0.03,0.043-0.062,0.112-0.08c-0.047-0.014-0.083-0.053-0.09-0.103c-0.007-0.056,0.025-0.108,0.074-0.131
				c-0.016-0.012-0.027-0.033-0.03-0.056c-0.004-0.027,0.003-0.05,0.017-0.067c-0.035-0.002-0.06-0.015-0.063-0.033
				c-0.002-0.017,0.016-0.034,0.046-0.046c-0.014-0.013-0.024-0.031-0.027-0.054l-0.001-0.011c-0.324,0.012-0.609-0.225-0.651-0.552
				c-0.003-0.025-0.005-0.05-0.005-0.074c0.068,0.27,0.304,0.463,0.579,0.479c-0.009-0.014-0.015-0.031-0.018-0.048
				c-0.007-0.056,0.025-0.11,0.077-0.131c-0.017-0.012-0.03-0.034-0.033-0.06l-0.001-0.002c-0.087-0.014-0.158-0.082-0.17-0.171
				c-0.012-0.095,0.046-0.182,0.134-0.214c-0.011-0.013-0.019-0.03-0.021-0.049c-0.002-0.017,0-0.033,0.006-0.048l-0.008-0.01
				l-0.008-0.007c-0.018-0.014-0.042-0.022-0.068-0.018c-0.038,0.005-0.067,0.032-0.076,0.067c-0.006-0.01-0.01-0.022-0.012-0.034
				c-0.007-0.049,0.029-0.095,0.079-0.101c0.015-0.001,0.031,0,0.044,0.005c-0.018-0.133,0.042-0.345,0.042-0.345
				s0.111,0.187,0.128,0.32c0.011-0.007,0.023-0.011,0.036-0.013c0.05-0.007,0.096,0.029,0.102,0.079
				c0.001,0.012,0.001,0.024-0.002,0.035c-0.018-0.031-0.053-0.05-0.091-0.045c-0.019,0.003-0.037,0.012-0.05,0.024
				c-0.004,0.012-0.01,0.021-0.018,0.029c0.01,0.012,0.018,0.029,0.02,0.047c0.003,0.02-0.001,0.038-0.008,0.052
				c0.095,0.008,0.172,0.079,0.184,0.173c0.012,0.089-0.039,0.173-0.12,0.21v0.001c0.003,0.027-0.003,0.05-0.017,0.067
				c0.056,0.008,0.101,0.051,0.108,0.107c0.003,0.018,0.001,0.035-0.004,0.052c0.261-0.086,0.439-0.333,0.437-0.611
				c0.006,0.024,0.01,0.048,0.014,0.073c0.043,0.327-0.172,0.629-0.487,0.701l0.001,0.011c0.003,0.022-0.001,0.043-0.012,0.058
				c0.031,0.003,0.054,0.016,0.056,0.033c0.003,0.018-0.019,0.037-0.052,0.048c0.016,0.012,0.03,0.034,0.033,0.06
				c0.003,0.024-0.003,0.046-0.014,0.063c0.054,0.009,0.098,0.051,0.105,0.107c0.007,0.05-0.018,0.097-0.059,0.122
				c0.071,0,0.124,0.018,0.129,0.048c0.003,0.019-0.016,0.039-0.047,0.056c0.173,0.028,0.313,0.161,0.336,0.338
				c0.022,0.175-0.077,0.34-0.235,0.412v0.002c0.002,0.016-0.003,0.031-0.014,0.045c0.044,0.004,0.073,0.016,0.076,0.035
				c0.002,0.016-0.02,0.035-0.056,0.05c0.008,0.009,0.014,0.018,0.014,0.03l0.001,0.007c0.118,0.005,0.201,0.044,0.131,0.124
				c-0.048,0.054-0.095,0.088-0.099,0.172c0.037,0.008,0.062,0.023,0.065,0.043c0.003,0.02-0.018,0.041-0.052,0.059
				c0.003,0.013,0.007,0.028,0.012,0.043c0.061,0.201,0.568,0.435,0.625,0.877c0.049,0.38-0.155,0.619-0.412,0.705
				c0.051,0.008,0.086,0.027,0.089,0.053c0.003,0.026-0.023,0.052-0.068,0.073c0.229,0.027,0.418,0.201,0.448,0.433
				c0.027,0.204-0.077,0.396-0.249,0.497c0.001,0.026-0.029,0.052-0.076,0.072c0.234,0.023,0.448,0.182,0.526,0.315
				c0.091,0.156,0.196,0.381,0.292,0.404c0.087,0.02,0.301,0.097,0.299,0.291l0.002,0.001c0.315,0.058,0.967,0.546,1.247,0.782
				c0.28,0.238,0.718,0.803,1.313,0.534c0.133,0.066,0.179,0.226,0.114,0.309c0.205,0.046,0.518-0.05,0.6-0.135
				c0.099,0.114,0.05,0.263-0.007,0.322c0.124,0.055,0.434,0.012,0.509-0.078c0.052,0.163-0.032,0.276-0.102,0.331
				c0.129,0.039,0.244,0.024,0.333-0.031c0.03,0.138-0.041,0.305-0.124,0.354c0.045,0.018,0.13,0.026,0.185-0.025
				c0.005,0.069-0.01,0.136-0.042,0.192c3.874,1.262,6.88,4.653,7.443,8.961c0.18,1.379,0.093,2.732-0.219,4.006l0.099,0.752
				C232.077,38.236,232.462,37.586,233.029,37.102z M211.456,30.851v14.348c-0.065-0.127-0.137-0.2-0.204-0.191l0,0
				c-0.148,0.019-0.217,0.429-0.154,0.911l0.202,1.548l0.156-0.02v59.602l-1.599,0.209V47.655l1.092-0.143l-0.237-1.815
				c-0.054-0.412-0.418-0.718-0.854-0.755v-4.748c0.622,0.326,1.118,0.833,1.393,1.454l-0.35-2.681
				c-0.202-0.626-0.352-1.28-0.44-1.956C210.175,34.821,210.56,32.699,211.456,30.851z M209.857,40.194v4.748
				c-0.074-0.007-0.152-0.005-0.229,0.005h-0.001c-0.533,0.07-0.918,0.522-0.856,1.003l0.237,1.815l0.848-0.111v59.602l-2.425,0.316
				V47.972l1.092-0.142l-0.237-1.816c-0.054-0.411-0.418-0.717-0.854-0.755v-5.92c0.053-0.057,0.129-0.098,0.216-0.11
				c-0.071,0.01-0.136-0.035-0.145-0.099c-0.008-0.064,0.043-0.124,0.115-0.133c-0.066,0.008-0.129,0.005-0.186-0.009v-0.565
				c0.034-0.012,0.07-0.02,0.107-0.025c-0.041,0.005-0.08-0.007-0.107-0.031v-0.164c0.02-0.018,0.047-0.032,0.078-0.036
				c-0.027,0.003-0.052,0.004-0.078,0.002v-0.597h0.001h-0.001v-0.232c0.059,0.005,0.107,0.045,0.114,0.099
				c0.008,0.064-0.043,0.123-0.114,0.133c0.184-0.024,0.35,0.089,0.371,0.254c0.022,0.163-0.11,0.316-0.294,0.34
				c0.071-0.01,0.136,0.035,0.144,0.099c0.008,0.063-0.044,0.123-0.115,0.132c0.222-0.029,0.421,0.082,0.443,0.247
				c0.022,0.165-0.142,0.322-0.364,0.352c0.071-0.01,0.135,0.035,0.144,0.099c0.009,0.064-0.042,0.123-0.114,0.133
				c0.183-0.024,0.35,0.09,0.371,0.254l0.002,0.022c0.472,0.003,0.865,0.152,1.026,0.386
				C209.334,39.96,209.606,40.063,209.857,40.194L209.857,40.194z M207.432,37.338v-0.74
				C207.57,36.883,207.703,37.275,207.432,37.338z M207.432,36.598v0.74c-0.01,0.002-0.019,0.004-0.03,0.005
				c0.01-0.001,0.02-0.001,0.03-0.001v0.232c-0.184,0.024-0.315,0.176-0.294,0.341c0.018,0.14,0.143,0.244,0.294,0.256v-0.597
				c-0.071,0.009-0.136-0.035-0.144-0.099c-0.008-0.064,0.044-0.124,0.114-0.133c-0.491,0.065-0.137-1.048-0.137-1.048
				S207.35,36.427,207.432,36.598L207.432,36.598z M207.432,38.206v0.164c-0.02-0.018-0.033-0.04-0.037-0.067
				C207.39,38.265,207.405,38.231,207.432,38.206L207.432,38.206z M207.432,38.425v0.565c-0.138-0.032-0.241-0.121-0.256-0.238
				C207.157,38.615,207.267,38.483,207.432,38.425L207.432,38.425z M207.432,39.339v5.92c-0.075-0.006-0.152-0.005-0.229,0.005
				h-0.001c-0.533,0.07-0.918,0.522-0.854,1.003l0.237,1.815l0.848-0.111v59.601l-1.581,0.207V48.178l0.382-0.05l-0.202-1.547
				c-0.035-0.263-0.101-0.496-0.18-0.649V40.65c0.186-0.159,0.392-0.301,0.614-0.42c0.096-0.268,0.437-0.511,0.892-0.637
				l-0.004-0.022C207.343,39.485,207.373,39.402,207.432,39.339z M205.851,40.65v5.283c-0.065-0.128-0.137-0.2-0.204-0.192l0,0
				c-0.148,0.02-0.217,0.43-0.154,0.911l0.202,1.547l0.156-0.02v59.602l-1.644,0.214V48.393l1.033-0.135l-0.196-2.334l-0.837,0.013
				v-1.652l0.282-0.226l-0.103-0.795l0.371-0.205C204.711,42.134,205.137,41.26,205.851,40.65z M204.207,44.285v1.652h-0.003
				l-0.744-0.848c-0.056,0.044-0.229-0.01-0.217,0.325c0.002,0.082-0.002,0.147-0.067,0.193c0.071,0.016,0.118,0.048,0.124,0.089
				c0.004,0.033-0.02,0.067-0.063,0.097l0.35,2.681l0.622-0.082v59.601l-3.2,0.418V49.305l0.114-0.039l-0.114-0.103V47.52
				l0.572,0.552l-0.054-0.418c-0.037-0.014-0.061-0.033-0.065-0.058c-0.004-0.033,0.027-0.066,0.08-0.093
				c-0.054-0.021-0.071-0.067-0.084-0.128c-0.071-0.306-0.236-0.11-0.252-0.226c-0.005-0.035,0.067-0.075,0.178-0.109
				c-0.001-0.006-0.003-0.012-0.003-0.018c-0.016-0.124,0.06-0.24,0.175-0.278c-0.003-0.021,0.003-0.042,0.013-0.055
				c-0.016-0.007-0.027-0.021-0.03-0.04c-0.002-0.016,0.003-0.03,0.013-0.041c-0.033-0.005-0.056-0.02-0.059-0.042
				c-0.003-0.021,0.014-0.042,0.042-0.054c-0.01-0.007-0.016-0.019-0.018-0.033c-0.002-0.016,0.003-0.031,0.014-0.042
				c-0.026-0.004-0.044-0.017-0.047-0.035c-0.002-0.02,0.016-0.039,0.044-0.049c-0.013-0.005-0.023-0.018-0.025-0.033
				c-0.001-0.014,0.003-0.027,0.012-0.035c-0.011-0.007-0.018-0.018-0.02-0.031c-0.003-0.024-0.012-0.238,0.013-0.241
				c0.024-0.003,0.071,0.205,0.073,0.229c0.001,0.013-0.003,0.026-0.011,0.035c0.011,0.007,0.018,0.018,0.02,0.031
				c0.002,0.015-0.004,0.03-0.015,0.039c0.03,0.002,0.053,0.016,0.055,0.036c0.003,0.018-0.012,0.035-0.036,0.046
				c0.013,0.008,0.022,0.021,0.024,0.037c0.001,0.014-0.002,0.027-0.01,0.037c0.03,0.005,0.052,0.02,0.055,0.042
				s-0.016,0.044-0.046,0.055c0.012,0.008,0.02,0.021,0.022,0.036c0.002,0.018-0.005,0.036-0.019,0.046
				c0.014,0.01,0.024,0.028,0.027,0.05c0.122,0.006,0.225,0.098,0.241,0.223c0.001,0.006,0.001,0.012,0.002,0.018
				c0.117,0.004,0.195,0.025,0.2,0.06c0.014,0.108-0.186-0.027-0.175,0.285c0.001,0.061-0.001,0.11-0.051,0.145
				c0.053,0.012,0.088,0.037,0.092,0.067c0.003,0.025-0.014,0.051-0.048,0.073l0.117,0.899l0.348,0.335l0.707-0.241l-0.357-2.735
				c-0.05-0.017-0.082-0.044-0.086-0.078c-0.005-0.044,0.036-0.088,0.106-0.123c-0.073-0.029-0.095-0.09-0.113-0.17
				c-0.093-0.408-0.314-0.146-0.335-0.301c-0.006-0.046,0.088-0.101,0.237-0.145c-0.001-0.008-0.003-0.016-0.004-0.025
				c-0.022-0.166,0.08-0.32,0.233-0.369c-0.003-0.029,0.003-0.056,0.018-0.073c-0.021-0.01-0.037-0.029-0.04-0.054
				c-0.003-0.02,0.004-0.04,0.017-0.054c-0.043-0.005-0.075-0.027-0.079-0.055c-0.003-0.029,0.02-0.056,0.058-0.072
				c-0.014-0.01-0.022-0.026-0.024-0.044c-0.003-0.021,0.005-0.041,0.019-0.056c-0.034-0.006-0.059-0.024-0.062-0.047
				c-0.003-0.027,0.021-0.052,0.059-0.065c-0.017-0.008-0.03-0.024-0.033-0.045c-0.003-0.018,0.003-0.034,0.014-0.046
				c-0.014-0.009-0.023-0.023-0.025-0.041c-0.004-0.032-0.015-0.316,0.016-0.32c0.031-0.004,0.094,0.273,0.098,0.305
				c0.002,0.018-0.003,0.034-0.015,0.046c0.014,0.009,0.024,0.023,0.027,0.041c0.002,0.02-0.006,0.04-0.02,0.052
				c0.039,0.003,0.07,0.022,0.073,0.048c0.003,0.024-0.017,0.047-0.048,0.061c0.017,0.01,0.029,0.029,0.033,0.05
				c0.002,0.018-0.002,0.035-0.012,0.049c0.04,0.007,0.07,0.026,0.073,0.055c0.004,0.029-0.022,0.058-0.061,0.073
				c0.016,0.011,0.027,0.028,0.029,0.048c0.003,0.024-0.007,0.047-0.024,0.062c0.018,0.013,0.031,0.037,0.036,0.067
				c0.161,0.008,0.299,0.131,0.32,0.297c0.001,0.008,0.002,0.016,0.003,0.024c0.055,0.001,0.105,0.006,0.145,0.014h-0.001
				L204.207,44.285z M201.007,47.52v1.642l-0.115-0.103l0.036,0.273l0.079-0.027v59.108l-6.309,0.823V50.281
				c0.059,0.004,0.115,0.009,0.17,0.016l-0.144-1.105c-0.006-0.048-0.014-0.093-0.025-0.133v-1.245l0.078,0.022l0.04,0.304
				l0.685,0.197l-0.414,0.471l-0.281,0.074l0.227,1.44c0.363,0.064,0.618,0.189,0.69,0.358l0,0v0.001
				c0.01,0.021,0.015,0.043,0.018,0.067l0.05,0.381l-0.547,0.539l0.931,5.925c0.316,0.067,0.533,0.183,0.599,0.335l0,0l0,0
				c0.01,0.022,0.016,0.044,0.02,0.067l0.05,0.381l-0.468,0.49l0.813,5.172c0.363,0.062,0.609,0.175,0.683,0.328l0,0l0,0
				c0.01,0.021,0.017,0.044,0.02,0.067l0.05,0.381l-0.549,0.522l0.546,3.475l2.389-0.312l-2.367-18.134l0.008-0.003l-0.354-2.722
				c-0.05-0.018-0.082-0.045-0.086-0.078c-0.005-0.043,0.036-0.087,0.106-0.122c-0.072-0.029-0.094-0.09-0.112-0.17
				c-0.093-0.408-0.314-0.146-0.335-0.301c-0.006-0.046,0.088-0.101,0.237-0.145c-0.002-0.008-0.003-0.016-0.004-0.025
				c-0.022-0.166,0.08-0.32,0.233-0.369c-0.003-0.029,0.003-0.056,0.018-0.073c-0.021-0.01-0.037-0.03-0.039-0.054
				c-0.003-0.02,0.003-0.04,0.016-0.054c-0.042-0.005-0.074-0.027-0.078-0.056c-0.004-0.029,0.02-0.056,0.057-0.072
				c-0.013-0.01-0.022-0.026-0.024-0.044c-0.003-0.022,0.005-0.042,0.018-0.056c-0.034-0.005-0.059-0.023-0.062-0.046
				c-0.003-0.027,0.021-0.052,0.059-0.065c-0.017-0.008-0.03-0.024-0.033-0.045c-0.002-0.017,0.003-0.035,0.015-0.046
				c-0.014-0.009-0.023-0.024-0.026-0.041c-0.005-0.031-0.016-0.316,0.016-0.32c0.032-0.005,0.094,0.273,0.099,0.305
				c0.003,0.017-0.003,0.035-0.015,0.046c0.014,0.009,0.024,0.023,0.027,0.041c0.003,0.02-0.006,0.04-0.02,0.052
				c0.04,0.003,0.07,0.022,0.073,0.048c0.003,0.023-0.017,0.047-0.048,0.061c0.017,0.01,0.03,0.029,0.033,0.05
				c0.002,0.018-0.003,0.035-0.012,0.049c0.04,0.006,0.07,0.027,0.073,0.055c0.004,0.029-0.022,0.058-0.062,0.074
				c0.016,0.01,0.028,0.027,0.03,0.048c0.003,0.024-0.007,0.048-0.025,0.062c0.018,0.014,0.032,0.037,0.035,0.067
				c0.162,0.008,0.299,0.131,0.321,0.297c0.001,0.008,0.002,0.016,0.002,0.025c0.156,0.005,0.261,0.033,0.267,0.08
				c0.019,0.144-0.248-0.035-0.234,0.379c0.003,0.082-0.001,0.147-0.067,0.193c0.07,0.016,0.118,0.048,0.123,0.089
				c0.005,0.033-0.02,0.067-0.063,0.097l0.34,2.605l0.799-0.273l-0.645-4.944c-0.05-0.018-0.082-0.045-0.086-0.078
				c-0.005-0.042,0.036-0.088,0.105-0.122c-0.072-0.029-0.094-0.09-0.112-0.17c-0.093-0.409-0.314-0.146-0.335-0.301
				c-0.006-0.046,0.088-0.101,0.237-0.145c-0.002-0.007-0.003-0.016-0.004-0.024c-0.021-0.166,0.08-0.32,0.234-0.369
				c-0.003-0.029,0.003-0.056,0.017-0.073c-0.021-0.009-0.036-0.029-0.039-0.054c-0.003-0.02,0.003-0.039,0.016-0.054
				c-0.043-0.005-0.075-0.027-0.079-0.056c-0.003-0.029,0.02-0.056,0.057-0.072c-0.013-0.011-0.022-0.027-0.024-0.044
				c-0.003-0.021,0.004-0.042,0.018-0.056c-0.033-0.005-0.059-0.022-0.062-0.046c-0.003-0.027,0.022-0.053,0.059-0.065
				c-0.017-0.008-0.031-0.024-0.033-0.045c-0.002-0.017,0.003-0.034,0.014-0.046c-0.014-0.009-0.024-0.024-0.026-0.041
				c-0.004-0.031-0.016-0.316,0.016-0.321c0.031-0.003,0.094,0.274,0.098,0.306c0.002,0.017-0.003,0.034-0.015,0.046
				c0.014,0.009,0.024,0.024,0.026,0.041c0.003,0.02-0.005,0.04-0.02,0.052c0.04,0.003,0.071,0.022,0.073,0.048
				c0.003,0.024-0.017,0.047-0.048,0.061c0.017,0.01,0.03,0.029,0.033,0.05c0.003,0.018-0.002,0.035-0.012,0.049
				c0.04,0.006,0.07,0.027,0.073,0.056c0.003,0.029-0.022,0.058-0.062,0.074c0.016,0.01,0.027,0.027,0.031,0.048
				c0.003,0.024-0.007,0.047-0.025,0.062c0.018,0.013,0.031,0.037,0.035,0.066c0.161,0.008,0.299,0.131,0.321,0.297
				c0.001,0.008,0.001,0.017,0.002,0.025c0.156,0.005,0.26,0.033,0.267,0.08c0.019,0.144-0.247-0.036-0.233,0.379
				c0.003,0.082-0.002,0.147-0.067,0.192c0.07,0.016,0.118,0.048,0.123,0.089c0.004,0.033-0.02,0.067-0.063,0.097l0.309,2.37
				l1.147-0.15L201.007,47.52z M194.698,47.813v1.245c-0.029-0.116-0.073-0.195-0.111-0.19l0,0c-0.02,0.003-0.036,0.029-0.046,0.072
				v-1.419c0.042,0.085,0.073,0.176,0.092,0.272L194.698,47.813L194.698,47.813z M194.698,50.281v58.954l-0.157,0.02V50.274
				l0.012,0.001l-0.012-0.095v-0.943l0.136,1.043L194.698,50.281z M194.541,47.522v1.419c-0.015,0.064-0.017,0.165-0.003,0.275
				l0.003,0.02v0.943l-0.138-1.051c-0.018-0.144-0.127-0.255-0.261-0.285v-1.779C194.311,47.178,194.449,47.335,194.541,47.522
				L194.541,47.522z M194.541,50.274v58.982l-0.399,0.052V69.304l0.392-0.051l-0.365-3.498l-0.028-0.015V50.281
				C194.28,50.273,194.413,50.27,194.541,50.274z M194.142,47.065v1.779c-0.037-0.008-0.077-0.011-0.117-0.005l0,0
				c-0.184,0.024-0.315,0.195-0.291,0.378l0.142,1.089c0.09-0.011,0.179-0.018,0.266-0.024v15.458l-0.637-0.349l-0.05-0.381
				c-0.024-0.183,0.202-0.381,0.579-0.553l-0.542-5.217l-0.19-0.116v-1.125l0.057-0.03l-0.057-0.552v-7.012
				c0.129-0.03,0.266-0.056,0.407-0.077l-0.142-1.088c-0.019-0.145-0.129-0.257-0.265-0.286v-2.301l0.012-0.003
				c-0.004,0.001-0.008,0.001-0.012,0v-0.088h0.001h-0.001v-0.229c0.065,0.003,0.117,0.042,0.124,0.097
				c0.009,0.063-0.048,0.122-0.124,0.133c0.024-0.003,0.047,0.014,0.05,0.039c0.003,0.024-0.014,0.047-0.039,0.05
				c0.064-0.008,0.121,0.036,0.13,0.099l0.001,0.009c0.163,0.003,0.3,0.062,0.356,0.152
				C193.923,46.941,194.039,46.995,194.142,47.065L194.142,47.065z M194.142,69.304v40.003l-0.841,0.11V69.414L194.142,69.304
				L194.142,69.304z M193.302,46.314v-0.055c0.005,0.006,0.008,0.014,0.01,0.022C193.313,46.294,193.309,46.305,193.302,46.314
				L193.302,46.314z M193.302,46.229v-0.201c0.031,0.017,0.054,0.048,0.059,0.086C193.366,46.163,193.342,46.208,193.302,46.229z
				 M193.302,46.029v0.201c-0.013,0.007-0.027,0.012-0.041,0.014c0.016-0.001,0.031,0.005,0.041,0.016v0.055
				c-0.007,0.009-0.018,0.016-0.03,0.017c0.01-0.001,0.02-0.001,0.03-0.001v0.229c-0.076,0.01-0.146-0.033-0.154-0.096
				c-0.009-0.063,0.048-0.122,0.124-0.132c-0.024,0.003-0.047-0.014-0.05-0.038c-0.003-0.024,0.014-0.047,0.039-0.05
				c-0.063,0.009-0.122-0.035-0.129-0.098c-0.009-0.063,0.037-0.121,0.1-0.129c-0.024,0.003-0.046-0.014-0.05-0.039
				c-0.003-0.024,0.015-0.047,0.039-0.05c-0.17,0.022-0.052-0.4-0.052-0.4s0.222,0.378,0.052,0.4
				c0.024-0.003,0.047,0.014,0.05,0.039c0.003,0.024-0.014,0.047-0.039,0.05C193.256,46.013,193.281,46.018,193.302,46.029
				L193.302,46.029z M193.302,46.56c-0.024,0.003-0.041,0.026-0.039,0.05c0.003,0.02,0.018,0.035,0.039,0.038V46.56L193.302,46.56z
				 M193.302,46.65v2.301c-0.037-0.007-0.074-0.01-0.113-0.005h-0.001c-0.132,0.017-0.237,0.11-0.277,0.229v-2.16
				c0.035-0.099,0.15-0.186,0.303-0.231l-0.001-0.008C193.206,46.718,193.245,46.664,193.302,46.65L193.302,46.65z M193.302,50.404
				v7.012l-0.39-3.749v-3.153l0.017-0.005l-0.017-0.13v-0.944l0.135,1.037C193.128,50.447,193.213,50.425,193.302,50.404
				L193.302,50.404z M193.302,57.998v1.125l-0.388-0.237l-0.002-0.018v-0.548C192.979,58.209,193.116,58.1,193.302,57.998
				L193.302,57.998z M193.302,69.414v40.004l-0.39,0.051V69.465L193.302,69.414z M192.911,47.016v2.16
				c-0.015,0.047-0.021,0.098-0.014,0.149l0.014,0.108v0.944l-0.122-0.934c-0.007-0.052-0.016-0.1-0.029-0.144v-2.174
				c0.046-0.038,0.096-0.073,0.148-0.103L192.911,47.016L192.911,47.016z M192.911,50.514v3.153l-0.15-1.443v-1.655
				C192.809,50.549,192.86,50.532,192.911,50.514L192.911,50.514z M192.911,58.319v0.548l-0.047-0.363
				C192.856,58.444,192.873,58.382,192.911,58.319L192.911,58.319z M192.911,69.465v40.004l-0.15,0.02V69.484L192.911,69.465z
				 M192.761,47.127V49.3c-0.029-0.11-0.071-0.184-0.109-0.179l0,0c-0.05,0.006-0.073,0.163-0.048,0.346l0.144,1.105l0.013-0.005
				v1.655l-0.024-0.23l-0.667-0.382l-0.05-0.38c-0.027-0.203,0.199-0.418,0.575-0.593l-0.151-1.45l-0.29,0.001l-0.521-0.349
				l0.611-0.365l-0.039-0.303l0.127-0.077C192.311,47.714,192.479,47.356,192.761,47.127L192.761,47.127z M192.761,69.484
				L181.1,71.006l-1.431-9.109l0.892-0.85l-0.08-0.618c-0.005-0.037-0.016-0.073-0.033-0.107v-0.001l0,0
				c-0.119-0.248-0.519-0.433-1.109-0.533l-1.32-8.405l0.76-0.796l-0.081-0.619c-0.005-0.037-0.015-0.073-0.031-0.108V49.86l0,0
				c-0.108-0.246-0.458-0.435-0.973-0.543l-1.512-9.627l0.888-0.876l-0.082-0.619c-0.005-0.037-0.014-0.073-0.029-0.108l0,0h-0.001
				c-0.116-0.275-0.531-0.479-1.122-0.583l-0.368-2.34l0.456-0.119l0.673-0.767l-1.112-0.318l-0.065-0.495l-0.127-0.037v2.023
				c0.017,0.066,0.031,0.139,0.041,0.217l0.234,1.796c-0.089-0.011-0.181-0.019-0.275-0.025v33.379l0.097,0.93l-0.097,0.013v6.123
				l4.349,33.313l13.118-1.712L192.761,69.484L192.761,69.484z M175.295,33.431v2.023c-0.048-0.188-0.119-0.315-0.18-0.307l0,0
				c-0.033,0.005-0.059,0.049-0.076,0.12v-2.309c0.067,0.139,0.118,0.287,0.151,0.443L175.295,33.431L175.295,33.431z
				 M175.295,37.442v33.379l-0.256-2.458V37.43h0.02l-0.02-0.152v-1.539l0.221,1.7L175.295,37.442L175.295,37.442z M175.295,71.764
				v6.123l-0.256-1.96v-4.13L175.295,71.764z M175.04,32.957v2.309c-0.024,0.104-0.027,0.266-0.004,0.444l0.004,0.03v1.539
				l-0.223-1.709c-0.031-0.234-0.206-0.414-0.424-0.464v-2.891C174.666,32.399,174.892,32.654,175.04,32.957L175.04,32.957z
				 M175.04,37.43v30.933l-0.602-5.781l-0.046-0.025V37.442C174.616,37.428,174.833,37.425,175.04,37.43L175.04,37.43z
				 M175.04,71.797v4.13l-0.53-4.061L175.04,71.797z M174.392,32.215v2.891c-0.061-0.014-0.124-0.017-0.19-0.009l0,0
				c-0.299,0.039-0.512,0.316-0.473,0.614l0.231,1.769c0.146-0.016,0.291-0.029,0.432-0.038v25.115l-1.035-0.567l-0.08-0.618
				c-0.039-0.297,0.329-0.618,0.941-0.899l-0.882-8.475l-0.309-0.189v-1.829c0.031-0.016,0.062-0.033,0.094-0.049l-0.094-0.902
				V37.641c0.211-0.049,0.432-0.091,0.661-0.125l-0.231-1.769c-0.031-0.236-0.209-0.418-0.43-0.465v-3.74l0.02-0.003
				c-0.007,0.001-0.014,0.001-0.02,0v-0.143h0.001h-0.001v-0.373c0.105,0.004,0.191,0.069,0.203,0.158
				c0.014,0.103-0.077,0.199-0.201,0.215c0.04-0.005,0.076,0.022,0.082,0.062c0.005,0.039-0.023,0.076-0.063,0.081
				c0.103-0.014,0.198,0.058,0.211,0.16l0.001,0.014c0.265,0.006,0.487,0.101,0.58,0.247
				C174.036,32.015,174.223,32.101,174.392,32.215L174.392,32.215z M173.026,30.997v-0.09c0.008,0.01,0.014,0.022,0.016,0.036
				C173.044,30.963,173.038,30.983,173.026,30.997L173.026,30.997z M173.026,30.859v-0.327c0.051,0.027,0.088,0.078,0.097,0.139
				C173.133,30.75,173.093,30.824,173.026,30.859z M173.026,30.533v0.327c-0.02,0.012-0.042,0.018-0.067,0.022
				c0.026-0.003,0.051,0.007,0.067,0.026v0.09c-0.012,0.014-0.028,0.024-0.048,0.027c0.016-0.002,0.032-0.003,0.048-0.002v0.373
				c-0.039,0.006-0.067,0.042-0.062,0.082c0.004,0.033,0.03,0.057,0.062,0.062v-0.143c-0.124,0.016-0.236-0.054-0.249-0.156
				c-0.014-0.103,0.077-0.199,0.201-0.216c-0.039,0.005-0.076-0.022-0.082-0.062c-0.005-0.04,0.023-0.076,0.063-0.082
				c-0.103,0.014-0.197-0.058-0.21-0.16c-0.014-0.102,0.059-0.195,0.163-0.21c-0.04,0.005-0.077-0.022-0.082-0.062
				c-0.005-0.039,0.023-0.076,0.063-0.081c-0.275,0.035-0.085-0.651-0.085-0.651s0.36,0.614,0.085,0.651
				c0.04-0.005,0.077,0.022,0.082,0.062c0.005,0.039-0.024,0.076-0.063,0.081C172.953,30.507,172.993,30.514,173.026,30.533
				L173.026,30.533z M173.026,31.542v3.74c-0.059-0.013-0.121-0.016-0.184-0.007h-0.001c-0.215,0.029-0.385,0.179-0.45,0.373v-3.509
				c0.056-0.161,0.244-0.305,0.493-0.378l-0.002-0.014C172.871,31.652,172.934,31.564,173.026,31.542L173.026,31.542z
				 M173.026,37.641v11.387l-0.634-6.089v-5.12l0.027-0.01l-0.027-0.212v-1.533l0.22,1.685
				C172.745,37.71,172.883,37.674,173.026,37.641L173.026,37.641z M173.026,49.979v1.829l-0.629-0.385l-0.004-0.033v-0.888
				C172.503,50.323,172.725,50.143,173.026,49.979z M172.393,32.139v3.509c-0.025,0.076-0.034,0.158-0.023,0.241l0.023,0.175v1.534
				l-0.198-1.518c-0.011-0.084-0.027-0.163-0.046-0.233v-3.532c0.076-0.062,0.156-0.118,0.241-0.167L172.393,32.139L172.393,32.139z
				 M172.393,37.819v5.12l-0.244-2.343v-2.688C172.227,37.878,172.308,37.848,172.393,37.819L172.393,37.819z M172.393,50.502v0.888
				l-0.077-0.586C172.303,50.704,172.33,50.603,172.393,50.502z M172.149,32.316v3.532c-0.048-0.179-0.117-0.298-0.176-0.29l0,0
				c-0.083,0.011-0.118,0.264-0.08,0.563l0.234,1.796l0.022-0.008v2.688l-0.039-0.372l-1.084-0.619l-0.081-0.619
				c-0.043-0.331,0.322-0.68,0.936-0.964l-0.245-2.356l-0.472,0.001l-0.848-0.567l0.993-0.594l-0.065-0.493l0.207-0.125
				C171.417,33.269,171.691,32.689,172.149,32.316z"/>
			<path style="fill:#238C87;" d="M168.35,373.502c-18.098-18.003-36.198-36.008-54.296-54.012l-1.175,2.986l1.592,1.584
				l-1.175,2.986l1.564,1.556l-1.175,2.985l1.399,1.392l0.029,1.491l-0.761,1.935l0.815,0.81l0.054,2.808l-0.396,1.006l0.424,0.422
				l0.071,3.658l-0.16,0.408l0.171,0.171l0.08,4.132l-0.029,0.073l0.031,0.031l0.076,3.913l0.81,1.635l-3.972,3.992l3.058,6.461
				l9.803,6.333l3.679-3.699l4.5,3.381l2.979-1.191l1.592,1.584l2.979-1.191l1.399,1.392l2.979-1.191l1.509,1.501l2.979-1.19
				l1.648,1.639l2.979-1.191l1.842,1.832l2.979-1.19l1.565,1.556l2.979-1.19l1.592,1.584L168.35,373.502z"/>
			<path style="fill:#6DD1C9;" d="M61.517,173.939l-0.99-0.665c0,0-0.349,0.523-0.638,0.429c-0.29-0.095-0.921,0.645-0.921,0.645
				s-0.314-0.378-0.607-0.207c-0.294,0.171-0.407,0.297-0.407,0.297l-2.164-3.091l0.236-0.398l-1.066-2.285
				c0,0-0.678,0.366-1.38,0.641c-0.702,0.275-1.451-0.016-1.926,0.202c-0.475,0.218,0.055-0.352,0.586-0.729
				c0.531-0.377,0.835-0.888,0.138-0.88c-0.697,0.01-1.288-0.227-0.383-0.65c0.905-0.424,2.065-0.889,2.065-0.889
				s-0.624,0.014-0.919-0.006c-0.295-0.022-0.675-1.131-1.15-1.106c-0.477,0.025-0.717-0.348-0.282-0.627
				c0.435-0.28,1.22-0.046,1.22-0.046s-0.914-0.273-1.399-0.752c-0.484-0.48-0.742-1.018-0.415-1.438
				c0.327-0.422,0.674-0.099,1.179-0.108c0.505-0.008,0.941,0.098,1.091,0.494c0.15,0.397,0.394,0.503,0.394,0.503
				s0.269-0.455,0.712-0.422c0.442,0.031,0.827,0.03,0.827,0.03s-0.096-1.134,0.092-1.06c0.187,0.073,0.396-1.379,0.332-1.725
				c-0.065-0.346,0.316-0.273,0.516,0.23c0.201,0.503,0.777,1.153,0.777,1.153s0.272-1.107,0.405-0.682
				c0.133,0.425,0.5,1.489,0.423,1.943c-0.078,0.454-0.133,0.806,0.212,0.55c0.344-0.256,0.571-0.315,0.571-0.315l3.656-4.866
				c0,0,0.162-0.596-0.195-0.577c-0.357,0.019-2.075-0.001-2.347-0.125c-0.273-0.123,0.541-0.523,0.966-0.656
				s0.967-0.464,0.48-0.485c-0.488-0.02-1.305-0.197-1.724-0.139c-0.419,0.059-0.669-0.167-0.035-0.329
				c0.634-0.162,1.244-0.607,1.849-0.786c0.606-0.179,0.782-0.151,0.782-0.151s-0.978-0.62-1.326-1.134
				c-0.348-0.514-0.807-1.747-0.186-2.148c0.622-0.399,1.15-0.124,1.181,0.278c0.03,0.403,0.952,1.18,0.952,1.18
				s0.275-0.529,0.148-1.027c-0.127-0.498,0.143-0.953,0.468-0.529c0.326,0.424,0.765,1.107,0.765,1.107s0.342-0.835,0.187-1.158
				c-0.154-0.322,0.543-0.331,0.573,0.071c0.031,0.402,0.366,0.486,0.629,0.95c0.263,0.464,0.631,0.297,0.857,0.239
				c0.227-0.058,0.412-0.37,0.412-0.37l5.376-6.92l-1.513-0.82c0,0-0.465,0.071-0.633,0.354c-0.169,0.284-0.322,0.348-0.322,0.348
				s-0.131-0.232-0.318-0.112c-0.187,0.12-0.39,0.269-0.39,0.269l-0.073-1.043c0,0-0.211-0.164-0.42,0.059s-0.305,0.319-0.305,0.319
				l-0.35-2.13l0.293-0.364l-0.276-1.932l-0.329,0.035l-0.441-2.107l0.613-1.097c0,0-0.439-1.721-0.507-4.068
				c-0.069-2.347,0.416-4.136,0.416-4.136s-0.499-0.065-0.62-0.444c-0.121-0.38-0.055-0.686-0.055-0.686s-1.85-0.445-1.594-1.33
				c0.256-0.886,0.953-1.088,1.373-0.954c0.42,0.135,0.546,0.439,0.546,0.439s0.726,0.008,0.659,0.314
				c-0.066,0.307-0.19,0.58-0.19,0.58s0.413-0.178,0.634-0.161c0.221,0.016,0.565-0.434,0.665-0.99
				c0.099-0.556,0.27-0.455,0.386-1.039c0.116-0.584,0.358-1.056,0.422-0.711c0.064,0.346,0.116,0.453,0.116,0.453
				s0.484-0.751,0.93-1.178c0.446-0.428,1.084-0.856,1.084-0.856s-0.256-0.345-0.709-0.229c-0.453,0.116-0.439-0.491,0.117-0.392
				c0.556,0.099,1.177-0.3,0.589-0.15c-0.589,0.15-0.382-0.457,0.219-0.37c0.601,0.088,1.123,0.052,1.123,0.052l0.689-0.513
				c0,0-0.246-0.492-0.705-0.496s-1.504-0.123-0.926-0.319c0.577-0.195-0.182-1.377,0.369-1.011c0.552,0.365,0.828,0.03,1.283,0.3
				c0.454,0.269,1.115-0.454,1.513-0.217c0.398,0.237,1.038,0.194,1.038,0.194s0.16-0.982,0.562-1.012
				c0.403-0.03,1.345,0.26,1.345,0.26s1.173-0.227,2.079-0.458c0.906-0.231,1.813-0.269,1.813-0.269l0.497,1.948l4.575,2.33
				l1.048-0.146l1.363,0.617l4.659-6.231c0,0-0.348-0.321-0.726-0.2c-0.379,0.121-0.62-0.445-1.033-0.267
				c-0.413,0.178-0.483-0.286-0.992-0.205c-0.51,0.081-1.111,0.186-0.478-0.168c0.633-0.354,2.097-1.139,2.097-1.139
				s-0.392-0.117-0.761-0.336c-0.369-0.22-0.941-0.098-1.063-0.67c-0.122-0.571,0.158-1.367,0.554-1.516
				c0.396-0.15,0.307,0.259,0.463,0.582c0.155,0.323,0.37,0.22,0.625,0.372c0.256,0.152,0.717,0.54,0.717,0.54
				s0.205-0.993,0.14-1.531c-0.065-0.539,0.274-0.722,0.418-0.252c0.144,0.47,0.33,0.35,0.582,0.768
				c0.252,0.418,0.415,0.207,1.045,0.505c0.631,0.297,0.811,0.252,0.811,0.252l1.882-2.458c0,0-0.178-0.413-1.034-0.46
				c-0.856-0.046-2.213-0.352-1.59-0.559c0.622-0.207,1.744-0.348,1.744-0.348s-0.66-0.507-0.481-0.939
				c0.18-0.432,0.292-0.557,0.292-0.557s-0.982-0.16-1.279-0.76c-0.297-0.599-0.016-1.009,0.369-1.203
				c0.384-0.195,0.07,0.465,0.586,0.502c0.516,0.037,0.888,0.835,0.888,0.835s0.412-0.37,0.816-0.208
				c0.403,0.163,0.763,0.529,0.763,0.529l0.563-0.626l0.734,0.319l0.11,0.527l1.425,0.577l1.42-1.81l0.169,0.946l0.38,0.326
				l-0.42,0.65l0.455,0.27l-0.082,0.72l0.626,0.371l0.821-0.089l0.002,0.386l0.626,0.371l0.475-0.218c0,0,0.371,0.412,0.671,0.36
				c0.301-0.052,0.578-0.003,0.512,0.303c-0.067,0.306,0.291,0.48,0.291,0.48l12.592,6.051l0.494-0.054l0.676,0.286L158.5,138.86
				l-2.072,3.698l-43.41-25.085l-2.083,3.185l43.595,25.286l-1.807,3.225l-45.626-26.174c-5.948-3.413-9.568,2.73-3.851,6.057
				l45.809,26.664l-3.249,5.799L97.854,133.68c-2.087-1.212-5.092-0.658-6.323,1.417v0.001c-1.232,2.075-0.554,4.804,1.534,6.014
				l48.445,28.07l-7.221,12.887l-46.622-27.728c-7.367-4.382-13.334,3.923-5.894,8.373l47.458,28.382l-2.928,5.227l-46.115-27.892
				l-4.38,6.361l46.752,28.21l-3.995,7.129l-38.036-22.756l34.435,19.589l-50.176-30.699c0,0-0.694,0.587-1.123-0.051
				c-0.429-0.639-0.727-0.201-0.785-0.62c-0.059-0.42-0.112-0.72-0.112-0.72l-0.654-0.388l-0.214,0.295L61.517,173.939z"/>
			<path style="fill:#C4DF78;" d="M148.53,305.712l-11.145-19.891l-89.91,49.746l-0.417-0.745l-0.429,0.241v17.652
				c1.768-0.114,3.455,0.621,4.224,1.995c1.045,1.865,0.001,4.202-2.332,5.219c-0.616,0.269-1.259,0.418-1.892,0.459v2.766
				l12.408-6.952l-0.417-0.744L148.53,305.712L148.53,305.712z M46.629,356.804v-0.49l0.778-0.506l0.25,0.447l-0.678,0.314
				l0.831,0.492l-0.295,0.418L46.629,356.804z M46.629,335.063l-6.72,3.766v3.064c1.584-0.66,3.072-0.491,3.651,0.542
				c0.742,1.324-0.29,3.568-2.307,5.01c-0.444,0.318-0.898,0.57-1.344,0.756v16.229l3.465-1.941l1.726,1.521l1.529-0.856v-2.766
				c-1.768,0.114-3.455-0.622-4.224-1.995c-1.045-1.865-0.001-4.202,2.332-5.219c0.616-0.269,1.259-0.418,1.892-0.458
				L46.629,335.063L46.629,335.063z M46.629,356.314v0.49l-0.039-0.03l-2.324,1.101l2.001-1.33l-2.434-1.88l2.766,1.669
				L46.629,356.314L46.629,356.314z M39.909,345.277v-0.492l0.665-0.652l0.225,0.345l-0.604,0.474l0.744,0.229l-0.261,0.467
				L39.909,345.277z M39.909,338.829l-6.788,3.803l0.085,2.441l-4.081,2.286c-1.832,4.227-2.06,3.821-4.5,8.033l-4.61,2.583
				c-1.003-2.562-2.069,1.824-3.316,4.271c-1.235,2.424-5.211,6.359-8.337,8.061l-0.088,0.048c-0.529,0.296-0.922,0.673-1.056,0.98
				c-0.237-0.097-0.578-0.065-0.892,0.112c-0.455,0.254-0.683,0.712-0.51,1.02c0.173,0.309,0.682,0.353,1.136,0.098
				c0.314-0.176,0.52-0.448,0.56-0.702c0.332,0.045,0.858-0.093,1.388-0.388c0.038-0.022,0.076-0.044,0.112-0.066
				c3.017-1.749,5.576-2.241,10.758-2.752c5.246-0.518,7.061,0.715,5.4-1.478l4.61-2.583c4.866,0.118,4.639-0.288,9.201,0.356
				l0.927-0.52v-16.229c-1.584,0.661-3.073,0.492-3.651-0.542c-0.742-1.324,0.29-3.568,2.307-5.01
				c0.443-0.318,0.897-0.569,1.344-0.756L39.909,338.829L39.909,338.829z M39.909,344.786v0.492l-0.061-0.029l-2.069,1.647
				l1.779-1.771l-2.181-1.077l2.477,0.792L39.909,344.786z"/>
			<path style="fill:#ED5C1B;" d="M207.029,388.753l-10.243,18.434l0.292,1.346l-0.884-0.282l-4.326,7.786l0.458,0.764l-0.797-0.154
				l-0.917,1.65l1.502,1.228l-0.013,2.109l-2.994-0.628l-1.413,2.544l0,0l0.772,1.453l-1.441-0.249l-0.482,0.868l-7.756-1.394
				V396.01l0.16-0.034l6.085-13.476l-4.387-1.903l-1.858,4.313V376L207.029,388.753z M178.788,424.225l-30.552-5.491l0.195-16.903
				l1.229-2.028l1.224,0.239l3.488-10.031l-0.334-1.462l0.92-0.222l6.938-19.953l16.893,7.629v8.911l-6.245,14.498l0.422,0.974
				l-0.186,0.409c1.573-0.084,3.983-1.042,5.559-3.629l-0.586-0.668l0.317-0.335l0.72-0.15L178.788,424.225L178.788,424.225z"/>
			<path style="fill:#E9CF20;" d="M98.456,216.701l-2.514,18.603l-5.176-1.084l0.187-1.384l-19.908-4.54l-0.13-1.556l-1.881-0.254
				l-0.471-3.077c-1.893-0.503-7.125-1.88-9.715-2.405c-3.198-0.648-12.581-2.131-12.581-2.131s-0.833,0.587-2.096,0.363
				c-1.261-0.224-4.322-0.692-4.322-0.692s-0.124,0.522-0.811,0.429c-0.688-0.092-1.011-0.083-1.011-0.083s-0.061,0.854-0.855,0.746
				c-0.794-0.107-4.389-0.593-6.091-1.146c-1.703-0.554-2.213-0.354-2.213-0.354s-2.617,4.223-2.824,5.757
				c-0.207,1.534-0.205,4.71-1.188,5.601c-0.982,0.89-4.948,2.347-5.203,2.635c-0.254,0.29-0.434,2.419-0.697,3.567
				c-0.263,1.149-1.159,3.413-1.345,3.816c-0.186,0.403-0.348,0.382-0.348,0.382s-0.089,0.416-0.318,0.65
				c-0.229,0.232-0.277,0.094-0.277,0.094s-0.395,0.475-0.655,0.209c-0.261-0.267-0.161-0.517-0.161-0.517s-0.102,0.02-0.11-0.41
				c-0.007-0.43,0.177-1.065,0.225-1.422c0.048-0.356,0.086-0.879,0.086-0.879s-0.565,0.518-0.765,0.292
				c-0.2-0.225,0.026-0.92,0.156-1.397c0.131-0.478,0.11-1.305,0.251-1.615c0.141-0.312,0.519-1.151,0.817-1.407
				c0.299-0.256,0.677-0.371,0.753-0.69c0.076-0.32,0.102-0.514,0.102-0.514s-0.378,0.114-0.211-0.391
				c0.167-0.505,0.59-1.438,0.726-2.441c0.135-1.005,0.218-2.84,0.398-4.168c0.18-1.328,0.286-2.6,0.286-2.6
				s-0.148-1.108-0.33-1.463c-0.183-0.354-0.082-1.594,0.054-2.598c0.136-1.004-0.03-2.709,0.002-3.43
				c0.032-0.721,0.118-0.875,0.118-0.875s0.097-0.713,0-1.221c-0.097-0.507,0.124-0.676,0.124-0.676s-0.15-0.845-0.184-1.08
				c-0.033-0.235,0.187-0.403,0.187-0.403s-1.974-0.531-3.9-0.922c-1.926-0.392-5.461-0.837-5.044-3.772
				c0.195-1.442,1.14-2.224,2.541-2.244c1.402-0.02,4.521,0.192,5.344,0.303c0.824,0.112,2.07,0.21,2.07,0.21
				s1.064-3.213,2.173-5.722c1.108-2.508,1.774-3.817,1.877-4.572c0.101-0.755-0.338-0.605-0.078-2.528
				c0.26-1.922,0.801-2.829,0.681-4.523c-0.12-1.695-0.733-2.337-0.39-2.291c0.344,0.046,0.312-0.238,0.161-0.678
				c-0.15-0.439-0.873-1.307-0.76-2.13c0.111-0.824-0.111-1.769-0.054-2.497c0.058-0.729,0.171-0.959,0.419-0.68
				c0.249,0.279,0.329,0.29,0.329,0.29s-0.014-1.72-0.005-2.086c0.008-0.367,0.347-0.444,0.347-0.444s-0.056-0.498,0.351-0.484
				c0.407,0.015,0.399,0.382,0.399,0.382s0.378-0.072,0.431,0.14c0.053,0.212,0.063,0.745,0.063,0.745s0.19,0.107,0.291,0.571
				c0.101,0.464,0.751,3.825,0.621,4.789c-0.13,0.964-0.397,2.033,0.001,2.414c0.399,0.38,1.339,0.385,2.313,1.049
				c0.973,0.664,2.22,1.732,2.192,2.546c-0.029,0.814-0.193,6.274,0.034,8.227c0.227,1.954,0.407,3.941,0.407,3.941
				s5.501,0.317,8.431,0.552c2.93,0.235,8.531,0.614,9.061,0.686c0.529,0.071,1.184,0.807,2.029,0.921
				c0.846,0.114,4.907,0.34,5.489,0.419c0.582,0.078,1.116,0.905,1.116,0.905s4.259,0.361,6.005,0.596
				c1.423,0.192,5.841,0.181,7.427,0.17l1.435-3.206l1.88,0.255l0.539-1.467l20.4,0.907l0.187-1.384l5.278,0.328L98.456,216.701z"/>
			<path style="fill:#ED5C1B;" d="M348.109,100.962V82.169l0.937,0.426l0.697-1.533l-1.633-0.742v-2.17l0.36,0.164
				c1.15,0.523,2.518,0.01,3.041-1.141l1.311-2.885c0.523-1.15,0.01-2.519-1.141-3.041l-3.571-1.623v-3.701l5.51,2.505
				c2.763,1.255,4.096,4.321,2.964,6.812l-5.812,12.789l0.348,0.157c1.275,0.58,1.89,1.996,1.368,3.145L348.109,100.962z
				 M348.109,65.921v3.701l-0.36-0.163c-1.15-0.522-2.518-0.01-3.042,1.141l-1.31,2.885c-0.524,1.15-0.01,2.518,1.14,3.041
				l3.572,1.623v2.17l-5.542-2.52V63.403L348.109,65.921L348.109,65.921z M348.109,82.168l-5.542-2.52v2.169l3.571,1.623
				c1.15,0.523,1.664,1.891,1.141,3.041l-1.311,2.885c-0.522,1.15-1.891,1.663-3.041,1.141l-0.36-0.164v11.866l1.458,0.663
				l2.666,1.211l1.419-3.122L348.109,82.168L348.109,82.168z M342.566,63.403v14.397l-6.351-2.886v-2.169l1.436,0.652
				c1.15,0.522,2.518,0.009,3.041-1.14l1.311-2.885c0.522-1.15,0.01-2.518-1.141-3.041l-3.932-1.786
				c-0.233-0.105-0.474-0.169-0.716-0.194v-3.833L342.566,63.403L342.566,63.403z M342.566,79.65l-6.351-2.886v2.49
				c0.478,0.65,0.601,1.533,0.246,2.313l-0.246,0.54v12.458c0.66-0.001,1.33,0.137,1.97,0.427c2.392,1.087,3.449,3.909,2.363,6.301
				l2.019,0.918V90.345l-3.572-1.623c-1.15-0.522-1.663-1.89-1.141-3.041l1.311-2.885c0.523-1.15,1.89-1.663,3.041-1.141l0.36,0.164
				L342.566,79.65L342.566,79.65z M336.215,102.533v-6.419c0.445,0,0.897,0.093,1.328,0.288c1.613,0.733,2.327,2.636,1.594,4.249
				C338.6,101.833,337.435,102.533,336.215,102.533z M336.215,60.516v3.833c-0.952-0.096-1.908,0.417-2.325,1.334l-1.311,2.885
				c-0.522,1.15-0.01,2.518,1.141,3.041l2.496,1.135v2.169l-9.741-4.428v-2.169l0.361,0.164c1.15,0.522,2.517,0.01,3.041-1.141
				l1.311-2.885c0.522-1.15,0.01-2.518-1.141-3.041l-3.572-1.624v-3.702L336.215,60.516L336.215,60.516z M336.215,76.763
				l-9.741-4.428v22.561l5.41,2.458c0.797-1.753,2.524-2.79,4.332-2.791V82.106l-1.065,2.345c-0.522,1.15-1.89,1.663-3.042,1.14
				l-3.931-1.786c-1.15-0.523-1.663-1.891-1.141-3.041l1.311-2.885c0.523-1.15,1.89-1.663,3.041-1.141l3.932,1.788
				c0.368,0.167,0.67,0.421,0.894,0.726V76.763L336.215,76.763z M336.215,96.114v6.419c-0.444,0-0.896-0.093-1.327-0.288
				c-1.613-0.733-2.327-2.635-1.594-4.249C333.832,96.814,334.997,96.115,336.215,96.114z M326.474,56.089v3.702l-0.36-0.164
				c-1.149-0.522-2.517-0.01-3.041,1.141l-1.312,2.885c-0.522,1.15-0.01,2.517,1.141,3.041l3.571,1.624v2.169l-5.542-2.519V53.569
				L326.474,56.089L326.474,56.089z M326.474,72.336l-5.542-2.52v2.17l3.572,1.623c1.149,0.522,1.663,1.891,1.141,3.041
				l-1.311,2.885c-0.524,1.15-1.891,1.663-3.041,1.141l-0.361-0.164v11.865l0.438,0.199l3.745,1.702l1.36,0.618L326.474,72.336
				L326.474,72.336z M320.931,53.569v14.397l-5.274-2.397v-2.169l0.359,0.163c1.15,0.522,2.519,0.01,3.042-1.141l1.311-2.885
				c0.523-1.15,0.01-2.519-1.14-3.041l-3.572-1.623v-3.702L320.931,53.569L320.931,53.569z M320.931,69.817l-5.274-2.397v22.561
				l4.374,1.988l0.9,0.409V80.513l-3.571-1.624c-1.15-0.522-1.664-1.89-1.141-3.04l1.311-2.885c0.522-1.15,1.89-1.662,3.041-1.141
				l0.36,0.164V69.817z M315.656,51.173v3.702l-0.361-0.164c-1.149-0.522-2.517-0.01-3.041,1.141l-1.311,2.885
				c-0.522,1.15-0.01,2.517,1.141,3.04l3.572,1.624v2.169l-5.542-2.519V48.654L315.656,51.173L315.656,51.173z M315.656,67.42
				l-5.542-2.519v2.17l3.571,1.623c1.15,0.523,1.663,1.89,1.141,3.041l-1.311,2.885c-0.522,1.15-1.891,1.662-3.041,1.141
				l-0.36-0.164v11.865l5.542,2.519V67.42z M305.642,81.905c1.613,0.733,2.327,2.634,1.594,4.249
				c-0.537,1.182-1.703,1.881-2.922,1.882v-6.418C304.759,81.616,305.211,81.709,305.642,81.905L305.642,81.905z M310.114,48.654
				v14.397l-5.799-2.635v-2.17l0.885,0.402c1.15,0.522,2.518,0.009,3.041-1.141l1.311-2.885c0.523-1.15,0.01-2.518-1.141-3.041
				l-3.932-1.787c-0.054-0.025-0.109-0.047-0.164-0.067v-3.459c0.535,0.081,1.071,0.237,1.593,0.473L310.114,48.654L310.114,48.654z
				 M310.114,64.901l-5.799-2.636v17.801c0.659,0,1.329,0.137,1.969,0.428c2.393,1.087,3.451,3.908,2.363,6.3l1.468,0.667V75.597
				l-3.572-1.623c-1.15-0.523-1.663-1.891-1.141-3.041l1.311-2.885c0.524-1.15,1.892-1.663,3.041-1.141l0.361,0.164L310.114,64.901
				L310.114,64.901z M304.315,88.035c-0.444,0.001-0.897-0.093-1.328-0.288c-1.613-0.733-2.326-2.635-1.594-4.249
				c0.537-1.182,1.703-1.881,2.922-1.882L304.315,88.035L304.315,88.035z M304.315,46.268c-2.299-0.347-4.57,0.7-5.488,2.722
				l-12.559,27.634l2.898,1.317l6.697-14.735c0.541-1.19,2.064-1.674,3.385-1.074l3.313,1.506c1.32,0.599,1.957,2.065,1.416,3.256
				l-6.697,14.735l2.705,1.229c0.797-1.753,2.524-2.79,4.332-2.79V62.266l-6.652-3.023l0.697-1.533l5.955,2.707v-2.17l-3.047-1.385
				c-1.149-0.522-1.663-1.89-1.141-3.041l1.311-2.885c0.498-1.095,1.764-1.613,2.877-1.207L304.315,46.268L304.315,46.268z"/>
			<path style="fill:#6DD1C9;" d="M479.931,223.194c-0.47,4.534-3.547,7.929-6.872,7.584c-3.325-0.345-5.639-4.3-5.169-8.833
				c0.117-1.123,0.393-2.177,0.794-3.119c-2.092-1.441-3.353-4.56-2.993-8.016c0.469-4.534,3.547-7.93,6.871-7.584
				c1.424,0.148,2.663,0.958,3.577,2.194c0.586-0.179,1.198-0.244,1.817-0.18c3.325,0.345,5.639,4.3,5.169,8.833
				c-0.288,2.768-1.546,5.112-3.241,6.44C480.007,221.364,480.027,222.267,479.931,223.194L479.931,223.194z M457.388,216.876
				v-0.163l0.096,0.099L457.388,216.876L457.388,216.876z M457.388,212.978v-1.31c0.307-1.033,1.315-1.734,2.426-1.619
				c1.256,0.131,2.503,1.001,4.174,2.73c-1.99,1.351-3.389,1.946-4.645,1.816C458.396,214.498,457.645,213.836,457.388,212.978
				L457.388,212.978z M458.756,219.924c-0.129,1.255,0.782,2.379,2.037,2.509c1.256,0.131,2.655-0.465,4.646-1.815
				c-1.671-1.73-2.919-2.6-4.174-2.73C460.011,217.756,458.888,218.668,458.756,219.924z M457.388,211.669v1.31
				c-0.084-0.28-0.116-0.582-0.083-0.892C457.32,211.942,457.348,211.803,457.388,211.669L457.388,211.669z M457.388,216.712v0.163
				c-1.941,1.305-3.315,1.879-4.549,1.751c-1.256-0.13-2.169-1.254-2.038-2.509c0.13-1.255,1.254-2.167,2.509-2.037
				C454.541,214.209,455.765,215.047,457.388,216.712z"/>
			<path style="fill:#ED5C1B;" d="M53.017,65.524c0.501,12.081,1.626,12.321,8.562,1.729c-4.889,11.458-3.968,12.084,6.992,4.714
				c-9.411,8.918-8.785,9.839,4.715,6.992c-12.634,4.894-12.394,6.02,1.728,8.562c-14.123-0.18-14.362,0.945-1.728,8.562
				c-13.5-5.57-14.126-4.649-4.715,6.992c-10.96-10.092-11.881-9.466-6.992,4.714c-6.936-13.314-8.061-13.075-8.562,1.729
				c-0.116-0.922-0.229-1.786-0.34-2.595V96.874c5.541,0,10.033-4.492,10.033-10.033c0-5.541-4.492-10.033-10.033-10.033v-9.165
				C52.788,66.983,52.901,66.277,53.017,65.524L53.017,65.524z M52.677,93.607c3.738,0,6.767-3.03,6.767-6.767
				s-3.03-6.767-6.767-6.767V93.607z M52.677,106.922c-1.679-12.185-2.994-11.619-8.221,0.867c3.528-14.18,2.607-14.806-6.992-4.714
				c8.05-11.64,7.425-12.561-4.714-6.992c11.272-7.617,11.033-8.742-1.728-8.562c12.761-2.542,13.001-3.668,1.728-8.562
				c12.138,2.847,12.765,1.926,4.714-6.992c9.598,7.37,10.52,6.744,6.992-4.714c5.228,9.932,6.543,10.341,8.221,0.39v9.164
				c-5.541,0-10.033,4.492-10.033,10.033s4.492,10.033,10.033,10.033V106.922L52.677,106.922z M52.677,80.073
				c-3.738,0-6.767,3.03-6.767,6.767c0,3.738,3.03,6.767,6.767,6.767V80.073z"/>
			<path style="fill:#EC7787;" d="M417.146,244.994c10.184-2.705,25.922-6.398,26.289-4.151c0.393,2.405-8.963,9.687-16.786,21.496
				c-2.942-1.092-6.134-2.147-9.503-3.214v-4.957c2.85-1.124,5.707-2.339,8.441-3.568l-8.441-1.828L417.146,244.994L417.146,244.994
				z M417.146,260.138v2.487c8.337,5.057,13.586,11.626,12.704,15.696c-0.709,3.272-5.741,6.613-12.704,8.342v3.43
				c14.07,0.122,24.626-2.928,25.922-8.909C444.554,274.321,433.233,266.438,417.146,260.138L417.146,260.138z M417.146,291.43
				c0.913,0.071,1.831,0.133,2.751,0.183c2.111,14.542,7.948,25.549,6.559,27.63c-0.669,1.003-4.575-1.295-9.311-4.67V291.43z
				 M412.656,246.219c1.284-0.361,2.811-0.78,4.491-1.226v3.78l-4.72-1.022c-0.378,2.437-0.885,5.385-1.501,8.717
				c2.035-0.696,4.126-1.473,6.221-2.299v4.957c-2.056-0.651-4.178-1.307-6.348-1.979l-0.118,0.632
				c2.224,0.756,4.384,1.545,6.466,2.361v2.487c-2.071-1.256-4.33-2.419-6.735-3.427c-0.756,3.965-1.642,8.375-2.628,13.049v-14.591
				c2.579-10.544,4.643-17.549,5.241-17.42C413.351,240.308,413.194,242.503,412.656,246.219L412.656,246.219z M417.146,290.093
				c-2.982-0.026-6.121-0.193-9.363-0.506v-1.726c3.334-0.052,6.51-0.489,9.363-1.198V290.093L417.146,290.093z M407.783,290.379
				c2.891,0.402,6.089,0.792,9.363,1.051v23.143c-2.991-2.132-6.314-4.691-9.363-7.123v-5.874l6.461,1.4
				c-2.059-2.339-4.245-4.719-6.461-7.001V290.379z M407.783,289.586c-1.24-0.12-2.494-0.261-3.761-0.423l-0.152,0.643
				c1.217,0.184,2.53,0.379,3.913,0.571v5.595c-1.447-1.49-2.907-2.938-4.353-4.305c-0.743,3.11-1.453,5.972-2.109,8.508
				l6.462,1.399v5.874c-2.63-2.096-5.055-4.096-6.89-5.638c-1.703,6.44-2.981,10.375-3.43,10.277
				c-0.899-0.194,1.856-16.437,6.153-36.278c1.439-6.644,2.868-12.846,4.166-18.154v14.591c-0.296,1.401-0.6,2.824-0.913,4.268
				c-0.854,3.94-1.703,7.726-2.525,11.262c1.16,0.076,2.308,0.101,3.438,0.084L407.783,289.586L407.783,289.586z"/>
			<g>
				<path style="fill:#C4DF78;" d="M426.08,216.519c0.02,0.246,0.179,0.335,0.283,0.752c0.103,0.417-0.418,1.117-0.418,1.117
					s-0.448,0.745-0.947,1.28c-0.499,0.536-0.939,0.804-1.416,0.923c-0.477,0.118-1.587,1.25-2.406,1.265
					c-0.82,0.015-2.227-0.172-2.532-0.634c-0.305-0.462-1.31-1.066-2.145-0.352c-0.835,0.714-1.52,2.785-1.573,3.589
					c-0.052,0.805,0.156,0.88-0.246,1.043c-0.402,0.164,0.149,0.722-0.604,0.878c-0.752,0.156-0.343,0.655-0.96,0.968
					c-0.619,0.313-0.439,0.648-1.125,0.819c-0.686,0.171-0.671,1.243-1.356,1.667c-0.686,0.424-0.522,1.713-1.207,1.884
					c-0.685,0.171-0.497,1.275-0.991,1.522c-0.495,0.247-0.233,1.047-0.902,1.337c-0.669,0.29-0.205,2.398-0.205,2.398l-1.818,0.886
					l-2.06-8.258c0,0,0.16-0.349-0.159-1.381c-0.319-1.033-1.437-2.051-1.975-3.709c-0.537-1.657-1.407-5.888-2.264-7.343
					c-0.858-1.454-1.423-3.969-1.423-3.969l-0.783,0.349c0,0-0.744,1.453-1.675,1.685c-0.931,0.232-1.715,0.058-1.715,0.058
					l-1.771-3.636l-0.856-3.432c0,0-1.192-0.567-0.741-1.236c0.45-0.669,0.815-1.686,0.815-1.686l-0.48-0.931l1.033-1.803
					c0,0-0.495,0-0.45-0.567c0.044-0.567-0.611-0.218-0.567-0.786c0.044-0.567-0.959-0.379-0.596-0.902
					c0.364-0.524-0.683-0.509-0.246-0.988c0.437-0.48-0.492-5.932-0.492-5.932l-1.335-5.103c0,0,0.509-0.684,1.062-0.203
					c0.552,0.48,0.654,0.64,0.654,0.64s6.891,0.629,7.516,1.399c0.624,0.771,2.195-0.115,2.66,0.758
					c0.465,0.872,1.352,0.466,1.788,1.469c0.436,1.003,2.73,6.98,2.73,6.98s4.051,7.576,5.112,9.35
					c1.061,1.774,1.67,3.475,2.746,3.33c1.076-0.145,2.937-0.609,3.257-1.306c0.32-0.698,1.628-0.901,4.289-0.39
					c2.66,0.51,2.53-0.013,3.416,0.816c0.887,0.829,2.049,1.783,2.158,2.681C425.263,214.717,425.994,215.502,426.08,216.519z"/>
				<polygon style="fill:#C4DF78;" points="434.384,189.263 403.856,220.396 392.81,176.114 				"/>
				<polygon style="fill:#C4DF78;" points="422.332,176.267 398.827,200.238 390.323,166.143 				"/>
			</g>
			<circle style="fill:#683B1C;" cx="247.657" cy="239.483" r="155.901"/>
			<circle style="fill:#F7F3E1;" cx="247.657" cy="239.483" r="152.345"/>
			<path style="fill:#6DD1C9;" d="M31.418,293.71c0.441,0.98,0.748,2.083,0.877,3.265c0.225,2.052-0.122,3.988-0.877,5.526V293.71
				L31.418,293.71z M31.418,287.937v-1.54c1.211-1.122,2.208-1.708,3.213-1.818c1.255-0.137,2.383,0.769,2.521,2.023
				c0.137,1.256-0.768,2.383-2.023,2.521C34.082,289.238,32.931,288.848,31.418,287.937L31.418,287.937z M40.223,293.957
				c0.137,1.255-0.768,2.383-2.023,2.52c-1.254,0.137-2.658-0.45-4.656-1.789c1.661-1.741,2.904-2.617,4.158-2.755
				C38.958,291.796,40.086,292.702,40.223,293.957L40.223,293.957z M45.732,288.646c0.137,1.255-0.768,2.384-2.023,2.521
				c-1.254,0.137-2.658-0.45-4.656-1.789c1.661-1.741,2.904-2.617,4.158-2.755C44.466,286.486,45.594,287.391,45.732,288.646z
				 M15.764,287.871c-0.496-4.531,1.795-8.499,5.118-8.862c3.322-0.364,6.418,3.014,6.915,7.545c0.122,1.122,0.074,2.21-0.118,3.217
				c1.545,0.636,2.891,2.058,3.74,3.94v8.791c-0.913,1.859-2.423,3.137-4.24,3.336c-1.424,0.156-2.805-0.375-3.959-1.39
				c-0.537,0.298-1.12,0.492-1.739,0.559c-3.323,0.364-6.418-3.015-6.914-7.546c-0.303-2.766,0.433-5.323,1.809-6.978
				C16.076,289.676,15.866,288.797,15.764,287.871L15.764,287.871z M31.418,286.397c-0.301,0.279-0.614,0.59-0.945,0.937
				c0.331,0.221,0.645,0.422,0.945,0.603V286.397z"/>
			<path style="fill:#DF314A;" d="M88.219,277.6c1.524-0.001,2.878,1.088,3.158,2.641c0.314,1.743-0.846,3.413-2.589,3.727
				c-0.191,0.034-0.382,0.05-0.569,0.051L88.219,277.6L88.219,277.6z M88.219,300.952v-3.234l2.949-0.531l0.565,3.132
				L88.219,300.952L88.219,300.952z M88.219,288.663v-3.094c0.278,0,0.56-0.025,0.843-0.076l0.526,2.924L88.219,288.663z
				 M85.061,281.378c-0.314-1.744,0.845-3.413,2.588-3.728c0.191-0.035,0.382-0.051,0.569-0.051v6.419
				C86.693,284.02,85.34,282.931,85.061,281.378L85.061,281.378z M88.219,285.568c-2.261,0.003-4.268-1.612-4.683-3.916
				c-0.466-2.587,1.253-5.06,3.839-5.527l-2.217-12.307l-0.261-1.445l-0.729-4.049l-1.318-7.319
				c-0.284,0.051-0.565,0.076-0.843,0.076v38.699l6.212-1.12L88.219,285.568L88.219,285.568z M88.219,297.718v3.234l-6.212,1.12
				v-3.234L88.219,297.718L88.219,297.718z M82.006,249.533v-6.419c1.525-0.001,2.878,1.088,3.158,2.641
				c0.314,1.744-0.845,3.413-2.589,3.726C82.384,249.515,82.195,249.532,82.006,249.533z M82.006,243.113v6.419
				c-1.524,0.001-2.877-1.088-3.158-2.64c-0.314-1.745,0.845-3.413,2.589-3.728C81.629,243.131,81.818,243.114,82.006,243.113
				L82.006,243.113z M82.006,251.082c-2.261,0.003-4.268-1.613-4.683-3.916c-0.467-2.586,1.254-5.06,3.839-5.527l-0.677-3.757
				L79.967,235l-10.358,1.866v7.259c0.672,0.3,1.191,0.916,1.33,1.69l0.766,4.25c0.224,1.243-0.61,2.443-1.853,2.667l-0.243,0.044
				v3.019l0.769-0.139c1.243-0.224,2.443,0.609,2.667,1.854l0.765,4.25c0.224,1.243-0.609,2.443-1.853,2.666l-2.349,0.424v3.019
				l2.876-0.519c1.243-0.224,2.443,0.611,2.667,1.854l0.766,4.251c0.224,1.243-0.609,2.443-1.853,2.667l-3.119,0.561
				c-0.468,0.084-0.931,0.018-1.337-0.163v5.006c0.144-0.944,0.874-1.741,1.864-1.919l3.118-0.562
				c1.243-0.224,2.443,0.61,2.667,1.853l0.766,4.251c0.224,1.243-0.61,2.443-1.853,2.666l-3.119,0.562
				c-1.243,0.224-2.443-0.609-2.667-1.853l-0.766-4.25l-0.01-0.064v11.147l1.346,7.471l-1.346,0.243v3.234l12.398-2.232v-3.234
				l-6.767,1.219c-1.288,0.233-2.55-0.746-2.808-2.173l-0.645-3.581c-0.257-1.427,0.586-2.785,1.873-3.017l8.346-1.503
				L82.006,251.082L82.006,251.082z M69.609,236.866v7.259c-0.406-0.182-0.869-0.247-1.337-0.163l-3.119,0.563l-0.03,0.005v-6.518
				c0.292-0.268,0.651-0.456,1.055-0.529L69.609,236.866L69.609,236.866z M69.609,252.776v3.019l-2.349,0.423
				c-1.243,0.224-2.077,1.424-1.853,2.667l0.765,4.251c0.224,1.243,1.424,2.077,2.668,1.854l0.769-0.139v3.019l-0.243,0.044
				c-1.243,0.223-2.077,1.424-1.853,2.666l0.765,4.251c0.14,0.775,0.658,1.39,1.33,1.69v5.006c-0.034,0.222-0.035,0.452,0,0.684
				v11.147l-4.486-24.903v-15.466c0.465,0.287,1.033,0.411,1.61,0.307L69.609,252.776L69.609,252.776z M69.609,301.07l-0.312,0.056
				l-4.174-23.171v15.465c0.537,0.331,0.937,0.88,1.057,1.545l0.766,4.251c0.222,1.233-0.596,2.423-1.823,2.661v3.234l4.486-0.808
				L69.609,301.07L69.609,301.07z M65.123,238.013v6.518c-1.226,0.237-2.045,1.428-1.823,2.661l0.766,4.251
				c0.12,0.666,0.52,1.214,1.057,1.545v15.466l-4.174-23.172l-0.972,0.175v-3.881l4.459-0.803l-0.068-0.375
				C64.202,239.467,64.518,238.568,65.123,238.013L65.123,238.013z M65.123,277.955l-5.146-28.568v11.142l0.65,3.605
				c0.139,0.771-0.129,1.526-0.65,2.041v3.53c0.975,0.118,1.807,0.859,1.99,1.873l0.765,4.251c0.224,1.243-0.609,2.443-1.853,2.667
				l-0.903,0.163v3.019l1.429-0.258c1.243-0.224,2.443,0.61,2.668,1.854l0.765,4.25c0.224,1.243-0.609,2.443-1.852,2.667
				l-3.009,0.542v3.06c0.133-0.051,0.272-0.09,0.417-0.117l3.119-0.562c0.577-0.103,1.145,0.02,1.61,0.307L65.123,277.955
				L65.123,277.955z M65.123,301.878v3.234l-3.264,0.588c-0.639,0.115-1.275,0.087-1.881-0.061v-3.8
				c0.514,0.492,1.248,0.741,1.997,0.607l3.119-0.561L65.123,301.878z M59.977,241.576v3.881l-0.686,0.123l0.686,3.808v11.142
				l-0.116-0.644c-0.224-1.243-1.424-2.078-2.668-1.854l-2.876,0.518v-3.019l2.349-0.423c1.244-0.223,2.077-1.424,1.854-2.667
				l-0.766-4.25c-0.224-1.243-1.424-2.077-2.667-1.853l-0.769,0.138v-3.88L59.977,241.576L59.977,241.576z M59.977,266.175v3.53
				c-0.22-0.027-0.448-0.021-0.677,0.02l-3.119,0.562c-0.99,0.178-1.72,0.975-1.863,1.92v-5.006
				c0.407,0.182,0.869,0.247,1.337,0.163l3.119-0.562C59.246,266.716,59.659,266.49,59.977,266.175L59.977,266.175z M59.977,278.658
				v3.019l-1.689,0.304c-1.243,0.224-2.078,1.424-1.854,2.667l0.766,4.25c0.224,1.243,1.424,2.077,2.667,1.853l0.11-0.019v3.06
				c-1.006,0.387-1.634,1.452-1.436,2.55l0.766,4.251c0.089,0.494,0.332,0.922,0.67,1.246v3.8c-1.948-0.478-3.583-2.209-3.994-4.486
				l-1.666-9.247v-19.018l0.011,0.065l0.765,4.251c0.224,1.243,1.424,2.077,2.667,1.854L59.977,278.658z M54.318,242.595v3.88
				l-2.349,0.423c-1.243,0.224-2.077,1.424-1.854,2.667l0.766,4.25c0.224,1.243,1.424,2.077,2.667,1.854l0.769-0.139v3.019
				l-0.243,0.044c-1.243,0.224-2.077,1.424-1.853,2.667l0.766,4.251c0.139,0.775,0.658,1.39,1.33,1.69v5.006
				c-0.033,0.222-0.035,0.45,0,0.682v19.018l-7.625-42.332c-0.538-2.986,1.226-5.826,3.919-6.311L54.318,242.595z"/>
			<path style="fill:#683B1C;" d="M381.335,388.914v-4.29c0.195-0.072,0.382-0.173,0.557-0.301l3.481-2.557
				c1.018-0.748,1.238-2.192,0.491-3.21l-1.876-2.554c-0.619-0.843-1.716-1.139-2.653-0.792v-2.56l0.124-0.091l-0.124-0.169v-5.376
				l7.503,10.214c1.62,2.205,0.946,5.48-1.5,7.276L381.335,388.914z M381.335,367.014v5.376l-0.873-1.188l-3.915,2.877v-2.451
				l0.62-0.456c1.169-0.859,1.492-2.424,0.718-3.477l-1.338-1.822v-5.376L381.335,367.014L381.335,367.014z M381.335,372.65
				l-4.788,3.517v2.849c0.155-0.367,0.407-0.697,0.75-0.95l3.481-2.557c0.175-0.129,0.363-0.229,0.557-0.301L381.335,372.65
				L381.335,372.65z M381.335,384.624v4.29l-4.788,3.517v-4.579c0.241-0.569,0.25-1.225,0-1.807v-5.22
				c0.067,0.157,0.154,0.31,0.259,0.454l1.877,2.554C379.302,384.675,380.398,384.971,381.335,384.624z M376.547,360.496v5.376
				l-4.788-6.518v-5.376L376.547,360.496L376.547,360.496z M376.547,371.627v2.451l-4.788,3.517v-3.854
				c0.777,0.271,1.716,0.144,2.477-0.416L376.547,371.627L376.547,371.627z M376.547,376.168l-4.788,3.517v2.56
				c0.937-0.348,2.033-0.051,2.652,0.791l1.876,2.554c0.105,0.144,0.192,0.297,0.26,0.454v-5.22c-0.25-0.583-0.241-1.239,0-1.807
				V376.168L376.547,376.168z M376.547,387.851v4.579l-4.788,3.517v-4.29c0.195-0.072,0.382-0.172,0.557-0.301l3.481-2.557
				C376.139,388.549,376.392,388.218,376.547,387.851z M371.759,353.978v5.376l-3.457-4.706l2.565-1.884L371.759,353.978
				L371.759,353.978z M371.759,373.74v3.854l-4.788,3.517v-2.452l0.895-0.657c1.018-0.748,1.239-2.192,0.491-3.211l-1.386-1.886
				v-5.018l3.731,5.08C370.973,373.337,371.343,373.595,371.759,373.74L371.759,373.74z M371.759,379.685l-4.788,3.517v2.849
				c0.156-0.367,0.408-0.697,0.75-0.95l3.481-2.556c0.175-0.129,0.362-0.229,0.556-0.3L371.759,379.685L371.759,379.685z
				 M371.759,391.658v4.29l-4.788,3.517v-4.579c0.241-0.569,0.25-1.226,0-1.809v-5.218c0.067,0.157,0.154,0.31,0.259,0.453
				l1.876,2.554C369.725,391.708,370.822,392.005,371.759,391.658z M366.971,367.89v5.018l-0.49-0.667
				c-0.619-0.843-1.716-1.139-2.653-0.792v-7.837L366.971,367.89L366.971,367.89z M366.971,378.661v2.451l-3.143,2.309v-2.56
				c0.195-0.072,0.382-0.172,0.558-0.301L366.971,378.661L366.971,378.661z M366.971,383.203l-3.143,2.309v3.785
				c0.39,0.153,0.743,0.414,1.008,0.775l1.876,2.554c0.105,0.144,0.191,0.296,0.259,0.452v-5.218c-0.25-0.583-0.241-1.239,0-1.809
				V383.203L366.971,383.203z M366.971,394.886v4.579l-3.143,2.309v-4.182l2.393-1.758
				C366.563,395.584,366.815,395.253,366.971,394.886z M363.828,363.61v7.837c-0.195,0.072-0.382,0.172-0.557,0.301l-3.481,2.556
				c-0.342,0.252-0.594,0.582-0.75,0.95v-8.42c0.797-1.418,0.831-3.192,0-4.664v-0.717l2.081-1.528L363.828,363.61L363.828,363.61z
				 M363.828,380.861v2.56l-4.788,3.517v-2.849c0.242-0.569,0.25-1.225,0-1.807v-5.219c0.068,0.157,0.154,0.309,0.259,0.452
				l1.877,2.554C361.795,380.912,362.891,381.209,363.828,380.861L363.828,380.861z M363.828,385.511l-4.788,3.517v2.451
				l2.586-1.899c0.658-0.483,1.492-0.562,2.202-0.284V385.511L363.828,385.511z M363.828,397.593v4.182l-4.788,3.517v-8.059
				l0.491,0.668c0.748,1.018,2.192,1.239,3.21,0.492L363.828,397.593z M357.395,362.494c0.028,0.035,0.055,0.07,0.082,0.106
				c0.879,1.198,0.806,2.802-0.082,3.908V362.494L357.395,362.494z M359.04,361.454v0.717c-0.094-0.167-0.198-0.329-0.314-0.486
				L359.04,361.454L359.04,361.454z M359.04,366.834v8.42c-0.241,0.569-0.249,1.226,0,1.809v5.219
				c-0.067-0.158-0.154-0.31-0.259-0.454l-1.386-1.886v-11.395c0.106-0.066,0.212-0.137,0.314-0.212
				C358.272,367.922,358.718,367.407,359.04,366.834L359.04,366.834z M359.04,384.09v2.849l-1.645,1.208v-2.45l0.894-0.658
				C358.632,384.787,358.884,384.456,359.04,384.09L359.04,384.09z M359.04,389.028v2.452l-0.894,0.658
				c-0.342,0.252-0.595,0.582-0.75,0.949v-2.849L359.04,389.028L359.04,389.028z M359.04,397.233v8.059l-1.645,1.208v-4.579
				c0.241-0.569,0.25-1.226,0-1.809v-5.219c0.067,0.158,0.154,0.31,0.259,0.454L359.04,397.233z M356.79,367.086
				c-0.573,0.421-1.239,0.624-1.899,0.623v-6.418c0.944,0.001,1.875,0.416,2.504,1.203v4.014
				C357.224,366.722,357.022,366.917,356.79,367.086L356.79,367.086z M357.395,368.547v11.395l-0.49-0.667
				c-0.482-0.656-1.254-0.981-2.013-0.929v-9.086C355.752,369.26,356.62,369.028,357.395,368.547L357.395,368.547z M357.395,385.696
				v2.45l-2.504,1.839v-2.452L357.395,385.696L357.395,385.696z M357.395,390.237v2.849c-0.241,0.569-0.25,1.226,0,1.808v5.219
				c-0.068-0.157-0.154-0.309-0.259-0.453l-1.876-2.554c-0.109-0.148-0.233-0.28-0.369-0.394v-4.635L357.395,390.237
				L357.395,390.237z M357.395,401.921v4.579l-2.504,1.839v-4.181l1.754-1.288C356.987,402.618,357.239,402.288,357.395,401.921z
				 M354.891,367.709c-0.986-0.001-1.958-0.454-2.586-1.309c-1.049-1.429-0.741-3.437,0.687-4.487
				c0.573-0.42,1.239-0.623,1.899-0.622V367.709L354.891,367.709z M354.891,369.259c-1.461-0.001-2.903-0.673-3.835-1.941
				l-1.593,1.171v13.8c0.156-0.366,0.408-0.697,0.75-0.949l3.481-2.556c0.361-0.267,0.777-0.41,1.196-0.439L354.891,369.259
				L354.891,369.259z M354.891,387.535v2.452l-5.427,3.987v-2.849c0.241-0.569,0.25-1.226,0-1.809v-5.217
				c0.068,0.157,0.154,0.31,0.259,0.453l1.877,2.554c0.748,1.018,2.192,1.238,3.21,0.491L354.891,387.535L354.891,387.535z
				 M354.891,392.075l-5.427,3.987v2.452l2.586-1.9c0.869-0.639,2.05-0.57,2.842,0.097L354.891,392.075L354.891,392.075z
				 M354.891,404.158v4.181l-5.427,3.987v-8.058l0.49,0.667c0.749,1.017,2.192,1.238,3.211,0.491L354.891,404.158z M349.464,368.488
				v13.8c-0.241,0.57-0.25,1.226,0,1.809v5.217c-0.067-0.157-0.154-0.309-0.258-0.452l-1.386-1.886v-17.279L349.464,368.488
				L349.464,368.488z M349.464,391.124v2.849l-1.645,1.208v-2.451l0.895-0.658C349.056,391.821,349.308,391.491,349.464,391.124
				L349.464,391.124z M349.464,396.063v2.451l-0.895,0.657c-0.342,0.252-0.594,0.582-0.75,0.95v-2.849L349.464,396.063
				L349.464,396.063z M349.464,404.269v8.058l-1.645,1.208v-4.579c0.241-0.569,0.25-1.226,0-1.809v-5.219
				c0.067,0.157,0.154,0.31,0.259,0.453L349.464,404.269z M347.819,369.696v17.279l-0.49-0.667c-0.619-0.843-1.716-1.14-2.653-0.792
				v-13.511L347.819,369.696L347.819,369.696z M347.819,392.73v2.451l-3.143,2.309v-2.56c0.195-0.073,0.382-0.172,0.557-0.301
				L347.819,392.73L347.819,392.73z M347.819,397.271l-3.143,2.309v3.785c0.39,0.153,0.743,0.414,1.008,0.775l1.876,2.554
				c0.105,0.144,0.191,0.296,0.259,0.453v-5.219c-0.25-0.583-0.241-1.239,0-1.808V397.271L347.819,397.271z M347.819,408.955v4.579
				l-2.717,1.996c-0.139,0.102-0.281,0.197-0.426,0.286v-4.155l2.394-1.758C347.411,409.653,347.663,409.322,347.819,408.955z
				 M344.676,372.006v13.511c-0.194,0.073-0.382,0.172-0.556,0.301l-3.481,2.557c-0.343,0.252-0.594,0.582-0.751,0.949v-13.801
				l1.091-0.801L344.676,372.006L344.676,372.006z M344.676,394.931v2.56l-4.788,3.517v-2.848c0.241-0.57,0.25-1.226,0-1.809v-5.219
				c0.068,0.157,0.154,0.31,0.259,0.453l1.877,2.554C342.641,394.982,343.739,395.278,344.676,394.931L344.676,394.931z
				 M344.676,399.581l-4.788,3.517v2.451l2.586-1.9c0.658-0.482,1.492-0.561,2.202-0.283V399.581L344.676,399.581z M344.676,411.661
				v4.155c-1.518,0.93-3.299,1.103-4.788,0.574v-5.089l0.491,0.668c0.748,1.018,2.192,1.239,3.21,0.491L344.676,411.661z
				 M339.888,375.522v13.801c-0.241,0.569-0.25,1.226,0,1.808v5.219c-0.067-0.158-0.154-0.31-0.258-0.453l-1.876-2.554
				c-0.62-0.843-1.717-1.14-2.653-0.792v-13.512l1.379-1.013l3.315-2.435L339.888,375.522L339.888,375.522z M339.888,398.16v2.848
				l-4.787,3.517v-2.56c0.195-0.073,0.382-0.172,0.557-0.3l3.481-2.557C339.48,398.856,339.732,398.526,339.888,398.16
				L339.888,398.16z M339.888,403.097l-3.915,2.877l-0.873-1.189v6.45l2.609,3.552c0.558,0.76,1.32,1.298,2.178,1.603v-5.089
				l-1.386-1.886c-0.748-1.018-0.526-2.462,0.492-3.21l0.894-0.658V403.097z M335.1,379.039v13.512
				c-0.195,0.073-0.382,0.172-0.557,0.301l-3.481,2.557c-1.018,0.748-1.239,2.193-0.491,3.211l1.876,2.554
				c0.619,0.843,1.716,1.139,2.653,0.791v2.56l-0.124,0.091l0.124,0.169v6.45l-5.707-7.769l-0.307,0.226
				c-0.749,0.55-1.677,0.667-2.435,0.386v-14.074c0.979,0.001,1.968-0.299,2.817-0.924c2.118-1.556,2.573-4.534,1.018-6.652
				L335.1,379.039L335.1,379.039z M326.651,388.455c0.66,0.001,1.326-0.202,1.9-0.622c1.428-1.05,1.735-3.058,0.686-4.487
				c-0.629-0.855-1.601-1.308-2.586-1.309V388.455z M326.651,382.037v6.418c-0.986-0.001-1.958-0.454-2.586-1.309
				c-1.05-1.429-0.742-3.437,0.686-4.486C325.324,382.239,325.991,382.037,326.651,382.037L326.651,382.037z M326.651,390.005
				c-1.461-0.001-2.904-0.673-3.835-1.941l-3.077,2.26l-2.36,1.735l8.294,11.292c0.252,0.342,0.592,0.587,0.978,0.729V390.005z"/>
			<path style="fill:#6DD1C9;" d="M335.211,456.35c-1.431,0.405-2.852,0.506-4.149,0.348v-11.717
				c0.278-0.103,0.564-0.197,0.857-0.279c1.087-0.307,2.167-0.44,3.192-0.416c0.564-2.477,2.996-4.802,6.34-5.746
				c4.386-1.239,8.68,0.363,9.588,3.58c0.39,1.377,0.095,2.829-0.715,4.135c0.382,0.479,0.669,1.022,0.839,1.621
				c0.909,3.217-1.909,6.829-6.296,8.069c-2.677,0.756-5.321,0.454-7.181-0.629C336.94,455.743,336.108,456.096,335.211,456.35
				L335.211,456.35z M331.062,441.074c0.352,0.276,0.746,0.56,1.184,0.858c0.99-2.193,1.337-3.673,0.994-4.888
				c-0.282-1.001-1.188-1.656-2.178-1.664V441.074L331.062,441.074z M331.062,431.781v-5.127c1.199-0.312,2.433,0.391,2.772,1.59
				c0.344,1.215-0.003,2.695-0.993,4.889C332.135,432.655,331.545,432.21,331.062,431.781L331.062,431.781z M337.163,431.22
				c-1.214,0.343-1.921,1.605-1.577,2.82c0.344,1.215,1.414,2.295,3.405,3.645c0.99-2.192,1.337-3.673,0.994-4.887
				C339.641,431.583,338.378,430.877,337.163,431.22z M331.062,456.698c-2.679-0.327-4.827-1.76-5.438-3.928
				c-0.848-3.002,1.55-6.348,5.438-7.789V456.698L331.062,456.698z M331.062,426.655v5.127c-0.88-0.781-1.405-1.509-1.626-2.294
				c-0.344-1.214,0.363-2.477,1.577-2.82L331.062,426.655L331.062,426.655z M331.062,435.38v5.693
				c-1.243-0.975-1.953-1.839-2.22-2.787c-0.344-1.214,0.363-2.478,1.577-2.82C330.633,435.407,330.849,435.378,331.062,435.38z"/>
			<g>
				<path style="fill:#DF314A;" d="M379.12,54.711v-0.299l2.683-3.075l0.163,0.113L379.12,54.711L379.12,54.711z M379.12,50.925
					v-0.347l0.518-0.746l0.163,0.113L379.12,50.925z M377.186,48.857l0.287-0.529l0.162,0.113l-0.449,0.828V48.857L377.186,48.857z
					 M379.12,50.579v0.347l-1.935,2.784v-0.348L379.12,50.579L379.12,50.579z M379.12,54.412v0.299l-0.518,0.594l-0.162-0.113
					L379.12,54.412z M375.034,52.825l2.152-3.968v0.412l-1.989,3.668L375.034,52.825L375.034,52.825z M377.186,53.362v0.348
					l-0.286,0.412l-0.163-0.114L377.186,53.362z"/>
				<path style="fill:#DF314A;" d="M412.579,29.166c-0.508,4.779-3.476,9.456-7.931,12.791c-9.139,6.839-21.136,7.991-23.721,6.195
					c-2.586-1.796-5.693-13.441-2.472-24.391c1.537-5.228,4.782-9.582,8.956-11.777c3.659-1.925,10.505-2.583,13.909,0.366
					c0.808,0.699,1.971,1.554,2.682,2.516c0.998,0.193,2.096,0.935,2.927,1.312C410.921,17.99,412.999,25.207,412.579,29.166z"/>
				<path style="fill:#DF314A;" d="M378.765,55.417c-0.084,0.15-0.176,0.297-0.277,0.443c-0.774,1.114-1.855,1.8-2.811,1.887
					l-1.911-1.328c-0.252-0.925,0.014-2.179,0.788-3.292c0.101-0.145,0.207-0.284,0.318-0.414L378.765,55.417z"/>
				
					<rect x="373.482" y="54.505" transform="matrix(0.8213 0.5705 -0.5705 0.8213 98.4449 -204.9717)" style="fill:#DF314A;" width="5.846" height="0.299"/>
				<circle style="fill:#DF314A;" cx="374.043" cy="54.426" r="0.766"/>
				<circle style="fill:#DF314A;" cx="375.745" cy="55.609" r="0.766"/>
				<circle style="fill:#DF314A;" cx="377.448" cy="56.792" r="0.766"/>
				
					<rect x="373.64" y="53.543" transform="matrix(-0.5704 0.8214 -0.8214 -0.5704 632.2963 -223.4339)" style="fill:#DF314A;" width="1.881" height="0.198"/>
				
					<rect x="375.338" y="54.734" transform="matrix(-0.5705 0.8213 -0.8213 -0.5705 635.9796 -222.9212)" style="fill:#DF314A;" width="1.881" height="0.198"/>
				
					<rect x="377.041" y="55.917" transform="matrix(-0.5705 0.8213 -0.8213 -0.5705 639.6257 -222.4631)" style="fill:#DF314A;" width="1.881" height="0.198"/>
				<path style="fill:#F7F3E1;" d="M410.426,22.846c1.23,5.985-2.11,12.84-7.901,17.637c-8.658,7.172-19.432,9.175-21.598,7.669
					c-2.167-1.505-4.049-12.3-0.35-22.917c2.442-7.008,7.611-12.528,13.542-13.552c2.823-0.487,6.179-0.595,8.373,1.564
					c0.476,0.469,1.211,0.994,1.616,1.572c0.683,0.061,1.343,0.504,1.971,0.799C408.657,16.831,409.944,20.501,410.426,22.846z"/>
				<path style="fill:#DF314A;" d="M408.11,22.377c-0.358,5.006-3.911,11.13-8.806,15.869c-7.931,7.678-16.848,10.97-18.378,9.907
					c-1.531-1.063-1.557-10.568,2.87-20.681c2.764-6.312,7.328-11.818,11.948-13.847c2.622-1.151,6.234-1.413,8.003,0.514
					c0.146,0.158,0.27,0.35,0.384,0.566c0.22,0,0.433,0.035,0.638,0.099C407.391,15.612,408.304,19.691,408.11,22.377z"/>
				<path style="fill:#F7F3E1;" d="M405.275,16.28c0.184,3.759-4.586,11.935-10.368,18.91c-6.937,8.368-13.318,13.423-13.98,12.962
					c-0.663-0.46,1.847-8.203,7.268-17.624c4.522-7.86,10.607-15.329,14.112-16.319C403.945,13.746,405.196,14.666,405.275,16.28z"
					/>
				<polygon style="fill:#DF314A;" points="392.401,47.82 383.153,50.677 377.782,46.946 377.233,37.283 				"/>
				
					<rect x="376.94" y="48.665" transform="matrix(0.8212 0.5706 -0.5706 0.8212 96.1642 -208.008)" style="fill:#DF314A;" width="6.181" height="1.588"/>
			</g>
			<circle style="fill:#DF314A;" cx="247.657" cy="239.483" r="148.803"/>
			<circle style="fill:#F7F3E1;" cx="247.657" cy="239.483" r="145.559"/>
			<circle style="fill:#6DD1C9;" cx="247.657" cy="239.483" r="141.8"/>
			<circle style="fill:#F7F3E1;" cx="247.658" cy="239.483" r="138.555"/>
			<circle style="fill:#E9CF20;" cx="247.657" cy="239.483" r="134.259"/>
			<circle style="fill:#F7F3E1;" cx="247.657" cy="239.483" r="130.823"/>
		</g>
	</g>
</g>
<g id="Layer_1_1_">
</g>
</svg>
