<?xml version="1.0" encoding="iso-8859-1"?>
<!-- Generator: Adobe Illustrator 18.0.0, SVG Export Plug-In . SVG Version: 6.00 Build 0)  -->
<!DOCTYPE svg PUBLIC "-//W3C//DTD SVG 1.1//EN" "http://www.w3.org/Graphics/SVG/1.1/DTD/svg11.dtd">
<svg version="1.1" xmlns="http://www.w3.org/2000/svg" xmlns:xlink="http://www.w3.org/1999/xlink" x="0px" y="0px"
	 viewBox="0 0 463.417 470.504" style="enable-background:new 0 0 463.417 470.504;" xml:space="preserve">
<g id="world-page5">
	<g id="Globe">
		<g>
			<g id="globe">
				<g>
					<radialGradient id="SVGID_1_" cx="246.4102" cy="209.9345" r="244.517" gradientUnits="userSpaceOnUse">
						<stop  offset="0" style="stop-color:#27AAE1"/>
						<stop  offset="0.1256" style="stop-color:#25A5DD"/>
						<stop  offset="0.281" style="stop-color:#2196D0"/>
						<stop  offset="0.4519" style="stop-color:#197CBB"/>
						<stop  offset="0.6341" style="stop-color:#0E599E"/>
						<stop  offset="0.8233" style="stop-color:#012D78"/>
						<stop  offset="0.8342" style="stop-color:#002A76"/>
						<stop  offset="0.8585" style="stop-color:#03357F"/>
						<stop  offset="0.9009" style="stop-color:#0C5297"/>
						<stop  offset="0.9561" style="stop-color:#1A80BE"/>
						<stop  offset="1" style="stop-color:#27AAE1"/>
					</radialGradient>
					<path style="fill:url(#SVGID_1_);" d="M451.616,240.181c0,116.708-94.609,211.315-211.319,211.315
						c-116.703,0-211.312-94.607-211.312-211.315c0-116.707,94.609-211.316,211.312-211.316
						C357.007,28.865,451.616,123.474,451.616,240.181z"/>
					<radialGradient id="SVGID_2_" cx="234.734" cy="190.1791" r="247.8177" gradientUnits="userSpaceOnUse">
						<stop  offset="0" style="stop-color:#27AAE1"/>
						<stop  offset="0.1987" style="stop-color:#2AABE1"/>
						<stop  offset="0.3466" style="stop-color:#33AEE1"/>
						<stop  offset="0.4781" style="stop-color:#44B3E2"/>
						<stop  offset="0.6001" style="stop-color:#5ABAE3"/>
						<stop  offset="0.7154" style="stop-color:#78C4E4"/>
						<stop  offset="0.8259" style="stop-color:#9CCFE5"/>
						<stop  offset="0.9305" style="stop-color:#C6DDE7"/>
						<stop  offset="1" style="stop-color:#E6E7E8"/>
					</radialGradient>
					<path style="fill:url(#SVGID_2_);" d="M442.644,298.188c-2.793,0.064-6.424,1.379-6.479,2.329
						c-0.049,0.961-3.891,2.681-5.162,3.194c-1.27,0.516-3.73,4.443-4.279,5.732c-0.531,1.297-3.67,0.907-4.84,1.435
						c-1.147,0.508-3.543,2.432-3.561,3.599c-0.006,1.143-0.652,1.025-1.434-0.298c0,0,0,0-1.525,1.609
						c-1.801,2.006-1.801,2.006-1.801,2.006c-1.047,3.258-4.484,7.357-5.67,7.708c-1.188,0.325-1.389,6.046-1.389,8.338
						c0,2.312,0.887,5.148,1.986,6.317c0,0,0,0,0.24,1.824c0.395,3.645,0.395,3.645,0.395,3.645
						c-0.635,2.807,1.502,5.322,2.133,5.818c0.611,0.475,5.85-0.943,7.85-1.429c0.838-0.193,1.873-0.662,2.857-1.154
						c9.357-15.66,16.707-32.636,21.791-50.566C443.368,298.222,442.991,298.17,442.644,298.188z M93.065,303.614
						c-0.291,0.566,3.484,4.457,4.961,5.771c1.461,1.341,4.576,7.684,5.211,9.772c0.631,2.088,0.26,5.497,0.051,6.302
						c-0.193,0.803,0.709,2.564,0.871,3.299c0.121,0.73-1.309,6.961-0.758,9.469c0.549,2.5-2.93,10.322-2.857,14.195
						c0.09,3.885,1.84,8.944,2.551,8.564c0.701-0.373,0.951,3.535-0.234,3.999c-1.186,0.478-2.559,3.557-1.896,3.724
						c0.662,0.163-0.049,3.203,0.137,4.429c0.178,1.223,1.211,9.284,1.428,11.285c0.227,2.009,3.092,6.905,3.705,8.562
						c0.596,1.672,1.209,4.81,1.443,5.285c0.234,0.489,0.525,0.979,0.557,1.002c0.055,0.013,2.363,0.873,3.025,1.379
						c0.688,0.499,5.213,0.188,6.695-0.119c1.486-0.304,0.121-1.655-0.539-2.386c-0.67-0.741-1.26-4.317-2.033-4.689
						c-0.767-0.348-1.09-4.912-0.42-5.914c0.68-1.015,3.391-2.622,3.688-3.468c0.275-0.848,0.363-4.816-0.355-5.365
						c-0.734-0.542,0.219-5.363-0.34-7.755c-0.539-2.388,4.156-4.567,4.439-6.463c0.266-1.896,5.357-3.939,6.518-4.882
						c1.146-0.956,2.148-6.382,1.6-7.564c-0.559-1.158,1.887-2.11,2.977-2.11c1.072,0,2.291-0.776,2.711-0.776
						c0.412-0.013,1.701-2.413,2.396-2.966c0.701-0.558,2.137-6.294,3.398-7.233c1.264-0.947,2.305-4.408,2.305-5.434
						c0-1.008,1.938-4.038,2.574-4.946c0.629-0.909,5.383-3.088,6.238-3.429c0.846-0.354,2.137-7.989,2.469-10.733
						c0.33-2.737,1.758-6.404,1.863-7.3c0.088-0.909,1.613-1.675,1.889-1.963c0.291-0.284,1.426-3.782,2.152-4.587
						c0.727-0.8,3.357-4.125,3.42-4.88c0.059-0.745,0.455-2.646,0.898-4.241c0,0,0,0-0.018-1.861
						c0.023-2.978,0.023-2.978,0.023-2.978c-0.838-2.301-3.387-5.181-4.033-4.543c-0.652,0.629-3.598-2.036-5.09-2.604
						c-1.51-0.549-5.246-1.018-6.197-1.018c-0.943,0-4.219-2.68-5.688-3.15c-1.461-0.449-5.197-1.167-5.891-1.607
						c-0.678-0.438-1.598-6.001-4.615-7.814c-3.008-1.828-8.285-6.065-8.875-7.634c-0.58-1.549-6.357-4.823-8.166-5.804
						c-1.775-0.988-4.486-1.225-4.816-0.86c-0.355,0.331-2.582-3.023-3.719-3.982c-1.162-0.93-4.625-1.726-4.785-0.878
						c-0.16,0.855-2.453,0.408-3.002-0.321c-0.531-0.715-2.322,0.293-3.162,0.575c-0.83,0.263-3.719,4.656-5.027,5.721
						c-1.338,1.043-2.912-0.975-3.783-1.364c-0.873-0.37-4.188,0.662-5.1,1.308c-0.904,0.636-3-4.655-2.5-7.096
						c0.475-2.438-2.186-7.287-4.262-7.412c-2.041-0.112-2.693-5.22-2.283-7.095c0.412-1.876-3.719-3.05-4.752-3.176
						c-1.057-0.145-3.623,2.509-4.059,3.775c-0.443,1.268-9.812-1.727-8.697-7.349c1.082-5.612,5.527-11.427,6.633-12.116
						c1.105-0.672,7.123-1.021,8.455-0.266c1.34,0.774,2.541-0.012,2.768-0.351c0.217-0.347,5.131,0.06,6.607,0.657
						c1.453,0.592,3.559,6.264,5.076,6.958c1.531,0.711,2.08-3.661,2.322-4.72c0.252-1.064-0.742-3.76-1.105-4.518
						c-0.379-0.759,2.438-7.638,4.746-8.803c2.273-1.182,4.703-5.007,4.525-5.684c-0.211-0.67,1.824-1.202,2.363-1.496
						c0.559-0.272-0.072-5.839,0.824-7.049c0.92-1.199,5.221-3.748,6.584-4.324c1.361-0.577,2.389-4.091,1.904-4.697
						c-0.5-0.629,3.518-4.053,5.606-4.715c2.09-0.638,3.898,1.206,3.381,1.492c0.412-0.234,3.293-1.727,4.52-2.529
						c1.434-0.947,0.025-3.554-0.904-4.328c-0.912-0.747-0.363-3.769,0.742-4.047c1.115-0.271,2.09-2.88,1.791-3.441
						c-0.299-0.577,4.6,0.452,6.463-0.936c1.832-1.381,0.533,3.316-0.84,5.208c-1.346,1.894,1,3.684,1.881,3.329
						c0.871-0.372,1.801,0.996,1.984,1.532c0.178,0.527,2.059-0.554,3.285-0.017c1.24,0.544,1.961-1.693,2.072-2.711
						c0.082-1.032-2.953-3.157-3.428-4.389c-0.469-1.231-0.678-8.407-0.734-9.884c-0.072-1.47-2.041-3.852-2.678-3.425
						c-0.631,0.403-1.932-3.82-2.945-4.736c-1.043-0.916-1.26-2.945-1.229-3.623c0.049-0.686-3.469-4.361-4.315-6.062
						c-0.84-1.699-2.025-1.357-2.105-0.582c-0.09,0.783-2.527,0.888-3.535,0.795c-1.01-0.093-1.832-3.974-1.832-5.442
						c0-1.465-4.527-1.714-5.275-2.904c-0.744-1.174-3.697-0.621-4.172-1.437c-0.484-0.814-3.098-1.569-3.598-1.271
						c-0.541,0.311-0.283,10.841-0.783,13.68c-0.502,2.845-2.906,5.342-3.793,5.269c-0.863-0.06-0.346,2.025,0.258,1.836
						c0.623-0.186-1.703,3.106-2.008,5.26c-0.307,2.151-2.494-0.092-2.85-2.049c-0.363-1.956-2.5-4.607-2.904-3.933
						c-0.41,0.661-1.879-0.799-2.525-0.388c-0.629,0.424-4.68-2.348-6.311-3.243c-1.629-0.863-2.547-5.883-3.477-6.317
						c-0.951-0.452-0.152-1.045-0.193-1.811c-0.023-0.755,3.162-3.675,4.133-4.821c0.959-1.173,4.461-5.721,5.848-6.696
						c1.395-0.988,2.477-3.59,2.244-4.083c-0.242-0.459,5.938-2.397,7.615-2.977c1.664-0.573,3.123-5.245,3.348-6.583
						c0.227-1.349-1.055-3.882-1.822-4.217c-0.789-0.331,2.332-0.448,3.357,0.072c1.039,0.504,4.226-0.948,5.494-0.278
						c1.242,0.661,3.801,2.175,5.639,3.34c0,0,0,0-0.395,3.43c-0.75,5.809-0.75,5.809-0.75,5.809
						c-4.873,2.021-6.279,5.508-4.576,5.436c1.711-0.086,9.49,3.368,11.691,4.945c2.195,1.572,2.889-2.279,3.533-3.57
						c0.654-1.259,0.445-4.993-0.078-5.733c-0.533-0.741,2.539-0.479,3.404,0.348c0.863,0.822,1.871-0.851,2.541-1.146
						c0.66-0.303,0.982-3.495,1.355-4.135c0.34-0.658-1.461-1.309-1.518-2.098c-0.057-0.815-3.559-2.324-4.688-2.872
						c-1.146-0.545-1.404-2.954-0.848-3.369c0.557-0.424-0.387-3.494-0.951-4.507c-0.541-1.017-4.211-1.839-5.43-1.839
						c-1.211,0-2.469-2.825-3.172-3.241c-0.701-0.398-5.396-0.915-6.543-0.575c-1.162,0.338-3.291-3.324-5.246-2.207
						c-1.959,1.114-3.969-1.312-4.855-1.799c-0.895-0.48-5.471,4.441-5.438,7.891c0.055,3.474,1.791,6.814,2.508,6.911
						c0.719,0.101-0.168,3.224-0.967,4.118c-0.791,0.883-2.719-0.94-1.986-1.73c0.711-0.779-1.992-4.405-2.928-5.874
						c-0.67-1.065-3.049-2.013-4.664-2.654c-0.951,1.024-1.871,2.069-2.783,3.118c0.356,1.259,0.774,2.893,0.371,4.135
						c-0.678,2.111-2.445,2.433-2.549,1.517c-0.049-0.404-0.945-0.711-1.992-0.847c-25.652,30.749-42.723,68.87-47.605,110.657
						c1.025,1.169,2.18,2.551,2.486,3.542c0.588,1.856,3.816,3.086,4.43,3.456c0.588,0.369,0.805-3.558,0.369-4.586
						c-0.41-1.017,0.791-1.63,0.76-0.88c-0.025,0.756,3.049,4.208,4.051,5.466c1.016,1.243,2.057,9.328,3.025,11.054
						c0.961,1.731,10.279,5.33,13.289,5.956c2.992,0.637,6.777,3.99,7.373,4.96c0.572,0.97,4.558,1.46,5.416,1.841
						c0.871,0.404,2.902,3.104,3.758,3.659c0.84,0.57,1.518,2.171,1.518,2.603c0,0.429,5.26,2.418,6.535,3.825
						c1.275,1.407,3.389,1.023,3.785,0.432c0.402-0.597,1.434,2.8,1.982,3.964c0.533,1.176,0.67,4.054,0.25,4.516
						c-0.41,0.444-1.16,5.745-2.064,6.803c-0.895,1.063-2.758,8.758-2.355,10.268c0.412,1.531,2.873,4.663,3.945,5.136
						c1.057,0.467,0.606,2.11-0.227,2.225c-0.846,0.102-0.451,7.453,1.525,8.546C91.692,299.792,93.356,303.045,93.065,303.614z
						 M117.981,174.66l0.014-0.009C117.924,174.683,117.915,174.691,117.981,174.66z M103.512,85.359
						c2.533-0.42,6.746-1.122,7.045-1.836c0.201-0.585,0.232-2.328-0.242-2.933c0.402,0.027,0.871,0.04,1.227,0.04
						c0.959,0,2.566-5.268,3.574-6.503c1.016-1.234,6.809-3.046,8.189-3.877c1.387-0.847,4.406-3.748,5.559-4.087
						c1.17-0.351,2.855-3.053,2.598-3.607c-0.25-0.531,3.922-3.075,5.52-3.743c1.572-0.673,2.404-2.534,1.805-2.606
						c-0.377-0.053-9.221,4.574-17.32,9.165c-9.248,6.277-17.928,13.293-26.055,20.918C97.938,86.105,101.858,85.641,103.512,85.359
						z M256.628,348.871c2.711-1.596,7.318-8.408,8.826-9.835c1.516-1.439,2.613-6.588,2.938-7.714
						c0.297-1.13,2.605-2.951,3.467-3.194c0.85-0.243,3.607-11.661,6.014-14.152c2.402-2.497,5.236-14.561,4.936-18.911
						c-0.307-4.326,1.551-12.6,2.115-14.589c0.58-1.984,3.598-5.52,4.543-6.248c0.926-0.739,6.744-9.347,8.631-12.429
						c1.857-3.092,3.648-9.871,3.293-11.459c-0.354-1.594-4.414-2.697-5.17-1.917c-0.752,0.789-4.568,1.434-5.787,1.434
						c-1.217,0-4.018-6.534-5.752-7.883c-1.727-1.335-3.291-8.823-4.293-10.239c-1-1.416-3.793-5.003-4.67-5.821
						c-0.873-0.815-1.025-4.792-1.227-5.881c-0.186-1.078,1.693,0.721,2.016,2.29c0.332,1.585,4.809,7.963,6.197,10.105
						c1.389,2.155,5.051,8.983,5.979,11.131c0.936,2.125,9.078,1.052,11.717-0.189c2.645-1.258,5.93-3.366,6.059-4.1
						c0.113-0.742,4.332-2.675,5.492-3.607c1.172-0.938,2.213-5.834,2.973-6.612c0.766-0.803-0.615-5.467-1.494-6.855
						c-0.871-1.391-5.1-2.501-5.939-1.957c-0.863,0.547-2.678-3.13-3.332-4.479c-0.645-1.358-3.873-3.012-4.236-3.932
						c-0.33-0.945,0.889-2.393,1.397-2.708c0.508-0.326,6.463,3.854,8.182,5.931c1.695,2.077,3.656,5.895,3.994,6.567
						c0.299,0.658,5.01,1.001,6.059,0.23c1.041-0.775,2.252-0.569,2.662,0.428c0,0,0,0,1.477-0.262
						c5.156-0.795,5.156-0.795,5.156-0.795c2.445,2.638,3.146,4.93,3.09,5.462c-0.047,0.505,1.492,2.654,2.494,2.884
						c1,0.23,1.734,3.606,2.041,4.441c0.291,0.835,3.236,5.882,3.832,8.015c0.605,2.121,3.115,6.265,3.719,7.38
						c0.582,1.112,1.09,4.328,1.09,5.204c0,0.879,1.881,2.613,3.057,2.527c1.164-0.072,3.535-7.465,4.094-10.215
						c0.531-2.748,2.436-5.014,2.969-5.014c0.549,0,0.975-1.547,0.975-2.136c0-0.573,2.986-0.517,3.26-1.267
						c0.252-0.752,1.139-5.631,2.203-6.375c1.074-0.742,4.85-3.223,6.188-3.686c1.316-0.456,4.705,2.47,5.471,3.833
						c0.752,1.358,1.438,4.839,1.146,5.401c-0.281,0.572,1.783,3.569,3.608,3.513c1.789-0.052,2.363,2.293,2.41,3.137
						c0.082,0.846,2.455,3.266,2.93,4.349c0.461,1.082,0.332,4.029,0.016,4.699c-0.33,0.67-0.111,4.534,0.236,5.623
						c0.346,1.073,5.904,6.71,7.979,8.419c2.09,1.705,3.066-3.475,1.994-5.094c-1.059-1.611-4.682-5.374-5.537-6.487
						c-0.855-1.13-1-5.632-0.678-6.881c0.309-1.269,3.172,0.691,4.357,1.601c1.185,0.915,2.744,2.94,2.785,3.624
						c0.041,0.668,7.486-3.5,7.736-8.031c0.273-4.52,2.744-9.62,2.986-10.807c0.248-1.197-0.734-2.837-1.359-2.88
						c-0.635-0.062,1.107-3.453,3.19-3.401c2.09,0.069,7.115-5.535,8.301-7.75c1.187-2.223,3.584-4.049,3.851-4.331
						c0.289-0.259,1.961-5.515,2.252-7.69c0.281-2.171-1.23-5.562-1.406-6.688c-0.178-1.118-1.977-3.703-2.453-4.519
						c-0.451-0.807-0.895-3.852-0.605-4.422c0.266-0.557,2.154-1.165,2.348-1.666c0.211-0.52,2.357-2.812,2.203-3.82
						c-0.16-1.02,1.34,1.307,2.324,2.143c0.984,0.839,2.051,6.234,3.283,6.831c1.201,0.592,6.148-5.722,5.535-9.796
						c-0.606-4.082,1.435-9.295,2.625-9.764c0.9-0.35,3.226-3.646,4.807-6.014c-10.869-31.379-28.893-59.42-52.145-82.178
						c-0.275,0.021-0.549,0.029-0.807-0.023c-1.809-0.392-1.809-0.392-1.809-0.392c-3.043-0.646-4.809-3.894-4.293-4.644
						c0.178-0.237,0.139-0.778-0.016-1.428c-1.686-1.525-3.422-3.026-5.189-4.494c-1.426-0.044-2.945,0-3.822-0.044
						c-1.824-0.066-5.769-1.36-6.473-2.066c-0.717-0.702-3.098,0.621-3.227,1.937c-0.16,1.319-4.309,1.924-4.685,2.929
						c-0.422,0.992-2.551,1.069-2.963,0.501c-0.41-0.557-4.26,1.355-6.172,1.642c-1.912,0.266-5.471,1.819-6.326,2.198
						c-0.855,0.375-2.881,2.36-3.211,3.176c-0.324,0.826-2.783,2.198-3.566,2.518c-0.799,0.309-0.637,3.881,0.387,4.389
						c1.01,0.492-1.896-0.432-3.172-1.098c-1.299-0.634-2.711,1.53-3.105,2.279c-0.412,0.742-1.582-0.452-1.533-1.508
						c0.041-1.082-3.17-1.938-3.59-1.086c-0.438,0.853-2.654-0.278-3.574-0.763c-0.928-0.492-4.906,3.667-6.383,5.165
						c-1.477,1.483-8.543,2.642-9.867,2.081c-1.324-0.553-2.621,3.126-1.492,3.381c1.113,0.218-2.873-0.19-5.06,0.015
						c-2.201,0.219-8.582,2.771-10.1,3.906c-1.541,1.137-2.76-0.251-2.76-1.125c0-0.872-2.43-1.68-3.156-1.926
						c-0.709-0.241-2.137,4.777-3.395,5.742c-1.268,0.983-2.791-3.918-5.77-4.721c-2.977-0.803-7.633-3.684-8.963-4.022
						c-1.309-0.351-3.971-3.135-4.721-3.938c-0.75-0.807-4.559-1.468-5.777-1.468c-1.227,0-5.172,2.263-6.221,3.146
						c-1.09,0.896-2.662,0.718-3.187,1.04c-0.525,0.314-4.995,4.688-6.713,6.053c-1.732,1.367-4.76,7.252-5.729,8.661
						c-1.006,1.4-2.412,1.661-2.994,1.702c-0.58,0.027-1.055,1.598-1.055,2.17c0,0.586-5.125,3.248-5.656,5.575
						c-0.543,2.319,0.498,7.633,0.498,9.525c0,1.887,1.906,5.631,3.324,5.695c1.412,0.068,0.678,3.207,0.301,4.087
						c-0.371,0.888,0.895,1.848,0.854,2.599c-0.033,0.754-3.59,1.803-4.686,2.23c-1.115,0.403-2.881,2.889-3.123,3.808
						c-0.193,0.816-3.607,1.389-4.738,2.471c0.277-0.783,0.662-1.865,0.969-2.471c0.654-1.237-0.25-3.404-0.781-3.849
						c-0.541-0.451-0.791-6.611-1.654-7.922c-0.863-1.332-3.02-3.567-3.551-4.002c-0.533-0.425,0.371-2.051,0.678-2.74
						c0.314-0.682-2.871-1.077-3.744-0.564c-0.871,0.496-1.34,6.597-1.701,8.262c-0.355,1.666,1.572,4.232,2.105,4.346
						c0.508,0.129,0.371,3.13-0.742,3.223c-1.121,0.113-2.139,4.494-1.566,5.494c0.574,1.001-0.797,2.966-1.459,3.418
						c-0.654,0.444,4.275,0.193,6.543,0.128c2.252-0.057,4.02,0.952,3.785,1.134c-0.242,0.19-4.318,0.799-5.051,1.764
						c-0.727,0.964-3.494,2.828-4.035,3.578c-0.533,0.735,0.912,2.385,2.09,2.308c1.17-0.069,2.5,4.054,3.422,4.813
						c0.91,0.775,0.57,2.904,0.184,3.497c-0.428,0.576-5.93-0.395-8.02,0.121c-2.105,0.517-4.752,4.95-4.93,6.615
						c-0.193,1.682,0.338,6.483,0.623,7.815c0.256,1.318,4.645,2.157,5.525,2.806c0.912,0.639,5.1,0.018,5.986,0.422
						c0.848,0.42,3.688-4.254,4.252-6.418c0.541-2.175,5.027-6.142,5.955-7.623c0.928-1.466,5.752-1.297,6.938-2.076
						c1.188-0.754,0.525,3.663,1.098,6.091c0.564,2.441,5.182,2.136,4.502-0.156c-0.676-2.271,0.461-3.268,0.646-2.436
						c0.201,0.81,4.623,2.625,5.471,3.909c0.83,1.286,0.598,4.014-0.389,3.981c-0.984-0.041-1.023,2.988,0.025,3.312
						c1.031,0.332,2.428-3.405,3.551-3.949c1.112-0.563,2.016-2.885,1.491-3.066c-0.498-0.177,0.953-2.259,1.59-1.572
						c0.631,0.681-2.371-4.528-4.258-6.432c-1.889-1.896-0.559-1.053,2.969,1.875c0,0,0,0,2.436,3.418
						c0.477,0.613,1.1,2.477,1.516,3.163c0.576,1.009,0.576,1.009,0.576,1.009c0.475,1.193,0.895,4.462,0.895,5.353
						c0,0.868,1.91,2.611,3.066,2.531c1.16-0.081,2.041,0.551,1.797,0.597c-0.24,0.039,0.768,2.303,1.922,2.354
						c1.145,0.05,1.646-2.921,0.484-2.993c-1.154-0.064-0.979-4.369-1.131-6.225c-0.127-1.876,0.84-3.409,1.242-3.409
						c0.398,0-0.055,3.846-0.014,4.733c0.014,0.879,0.498,2.625,1.047,3.875c0,0,0,0,1.195,0.904
						c2.672,2.058,2.672,2.058,2.672,2.058c3.83-1.134,8.979-0.266,8.777,0.524c-0.211,0.784,2.83,0.969,3.018-0.303
						c0.178-1.251,0.322,0.037,0.322,0.92c0,0.859-2.518,4.281-2.93,5.87c-0.426,1.568-9.271,0.499-13.078,0.21
						c-3.809-0.283-9.424,1.009-9.861,2.146c-0.416,1.142-6.364-2.613-9.084-3.752c-2.734-1.158-4.873-5.312-5.43-5.849
						c-0.562-0.549,0.469-1.889,0.211-2.702c-0.268-0.837-6.488-1.005-8.287-0.327c-1.814,0.661-11.143,1.65-13.354,2.617
						c-2.193,0.989-5.525-0.06-6.559-0.245c-1.033-0.178-3.502,2.862-4.744,3.416c-1.275,0.549-2.857,4.862-3.543,9.604
						c0,0,0,0-1.695,3.301c-1.096,2.11-1.096,2.11-1.096,2.11c-3.084,2.34-6.488,10.158-7.496,11.728
						c-0.992,1.568-1.791,12.825-1.791,16.613c0,3.784,3.301,11.8,4.236,14.008c0.936,2.216,6.648,7.106,8.551,8.284
						c1.914,1.143,8.117,1.299,10.15,1.297c2.025-0.009,4.35-1.941,5.133-4.294c0,0,0,0,2.984,0.299
						c1.363,0.142,1.363,0.142,1.363,0.142c0.074,1.665,4.471,2.999,5.553,3.582c1.072,0.588,3.977,0.149,4.832-0.108
						c0.871-0.243,1.832,7.525,1.201,9.778c-0.613,2.243,1.533,10.126,2.162,12.503c0.639,2.375,3.334,8.861,3.615,11.19
						c0.252,2.333-1.59,10.077-1.896,12.784c-0.297,2.726,3.381,10.306,4.367,12.916c0.951,2.607,1.74,8.222,1.74,9.519
						c0,1.304,4.038,9.154,4.948,12.377C243.808,349.669,253.917,350.461,256.628,348.871z M431.163,252.749
						c0.273,0.579,2.809-1.439,4.332-1.674c1.531-0.238,2.492-4.338,1.299-4.621c-1.209-0.334-2.721-3.473-3.574-3.856
						c-0.865-0.386-2.543,1.354-2.469,2.592c0.062,1.245-2.785,1.746-3.316,2.787c-0.533,1.029-0.498,1.78,0.09,1.669
						C428.089,249.546,430.905,252.186,431.163,252.749z M428.04,274.988c0.758-0.282-0.09-4.325-1.664-4.665
						c-1.596-0.325-5.971,5.33-5.147,8.59c0.84,3.244,1.76,3.049,2.211,2.359c0.453-0.683,3.066,0.438,3.84,0.705
						c0.76,0.247,0.76-0.536,0-1.73C426.507,279.036,427.29,275.265,428.04,274.988z M419.376,271.042
						c0.182-1.442,0.457-5.964,0.715-6.859c0.234-0.902-2.459-3.489-3.799-3.96c-1.324-0.462-5.598,8.796-8.648,10.44
						c-3.082,1.648-4.18,7.276-3.381,8.586c0.812,1.302,7.213,1.993,8.326,2.976c1.121,0.976,2.357-0.158,3.023-0.323
						c0.68-0.162,0.469-0.594,0.211-0.764c-0.258-0.153,2.229-2.784,2.592-4.454C418.763,275.033,419.189,272.478,419.376,271.042z
						 M401.987,286.455c-2.404-0.9-5.213,0.516-5.43,1.436c-0.244,0.928,9.236,2.429,12.377,3.283
						c3.123,0.856,5.082,1.128,4.371,0.599C412.589,291.24,404.384,287.366,401.987,286.455z M421.206,224.857
						c0.766-1.044-1.059-6.006-1.979-4.882c-0.91,1.118-0.24,3.998,0.043,5.021C419.558,225.987,420.446,225.924,421.206,224.857z
						 M426.919,235.495c0.547-1.275-0.68-2.688-2.729-3.123c-2.057-0.421-1.75,5.74-0.846,6.527
						C424.23,239.665,426.353,236.786,426.919,235.495z M437.567,273.671c2.451,1.724,7.924,0.928,8.096-2.386
						C443.251,269.698,437.358,269.967,437.567,273.671z M436.255,198.126c-1.025,0.714-1.559,2.525-1.242,3.263
						c-0.146-0.012-0.277-0.016-0.424-0.016c-0.812,0-0.908,3.227-0.037,3.784c0.832,0.549,2.912-2.523,3.992-3.253
						c1.074-0.733,3.242-1.181,3.568-0.942c0.338,0.233,2.234-0.344,4.232-1.264c0.355-0.169,0.768-0.698,1.195-1.448
						c-0.477-2.359-1.047-4.685-1.613-7.015c-1.016,0.758-2.17,1.564-2.701,2.037C442.142,194.258,437.585,197.21,436.255,198.126z
						 M380.292,263.118c0,0,0.022,0,0.033,0.013C379.896,262.815,379.839,262.786,380.292,263.118z M395.548,277.323
						c-0.889-2.01-3.824-5.391-6.518-7.534c0,0,0,0-1.025-1.681c-1.115-1.852-1.115-1.852-1.115-1.852
						c-1.008-2.036-4.041-3.6-4.307-4.203c-0.26-0.594-1.227,1.761-2.258,1.078c0.539,0.377,1.668,1.18,3.266,2.316
						c2.848,2.04,8.334,15.824,9.576,16.792C394.403,283.206,396.429,279.333,395.548,277.323z M351.835,255.048
						c-0.76,1.562,4.057,4.871,4.428,4.112c0.397-0.76-0.613-4.574-1.477-5.429C353.94,252.902,352.608,253.495,351.835,255.048z
						 M287.868,328.705c0.193,1.642,3.518,2.936,4.469,2.669c0.994-0.269,3.672-5.224,4.043-6.646
						c0.379-1.436,0.685-4.498,0.685-5.233c0-0.713,0.445-2.363,0.815-2.574c0.355-0.184,0.977-1.88,1.348-3.726
						c0.371-1.889-1.994-10.579-2.064-12.099c-0.059-1.538-1.783,0.785-2.219,2.331c-0.469,1.54-4.785,4.693-5.754,6.005
						c-0.951,1.308-2.016,5.752-1.637,6.523c0.353,0.764-0.379,3.791-0.824,4.63C286.319,321.436,287.698,327.055,287.868,328.705z
						 M131.786,388.888c0.959,0,1.895,0,2.902,0C135.206,385.741,131.624,386.261,131.786,388.888z M209.362,61.311
						c-1.219,0.149-4.375-0.488-4.922-1.069c-0.533-0.573-5.277-1.086-6.633-0.517c-1.371,0.573-0.436-3.328,1.471-3.747
						c1.895-0.433,0.281-3.119-1.736-3.119c-2.033-0.016-7.02-0.75-8.189-0.487c-1.178,0.255-3.469-0.819-4.301-0.941
						c-0.84-0.12-6.834,1.792-9.666,1.65c-2.848-0.121-9.811,0.161-11.312,0.585c-1.533,0.396-2.621,3.353-2.404,4.39
						c0.227,1.059-6.736,1.032-8.922,1.064c-2.195,0.036-13.869,2.518-16.912,4.195c-3.049,1.671-5.43,5.954-4.422,6.043
						c1.01,0.082-1.693,2.511-3.332,3.083c-1.637,0.557-5.541,0.808-6.471,1.727c-0.912,0.916,0.984,1.55,1.348,2.175
						c0.355,0.601,1.445-0.54,2.492,0.053c1.018,0.581,4.422,0.854,5.316,1.201c0.914,0.36-2.879,1.078-4.662,1.211
						c-1.783,0.12-1.381,3.622,0.072,4.103c1.453,0.496,5.195,1.009,5.576,0.403c0.387-0.609,4.445,0.657,6.285,0.876
						c1.814,0.192,3.229,4.784,3.775,5.78c0.564,0.989,0.686,4.482,0.541,5.494c-0.121,1.005,3.236,2.849,3.85,2.207
						c0.588-0.641,0.418,1.582-0.922,1.465c-1.338-0.117-0.467,3.764,1.203,4.325c1.646,0.552,0.518,2.94-0.436,3.671
						c-0.969,0.713-0.443,2.997-1.428,3.82c-0.969,0.811,3.484,8.528,3.453,12.51c-0.025,3.962,2.453,7.206,3.396,7.206
						c0.951,0,4.211,0.794,4.646,1.649c0.428,0.847,2.002-0.59,2.631-1.243c0.605-0.646,1.945-2.562,2.945-4.236
						c1.002-1.689,3.234-9.646,3.541-10.501c0.301-0.858,4.035-0.318,4.891-0.758c0.846-0.44,3.299-2.367,3.992-2.941
						c0.695-0.573,6.027-2.832,7.498-3.884c1.441-1.038,3.871-5.563,5-6.524c1.139-0.976-0.58-0.686-2.008-1.617
						c-1.402-0.928-0.783-2.065-0.371-2.497c0.402-0.444,4.705,0.714,6.187,1.283c1.486,0.588,4.309-1.453,3.236-2.252
						c-1.105-0.782-0.523-0.758,0-0.427c0.518,0.322,1.072-2.61,0.51-3.163c-0.576-0.568,4.348-4.155,3.477-7.549
						c-0.855-3.392,1.348-6.869,2.662-6.914c1.33-0.036,0.936-3.828-0.645-4.184c-1.574-0.35-0.09-0.702,0.5-1.243
						c0.588-0.532,1.338-3.921,1-4.566c-0.355-0.662,2.42-1.392,2.896-2.162c0.5-0.766,3.662-2.283,4.793-2.533
						C209.967,64.147,210.571,61.177,209.362,61.311z M236.94,64.077c-1.502-0.516-4.566,1.159-4.182,2.102
						c0.406,0.961-2.484-1.21-4.502-0.173c-2.016,1.054-2.564,4.578-1.644,5.043c0.928,0.456,1.605,3.264,1.621,3.8
						c0.033,0.557,3.922,0.157,4.914-0.657c0.977-0.819,0.848,2.849-0.121,3.832c-0.984,0.993,0.348,2.978,1.43,3.143
						c1.08,0.15,2.557,2.703,3.67,2.671c1.105-0.023,3-4.3,3.438-5.909c0.436-1.586,4.131-0.332,5.832,0.182
						c1.688,0.494,2.316-5.896,0.477-6.863c-1.822-0.947-4.121-0.476-4.889-1.207c-0.752-0.737-2.049-1.414-2.905-1.548
						C239.231,68.371,238.432,64.59,236.94,64.077z M251.73,67.14c2.986,0.415,6.342-2.033,7.068-2.735
						c0.742-0.686-8.27-2.525-11.701-2.634c-3.428-0.104-6.204,0.358-6.147,1.04C241.006,63.474,248.735,66.705,251.73,67.14z
						 M197.227,147.937c-0.783-0.331-1.219,2.622-1.041,3.743c0.186,1.121,2.938,1.025,4.115,0.827
						c1.17-0.197,2.072-1.149,2.033-2.126c-0.066-0.964-1.727-5.369-2.387-5.369C199.284,145.012,198.026,148.245,197.227,147.937z
						 M206.079,113.574c-0.615-1.089-5.301-0.952-6.447-1.025c-1.129-0.063-4.639-1.229-5.31-1.976
						c-0.645-0.743-1.168,2.884-2.227,3.36c-1.08,0.463,0.525,1.153,0.969,0.769c0.428-0.387-0.031,1.868-0.516,2.639
						c-0.477,0.774,3.123,1.319,3.533,2.485c0.396,1.17,1.881,1.925,3.301,1.706c1.412-0.242,4.236-1.699,5.229-1.795
						C205.61,119.636,206.7,114.654,206.079,113.574z M304.48,86.735c1.615-1.614,8.23-3.797,8.988-5.471
						c0.742-1.658-0.467-3.022-1.137-3.022c-0.67,0-1.502,0.839-1.647,1.103c-0.17,0.281-7.77,2.064-10.094,3.187
						c-2.356,1.121-5.051,2.86-6.025,3.856c-0.984,0.988-2.592,8.524-3.164,9.376c-0.557,0.843,2.525,3.913,3.896,4.771
						c1.373,0.835,3.252,0.396,3.785,0.234c0.523-0.169-0.711-5.431-1.412-7.267C296.937,91.68,302.876,88.368,304.48,86.735z
						 M296.347,67.104c2.504,2.481,3.881-1.106,6.623-0.755C302.923,61.311,296.099,63.041,296.347,67.104z M344.976,68.043
						c-0.08,0.928,6.914,1.678,8.965,1.314c2.039-0.351-0.43-3.545-3.422-3.352C347.55,66.204,345.048,67.119,344.976,68.043z
						 M91.669,119.915c-0.734,0.686-0.09,4.119,1.314,4.22c1.396,0.097,3.631-5.18,5.35-4.119c1.711,1.057,2.873,1.477,2.592,0.913
						c-0.291-0.554-5.174-2.692-5.777-3.097C94.54,117.47,92.426,119.257,91.669,119.915z M109.563,236.085
						c0,0.575,3.051,0.494,3.551-0.445c0.484-0.933,0.225-1.695-0.596-1.695C111.711,233.945,109.563,235.495,109.563,236.085z
						 M95.985,231.065c1.469-0.278,0.783,2.086,1.121,2.93c0.363,0.85,3.857,1.528,4.559,2.105c0.695,0.568,2.502-1.073,3.906-0.896
						c1.394,0.178-0.459-4.842-2.816-4.699c-2.34,0.156-4.195-2.128-4.744-2.41c-0.58-0.249-3.275-1.903-4.066-2.523
						c-0.768-0.632-6.746-1.158-8.777-1.158c-2.035,0-4.27,2.073-4.576,2.746c-0.33,0.687,3.221,1.146,4.221,0.605
						c1.016-0.528,5.752,0.602,6.721,1.742C92.506,230.637,94.518,231.342,95.985,231.065z M89.604,236.085
						c0,0.575,3.08,0.212,3.814,0.233c0.758,0.016,0.727-0.489-0.057-1.113C92.588,234.583,89.604,235.495,89.604,236.085z
						 M91.784,220.23c-0.801-0.312-1.447,0.943-1.447,1.541c0,0.589,0.445,1.081,0.977,1.081
						C91.864,222.852,92.581,220.556,91.784,220.23z M98.237,220.729c-0.275-0.597-1.59-1.076-1.979-1.076
						c-0.402,0-0.693,1.024-0.619,2.26C95.71,223.153,98.501,221.31,98.237,220.729z M102.883,227.886
						c1.242-0.605,1.397-2.098,0.662-2.009c-0.742,0.071-2.105-2.147-2.912-2.466c-0.801-0.321-1.453,1.336-1.453,2.058
						c0,0.723,0.451,1.224,1,1.073C100.729,226.41,101.626,228.463,102.883,227.886z M446.831,276.249
						c-0.637,0.33-3.744,0.696-4.149,0.089c-0.418-0.613-1.033,1.258-1.691,1.561c-0.664,0.297-0.299,1.93,0.684,1.423
						c0.695-0.339,3.633,1.283,6.027,2.791c0.477-2.364,0.889-4.75,1.283-7.157C448.122,275.414,447.235,276.031,446.831,276.249z"
						/>
					<defs>
						<filter id="Adobe_OpacityMaskFilter" filterUnits="userSpaceOnUse" x="80.376" y="31.283" width="318.09" height="267.38">
							
								<feColorMatrix  type="matrix" values="-1 0 0 0 1  0 -1 0 0 1  0 0 -1 0 1  0 0 0 1 0" color-interpolation-filters="sRGB" result="source"/>
							<feFlood  style="flood-color:white;flood-opacity:1" result="back"/>
							<feBlend  in="source" in2="back" mode="normal"/>
						</filter>
					</defs>
					<mask maskUnits="userSpaceOnUse" x="80.376" y="31.283" width="318.09" height="267.38" id="SVGID_3_">
						<g style="filter:url(#Adobe_OpacityMaskFilter);">
							<radialGradient id="SVGID_4_" cx="228.8155" cy="44.8298" r="281.5457" gradientUnits="userSpaceOnUse">
								<stop  offset="0" style="stop-color:#000000"/>
								<stop  offset="0.1042" style="stop-color:#272727"/>
								<stop  offset="0.2914" style="stop-color:#686868"/>
								<stop  offset="0.47" style="stop-color:#9E9E9E"/>
								<stop  offset="0.6349" style="stop-color:#C8C8C8"/>
								<stop  offset="0.7833" style="stop-color:#E6E6E6"/>
								<stop  offset="0.91" style="stop-color:#F8F8F8"/>
								<stop  offset="1" style="stop-color:#FFFFFF"/>
							</radialGradient>
							<rect x="44.418" y="-19.71" style="fill:url(#SVGID_4_);" width="391.846" height="331.916"/>
						</g>
					</mask>
					<path style="opacity:0.5;mask:url(#SVGID_3_);fill:#E1EBF4;" d="M398.466,164.97c0,73.839-71.211,133.692-159.042,133.692
						c-87.839,0-159.048-59.853-159.048-133.692c0-73.831,71.209-133.688,159.048-133.688
						C327.255,31.283,398.466,91.139,398.466,164.97z"/>
				</g>
				<path style="opacity:0.6;fill:#FFFFFF;" d="M293.861,34.977c-3.489-1.393-7.087-2.514-10.805-3.344
					c-32.793-7.32-67.745,9.488-97.743,42.568c-29.554,32.597-54.402,81.12-67.544,137.845c-0.02,0.074-0.041,0.15-0.054,0.232
					c-13.102,56.712-12.037,111.014,0.28,152.954c11.284,38.422,32.036,66.596,60.085,77.11
					c-27.308-10.931-47.54-38.792-58.623-76.545c-12.317-41.942-13.382-96.242-0.281-152.954c0.014-0.078,0.034-0.154,0.053-0.232
					c13.141-56.726,37.988-105.25,67.545-137.841c30-33.085,64.951-49.892,97.747-42.576
					C287.718,32.91,290.832,33.844,293.861,34.977z"/>
				<path style="opacity:0.6;fill:#FFFFFF;" d="M34.964,296.993c0.12,3.741,0.531,7.472,1.257,11.198
					c6.399,32.866,35.693,58.078,77.871,72.274c41.558,13.983,95.781,17.314,152.825,6.685c0.076-0.013,0.152-0.025,0.232-0.044
					c57.016-10.664,106.178-33.302,139.562-61.281c30.582-25.634,48.034-55.826,46.441-85.633
					c0.914,29.297-16.454,58.888-46.508,84.073c-33.388,27.98-82.546,50.618-139.562,61.279c-0.078,0.02-0.155,0.031-0.233,0.045
					c-57.043,10.633-111.266,7.302-152.821-6.685c-42.18-14.195-71.473-39.406-77.879-72.274
					C35.527,303.427,35.138,300.212,34.964,296.993z"/>
				<path style="opacity:0.6;fill:#FFFFFF;" d="M112.01,71.911c-3.364,1.669-6.6,3.601-9.698,5.815
					c-27.328,19.539-38.131,56.782-33.508,101.192c4.558,43.756,24.117,94.633,57.593,142.266c0.042,0.062,0.086,0.13,0.137,0.194
					c33.495,47.592,74.645,83.026,114.095,101.836c36.143,17.228,70.97,20.569,97.512,6.695
					c-26.358,13.045-60.604,9.523-96.113-7.408c-39.455-18.81-80.602-54.243-114.096-101.835c-0.049-0.062-0.094-0.128-0.139-0.194
					c-33.477-47.631-53.037-98.507-57.589-142.263c-4.625-44.413,6.176-81.656,33.505-101.2
					C106.372,75.108,109.144,73.413,112.01,71.911z"/>
				<g style="opacity:0.5;">
					<g>
						<path style="fill:#FFFFFF;" d="M126.132,208.176c-13.015,0-23.602-10.587-23.602-23.602c0-13.014,10.587-23.602,23.602-23.602
							c13.013,0,23.602,10.588,23.602,23.602C149.733,197.589,139.145,208.176,126.132,208.176z M126.132,161.199
							c-12.891,0-23.376,10.487-23.376,23.376c0,12.89,10.486,23.376,23.376,23.376c12.889,0,23.375-10.486,23.375-23.376
							C149.507,171.685,139.021,161.199,126.132,161.199z"/>
					</g>
					<g>
						<path style="fill:#FFFFFF;" d="M126.132,221.883c-20.573,0-37.309-16.736-37.309-37.309c0-20.571,16.736-37.309,37.309-37.309
							c20.571,0,37.309,16.738,37.309,37.309C163.44,205.147,146.703,221.883,126.132,221.883z M126.132,147.622
							c-20.376,0-36.953,16.577-36.953,36.952c0,20.377,16.576,36.954,36.953,36.954c20.374,0,36.952-16.577,36.952-36.954
							C163.084,164.2,146.506,147.622,126.132,147.622z"/>
					</g>
					<g>
						<path style="fill:#FFFFFF;" d="M126.132,196.241c-6.433,0-11.667-5.233-11.667-11.666c0-6.433,5.233-11.665,11.667-11.665
							c6.433,0,11.665,5.232,11.665,11.665C137.797,191.007,132.564,196.241,126.132,196.241z M126.132,173.095
							c-6.331,0-11.48,5.15-11.48,11.48c0,6.33,5.149,11.48,11.48,11.48c6.329,0,11.479-5.15,11.479-11.48
							C137.611,178.245,132.461,173.095,126.132,173.095z"/>
					</g>
				</g>
				<g style="opacity:0.5;">
					<g>
						<path style="fill:#FFFFFF;" d="M381.933,238.254c-11.838,0-21.469-9.63-21.469-21.468c0-11.837,9.631-21.468,21.469-21.468
							c11.838,0,21.469,9.63,21.469,21.468C403.401,228.623,393.771,238.254,381.933,238.254z M381.933,195.522
							c-11.725,0-21.263,9.539-21.263,21.263c0,11.725,9.538,21.264,21.263,21.264c11.725,0,21.264-9.539,21.264-21.264
							C403.196,205.061,393.657,195.522,381.933,195.522z"/>
					</g>
					<g>
						<path style="fill:#FFFFFF;" d="M381.933,248.559c-17.52,0-31.773-14.253-31.773-31.773c0-17.52,14.254-31.773,31.773-31.773
							c17.519,0,31.773,14.253,31.773,31.773C413.706,234.307,399.452,248.559,381.933,248.559z M381.933,185.316
							c-17.353,0-31.47,14.117-31.47,31.47c0,17.354,14.117,31.471,31.47,31.471c17.353,0,31.471-14.117,31.471-31.471
							C413.403,199.433,399.285,185.316,381.933,185.316z"/>
					</g>
					<g>
						<path style="fill:#FFFFFF;" d="M381.933,229.666c-7.103,0-12.881-5.778-12.881-12.881c0-7.103,5.778-12.88,12.881-12.88
							c7.103,0,12.881,5.778,12.881,12.88C394.814,223.889,389.035,229.666,381.933,229.666z M381.933,204.11
							c-6.989,0-12.676,5.687-12.676,12.675c0,6.989,5.687,12.675,12.676,12.675c6.989,0,12.676-5.686,12.676-12.675
							C394.608,209.797,388.922,204.11,381.933,204.11z"/>
					</g>
				</g>
				<g style="opacity:0.5;">
					<g>
						<path style="fill:#FFFFFF;" d="M351.736,373.665c-9.048,0-16.408-7.359-16.408-16.407c0-9.047,7.36-16.407,16.408-16.407
							c9.047,0,16.407,7.36,16.407,16.407C368.144,366.306,360.783,373.665,351.736,373.665z M351.736,341.007
							c-8.961,0-16.251,7.291-16.251,16.251c0,8.961,7.29,16.251,16.251,16.251c8.961,0,16.251-7.29,16.251-16.251
							C367.987,348.298,360.697,341.007,351.736,341.007z"/>
					</g>
					<g>
						<path style="fill:#FFFFFF;" d="M351.736,367.103c-5.429,0-9.845-4.416-9.845-9.845c0-5.429,4.416-9.844,9.845-9.844
							c5.428,0,9.844,4.415,9.844,9.844C361.58,362.687,357.164,367.103,351.736,367.103z M351.736,347.571
							c-5.342,0-9.687,4.347-9.687,9.688c0,5.342,4.346,9.688,9.687,9.688c5.341,0,9.687-4.346,9.687-9.688
							C361.423,351.917,357.077,347.571,351.736,347.571z"/>
					</g>
				</g>
				<g style="opacity:0.5;">
					<g>
						<path style="fill:#FFFFFF;" d="M194.152,416.407c-12.676,0-22.989-10.314-22.989-22.989c0-12.676,10.314-22.989,22.989-22.989
							c12.677,0,22.989,10.314,22.989,22.989C217.142,406.093,206.829,416.407,194.152,416.407z M194.152,370.648
							c-12.555,0-22.769,10.214-22.769,22.77c0,12.556,10.214,22.77,22.769,22.77c12.556,0,22.771-10.214,22.771-22.77
							C216.923,380.862,206.708,370.648,194.152,370.648z"/>
					</g>
					<g>
						<path style="fill:#FFFFFF;" d="M194.152,407.21c-7.606,0-13.792-6.188-13.792-13.793c0-7.605,6.186-13.793,13.792-13.793
							c7.606,0,13.794,6.188,13.794,13.793C207.946,401.023,201.758,407.21,194.152,407.21z M194.152,379.844
							c-7.484,0-13.574,6.089-13.574,13.573c0,7.484,6.09,13.573,13.574,13.573c7.485,0,13.573-6.089,13.573-13.573
							C207.726,385.933,201.637,379.844,194.152,379.844z"/>
					</g>
				</g>
				<path style="opacity:0.6;fill:#FFFFFF;" d="M364.167,76.489C348.071,30.405,323.282,3.363,294.37,0.344
					c-21.235-2.215-42.202,6.157-62.32,28.634c0.793-0.04,1.615-0.079,2.45-0.113c19.397-21.19,39.429-28.895,59.687-26.779
					c28.195,2.944,52.457,29.571,68.316,74.978c16.236,46.468,21.516,106.661,14.867,169.496
					c-6.65,62.834-24.412,120.619-50.014,162.713c-25.016,41.131-54.322,62.16-82.52,59.209
					c-13.096-1.368-25.456-8.005-36.524-19.323c-1.082-0.149-2.016-0.292-2.828-0.425c11.752,12.621,25.03,20.012,39.169,21.488
					c1.805,0.189,3.611,0.283,5.424,0.283c27.207-0.002,54.982-21.19,78.785-60.326c25.734-42.31,43.584-100.353,50.26-163.443
					C385.798,183.656,380.485,123.195,364.167,76.489z"/>
				<path style="opacity:0.6;fill:#FFFFFF;" d="M409.109,42.043c-21.976-21.975-61.255-24.267-110.602-6.453
					c-0.703,0.254-1.411,0.532-2.119,0.794c0.999,0.292,2.049,0.601,3.018,0.887c48.496-17.451,86.978-15.289,108.371,6.103
					c21.431,21.427,23.564,60.006,6.008,108.63c-17.964,49.761-54.317,103.627-102.37,151.681
					c-48.052,48.05-101.919,84.404-151.679,102.368c-48.622,17.552-87.199,15.417-108.629-6.016
					c-18.823-18.821-22.748-51.589-11.183-92.569c-0.251-0.763-0.722-2.215-1.033-3.178c-12.692,42.904-8.852,77.346,10.884,97.078
					c12.194,12.197,29.717,18.33,51.333,18.33c17.335,0,37.305-3.945,59.266-11.875c50.015-18.055,104.128-54.566,152.373-102.807
					l0.06-0.062c48.211-48.227,84.7-102.314,102.75-152.313C433.377,103.294,431.087,64.015,409.109,42.043z"/>
				<path style="opacity:0.6;fill:#FFFFFF;" d="M395.946,222.759c-41.686-23.553-98.386-39.073-159.65-43.7l-0.143-0.009
					c-61.22-4.604-119.553,2.23-164.272,19.247c-44.156,16.801-69.633,41.425-71.74,69.335
					c-2.027,26.869,17.825,53.974,56.002,76.691l-1.617-2.956c-35.974-22.051-54.626-47.997-52.695-73.608
					c2.053-27.216,27.143-51.322,70.652-67.877c44.524-16.943,102.653-23.737,163.679-19.131l0.14,0.009
					c60.97,4.621,117.364,20.06,158.809,43.476c40.535,22.902,61.725,50.5,59.665,77.717c-1.41,18.708-13.276,36.106-35.484,50.635
					c-0.617,0.943-1.478,2.239-2.285,3.451c5.843-3.603,10.536-7.39,15.141-11.348c14.842-12.76,23.161-27.236,24.319-42.61
					C458.581,274.174,437.084,246.004,395.946,222.759z"/>
			</g>
			<g>
				
					<radialGradient id="SVGID_5_" cx="896.0571" cy="9.8735" r="15.0987" gradientTransform="matrix(-0.1488 0.9889 -0.9889 -0.1488 337.2487 -490.2365)" gradientUnits="userSpaceOnUse">
					<stop  offset="0" style="stop-color:#FFFFFF;stop-opacity:0.87"/>
					<stop  offset="1" style="stop-color:#000000;stop-opacity:0"/>
				</radialGradient>
				<path style="fill:url(#SVGID_5_);" d="M191.898,409.337c-8.245-1.245-13.914-8.936-12.676-17.181
					c1.244-8.24,8.925-13.924,17.169-12.686c8.245,1.245,13.929,8.939,12.689,17.184
					C207.836,404.891,200.143,410.576,191.898,409.337z"/>
				
					<radialGradient id="SVGID_6_" cx="855.1115" cy="177.6512" r="15.0984" gradientTransform="matrix(-0.1488 0.9889 -0.9889 -0.1488 337.2487 -490.2365)" gradientUnits="userSpaceOnUse">
					<stop  offset="0" style="stop-color:#FFFFFF;stop-opacity:0.87"/>
					<stop  offset="1" style="stop-color:#000000;stop-opacity:0"/>
				</radialGradient>
				<path style="fill:url(#SVGID_6_);" d="M32.076,343.88c-8.246-1.244-13.914-8.936-12.676-17.18
					c1.244-8.24,8.924-13.924,17.168-12.686c8.246,1.244,13.93,8.939,12.689,17.184C48.013,339.435,40.32,345.118,32.076,343.88z"/>
				
					<radialGradient id="SVGID_7_" cx="692.4818" cy="-149.3836" r="15.0984" gradientTransform="matrix(-0.1488 0.9889 -0.9889 -0.1488 337.2487 -490.2365)" gradientUnits="userSpaceOnUse">
					<stop  offset="0" style="stop-color:#FFFFFF;stop-opacity:0.87"/>
					<stop  offset="1" style="stop-color:#000000;stop-opacity:0"/>
				</radialGradient>
				<path style="fill:url(#SVGID_7_);" d="M379.68,231.719c-8.246-1.244-13.914-8.936-12.676-17.18
					c1.244-8.24,8.924-13.924,17.168-12.686c8.246,1.244,13.93,8.939,12.689,17.184C395.617,227.273,387.924,232.957,379.68,231.719
					z"/>
				<radialGradient id="SVGID_8_" cx="336.6378" cy="26.2738" r="12.7397" gradientUnits="userSpaceOnUse">
					<stop  offset="0" style="stop-color:#FFFFFF;stop-opacity:0.87"/>
					<stop  offset="1" style="stop-color:#000000;stop-opacity:0"/>
				</radialGradient>
				<path style="fill:url(#SVGID_8_);" d="M334.385,41.643c-8.246-1.244-13.914-8.935-12.676-17.18
					c1.244-8.24,8.924-13.924,17.168-12.686c8.246,1.244,13.93,8.939,12.69,17.184C350.322,37.198,342.629,42.882,334.385,41.643z"
					/>
				
					<radialGradient id="SVGID_9_" cx="698.8275" cy="109.2629" r="15.0984" gradientTransform="matrix(-0.1488 0.9889 -0.9889 -0.1488 337.2487 -490.2365)" gradientUnits="userSpaceOnUse">
					<stop  offset="0" style="stop-color:#FFFFFF;stop-opacity:0.87"/>
					<stop  offset="1" style="stop-color:#000000;stop-opacity:0"/>
				</radialGradient>
				<path style="fill:url(#SVGID_9_);" d="M122.96,199.507c-8.246-1.244-13.914-8.936-12.676-17.18
					c1.244-8.24,8.924-13.924,17.168-12.686c8.246,1.244,13.93,8.939,12.689,17.184C138.898,195.062,131.204,200.745,122.96,199.507
					z"/>
				
					<radialGradient id="SVGID_10_" cx="735.5114" cy="-222.9891" r="15.0984" gradientTransform="matrix(-0.1488 0.9889 -0.9889 -0.1488 337.2487 -490.2365)" gradientUnits="userSpaceOnUse">
					<stop  offset="0" style="stop-color:#FFFFFF;stop-opacity:0.87"/>
					<stop  offset="1" style="stop-color:#000000;stop-opacity:0"/>
				</radialGradient>
				<path style="fill:url(#SVGID_10_);" d="M446.065,285.223c-8.246-1.244-13.914-8.935-12.676-17.18
					c1.244-8.24,8.924-13.924,17.168-12.686c8.246,1.244,13.93,8.939,12.69,17.184C462.003,280.778,454.31,286.461,446.065,285.223z
					"/>
				
					<radialGradient id="SVGID_11_" cx="570.6757" cy="62.5024" r="9.7206" gradientTransform="matrix(-0.1488 0.9889 -0.9889 -0.1488 337.2487 -490.2365)" gradientUnits="userSpaceOnUse">
					<stop  offset="0" style="stop-color:#FFFFFF;stop-opacity:0.87"/>
					<stop  offset="1" style="stop-color:#000000;stop-opacity:0"/>
				</radialGradient>
				<path style="fill:url(#SVGID_11_);" d="M189.072,74.417c-5.309-0.801-8.957-5.753-8.16-11.061
					c0.801-5.305,5.744-8.964,11.053-8.167c5.309,0.801,8.967,5.756,8.17,11.062C199.334,71.555,194.381,75.214,189.072,74.417z"/>
				
					<radialGradient id="SVGID_12_" cx="721.5767" cy="158.9608" r="9.7205" gradientTransform="matrix(-0.1488 0.9889 -0.9889 -0.1488 337.2487 -490.2365)" gradientUnits="userSpaceOnUse">
					<stop  offset="0" style="stop-color:#FFFFFF;stop-opacity:0.87"/>
					<stop  offset="1" style="stop-color:#000000;stop-opacity:0"/>
				</radialGradient>
				<path style="fill:url(#SVGID_12_);" d="M71.231,209.29c-5.309-0.801-8.958-5.753-8.161-11.061
					c0.802-5.305,5.745-8.964,11.053-8.167c5.31,0.801,8.968,5.756,8.17,11.062C81.492,206.428,76.539,210.087,71.231,209.29z"/>
				
					<radialGradient id="SVGID_13_" cx="923.5983" cy="62.118" r="9.7205" gradientTransform="matrix(-0.1488 0.9889 -0.9889 -0.1488 337.2487 -490.2365)" gradientUnits="userSpaceOnUse">
					<stop  offset="0" style="stop-color:#FFFFFF;stop-opacity:0.87"/>
					<stop  offset="1" style="stop-color:#000000;stop-opacity:0"/>
				</radialGradient>
				<path style="fill:url(#SVGID_13_);" d="M136.939,423.48c-5.309-0.801-8.959-5.753-8.162-11.061
					c0.803-5.305,5.746-8.964,11.053-8.167c5.311,0.801,8.969,5.756,8.17,11.062C147.199,420.618,142.246,424.277,136.939,423.48z"
					/>
				
					<radialGradient id="SVGID_14_" cx="836.6053" cy="-142.0544" r="15.0984" gradientTransform="matrix(-0.1488 0.9889 -0.9889 -0.1488 337.2487 -490.2365)" gradientUnits="userSpaceOnUse">
					<stop  offset="0" style="stop-color:#FFFFFF;stop-opacity:0.87"/>
					<stop  offset="1" style="stop-color:#000000;stop-opacity:0"/>
				</radialGradient>
				<path style="fill:url(#SVGID_14_);" d="M350.986,373.152c-8.246-1.244-13.914-8.935-12.676-17.18
					c1.244-8.24,8.924-13.924,17.168-12.686c8.246,1.244,13.93,8.94,12.689,17.184C366.924,368.706,359.231,374.39,350.986,373.152z
					"/>
			</g>
		</g>
	</g>
</g>
<g id="Layer_1">
</g>
</svg>
